<svg id="Group_42979" data-name="Group 42979" xmlns="http://www.w3.org/2000/svg" width="64.097" height="117.203" viewBox="0 0 64.097 117.203">
  <path id="Path_30232" data-name="Path 30232" d="M470.667,1226.453a36.846,36.846,0,0,0-19.472-5.984c-4.787,0-11.833.755-18.21,4.352a25.258,25.258,0,0,0-9.392,9.071c-2.691,4.484-4.147,10.032-4.329,16.49a3.575,3.575,0,0,0,3.577,3.667h12.553a3.593,3.593,0,0,0,3.542-3.074c.557-3.936,2.893-10.564,12.287-10.727a11.408,11.408,0,0,1,11.047,7.292,12.794,12.794,0,0,1-1.035,11.529c-3.34,5.507-9.485,6.35-12.851,6.363a7.038,7.038,0,0,0-7.019,7v13.508a3.581,3.581,0,0,0,3.578,3.578h12.231a3.582,3.582,0,0,0,3.578-3.578v-2.838a.158.158,0,0,1,.108-.15,35.468,35.468,0,0,0,12.978-8.131c6.175-6.139,9.306-14.064,9.306-23.552C483.143,1237.695,476.359,1230.281,470.667,1226.453Z" transform="translate(-419.046 -1196.238)" fill="#4d91db"/>
  <path id="Path_30233" data-name="Path 30233" d="M577.358,1716.528h.987a8.809,8.809,0,1,1,0,17.618h-.987a8.809,8.809,0,1,1,0-17.618Z" transform="translate(-545.654 -1616.943)" fill="#1a2e35"/>
  <g id="Group_42978" data-name="Group 42978" transform="translate(0 0)">
    <path id="Path_30234" data-name="Path 30234" d="M568.032,1625.2h12.225a3.525,3.525,0,0,0,3.576-3.464v-5.522a.153.153,0,0,1,.108-.145,29.582,29.582,0,0,0,5.755-2.8c-7.811-.055-22.049-.134-25.24-.018v8.484A3.525,3.525,0,0,0,568.032,1625.2Z" transform="translate(-542.183 -1529.307)" fill="#1a2e35"/>
    <g id="Group_42897" data-name="Group 42897">
      <g id="Group_42875" data-name="Group 42875" transform="translate(8.75 3.782)">
        <g id="Group_42757" data-name="Group 42757">
          <g id="Group_42756" data-name="Group 42756">
            <g id="Group_42755" data-name="Group 42755">
              <g id="Group_42754" data-name="Group 42754">
                <g id="Group_42753" data-name="Group 42753">
                  <g id="Group_42752" data-name="Group 42752">
                    <g id="Group_42751" data-name="Group 42751">
                      <g id="Group_42750" data-name="Group 42750">
                        <path id="Path_30235" data-name="Path 30235" d="M502.6,1116.775l-7.845-22.783c-1.657-5.7-6.357-9.495-12.014-7.681l-.513.2a10.619,10.619,0,0,0-6.356,12.923c1.464,4.937,3.144,10.372,4.168,12.928,2.12,5.291,7.67,3.806,7.67,3.806s1.235,3.527,1.77,5.112l2.873,2.839,1.187-1.3Z" transform="translate(-475.432 -1085.853)" fill="#ffbf9d"/>
                      </g>
                    </g>
                  </g>
                </g>
              </g>
            </g>
          </g>
        </g>
        <g id="Group_42766" data-name="Group 42766" transform="translate(12.277 25.591)">
          <g id="Group_42765" data-name="Group 42765">
            <g id="Group_42764" data-name="Group 42764">
              <g id="Group_42763" data-name="Group 42763">
                <g id="Group_42762" data-name="Group 42762">
                  <g id="Group_42761" data-name="Group 42761">
                    <g id="Group_42760" data-name="Group 42760">
                      <g id="Group_42759" data-name="Group 42759">
                        <g id="Group_42758" data-name="Group 42758">
                          <path id="Path_30236" data-name="Path 30236" d="M556.253,1259.042a13.769,13.769,0,0,0,6.132-4.721s-.121,4.641-5.611,6.212Z" transform="translate(-556.253 -1254.321)" fill="#ff9a6c"/>
                        </g>
                      </g>
                    </g>
                  </g>
                </g>
              </g>
            </g>
          </g>
        </g>
        <g id="Group_42781" data-name="Group 42781" transform="translate(4.237 16.146)">
          <g id="Group_42780" data-name="Group 42780">
            <g id="Group_42779" data-name="Group 42779">
              <g id="Group_42778" data-name="Group 42778">
                <g id="Group_42777" data-name="Group 42777">
                  <g id="Group_42776" data-name="Group 42776">
                    <g id="Group_42775" data-name="Group 42775">
                      <g id="Group_42774" data-name="Group 42774">
                        <g id="Group_42773" data-name="Group 42773">
                          <g id="Group_42772" data-name="Group 42772">
                            <g id="Group_42771" data-name="Group 42771">
                              <g id="Group_42770" data-name="Group 42770">
                                <g id="Group_42769" data-name="Group 42769">
                                  <g id="Group_42768" data-name="Group 42768">
                                    <g id="Group_42767" data-name="Group 42767">
                                      <path id="Path_30237" data-name="Path 30237" d="M503.366,1193.174a.814.814,0,0,0,1.028.483.778.778,0,0,0,.518-.987.814.814,0,0,0-1.027-.484A.779.779,0,0,0,503.366,1193.174Z" transform="translate(-503.325 -1192.145)" fill="#1a2e35"/>
                                    </g>
                                  </g>
                                </g>
                              </g>
                            </g>
                          </g>
                        </g>
                      </g>
                    </g>
                  </g>
                </g>
              </g>
            </g>
          </g>
        </g>
        <g id="Group_42797" data-name="Group 42797" transform="translate(2.356 13.707)">
          <g id="Group_42796" data-name="Group 42796">
            <g id="Group_42795" data-name="Group 42795">
              <g id="Group_42794" data-name="Group 42794">
                <g id="Group_42793" data-name="Group 42793">
                  <g id="Group_42792" data-name="Group 42792">
                    <g id="Group_42791" data-name="Group 42791">
                      <g id="Group_42790" data-name="Group 42790">
                        <g id="Group_42789" data-name="Group 42789">
                          <g id="Group_42788" data-name="Group 42788">
                            <g id="Group_42787" data-name="Group 42787">
                              <g id="Group_42786" data-name="Group 42786">
                                <g id="Group_42785" data-name="Group 42785">
                                  <g id="Group_42784" data-name="Group 42784">
                                    <g id="Group_42783" data-name="Group 42783">
                                      <g id="Group_42782" data-name="Group 42782">
                                        <path id="Path_30238" data-name="Path 30238" d="M490.975,1177.613c.132.063.543-.585,1.361-.9s1.574-.136,1.624-.271c.026-.061-.139-.2-.473-.292a2.236,2.236,0,0,0-1.348.094,2.146,2.146,0,0,0-1.035.839C490.928,1177.375,490.912,1177.587,490.975,1177.613Z" transform="translate(-490.941 -1176.089)" fill="#1a2e35"/>
                                      </g>
                                    </g>
                                  </g>
                                </g>
                              </g>
                            </g>
                          </g>
                        </g>
                      </g>
                    </g>
                  </g>
                </g>
              </g>
            </g>
          </g>
        </g>
        <g id="Group_42813" data-name="Group 42813" transform="translate(11.076 12.943)">
          <g id="Group_42812" data-name="Group 42812">
            <g id="Group_42811" data-name="Group 42811">
              <g id="Group_42810" data-name="Group 42810">
                <g id="Group_42809" data-name="Group 42809">
                  <g id="Group_42808" data-name="Group 42808">
                    <g id="Group_42807" data-name="Group 42807">
                      <g id="Group_42806" data-name="Group 42806">
                        <g id="Group_42805" data-name="Group 42805">
                          <g id="Group_42804" data-name="Group 42804">
                            <g id="Group_42803" data-name="Group 42803">
                              <g id="Group_42802" data-name="Group 42802">
                                <g id="Group_42801" data-name="Group 42801">
                                  <g id="Group_42800" data-name="Group 42800">
                                    <g id="Group_42799" data-name="Group 42799">
                                      <g id="Group_42798" data-name="Group 42798">
                                        <path id="Path_30239" data-name="Path 30239" d="M548.379,1172.581c.133.063.544-.585,1.362-.9s1.574-.136,1.625-.271c.026-.061-.138-.2-.473-.292a2.233,2.233,0,0,0-1.348.094,2.149,2.149,0,0,0-1.036.839C548.333,1172.343,548.316,1172.555,548.379,1172.581Z" transform="translate(-548.346 -1171.056)" fill="#1a2e35"/>
                                      </g>
                                    </g>
                                  </g>
                                </g>
                              </g>
                            </g>
                          </g>
                        </g>
                      </g>
                    </g>
                  </g>
                </g>
              </g>
            </g>
          </g>
        </g>
        <g id="Group_42828" data-name="Group 42828" transform="translate(7.55 12.786)">
          <g id="Group_42827" data-name="Group 42827">
            <g id="Group_42826" data-name="Group 42826">
              <g id="Group_42825" data-name="Group 42825">
                <g id="Group_42824" data-name="Group 42824">
                  <g id="Group_42823" data-name="Group 42823">
                    <g id="Group_42822" data-name="Group 42822">
                      <g id="Group_42821" data-name="Group 42821">
                        <g id="Group_42820" data-name="Group 42820">
                          <g id="Group_42819" data-name="Group 42819">
                            <g id="Group_42818" data-name="Group 42818">
                              <g id="Group_42817" data-name="Group 42817">
                                <g id="Group_42816" data-name="Group 42816">
                                  <g id="Group_42815" data-name="Group 42815">
                                    <g id="Group_42814" data-name="Group 42814">
                                      <path id="Path_30240" data-name="Path 30240" d="M527.549,1176.974a5.786,5.786,0,0,0-1.419.273c-.217.059-.43.094-.521-.035a1.138,1.138,0,0,1-.1-.672q0-.871,0-1.827a29.288,29.288,0,0,0-.22-4.691,29.316,29.316,0,0,0-.158,4.7q.014.956.026,1.826a1.3,1.3,0,0,0,.208.861.56.56,0,0,0,.461.172,1.523,1.523,0,0,0,.374-.087A5.7,5.7,0,0,0,527.549,1176.974Z" transform="translate(-525.132 -1170.022)" fill="#1a2e35"/>
                                    </g>
                                  </g>
                                </g>
                              </g>
                            </g>
                          </g>
                        </g>
                      </g>
                    </g>
                  </g>
                </g>
              </g>
            </g>
          </g>
        </g>
        <g id="Group_42839" data-name="Group 42839" transform="translate(9.185 8.02)">
          <g id="Group_42838" data-name="Group 42838">
            <g id="Group_42837" data-name="Group 42837">
              <g id="Group_42836" data-name="Group 42836">
                <g id="Group_42835" data-name="Group 42835">
                  <g id="Group_42834" data-name="Group 42834">
                    <g id="Group_42833" data-name="Group 42833">
                      <g id="Group_42832" data-name="Group 42832">
                        <g id="Group_42831" data-name="Group 42831">
                          <g id="Group_42830" data-name="Group 42830">
                            <g id="Group_42829" data-name="Group 42829">
                              <path id="Path_30241" data-name="Path 30241" d="M535.933,1140.505c.192.166.9-.36,1.857-.754.949-.413,1.82-.555,1.834-.808,0-.119-.232-.244-.637-.281a3.484,3.484,0,0,0-2.812,1.19C535.92,1140.169,535.845,1140.425,535.933,1140.505Z" transform="translate(-535.898 -1138.652)" fill="#1a2e35"/>
                            </g>
                          </g>
                        </g>
                      </g>
                    </g>
                  </g>
                </g>
              </g>
            </g>
          </g>
        </g>
        <g id="Group_42850" data-name="Group 42850" transform="translate(1.36 11.18)">
          <g id="Group_42849" data-name="Group 42849">
            <g id="Group_42848" data-name="Group 42848">
              <g id="Group_42847" data-name="Group 42847">
                <g id="Group_42846" data-name="Group 42846">
                  <g id="Group_42845" data-name="Group 42845">
                    <g id="Group_42844" data-name="Group 42844">
                      <g id="Group_42843" data-name="Group 42843">
                        <g id="Group_42842" data-name="Group 42842">
                          <g id="Group_42841" data-name="Group 42841">
                            <g id="Group_42840" data-name="Group 42840">
                              <path id="Path_30242" data-name="Path 30242" d="M484.452,1161.113c.24.124.837-.317,1.638-.624.792-.33,1.532-.423,1.617-.676.034-.12-.143-.267-.505-.334a2.762,2.762,0,0,0-1.45.188,2.715,2.715,0,0,0-1.173.859C484.365,1160.823,484.343,1161.05,484.452,1161.113Z" transform="translate(-484.387 -1159.449)" fill="#1a2e35"/>
                            </g>
                          </g>
                        </g>
                      </g>
                    </g>
                  </g>
                </g>
              </g>
            </g>
          </g>
        </g>
        <g id="Group_42857" data-name="Group 42857" transform="translate(20.323 11.138)">
          <g id="Group_42856" data-name="Group 42856">
            <g id="Group_42855" data-name="Group 42855">
              <g id="Group_42854" data-name="Group 42854">
                <g id="Group_42853" data-name="Group 42853">
                  <g id="Group_42852" data-name="Group 42852">
                    <g id="Group_42851" data-name="Group 42851">
                      <path id="Path_30243" data-name="Path 30243" d="M609.216,1160.02c.076-.074,3.236-2.492,4.524,1.188s-2.672,4.214-2.715,4.111S609.216,1160.02,609.216,1160.02Z" transform="translate(-609.216 -1159.172)" fill="#ffbf9d"/>
                    </g>
                  </g>
                </g>
              </g>
            </g>
          </g>
        </g>
        <g id="Group_42865" data-name="Group 42865" transform="translate(22.111 12.306)">
          <g id="Group_42864" data-name="Group 42864">
            <g id="Group_42863" data-name="Group 42863">
              <g id="Group_42862" data-name="Group 42862">
                <g id="Group_42861" data-name="Group 42861">
                  <g id="Group_42860" data-name="Group 42860">
                    <g id="Group_42859" data-name="Group 42859">
                      <g id="Group_42858" data-name="Group 42858">
                        <path id="Path_30244" data-name="Path 30244" d="M621.643,1170.055c.012-.017.08.022.206.034a.679.679,0,0,0,.483-.158,1.68,1.68,0,0,0,.236-1.68,2.243,2.243,0,0,0-.5-.855.786.786,0,0,0-.655-.323.346.346,0,0,0-.317.308c-.013.12.036.185.018.2s-.1-.034-.124-.2a.433.433,0,0,1,.064-.281.512.512,0,0,1,.322-.218.955.955,0,0,1,.869.336,2.305,2.305,0,0,1,.581.948,1.763,1.763,0,0,1-.379,1.917.727.727,0,0,1-.62.108C621.68,1170.141,621.632,1170.066,621.643,1170.055Z" transform="translate(-620.986 -1166.864)" fill="#ff9a6c"/>
                      </g>
                    </g>
                  </g>
                </g>
              </g>
            </g>
          </g>
        </g>
        <g id="Group_42874" data-name="Group 42874" transform="translate(10.944 19.365)">
          <g id="Group_42873" data-name="Group 42873">
            <g id="Group_42872" data-name="Group 42872">
              <g id="Group_42871" data-name="Group 42871">
                <g id="Group_42870" data-name="Group 42870">
                  <g id="Group_42869" data-name="Group 42869">
                    <g id="Group_42868" data-name="Group 42868">
                      <g id="Group_42867" data-name="Group 42867">
                        <g id="Group_42866" data-name="Group 42866">
                          <path id="Path_30245" data-name="Path 30245" d="M549.277,1213.333c-.13.035.153.885-.372,1.731s-1.46,1.055-1.427,1.176c.006.057.257.1.642-.02a2.23,2.23,0,0,0,1.207-.933,1.943,1.943,0,0,0,.258-1.433C549.5,1213.488,549.333,1213.309,549.277,1213.333Z" transform="translate(-547.476 -1213.331)" fill="#1a2e35"/>
                        </g>
                      </g>
                    </g>
                  </g>
                </g>
              </g>
            </g>
          </g>
        </g>
      </g>
      <g id="Group_42896" data-name="Group 42896">
        <g id="Group_42880" data-name="Group 42880">
          <g id="Group_42879" data-name="Group 42879">
            <g id="Group_42878" data-name="Group 42878">
              <g id="Group_42877" data-name="Group 42877">
                <g id="Group_42876" data-name="Group 42876">
                  <path id="Path_30246" data-name="Path 30246" d="M417.833,1075.733a.924.924,0,0,1,.23-.653,2.839,2.839,0,0,1,1.3-.708,8.207,8.207,0,0,0,3.067-2.031,4.072,4.072,0,0,1-1.234-.346,2.447,2.447,0,0,1-1.473-2.061.543.543,0,0,1,.165-.453c.213-.157.5,0,.737.131a2.107,2.107,0,0,0,2.149.133,3.458,3.458,0,0,0,1.252-.906c.01-.022.018-.045.028-.068.122-.265.242-.519.362-.766v0h0a12.905,12.905,0,0,1,2.806-4.154,13.251,13.251,0,0,1,6.485-2.875,5.353,5.353,0,0,1,5.2,2.584,4.117,4.117,0,0,1,3.775-1.742l.027-.025c1.6.006,2.942,1.225,3.874,2.529.051.071.1.145.149.217a5.984,5.984,0,0,0,2.576,1.2c.166.032.358.074.431.227a.487.487,0,0,1-.111.465,3.007,3.007,0,0,1-.984.885,6.787,6.787,0,0,0,.825.834c.257.215.563.474.522.807a.637.637,0,0,1-.532.5,1.864,1.864,0,0,1-.768-.067l.878.973a3.569,3.569,0,0,1-1.585.442c.176,1.465.835,4.06.809,5.1a5.917,5.917,0,0,0-1.679.675c-.562.435.078,1.477-.864,1.449-.479-.014-1.69-1.385-1.983-1.765a22.264,22.264,0,0,1-4.041-8.567,7.152,7.152,0,0,0-2.614-.77l.084.035c-1.688.008-3.569.093-4.747,1.3-.914.938-1.16,2.315-1.664,3.523a8.161,8.161,0,0,1-4.706,4.766c.361,1.7,1.234,4.374,1.689,5.917l-2.362-2.577,0,.013c-.167-.141-.317-.29-.463-.439l-.048-.044,0-.007a10.054,10.054,0,0,0-.73-.712l-.01.018a1,1,0,0,1-1.829-.779,2.261,2.261,0,0,1,.3-.621,1.588,1.588,0,0,1-1.3.872,1.245,1.245,0,0,1-1.24-.869,1.059,1.059,0,0,1,.313-1.011,3.578,3.578,0,0,1-2.068.253C418.37,1076.48,417.872,1076.255,417.833,1075.733Z" transform="translate(-417.831 -1060.957)" fill="#1a2e35"/>
                </g>
              </g>
            </g>
          </g>
        </g>
        <g id="Group_42885" data-name="Group 42885" transform="translate(19.594 3.818)">
          <g id="Group_42884" data-name="Group 42884">
            <g id="Group_42883" data-name="Group 42883">
              <g id="Group_42882" data-name="Group 42882">
                <g id="Group_42881" data-name="Group 42881">
                  <path id="Path_30247" data-name="Path 30247" d="M546.82,1086.092a4.9,4.9,0,0,1,.714.3,4.1,4.1,0,0,1,1.456,1.5,7.205,7.205,0,0,1,.619,1.319c.177.495.324,1.039.483,1.612a15.038,15.038,0,0,0,.581,1.779,6.572,6.572,0,0,0,.45.888,2.055,2.055,0,0,0,.7.769.861.861,0,0,0,.849-.012,1.28,1.28,0,0,0,.547-.627,2.957,2.957,0,0,0,.036-1.551l-.108.053a4.783,4.783,0,0,0,1.052.9,1.7,1.7,0,0,0,1.248.2,1.1,1.1,0,0,0,.521-.293.949.949,0,0,0,.246-.5.979.979,0,0,0-.054-.517.71.71,0,0,0-.32-.358l-.039.071a3.68,3.68,0,0,0,1.462.46,3.292,3.292,0,0,0,.407.013.62.62,0,0,0,.14-.014.721.721,0,0,0-.14-.009c-.092,0-.228-.011-.4-.034a3.8,3.8,0,0,1-1.426-.487l-.039.071a.732.732,0,0,1,.317.787.855.855,0,0,1-.225.449,1,1,0,0,1-.474.259,1.593,1.593,0,0,1-1.163-.2,4.717,4.717,0,0,1-1.019-.881l-.138-.145.03.2a2.859,2.859,0,0,1-.033,1.481,1.153,1.153,0,0,1-.49.561.726.726,0,0,1-.722.011,1.948,1.948,0,0,1-.648-.721,6.538,6.538,0,0,1-.442-.869,15.275,15.275,0,0,1-.583-1.762c-.162-.571-.314-1.117-.5-1.617a7.173,7.173,0,0,0-.643-1.331,4.039,4.039,0,0,0-1.511-1.492A2.32,2.32,0,0,0,546.82,1086.092Z" transform="translate(-546.819 -1086.092)" fill="#375a64"/>
                </g>
              </g>
            </g>
          </g>
        </g>
        <g id="Group_42890" data-name="Group 42890" transform="translate(4.791 1.718)">
          <g id="Group_42889" data-name="Group 42889">
            <g id="Group_42888" data-name="Group 42888">
              <g id="Group_42887" data-name="Group 42887">
                <g id="Group_42886" data-name="Group 42886">
                  <path id="Path_30248" data-name="Path 30248" d="M449.368,1085.47a.216.216,0,0,0,.056.021l.169.051a1.9,1.9,0,0,0,.28.066,3.066,3.066,0,0,0,.388.057,5.058,5.058,0,0,0,2.449-.4,6.465,6.465,0,0,0,2.825-2.344,11.2,11.2,0,0,0,1.657-4.2c.162-.79.245-1.57.38-2.311a7.565,7.565,0,0,1,.625-2.062,3.894,3.894,0,0,1,1.219-1.488,2.788,2.788,0,0,1,.784-.382,3.065,3.065,0,0,1,.8-.12,3.3,3.3,0,0,1,2.245.854,3.96,3.96,0,0,1,.562.709.2.2,0,0,0-.024-.055l-.084-.156a2.869,2.869,0,0,0-.418-.536,3.253,3.253,0,0,0-.89-.6,3.337,3.337,0,0,0-1.391-.306,3.148,3.148,0,0,0-.828.116,2.884,2.884,0,0,0-.819.39,3.99,3.99,0,0,0-1.266,1.523,7.616,7.616,0,0,0-.644,2.094c-.137.747-.221,1.526-.382,2.308a11.2,11.2,0,0,1-1.627,4.156,6.428,6.428,0,0,1-2.761,2.327,5.133,5.133,0,0,1-2.408.432A8.008,8.008,0,0,1,449.368,1085.47Z" transform="translate(-449.368 -1072.267)" fill="#375a64"/>
                </g>
              </g>
            </g>
          </g>
        </g>
        <g id="Group_42895" data-name="Group 42895" transform="translate(3.468 10.901)">
          <g id="Group_42894" data-name="Group 42894">
            <g id="Group_42893" data-name="Group 42893">
              <g id="Group_42892" data-name="Group 42892">
                <g id="Group_42891" data-name="Group 42891">
                  <path id="Path_30249" data-name="Path 30249" d="M440.658,1134.544a.9.9,0,0,0,.24.066,4.431,4.431,0,0,0,.674.089,5.861,5.861,0,0,0,1.01-.022,6.206,6.206,0,0,0,2.348-.744,5.893,5.893,0,0,0,.838-.563,4.384,4.384,0,0,0,.5-.461.9.9,0,0,0,.158-.193c-.018-.018-.261.24-.716.578a6.72,6.72,0,0,1-.839.53,6.658,6.658,0,0,1-2.3.73,6.76,6.76,0,0,1-.991.05C441.01,1134.59,440.662,1134.519,440.658,1134.544Z" transform="translate(-440.658 -1132.716)" fill="#375a64"/>
                </g>
              </g>
            </g>
          </g>
        </g>
      </g>
    </g>
    <path id="Path_30250" data-name="Path 30250" d="M506.98,1398.282c-.048.014.582,3.168,1.2,6.439h.195C507.757,1401.45,507.028,1398.268,506.98,1398.282Z" transform="translate(-493.436 -1347.04)" fill="#1a2e35"/>
    <path id="Path_30251" data-name="Path 30251" d="M482.737,1291.508a3.69,3.69,0,0,0,3.674-3.034c.56-3.931,2.8-10.584,12.259-10.746a11.248,11.248,0,0,1,11.085,7.244,13.365,13.365,0,0,1-1.008,11.549c-3.362,5.5-9.548,6.341-12.936,6.354a7.056,7.056,0,0,0-7.066,6.994v14.687l19.514-.367v-3.666a.158.158,0,0,1,.109-.15,34.055,34.055,0,0,0,10.386-5.815l-1.27-16.915s3.714-7.137,3.53-8.743c-1.681-14.671-6.671-22.972-8.7-23.746-2.277-.869-11.067-.446-11.067-.446s-3.8,7.035-9.123,7.814c-2.964.433-4.046-3.267-4.046-3.267l-6.884,4.036c-4.9,2.472-5.851,12.087-5.941,18.218Z" transform="translate(-466.531 -1233.669)" fill="#375a64"/>
    <g id="Group_42898" data-name="Group 42898" transform="translate(35.989 66.481)" opacity="0.3">
      <path id="Path_30252" data-name="Path 30252" d="M657.58,1498.6c3.933,1,7.811,2.268,11.745,3.269a1.5,1.5,0,0,1,.8.388,1.347,1.347,0,0,1,.095,1.268,7.721,7.721,0,0,1-2.368,3.454,5.365,5.365,0,0,1-3.017,1.475,5.949,5.949,0,0,1-3.55-1.17,18.71,18.71,0,0,1-6.534-7.189s.922-.379,1.628-.757A12.645,12.645,0,0,0,657.58,1498.6Z" transform="translate(-654.749 -1498.603)"/>
    </g>
    <path id="Path_30253" data-name="Path 30253" d="M670.457,1384.975a12.836,12.836,0,0,1-5.622,15.869,37.09,37.09,0,0,0,5.616,5.132c2.009,1.426,6.64,1.02,8.4-2.1,2.166-3.851,2.347-13.689,2.347-13.689l.411-5.93-12.113-1.856-.1.332A13.059,13.059,0,0,1,670.457,1384.975Z" transform="translate(-627.314 -1333.571)" fill="#ffbf9d"/>
    <g id="Group_42910" data-name="Group 42910" transform="translate(12.558 36.986)">
      <g id="Group_42909" data-name="Group 42909">
        <g id="Group_42908" data-name="Group 42908">
          <g id="Group_42907" data-name="Group 42907">
            <g id="Group_42906" data-name="Group 42906">
              <g id="Group_42905" data-name="Group 42905">
                <g id="Group_42904" data-name="Group 42904">
                  <g id="Group_42903" data-name="Group 42903">
                    <g id="Group_42902" data-name="Group 42902">
                      <g id="Group_42901" data-name="Group 42901">
                        <g id="Group_42900" data-name="Group 42900">
                          <g id="Group_42899" data-name="Group 42899">
                            <path id="Path_30254" data-name="Path 30254" d="M509.994,1316.36l-.69,1.087c-.524.362-1.023.163-1.347-.509l-7.457-11.35,1.817-1.155,8.236,10.884A1.084,1.084,0,0,1,509.994,1316.36Z" transform="translate(-500.501 -1304.433)" fill="#375a64"/>
                          </g>
                        </g>
                      </g>
                    </g>
                  </g>
                </g>
              </g>
            </g>
          </g>
        </g>
      </g>
    </g>
    <g id="Group_42947" data-name="Group 42947" transform="translate(0.607 22.076)">
      <g id="Group_42930" data-name="Group 42930">
        <g id="Group_42929" data-name="Group 42929">
          <g id="Group_42919" data-name="Group 42919" transform="translate(0 0.348)">
            <g id="Group_42918" data-name="Group 42918">
              <g id="Group_42917" data-name="Group 42917">
                <g id="Group_42916" data-name="Group 42916">
                  <g id="Group_42915" data-name="Group 42915">
                    <g id="Group_42914" data-name="Group 42914">
                      <g id="Group_42913" data-name="Group 42913">
                        <g id="Group_42912" data-name="Group 42912">
                          <g id="Group_42911" data-name="Group 42911">
                            <path id="Path_30255" data-name="Path 30255" d="M426.044,1224.1a8.3,8.3,0,1,1,11.618-10.715h0a8.3,8.3,0,0,1-11.618,10.715Zm7.9-13.958a7.738,7.738,0,1,0,3.211,3.478A7.74,7.74,0,0,0,433.947,1210.141Z" transform="translate(-421.827 -1208.578)" fill="#1a2e35"/>
                          </g>
                        </g>
                      </g>
                    </g>
                  </g>
                </g>
              </g>
            </g>
          </g>
          <g id="Group_42928" data-name="Group 42928" transform="translate(0.353)">
            <g id="Group_42927" data-name="Group 42927">
              <g id="Group_42926" data-name="Group 42926">
                <g id="Group_42925" data-name="Group 42925">
                  <g id="Group_42924" data-name="Group 42924">
                    <g id="Group_42923" data-name="Group 42923">
                      <g id="Group_42922" data-name="Group 42922">
                        <g id="Group_42921" data-name="Group 42921">
                          <g id="Group_42920" data-name="Group 42920">
                            <path id="Path_30256" data-name="Path 30256" d="M428.371,1221.808a8.3,8.3,0,1,1,11.618-10.715h0a8.3,8.3,0,0,1-11.618,10.715Zm7.9-13.958a7.738,7.738,0,1,0,3.211,3.478A7.741,7.741,0,0,0,436.274,1207.849Z" transform="translate(-424.154 -1206.286)" fill="#375a64"/>
                          </g>
                        </g>
                      </g>
                    </g>
                  </g>
                </g>
              </g>
            </g>
          </g>
        </g>
      </g>
      <g id="Group_42933" data-name="Group 42933" transform="translate(6.21 1.315)">
        <g id="Group_42932" data-name="Group 42932">
          <g id="Group_42931" data-name="Group 42931">
            <path id="Path_30257" data-name="Path 30257" d="M472.062,1222.044a.8.8,0,0,1-.009-.136c-.007-.089,0-.221-.016-.389a5.947,5.947,0,0,0-.275-1.4,7.46,7.46,0,0,0-.363-.917,8.021,8.021,0,0,0-.568-.98,7.644,7.644,0,0,0-.78-.978,7.346,7.346,0,0,0-1-.9,6.82,6.82,0,0,0-1.149-.69,7.371,7.371,0,0,0-1.177-.421,7.031,7.031,0,0,0-2.1-.213,6.754,6.754,0,0,0-1.412.219c-.165.037-.288.087-.374.109a.761.761,0,0,1-.132.035.787.787,0,0,1,.126-.052c.085-.028.206-.083.371-.125a6.3,6.3,0,0,1,1.418-.249,6.941,6.941,0,0,1,2.125.2,7.368,7.368,0,0,1,1.193.421,6.841,6.841,0,0,1,1.166.7,7.3,7.3,0,0,1,1.007.911,7.584,7.584,0,0,1,.784.991,7.891,7.891,0,0,1,.566.994,7.284,7.284,0,0,1,.357.93,5.609,5.609,0,0,1,.249,1.418,3.591,3.591,0,0,1,0,.392A.781.781,0,0,1,472.062,1222.044Z" transform="translate(-462.71 -1214.941)" fill="#fff"/>
          </g>
        </g>
      </g>
      <g id="Group_42936" data-name="Group 42936" transform="translate(6.901 13.411)">
        <g id="Group_42935" data-name="Group 42935">
          <g id="Group_42934" data-name="Group 42934">
            <path id="Path_30258" data-name="Path 30258" d="M467.257,1296.336c.006-.02.385.121,1.024.208l.251.03c.087.01.179.01.274.016.189.015.391.005.6,0a6.454,6.454,0,0,0,2.654-.715c.186-.1.366-.2.522-.3.079-.053.158-.1.228-.151l.2-.152c.509-.4.766-.709.781-.694a1.712,1.712,0,0,1-.181.216,2.468,2.468,0,0,1-.232.237,4.065,4.065,0,0,1-.33.29l-.2.159c-.07.054-.149.1-.228.157a6.025,6.025,0,0,1-.524.315,6.246,6.246,0,0,1-2.688.724,5.94,5.94,0,0,1-.612-.009c-.1-.008-.188-.009-.276-.021l-.253-.036a4.021,4.021,0,0,1-.431-.085,2.494,2.494,0,0,1-.319-.088A1.727,1.727,0,0,1,467.257,1296.336Z" transform="translate(-467.257 -1294.574)" fill="#fff"/>
          </g>
        </g>
      </g>
      <g id="Group_42939" data-name="Group 42939" transform="translate(7.843 4.958)">
        <g id="Group_42938" data-name="Group 42938">
          <g id="Group_42937" data-name="Group 42937">
            <path id="Path_30259" data-name="Path 30259" d="M478.226,1243.822c-.018.017-1.1-1.066-2.416-2.419s-2.37-2.464-2.353-2.481,1.1,1.066,2.417,2.419S478.244,1243.8,478.226,1243.822Z" transform="translate(-473.457 -1238.922)" fill="#fff"/>
          </g>
        </g>
      </g>
      <g id="Group_42942" data-name="Group 42942" transform="translate(4.013 4.09)">
        <g id="Group_42941" data-name="Group 42941">
          <g id="Group_42940" data-name="Group 42940">
            <path id="Path_30260" data-name="Path 30260" d="M455.569,1241.154a.5.5,0,0,1-.079-.077l-.213-.232-.774-.861c-.652-.728-1.557-1.73-2.567-2.827s-1.937-2.079-2.609-2.788l-.8-.841-.214-.231a.521.521,0,0,1-.07-.085.5.5,0,0,1,.083.072l.226.219c.195.192.474.472.816.822.684.7,1.618,1.675,2.63,2.771s1.908,2.107,2.549,2.845c.32.369.577.67.753.88l.2.243A.509.509,0,0,1,455.569,1241.154Z" transform="translate(-448.247 -1233.212)" fill="#fff"/>
          </g>
        </g>
      </g>
      <g id="Group_42944" data-name="Group 42944" transform="translate(2.771 1.866)" opacity="0.3">
        <g id="Group_42943" data-name="Group 42943">
          <path id="Path_30261" data-name="Path 30261" d="M441.864,1218.567l10.192,11.071a8.041,8.041,0,0,1-1.581,1.656l-10.407-11.33A5.947,5.947,0,0,1,441.864,1218.567Z" transform="translate(-440.068 -1218.567)" fill="#fff"/>
        </g>
      </g>
      <g id="Group_42946" data-name="Group 42946" transform="translate(1.612 4.539)" opacity="0.3">
        <g id="Group_42945" data-name="Group 42945">
          <path id="Path_30262" data-name="Path 30262" d="M432.719,1236.168l10.024,10.787s.093.051-.6.225l-9.71-10.464A1.379,1.379,0,0,1,432.719,1236.168Z" transform="translate(-432.436 -1236.168)" fill="#fff"/>
        </g>
      </g>
    </g>
    <g id="Group_42963" data-name="Group 42963" transform="translate(12.2 37.018)">
      <g id="Group_42962" data-name="Group 42962">
        <g id="Group_42961" data-name="Group 42961">
          <g id="Group_42960" data-name="Group 42960">
            <path id="Path_30263" data-name="Path 30263" d="M514.833,1312.039c-2.141-1.719-7.388-5.924-7.628-6.036-.3-.141-4.92-1.782-5.8-1.255a25.8,25.8,0,0,0-3.256,3.5s.225,1.851,2.294.527l1.851-1.186,0,0,2.2.514a17.084,17.084,0,0,0-3.25,1.709c-.567.589-1.465,2.844-.9,3.364a2.172,2.172,0,0,0,1.209.564,1.634,1.634,0,0,0,.857,2.522,3.022,3.022,0,0,0,1.256,1.84,6.131,6.131,0,0,0,2.774.335.85.85,0,0,0,.215-1.316,2.793,2.793,0,0,0-1.769-.934l1.422-.829a6.543,6.543,0,0,1,1.836,1.073,15.893,15.893,0,0,1,2.594-2.6A16.06,16.06,0,0,1,514.833,1312.039Z" transform="translate(-498.145 -1304.644)" fill="#ffbf9d"/>
            <g id="Group_42951" data-name="Group 42951" transform="translate(4.251 8.09)">
              <g id="Group_42950" data-name="Group 42950">
                <g id="Group_42949" data-name="Group 42949">
                  <g id="Group_42948" data-name="Group 42948">
                    <path id="Path_30264" data-name="Path 30264" d="M529.468,1357.905a.714.714,0,0,0-.211.012,3.232,3.232,0,0,0-.562.13,3.71,3.71,0,0,0-2.477,2.694,3.227,3.227,0,0,0-.083.571.725.725,0,0,0,.005.211c.02,0,.024-.3.15-.764a3.857,3.857,0,0,1,2.429-2.642C529.17,1357.954,529.471,1357.925,529.468,1357.905Z" transform="translate(-526.132 -1357.902)" fill="#ff9a6c"/>
                  </g>
                </g>
              </g>
            </g>
            <g id="Group_42955" data-name="Group 42955" transform="translate(3.346 5.698)">
              <g id="Group_42954" data-name="Group 42954">
                <g id="Group_42953" data-name="Group 42953">
                  <g id="Group_42952" data-name="Group 42952">
                    <path id="Path_30265" data-name="Path 30265" d="M524.506,1342.155a.932.932,0,0,0-.226.016,2.1,2.1,0,0,0-.262.043,3.5,3.5,0,0,0-.342.081,5.15,5.15,0,0,0-.857.323,5.42,5.42,0,0,0-1.769,1.363,5.163,5.163,0,0,0-.531.747,3.516,3.516,0,0,0-.166.31,2.1,2.1,0,0,0-.108.242.922.922,0,0,0-.073.214c.019.008.137-.292.411-.728a5.737,5.737,0,0,1,.541-.722,6.334,6.334,0,0,1,.8-.754,7.4,7.4,0,0,1,.973-.659,4.46,4.46,0,0,1,.8-.265C524.189,1342.212,524.509,1342.175,524.506,1342.155Z" transform="translate(-520.17 -1342.152)" fill="#ff9a6c"/>
                  </g>
                </g>
              </g>
            </g>
            <g id="Group_42959" data-name="Group 42959" transform="translate(6.296 2.882)">
              <g id="Group_42958" data-name="Group 42958">
                <g id="Group_42957" data-name="Group 42957">
                  <g id="Group_42956" data-name="Group 42956">
                    <path id="Path_30266" data-name="Path 30266" d="M541.376,1323.687a.607.607,0,0,0-.3-.067,1.64,1.64,0,0,0-.729.13,1.379,1.379,0,0,0-.6.434c-.123.146-.169.256-.159.262a2.092,2.092,0,0,1,1.786-.759Z" transform="translate(-539.589 -1323.617)" fill="#ff9a6c"/>
                  </g>
                </g>
              </g>
            </g>
          </g>
        </g>
      </g>
    </g>
    <path id="Path_30267" data-name="Path 30267" d="M695.773,1266.76s6.776.65,8.928,6.538c1.707,4.673,2.635,18.672,2.207,18.958l-11.964-.383a13.939,13.939,0,0,0-2.365-7.749Z" transform="translate(-650.842 -1235.497)" fill="#375a64"/>
    <g id="Group_42964" data-name="Group 42964" transform="translate(44.284 56.374)">
      <path id="Path_30268" data-name="Path 30268" d="M709.353,1432.071a.964.964,0,0,1,.235.131c.146.091.352.233.6.416a16.1,16.1,0,0,1,1.821,1.58,18.62,18.62,0,0,1,1.585,1.815c.187.245.333.448.428.591a.961.961,0,0,1,.138.231,8.779,8.779,0,0,1-.646-.758c-.393-.472-.947-1.115-1.608-1.777a21.831,21.831,0,0,0-1.781-1.6C709.648,1432.314,709.34,1432.09,709.353,1432.071Z" transform="translate(-709.352 -1432.07)" fill="#ff9a6c"/>
    </g>
    <g id="Group_42965" data-name="Group 42965" transform="translate(41.731 41.975)">
      <path id="Path_30269" data-name="Path 30269" d="M693.676,1337.279c.04.007-.18,1.5-.49,3.338s-.594,3.321-.633,3.314.18-1.5.49-3.338S693.637,1337.272,693.676,1337.279Z" transform="translate(-692.548 -1337.279)" fill="#1a2e35"/>
    </g>
    <g id="Group_42966" data-name="Group 42966" transform="translate(27.802 81.481)">
      <path id="Path_30270" data-name="Path 30270" d="M600.851,1599.824a1.03,1.03,0,0,1,.2-.03l.572-.058,2.1-.2c1.776-.17,4.228-.427,6.929-.768s5.141-.705,6.9-.982l2.087-.331.568-.086a1,1,0,0,1,.2-.02,1.087,1.087,0,0,1-.195.049l-.564.113c-.49.1-1.2.225-2.081.377-1.76.3-4.2.682-6.9,1.024s-5.159.582-6.938.726c-.89.073-1.611.124-2.109.153l-.574.031A1.042,1.042,0,0,1,600.851,1599.824Z" transform="translate(-600.851 -1597.348)" fill="#1a2e35"/>
    </g>
    <g id="Group_42967" data-name="Group 42967" transform="translate(26.744 81.477)">
      <path id="Path_30271" data-name="Path 30271" d="M593.888,1598.013a3.257,3.257,0,0,1,.493-.044l1.346-.072,4.44-.228,4.439-.257,1.346-.076a3.193,3.193,0,0,1,.495-.009,3.289,3.289,0,0,1-.491.065c-.317.033-.776.075-1.343.121-1.135.094-2.7.2-4.439.3s-3.306.155-4.444.185c-.569.015-1.03.024-1.348.026A3.272,3.272,0,0,1,593.888,1598.013Z" transform="translate(-593.888 -1597.322)" fill="#1a2e35"/>
    </g>
    <g id="Group_42977" data-name="Group 42977" transform="translate(5.121 55.547)">
      <g id="Group_42972" data-name="Group 42972">
        <g id="Group_42971" data-name="Group 42971">
          <path id="Path_30272" data-name="Path 30272" d="M468.243,1427.911a1.464,1.464,0,0,1,.216-.475,1.4,1.4,0,0,1,2.363.05.864.864,0,0,1,.645-.832.989.989,0,0,1,.942.283,1.42,1.42,0,0,1,.485.8c.292-.654,1.79-.574,1.972-.083,0,0,1.289-1.411,1.949-.717.274.288.156.731-.025,1.174-.242.591-.4.838-.719,1.489l-1.221.067c-.1.382-.319,1.935-.365,2.328a2.7,2.7,0,0,1-.333,1.129,1.177,1.177,0,0,1-.968.593.765.765,0,0,1-.762-.74,1.86,1.86,0,0,1-.463.884,1,1,0,0,1-.923.286.693.693,0,0,1-.518-.756,1.017,1.017,0,0,1-1.355-.418,2.757,2.757,0,0,1-.266-1.542,3.5,3.5,0,0,0-.127-1.439,1.293,1.293,0,0,1-.1-.205,2.376,2.376,0,0,1-.016-.349,2.656,2.656,0,0,0-.147-.723c-.019-.051-.039-.1-.061-.151-.059-.131-.146-.243-.213-.368a.236.236,0,0,1-.031-.086A.577.577,0,0,1,468.243,1427.911Z" transform="translate(-465.675 -1426.621)" fill="#ffbf9d"/>
          <g id="Group_42970" data-name="Group 42970" transform="translate(0 0.611)">
            <g id="Group_42969" data-name="Group 42969">
              <g id="Group_42968" data-name="Group 42968">
                <path id="Path_30273" data-name="Path 30273" d="M452.737,1430.644a1.135,1.135,0,0,0-.9.3,2.207,2.207,0,0,0-.288,1.364c.452.085.694-.015,1.146.07.1.018.175-.006.254.05.209.148.175.647.259.889a.87.87,0,0,0,1.1.47,1.168,1.168,0,0,0,.705-1.04,1.8,1.8,0,0,0-.46-1.216A2.521,2.521,0,0,0,452.737,1430.644Z" transform="translate(-451.543 -1430.643)" fill="#ffbf9d"/>
              </g>
            </g>
          </g>
        </g>
      </g>
      <g id="Group_42973" data-name="Group 42973" transform="translate(8.89 0.981)">
        <path id="Path_30274" data-name="Path 30274" d="M510.075,1436.821c-.046-.01.14-.838.258-1.868a8.226,8.226,0,0,0,.049-1.322,4.282,4.282,0,0,1-.035-.551,1.433,1.433,0,0,1,.137.542,5.78,5.78,0,0,1-.007,1.346,10.419,10.419,0,0,1-.235,1.321A1.984,1.984,0,0,1,510.075,1436.821Z" transform="translate(-510.068 -1433.08)" fill="#ff9a6c"/>
      </g>
      <g id="Group_42974" data-name="Group 42974" transform="translate(6.69 1.111)">
        <path id="Path_30275" data-name="Path 30275" d="M495.59,1439.326a4.741,4.741,0,0,1,.121-.789c.088-.484.212-1.152.306-1.894a13.685,13.685,0,0,0,.117-1.909c-.007-.49-.043-.792-.019-.8a2.9,2.9,0,0,1,.122.792,10.184,10.184,0,0,1-.076,1.931,18.135,18.135,0,0,1-.35,1.9A4.042,4.042,0,0,1,495.59,1439.326Z" transform="translate(-495.585 -1433.938)" fill="#ff9a6c"/>
      </g>
      <g id="Group_42975" data-name="Group 42975" transform="translate(4.827 0.781)">
        <path id="Path_30276" data-name="Path 30276" d="M483.325,1437.8a8.04,8.04,0,0,1,.153-.879,16.929,16.929,0,0,0,.233-4.268,8.026,8.026,0,0,1-.056-.89.776.776,0,0,1,.061.233c.031.151.065.373.1.647a13.022,13.022,0,0,1-.234,4.3c-.062.269-.119.486-.167.633A.781.781,0,0,1,483.325,1437.8Z" transform="translate(-483.321 -1431.76)" fill="#ff9a6c"/>
      </g>
      <g id="Group_42976" data-name="Group 42976" transform="translate(2.373 1.374)">
        <path id="Path_30277" data-name="Path 30277" d="M467.167,1435.668a.778.778,0,0,1,.381.192,1.934,1.934,0,0,1,.618.825,1.652,1.652,0,0,1,.082,1.03c-.081.268-.249.362-.255.345a1.421,1.421,0,0,0,.156-.37,1.8,1.8,0,0,0-.118-.952,2.2,2.2,0,0,0-.549-.8C467.3,1435.767,467.156,1435.689,467.167,1435.668Z" transform="translate(-467.166 -1435.665)" fill="#ff9a6c"/>
      </g>
    </g>
  </g>
</svg>
