<svg xmlns="http://www.w3.org/2000/svg" xmlns:xlink="http://www.w3.org/1999/xlink" width="29.162" height="29.162" viewBox="0 0 29.162 29.162">
  <defs>
    <clipPath id="clip-path">
      <rect id="Rectangle_6386" data-name="Rectangle 6386" width="29.162" height="29.162" fill="none"/>
    </clipPath>
  </defs>
  <g id="Group_58965" data-name="Group 58965" transform="translate(-141 -105)">
    <g id="Group_58903" data-name="Group 58903" transform="translate(141 105)">
      <g id="Group_58902" data-name="Group 58902" clip-path="url(#clip-path)">
        <path id="Path_43210" data-name="Path 43210" d="M29.162,14.581A14.581,14.581,0,1,1,14.581,0,14.581,14.581,0,0,1,29.162,14.581" fill="#f7b448"/>
        <path id="Path_43211" data-name="Path 43211" d="M272.524,243.758a6.444,6.444,0,0,0,.628,7.557q.827.984,1.759,1.986a.306.306,0,0,0,.227.1l5.084.068a.331.331,0,0,0,.2-.063c2.271-1.655,3.976-3.971,3.654-6.925a6.445,6.445,0,0,0-5.6-5.592,5.9,5.9,0,0,0-5.952,2.867m11.8,1.042a6.718,6.718,0,0,1-.036,4.833,9,9,0,0,1-2.507,3.436l-1.138.97a.289.289,0,0,1-.2.073l-5.351.025a.3.3,0,0,1-.222-.093q-.6-.619-1.258-1.253a7.909,7.909,0,0,1-2.609-5.336,6.672,6.672,0,0,1,5.2-7.059,7.06,7.06,0,0,1,8.115,4.4" transform="translate(-262.93 -233.088)" fill="#00000a"/>
        <path id="Path_43212" data-name="Path 43212" d="M300.721,266.063a3.894,3.894,0,0,0-6.288-1.822c-1.648,1.333-1.639,3.486-.56,5.268a6.4,6.4,0,0,1,1.02,3.4.155.155,0,0,0,.165.174q2.015.116,3.937.039a.222.222,0,0,0,.211-.209,6.774,6.774,0,0,1,.8-3.024,4.667,4.667,0,0,0,.714-3.822m-8.312,5.511a6.444,6.444,0,0,1-.628-7.557,5.9,5.9,0,0,1,5.952-2.867,6.445,6.445,0,0,1,5.6,5.592c.322,2.954-1.383,5.27-3.654,6.925a.331.331,0,0,1-.2.063l-5.084-.068a.306.306,0,0,1-.227-.1q-.931-1-1.759-1.986" transform="translate(-282.187 -253.347)" fill="#fafafd"/>
        <path id="Path_43213" data-name="Path 43213" d="M375.093,337.067a3.894,3.894,0,0,0-6.288-1.822c-1.648,1.333-1.639,3.486-.56,5.268a6.4,6.4,0,0,1,1.02,3.4.155.155,0,0,0,.165.174q2.015.116,3.937.039a.222.222,0,0,0,.211-.209,6.774,6.774,0,0,1,.8-3.024,4.667,4.667,0,0,0,.714-3.822" transform="translate(-356.559 -324.351)" fill="#f7b448"/>
        <path id="Path_43214" data-name="Path 43214" d="M405.073,721.9q.043.515-.161.6l-4.939-.016a.528.528,0,0,1-.483-.281l-.034-.063q-.2-.34.2-.342,2.765-.013,5.334.009c.044,0,.072.03.086.091" transform="translate(-387.509 -700.317)" fill="#00000a"/>
        <path id="Path_43215" data-name="Path 43215" d="M408.772,759.538q.279.166.188.408a.25.25,0,0,1-.143.147l-.329.129a.14.14,0,0,0-.1.157c.048.478.048.9-.449,1.124-.2.091-.415-.016-.6.07a.352.352,0,0,0-.154.138,1.049,1.049,0,0,1-1.156.551c-.281-.261-.508-.632-.864-.775q-.247-.1-.49-.186a.269.269,0,0,1-.17-.184,1.809,1.809,0,0,1-.059-.669.139.139,0,0,0-.1-.161,2.543,2.543,0,0,1-.653-.358.2.2,0,0,1-.061-.317.222.222,0,0,1,.186-.093Z" transform="translate(-391.577 -736.923)" fill="#00000a"/>
        <path id="Path_43216" data-name="Path 43216" d="M421.827,389.87c.15,1.038-.318,2.38-1.5,2.548-.807.115-1.707-.957-1.947-1.562-.591-1.476.644-3.364,2.333-2.568a1.922,1.922,0,0,1,1.111,1.582" transform="translate(-405.791 -376.553)" fill="#fafafd"/>
        <path id="Path_43217" data-name="Path 43217" d="M495.427,122.25a.239.239,0,0,1-.239-.239v-1.943a.238.238,0,0,1,.477,0v1.943a.239.239,0,0,1-.238.239" transform="translate(-480.455 -116.265)" fill="#00000a"/>
        <path id="Path_43218" data-name="Path 43218" d="M632.343,168.213a.238.238,0,0,1-.212-.347l.885-1.73a.238.238,0,0,1,.424.217l-.885,1.73a.238.238,0,0,1-.212.13" transform="translate(-613.298 -161.067)" fill="#00000a"/>
        <path id="Path_43219" data-name="Path 43219" d="M725.061,286.124a.239.239,0,0,1-.14-.432l1.576-1.137a.238.238,0,1,1,.279.387l-1.576,1.137a.238.238,0,0,1-.139.045" transform="translate(-703.258 -276.045)" fill="#00000a"/>
        <path id="Path_43220" data-name="Path 43220" d="M763.073,436.428a.238.238,0,0,1-.036-.474l1.92-.294a.238.238,0,1,1,.072.471l-1.92.295-.037,0" transform="translate(-740.139 -422.695)" fill="#00000a"/>
        <path id="Path_43221" data-name="Path 43221" d="M738.248,584.017a.237.237,0,0,1-.075-.012l-1.844-.613a.238.238,0,0,1,.15-.453l1.844.613a.239.239,0,0,1-.075.465" transform="translate(-714.263 -565.585)" fill="#00000a"/>
        <path id="Path_43222" data-name="Path 43222" d="M198.136,620.127a.238.238,0,0,1-.105-.452l1.744-.856a.238.238,0,1,1,.21.428l-1.744.856a.236.236,0,0,1-.1.024" transform="translate(-192.009 -600.384)" fill="#00000a"/>
        <path id="Path_43223" data-name="Path 43223" d="M140.331,490.322h0l-1.943-.032a.2.2,0,1,1,.007-.391l1.943.032a.2.2,0,0,1,0,.391" transform="translate(-134.082 -475.324)" fill="#00000a"/>
        <path id="Path_43224" data-name="Path 43224" d="M175.7,328.447a.237.237,0,0,1-.112-.028l-1.715-.914a.239.239,0,1,1,.224-.421l1.715.914a.239.239,0,0,1-.112.449" transform="translate(-168.578 -317.326)" fill="#00000a"/>
        <path id="Path_43225" data-name="Path 43225" d="M283.77,196.962a.239.239,0,0,1-.2-.1l-1.111-1.595a.239.239,0,0,1,.392-.273l1.11,1.594a.238.238,0,0,1-.2.375" transform="translate(-274.019 -189.092)" fill="#00000a"/>
      </g>
    </g>
  </g>
</svg>
