<svg xmlns="http://www.w3.org/2000/svg" width="61.582" height="63.555" viewBox="0 0 61.582 63.555">
  <g id="Group_46904" data-name="Group 46904" transform="translate(-1563.372 133.258)">
    <path id="Path_31935" data-name="Path 31935" d="M1566.573,48.078q0-7.021,0-14.041c3.119-1.145,6.216-2.355,9.364-3.416a12.552,12.552,0,0,1,10.019.6c5.271,2.692,10.486,5.495,15.715,8.269a3.15,3.15,0,0,1,1.543,4.261,3.063,3.063,0,0,1-4.031,1.836,10.322,10.322,0,0,1-1.614-.675c-1.641-.8-3.269-1.63-4.909-2.436-.367-.18-.8-.355-1.034.157-.2.436.14.664.488.835,2,.983,3.981,2.007,6.007,2.932a4.392,4.392,0,0,0,4.5-.168,1.088,1.088,0,0,1,1.595.08,2.007,2.007,0,0,0,2.49.27c1.484-.7,3.032-1.266,4.555-1.883,3.553-1.441,7.1-2.9,10.666-4.3a2.872,2.872,0,0,1,3.354.908,3.034,3.034,0,0,1,.017,3.5,4.226,4.226,0,0,1-1.776,1.419c-6.036,3.041-12.078,6.069-18.1,9.146a4.158,4.158,0,0,1-3.962.062c-7.773-3.641-15.576-7.216-23.349-10.855a2.788,2.788,0,0,0-2.481-.047C1572.637,45.758,1569.6,46.9,1566.573,48.078ZM1590.5,41.79c-.044-.08-.08-.26-.184-.316-.7-.381-1.4-.76-2.131-1.088-.345-.155-.388.237-.511.43s-.154.437.095.563c.679.346,1.355.708,2.063.984C1590.19,42.5,1590.451,42.259,1590.5,41.79Z" transform="translate(-2.495 -127.192)" fill="#fbd9ba"/>
    <path id="Path_31936" data-name="Path 31936" d="M1564.078,42.486c3.025-1.178,6.064-2.32,9.065-3.556a2.788,2.788,0,0,1,2.481.047c7.773,3.639,15.577,7.214,23.349,10.855a4.158,4.158,0,0,0,3.962-.062c6.017-3.077,12.059-6.106,18.1-9.146a4.226,4.226,0,0,0,1.776-1.419,3.034,3.034,0,0,0-.017-3.5,2.872,2.872,0,0,0-3.354-.908c-3.569,1.4-7.113,2.864-10.666,4.3-1.523.618-3.071,1.182-4.555,1.883a2.007,2.007,0,0,1-2.49-.27,1.088,1.088,0,0,0-1.595-.08,4.392,4.392,0,0,1-4.5.168c-2.026-.925-4.007-1.949-6.007-2.932-.348-.171-.687-.4-.488-.835.233-.511.667-.337,1.034-.157,1.639.806,3.268,1.634,4.909,2.436a10.321,10.321,0,0,0,1.614.675,3.063,3.063,0,0,0,4.031-1.836,3.15,3.15,0,0,0-1.543-4.261c-5.229-2.774-10.444-5.577-15.715-8.269a12.552,12.552,0,0,0-10.019-.6c-3.147,1.061-6.245,2.271-9.364,3.416-.393-.221-.781-.452-.672-1,.093-.469.5-.6.874-.737,2.943-1.093,5.852-2.287,8.837-3.247a14.264,14.264,0,0,1,11.281.858q7.539,3.905,15.026,7.912a1.68,1.68,0,0,0,1.619.074c2.526-1.054,5.072-2.061,7.615-3.075a5.3,5.3,0,0,1,5.657.811,1.634,1.634,0,0,0,1.2.374A5.227,5.227,0,0,1,1620,32.494a1.3,1.3,0,0,0,.878.555,4.395,4.395,0,0,1,3.991,3.5,4.824,4.824,0,0,1-2.519,5.158c-1.9,1.017-3.833,1.967-5.757,2.937-4.3,2.169-8.632,4.289-12.9,6.519a5.718,5.718,0,0,1-5.441.1c-7.6-3.557-15.233-7.06-22.834-10.622a2.434,2.434,0,0,0-2.167-.047c-2.766,1.142-5.56,2.218-8.339,3.327-.531.212-1.085.442-1.434-.213C1563.152,43.088,1563.64,42.777,1564.078,42.486Zm51.785-10.529a6.823,6.823,0,0,0-2.348.537c-3.241,1.319-6.475,2.654-9.728,3.943-.767.3-1.385.615-1.343,1.577.018.42-.542.795-.007,1.281.567.514,1.056.262,1.6.038,4.316-1.77,8.638-3.526,12.951-5.305.514-.212,1.461-.3,1.418-.752-.064-.684-.933-.916-1.6-1.119A9.159,9.159,0,0,0,1615.863,31.957Zm-2.837-.91a3.524,3.524,0,0,0-3.112-.568c-2.85.861-5.526,2.174-8.309,3.254.888,1.558.888,1.558,2.506.908.27-.108.545-.2.815-.312C1607.58,33.255,1610.234,32.179,1613.025,31.047Z" transform="translate(0 -121.601)"/>
    <path id="Path_31937" data-name="Path 31937" d="M1664.871,78.936c-.048.468-.309.712-.668.573-.708-.275-1.384-.638-2.063-.984-.249-.127-.221-.366-.095-.563s.167-.585.511-.43c.727.327,1.43.707,2.131,1.088C1664.791,78.676,1664.828,78.857,1664.871,78.936Z" transform="translate(-76.867 -164.338)"/>
    <path id="Path_31938" data-name="Path 31938" d="M1753.349,64.772a9.161,9.161,0,0,1,.948.2c.664.2,1.533.435,1.6,1.119.043.456-.9.54-1.418.752-4.313,1.779-8.635,3.536-12.951,5.305-.546.224-1.035.476-1.6-.038-.535-.486.025-.86.007-1.281-.042-.962.575-1.273,1.343-1.577,3.253-1.288,6.487-2.624,9.728-3.943A6.823,6.823,0,0,1,1753.349,64.772Z" transform="translate(-137.487 -154.416)" fill="#f8d6b8"/>
    <path id="Path_31939" data-name="Path 31939" d="M1748.385,58.108c-2.791,1.131-5.446,2.207-8.1,3.282-.27.109-.545.2-.815.312-1.618.649-1.618.65-2.506-.908,2.783-1.08,5.459-2.393,8.309-3.254A3.524,3.524,0,0,1,1748.385,58.108Z" transform="translate(-135.36 -148.661)" fill="#f5d4b6"/>
    <g id="Group_46901" data-name="Group 46901" transform="translate(1591.191 -115.647)">
      <path id="Path_31940" data-name="Path 31940" d="M1701.315-50.8l2.822,5.718,6.31.917-4.566,4.451,1.078,6.285-5.644-2.967-5.644,2.967,1.078-6.285-4.566-4.451,6.31-.917Z" transform="translate(-1691.632 51.348)" fill="#ffd62c"/>
      <path id="Path_31941" data-name="Path 31941" d="M1705.01-34.825a.551.551,0,0,1-.256-.063l-5.388-2.833-5.388,2.833a.55.55,0,0,1-.58-.042.55.55,0,0,1-.219-.538l1.029-6-4.359-4.249a.55.55,0,0,1-.139-.564.551.551,0,0,1,.444-.375l6.024-.875,2.694-5.458a.551.551,0,0,1,.494-.307.551.551,0,0,1,.494.307l2.694,5.458,6.024.875a.551.551,0,0,1,.445.375.551.551,0,0,1-.139.564l-4.359,4.249,1.029,6a.55.55,0,0,1-.219.538A.549.549,0,0,1,1705.01-34.825Zm-5.644-4.069a.552.552,0,0,1,.256.063l4.657,2.448-.889-5.185a.55.55,0,0,1,.158-.487l3.767-3.672-5.206-.756a.551.551,0,0,1-.415-.3l-2.328-4.718-2.328,4.718a.551.551,0,0,1-.415.3l-5.206.756,3.767,3.672a.55.55,0,0,1,.158.487l-.889,5.185,4.657-2.448A.552.552,0,0,1,1699.365-38.894Z" transform="translate(-1689.683 53.297)"/>
    </g>
    <g id="Group_46902" data-name="Group 46902" transform="translate(1584.482 -133.258)">
      <path id="Path_31942" data-name="Path 31942" d="M1668.58-130.758l2.12,4.3,4.74.689-3.43,3.343.81,4.721-4.239-2.229-4.24,2.229.81-4.721-3.43-3.343,4.74-.689Z" transform="translate(-1661.169 131.309)" fill="#ffd62c"/>
      <path id="Path_31943" data-name="Path 31943" d="M1670.869-119.109a.55.55,0,0,1-.256-.063l-3.983-2.094-3.983,2.094a.55.55,0,0,1-.58-.042.551.551,0,0,1-.219-.538l.76-4.435-3.222-3.141a.55.55,0,0,1-.139-.564.551.551,0,0,1,.444-.375l4.454-.647,1.992-4.035a.551.551,0,0,1,.494-.307.551.551,0,0,1,.494.307l1.992,4.035,4.453.647a.551.551,0,0,1,.445.375.551.551,0,0,1-.139.564l-3.222,3.141.76,4.435a.551.551,0,0,1-.219.538A.55.55,0,0,1,1670.869-119.109Zm-9.916-8.23,2.631,2.565a.551.551,0,0,1,.158.487l-.621,3.621,3.252-1.71a.551.551,0,0,1,.512,0l3.252,1.71-.621-3.621a.55.55,0,0,1,.158-.487l2.631-2.565-3.636-.528a.551.551,0,0,1-.415-.3l-1.626-3.295L1665-128.169a.55.55,0,0,1-.415.3Z" transform="translate(-1659.22 133.258)"/>
    </g>
    <g id="Group_46903" data-name="Group 46903" transform="translate(1604.609 -127.775)">
      <path id="Path_31944" data-name="Path 31944" d="M1758.984-105.864l1.816,3.679,4.061.59-2.938,2.864.694,4.044-3.632-1.909-3.632,1.909.694-4.044-2.938-2.864,4.061-.59Z" transform="translate(-1752.557 106.415)" fill="#ffd62c"/>
      <path id="Path_31945" data-name="Path 31945" d="M1760.666-96.085a.55.55,0,0,1-.256-.063l-3.376-1.775-3.376,1.775a.551.551,0,0,1-.58-.042.551.551,0,0,1-.219-.538l.645-3.759-2.731-2.662a.551.551,0,0,1-.139-.564.551.551,0,0,1,.445-.375l3.774-.548,1.688-3.42a.551.551,0,0,1,.494-.307.551.551,0,0,1,.494.307l1.688,3.42,3.774.548a.551.551,0,0,1,.445.375.551.551,0,0,1-.139.564l-2.731,2.662.645,3.759a.55.55,0,0,1-.219.538A.549.549,0,0,1,1760.666-96.085Zm-3.632-3.011a.552.552,0,0,1,.256.063l2.644,1.39-.505-2.944a.55.55,0,0,1,.158-.487l2.139-2.085-2.957-.43a.55.55,0,0,1-.415-.3l-1.322-2.679-1.322,2.679a.55.55,0,0,1-.415.3l-2.957.43,2.139,2.085a.55.55,0,0,1,.158.487l-.505,2.944,2.644-1.39A.551.551,0,0,1,1757.034-99.1Z" transform="translate(-1750.607 108.364)"/>
    </g>
  </g>
</svg>
