<svg xmlns="http://www.w3.org/2000/svg" width="127.576" height="127.548" viewBox="0 0 127.576 127.548">
  <g id="Group_57583" data-name="Group 57583" transform="translate(0 -0.001)">
    <g id="Group_2121" data-name="Group 2121" transform="translate(0 0.001)">
      <g id="_7RjEod.tif" data-name="7RjEod.tif">
        <g id="Group_2120" data-name="Group 2120">
          <path id="Path_4154" data-name="Path 4154" d="M155.153,315.536a63.471,63.471,0,0,1-12.414-3.733,58.68,58.68,0,0,1-11.5-6.473,61.231,61.231,0,0,1-10.372-9.4,64.222,64.222,0,0,1-6.582-9.085,18.309,18.309,0,0,1-1.908-3.633c.143-.122.279-.254.43-.364a6.393,6.393,0,0,0,2.837-6.395,6.243,6.243,0,0,0-4.218-5.237,7.954,7.954,0,0,0-3.665-.31,62.282,62.282,0,0,1-1.575-8.658,47.467,47.467,0,0,1-.276-5.649,56.224,56.224,0,0,1,.984-11.54,62.358,62.358,0,0,1,3.216-11.175,59.485,59.485,0,0,1,6.937-12.707,59.362,59.362,0,0,1,21.82-18.916,57.739,57.739,0,0,1,7.17-3.142,60.624,60.624,0,0,1,22.022-3.418,56.467,56.467,0,0,1,15.026,2.278,59.58,59.58,0,0,1,12.656,5.3,61.411,61.411,0,0,1,11.973,8.738,59.818,59.818,0,0,1,15.7,23.878,55.356,55.356,0,0,1,2.512,9.514,48.134,48.134,0,0,1,.857,7.9,68.214,68.214,0,0,1-.408,10.75,75.858,75.858,0,0,1-1.906,8.891,60.025,60.025,0,0,1-3.537,9.328,56.794,56.794,0,0,1-3.965,6.991,59.553,59.553,0,0,1-20.083,19.061,60.358,60.358,0,0,1-21.411,7.585m-60.571-58.1a3.9,3.9,0,0,0-4.051,4.026,4.174,4.174,0,0,0,3.856,4.088,4.269,4.269,0,0,0,4.269-4.031A4.078,4.078,0,0,0,114.9,257.814Zm4.026,27.81a1.721,1.721,0,1,0,.1-3.438,1.775,1.775,0,0,0-1.755,1.671A1.74,1.74,0,0,0,118.926,285.624Zm98.023-55.669a1.531,1.531,0,0,0-1.557-1.649,1.872,1.872,0,0,0-1.665,1.674,1.74,1.74,0,0,0,1.682,1.6A1.426,1.426,0,0,0,216.949,229.955Z" transform="translate(-102.599 -192.351)" fill="#bbefdd"/>
          <path id="Path_4155" data-name="Path 4155" d="M247.993,204.629a6.568,6.568,0,1,1,6.553-6.534A6.58,6.58,0,0,1,247.993,204.629Z" transform="translate(-130.279 -191.492)" fill="#f0bd1e"/>
          <path id="Path_4156" data-name="Path 4156" d="M106.915,290.19a7.954,7.954,0,0,1,3.665.31,6.243,6.243,0,0,1,4.218,5.237,6.393,6.393,0,0,1-2.837,6.395c-.151.111-.286.243-.43.364-.549.166-1.107.309-1.646.5-3.545,1.271-8.785-2.039-8.054-7.193C102.26,292.788,104.1,291.044,106.915,290.19Z" transform="translate(-101.753 -211.637)" fill="#facd5c"/>
          <path id="Path_4157" data-name="Path 4157" d="M253.722,217.4a3.353,3.353,0,0,1,3.231-3.4,3.407,3.407,0,0,1,3.415,3.332,3.6,3.6,0,0,1-3.251,3.443A3.466,3.466,0,0,1,253.722,217.4Z" transform="translate(-132.792 -196.087)" fill="#645adb"/>
          <path id="Path_4158" data-name="Path 4158" d="M241.39,324.084a3.32,3.32,0,1,1,3.276,3.422A3.379,3.379,0,0,1,241.39,324.084Z" transform="translate(-130.273 -217.913)" fill="#face5f"/>
          <path id="Path_4159" data-name="Path 4159" d="M105.018,230.886a3.1,3.1,0,0,1-3.268-3.263,3.221,3.221,0,0,1,3.3-3.272A3.354,3.354,0,0,1,108.4,227.6,3.217,3.217,0,0,1,105.018,230.886Z" transform="translate(-101.75 -198.204)" fill="#645adb"/>
          <path id="Path_4160" data-name="Path 4160" d="M132.966,346.783a3.232,3.232,0,0,1-3.276,3.285,3.337,3.337,0,0,1-3.278-3.3,3.408,3.408,0,0,1,3.34-3.368A3.339,3.339,0,0,1,132.966,346.783Z" transform="translate(-106.787 -222.521)" fill="#645adb"/>
          <path id="Path_4161" data-name="Path 4161" d="M236.935,193.444a1.886,1.886,0,0,1,1.692,1.76,1.684,1.684,0,0,1-1.752,1.647,1.735,1.735,0,0,1-1.708-1.706A1.913,1.913,0,0,1,236.935,193.444Z" transform="translate(-129.002 -191.89)" fill="#f1c12e"/>
          <path id="Path_4162" data-name="Path 4162" d="M116.168,273.759a4.078,4.078,0,0,1,4.074,4.083,4.269,4.269,0,0,1-4.269,4.031,4.174,4.174,0,0,1-3.856-4.088A3.9,3.9,0,0,1,116.168,273.759Z" transform="translate(-103.868 -208.296)" fill="#fcfdfe"/>
          <path id="Path_4163" data-name="Path 4163" d="M121.842,307.825a1.74,1.74,0,0,1-1.658-1.767,1.775,1.775,0,0,1,1.755-1.671,1.721,1.721,0,1,1-.1,3.438Z" transform="translate(-105.515 -214.552)" fill="#f1c12e"/>
          <path id="Path_4164" data-name="Path 4164" d="M244.626,238.326a1.426,1.426,0,0,1-1.54,1.625,1.74,1.74,0,0,1-1.682-1.6,1.871,1.871,0,0,1,1.665-1.674A1.531,1.531,0,0,1,244.626,238.326Z" transform="translate(-130.276 -200.721)" fill="#fcfdfe"/>
        </g>
      </g>
    </g>
    <g id="Group_2123" data-name="Group 2123" transform="translate(9.407 8.373)">
      <ellipse id="Ellipse_388" data-name="Ellipse 388" cx="54.303" cy="54.302" rx="54.303" ry="54.302" transform="translate(0.453 0.453)" fill="#fff"/>
      <ellipse id="Ellipse_389" data-name="Ellipse 389" cx="54.755" cy="54.755" rx="54.755" ry="54.755" fill="#fff" stroke="#5d6f7c" stroke-width="5"/>
      <g id="phUCbC.tif" transform="translate(23.644 33.285)">
        <g id="Group_2122" data-name="Group 2122">
          <path id="Path_4165" data-name="Path 4165" d="M165.106,293.864a5.136,5.136,0,0,1-3.454-1.7c-5.472-5.58-10.995-11.11-16.445-16.711-2.4-2.468-2.527-4.922-.535-6.763,1.872-1.73,4.13-1.43,6.5.943,3.772,3.784,7.587,7.53,11.23,11.435,1.946,2.085,3.346,2.038,5.346-.022,11.508-11.854,23.13-23.6,34.7-35.389,1.313-1.338,2.706-2.281,4.721-1.68a4.006,4.006,0,0,1,2.894,3.425c.358,1.994-.886,3.333-2.158,4.622q-13.34,13.525-26.67,27.059-6.349,6.453-12.641,12.959A5.28,5.28,0,0,1,165.106,293.864Z" transform="translate(-143.284 -243.789)" fill="#1bce67"/>
        </g>
      </g>
    </g>
  </g>
</svg>
