<svg xmlns="http://www.w3.org/2000/svg" width="18.674" height="18.63" viewBox="0 0 18.674 18.63">
  <g id="nOyNQo.tif" transform="translate(-197.477 -340.658)">
    <g id="Group_1972" data-name="Group 1972">
      <path id="Path_3923" data-name="Path 3923" d="M211.811,349.975c1.146,0,2.233,0,3.32,0,.762,0,.979.22.979.99.091,1.857,0,3.551,0,5.327a2.883,2.883,0,0,1-2.992,2.991q-6.334.009-12.67,0a2.854,2.854,0,0,1-2.968-2.959q-.007-7.363,0-14.728c0-.7.236-.935.944-.935q6.267,0,12.535,0c.6,0,.851.256.852.885q0,3.941,0,7.88Zm-1.433-7.849H198.912v.477q0,6.781,0,13.561c0,1.172.519,1.691,1.692,1.691h10.184a4.182,4.182,0,0,1-.41-2.4V342.126Zm1.453,9.294c-.008.157-.019.273-.019.389q0,2.238,0,4.476a1.439,1.439,0,1,0,2.866,0q.006-2.238,0-4.476c0-.128-.018-.255-.029-.391Z"/>
      <path id="Path_3924" data-name="Path 3924" d="M210.378,342.126V355.45a4.182,4.182,0,0,0,.41,2.4H200.6c-1.173,0-1.692-.519-1.692-1.691q0-6.78,0-13.561v-.477Zm-5.734,2.834q-1.7,0-3.4,0c-.594,0-.923.27-.912.735s.322.7.9.7q3.4,0,6.8,0c.6,0,.925-.267.914-.732-.011-.447-.331-.7-.907-.7C206.91,344.959,205.777,344.961,204.644,344.96Zm-.045,4.3c1.149,0,2.3,0,3.445,0,.567,0,.892-.264.895-.71s-.33-.721-.886-.721q-3.423,0-6.845,0c-.569,0-.886.261-.889.714s.315.717.88.718C202.333,349.262,203.466,349.26,204.6,349.26Zm.051,2.862c1.147,0,2.294,0,3.441,0,.537,0,.849-.261.859-.7.01-.451-.315-.732-.87-.732q-3.441,0-6.883,0c-.535,0-.849.264-.858.7-.01.452.313.729.87.731C202.356,352.124,203.5,352.122,204.65,352.122Zm-.025,2.867c1.148,0,2.3,0,3.444,0,.564,0,.885-.269.881-.721s-.325-.709-.894-.71q-3.422,0-6.844,0c-.563,0-.882.269-.879.722s.319.708.892.709C202.358,354.991,203.491,354.989,204.625,354.989Z" fill="#fff"/>
      <path id="Path_3925" data-name="Path 3925" d="M211.831,351.42h2.817c.011.136.029.263.029.391q0,2.238,0,4.476a1.439,1.439,0,1,1-2.866,0q0-2.238,0-4.476C211.812,351.693,211.823,351.577,211.831,351.42Z" fill="#ffb000"/>
      <path id="Path_3926" data-name="Path 3926" d="M204.644,344.96c1.133,0,2.266,0,3.4,0,.576,0,.9.252.907.7.011.465-.316.732-.914.732q-3.4,0-6.8,0c-.582,0-.893-.244-.9-.7s.318-.734.912-.735Q202.945,344.958,204.644,344.96Z" fill="#ffb000"/>
      <path id="Path_3927" data-name="Path 3927" d="M204.6,349.26c-1.133,0-2.266,0-3.4,0-.565,0-.882-.265-.88-.718s.32-.713.889-.714q3.423,0,6.845,0c.556,0,.89.278.886.721s-.328.709-.895.71C206.9,349.262,205.748,349.26,204.6,349.26Z" fill="#ffb000"/>
      <path id="Path_3928" data-name="Path 3928" d="M204.65,352.122c-1.147,0-2.294,0-3.441,0-.557,0-.88-.279-.87-.731.009-.435.323-.7.858-.7q3.441,0,6.883,0c.555,0,.88.281.87.732-.01.436-.322.7-.859.7C206.944,352.125,205.8,352.122,204.65,352.122Z" fill="#ffb000"/>
      <path id="Path_3929" data-name="Path 3929" d="M204.625,354.989c-1.134,0-2.267,0-3.4,0-.573,0-.888-.255-.892-.709s.316-.721.879-.722q3.423,0,6.844,0c.569,0,.89.261.894.71s-.317.719-.881.721C206.921,354.991,205.773,354.989,204.625,354.989Z" fill="#ffb000"/>
    </g>
  </g>
</svg>
