<svg xmlns="http://www.w3.org/2000/svg" width="20.947" height="20.947" viewBox="0 0 20.947 20.947">
  <g id="Group_1970" data-name="Group 1970" transform="translate(-115.368 -339.499)">
    <circle id="Ellipse_348" data-name="Ellipse 348" cx="9.774" cy="9.774" r="9.774" transform="translate(116.068 340.199)" fill="#fcfdfd" stroke="#000" stroke-miterlimit="10" stroke-width="1.4"/>
    <g id="Group_1969" data-name="Group 1969">
      <path id="Path_3917" data-name="Path 3917" d="M121.978,352.233q-.03-2.15-.062-4.3c-.008-.612.007-1.226-.035-1.835a.958.958,0,0,1,1.418-.932c2.04,1.006,4.089,1.989,6.134,2.98.648.315,1.3.626,1.944.943a.9.9,0,0,1,.544.967.957.957,0,0,1-.{{ totalStreak }}.28c-1.162.306-2.325.6-3.486.91-1.586.417-3.169.84-4.755,1.251A1.338,1.338,0,0,1,121.978,352.233Z" fill="#ffb000"/>
      <path id="Path_3918" data-name="Path 3918" d="M121.978,352.233a1.338,1.338,0,0,0,1.277.265c1.586-.411,3.169-.834,4.755-1.251,1.161-.305,2.324-.6,3.486-.91a.957.957,0,0,0,.{{ totalStreak }}-.28.921.921,0,0,1-.573.764q-1.86.958-3.716,1.925-2.12,1.1-4.238,2.193a.927.927,0,0,1-1.334-.461.812.812,0,0,1-.059-.27C121.99,353.55,121.985,352.892,121.978,352.233Z" fill="#ffb000"/>
    </g>
  </g>
</svg>
