<svg xmlns="http://www.w3.org/2000/svg" width="97.83" height="97.004" viewBox="0 0 97.83 97.004">
  <g id="Group_1317" data-name="Group 1317" transform="translate(-130.323 -80)">
    <circle id="Ellipse_222" data-name="Ellipse 222" cx="45.974" cy="45.974" r="45.974" transform="translate(133.127 82.578)" fill="#cee1f4"/>
    <path id="Path_2065" data-name="Path 2065" d="M160.087,98.7s-1.372-2.439-1.982-8.232-3.049-21.952-2.592-22.41,26.374-3.811,26.374-3.811l2.134,10.062-6.555-.458s-3.354.458-3.659,2.44-2.439,15.244-2.439,15.244l-5.336-.152.762,25.306s-4.573,1.677-4.725-1.219S162.221,99,162.221,99Z" transform="translate(0 37.787)" fill="#fff"/>
    <g id="Group_1254" data-name="Group 1254" transform="translate(0 37.787)">
      <path id="Path_2066" data-name="Path 2066" d="M200.416,91.06c.814.372.957.66.8,1.552-.125.7-.173,1.42-.363,2.109a5.817,5.817,0,0,1-4.51,4.376c-.293.071-.315.207-.314.452q.009,7.41.006,14.819a3.014,3.014,0,0,1-3.208,3.233H164.342a3,3,0,0,1-3.145-3.168c0-.578-.005-1.157,0-1.735a.985.985,0,0,1,1.014-1.055.959.959,0,0,1,.979,1.04c.009.606,0,1.211.007,1.817a1,1,0,0,0,1.125,1.116c.357,0,.715-.007,1.073-.011q4.242.007,8.486.013,6.657,0,13.313-.007,2.848,0,5.7,0c.615,0,1.071-.324,1.088-.838.033-.976.02-1.953.025-2.93,0-.142-.036-.219-.213-.218-1.045.008-2.089,0-3.134,0q-4.209.009-8.418.021a1.046,1.046,0,0,1-1.169-1.015,1.1,1.1,0,0,1,.872-.993l.193-.013c.671.006,1.341.018,2.012.016,1.574,0,3.148-.013,4.722-.02a.763.763,0,0,0,.4.039c.876-.01,1.752-.017,2.628-.033.139,0,.34.077.4-.1.043-.123-.111-.235-.2-.333-1.576-1.7-3.061-3.489-4.586-5.238q-1.719-1.972-3.43-3.951c-.22-.254-.454-.456-.8-.19a1.806,1.806,0,0,0-.152.137q-3.73,4.292-7.456,8.589a6.2,6.2,0,0,0-.877,1.1c1.418,0,2.777,0,4.137,0,.74,0,1.029.25,1.177.989-.154.768-.434,1.009-1.207,1.011-1.692,0-3.384,0-5.076,0a1.532,1.532,0,0,1-1.545-.883,1.51,1.51,0,0,1,.335-1.746c.574-.647,1.139-1.3,1.7-1.956.092-.107.24-.19.2-.4H169.29a7.679,7.679,0,0,1-.948-.015c-1.064-.134-2.127.057-3.19,0q-.943-.183-.933-1c.008-.533.353-.881,1-1.005.786.061,1.573.029,2.36.016a.308.308,0,0,0,.286-.007,1.049,1.049,0,0,0,.524.041c.054.04.1.036.134-.025,2.492,0,4.983,0,7.475.012a.835.835,0,0,0,.7-.331q2.479-2.874,4.972-5.735a2.457,2.457,0,0,1,3.823-.008q.978,1.09,1.918,2.212c.161.192.25.192.4,0,.395-.476.8-.941,1.21-1.407a1.987,1.987,0,0,1,2.959-.1c.222.224.417.475.626.712l1.375,1.567c.013-.12.02-.161.02-.2,0-2.533.009-5.066,0-7.6a.976.976,0,0,0-1.092-1.06c-4.884,0-9.769-.013-14.653,0a1.081,1.081,0,0,1-1.15-1.017,1.039,1.039,0,0,1,1.192-.98c1,0,2,0,3,0h.749a2.289,2.289,0,0,1-.41-1.805c.082-.41.146-.827.208-1.243.315-2.134.667-4.263,1.015-6.392a1.9,1.9,0,0,1,1.365-1.607,1.927,1.927,0,0,1,2.015.491c1.719,1.585,3.444,3.162,5.162,4.749a1.993,1.993,0,0,1-.494,3.33c-1.175.57-2.372,1.093-3.559,1.638-.551.253-1.1.509-1.65.763a3.244,3.244,0,0,0,.85.078c2.147,0,4.294-.007,6.442,0a2.922,2.922,0,0,1,2.983,2.637c.124,1.123.03,2.255.055,3.383.006.294.083.358.356.255a3.951,3.951,0,0,0,2.287-2.133,11.12,11.12,0,0,0,.57-2.691C199.394,91.{{ totalStreak }},199.636,91.154,200.416,91.06ZM192.9,107.092a.{{ totalStreak }}.{{ totalStreak }},0,0,0,.249.268,3.036,3.036,0,0,0,.838.946c-.056-.743.106-1.47-.01-2.2a.874.874,0,0,0,0-.481.883.883,0,0,0,.008-.61c.115-.424-.237-.615-.448-.864-.926-1.087-1.865-2.163-2.8-3.246-.123-.143-.2-.233-.366-.024-.406.5-.837.983-1.271,1.461-.155.171-.133.283.015.447.451.5.875,1.024,1.325,1.524.659.733,1.259,1.52,1.965,2.212C192.477,106.8,192.735,106.907,192.9,107.092Zm-8.166-18.215c.1-.036.211-.065.31-.111,1.585-.727,3.166-1.461,4.754-2.181.339-.154.138-.269,0-.4-1.044-.993-2.133-1.937-3.172-2.934-.263-.253-.486-.6-.884-.694-.176-.421-.591-.6-.907-.992l-1.246,7.87A7.946,7.946,0,0,0,184.736,88.877Z" fill="#333"/>
      <path id="Path_2067" data-name="Path 2067" d="M165.392,92.744c-.4-.005-.8-.02-1.2-.012a.979.979,0,0,0-.987.917,4.781,4.781,0,0,0-.009.494q0,4.07,0,8.138c0,1.086-.015,2.173-.024,3.259a1,1,0,1,1-1.973-.018c0-1.665-.009-3.331.006-5,0-.307-.076-.407-.395-.458a2.977,2.977,0,0,1-2.432-2.663q-.82-5.839-1.642-11.678c-.181-1.292-.361-2.584-.529-3.878a.974.974,0,0,1,.82-1.178,1,1,0,0,1,1.146.923c.262,1.809.51,3.62.765,5.43q.477,3.39.954,6.779.234,1.675.459,3.351a1,1,0,0,0,.792.933c.1-.082.052-.2.053-.3,0-1.336,0-2.672,0-4.007a2.979,2.979,0,0,1,3.03-3.035c1.955,0,3.911-.005,5.866,0,.256,0,.34-.045.341-.329a27.153,27.153,0,0,1,.509-3.795c.349-2.333.734-4.661,1.113-7.047-.5.065-.986.122-1.469.191q-3.634.517-7.267,1.04a1.1,1.1,0,0,1-1.179-.383.963.963,0,0,1-.017-1.122.99.99,0,0,1,.782-.469q3.513-.489,7.025-.981c.722-.1,1.441-.218,2.164-.3.24-.028.3-.126.355-.346a5.924,5.924,0,0,1,6.223-4.623c.807.057,1.607.212,2.409.323.564.1,1.129.193,1.69.3.255.051.342,0,.3-.28-.122-.772-.221-1.547-.33-2.321-.212-1.492-.418-2.986-.64-4.477a.964.964,0,0,0-1.007-.891,5.257,5.257,0,0,0-1.247.21c-1.386.106-2.753.357-4.128.542-2.246.3-4.488.63-6.732.947s-4.491.633-6.737.948q-2.286.32-4.574.634c-.833.114-1.264.528-1.184,1.169.047.382.115.761.168,1.142.179,1.266.363,2.531.529,3.8a.991.991,0,1,1-1.965.255c-.241-1.688-.484-3.375-.711-5.064a2.98,2.98,0,0,1,2.464-3.208c3.579-.5,7.161-.992,10.74-1.5,4-.564,8-1.146,12-1.7a7.323,7.323,0,0,1,1.753-.132,2.987,2.987,0,0,1,2.6,2.495c.347,2.5.711,5.006,1.054,7.511.033.242.124.316.35.351,2.539.39,5.083.751,7.612,1.2,1.754.311,3.538.442,5.268.874a5.934,5.934,0,0,1,4.444,6.973c-.145.782-.26,1.571-.382,2.357-.138.887-.365,1.109-1.235,1.181-.732-.349-.868-.579-.759-1.389.081-.6.192-1.192.3-1.787a4.788,4.788,0,0,0-.3-3.441,3.621,3.621,0,0,0-3.052-2,4.143,4.143,0,0,0-1.893-.305,1.769,1.769,0,0,0-.261-.1c-1.144-.265-2.315-.354-3.471-.544l-.24-.017a.059.059,0,0,0-.073-.013c-.23-.188-.5-.061-.746-.086l-.012-.007c-.048-.077-.1-.091-.148,0a4.887,4.887,0,0,0-1.264-.278q-5.242-.824-10.484-1.656a3.938,3.938,0,0,0-4.362,3c-.2.824-.292,1.675-.424,2.515q-.6,3.819-1.195,7.639a18.868,18.868,0,0,0-.371,2.688c0,.217.042.324.294.314.549-.022,1.1-.014,1.649-.019.189,0,.379.014.569.015.759,0,1.032.223,1.209.978-.133.752-.431,1-1.2,1.005H173.3Z" fill="#333"/>
      <path id="Path_2068" data-name="Path 2068" d="M176.144,91.725l.968,0a1.081,1.081,0,0,0,1.15,1.017c4.884-.018,9.769-.008,14.653,0a.976.976,0,0,1,1.092,1.06c0,2.532,0,5.065,0,7.6,0,.04-.007.081-.02.2l-1.375-1.567c-.209-.237-.4-.488-.626-.712a1.987,1.987,0,0,0-2.959.1c-.407.466-.815.931-1.21,1.407-.154.187-.243.187-.4,0q-.942-1.121-1.918-2.212a2.457,2.457,0,0,0-3.823.008q-2.5,2.854-4.972,5.735a.835.835,0,0,1-.7.331c-2.492-.015-4.983-.01-7.474-.012-.009-.065-.03-.129-.108-.113-.017,0-.018.09-.027.138a1.049,1.049,0,0,1-.524-.041c-.323-.325-.556-.753-1.031-.907l-.062-.063a.8.8,0,0,0-.524-.6l-.051-.05c-.006-.131-.1-.122-.189-.118-.02-.015-.04-.03-.059-.046-.245-.189-.45.121-.685.055-.065-.121.031-.326-.193-.364-.037-.007-.137-.017-.047-.08.239-.166.119-.4.12-.605q.015-3.138.005-6.277a10.192,10.192,0,0,1,.245-2.856l7.906-.013h1.647C175.713,92.727,176.011,92.477,176.144,91.725Zm-5.464,3.989a3.488,3.488,0,1,0,3.464,3.505A3.511,3.511,0,0,0,170.68,95.714Z" fill="#cbdbfc"/>
      <path id="Path_2069" data-name="Path 2069" d="M165.152,106.648c1.063.06,2.126-.131,3.19,0a7.679,7.679,0,0,0,.948.015h5.239c.039.209-.109.292-.2.4-.565.655-1.13,1.309-1.7,1.956a1.51,1.51,0,0,0-.335,1.746,1.532,1.532,0,0,0,1.545.883c1.692-.007,3.384,0,5.076,0,.773,0,1.053-.243,1.207-1.011l.955,0a1.046,1.046,0,0,0,1.169,1.015q4.209-.008,8.418-.021c1.045,0,2.089.007,3.134,0,.177,0,.214.076.213.218,0,.977.008,1.954-.025,2.93-.017.514-.473.838-1.088.838q-2.847,0-5.7,0-6.657,0-13.313.007-4.244,0-8.486-.013a4.852,4.852,0,0,1-.227-2.207c-.005-2.168,0-4.336,0-6.5C165.172,106.812,165.159,106.73,165.152,106.648Zm4.517,4.994c.179,0,.359.011.537,0a1.017,1.017,0,0,0,.947-1.01.968.968,0,0,0-.926-.978,8.809,8.809,0,0,0-1.114,0,.952.952,0,0,0-.933,1.043.99.99,0,0,0,.994.95C169.339,111.648,169.5,111.643,169.669,111.642Z" fill="#8085f9"/>
      <path id="Path_2070" data-name="Path 2070" d="M179.851,65.456a5.257,5.257,0,0,1,1.247-.21.964.964,0,0,1,1.007.891c.222,1.491.428,2.985.64,4.477.109.774.208,1.549.33,2.321.044.278-.043.331-.3.28-.561-.112-1.126-.2-1.69-.3-.219-.849-.257-1.725-.4-2.586-.22-1.332-.4-2.671-.579-4.008C180.067,66.013,179.854,65.767,179.851,65.456Z" fill="#cbdbfc"/>
      <path id="Path_2071" data-name="Path 2071" d="M169.252,81.969a1,1,0,1,1,.223,1.985c-1.4.2-2.8.392-4.2.589-.53.075-1.059.157-1.589.233a1.045,1.045,0,0,1-1.173-.8.993.993,0,0,1,.795-1.163C165.3,82.515,167.3,82.243,169.252,81.969Z" fill="#333"/>
      <path id="Path_2072" data-name="Path 2072" d="M152.254,102.15a2.476,2.476,0,0,1,2.409-2.464,2.5,2.5,0,1,1,.15,5A2.489,2.489,0,0,1,152.254,102.15Zm2.447,1.5a1.469,1.469,0,0,0,1.524-1.536,1.485,1.485,0,0,0-2.969.052A1.455,1.455,0,0,0,154.7,103.653Z" fill="#f3ce1f"/>
      <path id="Path_2073" data-name="Path 2073" d="M195.517,70.847a2.458,2.458,0,0,1-2.5-2.428,2.5,2.5,0,1,1,5,0A2.474,2.474,0,0,1,195.517,70.847Zm1.462-2.463a1.46,1.46,0,0,0-1.463-1.508,1.489,1.489,0,0,0-1.467,1.473,1.465,1.465,0,1,0,2.93.035Z" fill="#8085f9"/>
      <path id="Path_2074" data-name="Path 2074" d="M203.975,72.81a.39.39,0,0,1-.4-.29,2.168,2.168,0,0,0-1.288-1.3c-.378-.158-.4-.542-.03-.708a2.916,2.916,0,0,0,1.4-1.428c.18-.343.455-.363.614-.014a3.184,3.184,0,0,0,1.493,1.486c.344.188.3.381-.031.619a1.2,1.2,0,0,1-.209.131,2.062,2.062,0,0,0-1.148,1.213A.389.389,0,0,1,203.975,72.81Z" fill="#f3ce1f"/>
      <path id="Path_2075" data-name="Path 2075" d="M149.291,92.737a.344.344,0,0,1,.3.247A2.689,2.689,0,0,0,151,94.406c.358.172.341.424.012.649a.292.292,0,0,1-.07.044,2.327,2.327,0,0,0-1.318,1.329c-.178.376-.512.378-.705,0a2.714,2.714,0,0,0-1.326-1.334c-.457-.208-.455-.509.008-.726a2.569,2.569,0,0,0,1.315-1.348A.405.405,0,0,1,149.291,92.737Z" fill="#fe8a00"/>
      <path id="Path_2076" data-name="Path 2076" d="M163.156,110.122c-.123-.021-.161.09-.214.156a.909.909,0,0,1-1.108.293.949.949,0,0,1-.63-.929,8.85,8.85,0,0,1,.045-1.151.9.9,0,0,1,1-.821.92.92,0,0,1,.939.9c.016.516-.017,1.034-.029,1.552Z" fill="#333"/>
      <path id="Path_2077" data-name="Path 2077" d="M155.64,77.819a1.021,1.021,0,0,1,.834-1.092.978.978,0,0,1,1.082.692,6.719,6.719,0,0,1,.2,1.3,1,1,0,0,1-1.957.255,2.081,2.081,0,0,1-.066-.323C155.7,78.35,155.667,78.05,155.64,77.819Z" fill="#333"/>
      <path id="Path_2078" data-name="Path 2078" d="M200.579,90.179c-.785-.393-.916-.66-.758-1.535.027-.148.047-.3.074-.445.143-.782.37-.985,1.166-1.044a1.041,1.041,0,0,1,.8,1.376c-.028.175-.047.351-.081.525C201.623,89.87,201.4,90.078,200.579,90.179Z" fill="#333"/>
      <path id="Path_2079" data-name="Path 2079" d="M199.987,119.112a.371.371,0,0,1-.259.3,1.847,1.847,0,0,0-.961.962c-.173.32-.432.318-.56-.013a1.87,1.87,0,0,0-.869-.94c-.457-.271-.45-.428.008-.669a1.667,1.667,0,0,0,.838-.86c.146-.358.441-.363.627-.015a1.794,1.794,0,0,0,.917.9A.362.362,0,0,1,199.987,119.112Z" fill="#f3ce1f"/>
      <path id="Path_2080" data-name="Path 2080" d="M161.182,61.448c-.016.149-.145.234-.286.29a1.656,1.656,0,0,0-.877.88c-.191.389-.407.4-.6.012a1.919,1.919,0,0,0-.936-.934c-.367-.174-.367-.4-.01-.57a1.915,1.915,0,0,0,.955-.967c.154-.334.415-.337.565-.006a1.821,1.821,0,0,0,.957.959A.323.323,0,0,1,161.182,61.448Z" fill="#8085f9"/>
      <path id="Path_2081" data-name="Path 2081" d="M152.734,109.659a.378.378,0,0,1,.342.286,1.463,1.463,0,0,0,.839.854c.145.068.308.139.315.343.009.221-.178.265-.319.328a1.464,1.464,0,0,0-.839.853c-.05.136-.123.286-.3.3s-.263-.136-.316-.272a1.676,1.676,0,0,0-.934-.928c-.346-.161-.356-.377-.024-.552a2.03,2.03,0,0,0,1-1.04A.281.281,0,0,1,152.734,109.659Z" fill="#8085f9"/>
      <path id="Path_2082" data-name="Path 2082" d="M189.063,63.891a1,1,0,0,1-1.012-1.022.968.968,0,0,1,.976-.961.992.992,0,1,1,.036,1.983Z" fill="#fe8a00"/>
      <path id="Path_2083" data-name="Path 2083" d="M167.577,104.658c-.787.013-1.574.045-2.36-.016a4.193,4.193,0,0,0-.057-1.054.648.648,0,0,1,.085-.549l.7-.168.058.046a.2.2,0,0,0,.19.118l.051.049c.094.269.336.409.524.6l.062.062C167.048,104.074,167.476,104.233,167.577,104.658Z" fill="#cbdbfc"/>
      <path id="Path_2084" data-name="Path 2084" d="M152,86.269a.691.691,0,0,1-.732-.788.646.646,0,0,1,.74-.687c.585,0,.709.265.763.758A.726.726,0,0,1,152,86.269Z" fill="#f3ce1f"/>
      <path id="Path_2085" data-name="Path 2085" d="M207.447,79.623a.735.735,0,0,1-.78.686.727.727,0,0,1-.69-.812.74.74,0,0,1,.775-.694A.761.761,0,0,1,207.447,79.623Z" fill="#fe8a00"/>
      <path id="Path_2086" data-name="Path 2086" d="M203.981,112.369a.742.742,0,0,1,1.483,0,.746.746,0,0,1-.75.76A.716.716,0,0,1,203.981,112.369Z" fill="#8085f9"/>
      <path id="Path_2087" data-name="Path 2087" d="M157.8,116.622c.307-.013.441.166.436.5s-.206.456-.5.455c-.315,0-.511-.136-.507-.493S157.44,116.616,157.8,116.622Z" fill="#f3ce1f"/>
      <path id="Path_2088" data-name="Path 2088" d="M210.464,85.767a.473.473,0,0,1,.482.5.451.451,0,0,1-.485.493.458.458,0,0,1-.5-.52A.445.445,0,0,1,210.464,85.767Z" fill="#f3ce1f"/>
      <path id="Path_2089" data-name="Path 2089" d="M149.275,79.391c-.006-.362.224-.617.5-.6a.49.49,0,0,1,.492.5.484.484,0,0,1-.5.522C149.473,79.793,149.285,79.636,149.275,79.391Z" fill="#8085f9"/>
      <path id="Path_2090" data-name="Path 2090" d="M167.14,59.447a.421.421,0,0,1-.471.443.435.435,0,0,1-.464-.51.441.441,0,0,1,.5-.436A.{{ totalStreak }}.{{ totalStreak }},0,0,1,167.14,59.447Z" fill="#f3ce1f"/>
      <path id="Path_2091" data-name="Path 2091" d="M193.055,122.086a.489.489,0,0,1-.533.5.5.5,0,0,1,0-1.007A.493.493,0,0,1,193.055,122.086Zm-.816-.064c-.009.211.034.371.281.374.226,0,.4-.1.381-.332a.373.373,0,0,0-.394-.341C192.275,121.709,192.221,121.837,192.239,122.022Z" fill="#f3ce1f"/>
      <path id="Path_2092" data-name="Path 2092" d="M163.155,110.122l.623.24c-.332.192-.477.132-.622-.24Z" fill="#cbdbfc"/>
      <path id="Path_2093" data-name="Path 2093" d="M165.947,102.871l-.7.168.017-.113C165.5,102.992,165.7,102.682,165.947,102.871Z" fill="#8085f9"/>
      <path id="Path_2094" data-name="Path 2094" d="M163.961,110.277c.067-.17.093-.4.4-.336A.618.618,0,0,1,163.961,110.277Z" fill="#cbdbfc"/>
      <path id="Path_2095" data-name="Path 2095" d="M166.953,74.881c0,.052,0,.116-.074.115s-.072-.066-.071-.118,0-.116.072-.114S166.949,74.829,166.953,74.881Z" fill="#cbdbfc"/>
      <path id="Path_2096" data-name="Path 2096" d="M166.466,74.469c-.072-.052-.183-.059-.206-.18.187-.071.181.073.207.179Z" fill="#cbdbfc"/>
      <path id="Path_2097" data-name="Path 2097" d="M166.467,74.468c.053.008.113.008.124.077,0,.013-.031.047-.044.046-.07-.009-.071-.07-.081-.122Z" fill="#cbdbfc"/>
      <path id="Path_2098" data-name="Path 2098" d="M181.072,110.633l-.955,0c-.148-.739-.437-.987-1.177-.989-1.36,0-2.719,0-4.137,0a6.2,6.2,0,0,1,.877-1.1q3.719-4.3,7.456-8.589a1.638,1.638,0,0,1,.152-.136c.105.009.208-.01.279.118.513.919,1.04,1.831,1.554,2.751,1.016,1.819,2,3.657,3.048,5.458a6.717,6.717,0,0,1,.7,1.474c-1.574.007-3.148.017-4.722.02-.671,0-1.341-.01-2.012-.016a.126.126,0,0,0-.193.013A1.1,1.1,0,0,0,181.072,110.633Z" fill="#f3ce1f"/>
      <path id="Path_2099" data-name="Path 2099" d="M188.871,109.623a6.717,6.717,0,0,0-.7-1.474c-1.051-1.8-2.032-3.639-3.048-5.458-.514-.92-1.041-1.832-1.554-2.751-.071-.128-.174-.109-.279-.118.344-.267.578-.065.8.189q1.716,1.976,3.43,3.951c1.525,1.749,3.01,3.533,4.586,5.238.09.1.244.21.2.333-.06.173-.261.094-.4.1-.876.016-1.752.023-2.628.033A.763.763,0,0,1,188.871,109.623Z" fill="#fe8a00"/>
      <path id="Path_2100" data-name="Path 2100" d="M192.414,106.527c-.706-.692-1.306-1.479-1.965-2.212-.45-.5-.874-1.024-1.325-1.524-.148-.164-.17-.276-.015-.447.434-.478.865-.96,1.271-1.461.169-.209.243-.119.366.024.931,1.083,1.87,2.159,2.8,3.246.211.249.563.44.448.864-.209.2-.4.4-.008.61a.874.874,0,0,1,0,.481c-.065-.009-.156.006-.193-.032-.294-.3-.549-.22-.851.014C192.754,106.229,192.658,106.468,192.414,106.527Z" fill="#fe8a00"/>
      <path id="Path_2101" data-name="Path 2101" d="M185.746,82.559a14.077,14.077,0,0,0-.4,2.174q-.307,1.888-.608,3.777a2.25,2.25,0,0,0,0,.367,7.946,7.946,0,0,1-1.143.56l1.246-7.87C185.155,81.957,185.57,82.138,185.746,82.559Z" fill="#fefefd"/>
      <path id="Path_2102" data-name="Path 2102" d="M192.414,106.527c.244-.059.34-.3.521-.437.3-.234.557-.315.851-.014.037.038.128.023.193.032.116.728-.046,1.455.01,2.2a3.036,3.036,0,0,1-.838-.946c.367-.132.4-.461.41-.768.006-.2-.073-.376-.359-.192s-.421.364-.3.692C192.735,106.907,192.477,106.8,192.414,106.527Z" fill="#f3ce1f"/>
      <path id="Path_2103" data-name="Path 2103" d="M192.9,107.092c-.121-.328.025-.516.3-.692s.365-.007.359.192c-.008.307-.043.636-.41.768A.{{ totalStreak }}.{{ totalStreak }},0,0,1,192.9,107.092Z" fill="#fe8a00"/>
      <path id="Path_2104" data-name="Path 2104" d="M167.577,104.658c-.1-.{{ totalStreak }}-.529-.584-.745-.915.475.155.708.583,1.031.908A.308.308,0,0,1,167.577,104.658Z" fill="#8085f9"/>
      <path id="Path_2105" data-name="Path 2105" d="M193.982,105.627c-.39-.208-.2-.409.008-.61A.883.883,0,0,1,193.982,105.627Z" fill="#f3ce1f"/>
      <path id="Path_2106" data-name="Path 2106" d="M168.387,104.692c.009-.048.01-.135.027-.138.078-.016.1.048.108.113A.08.08,0,0,1,168.387,104.692Z" fill="#8085f9"/>
      <path id="Path_2107" data-name="Path 2107" d="M181.944,109.64a.126.126,0,0,1,.193-.013Z" fill="#fe8a00"/>
      <path id="Path_2108" data-name="Path 2108" d="M178.775,74.593c-.134.262-.424.333-.634.5a4.963,4.963,0,0,0-1.837,3.17q-.736,4.559-1.455,9.12c-.173,1.114-.392,2.221-.483,3.347-.55,0-1.1,0-1.649.019-.252.01-.3-.1-.294-.314a18.868,18.868,0,0,1,.371-2.688q.589-3.82,1.195-7.639c.132-.84.224-1.691.424-2.515A3.938,3.938,0,0,1,178.775,74.593Z" fill="#fefefd"/>
      <path id="Path_2109" data-name="Path 2109" d="M191.742,76.654a.164.164,0,0,1-.24-.017Z" fill="#f3ce1f"/>
      <path id="Path_2110" data-name="Path 2110" d="M190.671,76.531l-.149,0C190.574,76.44,190.623,76.454,190.671,76.531Z" fill="#f3ce1f"/>
      <path id="Path_2111" data-name="Path 2111" d="M170.68,95.714a3.488,3.488,0,1,1-3.516,3.505A3.512,3.512,0,0,1,170.68,95.714Zm-.021,4.962a1.465,1.465,0,0,0,1.488-1.48,1.507,1.507,0,0,0-1.494-1.491,1.479,1.479,0,0,0-1.476,1.5A1.433,1.433,0,0,0,170.659,100.676Z" fill="#333"/>
      <path id="Path_2112" data-name="Path 2112" d="M166.77,103.681c-.188-.188-.43-.328-.524-.6A.8.8,0,0,1,166.77,103.681Z" fill="#8085f9"/>
      <path id="Path_2113" data-name="Path 2113" d="M166.2,103.035a.2.2,0,0,1-.19-.118C166.1,102.913,166.189,102.9,166.2,103.035Z" fill="#8085f9"/>
      <path id="Path_2114" data-name="Path 2114" d="M169.669,111.642c-.165,0-.33.006-.5,0a.99.99,0,0,1-.994-.95.952.952,0,0,1,.933-1.043,8.809,8.809,0,0,1,1.114,0,.968.968,0,0,1,.926.978,1.017,1.017,0,0,1-.947,1.01C170.028,111.653,169.848,111.642,169.669,111.642Z" fill="#333"/>
      <path id="Path_2115" data-name="Path 2115" d="M154.7,103.653a1.455,1.455,0,0,1-1.445-1.484,1.485,1.485,0,0,1,2.969-.052A1.469,1.469,0,0,1,154.7,103.653Z" fill="#fefefd"/>
      <path id="Path_2116" data-name="Path 2116" d="M196.979,68.384a1.465,1.465,0,1,1-2.93-.035,1.489,1.489,0,0,1,1.467-1.473A1.46,1.46,0,0,1,196.979,68.384Z" fill="#fefefd"/>
      <path id="Path_2117" data-name="Path 2117" d="M192.239,122.022c-.018-.185.036-.313.268-.3a.373.373,0,0,1,.394.341c.015.231-.155.334-.381.332C192.273,122.393,192.23,122.233,192.239,122.022Z" fill="#fe8a00"/>
      <path id="Path_2118" data-name="Path 2118" d="M170.659,100.676a1.433,1.433,0,0,1-1.482-1.475,1.479,1.479,0,0,1,1.476-1.5,1.507,1.507,0,0,1,1.494,1.491A1.465,1.465,0,0,1,170.659,100.676Z" fill="#f3ce1f"/>
    </g>
    <path id="Path_2119" data-name="Path 2119" d="M199.9,88.2c.143-.782.37-.985,1.166-1.044a3,3,0,0,0,.119-.928c-.732-.349-.868-.579-.759-1.389.081-.6.192-1.192.3-1.787a4.788,4.788,0,0,0-.3-3.441,3.889,3.889,0,0,0-2.034-1.812.449.449,0,0,0-.148-.107c-.63-.275-7.683-1.265-9.341-1.5q-5.061-.8-10.121-1.6c-.134.262-.424.333-.634.5a4.963,4.963,0,0,0-1.837,3.17q-.736,4.559-1.455,9.12c-.173,1.114-.392,2.221-.483,3.347.189,0,.379.014.569.015.759,0,1.032.223,1.209.978l.968,0a1.039,1.039,0,0,1,1.192-.98c1,0,2,0,3,0h.749a2.289,2.289,0,0,1-.41-1.805c.082-.41.146-.827.208-1.243.315-2.134.668-4.263,1.015-6.392a1.9,1.9,0,0,1,1.365-1.607,1.927,1.927,0,0,1,2.015.491c1.719,1.585,3.444,3.162,5.162,4.749a1.993,1.993,0,0,1-.494,3.33c-1.175.57-2.372,1.093-3.559,1.638-.551.253-1.1.509-1.65.763a3.244,3.244,0,0,0,.85.078c2.147,0,4.294-.007,6.442,0a2.922,2.922,0,0,1,2.983,2.637c.124,1.123.03,2.255.055,3.383.006.294.083.358.356.255a3.951,3.951,0,0,0,2.287-2.133,11.12,11.12,0,0,0,.57-2.691c.142-.772.384-1.043,1.164-1.136a2.889,2.889,0,0,0,.163-.882c-.785-.393-.916-.66-.758-1.535C199.848,88.5,199.868,88.347,199.9,88.2Z" transform="translate(0 37.787)" fill="#d33939"/>
    <circle id="Ellipse_223" data-name="Ellipse 223" cx="5.05" cy="5.05" r="5.05" transform="translate(215.828 80)" fill="#f1bc19"/>
    <circle id="Ellipse_224" data-name="Ellipse 224" cx="5.05" cy="5.05" r="5.05" transform="translate(130.323 140.219)" fill="#f1bc19"/>
    <circle id="Ellipse_225" data-name="Ellipse 225" cx="2.705" cy="2.705" r="2.705" transform="translate(136.833 134.283)" fill="#fff"/>
    <circle id="Ellipse_226" data-name="Ellipse 226" cx="2.209" cy="2.209" r="2.209" transform="translate(223.734 93.973)" fill="#78a0cf"/>
    <circle id="Ellipse_227" data-name="Ellipse 227" cx="2.414" cy="2.414" r="2.414" transform="translate(130.904 100.278)" fill="#78a0cf"/>
    <circle id="Ellipse_228" data-name="Ellipse 228" cx="2.414" cy="2.414" r="2.414" transform="translate(145.991 172.176)" fill="#78a0cf"/>
    <circle id="Ellipse_229" data-name="Ellipse 229" cx="1.352" cy="1.352" r="1.352" transform="translate(211.777 81.148)" fill="#f1bc19"/>
    <circle id="Ellipse_230" data-name="Ellipse 230" cx="2.533" cy="2.533" r="2.533" transform="translate(216.026 158.808)" fill="#f1bc19"/>
  </g>
</svg>
