<svg xmlns="http://www.w3.org/2000/svg" width="16.08" height="14.235" viewBox="0 0 16.08 14.235">
  <g id="Group_1971" data-name="Group 1971" transform="translate(-274.777 -342.855)">
    <path id="Path_3919" data-name="Path 3919" d="M290.857,349.916a9.708,9.708,0,0,1-2.813,6.9.74.74,0,1,1-1.064-1.023,7.68,7.68,0,0,0,1.659-2.419,8.21,8.21,0,0,0-.567-7.865A7.5,7.5,0,0,0,287,344.168a.741.741,0,1,1,1.044-1.043,9.633,9.633,0,0,1,2.676,5.26A12.436,12.436,0,0,1,290.857,349.916Z" fill="#ffb000"/>
    <path id="Path_3920" data-name="Path 3920" d="M287.649,349.951a6.234,6.234,0,0,1-1.733,4.331.766.766,0,0,1-.888.255.729.729,0,0,1-.463-.725.811.811,0,0,1,.264-.537,4.737,4.737,0,0,0,.046-6.554c-.436-.46-.4-1.038.091-1.285a.745.745,0,0,1,.9.182A6.209,6.209,0,0,1,287.649,349.951Z" fill="#ffb000"/>
    <path id="Path_3921" data-name="Path 3921" d="M277.035,349.984c0,.85-.006,1.7,0,2.551,0,.182-.053.225-.227.22-.464-.012-.929,0-1.393-.005a.6.6,0,0,1-.639-.635q-.006-2.137,0-4.276a.592.592,0,0,1,.609-.641c.5-.013.992,0,1.488-.009.175,0,.158.106.158.22Q277.033,348.7,277.035,349.984Z"/>
    <path id="Path_3922" data-name="Path 3922" d="M283.161,356.019c.092-.135.044-.287.044-.43q.006-4.831,0-9.665,0-.933,0-1.867a.522.522,0,0,0-.291-.544.558.558,0,0,0-.694.076c-1.375,1.1-2.747,2.205-4.127,3.3a.516.516,0,0,0-.209.46q.01,2.621,0,5.243a.559.559,0,0,0,.24.492c1.085.86,2.163,1.728,3.244,2.592.3.241.6.489.906.718a.491.491,0,0,0,.751-.088l.034-.035C283.076,356.18,282.89,356.009,283.161,356.019Z"/>
  </g>
</svg>
