<svg xmlns="http://www.w3.org/2000/svg" width="66.658" height="14.091" viewBox="0 0 66.658 14.091">
  <g id="Group_52714" data-name="Group 52714" transform="translate(-267.397 -226.782)">
    <path id="Path_36772" data-name="Path 36772" d="M-18.194-1.183a4.527,4.527,0,0,1-1.846.364,3.185,3.185,0,0,1-3.367-3.523c0-2.3,1.365-3.614,3.419-3.614a4.12,4.12,0,0,1,1.768.364l.273-.923a4.7,4.7,0,0,0-2.08-.39A4.36,4.36,0,0,0-24.6-4.3,4.1,4.1,0,0,0-20.273.13a5.614,5.614,0,0,0,2.314-.416Zm4.134-5.252a3.072,3.072,0,0,0-3.12,3.341A2.991,2.991,0,0,0-14.163.143,3.075,3.075,0,0,0-11.031-3.2,2.98,2.98,0,0,0-14.059-6.435Zm-.026.858c1.352,0,1.885,1.352,1.885,2.418,0,1.417-.819,2.444-1.911,2.444-1.118,0-1.911-1.04-1.911-2.418C-16.022-4.329-15.437-5.577-14.086-5.577Zm4.5,8.151h1.131V-.845h.026A2.206,2.206,0,0,0-6.493.143c1.482,0,2.86-1.118,2.86-3.38,0-1.911-1.144-3.2-2.665-3.2A2.474,2.474,0,0,0-8.534-5.213H-8.56l-.052-1.079H-9.639c.026.6.052,1.248.052,2.054ZM-8.456-3.64a1.855,1.855,0,0,1,.078-.468A1.825,1.825,0,0,1-6.649-5.525c1.209,0,1.872,1.079,1.872,2.34,0,1.443-.7,2.431-1.911,2.431A1.765,1.765,0,0,1-8.4-2.093a2.576,2.576,0,0,1-.052-.468Zm5.343-2.652,2.327,5.8a1,1,0,0,1,.078.3A.821.821,0,0,1-.8.078a3.469,3.469,0,0,1-.962,1.274,3.026,3.026,0,0,1-1,.559l.286.962a3.1,3.1,0,0,0,1.4-.741C-.292,1.456.267.351,1.086-1.807L2.8-6.292H1.593L.345-2.6c-.156.455-.286.936-.4,1.313H-.084c-.1-.377-.26-.871-.4-1.287L-1.865-6.292ZM6.6,0H7.742V-9.23H6.6Zm4.212,0V-6.292H9.665V0Zm-.572-8.775a.7.7,0,0,0-.715.715.68.68,0,0,0,.689.7.676.676,0,0,0,.728-.7A.679.679,0,0,0,10.237-8.775ZM12.707,0h1.144V-3.783a1.645,1.645,0,0,1,.078-.533,1.625,1.625,0,0,1,1.534-1.17c1.079,0,1.456.845,1.456,1.859V0h1.144V-3.757c0-2.158-1.352-2.678-2.223-2.678a2.314,2.314,0,0,0-2.08,1.183h-.026l-.065-1.04H12.655c.039.52.052,1.053.052,1.7Zm8.346-9.23H19.922V0h1.131V-2.366l.585-.65L23.809,0H25.2L22.431-3.7l2.431-2.587H23.484L21.639-4.121c-.182.221-.4.494-.559.715h-.026Z" transform="translate(292 238)" fill="#0091b4"/>
    <g id="HqMUHI.tif" transform="translate(-110.19 91.829)">
      <g id="Group_52711" data-name="Group 52711" transform="translate(435.391 134.953)">
        <path id="Path_36765" data-name="Path 36765" d="M677.2,326.747a2.368,2.368,0,0,1-.451,1.4q-.343.483-.692.962a.5.5,0,0,1-.735.144.489.489,0,0,1-.081-.745c.236-.333.484-.658.711-1a1.355,1.355,0,0,0-.842-2.093,1.311,1.311,0,0,0-1.393.531c-.242.32-.47.651-.707.976a.507.507,0,1,1-.832-.576c.254-.361.506-.723.776-1.072a2.377,2.377,0,0,1,4.247,1.466Z" transform="translate(-669.897 -324.371)" fill="#1d91b4"/>
        <path id="Path_36766" data-name="Path 36766" d="M617.47,412.5a2.438,2.438,0,0,1,.413-1.469q.362-.518.735-1.029a.488.488,0,0,1,.71-.124.48.48,0,0,1,.114.71c-.229.33-.47.652-.7.98a1.366,1.366,0,1,0,2.223,1.588c.229-.314.452-.632.682-.945a.487.487,0,0,1,.719-.149.48.48,0,0,1,.1.741,12.071,12.071,0,0,1-1,1.294,2.373,2.373,0,0,1-3.995-1.6Z" transform="translate(-617.47 -406.389)" fill="#1d91b4"/>
        <path id="Path_36767" data-name="Path 36767" d="M681.724,389.839a.548.548,0,0,1,.473.815c-.445.691-.9,1.375-1.36,2.056a.5.5,0,0,1-.839-.556c.448-.689.9-1.376,1.364-2.053A1.363,1.363,0,0,1,681.724,389.839Z" transform="translate(-677.435 -387.244)" fill="#1d91b4"/>
      </g>
    </g>
    <path id="Path_36771" data-name="Path 36771" d="M61.051,162.056H51a1.006,1.006,0,0,1-1-1V151a1.006,1.006,0,0,1,1-1h2.009v1H51v10.046H61.051v-5.023h1v5.023A1.006,1.006,0,0,1,61.051,162.056Z" transform="translate(272 76.782)" fill="#1d91b4"/>
  </g>
</svg>
