<svg xmlns="http://www.w3.org/2000/svg" width="208" height="208" viewBox="0 0 208 208">
  <g id="Group_58335" data-name="Group 58335" transform="translate(-71 -1090)">
    <circle id="Ellipse_1633" data-name="Ellipse 1633" cx="104" cy="104" r="104" transform="translate(71 1090)" fill="#fff" opacity="0.14"/>
    <circle id="Ellipse_1632" data-name="Ellipse 1632" cx="92" cy="92" r="92" transform="translate(83 1102)" fill="#fff" opacity="0.513"/>
    <g id="Group_3470" data-name="Group 3470" transform="translate(153.953 1147.73)">
      <rect id="Rectangle_607" data-name="Rectangle 607" width="67.364" height="93.071" rx="12.521" fill="#494776"/>
      <path id="Path_5745" data-name="Path 5745" d="M-368.037,445.408h-47.437v-78.6h56.887v60.87Z" transform="translate(420.713 -359.574)" fill="#feffff"/>
      <rect id="Rectangle_608" data-name="Rectangle 608" width="37.706" height="6.61" rx="3.305" transform="translate(14.829 3.487)" fill="none" stroke="#8a8889" stroke-width="3"/>
      <rect id="Rectangle_609" data-name="Rectangle 609" width="30.358" height="4.183" transform="translate(18.503 1.541)" fill="#b9b7b8"/>
      <g id="Group_3469" data-name="Group 3469" transform="translate(9.835 32.852)">
        <rect id="Rectangle_610" data-name="Rectangle 610" width="10.35" height="10.35" transform="translate(0 2.68)" fill="none" stroke="#e3e3e3" stroke-width="3"/>
        <g id="Group_3466" data-name="Group 3466" transform="translate(15.306 5.133)">
          <rect id="Rectangle_611" data-name="Rectangle 611" width="20.4" height="1.383" fill="#b8b8b8"/>
          <rect id="Rectangle_612" data-name="Rectangle 612" width="8.172" height="1.383" transform="translate(0 4.061)" fill="#b8b8b8"/>
          <rect id="Rectangle_613" data-name="Rectangle 613" width="13.535" height="1.383" transform="translate(10.345 4.061)" fill="#b8b8b8"/>
          <rect id="Rectangle_614" data-name="Rectangle 614" width="8.508" height="1.383" transform="translate(23.881)" fill="#b8b8b8"/>
        </g>
        <path id="Path_5746" data-name="Path 5746" d="M-407.416,405.444l3.322,2.052a36.656,36.656,0,0,1,6.378-8.44" transform="translate(409.221 -399.056)" fill="none" stroke="#0db752" stroke-width="3"/>
        <rect id="Rectangle_615" data-name="Rectangle 615" width="10.35" height="10.35" transform="translate(0 20.013)" fill="none" stroke="#e3e3e3" stroke-width="3"/>
        <g id="Group_3467" data-name="Group 3467" transform="translate(15.306 22.466)">
          <rect id="Rectangle_616" data-name="Rectangle 616" width="20.4" height="1.383" fill="#b8b8b8"/>
          <rect id="Rectangle_617" data-name="Rectangle 617" width="8.172" height="1.383" transform="translate(0 4.061)" fill="#b8b8b8"/>
          <rect id="Rectangle_618" data-name="Rectangle 618" width="13.535" height="1.383" transform="translate(10.345 4.061)" fill="#b8b8b8"/>
          <rect id="Rectangle_619" data-name="Rectangle 619" width="8.508" height="1.383" transform="translate(23.881)" fill="#b8b8b8"/>
        </g>
        <path id="Path_5747" data-name="Path 5747" d="M-407.416,427.262l3.322,2.052a36.655,36.655,0,0,1,6.378-8.44" transform="translate(409.221 -403.542)" fill="none" stroke="#0db752" stroke-width="3"/>
        <rect id="Rectangle_620" data-name="Rectangle 620" width="10.35" height="10.35" transform="translate(0 37.345)" fill="none" stroke="#e3e3e3" stroke-width="3"/>
        <g id="Group_3468" data-name="Group 3468" transform="translate(15.306 39.798)">
          <rect id="Rectangle_621" data-name="Rectangle 621" width="20.4" height="1.383" fill="#b8b8b8"/>
          <rect id="Rectangle_622" data-name="Rectangle 622" width="8.172" height="1.383" transform="translate(0 4.061)" fill="#b8b8b8"/>
          <rect id="Rectangle_623" data-name="Rectangle 623" width="13.535" height="1.383" transform="translate(10.345 4.061)" fill="#b8b8b8"/>
          <rect id="Rectangle_624" data-name="Rectangle 624" width="8.508" height="1.383" transform="translate(23.881)" fill="#b8b8b8"/>
        </g>
        <path id="Path_5748" data-name="Path 5748" d="M-407.416,449.08l3.322,2.052a36.639,36.639,0,0,1,6.378-8.44" transform="translate(409.221 -408.028)" fill="none" stroke="#0db752" stroke-width="3"/>
      </g>
      <path id="Path_5749" data-name="Path 5749" d="M-357.149,461.162l-5.365-10.462s8.748-1.464,14.816-7.265C-347.7,443.435-350.332,453.925-357.149,461.162Z" transform="translate(409.824 -375.328)" fill="#dfe0e0"/>
    </g>
    <g id="Group_3488" data-name="Group 3488" transform="translate(119.523 1132.017)">
      <path id="Path_5750" data-name="Path 5750" d="M-416.323,398.833a.39.39,0,0,0-.01-.3.329.329,0,0,0-.348-.1.568.568,0,0,0-.29.211,1.1,1.1,0,0,0-.15,1.1c.106.256.8.91,1.049.442.1-.181-.126-.416-.188-.589A1.44,1.44,0,0,1-416.323,398.833Z" transform="translate(455.498 -350.36)" fill="#fa7452"/>
      <g id="Group_3485" data-name="Group 3485">
        <g id="Group_3471" data-name="Group 3471" transform="translate(5.748 53.083)">
          <path id="Path_5751" data-name="Path 5751" d="M-458.173,405.019l5.453,52.843h2.175l-.43-44.884,1.677.168,1.284,44.716h2.173l2.713-53.12Z" transform="translate(458.173 -404.742)" fill="#272245"/>
          <path id="Path_5752" data-name="Path 5752" d="M-444.133,473.16l-.269.826-.7,0-.01-2.861,1.294-.021.138,1.116c.343,1.144,2.09.511,2.568,1.009.305.317-.181.628-1.314.833A1.63,1.63,0,0,1-444.133,473.16Z" transform="translate(455.488 -418.386)" fill="#272245"/>
          <path id="Path_5753" data-name="Path 5753" d="M-450.884,473.16l.268.826.7,0,.01-2.861-1.294-.021-.138,1.116c-.343,1.144-2.09.511-2.568,1.009-.3.317.182.628,1.314.833A1.631,1.631,0,0,0-450.884,473.16Z" transform="translate(457.314 -418.386)" fill="#272245"/>
          <line id="Line_44" data-name="Line 44" x2="4.28" y2="47.097" transform="translate(1.622 6.023)" fill="none" stroke="#4c4a7b" stroke-width="0.25"/>
          <line id="Line_45" data-name="Line 45" x1="2.058" y2="47.303" transform="translate(11.92 5.816)" fill="none" stroke="#4c4a7b" stroke-width="0.25"/>
          <path id="Path_5754" data-name="Path 5754" d="M-452.388,413.009l2.6,1.669-1.634.6" transform="translate(456.984 -406.442)" fill="none" stroke="#4c4a7b" stroke-width="0.25"/>
          <path id="Path_5755" data-name="Path 5755" d="M-444.647,413.5l-2.355,1.45,1.62.628" transform="translate(455.877 -406.542)" fill="none" stroke="#4c4a7b" stroke-width="0.25"/>
          <path id="Path_5756" data-name="Path 5756" d="M-455.729,405.038s1.387,5.51-1.627,6.332" transform="translate(458.005 -404.803)" fill="none" stroke="#4c4a7b" stroke-width="0.25"/>
          <path id="Path_5757" data-name="Path 5757" d="M-441.667,404.786s-1,5.757,1.579,6.1" transform="translate(454.819 -404.751)" fill="none" stroke="#4c4a7b" stroke-width="0.25"/>
          <path id="Path_5758" data-name="Path 5758" d="M-457.94,407.253a42.688,42.688,0,0,0,7.952,1.328,20.734,20.734,0,0,0,6.907-1.707" transform="translate(458.125 -405.18)" fill="none" stroke="#4c4a7b" stroke-width="0.25"/>
        </g>
        <g id="Group_3476" data-name="Group 3476" transform="translate(4.504 20.765)">
          <g id="Group_3475" data-name="Group 3475" transform="translate(0 0.307)">
            <g id="Group_3474" data-name="Group 3474">
              <g id="Group_3473" data-name="Group 3473">
                <g id="Group_3472" data-name="Group 3472">
                  <path id="Path_5759" data-name="Path 5759" d="M-443.451,396.457c-4.84,2.168-8.519,2.247-15.044.276a101.943,101.943,0,0,0,.983-10.581c.153-6.2-.983-10.345-2.228-20.72a53.924,53.924,0,0,1,16.765-.57c-.151,7.947-1.286,13.169-.705,20.42C-443.442,388.25-444.208,392.63-443.451,396.457Z" transform="translate(459.739 -364.446)" fill="#feffff"/>
                </g>
              </g>
            </g>
          </g>
          <path id="Path_5760" data-name="Path 5760" d="M-456.329,397.119a87.875,87.875,0,0,0,12.658-10.82" transform="translate(459.038 -368.633)" fill="none" stroke="#131121" stroke-width="0.25"/>
          <path id="Path_5761" data-name="Path 5761" d="M-442.14,390.679a76.883,76.883,0,0,1-6.036,7.591" transform="translate(457.362 -369.533)" fill="none" stroke="#131121" stroke-width="0.25"/>
          <path id="Path_5762" data-name="Path 5762" d="M-454.56,364.713s1.492,5.33,4.81,5.315c3.186-.014,4.5-5.718,4.5-5.718" transform="translate(458.674 -364.112)" fill="none" stroke="#131121" stroke-width="0.25"/>
          <path id="Path_5763" data-name="Path 5763" d="M-457.865,402.61s4.932,1.354,7.59,1.161a38.206,38.206,0,0,0,6.939-1.6" transform="translate(459.354 -371.896)" fill="none" stroke="#131121" stroke-width="0.25"/>
          <path id="Path_5764" data-name="Path 5764" d="M-453.669,364.542s1.574,4.2,4.063,3.984,3.587-4.4,3.587-4.4A33.113,33.113,0,0,0-453.669,364.542Z" transform="translate(458.491 -364.06)" fill="#fa9076"/>
        </g>
        <g id="Group_3477" data-name="Group 3477" transform="translate(16.977 20.12)">
          <path id="Path_5765" data-name="Path 5765" d="M-436.023,365.346l7.79,22.152-1.748,2.175-7.854-13.522Z" transform="translate(442.763 -363.68)" fill="#332c58"/>
          <path id="Path_5766" data-name="Path 5766" d="M-444.038,364.139l.377,34.925a8.962,8.962,0,0,0,5.982-.249l-1.716-14.157,2.1-19.56Z" transform="translate(444.038 -363.432)" fill="#332c58"/>
          <path id="Path_5767" data-name="Path 5767" d="M-444.038,363.249l3.587.613-.906,5.83-.992.72,1.5,1.052-2.983,11.253Z" transform="translate(444.038 -363.249)" fill="#4c4a7b"/>
          <path id="Path_5768" data-name="Path 5768" d="M-436.123,368.2l-1.017,9.491,1.979-3.017" transform="translate(442.62 -364.266)" fill="none" stroke="#4c4a7b" stroke-width="0.25"/>
          <path id="Path_5769" data-name="Path 5769" d="M-437.066,399.165l-4.234.6.265,1.5,3.969-.653Z" transform="translate(443.475 -370.633)" fill="#4c4a7b"/>
        </g>
        <g id="Group_3478" data-name="Group 3478" transform="translate(0 20.156)">
          <path id="Path_5770" data-name="Path 5770" d="M-455.406,364.667l1.444,34.439a8.967,8.967,0,0,1-5.987-.1l.423-13.711-2.594-19.5Z" transform="translate(464.733 -363.576)" fill="#332c58"/>
          <path id="Path_5771" data-name="Path 5771" d="M-454.606,363.293l-3.567.885,1.044,6.009,1.01.694-1.474,1.089,3.782,11.119Z" transform="translate(463.921 -363.293)" fill="#4c4a7b"/>
          <path id="Path_5772" data-name="Path 5772" d="M-444.943,388.552c.507-.085,1.354-.17,1.861-.255a1.607,1.607,0,0,0,.674-.22.623.623,0,0,0,.256-.663,11.905,11.905,0,0,0,1.418-.226.414.414,0,0,0,.241-.2c.041-.1.08-.187-.025-.207l-1.9-.342a1.47,1.47,0,0,0-.424-.035,1.657,1.657,0,0,0-.489.168,12.8,12.8,0,0,1-1.756.465A4.561,4.561,0,0,0-444.943,388.552Z" transform="translate(461.232 -368.044)" fill="#fa9076"/>
          <path id="Path_5773" data-name="Path 5773" d="M-462.8,366.089l-2.614,21.566,16.708-2.9-.319-2.346-11.309.9S-458.877,372.517-462.8,366.089Z" transform="translate(465.409 -363.868)" fill="#332c58"/>
          <path id="Path_5774" data-name="Path 5774" d="M-454.2,384.018l-5,.4s1.3-7.106-.7-12.907" transform="translate(464.274 -364.982)" fill="none" stroke="#4c4a7b" stroke-width="0.25"/>
          <path id="Path_5775" data-name="Path 5775" d="M-459.889,399.165l4.234.6-.265,1.5-3.969-.653Z" transform="translate(464.274 -370.668)" fill="#4c4a7b"/>
        </g>
        <g id="Group_3484" data-name="Group 3484" transform="translate(2.658)">
          <g id="Group_3479" data-name="Group 3479" transform="translate(1.123 11.974)">
            <path id="Path_5776" data-name="Path 5776" d="M-458.051,355.4a2.012,2.012,0,0,1-1.08.074,2.7,2.7,0,0,1-.891-.245,1.139,1.139,0,0,1-.594-.679,1.367,1.367,0,0,1,.019-.67,1.19,1.19,0,0,1,.361-.676,1.274,1.274,0,0,1,.829-.211,4.7,4.7,0,0,1,.97.114C-458.29,353.811-458.2,354.7-458.051,355.4Z" transform="translate(460.65 -352.994)" fill="#fa9076"/>
            <path id="Path_5777" data-name="Path 5777" d="M-458.541,353.979a1.393,1.393,0,0,0-.427-.208.751.751,0,0,0-.4-.052.487.487,0,0,0-.334.307.779.779,0,0,0-.011.465c.038.145.143.305.292.292a.426.426,0,0,0,.188-.091c.145-.1.351-.179.491-.069s.127.315.253.411c.194.147.405,0,.373-.236A1.333,1.333,0,0,0-458.541,353.979Z" transform="translate(460.462 -353.141)" fill="#fa7452"/>
          </g>
          <g id="Group_3480" data-name="Group 3480" transform="translate(15.535 11.974)">
            <path id="Path_5778" data-name="Path 5778" d="M-442.507,355.4a2.012,2.012,0,0,0,1.08.074,2.714,2.714,0,0,0,.891-.245,1.144,1.144,0,0,0,.594-.679,1.367,1.367,0,0,0-.019-.67,1.2,1.2,0,0,0-.361-.676,1.275,1.275,0,0,0-.829-.211,4.684,4.684,0,0,0-.97.114C-442.268,353.811-442.356,354.7-442.507,355.4Z" transform="translate(442.507 -352.994)" fill="#fa9076"/>
            <path id="Path_5779" data-name="Path 5779" d="M-441.766,353.979a1.4,1.4,0,0,1,.426-.208.754.754,0,0,1,.4-.052.484.484,0,0,1,.333.307.766.766,0,0,1,.011.465c-.037.145-.143.305-.292.292a.427.427,0,0,1-.187-.091c-.146-.1-.352-.179-.491-.069s-.127.315-.253.411c-.194.147-.405,0-.373-.236A1.333,1.333,0,0,1-441.766,353.979Z" transform="translate(442.444 -353.141)" fill="#fa7452"/>
          </g>
          <path id="Path_5780" data-name="Path 5780" d="M-444.9,344.734c-4.3-.91-9.88-.308-14.155.679l3.059,14.166a28.47,28.47,0,0,0,9.264-.381Z" transform="translate(461.445 -339.229)" fill="#fa9076"/>
          <path id="Path_5781" data-name="Path 5781" d="M-452.027,350.422c.22.072.18.382.108.619a.58.58,0,0,1-.131.257.583.583,0,0,1-.48.1c-.883-.092-2.715.137-2.715-.328C-454.967,350.187-452.079,350.405-452.027,350.422Z" transform="translate(460.661 -340.484)" fill="#57261f"/>
          <g id="Group_3481" data-name="Group 3481" transform="translate(11.388 11.799)">
            <path id="Path_5782" data-name="Path 5782" d="M-447.217,352.773a.5.5,0,1,1,0,.991A.5.5,0,1,1-447.217,352.773Z" transform="translate(447.728 -352.773)" fill="#4d211b"/>
          </g>
          <path id="Path_5783" data-name="Path 5783" d="M-448.388,350.422c-.221.072-.181.382-.109.619a.581.581,0,0,0,.131.257.583.583,0,0,0,.48.1c.883-.092,2.715.137,2.715-.328C-445.449,350.187-448.337,350.405-448.388,350.422Z" transform="translate(459.286 -340.484)" fill="#57261f"/>
          <g id="Group_3482" data-name="Group 3482" transform="translate(7.282 12.121)">
            <path id="Path_5784" data-name="Path 5784" d="M-452.386,353.179a.5.5,0,1,0,0,.991A.5.5,0,1,0-452.386,353.179Z" transform="translate(452.897 -353.179)" fill="#4d211b"/>
          </g>
          <g id="Group_3483" data-name="Group 3483">
            <path id="Path_5785" data-name="Path 5785" d="M-445.913,345.194a5.842,5.842,0,0,0,1.214.1,33.065,33.065,0,0,1-.219,5.742l-.651,6.736a9.262,9.262,0,0,1-.388,2.185,14.042,14.042,0,0,1-9.811.751,1.928,1.928,0,0,1-.731-.34,1.61,1.61,0,0,1-.421-.748,35.5,35.5,0,0,1-1.259-6.009l-1.047-6.985c.33,0,.733-.193,1.063-.193.609,4.762,1.351,8.835,2.892,11.8.129-.576.4-1.358,4.053-1.609,2.515-.173,3.254.4,3.54,1.308A29.769,29.769,0,0,0-445.913,345.194Z" transform="translate(461.48 -339.416)" fill="#57261f"/>
            <path id="Path_5786" data-name="Path 5786" d="M-451.635,361.385s2.719-.508,3.668-.1c0,0,.222,1.988-1.639,1.932A1.85,1.85,0,0,1-451.635,361.385Z" transform="translate(459.919 -342.692)" fill="#fff"/>
            <path id="Path_5787" data-name="Path 5787" d="M-444.36,341.955c-.123-.833-1.636-1.978-2.455-.936.2-1.7-.64-2.95-3.958-3.094-2.633-.114-10.652,2.165-11.2,3.714-.434,1.233.664,2.06,2.679,1.342-2.383,1.966-2.478,3.3-1.779,4.26,1.045,1.439,9.221-1.836,10.365-2.69a1.21,1.21,0,0,0,.253,1.678C-448.99,347.041-443.834,345.511-444.36,341.955Z" transform="translate(462.063 -337.921)" fill="#57261f"/>
          </g>
          <path id="Path_5788" data-name="Path 5788" d="M-449.64,353.8l-1.16,3.752h2.179Z" transform="translate(459.748 -341.186)" fill="#fa7452"/>
        </g>
      </g>
      <g id="Group_3487" data-name="Group 3487" transform="translate(19.145 8.454)">
        <path id="Path_5789" data-name="Path 5789" d="M-429.181,361.486l12.988,1.541h0a8.29,8.29,0,0,0-.712-4.464l-3.615-9.6a.688.688,0,0,0-1.163-.137l-5.761,8.49a8.28,8.28,0,0,0-1.737,4.173Z" transform="translate(438.816 -348.563)" fill="#ffd7a8"/>
        <g id="Group_3486" data-name="Group 3486" transform="translate(0 12.924)">
          <path id="Path_5790" data-name="Path 5790" d="M-427.588,441.95l-12.988-1.541,9.052-75.577,12.988,1.541Z" transform="translate(441.158 -364.831)" fill="#e29627"/>
          <path id="Path_5791" data-name="Path 5791" d="M-430.169,441.643l-6.022-.714,9.052-75.577,6.022.714Z" transform="translate(440.257 -364.938)" fill="#ffc533"/>
          <rect id="Rectangle_625" data-name="Rectangle 625" width="13.079" height="1.657" transform="translate(0.583 75.577) rotate(6.766)" fill="#eaeffe"/>
          <path id="Path_5792" data-name="Path 5792" d="M-435.539,472.178h0a6.54,6.54,0,0,1-5.724-7.264l.342-2.873,12.988,1.54-.341,2.874A6.54,6.54,0,0,1-435.539,472.178Z" transform="translate(441.309 -384.818)"/>
        </g>
        <path id="Path_5793" data-name="Path 5793" d="M-429.181,364.431l3.483.414h0a1.754,1.754,0,0,0-1.535-1.949h0a1.754,1.754,0,0,0-1.948,1.535Z" transform="translate(438.816 -351.507)" fill="#d38b28"/>
        <path id="Path_5794" data-name="Path 5794" d="M-424.8,364.984l6.021.714h0c.114-.962-1.141-1.9-2.8-2.1h0c-1.663-.2-3.1.423-3.217,1.385Z" transform="translate(437.914 -351.647)" fill="#f1b43a"/>
        <path id="Path_5795" data-name="Path 5795" d="M-417.217,365.851l3.483.413h0a1.753,1.753,0,0,0-1.535-1.948h0a1.754,1.754,0,0,0-1.949,1.535Z" transform="translate(436.356 -351.799)" fill="#d38b28"/>
        <path id="Path_5796" data-name="Path 5796" d="M-420.3,348.824-422.453,352s1.437,2.053,4.667.554l-1.351-3.589A.688.688,0,0,0-420.3,348.824Z" transform="translate(437.432 -348.563)" fill="#373960"/>
      </g>
      <path id="Path_5797" data-name="Path 5797" d="M-417.617,399.9a5.985,5.985,0,0,0-.7-.136.754.754,0,0,0-.636.189.57.57,0,0,0-.128.346.689.689,0,0,0,.288.5.472.472,0,0,0-.47.249.406.406,0,0,0,.172.472.7.7,0,0,0-.385.4c-.048.175.169.4.369.458a.444.444,0,0,0-.354.375.625.625,0,0,0,.392.545,2.349,2.349,0,0,0,.741.188l.671.093c.232.033.521.043.632-.129s-.068-.431,0-.634c.052-.153.232-.24.322-.377.238-.362-.227-.892.038-1.24a1.565,1.565,0,0,1,.243-.212C-415.834,400.482-416.836,400.1-417.617,399.9Z" transform="translate(455.966 -350.635)" fill="#fa9076"/>
    </g>
  </g>
</svg>
