<svg xmlns="http://www.w3.org/2000/svg" width="23.138" height="22.066" viewBox="0 0 23.138 22.066">
  <g id="Group_59106" data-name="Group 59106" transform="translate(-305.32 -173.228)">
    <path id="Path_43394" data-name="Path 43394" d="M6.084,19.646H3.942A2.748,2.748,0,0,1,2.1,17.614,47.436,47.436,0,0,1,.157,7.193L.076,5.728A.755.755,0,0,0,0,5.4V3.435a2.7,2.7,0,0,1,1.981-1.8A42.509,42.509,0,0,1,11.054.088l1.119-.08a2.419,2.419,0,0,1,2.588,1.615c.415,1.4.765,2.777,1.081,4.2a.747.747,0,0,1-.641.807A.737.737,0,0,1,14.388,6L13.4,2.147c-.145-.565-.609-.649-1.111-.641a34.193,34.193,0,0,0-10.045,1.6c-.373.12-.769.315-.76.8A45.233,45.233,0,0,0,3.7,17.746a.807.807,0,0,0,.626.426A32.436,32.436,0,0,0,15,16.493a.869.869,0,0,0,.541-.849l-.154-2.905a.742.742,0,0,1,.677-.686.726.726,0,0,1,.778.624l.164,3.035A2.324,2.324,0,0,1,15.137,18,39.9,39.9,0,0,1,7.508,19.51Z" transform="translate(308.394 173.228) rotate(9)" fill="#fab736"/>
    <path id="Path_43395" data-name="Path 43395" d="M11.385,2.362V3.386c-.865,3.759-5.588,5.732-9,6.989.92.66,2.314.309,2.148,1.414a.733.733,0,0,1-.83.59A6.594,6.594,0,0,1,.154,10.56a.872.872,0,0,1-.142-.653A6.767,6.767,0,0,1,1.681,6.615a.76.76,0,0,1,1.082-.147c.9.739-.63,1.518-.875,2.495,2.554-.843,6.931-2.762,7.9-5.368A1.659,1.659,0,0,0,8.851,1.4.722.722,0,0,1,8.422.482a.7.7,0,0,1,.872-.45,3.254,3.254,0,0,1,2.092,2.331" transform="translate(317.214 176.229) rotate(9)" fill="#fff"/>
  </g>
</svg>
