<svg xmlns="http://www.w3.org/2000/svg" width="37.366" height="30.29" viewBox="0 0 37.366 30.29">
  <g id="Group_24137" data-name="Group 24137" transform="translate(1997.626 -466.898)">
    <g id="Group_24136" data-name="Group 24136" transform="translate(-1997.626 466.898)">
      <path id="Path_22096" data-name="Path 22096" d="M-1960.263,482.474c0-3.58.008-7.159,0-10.739a1.956,1.956,0,0,0-1.844-2.1c-.868.028-1.146-.354-1.362-1.058a2.128,2.128,0,0,0-2.178-1.67,31.489,31.489,0,0,0-11.646,2.061,3.653,3.653,0,0,1-3.248-.042c-3.757-1.669-7.79-1.986-11.845-2.032a1.933,1.933,0,0,0-1.867,1.288,5.784,5.784,0,0,1-.392.949.991.991,0,0,1-.627.439,2.167,2.167,0,0,0-2.348,2.491q0,10.429,0,20.858a2.144,2.144,0,0,0,2.432,2.455c3.764,0,7.528.01,11.292-.007a3.117,3.117,0,0,1,2.085.724,4.328,4.328,0,0,0,5.737.01,3.107,3.107,0,0,1,2.081-.734c3.764.017,7.528.009,11.292.007a2.138,2.138,0,0,0,2.444-2.44Q-1960.259,487.706-1960.263,482.474Z" transform="translate(1997.626 -466.898)" fill="#fbdfa1"/>
      <path id="Path_22097" data-name="Path 22097" d="M-1960.263,482.474q0,5.232,0,10.464a2.138,2.138,0,0,1-2.444,2.44c-3.764,0-7.528.01-11.292-.007a3.107,3.107,0,0,0-2.081.734,4.328,4.328,0,0,1-5.737-.01,3.117,3.117,0,0,0-2.085-.724c-3.764.017-7.528.009-11.292.007a2.144,2.144,0,0,1-2.432-2.455q0-10.429,0-20.858a2.167,2.167,0,0,1,2.348-2.491.991.991,0,0,0,.627-.439,5.784,5.784,0,0,0,.392-.949,1.933,1.933,0,0,1,1.867-1.288c4.055.046,8.087.363,11.845,2.032a3.653,3.653,0,0,0,3.248.042,31.489,31.489,0,0,1,11.646-2.061,2.128,2.128,0,0,1,2.178,1.67c.216.7.494,1.085,1.362,1.058a1.956,1.956,0,0,1,1.844,2.1C-1960.256,475.315-1960.263,478.895-1960.263,482.474Zm-33.065,7.076c-.021-.319-.061-.638-.061-.957q-.005-9.794,0-19.588c-.434,1.087-1.154,2.056-1.151,3.3.015,5.781,0,11.561.009,17.342,0,.64.034,1.28.052,1.92a2.781,2.781,0,0,0,.707.194q8.769.017,17.537.009c4.058,0,8.115,0,12.173-.012a2.179,2.179,0,0,0,.705-.274c0-6.515.045-13.031-.027-19.545a10.112,10.112,0,0,0-.876-2.787l-.213.059v.742q0,9.291,0,18.582a8.553,8.553,0,0,1-.088.881,7.35,7.35,0,0,1-1,.117,74.448,74.448,0,0,0-12.2.712,5.77,5.77,0,0,1-1.6.239,77.038,77.038,0,0,0-13.157-.811A4.6,4.6,0,0,1-1993.328,489.55Zm14.032.031v-.634c0-2.34-.009-4.681.015-7.021,0-.208.218-.413.334-.619.121.2.343.408.346.615.028,1.789.016,3.579.016,5.369v2.143l13.328-.809V467.9a30.8,30.8,0,0,0-13.339,2.691c0,1.717.014,3.391-.016,5.065,0,.232-.222.461-.341.691-.115-.236-.325-.47-.329-.707-.029-1.674-.015-3.348-.015-5-3.338-2.151-10.331-2.965-13.33-2.654v20.777Zm-16.094-18.952c-.852-.039-1.257.388-1.257,1.4q0,10.431,0,20.862c0,1.1.388,1.493,1.48,1.494,3.834,0,7.667.011,11.5-.007a3.169,3.169,0,0,1,2.281.8,3.5,3.5,0,0,0,4.859.027,3.39,3.39,0,0,1,2.408-.824c3.765.02,7.53.009,11.294.008,1.267,0,1.576-.31,1.576-1.585q0-10.328,0-20.656c0-.161.01-.323-.006-.482a1.068,1.068,0,0,0-1.3-1.029,9.285,9.285,0,0,1,.189,1.327q.019,9.6.008,19.21c0,1.173-.389,1.558-1.571,1.559q-5.785,0-11.57,0h-.706c-.382,1.676-1.248,2.562-2.5,2.631-1.561.086-2.363-.6-3.03-2.631H-1993.9c-1.269,0-1.636-.368-1.636-1.639q0-9.295.006-18.59C-1995.528,471.9-1995.441,471.288-1995.389,470.63Z" transform="translate(1997.626 -466.898)"/>
      <path id="Path_22098" data-name="Path 22098" d="M-1948.045,495.867l-13.33-.818V474.272c3-.312,9.992.5,13.33,2.654,0,1.655-.013,3.33.015,5,0,.238.214.472.329.707.119-.23.337-.459.341-.691.03-1.674.016-3.348.016-5.065a30.8,30.8,0,0,1,13.339-2.691v20.722l-13.328.809v-2.143c0-1.79.011-3.58-.016-5.369,0-.207-.225-.41-.346-.615-.116.206-.332.412-.334.619-.024,2.34-.015,4.681-.015,7.021Zm6.9-7.978,1.707-3.034c.618-1.1,1.268-2.179,1.843-3.3.531-1.033.127-1.676-.993-1.679q-2.341-.006-4.681,0a1.113,1.113,0,0,0-1.266,1.259,1.118,1.118,0,0,0,1.26,1.269c.7.008,1.4,0,2.223,0-.163.312-.26.511-.369.7-1.046,1.855-2.113,3.7-3.135,5.567-.592,1.08-.183,1.772,1,1.778q2.581.013,5.163,0a1.135,1.135,0,0,0,1.265-1.278,1.131,1.131,0,0,0-1.251-1.288C-1939.248,487.883-1940.118,487.89-1941.147,487.89Zm-9.3,1.319a3.753,3.753,0,0,0-.078-.371c-.823-2.688-1.639-5.377-2.478-8.059a1.619,1.619,0,0,0-1.759-1.031,1.6,1.6,0,0,0-1.747,1.142c-.811,2.619-1.6,5.245-2.414,7.864a1.084,1.084,0,0,0,.594,1.424c1.1.6,1.893.276,2.18-.949.153-.653.4-.935,1.136-.891,1.349.08,1.352.022,1.8,1.343a1.052,1.052,0,0,0,1.349.741C-1951.035,490.284-1950.463,489.807-1950.447,489.209Zm2.75-3.006a7.661,7.661,0,0,0,.819-.033,1,1,0,0,0,.927-1.077.948.948,0,0,0-.921-1,8.32,8.32,0,0,0-1.7.014.929.929,0,0,0-.861.982.983.983,0,0,0,.854,1.069A5.258,5.258,0,0,0-1947.7,486.2Zm-12.1,7.576a56.978,56.978,0,0,1,10.119.543c-3.2-.967-6.495-.893-9.78-.937-.033-.738-.063-1.4-.094-2.069l-.246.011Zm23.956-.388a55.588,55.588,0,0,0-6.288.228q.008.1.017.193h6.593a11.987,11.987,0,0,0-.1-2.484l-.224,0Zm-13.83-15.269c-.713-.846-5.63-2.243-6.357-1.837Zm10.344-1.848c-.905-.372-5.8,1.056-6.358,1.841Zm3.465,2.807c.217-.2.305-.237.306-.281.017-.913.038-1.827.014-2.74,0-.1-.283-.273-.431-.27-.708.016-1.416.075-2.123.138-.1.009-.194.122-.291.187l.035.159,2.489-.136Zm-21.171-2.807.031-.314c-.757-.061-1.516-.11-2.271-.187-.44-.045-.627.092-.606.561.031.686,0,1.374.012,2.061a3.865,3.865,0,0,0,.081.539l.233-.006v-2.792Zm21.419,5.881h-.179v5.233h.179Zm-23.966-2.119c-.42.739-.344,4.888,0,5.263Zm16.375,13.98a2.8,2.8,0,0,0-2.632.479Z" transform="translate(1966.376 -473.183)" fill="#fcfbf1"/>
      <path id="Path_22099" data-name="Path 22099" d="M-1989.275,493.934c-.051.658-.139,1.267-.14,1.875q-.015,9.295-.006,18.59c0,1.271.367,1.639,1.636,1.639h12.164c.667,2.031,1.469,2.717,3.03,2.631,1.253-.069,2.119-.955,2.5-2.631h.707q5.785,0,11.57,0c1.182,0,1.571-.386,1.571-1.559q0-9.6-.008-19.21a9.285,9.285,0,0,0-.189-1.327,1.068,1.068,0,0,1,1.3,1.029c.016.159.006.321.006.482q0,10.328,0,20.656c0,1.275-.308,1.585-1.576,1.585-3.764,0-7.529.012-11.294-.008a3.39,3.39,0,0,0-2.408.824,3.5,3.5,0,0,1-4.859-.027,3.17,3.17,0,0,0-2.281-.8c-3.833.018-7.667.008-11.5.007-1.092,0-1.479-.389-1.479-1.494q0-10.431,0-20.862C-1990.531,494.322-1990.126,493.9-1989.275,493.934Z" transform="translate(1991.512 -490.202)" fill="#e85066"/>
      <path id="Path_22100" data-name="Path 22100" d="M-1943.715,632.2a2.179,2.179,0,0,1-.705.274c-4.057.017-8.115.012-12.173.012q-8.769,0-17.537-.008a2.767,2.767,0,0,1-.707-.194l1.155-2.017a4.606,4.606,0,0,0,.8.123,77.042,77.042,0,0,1,13.158.811,5.772,5.772,0,0,0,1.6-.239,74.448,74.448,0,0,1,12.2-.712,7.366,7.366,0,0,0,1-.117Z" transform="translate(1977.981 -607.612)" fill="#bdb9c9"/>
      <path id="Path_22101" data-name="Path 22101" d="M-1974.06,502.721l-1.155,2.017c-.018-.64-.051-1.28-.052-1.92,0-5.781.006-11.561-.009-17.342,0-1.244.717-2.214,1.151-3.3q0,9.794,0,19.588C-1974.121,502.083-1974.081,502.4-1974.06,502.721Z" transform="translate(1978.359 -480.068)" fill="#fcfbf1"/>
      <path id="Path_22102" data-name="Path 22102" d="M-1756.795,505.573l-1.209-2.068a8.619,8.619,0,0,0,.088-.881q.008-9.291,0-18.583V483.3l.213-.059a10.115,10.115,0,0,1,.876,2.787C-1756.749,492.543-1756.79,499.058-1756.795,505.573Z" transform="translate(1791.061 -480.986)" fill="#fcfbf1"/>
      <path id="Path_22103" data-name="Path 22103" d="M-1837.743,523.424c1.029,0,1.9-.006,2.771,0a1.131,1.131,0,0,1,1.251,1.288,1.135,1.135,0,0,1-1.265,1.278q-2.581.012-5.163,0c-1.187-.006-1.6-.7-1-1.778,1.022-1.868,2.089-3.712,3.135-5.567.109-.192.206-.391.369-.7-.818,0-1.52.006-2.223,0a1.118,1.118,0,0,1-1.26-1.269,1.112,1.112,0,0,1,1.266-1.259q2.34-.006,4.681,0c1.12,0,1.524.645.993,1.679-.575,1.119-1.226,2.2-1.843,3.3Zm-1.171.689c1.4-2.755,3.054-5.193,4.356-8.007-1.831,0-3.432,0-5.033,0-.4,0-.788-.053-.8.554s.372.564.773.562c1.021-.005,2.042,0,3.172,0-.136.281-.2.442-.287.592-1.237,2.2-2.483,4.387-3.711,6.587-.394.705-.272.9.511.9,1.537.005,3.074,0,4.611,0,.426,0,.874.03.882-.582.009-.663-.474-.613-.919-.612C-1836.5,524.113-1837.646,524.112-1838.914,524.112Z" transform="translate(1862.971 -508.717)"/>
      <path id="Path_22104" data-name="Path 22104" d="M-1935.59,523.948c-.016.6-.589,1.075-1.417,1.213a1.052,1.052,0,0,1-1.349-.741c-.448-1.321-.451-1.263-1.8-1.343-.74-.044-.983.238-1.136.891-.287,1.226-1.084,1.547-2.18.949a1.084,1.084,0,0,1-.594-1.424c.813-2.619,1.6-5.245,2.414-7.864a1.6,1.6,0,0,1,1.747-1.142,1.619,1.619,0,0,1,1.759,1.031c.839,2.682,1.656,5.372,2.478,8.059A3.759,3.759,0,0,1-1935.59,523.948Zm-1.787.474c.893-.006,1.114-.324.9-1.015-.745-2.452-1.509-4.9-2.224-7.359a1.1,1.1,0,0,0-1.167-.849,1.062,1.062,0,0,0-1.178.826c-.724,2.458-1.474,4.909-2.23,7.357-.136.44-.219.827.339.991.521.154.828.013.987-.588.381-1.441.414-1.432,1.927-1.432h.069c1.713,0,1.7,0,2.224,1.611A1.465,1.465,0,0,0-1937.378,524.422Z" transform="translate(1951.52 -507.922)"/>
      <path id="Path_22105" data-name="Path 22105" d="M-1873.088,547.835a5.267,5.267,0,0,1-.884-.049.983.983,0,0,1-.854-1.069.93.93,0,0,1,.862-.982,8.318,8.318,0,0,1,1.7-.014.948.948,0,0,1,.921,1,1,1,0,0,1-.927,1.077A7.667,7.667,0,0,1-1873.088,547.835Z" transform="translate(1891.769 -534.815)"/>
      <path id="Path_22106" data-name="Path 22106" d="M-1949.934,600.8V598.35l.246-.011c.03.665.06,1.33.094,2.069,3.285.044,6.583-.03,9.78.937A56.971,56.971,0,0,0-1949.934,600.8Z" transform="translate(1956.513 -580.206)"/>
      <path id="Path_22107" data-name="Path 22107" d="M-1815.574,600.489v-2.061l.224,0a12,12,0,0,1,.1,2.484h-6.593l-.017-.193A55.583,55.583,0,0,1-1815.574,600.489Z" transform="translate(1846.109 -580.281)"/>
      <path id="Path_22108" data-name="Path 22108" d="M-1916.256,490.77l-6.357-1.837C-1921.886,488.527-1916.969,489.924-1916.256,490.77Z" transform="translate(1932.961 -485.831)"/>
      <path id="Path_22109" data-name="Path 22109" d="M-1841.28,488.929l-6.358,1.841C-1847.078,489.985-1842.185,488.557-1841.28,488.929Z" transform="translate(1868.33 -485.837)"/>
      <path id="Path_22110" data-name="Path 22110" d="M-1792.2,489.089v-2.942l-2.489.136-.035-.159c.1-.065.189-.178.291-.187.706-.063,1.414-.122,2.122-.138.148,0,.428.171.431.27.024.913,0,1.827-.014,2.74C-1791.9,488.852-1791.987,488.894-1792.2,489.089Z" transform="translate(1822.719 -483.191)"/>
      <path id="Path_22111" data-name="Path 22111" d="M-1947.69,486.128l-2.519-.138v2.792l-.233.006a3.883,3.883,0,0,1-.081-.539c-.01-.687.02-1.375-.012-2.061-.021-.47.166-.607.606-.561.755.078,1.514.126,2.271.187Z" transform="translate(1957.033 -483.036)"/>
      <ellipse id="Ellipse_1130" data-name="Ellipse 1130" cx="0.127" cy="3.7" rx="0.127" ry="3.7" transform="translate(30.546 7.888)"/>
      <path id="Path_22112" data-name="Path 22112" d="M-1950.154,516.576v5.263C-1950.5,521.464-1950.574,517.315-1950.154,516.576Z" transform="translate(1956.951 -509.723)"/>
      <path id="Path_22113" data-name="Path 22113" d="M-1846.111,616.95l-2.632.479A2.8,2.8,0,0,1-1846.111,616.95Z" transform="translate(1869.282 -596.117)"/>
      <path id="Path_22114" data-name="Path 22114" d="M-1834.189,528.443c1.268,0,2.409,0,3.55,0,.445,0,.928-.051.919.612-.008.612-.456.582-.882.582-1.537,0-3.074,0-4.611,0-.782,0-.9-.2-.511-.9,1.228-2.2,2.474-4.392,3.712-6.588.084-.15.151-.31.287-.592-1.13,0-2.151,0-3.172,0-.4,0-.79.058-.773-.562s.4-.555.8-.554c1.6,0,3.2,0,5.033,0C-1831.135,523.25-1832.785,525.689-1834.189,528.443Z" transform="translate(1858.247 -513.048)" fill="#86aa44"/>
      <path id="Path_22115" data-name="Path 22115" d="M-1932.576,528.868a1.469,1.469,0,0,1-.349-.457c-.52-1.609-.512-1.611-2.224-1.611h-.069c-1.513,0-1.546-.009-1.927,1.432-.158.6-.465.741-.987.588-.558-.164-.475-.551-.339-.991.756-2.448,1.505-4.9,2.23-7.357a1.062,1.062,0,0,1,1.178-.826,1.1,1.1,0,0,1,1.167.849c.715,2.46,1.479,4.907,2.224,7.358C-1931.462,528.544-1931.684,528.861-1932.576,528.868Zm-1.05-2.975-1.387-5.072-.139.013-1.379,5.059Z" transform="translate(1946.718 -512.368)" fill="#86aa44"/>
      <path id="Path_22116" data-name="Path 22116" d="M-1920.879,533.244h-2.905l1.378-5.059.139-.013Zm-1.453-2.6-.507,1.878h1.018Z" transform="translate(1933.971 -519.719)"/>
      <path id="Path_22117" data-name="Path 22117" d="M-1916.42,546.1l.511,1.878h-1.018Z" transform="translate(1928.06 -535.173)" fill="#fcfbf1"/>
    </g>
    <rect id="Rectangle_2623" data-name="Rectangle 2623" width="1.929" height="0.822" rx="0.411" transform="translate(-1979.887 478.422)" fill="#86aa44"/>
  </g>
</svg>
