<svg xmlns="http://www.w3.org/2000/svg" width="99.526" height="99.495" viewBox="0 0 99.526 99.495">
  <g id="Group_46899" data-name="Group 46899" transform="translate(-483.854 -184.978)">
    <g id="qN4BFe.tif" transform="translate(483.854 184.978)">
      <g id="Group_46899-2" data-name="Group 46899" transform="translate(0)">
        <path id="Path_31844" data-name="Path 31844" d="M866.911,244.647c-.23.285-.448.58-.69.853a2.413,2.413,0,0,1-3.018.66,2.484,2.484,0,0,1-1.478-2.622,2.445,2.445,0,0,1,2.087-2.151,2.485,2.485,0,0,1,2.825,1.492c.083.178.182.349.274.523Z" transform="translate(-767.385 -227.282)" fill="#a0a0c8"/>
        <path id="Path_31845" data-name="Path 31845" d="M547.078,567.934c-.287-.226-.581-.443-.859-.679a2.542,2.542,0,1,1,4.066-2.575,2.6,2.6,0,0,1-1.224,2.868c-.238.151-.592.073-.738.387Z" transform="translate(-529.933 -468.439)" fill="#a0a0c8"/>
        <path id="Path_31846" data-name="Path 31846" d="M500.934,254.036c-.313-2.158-.855-4.271-1.041-6.459a57.985,57.985,0,0,1,.006-9.9,43.124,43.124,0,0,1,2.559-11.187,47.5,47.5,0,0,1,23.649-26.266,44.777,44.777,0,0,1,15.386-4.425,47.83,47.83,0,0,1,20.645,2.234,47.553,47.553,0,0,1,29.513,30.192A48.1,48.1,0,0,1,590.5,260.2a47.859,47.859,0,0,1-23.481,25,45.111,45.111,0,0,1-14.939,4.221A46.492,46.492,0,0,1,516.348,278.6a46.122,46.122,0,0,1-11.5-14.463c-.184-.367-.314-.761-.469-1.142a5.3,5.3,0,0,0,1.178-5.809A5.093,5.093,0,0,0,500.934,254.036Zm55.083-40.529a18.389,18.389,0,0,1,.5-4.421c.611-2.047-.22-3.529-1.577-4.883a9,9,0,0,0-3.582-2.152,17.83,17.83,0,0,0-8.935-.586,10.9,10.9,0,0,0-4.956,2.135c-.723.575-1.6,1.082-.922,2.325.495.914-1.419.878-.912,2.2a14.146,14.146,0,0,1,.742,5.371c.056,1.347.046,2.632-1.839,2.669a1.079,1.079,0,0,0-.7.478c-.418.616-.818.45-1.333.13a9.054,9.054,0,0,0-5.78-1.531,20.382,20.382,0,0,0-8.337,3.277,6.564,6.564,0,0,0-2.781,4.275,14.845,14.845,0,0,0,.249,7.373c.168.652.274,1.138-.567,1.441a1.58,1.58,0,0,0-1.122,1.641c.344,2.213.349,4.618,2.651,5.978a1.217,1.217,0,0,1,.563.775,8.55,8.55,0,0,0,3.451,4.573,1.5,1.5,0,0,1,.7,1.551c-.076.775-.55,1.018-1.177,1.236-2.07.719-4.127,1.478-6.192,2.213a6.319,6.319,0,0,0-4.615,5.313,48.274,48.274,0,0,0-.387,6.323,3.149,3.149,0,0,0,.232,1.812c-.28.189-.556-.025-.837-.007-.848.056-1.351.538-1.291,1.342a1.156,1.156,0,0,0,1.464,1.131,1.184,1.184,0,0,0,1.014-1.547c-.044-.23-.261-.433-.1-.693,2.005.961,3.843,2.231,5.916,3.078a31.349,31.349,0,0,0,12.282,2.131c.89-.007,1.1.231,1.029,1.083-.1,1.112.063,2.25-.072,3.355a2.392,2.392,0,0,0,1.527,2.622c6.067,3.436,12.622,4.418,19.448,3.865a27.642,27.642,0,0,0,13.208-4.316,1.744,1.744,0,0,0,.93-1.715c-.072-1.49.045-2.991-.067-4.476-.072-.958.254-1.052,1.1-1.023a31.289,31.289,0,0,0,15.8-3.636,1.674,1.674,0,0,0,1.1-1.821c-.149-1.9-.2-3.81-.263-5.716a5.721,5.721,0,0,0-4.124-5.845c-2.085-.8-4.2-1.538-6.3-2.288-.712-.254-1.315-.449-1.436-1.43a1.625,1.625,0,0,1,.924-1.785,9.568,9.568,0,0,0,1.613-1.36c1.617-1.658,3.086-3.4,2.779-5.963a1.187,1.187,0,0,1,.3-.768,9.53,9.53,0,0,0,1.433-6.4c.155-.021.4-.055.636-.085,2.392-.3,3.46-1.288,3.89-3.638.078-.424.311-.926-.156-1.273-.527-.392-.8.132-1.164.368a5.775,5.775,0,0,1-.772.362.724.724,0,0,0-.137-.154c.924-2.418.641-3.325-1.579-4.721-.363-.228-.362-.481-.411-.806a3.9,3.9,0,0,0-3.526-3.595,1.046,1.046,0,0,1-.973-.723,4.925,4.925,0,0,0-7.228-2.362c-.331.194-.577.595-1.093.4a6.559,6.559,0,0,0-6.878,1.03c-.7.558-1.2.238-1.257-.662C556.094,214.491,556.053,214,556.017,213.507Zm-47.611,33.627a3.117,3.117,0,1,0-6.231-.162,3.282,3.282,0,0,0,3.13,3.335C507.024,250.226,508.674,248.79,508.406,247.133Zm74.146-25.019c0,.84.33,1.339,1.164,1.327a1.171,1.171,0,0,0,1.262-1.112,1.246,1.246,0,0,0-1.306-1.355A1.042,1.042,0,0,0,582.553,222.115Z" transform="translate(-495.733 -192.897)" fill="#cde0f2"/>
        <path id="Path_31847" data-name="Path 31847" d="M489.169,429.91a5.093,5.093,0,0,1,4.625,3.151,5.3,5.3,0,0,1-1.178,5.809c-2.643,1.635-4.794,1.693-6.658.179a5.011,5.011,0,0,1-1.723-5.454C484.9,431.4,486.574,430.157,489.169,429.91Z" transform="translate(-483.969 -368.771)" fill="#facd5b"/>
        <path id="Path_31848" data-name="Path 31848" d="M836.236,195.164a5.1,5.1,0,0,1-5.1-5.021,5.186,5.186,0,0,1,5.123-5.165,5.127,5.127,0,0,1,5.079,5.19A5.051,5.051,0,0,1,836.236,195.164Z" transform="translate(-744.451 -184.978)" fill="#f0bc1b"/>
        <path id="Path_31849" data-name="Path 31849" d="M489.038,269.209a2.677,2.677,0,0,1-2.678,2.559,2.788,2.788,0,0,1-2.506-2.627,2.723,2.723,0,0,1,2.57-2.554A2.675,2.675,0,0,1,489.038,269.209Z" transform="translate(-483.855 -246.216)" fill="#a0a0c8"/>
        <path id="Path_31850" data-name="Path 31850" d="M833.755,511.793a2.533,2.533,0,0,1-2.585-2.437,2.57,2.57,0,0,1,2.468-2.579,2.539,2.539,0,0,1,2.636,2.524A2.464,2.464,0,0,1,833.755,511.793Z" transform="translate(-744.474 -426.45)" fill="#facd5b"/>
        <path id="Path_31851" data-name="Path 31851" d="M818.434,191.49a1.248,1.248,0,1,1-1.25-1.228A1.154,1.154,0,0,1,818.434,191.49Z" transform="translate(-733.045 -188.943)" fill="#f0bc1b"/>
        <path id="Path_31852" data-name="Path 31852" d="M607.644,280.5a5.766,5.766,0,0,0,.772-.362c.361-.236.637-.76,1.164-.368.467.347.234.848.157,1.273-.43,2.349-1.5,3.335-3.89,3.638-.24.03-.481.065-.636.085a9.53,9.53,0,0,1-1.433,6.4,1.187,1.187,0,0,0-.3.768c.308,2.563-1.161,4.305-2.779,5.963a9.56,9.56,0,0,1-1.613,1.36,1.624,1.624,0,0,0-.924,1.785c.121.981.724,1.177,1.436,1.43,2.1.75,4.215,1.487,6.3,2.288a5.721,5.721,0,0,1,4.124,5.845c.059,1.907.113,3.816.263,5.716a1.674,1.674,0,0,1-1.1,1.821,31.288,31.288,0,0,1-15.8,3.636c-.841-.028-1.167.065-1.1,1.023.112,1.485-.005,2.986.067,4.476a1.744,1.744,0,0,1-.93,1.715,27.642,27.642,0,0,1-13.208,4.316c-6.826.554-13.381-.429-19.448-3.865a2.392,2.392,0,0,1-1.527-2.622c.135-1.1-.023-2.242.072-3.355.073-.852-.138-1.091-1.029-1.083A31.348,31.348,0,0,1,544,320.247c-2.073-.847-3.911-2.117-5.916-3.078l.009.015c.033-.215-.115-.238-.269-.256l.01.015a3.151,3.151,0,0,1-.232-1.812,48.269,48.269,0,0,1,.387-6.323,6.319,6.319,0,0,1,4.615-5.312c2.065-.735,4.122-1.493,6.192-2.213.627-.218,1.1-.461,1.177-1.236a1.5,1.5,0,0,0-.7-1.551,8.55,8.55,0,0,1-3.451-4.573,1.218,1.218,0,0,0-.563-.775c-2.3-1.359-2.307-3.765-2.651-5.977a1.58,1.58,0,0,1,1.122-1.641c.841-.3.735-.788.567-1.441a14.843,14.843,0,0,1-.249-7.373,6.564,6.564,0,0,1,2.781-4.275,20.382,20.382,0,0,1,8.337-3.277,9.054,9.054,0,0,1,5.78,1.531c.516.32.915.486,1.333-.13a1.079,1.079,0,0,1,.7-.478c1.885-.037,1.895-1.321,1.839-2.669.563.123.372,1.116,1.147.994a12.985,12.985,0,0,1,.015,2.093c-.149,1.009-.326,1.878.868,2.476.6.3.659,1.13.521,1.8a17.608,17.608,0,0,1-.63,2.123,1.668,1.668,0,0,0,.222,1.817c-.67.557-.632,1.451-1.017,2.143-.324-1.7-1.106-3.387-.079-5.121a3.121,3.121,0,0,0,.284-1.074c.1-.58-.1-1.07-.756-.992-1.761.213-3.093-.727-4.475-1.548-1.921-1.14-3.948-2.079-6.219-1.664a20.829,20.829,0,0,0-6.924,2.877,5.447,5.447,0,0,0-2.5,3.712,14.914,14.914,0,0,0,.921,8.743c.225-1.175.4-2.181.612-3.18a9.705,9.705,0,0,1,1.232-2.969c1-1.664,1.5-1.785,3.133-.859.4.224.806.425,1.221.612,3.221,1.449,6.547,2.269,9.949.825,1.253-.532,1.448-.087,1.775.887.505,1.5.4,3.1.847,4.6.019.5-.167.829-.709.869-.16-1.314-.265-2.638-.493-3.94-.338-1.929-.374-1.922-2.158-1.384-.158.048-.32.082-.482.117-3.516.76-6.719-.22-9.808-1.786-1.869-.948-2.106-.9-3.033.99a11.219,11.219,0,0,0-.735,1.968,26.489,26.489,0,0,0-.784,6.265,14.478,14.478,0,0,0,.093,4.2c.812,3.1,3.3,4.616,5.7,6.253a4.814,4.814,0,0,0,5.886.021,17.5,17.5,0,0,0,4.99-4.577,5.123,5.123,0,0,1,.31,1.661c-.785,1.638.333,3,.572,4.487a7.7,7.7,0,0,0,.088-2.8c.637-.044.837-.432.816-1.014a2.526,2.526,0,0,1,.489-1.742l2.53-.383c-.354-.642-1.127-.233-1.4-.836a19.071,19.071,0,0,1,5.452.476c.386.092.654.077.55.767a1.63,1.63,0,0,0,1.347,1.658,1.981,1.981,0,0,0,2.442-2c.019-.465.349-.384.6-.436a15.062,15.062,0,0,1,5.726-.017l-2.167.376.011.161,3.078.229c.472.866.179,1.957.815,2.775v3.315a14.278,14.278,0,0,0,1.146-3.1c.133-.505.275-1.06-.216-1.5a4.486,4.486,0,0,1,.265-1.522,13.954,13.954,0,0,0,4.235,3.933c1.467.891,3.013,1.718,4.777.994a14.124,14.124,0,0,0,6.863-5.685,3.1,3.1,0,0,0,.364-1.551,43.035,43.035,0,0,1,.273-4.454c.227-1.488-.189-3.061.556-4.487a4.435,4.435,0,0,0-2.833-.906,2.757,2.757,0,0,1-2.1-.953,1.365,1.365,0,0,0-1.514-.4c-3.158.729-5.925.139-7.887-2.689a.777.777,0,0,0-.811-.417,6.373,6.373,0,0,1-2.668-.445c-.4-.347-.806-.77-1.395-.468-.622.319-.429.939-.345,1.423a5.344,5.344,0,0,0,.508,2.207l.041.737.08.349q.138,1.325.275,2.65a7.378,7.378,0,0,1-2.178-1.744,3.576,3.576,0,0,0-.487-4.637c.091-.072.247-.133.263-.219.26-1.4,1.413-2.462,1.285-4.1-.065-.839.481-1.834.445-2.833-.021-.589-.539-1.036-.385-1.647.49.024.6-.243.64-.689a2.447,2.447,0,0,1,.565-1.789c.036.493.077.985.107,1.478.053.9.553,1.22,1.257.663a6.559,6.559,0,0,1,6.878-1.03c.516.2.763-.2,1.093-.4a4.925,4.925,0,0,1,7.228,2.362,1.046,1.046,0,0,0,.973.723,3.9,3.9,0,0,1,3.526,3.595c.049.325.048.578.411.806,2.22,1.4,2.5,2.3,1.579,4.721l-.151.134Zm-61.5,7.661.021-.905c.045-.242.162-.557-.047-.7a1.563,1.563,0,0,0-1.533-.025.93.93,0,0,0-.681,1.15c.2.839.4,1.68.632,2.509.226.8.5,1.58,1.526,1.8A18.612,18.612,0,0,0,546.14,288.158ZM570.2,302.029a2.941,2.941,0,0,0,1.407-.439,3.222,3.222,0,0,0,1.447-3.544c-.3-1.47-.761-1.875-2.506-2.042a26.728,26.728,0,0,0-2.975-.124c-1.44.023-1.989.665-1.919,2.13a4.609,4.609,0,0,0,2.2,3.984c-1.575,0-1.9-1.34-2.847-2.123.186,1.458.422,2.668.477,3.885a6.155,6.155,0,0,0,2.027,4.378,23.4,23.4,0,0,0,3.612,2.827c2.923,1.836,5.117,1.691,7.887-.411a40.54,40.54,0,0,0,3.273-3.038c2.027-1.922,1.261-4.367,1.622-6.882-1.822,1.83-3.695,2.382-5.635,1.76a3.772,3.772,0,0,1-2.673-3.9c-.021-.744-.5-.725-1.014-.745-.553-.021-.773.187-.856.773-.38,2.681-1.036,3.385-3.508,3.94Zm32.2,2.943a15.045,15.045,0,0,0-3.45-1.319,2.609,2.609,0,0,1-2.09-2.574c-.01-.838-.343-.881-.971-.565a4.929,4.929,0,0,1-4.183.218c-.492-.193-.983-.389-1.54-.611-.029.29-.054.488-.066.687-.11,1.854-.405,2.247-2.16,2.85q-1.17.4-2.344.793c-.272.091-.631.127-.672.464-.256,2.1-1.854,3.335-3.078,4.811-.605.5-1.221.992-1.814,1.508-1.1.953-.913,2.007.433,2.516,2.168.82,4.359,1.585,6.506,2.459,1.939.789,3.758,1.788,4.736,3.8a.8.8,0,0,0,.8.439,30.1,30.1,0,0,0,15.744-3.27A1.18,1.18,0,0,0,609,315.9c-.116-1.985-.177-3.973-.277-5.959a4.059,4.059,0,0,0-2.148-3.438A12.529,12.529,0,0,0,602.4,304.972Zm-16.313,25.366a21.727,21.727,0,0,0,3.483-1.562,2.407,2.407,0,0,0,1.586-2.8,21.835,21.835,0,0,1-.04-3.091,4.945,4.945,0,0,0-2.8-4.723,10.864,10.864,0,0,0-2.7-1.194,27.1,27.1,0,0,0-4.359-1.592c-1.474-.706-3.45-.915-3-3.527a6.273,6.273,0,0,1-6.633.12c-.382-.188-.913-.424-.843.287.169,1.71-.825,2.44-2.211,2.92a37.509,37.509,0,0,0-4.893,1.688,7.082,7.082,0,0,0-5.2,6.667c-.144,4.737-.032,4.907,4.357,6.572.193.073.394.125.592.186A32.836,32.836,0,0,0,586.091,330.338Zm-37.8-27.446c-1.677.592-3.337,1.235-5.034,1.764a5.219,5.219,0,0,0-4.058,4.766,11.862,11.862,0,0,0-.126,1.856c.1,1.626-.87,3.514.181,4.807,1.021,1.256,2.794,1.864,4.359,2.538l.871.329c3.879,1.818,8.035,2.067,12.22,2.185a1.325,1.325,0,0,0,1.485-.949,6.983,6.983,0,0,1,4.109-4.068c1.971-.74,3.948-1.467,5.935-2.163.732-.257,1.293-.49,1.4-1.446a1.7,1.7,0,0,0-.871-1.822,16.507,16.507,0,0,1-2.086-1.755c-1.084-1.051-2.152-2.258-2.151-3.791,0-1.551-.771-2.008-2.01-2.244-1.565-.6-3.2-1.126-2.994-3.609-2.849,2.322-5.537,2.023-8.325-.159.282,2.108-.6,3.065-2.228,3.475A4.741,4.741,0,0,0,548.288,302.892Zm59.789-20.961c-1.9-.052-2.536-.944-1.807-2.257.821-1.479.406-2.531-1.271-2.974-.7-.186-.941-.427-.834-1.188a2.541,2.541,0,0,0-2.779-2.98c-.994.108-1.3-.16-1.506-1.06a3.44,3.44,0,0,0-5.31-2.219,2.681,2.681,0,0,1-2.859.346c-2.848-1.038-5.113.291-5.948,3.295a1.456,1.456,0,0,1-.481.7c-1.517,1.389-1.162,3.743.815,3.953,2.027.215,3.189,1.206,4.568,2.46,1.7,1.543,3.938,1.521,6.112.839.415-.13.847-.471,1.215.076a3.289,3.289,0,0,0,3.341,1.442,1.1,1.1,0,0,1,.7.151,6.4,6.4,0,0,0,4.042.815A2.139,2.139,0,0,0,608.076,281.931ZM580.7,295.786a9.481,9.481,0,0,0-2.848.248,1.8,1.8,0,0,0-1.251.915,3.417,3.417,0,0,0,1.205,4.565c1.877,1.006,4.386.475,5.28-1.186a4,4,0,0,0,.382-3.69C582.882,295.44,581.6,295.832,580.7,295.786Zm4.276,7.451c.84-.274,1.665-.612,2.523-.806,1.062-.24,1.344-.917,1.344-1.887,0-1.3-1.209-1.291-1.844-2.009C586.385,300.227,586.335,301.972,584.971,303.236Zm-21.755-1.5-.933-3.894c-.567.876-1.715.906-1.517,2.127C560.989,301.345,562.2,301.234,563.216,301.738Zm39.863-13.021a4.1,4.1,0,0,0,.979-2.479c.048-.3-.046-.62-.426-.613-.337.006-.3.325-.323.562C603.231,287.031,603.156,287.874,603.08,288.718Zm-37.773-17.259c.021-.15-.1-.309-.331-.334a1.96,1.96,0,0,0-1.833.406.233.233,0,0,0,.034.4c.315.218.614.4.948,0,.19-.227.452-.086.685-.028C565.106,271.975,565.288,271.884,565.307,271.459Z" transform="translate(-524.172 -246.813)" fill="#4e3330"/>
        <path id="Path_31853" data-name="Path 31853" d="M645.342,231.393c-.775.122-.584-.871-1.147-.994a14.147,14.147,0,0,0-.742-5.371c-.507-1.325,1.407-1.29.912-2.2-.673-1.242.2-1.75.922-2.325a10.9,10.9,0,0,1,4.956-2.135,17.83,17.83,0,0,1,8.935.586,9,9,0,0,1,3.582,2.152c1.356,1.354,2.188,2.836,1.577,4.883a18.385,18.385,0,0,0-.5,4.421,2.447,2.447,0,0,0-.565,1.789c-.038.446-.15.714-.64.689a19.169,19.169,0,0,0-1-1.7c-2.965-4.064-9.4-6.445-14.06-5.236-.256.066-.484.116-.507.428C646.93,228.2,645.846,229.7,645.342,231.393Z" transform="translate(-603.551 -209.797)" fill="#522d2c"/>
        <path id="Path_31854" data-name="Path 31854" d="M515.895,392.435c.268,1.656-1.382,3.092-3.1,3.173a3.282,3.282,0,0,1-3.13-3.335,3.117,3.117,0,1,1,6.231.162Z" transform="translate(-503.222 -338.199)" fill="#fefefe"/>
        <path id="Path_31855" data-name="Path 31855" d="M532.44,466.11c-.16.259.056.463.1.693a1.184,1.184,0,0,1-1.014,1.547,1.156,1.156,0,0,1-1.464-1.131c-.06-.8.442-1.286,1.291-1.342.281-.018.558.2.837.007l-.011-.015c-.079.263.03.328.269.256Z" transform="translate(-518.525 -395.755)" fill="#f0bc1b"/>
        <path id="Path_31856" data-name="Path 31856" d="M831.669,298.6a1.042,1.042,0,0,1,1.12-1.139,1.246,1.246,0,0,1,1.306,1.355,1.171,1.171,0,0,1-1.262,1.112C832,299.941,831.666,299.443,831.669,298.6Z" transform="translate(-744.85 -269.385)" fill="#fefefe"/>
        <path id="Path_31857" data-name="Path 31857" d="M547.137,425.373c-1.565-.674-3.338-1.282-4.359-2.538-1.051-1.292-.082-3.181-.181-4.807a11.854,11.854,0,0,1,.126-1.856,5.219,5.219,0,0,1,4.058-4.766c1.7-.529,3.357-1.172,5.033-1.764.555.27,1.1.556,1.668.806,2.437,1.081,4.9,1.87,7.633,1.155a32.483,32.483,0,0,0,4.925-1.955c1.24.236,2.012.693,2.01,2.244,0,1.534,1.067,2.741,2.151,3.791a16.517,16.517,0,0,0,2.086,1.755,1.7,1.7,0,0,1,.871,1.822c-.108.956-.669,1.189-1.4,1.446-1.987.7-3.963,1.423-5.935,2.163a6.983,6.983,0,0,0-4.109,4.067,1.325,1.325,0,0,1-1.486.949c-4.185-.118-8.341-.367-12.219-2.185.009-.787.025-1.573.021-2.36,0-.329-.008-.748-.463-.726s-.416.441-.421.768C547.134,424.048,547.138,424.71,547.137,425.373Z" transform="translate(-527.699 -353.563)" fill="#87cbd5"/>
        <path id="Path_31858" data-name="Path 31858" d="M658.957,459.045a27.093,27.093,0,0,1,4.359,1.592c.04,4.461.223,8.918.472,13.372a32.835,32.835,0,0,1-22.661-.051q.123-6.713.246-13.425a37.558,37.558,0,0,1,4.894-1.688C650.485,459.67,654.708,460.181,658.957,459.045Z" transform="translate(-601.87 -390.484)" fill="#a0a0c8"/>
        <path id="Path_31859" data-name="Path 31859" d="M727.877,417.972a12.53,12.53,0,0,1,4.166,1.532,4.059,4.059,0,0,1,2.148,3.438c.1,1.986.161,3.974.277,5.959a1.18,1.18,0,0,1-.739,1.271,30.1,30.1,0,0,1-15.744,3.27.8.8,0,0,1-.8-.439c-.978-2.007-2.8-3.006-4.736-3.8-2.146-.874-4.337-1.638-6.506-2.459-1.346-.509-1.529-1.564-.433-2.516.593-.516,1.208-1.006,1.814-1.508C714.6,423,721.594,422.014,727.877,417.972Z" transform="translate(-649.645 -359.813)" fill="#01a4a4"/>
        <path id="Path_31860" data-name="Path 31860" d="M590.675,329.564a17.5,17.5,0,0,1-4.99,4.577,4.814,4.814,0,0,1-5.886-.021c-2.4-1.638-4.886-3.155-5.7-6.253a14.48,14.48,0,0,1-.093-4.2,26.492,26.492,0,0,1,.784-6.265,11.2,11.2,0,0,1,.735-1.968c.927-1.89,1.165-1.938,3.033-.99,3.089,1.567,6.292,2.546,9.808,1.786.161-.035.324-.07.482-.117,1.784-.538,1.82-.545,2.158,1.384.228,1.3.333,2.626.493,3.94C590.851,324.11,590.132,326.773,590.675,329.564Zm-11.614-12.107c-.659.09-1.309.17-1.956.27-.23.035-.544.048-.511.384a.418.418,0,0,0,.516.4,9.5,9.5,0,0,1,3.544-.09c.309.056.428-.249.442-.483.016-.276-.273-.239-.451-.267C580.119,317.585,579.59,317.526,579.061,317.458Zm.659,3.316a3.643,3.643,0,0,0-.271-.743.865.865,0,0,0-1.126-.475c-.681.278-.207.569-.014.89a.519.519,0,0,1-.192.746c-.289.177-.463.344-.183.658a.828.828,0,0,0,.873.316C579.459,321.975,579.626,321.431,579.72,320.774Zm7.189-3.317c-.683.093-1.378.186-2.073.285-.212.03-.454.114-.422.356a.439.439,0,0,0,.529.392,9.413,9.413,0,0,1,3.452-.073.431.431,0,0,0,.519-.409c.056-.383-.3-.316-.508-.353C587.918,317.57,587.424,317.523,586.909,317.457Zm.978,3.377a1.682,1.682,0,0,0-.453-1.063c-.3-.263-.651-.444-1-.156-.439.359.182.4.24.622.113.44.015.829-.432.845-.658.023-.42.31-.255.594a.867.867,0,0,0,1.042.477C587.626,321.972,587.791,321.45,587.888,320.834Zm-6.5,8.31a4.975,4.975,0,0,0,2.71.216A2.688,2.688,0,0,0,581.392,329.143Z" transform="translate(-551.421 -281.676)" fill="#f9d7b9"/>
        <path id="Path_31861" data-name="Path 31861" d="M723.22,314.564q-.021-.368-.041-.737c.712-.936.626-2.184,1.232-3.162a6.373,6.373,0,0,0,2.668.445.776.776,0,0,1,.811.417c1.961,2.828,4.728,3.418,7.887,2.689a1.365,1.365,0,0,1,1.514.4,2.757,2.757,0,0,0,2.095.953,4.435,4.435,0,0,1,2.833.906c-.745,1.426-.329,3-.556,4.487a43.018,43.018,0,0,0-.273,4.454,3.1,3.1,0,0,1-.364,1.551,14.124,14.124,0,0,1-6.863,5.685c-1.764.724-3.31-.1-4.777-.994a13.954,13.954,0,0,1-4.235-3.933l.27-1.938c.32-.032.511.23.768.334a1.606,1.606,0,0,0,2.009-.414,1.453,1.453,0,0,0-.065-2.014,1.353,1.353,0,0,0-2.052-.215.94.94,0,0,1-.657.285,11.6,11.6,0,0,0-1.371-4.829,2.876,2.876,0,0,1-.478-1.376q-.137-1.325-.275-2.65Q723.261,314.738,723.22,314.564Zm15.992,11.7a1.521,1.521,0,0,0,1.565-1.553,1.582,1.582,0,1,0-3.164.035A1.513,1.513,0,0,0,739.212,326.265Zm-1.9,1.009a10.368,10.368,0,0,1-9.15-.016C729.422,329.649,736.285,329.545,737.308,327.274Zm-12.2-10.734c1.74.287,3.481.566,5.218.867a.626.626,0,0,0,.757-.462c.139-.349-.162-.437-.388-.478A10.9,10.9,0,0,0,725.109,316.54Zm15.3-.008a11.359,11.359,0,0,0-5.52-.1c-.226.037-.667.063-.471.515a.67.67,0,0,0,.776.46C736.936,317.111,738.675,316.823,740.414,316.532ZM729.4,319.9c.013-.949-.7-1.742-1.362-1.435-.982.454.571,1.76-.648,2.247a1.305,1.305,0,0,0,.57.544C728.71,321.516,729.389,320.874,729.4,319.9Zm8.918.009a1.528,1.528,0,0,0-.616-1.3.737.737,0,0,0-.922-.084c-.439.34.09.452.185.66.193.426.091.751-.345.888-1.119.351-.3.754-.006,1.052a.82.82,0,0,0,1.04.041A1.49,1.49,0,0,0,738.32,319.914Zm-4.1,4.908c-1.088.969-2.176.283-3.355.021C732,326.364,733.364,326.371,734.218,324.822Z" transform="translate(-663.44 -279.292)" fill="#d5aa8d"/>
        <path id="Path_31862" data-name="Path 31862" d="M748.637,285.721a2.139,2.139,0,0,1-2,1.395,6.4,6.4,0,0,1-4.042-.815,1.1,1.1,0,0,0-.7-.151,3.289,3.289,0,0,1-3.341-1.442c-.368-.547-.8-.206-1.215-.076-2.174.682-4.415.7-6.112-.839-1.379-1.255-2.541-2.245-4.568-2.46-1.977-.21-2.332-2.564-.814-3.953a1.455,1.455,0,0,0,.481-.7c.835-3,3.1-4.333,5.948-3.295a2.681,2.681,0,0,0,2.859-.346,3.44,3.44,0,0,1,5.31,2.219c.205.9.512,1.168,1.506,1.06a2.541,2.541,0,0,1,2.779,2.98c-.107.761.132,1,.834,1.188,1.677.443,2.092,1.495,1.271,2.974C746.1,284.778,746.733,285.669,748.637,285.721Z" transform="translate(-664.733 -250.603)" fill="#eda01b"/>
        <path id="Path_31863" data-name="Path 31863" d="M661.417,326.443a2.877,2.877,0,0,0,.478,1.376,11.6,11.6,0,0,1,1.371,4.829q0,1.012,0,2.025l-.27,1.938a4.485,4.485,0,0,0-.265,1.522c-.425.344-.108,1.226-.93,1.282-.637-.818-.344-1.909-.815-2.775-.511-2.693-2.346-4.676-4.848-4.664-2.86.013-5.719,0-8.578,0a5.041,5.041,0,0,0-4.747,4.672,2.527,2.527,0,0,0-.489,1.742c.021.582-.179.97-.816,1.014l-.66-1.683a5.122,5.122,0,0,0-.31-1.661c-.543-2.791.177-5.454.826-8.124.542-.04.728-.371.709-.87l.482-.879a1.151,1.151,0,0,0,1.011-.74c4.121-3.832,11.524-3.764,15.676-.75A7.38,7.38,0,0,0,661.417,326.443Z" transform="translate(-601.282 -288.173)" fill="#522d2c"/>
        <path id="Path_31864" data-name="Path 31864" d="M651,254.17c.5-1.7,1.588-3.2,1.719-5.02.022-.313.251-.362.507-.428,4.663-1.209,11.1,1.172,14.06,5.236a19.21,19.21,0,0,1,1,1.7c-.155.611.364,1.058.385,1.647.035,1-.511,1.994-.445,2.833.128,1.64-1.025,2.7-1.285,4.1-.016.086-.172.146-.263.219-.3-.305-.8-.376-.909-.93a2.658,2.658,0,0,0-2.2-2.087,2.132,2.132,0,0,1-1.086-.717,3.45,3.45,0,0,0-4.6-.45,3.093,3.093,0,0,1-2.153.889,1.88,1.88,0,0,0-1.877,1.2,3.864,3.864,0,0,1-1.856,2.11,1.668,1.668,0,0,1-.222-1.817,17.563,17.563,0,0,0,.63-2.123c.138-.667.078-1.5-.521-1.8-1.193-.6-1.017-1.467-.868-2.476A12.978,12.978,0,0,0,651,254.17Zm5.658,2.321c.012-.943-.661-1.6-1.36-1.381-.24.075-.58.336-.418.472.713.6.495.973-.134,1.438-.174.129.11.439.308.581a.806.806,0,0,0,.923.07A1.48,1.48,0,0,0,656.661,256.492Zm7.378-2.675c.62.047,1.034.07,1.447.111a.442.442,0,0,0,.527-.4c.06-.386-.279-.317-.5-.36a9.19,9.19,0,0,0-3.459.071c-.234.043-.675.016-.575.453.094.408.409.384.789.311A17.567,17.567,0,0,1,664.04,253.817Zm-8.015,0c.561.041,1.012.062,1.459.11.358.039.578-.125.584-.454.008-.36-.339-.263-.553-.306a8.96,8.96,0,0,0-3.3.052c-.274.046-.769.012-.684.473.093.5.51.353.89.286C654.984,253.878,655.561,253.86,656.024,253.817Zm8.914,2.638c.021-.9-.89-1.772-1.254-1.3s.2,1.469-.75,1.84a2.447,2.447,0,0,0,.4.6.774.774,0,0,0,.92.088A1.334,1.334,0,0,0,664.938,256.455Z" transform="translate(-609.212 -232.574)" fill="#f9d7b9"/>
        <path id="Path_31865" data-name="Path 31865" d="M587.693,293.78l-.482.879c-.443-1.5-.342-3.1-.847-4.6-.327-.974-.522-1.419-1.775-.887-3.4,1.443-6.728.624-9.949-.825-.415-.187-.826-.388-1.221-.612-1.633-.926-2.132-.8-3.133.859a9.71,9.71,0,0,0-1.232,2.969c-.213,1-.388,2-.612,3.18a14.914,14.914,0,0,1-.921-8.743,5.447,5.447,0,0,1,2.5-3.712,20.83,20.83,0,0,1,6.924-2.877c2.272-.415,4.3.524,6.219,1.664,1.382.82,2.714,1.76,4.475,1.548.653-.079.851.411.756.992a3.122,3.122,0,0,1-.284,1.074c-1.026,1.734-.245,3.421.079,5.121q.006.246.011.493Z" transform="translate(-546.423 -255.764)" fill="#bc7740"/>
        <path id="Path_31866" data-name="Path 31866" d="M652.654,388.121c2.472-.556,3.128-1.259,3.508-3.94.083-.586.3-.794.856-.773.516.02.993,0,1.014.745a3.772,3.772,0,0,0,2.673,3.9c1.941.622,3.814.069,5.635-1.76-.361,2.515.406,4.96-1.622,6.882a40.524,40.524,0,0,1-3.273,3.038c-2.77,2.1-4.964,2.248-7.887.411a23.406,23.406,0,0,1-3.612-2.827,6.155,6.155,0,0,1-2.027-4.378c-.055-1.217-.291-2.427-.477-3.885.945.783,1.271,2.121,2.847,2.123a4.609,4.609,0,0,1-2.2-3.984c-.071-1.465.479-2.107,1.919-2.13a26.713,26.713,0,0,1,2.975.124c1.745.167,2.206.572,2.506,2.042a3.222,3.222,0,0,1-1.447,3.544,2.941,2.941,0,0,1-1.407.439c-.643,0-1.324-.245-2.049.288A3.419,3.419,0,0,0,652.654,388.121Zm4.769,4.263c-.787,0-1.575.034-2.36-.009-1.054-.057-1.077.506-.807,1.256a3.14,3.14,0,0,0,3.025,1.774,3.283,3.283,0,0,0,3.22-1.694c.435-.811.085-1.306-.841-1.324C658.914,392.372,658.168,392.384,657.423,392.384Zm-3.791-8.6c0-1.038-.715-1.743-1.477-1.406-1.048.465.784,1.928-.751,2.3-.061.015.193.4.387.55a.93.93,0,0,0,1.042.1A1.566,1.566,0,0,0,653.632,383.784Z" transform="translate(-606.609 -332.473)" fill="#f9d7b9"/>
        <path id="Path_31867" data-name="Path 31867" d="M735.476,403.388c-6.283,4.041-13.273,5.028-20.555,4.753,1.224-1.476,2.822-2.708,3.078-4.811.041-.337.4-.373.672-.464q1.173-.392,2.344-.793c1.755-.6,2.051-1,2.16-2.85.012-.2.038-.4.066-.687.558.221,1.048.418,1.54.611a4.929,4.929,0,0,0,4.183-.218c.628-.316.962-.272.971.565a2.609,2.609,0,0,0,2.09,2.574A15.048,15.048,0,0,1,735.476,403.388Z" transform="translate(-657.244 -345.229)" fill="#af866a"/>
        <path id="Path_31868" data-name="Path 31868" d="M651.208,300.752q-.006-.246-.011-.493c.385-.693.347-1.586,1.017-2.143a3.865,3.865,0,0,0,1.856-2.11,1.88,1.88,0,0,1,1.877-1.2,3.093,3.093,0,0,0,2.153-.889,3.45,3.45,0,0,1,4.6.45,2.134,2.134,0,0,0,1.086.717,2.658,2.658,0,0,1,2.2,2.087c.109.554.6.624.909.93a3.576,3.576,0,0,1,.487,4.637c-4.153-3.014-11.556-3.082-15.676.75a5.036,5.036,0,0,1,.171-1.425A.931.931,0,0,0,651.208,300.752Z" transform="translate(-609.426 -266.214)" fill="#3b2322"/>
        <path id="Path_31869" data-name="Path 31869" d="M650.223,365.13a5.041,5.041,0,0,1,4.747-4.672c2.859-.007,5.718.009,8.578,0,2.5-.011,4.337,1.971,4.848,4.664l-3.078-.229-.011-.161,2.167-.376a15.063,15.063,0,0,0-5.726.017c-.25.051-.58-.029-.6.436a1.981,1.981,0,0,1-2.442,2,1.63,1.63,0,0,1-1.347-1.658c.1-.689-.164-.674-.55-.767a19.071,19.071,0,0,0-5.452-.476c.268.6,1.041.194,1.4.836Z" transform="translate(-608.695 -316.653)" fill="#f9d7b9"/>
        <path id="Path_31870" data-name="Path 31870" d="M730.493,479.4c-.249-4.454-.432-8.911-.472-13.372a10.863,10.863,0,0,1,2.7,1.194,4.945,4.945,0,0,1,2.8,4.723,21.844,21.844,0,0,0,.04,3.091,2.407,2.407,0,0,1-1.585,2.8A21.729,21.729,0,0,1,730.493,479.4Z" transform="translate(-668.574 -395.87)" fill="#f7bd81"/>
        <path id="Path_31871" data-name="Path 31871" d="M626.39,465.608q-.123,6.712-.246,13.425c-.2-.061-.4-.112-.592-.186-4.389-1.665-4.5-1.836-4.357-6.572A7.082,7.082,0,0,1,626.39,465.608Z" transform="translate(-586.887 -395.559)" fill="#f7bd81"/>
        <path id="Path_31872" data-name="Path 31872" d="M594.689,398.342a32.487,32.487,0,0,1-4.925,1.955c-2.73.714-5.2-.075-7.633-1.155-.564-.25-1.113-.536-1.668-.806a4.7,4.7,0,0,1,.68-.287c1.624-.41,2.509-1.367,2.228-3.475,2.787,2.182,5.475,2.481,8.325.159C591.485,397.215,593.124,397.744,594.689,398.342Z" transform="translate(-556.348 -342.256)" fill="#f7bd81"/>
        <path id="Path_31873" data-name="Path 31873" d="M696.766,381.093c.908.046,2.187-.346,2.768.851a4,4,0,0,1-.382,3.69c-.894,1.661-3.4,2.192-5.28,1.186a3.417,3.417,0,0,1-1.205-4.565,1.794,1.794,0,0,1,1.251-.915A9.48,9.48,0,0,1,696.766,381.093Zm.146,2.47a1.813,1.813,0,0,0-.537-1.334.884.884,0,0,0-1.13-.167c-.55.363.125.472.184.714.106.437.138.938-.366,1.01-1.02.147-.354.576-.172.855a.888.888,0,0,0,1.078.391C696.645,384.792,696.813,384.193,696.911,383.563Z" transform="translate(-640.243 -332.12)" fill="#f9d7b9"/>
        <path id="Path_31874" data-name="Path 31874" d="M674.408,448.823c-4.249,1.136-8.472.625-12.691-.2,1.385-.48,2.379-1.21,2.21-2.92-.07-.71.461-.474.843-.287a6.273,6.273,0,0,0,6.633-.12C670.958,447.908,672.934,448.117,674.408,448.823Z" transform="translate(-617.32 -380.262)" fill="#f7bd81"/>
        <path id="Path_31875" data-name="Path 31875" d="M727.425,396.885c1.364-1.265,1.414-3.009,2.024-4.7.635.718,1.844.711,1.844,2.009,0,.97-.282,1.647-1.344,1.887C729.09,396.272,728.265,396.611,727.425,396.885Z" transform="translate(-666.626 -340.462)" fill="#cde0f2"/>
        <path id="Path_31876" data-name="Path 31876" d="M565.025,345.143a18.608,18.608,0,0,1-.082,3.828c-1.029-.22-1.3-1-1.526-1.8-.236-.829-.433-1.67-.632-2.509a.93.93,0,0,1,.681-1.15,1.563,1.563,0,0,1,1.533.025c.209.144.093.46.048.7-.418-.023-1.047-.6-1.166.22-.084.579-.3,1.535.353,1.754.808.27.208-.748.564-1.017C564.854,345.151,564.948,345.158,565.025,345.143Z" transform="translate(-543.058 -303.797)" fill="#f9d7b9"/>
        <path id="Path_31877" data-name="Path 31877" d="M632.84,393.312c-1.017-.5-2.227-.393-2.45-1.767-.2-1.221.95-1.252,1.517-2.127Z" transform="translate(-593.796 -338.387)" fill="#cde0f2"/>
        <path id="Path_31878" data-name="Path 31878" d="M722.6,308.948c-.606.978-.52,2.225-1.232,3.162a5.346,5.346,0,0,1-.508-2.207c-.084-.484-.276-1.1.345-1.423C721.793,308.178,722.2,308.6,722.6,308.948Z" transform="translate(-661.627 -277.575)" fill="#af866a"/>
        <path id="Path_31879" data-name="Path 31879" d="M726.292,386.406c.822-.056.5-.938.93-1.282.49.437.348.992.216,1.5a14.278,14.278,0,0,1-1.146,3.1Z" transform="translate(-665.776 -335.165)" fill="#f9d7b9"/>
        <path id="Path_31880" data-name="Path 31880" d="M561.725,464.371c0-.663,0-1.325.008-1.988,0-.327-.019-.747.421-.768s.461.4.463.726c0,.787-.012,1.573-.021,2.36Z" transform="translate(-542.287 -392.561)" fill="#01a4a4"/>
        <path id="Path_31881" data-name="Path 31881" d="M641.525,383.485l.66,1.683a7.7,7.7,0,0,1-.088,2.8C641.858,386.483,640.74,385.123,641.525,383.485Z" transform="translate(-601.962 -333.935)" fill="#f9d7b9"/>
        <path id="Path_31882" data-name="Path 31882" d="M568.109,347.24c-.077.016-.171.008-.227.051-.356.269.245,1.287-.564,1.017-.656-.219-.437-1.175-.353-1.754.119-.817.748-.244,1.166-.22Q568.119,346.788,568.109,347.24Z" transform="translate(-546.141 -305.895)" fill="#bc7740"/>
        <path id="Path_31883" data-name="Path 31883" d="M799.971,343.56c.076-.843.151-1.687.23-2.53.022-.237-.014-.556.323-.562.381-.007.475.314.426.613A4.1,4.1,0,0,1,799.971,343.56Z" transform="translate(-721.064 -301.655)" fill="#d5aa8d"/>
        <path id="Path_31884" data-name="Path 31884" d="M641.849,282.563c-.018.426-.2.516-.5.443-.233-.058-.5-.2-.685.028-.333.4-.633.218-.948,0a.233.233,0,0,1-.034-.4,1.96,1.96,0,0,1,1.833-.406C641.749,282.254,641.871,282.414,641.849,282.563Z" transform="translate(-600.715 -257.917)" fill="#f9d7b9"/>
        <path id="Path_31885" data-name="Path 31885" d="M662.113,406.446a3.419,3.419,0,0,1-2.065-.144c.725-.533,1.406-.288,2.049-.288Q662.1,406.23,662.113,406.446Z" transform="translate(-616.068 -350.798)" fill="#4e3330"/>
        <path id="Path_31886" data-name="Path 31886" d="M817.393,319.461l-.288-.02.151-.134A.726.726,0,0,1,817.393,319.461Z" transform="translate(-733.921 -285.777)" fill="#cde0f2"/>
        <path id="Path_31887" data-name="Path 31887" d="M538.753,466.125c-.239.072-.349.007-.269-.256C538.637,465.887,538.786,465.91,538.753,466.125Z" transform="translate(-524.828 -395.755)" fill="#cde0f2"/>
        <path id="Path_31888" data-name="Path 31888" d="M723.343,326.283q.04.174.08.348C723.4,326.515,723.37,326.4,723.343,326.283Z" transform="translate(-663.563 -291.011)" fill="#af866a"/>
        <path id="Path_31889" data-name="Path 31889" d="M587.158,328.328c.529.068,1.058.127,1.583.21.178.028.467-.009.451.267-.013.234-.133.539-.442.482a9.5,9.5,0,0,0-3.544.09.418.418,0,0,1-.516-.4c-.033-.336.281-.349.511-.384C585.849,328.5,586.5,328.418,587.158,328.328Z" transform="translate(-559.519 -292.546)" fill="#4e3330"/>
        <path id="Path_31890" data-name="Path 31890" d="M591.429,337.733c-.094.657-.261,1.2-.913,1.392a.828.828,0,0,1-.873-.315c-.281-.315-.106-.481.183-.658a.519.519,0,0,0,.192-.746c-.193-.32-.667-.612.014-.89a.865.865,0,0,1,1.126.475A3.646,3.646,0,0,1,591.429,337.733Z" transform="translate(-563.13 -298.635)" fill="#4e3330"/>
        <path id="Path_31891" data-name="Path 31891" d="M618.516,328.324c.515.066,1.009.113,1.5.2.209.036.564-.03.508.353a.431.431,0,0,1-.519.409,9.413,9.413,0,0,0-3.452.073.439.439,0,0,1-.529-.392c-.032-.242.21-.325.422-.356C617.138,328.51,617.833,328.417,618.516,328.324Z" transform="translate(-583.028 -292.543)" fill="#4e3330"/>
        <path id="Path_31892" data-name="Path 31892" d="M623.68,337.748c-.1.616-.262,1.138-.861,1.32a.867.867,0,0,1-1.042-.477c-.165-.285-.4-.571.255-.594.447-.016.545-.406.432-.845-.058-.226-.68-.263-.24-.622.352-.288.7-.107,1,.156A1.682,1.682,0,0,1,623.68,337.748Z" transform="translate(-587.214 -298.589)" fill="#4e3330"/>
        <path id="Path_31893" data-name="Path 31893" d="M732.162,363.184q0-1.012,0-2.025a.94.94,0,0,0,.657-.285,1.353,1.353,0,0,1,2.052.215,1.453,1.453,0,0,1,.065,2.014,1.606,1.606,0,0,1-2.009.414C732.673,363.414,732.482,363.152,732.162,363.184Z" transform="translate(-670.181 -316.684)" fill="#af866a"/>
        <path id="Path_31894" data-name="Path 31894" d="M782.583,363.707a1.513,1.513,0,0,1-1.6-1.518,1.582,1.582,0,1,1,3.164-.035A1.521,1.521,0,0,1,782.583,363.707Z" transform="translate(-706.812 -316.734)" fill="#af866a"/>
        <path id="Path_31895" data-name="Path 31895" d="M752.276,377.15c-1.024,2.271-7.887,2.376-9.15-.016A10.368,10.368,0,0,0,752.276,377.15Z" transform="translate(-678.408 -329.169)" fill="#af866a"/>
        <path id="Path_31896" data-name="Path 31896" d="M730.912,332.987a10.9,10.9,0,0,1,5.587-.073c.225.041.527.129.388.478a.626.626,0,0,1-.757.462C734.393,333.552,732.652,333.274,730.912,332.987Z" transform="translate(-669.243 -295.739)" fill="#4e3330"/>
        <path id="Path_31897" data-name="Path 31897" d="M774.067,332.99c-1.739.292-3.478.579-5.215.878a.669.669,0,0,1-.776-.46c-.2-.452.245-.478.471-.515A11.36,11.36,0,0,1,774.067,332.99Z" transform="translate(-697.094 -295.751)" fill="#4e3330"/>
        <path id="Path_31898" data-name="Path 31898" d="M742.062,343.163c-.013.969-.691,1.612-1.439,1.356a1.306,1.306,0,0,1-.57-.544c1.219-.487-.334-1.793.648-2.247C741.367,341.421,742.075,342.215,742.062,343.163Z" transform="translate(-676.101 -302.551)" fill="#4e3330"/>
        <path id="Path_31899" data-name="Path 31899" d="M777.009,343.166a1.49,1.49,0,0,1-.665,1.259.82.82,0,0,1-1.04-.041c-.3-.3-1.113-.7.006-1.052.437-.137.539-.462.345-.888-.095-.209-.624-.32-.185-.66a.737.737,0,0,1,.922.084A1.528,1.528,0,0,1,777.009,343.166Z" transform="translate(-702.129 -302.545)" fill="#4e3330"/>
        <path id="Path_31900" data-name="Path 31900" d="M757.316,367.377c-.853,1.549-2.217,1.542-3.355.021A5.761,5.761,0,0,0,757.316,367.377Z" transform="translate(-686.539 -321.848)" fill="#af866a"/>
        <path id="Path_31901" data-name="Path 31901" d="M649.7,323.345a.931.931,0,0,1,.67,1.313,5.034,5.034,0,0,0-.171,1.425,1.151,1.151,0,0,1-1.011.74Z" transform="translate(-607.919 -288.807)" fill="#4e3330"/>
        <path id="Path_31902" data-name="Path 31902" d="M668.035,276.517a1.48,1.48,0,0,1-.68,1.181.806.806,0,0,1-.923-.07c-.2-.143-.483-.452-.309-.581.629-.466.847-.84.134-1.438-.162-.136.177-.4.418-.472C667.374,274.917,668.048,275.574,668.035,276.517Z" transform="translate(-620.586 -252.599)" fill="#4e3330"/>
        <path id="Path_31903" data-name="Path 31903" d="M695.766,267.733a17.573,17.573,0,0,0-1.77.189c-.38.073-.694.1-.789-.311-.1-.437.341-.41.575-.453a9.188,9.188,0,0,1,3.459-.071c.22.044.559-.026.5.36a.442.442,0,0,1-.527.4C696.8,267.8,696.386,267.78,695.766,267.733Z" transform="translate(-640.938 -246.491)" fill="#4e3330"/>
        <path id="Path_31904" data-name="Path 31904" d="M663.87,267.728c-.463.043-1.04.061-1.6.16-.38.067-.8.216-.89-.286-.085-.461.41-.427.684-.473a8.96,8.96,0,0,1,3.3-.052c.213.043.56-.054.553.306-.007.329-.227.493-.584.454C664.882,267.79,664.431,267.769,663.87,267.728Z" transform="translate(-617.058 -246.486)" fill="#4e3330"/>
        <path id="Path_31905" data-name="Path 31905" d="M701.082,276.346a1.338,1.338,0,0,1-.684,1.225.773.773,0,0,1-.92-.088,2.45,2.45,0,0,1-.4-.6c.945-.371.4-1.379.75-1.84S701.1,275.444,701.082,276.346Z" transform="translate(-645.354 -252.464)" fill="#4e3330"/>
        <path id="Path_31906" data-name="Path 31906" d="M677.468,424.954c.745,0,1.491-.012,2.236,0,.927.018,1.276.513.841,1.324a3.283,3.283,0,0,1-3.219,1.694A3.14,3.14,0,0,1,674.3,426.2c-.27-.75-.247-1.313.807-1.256C675.892,424.989,676.681,424.954,677.468,424.954Zm-2.158.339c-.654-.094-.708.219-.494.722a1.928,1.928,0,0,0,1.6,1.2,1.855,1.855,0,0,0,2.211-.217,1.369,1.369,0,0,0,1.222-.636c.423-.618.541-1.142-.5-1.119Z" transform="translate(-626.654 -365.044)" fill="#4e3330"/>
        <path id="Path_31907" data-name="Path 31907" d="M665.509,386.055a1.565,1.565,0,0,1-.8,1.548.93.93,0,0,1-1.042-.1c-.194-.148-.448-.536-.387-.55,1.535-.371-.3-1.834.751-2.3C664.795,384.312,665.512,385.017,665.509,386.055Z" transform="translate(-618.487 -334.745)" fill="#4e3330"/>
        <path id="Path_31908" data-name="Path 31908" d="M703.655,386.135c-.1.631-.267,1.229-.943,1.469a.889.889,0,0,1-1.078-.391c-.182-.279-.847-.708.173-.855.5-.072.472-.574.366-1.01-.059-.241-.734-.35-.184-.714a.884.884,0,0,1,1.13.166A1.813,1.813,0,0,1,703.655,386.135Z" transform="translate(-646.987 -334.692)" fill="#4e3330"/>
        <path id="Path_31909" data-name="Path 31909" d="M680.989,426.133c1.045-.023.927.5.5,1.119a1.368,1.368,0,0,1-1.222.635c-.742.021-1.519-.314-2.211.217a1.928,1.928,0,0,1-1.6-1.2c-.214-.5-.161-.816.494-.722-.021.313.056.613.395.662a11.811,11.811,0,0,0,3.285.006C681.025,426.8,681.178,426.523,680.989,426.133Z" transform="translate(-628.301 -365.937)" fill="#522d2c"/>
        <path id="Path_31910" data-name="Path 31910" d="M682.8,426.135c.189.391.036.669-.352.722a11.811,11.811,0,0,1-3.285-.006c-.338-.049-.416-.349-.395-.662Z" transform="translate(-630.114 -365.939)" fill="#f9d7b9"/>
        <path id="Path_31911" data-name="Path 31911" d="M683.2,433.125c.692-.532,1.469-.2,2.211-.217A1.854,1.854,0,0,1,683.2,433.125Z" transform="translate(-633.441 -370.957)" fill="#bc7740"/>
      </g>
    </g>
    <path id="Path_31912" data-name="Path 31912" d="M599.68,370.005c-1.024,2.271-7.887,2.376-9.15-.016A10.369,10.369,0,0,0,599.68,370.005Z" transform="translate(-80.048 -138.83)" fill="#af866a"/>
    <path id="Path_31913" data-name="Path 31913" d="M604.72,360.233c-.854,1.549-2.217,1.542-3.355.021A5.765,5.765,0,0,0,604.72,360.233Z" transform="translate(-88.178 -131.509)" fill="#af866a"/>
  </g>
</svg>
