<svg xmlns="http://www.w3.org/2000/svg" xmlns:xlink="http://www.w3.org/1999/xlink" width="134" height="122.87" viewBox="0 0 134 122.87">
  <defs>
    <linearGradient id="linear-gradient" y1="0.5" x2="1" y2="0.5" gradientUnits="objectBoundingBox">
      <stop offset="0" stop-color="#a9a5de"/>
      <stop offset="1" stop-color="#bdb9f2"/>
    </linearGradient>
  </defs>
  <g id="Group_3676" data-name="Group 3676" transform="translate(-92 -91.13)">
    <g id="Group_3525" data-name="Group 3525" transform="translate(115.965 91.13)">
      <rect id="Rectangle_640" data-name="Rectangle 640" width="17.211" height="2.273" transform="translate(0 108.533)" fill="#432c47"/>
      <g id="Group_3523" data-name="Group 3523" transform="translate(0.084 10.834)">
        <path id="Path_5835" data-name="Path 5835" d="M195.3,111.144s-18.3-3.157-19.242-2.217,2.255,9.3,6.015,13.061,11.027,7.388,11.027,7.388l3.8-3.624s-14.434-11.636-12.865-11.636,12.274-.647,12.274-.647Z" transform="translate(-114.812 -101.389)" fill="#f9c38a"/>
        <g id="Group_3517" data-name="Group 3517" transform="translate(73.365)">
          <path id="Path_5836" data-name="Path 5836" d="M202.8,102.019c-2.123,1.888-1.418,6.242-2.088,11.171-1.468,10.808,9.792,11.052,9.792,11.052l.726-2.183s-3.9-1.557-3.328-3.273a12.825,12.825,0,0,0,6.212,1.634c3.014-.209,3.87-3.822,3.87-3.822s-3.741,2.393-6.366.913a3.872,3.872,0,0,1-2.258-3.782s1.92,2.977,4.206,3.132a3.292,3.292,0,0,0,3.14-1.294s-4.425-.049-4.888-2.561a39.782,39.782,0,0,0-3.33-8.921C207.158,101.421,203.935,101.014,202.8,102.019Z" transform="translate(-188.177 -101.389)" fill="#4c1e48"/>
          <path id="Path_5837" data-name="Path 5837" d="M199.99,115.024s1.407,11.287-.688,14.642a4.552,4.552,0,0,1-4.565,2,1.913,1.913,0,0,1-1.634-2.292c.526-2.9,1.4-8.453.871-10.936C193.242,115,199.99,115.024,199.99,115.024Z" transform="translate(-188.177 -101.389)" fill="#f9c38a"/>
          <path id="Path_5838" data-name="Path 5838" d="M199.99,115.024s.128,1.029.25,2.557A29.324,29.324,0,0,1,196,124.1a21.074,21.074,0,0,1-2.435,2.5c.43-2.867.8-6.343.41-8.165C193.242,115,199.99,115.024,199.99,115.024Z" transform="translate(-188.177 -101.389)" fill="#423724" opacity="0.11"/>
          <g id="Group_3516" data-name="Group 3516" transform="translate(0 2.027)">
            <path id="Path_5839" data-name="Path 5839" d="M202.161,108.074a8.039,8.039,0,0,0-3.442-3.852c-3.8-2.3-8.515.575-9.006,5.386a5.326,5.326,0,0,0,.011,1.282,4.576,4.576,0,0,1-1.547,4.1,1.037,1.037,0,0,0,.735.777c.624.161.56.472.364.883s-.409.49-.246.8.785.415.785.415-.431.639-.256.973.428.3.428.3.562.261.454.675a1.666,1.666,0,0,0,.365,1.21c.3.466,2.161,2.663,6.791-1.729S202.931,110.693,202.161,108.074Z" transform="translate(-188.177 -103.416)" fill="#f9c38a"/>
          </g>
          <path id="Path_5840" data-name="Path 5840" d="M189.85,110.325a3.289,3.289,0,0,1,3.171,1.656,5.048,5.048,0,0,0-2.96-1.249Z" transform="translate(-188.177 -101.389)" fill="#422549"/>
          <path id="Path_5841" data-name="Path 5841" d="M190.422,112.06s-.062.664.211.863a.5.5,0,0,0,.489.1Z" transform="translate(-188.177 -101.389)" fill="#18287d"/>
          <path id="Path_5842" data-name="Path 5842" d="M192.042,112.131a9.622,9.622,0,0,0-2.01.058,1.6,1.6,0,0,1-1.109-.055,8.192,8.192,0,0,0,1.617-.2A2.469,2.469,0,0,1,192.042,112.131Z" transform="translate(-188.177 -101.389)" fill="#0f1d5b"/>
          <path id="Path_5843" data-name="Path 5843" d="M191.257,117.215a2.631,2.631,0,0,1-1.442.65,2.655,2.655,0,0,0,1.566-.518.1.1,0,0,0,.023-.129.088.088,0,0,0-.126-.021l-.007.005Z" transform="translate(-188.177 -101.389)" fill="#0f1d5b"/>
          <path id="Path_5844" data-name="Path 5844" d="M198.2,101.4c4.732.263,5.554,4.444,6.571,8.359s-4.382,7.216-4.638,6.64c0,0-1.687-4.726-3.453-4.758s-6.541-3.9-6.541-3.9c.047-.1.443-1.353.683-2.065.182-.543-.031-.954.421-1.43A9.214,9.214,0,0,1,198.2,101.4Z" transform="translate(-188.177 -101.389)" fill="#5c2c55"/>
          <path id="Path_5845" data-name="Path 5845" d="M198.6,109.192a48.665,48.665,0,0,1,4.019,5.537c.23.351-.058.774-.38,1.043-1.219,1.019-1.983.9-2.1.628,0,0-1.8-4.042-3.24-5.066a41.207,41.207,0,0,0-6.879-3.228c-.468-.156.873-4.059,1.229-3.862C192.9,105.163,196.459,107.018,198.6,109.192Z" transform="translate(-188.177 -101.389)" fill="#2adcdf"/>
          <path id="Path_5846" data-name="Path 5846" d="M196.684,111.642s-.839-1.341,1.007-1.877,1.928,2.578.909,3.5S196.684,111.642,196.684,111.642Z" transform="translate(-188.177 -101.389)" fill="#fc7575"/>
          <path id="Path_5847" data-name="Path 5847" d="M197.277,111.814s-.563-1.507.269-1.425,1.443,1.7.841,2.057S197.277,111.814,197.277,111.814Z" transform="translate(-188.177 -101.389)" fill="#fd5e5a"/>
        </g>
        <path id="Path_5848" data-name="Path 5848" d="M124.451,119.492a3.145,3.145,0,0,1,2.5-4.046c3.443-.775,29.023,21.025,32.071,23.1s8.313,13.745.118,16.672c-3.152,1.126-12.232-.152-19.536-11.59C136.915,139.42,124.451,119.492,124.451,119.492Z" transform="translate(-114.812 -101.389)" fill="#42210b"/>
        <path id="Path_5849" data-name="Path 5849" d="M125.528,117.6l-1.077,1.89-1.291,42.424s-4.756,1.7-3.846,2.613,4.536-.594,5.681-.594,1.839-2.986,1.839-2.986l2.494-1.289-1.664-3.088,5.768-31.472Z" transform="translate(-114.812 -101.389)" fill="#42210b"/>
        <g id="Group_3518" data-name="Group 3518" transform="translate(7.051 53.828)">
          <rect id="Rectangle_641" data-name="Rectangle 641" width="2.593" height="43.791" fill="#432c47"/>
        </g>
        <g id="Group_3519" data-name="Group 3519" transform="translate(8.347 74.285)">
          <rect id="Rectangle_642" data-name="Rectangle 642" width="59.998" height="2.593" fill="#432c47"/>
        </g>
        <g id="Group_3520" data-name="Group 3520" transform="translate(66.914 71.419)">
          <path id="Path_5850" data-name="Path 5850" d="M193.668,200.417H181.726V172.808l11.386,2.771Zm-9.125-2.817h6.308V175.624h-6.308Z" transform="translate(-181.726 -172.808)" fill="#432c47"/>
        </g>
        <rect id="Rectangle_643" data-name="Rectangle 643" width="27.633" height="2.927" transform="translate(6.712 49.438)" fill="#432c47"/>
        <path id="Path_5851" data-name="Path 5851" d="M144.048,148.193l57.969,29.825a3.445,3.445,0,0,1-3.552,5.9c-.046-.027-.1-.063-.145-.092l-55.761-33.3a1.387,1.387,0,0,1,1.489-2.34Z" transform="translate(-114.812 -101.389)" fill="#ef7077"/>
        <path id="Path_5852" data-name="Path 5852" d="M152.256,142.821c-2.582,2.582-2.86,10.637,2.133,11.842l13.24-3.836c-2.139-4.593-2.415-8.021-4.115-12.782C159.97,140.359,154.023,141.054,152.256,142.821Z" transform="translate(-114.812 -101.389)" fill="#4f3554"/>
        <path id="Path_5853" data-name="Path 5853" d="M162.88,145.146c-.719-3.133-19.576-16.615-29.907-23.157s-17.1-9.3-17.956-5.588c-1.662,7.185,7.282,32.962,9.434,40.193s1.98,9.912,1.464,10.429-3.761,3.088-3.761,3.088l5.913.119c1.98-.947,1.777-3.814,2.927-6.491l1.2-2.79-2.4-2.289s-1.982-18.015-3.473-21.8-4.968-12.889-2.972-10.893c6.62,6.619,16.347,19.043,16.347,19.043s3.448,5.771,6.977,7.665S166.175,159.492,162.88,145.146Z" transform="translate(-114.812 -101.389)" fill="#4f3554"/>
        <path id="Path_5854" data-name="Path 5854" d="M158.423,140.252c-7.406-5.872-24.016-17.336-32.07-21.874-3.384-1.883-10.337-5.686-11.336-1.977,1.49-7.49,27.161,11.131,33.312,15.7C151.8,134.683,155.217,137.349,158.423,140.252Z" transform="translate(-114.812 -101.389)" fill="#958698"/>
        <path id="Path_5855" data-name="Path 5855" d="M127.922,155.514a5.767,5.767,0,1,1-5.768-5.768A5.767,5.767,0,0,1,127.922,155.514Z" transform="translate(-114.812 -101.389)" fill="url(#linear-gradient)"/>
        <circle id="Ellipse_574" data-name="Ellipse 574" cx="5.768" cy="5.768" r="5.768" transform="translate(7.084 24.576)" fill="url(#linear-gradient)"/>
        <path id="Path_5856" data-name="Path 5856" d="M130.505,131.732a2.841,2.841,0,1,1-2.841-2.841A2.841,2.841,0,0,1,130.505,131.732Z" transform="translate(-114.812 -101.389)" fill="#432c47"/>
        <path id="Path_5857" data-name="Path 5857" d="M125,155.513a2.84,2.84,0,1,1-2.841-2.84A2.841,2.841,0,0,1,125,155.513Z" transform="translate(-114.812 -101.389)" fill="#432c47"/>
        <path id="Path_5858" data-name="Path 5858" d="M181.685,131.043c-5.876,5.876-10.7,4.742-15.628,4.742-1.557,0-3.13.327-4.87-.306a60.9,60.9,0,0,0,4.533,19.26c.521-.122,15.894-7.1,22.98-11.943,7.2-4.929,11.128-9.991,11.128-14.351S187.562,125.166,181.685,131.043Z" transform="translate(-114.812 -101.389)" fill="#29c1c1"/>
        <path id="Path_5859" data-name="Path 5859" d="M207.125,115.873a.2.2,0,0,0-.036-.359c-1.311-.433-5.986-1.907-6.728-1.165-.864.865,3.16,2.189,3.535,2.189s.881-.53,1.45-.53A2.844,2.844,0,0,0,207.125,115.873Z" transform="translate(-114.812 -101.389)" fill="#fd5e5a"/>
        <path id="Path_5860" data-name="Path 5860" d="M201.953,114.633s5.873,1.807,6.874,2.546c.581.429.406.755-.361.536-.826-.237-4.176-1.79-4.176-1.79Z" transform="translate(-114.812 -101.389)" fill="#fd5e5a"/>
        <path id="Path_5861" data-name="Path 5861" d="M165.824,124.092s-2.9-6.227,33.871-9.948c3.34-.338,7.112,2.5,8.335,3.721s.937,1.8-.169.691a6.386,6.386,0,0,0-3.237-1.352c0,.318,3.881,1.922,3.881,2.743s-4.64-2.082-4.64-2.082,3.686,2.457,2.991,2.457-3.39-1.971-4.154-2.144c-9.138-2.074-23.544,3.512-22.028,5.029s14.6,4.819,15.356,8.468-.3,6.817-6.215,5.679S169.119,127.387,165.824,124.092Z" transform="translate(-114.812 -101.389)" fill="#ffd199"/>
        <g id="Group_3521" data-name="Group 3521" transform="translate(73.35 29.349)">
          <path id="Path_5862" data-name="Path 5862" d="M188.176,152.671h0a.168.168,0,0,1,.088-.219c11.3-4.9,15.935-19.883,16.43-21.593a.168.168,0,0,1,.205-.115h0a.168.168,0,0,1,.119.209c-.509,1.753-5.192,16.852-16.618,21.807A.17.17,0,0,1,188.176,152.671Z" transform="translate(-188.163 -130.738)" fill="#57ceb7"/>
        </g>
        <g id="Group_3522" data-name="Group 3522" transform="translate(85.722 26.06)">
          <path id="Path_5863" data-name="Path 5863" d="M200.583,147.995h0a.167.167,0,0,1,0-.236c7.2-7.305,8.394-18.658,8.522-20.156a.168.168,0,0,1,.179-.154h0a.168.168,0,0,1,.157.182c-.132,1.536-1.348,12.982-8.618,20.363A.169.169,0,0,1,200.583,147.995Z" transform="translate(-200.534 -127.449)" fill="#57ceb7"/>
        </g>
      </g>
      <g id="Group_3524" data-name="Group 3524" transform="translate(81.576)">
        <path id="Path_5864" data-name="Path 5864" d="M209.361,99.787c-6.991-6.953-12.014-8.638-12.935-8.9a.167.167,0,0,1-.117-.2h0a.168.168,0,0,1,.21-.125c.98.283,6.068,2.013,13.079,8.986a.17.17,0,0,1,0,.24h0A.168.168,0,0,1,209.361,99.787Z" transform="translate(-196.305 -90.555)" fill="#57ceb7"/>
      </g>
    </g>
    <ellipse id="Ellipse_596" data-name="Ellipse 596" cx="67" cy="10" rx="67" ry="10" transform="translate(92 194)" opacity="0.111"/>
  </g>
</svg>
