<svg xmlns="http://www.w3.org/2000/svg" width="100.639" height="100.652" viewBox="0 0 100.639 100.652">
  <g id="sk0FVE.tif" transform="translate(-51.517 -159.949)">
    <g id="Group_46900" data-name="Group 46900" transform="translate(51.517 159.949)">
      <path id="Path_31914" data-name="Path 31914" d="M392.675,170.253a5.1,5.1,0,0,0,5.179-5.036,5.19,5.19,0,0,0-5.12-5.268,5.243,5.243,0,0,0-5.2,5.208A5.154,5.154,0,0,0,392.675,170.253Zm5.183,9.036a2.614,2.614,0,0,0,2.6-2.526,2.591,2.591,0,0,0-5.181,0A2.592,2.592,0,0,0,397.858,179.289Zm-7.721,67a2.491,2.491,0,0,0,2.569-2.5,2.57,2.57,0,0,0-2.646-2.575,2.6,2.6,0,0,0-2.518,2.59A2.562,2.562,0,0,0,390.137,246.285Zm-3.917-83.742a1.169,1.169,0,0,0-1.255-1.26,1.271,1.271,0,1,0,1.255,1.26Z" transform="translate(-299.815 -159.949)" fill="#fefefd"/>
      <path id="Path_31915" data-name="Path 31915" d="M51.517,409a6.714,6.714,0,0,1,4.082-3.993c3.472-.354,5.553,1.5,6.11,3.775.616,2.524-.377,4.466-2.382,5.976-2.589.956-4.92.737-6.723-1.577a14.57,14.57,0,0,1-1.087-1.916Z" transform="translate(-51.517 -343.096)" fill="#facd5a"/>
      <path id="Path_31916" data-name="Path 31916" d="M51.517,243.658c.679-1.152,1.479-2.142,3.013-1.931a2.563,2.563,0,0,1,.488,4.973,2.541,2.541,0,0,1-2.97-.97c-.186-.265-.354-.542-.53-.813Z" transform="translate(-51.517 -221.055)" fill="#ed4358"/>
      <path id="Path_31917" data-name="Path 31917" d="M114.977,543.062c-.678-.633-1.587-1.057-1.762-2.129a2.586,2.586,0,0,1,1.835-3,2.546,2.546,0,0,1,3.059,1.505,2.583,2.583,0,0,1-1.152,3.229c-.237.143-.611.035-.721.4Z" transform="translate(-97.606 -442.409)" fill="#ed4056"/>
      <path id="Path_31918" data-name="Path 31918" d="M67.255,239.3c2.005-1.51,3-3.452,2.382-5.976-.556-2.277-2.637-4.13-6.11-3.775a47.62,47.62,0,0,1-1.259-15.574,45.336,45.336,0,0,1,3.865-15.236A47.921,47.921,0,0,1,92.7,173.4a46.687,46.687,0,0,1,21.2-2.986,45.973,45.973,0,0,1,24.811,9.607,47.68,47.68,0,0,1,14.5,57.6,47.26,47.26,0,0,1-21.333,22.595,45.5,45.5,0,0,1-16.7,5.078,47.521,47.521,0,0,1-47.051-24.2A5.409,5.409,0,0,1,67.255,239.3ZM94.143,219.17c0,2.72.007,4.9,0,7.083a5.362,5.362,0,0,0,2.5,4.667c1.14.784,2.285,1.562,3.457,2.294a1.355,1.355,0,0,1,.691,1.215c.219,3.6.476,7.2.717,10.8.276,4.143.524,8.287.83,12.427.167,2.261,1.134,3.118,3.4,3.127,3.02.012,6.041.021,9.061-.006a2.791,2.791,0,0,0,3.04-2.825c.444-6.569,1.017-13.134,1.231-19.711.1-3.179.814-5.546,3.924-6.987,2.3-1.064,3.162-3.2,3.129-5.727-.047-3.649-.106-7.3.01-10.948A16.273,16.273,0,0,0,114.8,198.391c-.409-.127-.92-.082-.96-.771-.039-.668.376-.842.835-1.074a10.426,10.426,0,0,0,5.015-5.412c.495-1.164.376-2.607,1.566-3.47.115-.084.095-.392.092-.6-.024-1.76.036-3.518-.152-5.279a6.664,6.664,0,0,0-5.035-6.2,2.679,2.679,0,0,1-2-1.667c-.143-.381-.314-.759-.868-.754a21.073,21.073,0,0,0-6.6.6c-3,.994-5.494,2.694-6.669,5.685-1.187,3.022-2.023,6.179-.159,9.32a2.784,2.784,0,0,1,.144.735,10.392,10.392,0,0,0,5.231,6.9c.476.265,1.121.31,1.09,1.155-.035.919-.777.768-1.251.944a15.948,15.948,0,0,0-10.69,12.3C93.751,213.762,94.386,216.745,94.143,219.17ZM65.99,222.458a3.236,3.236,0,0,0,3.132,3.258,3.257,3.257,0,1,0,.127-6.513A3.231,3.231,0,0,0,65.99,222.458Zm6.375,16.109a1.269,1.269,0,0,0-1.256,1.27,1.3,1.3,0,0,0,2.6-.055A1.271,1.271,0,0,0,72.366,238.567Zm77.46-41.31c-.217-.7-.6-1.224-1.392-1.217a1.251,1.251,0,1,0,.071,2.5A1.4,1.4,0,0,0,149.826,197.257Z" transform="translate(-59.445 -167.635)" fill="#fbdfa1"/>
      <path id="Path_31919" data-name="Path 31919" d="M404.038,170.253a5.155,5.155,0,0,1-5.141-5.1,5.243,5.243,0,0,1,5.2-5.208,5.19,5.19,0,0,1,5.12,5.268A5.1,5.1,0,0,1,404.038,170.253Z" transform="translate(-311.178 -159.949)" fill="#f0bc1b"/>
      <path id="Path_31920" data-name="Path 31920" d="M432.126,221.448a2.591,2.591,0,0,1-2.586-2.528,2.591,2.591,0,0,1,5.181,0A2.614,2.614,0,0,1,432.126,221.448Z" transform="translate(-334.083 -202.108)" fill="#ed4358"/>
      <path id="Path_31921" data-name="Path 31921" d="M401.521,486.824a2.562,2.562,0,0,1-2.6-2.487,2.6,2.6,0,0,1,2.518-2.59,2.57,2.57,0,0,1,2.646,2.575A2.491,2.491,0,0,1,401.521,486.824Z" transform="translate(-311.199 -400.487)" fill="#facd5c"/>
      <path id="Path_31922" data-name="Path 31922" d="M386.221,166.493a1.262,1.262,0,1,1-1.255-1.26A1.169,1.169,0,0,1,386.221,166.493Z" transform="translate(-299.815 -163.898)" fill="#f0bc1b"/>
      <path id="Path_31923" data-name="Path 31923" d="M188.779,227.857c.243-2.425-.392-5.408.242-8.368a15.948,15.948,0,0,1,10.69-12.3c.474-.176,1.216-.025,1.251-.944.032-.845-.613-.889-1.09-1.155a10.391,10.391,0,0,1-5.231-6.9,2.786,2.786,0,0,0-.144-.735c-1.865-3.14-1.028-6.3.159-9.32,1.174-2.991,3.668-4.691,6.669-5.685a21.071,21.071,0,0,1,6.6-.6c.554,0,.725.373.868.754a2.679,2.679,0,0,0,2,1.667,6.664,6.664,0,0,1,5.035,6.2c.188,1.761.128,3.519.152,5.279,0,.2.023.513-.092.6-1.19.863-1.071,2.306-1.566,3.47a10.426,10.426,0,0,1-5.015,5.412c-.459.232-.874.406-.835,1.074.04.689.552.645.96.771a16.273,16.273,0,0,1,11.331,16.182c-.116,3.646-.057,7.3-.01,10.948.033,2.531-.834,4.663-3.129,5.727-3.11,1.441-3.821,3.809-3.924,6.987-.214,6.577-.786,13.142-1.231,19.711a2.791,2.791,0,0,1-3.04,2.825c-3.02.028-6.04.018-9.061.006-2.265-.009-3.232-.867-3.4-3.127-.306-4.14-.554-8.285-.83-12.427-.24-3.6-.5-7.2-.717-10.8a1.355,1.355,0,0,0-.691-1.215c-1.173-.732-2.318-1.51-3.457-2.294a5.362,5.362,0,0,1-2.5-4.668C188.785,232.758,188.779,230.576,188.779,227.857Zm15.94,10.578c2.475,0,4.952-.039,7.426.02.9.021,1.127-.274,1.116-1.14-.044-3.524,0-7.049-.035-10.574a1.729,1.729,0,0,1,.906-1.745c1.189-.7,2.257-1.62,3.473-2.263a2.084,2.084,0,0,0,1.141-2.572,14.466,14.466,0,0,0-5.835-9.363c-.6-.435-.875-.5-1.26.285a7.2,7.2,0,0,1-5.124,3.9c-.33.077-.889.266-.988-.153-.116-.493.461-.454.8-.519a6.49,6.49,0,0,0,4.092-2.493c1.307-1.718,1.216-1.923-.746-2.727a1.356,1.356,0,0,0-2.015.6c-1.317,2-4.9,1.822-6.145-.211-.326-.535-.535-.814-1.25-.564-2.573.9-2.585.865-1.156,3.154.044.071.109.129.153.2.115.185.211.4.008.562-.222.177-.395-.013-.514-.176a6.176,6.176,0,0,1-.906-1.353c-.386-1.037-.845-.83-1.547-.3a14.353,14.353,0,0,0-5.7,9.974,1.242,1.242,0,0,0,.664,1.348c1.412.9,2.774,1.884,4.2,2.756a1.656,1.656,0,0,1,.857,1.643c-.032,3.441.026,6.882-.038,10.322-.02,1.065.2,1.475,1.368,1.426C200.017,238.367,202.369,238.435,204.719,238.435Zm.094,1.791c-2.138,0-4.278.06-6.412-.026-1.064-.043-1.362.267-1.28,1.321.306,3.926.527,7.858.794,11.786.3,4.346.622,8.691.9,13.038.062.945.476,1.357,1.419,1.326a27.251,27.251,0,0,1,3.016.011c.915.072,1.223-.178,1.2-1.155-.069-3.017-.027-6.036-.023-9.054,0-.5-.082-1.131.642-1.131s.631.643.632,1.134c.006,2.305,0,4.611,0,6.916,0,3.319,0,3.281,3.323,3.292,1.2,0,1.634-.492,1.685-1.635.1-2.259.287-4.515.433-6.772.386-5.979.755-11.958,1.167-17.935.061-.888-.2-1.159-1.094-1.135C209.09,240.265,206.951,240.226,204.813,240.226Zm7.288-43.819h-.035a10.448,10.448,0,0,1,.017-1.882c.449-2.41-1.476-3.555-2.645-5.1-.3-.4-.708-.143-1.042-.038-3.389,1.069-6.768,2.172-10.163,3.222a1,1,0,0,0-.842,1.146c.038,1.885.062,3.773-.024,5.655a2.24,2.24,0,0,0,.427,1.5,8.529,8.529,0,0,0,13.935-.09,1.752,1.752,0,0,0,.391-1.146C212.06,198.587,212.1,197.5,212.1,196.407ZM194.38,239.345c0-4.167,0-8.256,0-12.346a.711.711,0,0,0-.351-.625l-3.453-2.285c0,3.328.167,6.436-.048,9.518C190.32,236.584,191.786,238.19,194.38,239.345Zm20.66.069c3.358-1.755,3.84-2.529,3.84-5.962,0-1.93.022-3.861-.009-5.79-.017-1.08.433-2.815-.185-3.086-.9-.392-1.831.983-2.8,1.52-.421.234-.864.454-.86,1.108C215.053,231.223,215.04,235.243,215.04,239.414Zm-10.227-33.159v.026c-.459-.021-.917-.044-1.375-.062-.289-.011-.645-.074-.666.35-.046.92-.145,1.932.834,2.439a2.119,2.119,0,0,0,2.647-.393,2.084,2.084,0,0,0,.38-2.126c-.186-.6-.869-.136-1.319-.23A2.494,2.494,0,0,0,204.813,206.255Z" transform="translate(-154.081 -176.322)" fill="#4b2f2c"/>
      <path id="Path_31924" data-name="Path 31924" d="M77.437,367.418a3.231,3.231,0,0,1,3.259-3.255,3.257,3.257,0,1,1-.127,6.513A3.236,3.236,0,0,1,77.437,367.418Z" transform="translate(-70.892 -312.596)" fill="#fefdfc"/>
      <path id="Path_31925" data-name="Path 31925" d="M98.966,440.85a1.271,1.271,0,0,1,1.348,1.216,1.3,1.3,0,0,1-2.6.055A1.269,1.269,0,0,1,98.966,440.85Z" transform="translate(-86.045 -369.918)" fill="#f0bc1b"/>
      <path id="Path_31926" data-name="Path 31926" d="M401.622,273.654a1.4,1.4,0,0,1-1.321,1.283,1.251,1.251,0,1,1-.071-2.5C401.023,272.43,401.405,272.949,401.622,273.654Z" transform="translate(-311.242 -244.032)" fill="#fefdfc"/>
      <path id="Path_31927" data-name="Path 31927" d="M210.25,318.259c-2.35,0-4.7-.068-7.048.029-1.163.048-1.387-.361-1.368-1.426.064-3.44.006-6.881.038-10.322a1.656,1.656,0,0,0-.857-1.643c-1.43-.872-2.792-1.854-4.2-2.756a1.242,1.242,0,0,1-.664-1.348,14.353,14.353,0,0,1,5.7-9.974c.7-.527,1.161-.735,1.547.3a6.173,6.173,0,0,0,.906,1.353c.119.163.291.353.514.176.2-.162.107-.377-.008-.562-.044-.071-.109-.129-.153-.2-1.428-2.289-1.417-2.256,1.156-3.154.716-.25.924.029,1.25.564,1.241,2.034,4.828,2.209,6.145.211a1.356,1.356,0,0,1,2.015-.6c1.963.8,2.053,1.008.746,2.727a6.49,6.49,0,0,1-4.092,2.493c-.343.065-.92.026-.8.519.1.419.658.23.988.153a7.2,7.2,0,0,0,5.124-3.9c.385-.787.664-.72,1.26-.285a14.466,14.466,0,0,1,5.835,9.363,2.084,2.084,0,0,1-1.141,2.572c-1.216.644-2.285,1.561-3.473,2.263a1.729,1.729,0,0,0-.906,1.745c.039,3.524-.009,7.05.035,10.574.011.866-.216,1.162-1.116,1.14C215.2,318.22,212.725,318.259,210.25,318.259Zm-1.532-23.388c.261-.049.594.1.643-.251.044-.318-.274-.431-.493-.422-.816.033-1.5-.673-2.34-.4-.026.009-.03.285.031.327A5.419,5.419,0,0,0,208.718,294.871Z" transform="translate(-159.612 -256.145)" fill="#66b98b"/>
      <path id="Path_31928" data-name="Path 31928" d="M229.617,412.931c2.138,0,4.276.039,6.413-.019.889-.024,1.155.247,1.094,1.135-.412,5.977-.781,11.957-1.167,17.935-.146,2.258-.332,4.513-.433,6.772-.051,1.142-.483,1.639-1.685,1.635-3.323-.011-3.323.027-3.323-3.292,0-2.305,0-4.611,0-6.916,0-.49.1-1.134-.632-1.133s-.642.635-.642,1.131c0,3.018-.046,6.037.023,9.054.022.977-.286,1.227-1.2,1.155a27.257,27.257,0,0,0-3.016-.011c-.944.031-1.358-.381-1.419-1.326-.283-4.347-.609-8.691-.9-13.038-.268-3.929-.488-7.861-.794-11.786-.082-1.054.215-1.364,1.28-1.321C225.339,412.992,227.479,412.931,229.617,412.931Zm-.378,9.591c0,.959,0,1.918,0,2.878,0,.451.073.881.619.908.567.028.654-.4.654-.853q0-2.94,0-5.88c0-.459-.109-.878-.666-.848s-.607.474-.606.918C229.24,420.6,229.238,421.563,229.239,422.523Z" transform="translate(-178.884 -349.027)" fill="#bcb8c9"/>
      <path id="Path_31929" data-name="Path 31929" d="M237.658,218.173c0,1.089-.041,2.18.019,3.265a1.752,1.752,0,0,1-.391,1.146,8.529,8.529,0,0,1-13.935.09,2.24,2.24,0,0,1-.427-1.5c.087-1.882.063-3.77.024-5.655a1,1,0,0,1,.842-1.146c3.4-1.05,6.774-2.153,10.163-3.222.334-.106.739-.362,1.042.038,1.168,1.547,3.094,2.692,2.645,5.1a10.446,10.446,0,0,0-.017,1.882Z" transform="translate(-179.638 -198.088)" fill="#f8bd81"/>
      <path id="Path_31930" data-name="Path 31930" d="M199.648,364.369c-2.595-1.154-4.06-2.76-3.852-5.738.215-3.081.048-6.19.048-9.518L199.3,351.4a.711.711,0,0,1,.352.625C199.648,356.113,199.648,360.2,199.648,364.369Z" transform="translate(-159.349 -301.346)" fill="#f8be81"/>
      <path id="Path_31931" data-name="Path 31931" d="M292.888,365.673c0-4.17.012-8.19-.012-12.21,0-.654.439-.874.86-1.108.968-.537,1.9-1.912,2.8-1.52.618.27.168,2.006.185,3.086.031,1.93.009,3.86.009,5.79C296.729,363.144,296.246,363.918,292.888,365.673Z" transform="translate(-231.929 -302.581)" fill="#f6bb80"/>
      <path id="Path_31932" data-name="Path 31932" d="M246.3,278.253a2.494,2.494,0,0,1,.5.005c.45.094,1.133-.372,1.319.23a2.084,2.084,0,0,1-.38,2.126,2.119,2.119,0,0,1-2.647.393c-.978-.507-.88-1.519-.834-2.439.021-.424.377-.361.666-.35.459.018.917.041,1.375.062Z" transform="translate(-195.567 -248.32)" fill="#f3b97e"/>
      <path id="Path_31933" data-name="Path 31933" d="M239.449,309.953a5.42,5.42,0,0,1-2.158-.742c-.061-.042-.057-.318-.031-.327.842-.278,1.523.428,2.34.4.219-.009.538.1.493.422C240.042,310.055,239.71,309.9,239.449,309.953Z" transform="translate(-190.343 -271.227)" fill="#4b2f2c"/>
      <path id="Path_31934" data-name="Path 31934" d="M250.924,439.761c0-.959,0-1.919,0-2.878,0-.444.054-.889.606-.918s.666.389.666.848q0,2.94,0,5.88c0,.455-.087.882-.654.854-.546-.027-.621-.457-.619-.908C250.927,441.679,250.924,440.72,250.924,439.761Z" transform="translate(-200.57 -366.265)" fill="#482c2a"/>
    </g>
  </g>
</svg>
