<svg xmlns="http://www.w3.org/2000/svg" width="177.678" height="39.209" viewBox="0 0 177.678 39.209">
  <g id="Group_52112" data-name="Group 52112" transform="translate(-168.548 -282.228)">
    <g id="Group_4004" data-name="Group 4004" transform="translate(168.035 270.019)">
      <g id="koachtalk-2" transform="translate(0 0)" style="mix-blend-mode: normal;isolation: isolate">
        <path id="Path_40505" data-name="Path 40505" d="M4.533-3.738V-26.146H.795v-3.738h12.1v3.738H9.045V-3.738h3.438V0H.795V-3.738ZM9.2-15.77l9.582-10.377H15.361v-3.738H27.07v3.738h-3.18L14.7-15.77,24.148-3.738h3.2V0H15.211V-3.738h3.223Zm19.1,5.371a10.519,10.519,0,0,1,3.18-7.9,10.724,10.724,0,0,1,7.756-3.083,10.847,10.847,0,0,1,7.713,3.04A10.413,10.413,0,0,1,50.166-10.4a10.465,10.465,0,0,1-3.212,7.949A10.816,10.816,0,0,1,39.23.6a10.674,10.674,0,0,1-7.788-3.094A10.61,10.61,0,0,1,28.295-10.4Zm4.318,0A6.9,6.9,0,0,0,34.536-5.36,6.316,6.316,0,0,0,39.23-3.395a6.263,6.263,0,0,0,4.716-1.987,6.966,6.966,0,0,0,1.9-5.017,6.892,6.892,0,0,0-1.934-5.027A6.31,6.31,0,0,0,39.23-17.4a6.187,6.187,0,0,0-4.748,2.02A7.063,7.063,0,0,0,32.613-10.4ZM74.637-3.631V0H67.5V-2.535A9.289,9.289,0,0,1,60.887.344,7.214,7.214,0,0,1,55.956-1.5,6.02,6.02,0,0,1,53.861-6.23a6.08,6.08,0,0,1,2.224-4.812,7.944,7.944,0,0,1,5.36-1.912,10.279,10.279,0,0,1,5.65,1.762v-2.062a7.753,7.753,0,0,0-.3-2.449,3.133,3.133,0,0,0-1.407-1.547,5.411,5.411,0,0,0-2.89-.687,4.715,4.715,0,0,0-4.447,2.449l-3.91-1.031q2.6-4.855,8.98-4.855a11.645,11.645,0,0,1,4.05.634,5.938,5.938,0,0,1,2.546,1.633,5.364,5.364,0,0,1,1.128,2.159,16.8,16.8,0,0,1,.29,3.7v9.625ZM67.1-7.734A8.654,8.654,0,0,0,61.746-9.8a4.172,4.172,0,0,0-2.836.988,3.228,3.228,0,0,0-1.139,2.557,3.308,3.308,0,0,0,1,2.449,3.7,3.7,0,0,0,2.718.988A8.094,8.094,0,0,0,67.1-5.307ZM96.465-20.8v7.863H92.813a4.921,4.921,0,0,0-1.837-3.459,5.755,5.755,0,0,0-3.62-1.2,5.685,5.685,0,0,0-4.469,1.944,7.42,7.42,0,0,0-1.719,5.1A8.59,8.59,0,0,0,82.8-5.36a5.483,5.483,0,0,0,4.727,2.245A6.478,6.478,0,0,0,93.758-7.2l3.373,1.59Q94.338.6,87.355.6a9.619,9.619,0,0,1-7.777-3.373,11.732,11.732,0,0,1-2.836-7.777,10.466,10.466,0,0,1,3.094-7.767,9.849,9.849,0,0,1,7.133-3.062,8.678,8.678,0,0,1,5.844,2.041V-20.8Zm6.316,17.166V-26.254h-3.76v-3.631h7.842v11.473q3.674-2.965,6.982-2.965a6.153,6.153,0,0,1,3.395.859,4.321,4.321,0,0,1,1.815,2.267,13.362,13.362,0,0,1,.483,4.114V-3.631h3.545V0h-7.627V-12.719a20.913,20.913,0,0,0-.15-3.158,2.1,2.1,0,0,0-.827-1.311,2.565,2.565,0,0,0-1.6-.516q-2.363,0-6.016,2.686V-3.631h3.609V0H99.021V-3.631Z" transform="translate(-0.281 42.094)" fill="#fff"/>
        <path id="Path_40506" data-name="Path 40506" d="M8.787-26.146v14.953a21.744,21.744,0,0,0,.354,4.813,3.947,3.947,0,0,0,1.772,2.267,6.52,6.52,0,0,0,3.652.935,8.385,8.385,0,0,0,4.082-.806,3.918,3.918,0,0,0,1.88-2.17,17.1,17.1,0,0,0,.462-4.823V-26.146H17.531v-3.738H29.219v3.738H25.48v15.619a27.651,27.651,0,0,1-.269,4.587,7.256,7.256,0,0,1-1.45,2.986,8.14,8.14,0,0,1-3.33,2.492,13.063,13.063,0,0,1-5.221.935A15.827,15.827,0,0,1,9.561-.4,7.676,7.676,0,0,1,6.166-2.729,7.879,7.879,0,0,1,4.651-5.844a25.349,25.349,0,0,1-.376-5.135V-26.146H.58v-3.738H12.332v3.738ZM33.881,5.693V-17.166h-3.5V-20.8h7.584v3.266a9.372,9.372,0,0,1,7.391-3.588A9.592,9.592,0,0,1,52.6-18.111a10.865,10.865,0,0,1,2.868,7.82A10.4,10.4,0,0,1,52.357-2.32,10.082,10.082,0,0,1,45.268.6a10.044,10.044,0,0,1-7.3-3.18V5.693H42V9.324H30.078V5.693ZM37.9-10.1a7.892,7.892,0,0,0,.709,3.287,6.345,6.345,0,0,0,2.256,2.632,6.251,6.251,0,0,0,3.631,1.063A6.441,6.441,0,0,0,49.317-5.07a7.377,7.377,0,0,0,1.9-5.371,6.791,6.791,0,0,0-1.987-5.2,6.422,6.422,0,0,0-4.522-1.869,6.563,6.563,0,0,0-4.759,2.03A7.233,7.233,0,0,0,37.9-10.1Z" transform="translate(122.719 42.094)" fill="#0fddc9"/>
      </g>
    </g>
  </g>
</svg>
