<svg xmlns="http://www.w3.org/2000/svg" width="66.572" height="43.545" viewBox="0 0 66.572 43.545">
  <g id="Group_52502" data-name="Group 52502" transform="translate(-63.407 -296.711)">
    <path id="Path_36446" data-name="Path 36446" d="M239.778,794.48c0,.944-14.9,1.709-33.286,1.709s-33.286-.765-33.286-1.709,14.9-1.709,33.286-1.709S239.778,793.536,239.778,794.48Z" transform="translate(-109.799 -455.933)" fill="#5d84b2" opacity="0.427"/>
    <g id="Group_52475" data-name="Group 52475" transform="translate(95.06 296.711)">
      <g id="Group_52462" data-name="Group 52462" transform="translate(1.943 23.847)">
        <path id="Path_36447" data-name="Path 36447" d="M675.913,628.016a24.245,24.245,0,0,0-3.533.68c-.345.246-1.135,1.838-1.8,1.109C669.271,628.371,673.4,628.075,675.913,628.016Z" transform="translate(-667.935 -626.188)" fill="#081727"/>
        <path id="Path_36448" data-name="Path 36448" d="M759.641,629.225a24.169,24.169,0,0,1,3.533.68c.345.246,1.135,1.838,1.8,1.109C766.283,629.579,762.154,629.284,759.641,629.225Z" transform="translate(-749.413 -627.291)" fill="#081727"/>
        <g id="Group_52460" data-name="Group 52460" transform="translate(0 1.422)">
          <g id="Group_52459" data-name="Group 52459" transform="translate(8.783)">
            <path id="Path_36449" data-name="Path 36449" d="M745.416,636.228l-.035-.7-.18-3.661-.419-8.484h-.807l-.541,8.484-.233,3.661-.033.523c0,.321.719,1.1,1.038,1.1S745.416,636.549,745.416,636.228Z" transform="translate(-743.168 -623.385)" fill="#5b646c"/>
            <path id="Path_36450" data-name="Path 36450" d="M747.4,639.95l-.16-4.077h-1.562l-.206,4.077Z" transform="translate(-745.27 -634.778)" fill="#081727"/>
          </g>
          <path id="Path_36451" data-name="Path 36451" d="M830.332,782.028a.979.979,0,1,0,.978-.933A.956.956,0,0,0,830.332,782.028Z" transform="translate(-813.904 -767.261)" fill="#081727"/>
          <path id="Path_36452" data-name="Path 36452" d="M724.818,782.028a.979.979,0,1,0,.978-.933A.956.956,0,0,0,724.818,782.028Z" transform="translate(-717.645 -767.261)" fill="#081727"/>
          <path id="Path_36453" data-name="Path 36453" d="M648.371,782.028a.979.979,0,1,0,.978-.933A.956.956,0,0,0,648.371,782.028Z" transform="translate(-647.903 -767.261)" fill="#081727"/>
          <path id="Path_36454" data-name="Path 36454" d="M643.039,771.822h18.745l-.2-.989L652.361,770l-9.323.989Z" transform="translate(-643.039 -757.137)" fill="#5b646c"/>
          <path id="Path_36455" data-name="Path 36455" d="M726.914,770l.058.018v1.807h-2.791v-.837Z" transform="translate(-717.064 -757.137)" fill="#9da4ab"/>
        </g>
        <g id="Group_52461" data-name="Group 52461" transform="translate(4.801)">
          <path id="Path_36456" data-name="Path 36456" d="M708.872,607.173l-.1.077c-1.094.883-3.145,2.586-3.331,2.686a2.976,2.976,0,0,1-.714.176,16.136,16.136,0,0,1-2.352.217,9.759,9.759,0,0,1-2.878-.816,9.631,9.631,0,0,1-1.732-2.34Z" transform="translate(-697.771 -607.173)" fill="#081727"/>
          <path id="Path_36457" data-name="Path 36457" d="M700.553,607.173c-.506,1.019,1.528,2.475,3.074,2.806a6.754,6.754,0,0,0,1.106.134,16.136,16.136,0,0,1-2.352.217,9.759,9.759,0,0,1-2.878-.816,9.631,9.631,0,0,1-1.732-2.34Z" transform="translate(-697.771 -607.173)" fill="#152a43"/>
        </g>
      </g>
      <g id="Group_52474" data-name="Group 52474" transform="translate(0)">
        <g id="Group_52465" data-name="Group 52465" transform="translate(7.683)">
          <g id="Group_52463" data-name="Group 52463">
            <path id="Path_36458" data-name="Path 36458" d="M708.481,357.727h12.685c.013-5.342,2.567-19.66,1.655-20.865a6.351,6.351,0,0,0-2.365-1.016h0a12.088,12.088,0,0,0-2.549-.455c-1.254-.056-1.733-.058-2.449-.074l-.3-.007a10.959,10.959,0,0,0-2.891.249h0a9.107,9.107,0,0,0-1.813,1.082l-.047.03c-1.04.671-1.526,8.672-1.734,14.026C708.607,352.458,708.527,355.711,708.481,357.727Z" transform="translate(-708.481 -335.303)" fill="#081727"/>
          </g>
          <g id="Group_52464" data-name="Group 52464">
            <path id="Path_36459" data-name="Path 36459" d="M718.709,357.727c-.06-5.214,2.729-20.59,1.8-21.824a.311.311,0,0,0-.057-.057h0a12.088,12.088,0,0,0-2.549-.455c-1.254-.056-1.733-.058-2.449-.074l-.3-.007a10.959,10.959,0,0,0-2.891.249h0a9.107,9.107,0,0,0-1.813,1.082l-.047.03c-1.04.671-1.526,8.672-1.734,14.026-.068,1.761-.148,5.014-.194,7.029Z" transform="translate(-708.481 -335.303)" fill="#1a3651"/>
          </g>
        </g>
        <g id="Group_52473" data-name="Group 52473" transform="translate(0 15.318)">
          <g id="Group_52468" data-name="Group 52468">
            <g id="Group_52466" data-name="Group 52466" transform="translate(3.02 0.859)">
              <rect id="Rectangle_5146" data-name="Rectangle 5146" width="1.37" height="6.338" transform="translate(0.4)" fill="#081727"/>
              <rect id="Rectangle_5147" data-name="Rectangle 5147" width="1.37" height="6.338" fill="#081727"/>
            </g>
            <g id="Group_52467" data-name="Group 52467">
              <path id="Path_36460" data-name="Path 36460" d="M620.885,510.933c0,.5.223.9.5.9h5.133c.275,0,.5-.4.5-.9v-.09c0-.5-.223-.9-.5-.9h-5.133c-.275,0-.5.4-.5.9Z" transform="translate(-620.885 -509.942)" fill="#335272"/>
              <path id="Path_36461" data-name="Path 36461" d="M662.686,510.933c0,.5.154.9.344.9h3.546c.19,0,.344-.4.344-.9v-.09c0-.5-.154-.9-.344-.9H663.03c-.19,0-.344.4-.344.9Z" transform="translate(-659.019 -509.942)" fill="#081727"/>
            </g>
          </g>
          <g id="Group_52469" data-name="Group 52469" transform="translate(0.702 6.197)">
            <path id="Path_36462" data-name="Path 36462" d="M628.889,581.985a1.331,1.331,0,0,0,1.389,1.264h14.308a1.331,1.331,0,0,0,1.389-1.264v-.126a1.331,1.331,0,0,0-1.389-1.264H630.278a1.331,1.331,0,0,0-1.389,1.264Z" transform="translate(-628.889 -580.594)" fill="#335272"/>
            <path id="Path_36463" data-name="Path 36463" d="M790.318,581.985c0,.7.254,1.264.568,1.264h5.849c.314,0,.568-.566.568-1.264v-.126c0-.7-.254-1.264-.568-1.264h-5.849c-.314,0-.568.566-.568,1.264Z" transform="translate(-776.158 -580.594)" fill="#081727"/>
          </g>
          <g id="Group_52472" data-name="Group 52472" transform="translate(13.403)">
            <g id="Group_52470" data-name="Group 52470" transform="translate(4.347 0.859)">
              <rect id="Rectangle_5148" data-name="Rectangle 5148" width="1.37" height="5.781" transform="translate(0.4)" fill="#081727"/>
              <rect id="Rectangle_5149" data-name="Rectangle 5149" width="1.37" height="5.781" fill="#081727"/>
            </g>
            <g id="Group_52471" data-name="Group 52471">
              <path id="Path_36464" data-name="Path 36464" d="M773.684,510.933c0,.5.271.9.606.9h6.244c.335,0,.606-.4.606-.9v-.09c0-.5-.272-.9-.606-.9H774.29c-.335,0-.606.4-.606.9Z" transform="translate(-773.684 -509.942)" fill="#335272"/>
              <path id="Path_36465" data-name="Path 36465" d="M844.135,510.933c0,.5.111.9.248.9h2.553c.137,0,.248-.4.248-.9v-.09c0-.5-.111-.9-.248-.9h-2.553c-.137,0-.248.4-.248.9Z" transform="translate(-837.955 -509.942)" fill="#081727"/>
            </g>
          </g>
        </g>
      </g>
    </g>
    <g id="Group_52482" data-name="Group 52482" transform="translate(77.266 306.42)">
      <g id="Group_52477" data-name="Group 52477" transform="translate(0 4.447)">
        <g id="Group_52476" data-name="Group 52476" transform="translate(4.615)">
          <path id="Path_36466" data-name="Path 36466" d="M423.726,499.08h-6.994c-.31,0-.561-.349-.561-.779a.948.948,0,0,1,.164-.551.5.5,0,0,1,.4-.229h6.994a.505.505,0,0,0-.368.228.949.949,0,0,0-.164.551C423.194,498.718,423.429,499.059,423.726,499.08Z" transform="translate(-416.118 -497.448)" fill="#fffde8"/>
          <path id="Path_36467" data-name="Path 36467" d="M422.872,498.071a.665.665,0,0,1-.053-.074.825.825,0,0,1-.1-.258c-.005-.024-.01-.049-.013-.074a1.03,1.03,0,0,1-.008-.129.954.954,0,0,1,.008-.129c0-.025.008-.049.013-.074a.822.822,0,0,1,.1-.258c.008-.013.017-.026.025-.038a.406.406,0,0,1,.028-.035.442.442,0,0,1,.3-.17v-.147h-7a.54.54,0,0,0-.434.25,1.035,1.035,0,0,0-.18.6c0,.47.275.853.614.853h7v-.147A.444.444,0,0,1,422.872,498.071Zm-6.691.171c-.28,0-.508-.316-.508-.705a.861.861,0,0,1,.149-.5.445.445,0,0,1,.359-.206h6.678a.68.68,0,0,0-.089.1.743.743,0,0,0-.044.069c-.014.024-.027.048-.039.074a1.05,1.05,0,0,0-.08.258c0,.024-.007.049-.01.074a1.194,1.194,0,0,0-.007.129,1.171,1.171,0,0,0,.007.129c0,.025.006.049.011.074a1.034,1.034,0,0,0,.08.258.753.753,0,0,0,.038.074.736.736,0,0,0,.133.171Z" transform="translate(-415.567 -496.684)" fill="#00a99f"/>
        </g>
        <path id="Path_36468" data-name="Path 36468" d="M441.631,500.314a.415.415,0,0,0-.028.035c-.009.013-.017.025-.025.038h-5.449v-.074Z" transform="translate(-429.71 -499.996)" fill="#b8b59d"/>
        <path id="Path_36469" data-name="Path 36469" d="M441.752,504.1c0,.024-.01.049-.013.074h-5.307V504.1Z" transform="translate(-429.986 -503.446)" fill="#b8b59d"/>
        <path id="Path_36470" data-name="Path 36470" d="M442.028,507.952h-5.293v-.074h5.28C442.019,507.9,442.023,507.928,442.028,507.952Z" transform="translate(-430.263 -506.896)" fill="#b8b59d"/>
        <path id="Path_36471" data-name="Path 36471" d="M442.459,511.733h-5.422v-.074h5.369A.665.665,0,0,0,442.459,511.733Z" transform="translate(-430.538 -510.345)" fill="#b8b59d"/>
        <path id="Path_36472" data-name="Path 36472" d="M371.167,498.438h-7.608c-.337,0-.61-.38-.61-.848a1.032,1.032,0,0,1,.179-.6.54.54,0,0,1,.431-.248h7.608a.55.55,0,0,0-.4.248,1.033,1.033,0,0,0-.179.6C370.588,498.044,370.844,498.415,371.167,498.438Z" transform="translate(-362.949 -496.738)" fill="#00998f"/>
      </g>
      <g id="Group_52479" data-name="Group 52479" transform="translate(0 2.247)">
        <g id="Group_52478" data-name="Group 52478" transform="translate(4.615)">
          <path id="Path_36473" data-name="Path 36473" d="M423.727,474.748h-6.994c-.31,0-.561-.457-.561-1.02a1.531,1.531,0,0,1,.164-.721.486.486,0,0,1,.4-.3h6.994a.508.508,0,0,0-.368.3l-.011.021c-.016.031-.031.063-.044.1a1.493,1.493,0,0,0-.089.338c-.005.032-.009.063-.011.1,0,.055-.008.111-.008.168s0,.114.008.169c0,.032.006.064.011.1a1.482,1.482,0,0,0,.089.338c.014.034.029.066.044.1A.522.522,0,0,0,423.727,474.748Z" transform="translate(-416.119 -472.614)" fill="#fffde8"/>
          <path id="Path_36474" data-name="Path 36474" d="M422.872,473.426a.879.879,0,0,1-.053-.1,1.29,1.29,0,0,1-.1-.338c-.005-.031-.01-.064-.013-.1-.005-.055-.008-.111-.008-.169a1.625,1.625,0,0,1,.008-.169c0-.033.008-.065.013-.1a1.286,1.286,0,0,1,.1-.337c.008-.017.017-.034.025-.05a.527.527,0,0,1,.028-.046.428.428,0,0,1,.3-.223v-.193h-7a.529.529,0,0,0-.434.327,1.664,1.664,0,0,0-.18.789c0,.615.275,1.116.614,1.116h7v-.193A.43.43,0,0,1,422.872,473.426Zm-6.691.224c-.28,0-.508-.414-.508-.923a1.384,1.384,0,0,1,.149-.653.436.436,0,0,1,.359-.27h6.678a.865.865,0,0,0-.089.134c-.016.029-.031.059-.044.09s-.027.063-.039.1a1.7,1.7,0,0,0-.08.337c0,.032-.007.065-.01.1,0,.056-.007.112-.007.169s0,.114.007.169c0,.033.006.065.011.1a1.673,1.673,0,0,0,.08.338c.012.034.024.066.038.1a.974.974,0,0,0,.133.224Z" transform="translate(-415.567 -471.611)" fill="#ff6c58"/>
        </g>
        <path id="Path_36475" data-name="Path 36475" d="M441.556,476.356c-.016.031-.031.063-.044.1h-5.38v-.1Z" transform="translate(-429.712 -475.94)" fill="#b8b59d"/>
        <path id="Path_36476" data-name="Path 36476" d="M441.7,481.311c-.005.032-.009.063-.011.1h-5.253v-.1Z" transform="translate(-429.987 -480.46)" fill="#b8b59d"/>
        <path id="Path_36477" data-name="Path 36477" d="M441.975,486.354h-5.238v-.1h5.227C441.967,486.29,441.97,486.322,441.975,486.354Z" transform="translate(-430.265 -484.973)" fill="#b8b59d"/>
        <path id="Path_36478" data-name="Path 36478" d="M442.382,491.3h-5.345v-.1h5.3C442.352,491.239,442.367,491.271,442.382,491.3Z" transform="translate(-430.538 -489.486)" fill="#b8b59d"/>
        <path id="Path_36479" data-name="Path 36479" d="M371.167,473.9h-7.608c-.337,0-.61-.5-.61-1.109a1.659,1.659,0,0,1,.179-.784.53.53,0,0,1,.431-.325h7.608a.552.552,0,0,0-.4.324,1.66,1.66,0,0,0-.179.784C370.588,473.389,370.844,473.874,371.167,473.9Z" transform="translate(-362.949 -471.68)" fill="#d74e42"/>
      </g>
      <g id="Group_52481" data-name="Group 52481" transform="translate(0 0)">
        <g id="Group_52480" data-name="Group 52480" transform="translate(2.919)">
          <path id="Path_36480" data-name="Path 36480" d="M401.387,449.125h-4.423c-.2,0-.355-.457-.355-1.02a2.278,2.278,0,0,1,.1-.721c.064-.185.153-.3.251-.3h4.423c-.091.013-.172.125-.233.3a2.278,2.278,0,0,0-.1.721C401.05,448.652,401.2,449.1,401.387,449.125Z" transform="translate(-396.575 -446.991)" fill="#fffde8"/>
          <path id="Path_36481" data-name="Path 36481" d="M400.846,447.806c-.012-.029-.023-.062-.034-.1a1.885,1.885,0,0,1-.064-.338c0-.031-.006-.064-.008-.1,0-.055-.005-.111-.005-.169s0-.114.005-.169c0-.033.005-.065.008-.1a1.867,1.867,0,0,1,.065-.338c.005-.017.01-.034.016-.05s.012-.033.018-.046c.054-.134.121-.212.193-.223v-.193h-4.426c-.1,0-.2.116-.274.327a2.5,2.5,0,0,0-.114.789c0,.615.174,1.116.388,1.116h4.426v-.193C400.965,448.018,400.9,447.935,400.846,447.806Zm-4.232.224c-.177,0-.321-.414-.321-.923a2.067,2.067,0,0,1,.094-.653c.06-.175.141-.27.227-.27h4.223a1.009,1.009,0,0,0-.056.134c-.01.029-.019.059-.028.09s-.017.063-.024.1a2.533,2.533,0,0,0-.051.338c0,.032,0,.065-.006.1,0,.056,0,.112,0,.169s0,.114,0,.169c0,.033,0,.065.007.1a2.479,2.479,0,0,0,.05.338c.007.034.015.065.024.1a1.2,1.2,0,0,0,.084.224Z" transform="translate(-396.226 -445.991)" fill="#8fbc76"/>
        </g>
        <path id="Path_36482" data-name="Path 36482" d="M412.711,450.741c-.006.014-.012.03-.018.046s-.011.033-.016.05h-3.446v-.1Z" transform="translate(-405.171 -450.324)" fill="#b8b59d"/>
        <path id="Path_36483" data-name="Path 36483" d="M412.785,455.688c0,.032-.006.064-.008.1h-3.357v-.1Z" transform="translate(-405.345 -454.837)" fill="#b8b59d"/>
        <path id="Path_36484" data-name="Path 36484" d="M412.96,460.732h-3.348v-.1h3.34C412.954,460.669,412.956,460.7,412.96,460.732Z" transform="translate(-405.519 -459.351)" fill="#b8b59d"/>
        <path id="Path_36485" data-name="Path 36485" d="M413.233,465.68H409.8v-.1h3.4C413.21,465.619,413.221,465.652,413.233,465.68Z" transform="translate(-405.694 -463.865)" fill="#b8b59d"/>
        <path id="Path_36486" data-name="Path 36486" d="M368.146,448.284h-4.811c-.213,0-.386-.5-.386-1.109a2.481,2.481,0,0,1,.113-.784c.07-.2.166-.325.273-.325h4.811c-.1.015-.188.136-.253.324a2.476,2.476,0,0,0-.113.784C367.78,447.769,367.942,448.254,368.146,448.284Z" transform="translate(-362.949 -446.06)" fill="#768e66"/>
      </g>
    </g>
    <g id="Group_52485" data-name="Group 52485" transform="translate(72.838 310.673)">
      <rect id="Rectangle_5150" data-name="Rectangle 5150" width="8.756" height="1.899" transform="translate(3.273)" fill="#124b79"/>
      <rect id="Rectangle_5151" data-name="Rectangle 5151" width="8.757" height="1.899" transform="translate(0)" fill="#327cba"/>
      <g id="Group_52484" data-name="Group 52484" transform="translate(0.829 0.3)">
        <g id="Group_52483" data-name="Group 52483" transform="translate(6.214)">
          <path id="Path_36487" data-name="Path 36487" d="M362.253,499.588a.5.5,0,0,1-.618-.4.576.576,0,0,1,.416-.657.5.5,0,0,1,.618.4A.571.571,0,0,1,362.253,499.588Z" transform="translate(-361.573 -498.465)" fill="#124b79"/>
          <path id="Path_36488" data-name="Path 36488" d="M361.036,498.642a.635.635,0,0,1,.458-.723.552.552,0,0,1,.68.435.628.628,0,0,1-.458.723A.547.547,0,0,1,361.036,498.642Zm1.034-.261a.451.451,0,0,0-.556-.356.519.519,0,0,0-.374.591.448.448,0,0,0,.556.356A.515.515,0,0,0,362.07,498.381Z" transform="translate(-361.026 -497.902)" fill="#eeffe2"/>
        </g>
        <path id="Path_36489" data-name="Path 36489" d="M290.182,503.43l0-.516h5.55l.055.516Z" transform="translate(-290.178 -502.474)" fill="#124b79"/>
      </g>
    </g>
    <g id="Group_52498" data-name="Group 52498" transform="translate(70.298 312.417)">
      <g id="Group_52494" data-name="Group 52494" transform="translate(38.456 0.125)">
        <path id="Path_36504" data-name="Path 36504" d="M793.1,515.79l-.016,1.073-.027,1.75-.344,22.748h-.388l-.516-22.748-.04-1.75-.024-1.073Z" transform="translate(-791.742 -515.79)" fill="#b1b6b8"/>
        <path id="Path_36505" data-name="Path 36505" d="M793.335,528.027l-.026,1.75H792.06l-.04-1.75Z" transform="translate(-791.996 -526.954)" fill="#797f80"/>
      </g>
      <g id="Group_52495" data-name="Group 52495" transform="translate(53.093 0.125)">
        <path id="Path_36506" data-name="Path 36506" d="M1003,515.79l-.016,1.073-.026,1.75-.345,22.748h-.388l-.516-22.748-.04-1.75-.024-1.073Z" transform="translate(-1001.647 -515.79)" fill="#b1b6b8"/>
        <path id="Path_36507" data-name="Path 36507" d="M1003.239,528.027l-.026,1.75h-1.249l-.04-1.75Z" transform="translate(-1001.9 -526.954)" fill="#797f80"/>
      </g>
      <g id="Group_52496" data-name="Group 52496" transform="translate(1.857 1.131)">
        <rect id="Rectangle_5153" data-name="Rectangle 5153" width="12.983" height="24.324" transform="translate(6.688)" fill="#944c20"/>
        <rect id="Rectangle_5154" data-name="Rectangle 5154" width="12.983" height="24.243" transform="translate(0 0.082)" fill="#ea8442"/>
        <rect id="Rectangle_5155" data-name="Rectangle 5155" width="19.672" height="1.529" transform="translate(0.004 0.403)" fill="#944c20"/>
      </g>
      <g id="Group_52497" data-name="Group 52497" transform="translate(0 0)">
        <path id="Path_36508" data-name="Path 36508" d="M251.763,515.215a.776.776,0,0,0,.665.853h48.606a.776.776,0,0,0,.665-.853h0a.777.777,0,0,0-.665-.853H252.428a.776.776,0,0,0-.665.853Z" transform="translate(-251.763 -514.362)" fill="#ea8442"/>
        <path id="Path_36509" data-name="Path 36509" d="M749.908,515.215c0,.471.15.853.334.853h24.426c.184,0,.334-.382.334-.853h0c0-.471-.15-.853-.334-.853H750.242c-.184,0-.334.382-.334.853Z" transform="translate(-718.896 -514.362)" fill="#944c20"/>
      </g>
    </g>
    <g id="Group_52501" data-name="Group 52501" transform="translate(88.431 303.515)">
      <g id="Group_52500" data-name="Group 52500">
        <path id="Path_36510" data-name="Path 36510" d="M538.376,505.289a.348.348,0,0,0,.348.348h13.937a.348.348,0,0,0,.348-.348h0a.348.348,0,0,0-.348-.348H538.724a.348.348,0,0,0-.348.348Z" transform="translate(-536.741 -496.865)" fill="#b2aaa8"/>
        <g id="Group_52499" data-name="Group 52499">
          <path id="Path_36511" data-name="Path 36511" d="M525.762,421.17a.565.565,0,0,0,.533.477H536.33a.4.4,0,0,0,.392-.477l-1.16-7.817a.565.565,0,0,0-.533-.478H524.994a.4.4,0,0,0-.392.478Z" transform="translate(-524.171 -412.875)" fill="#efe6e6"/>
          <path id="Path_36512" data-name="Path 36512" d="M520.9,421.17a.565.565,0,0,0,.533.477h10.035a.4.4,0,0,0,.392-.477l-1.16-7.817a.565.565,0,0,0-.533-.478H520.136a.4.4,0,0,0-.392.478Z" transform="translate(-519.739 -412.875)" fill="#b1b6b8"/>
        </g>
      </g>
      <path id="Path_36513" data-name="Path 36513" d="M578.1,452.071a.494.494,0,0,0,.494.494h0a.494.494,0,0,0,.493-.494h0a.494.494,0,0,0-.493-.494h0a.494.494,0,0,0-.494.494Z" transform="translate(-572.978 -448.182)" fill="#fff"/>
    </g>
  </g>
</svg>
