<svg xmlns="http://www.w3.org/2000/svg" width="59.358" height="59.405" viewBox="0 0 59.358 59.405">
  <g id="Group_59166" data-name="Group 59166" transform="translate(0.001 0.001)">
    <g id="Group_59167" data-name="Group 59167">
      <path id="Path_43960" data-name="Path 43960" d="M88.165,146.939a1.036,1.036,0,0,0-1.443-.255,13.06,13.06,0,0,1-18.166-3.2,1.036,1.036,0,0,0-1.7,1.189,15.145,15.145,0,0,0,12.4,6.44h.057l.636,6.207a1.035,1.035,0,0,0,1.036,1.014l.084,0a22.421,22.421,0,0,0,18.92-13.9,1.036,1.036,0,0,0-1.921-.778,20.352,20.352,0,0,1-16.157,12.5l-.53-5.194a15.007,15.007,0,0,0,6.525-2.578,1.038,1.038,0,0,0,.255-1.443" transform="translate(-49.552 -106.285)" fill="#fff"/>
      <path id="Path_43961" data-name="Path 43961" d="M54,12.694a1.036,1.036,0,0,0-1.443-.255l-5.138,3.6a22.283,22.283,0,0,0-22.88-8.124,1.036,1.036,0,0,0,.476,2.017,20.231,20.231,0,0,1,21.32,8.126l0,0,0,0A20.252,20.252,0,0,1,49.979,28.5l-5.235.045A15.082,15.082,0,0,0,30.161,14.609a.977.977,0,0,0-.739.246,1.06,1.06,0,0,0-.348.757,1.037,1.037,0,0,0,1,1.067,12.941,12.941,0,0,1,10.294,5.557,13.117,13.117,0,0,1,1.21,12.838,1.036,1.036,0,0,0,1.89.85,15.069,15.069,0,0,0,1.293-5.3l6.285-.055a1.031,1.031,0,0,0,.736-.306,1.043,1.043,0,0,0,.3-.737,22.257,22.257,0,0,0-3.478-11.789l4.272-2.991a27.621,27.621,0,0,1-35.42,39.736l2.548-4.56a22.664,22.664,0,0,0,3.309,1.27A1.036,1.036,0,0,0,23.9,49.2a20.484,20.484,0,0,1-3.774-1.54c-.012-.007-.023-.017-.035-.025s-.049-.02-.074-.032A20.344,20.344,0,0,1,17.2,13.684L20.19,17.96a15.223,15.223,0,0,0-5.533,13.372,1.036,1.036,0,1,0,2.06-.219,13.056,13.056,0,0,1,5.491-12.08,1.037,1.037,0,0,0,.253-1.443l-4.177-5.966a1.04,1.04,0,0,0-1.443-.254,22.422,22.422,0,0,0,1.337,37.575l-2.542,4.55A27.617,27.617,0,1,1,46.576,7.868a1.036,1.036,0,0,0,1.268-1.64A29.684,29.684,0,0,0,5.375,46.74,29.485,29.485,0,0,0,24.533,58.945a30.089,30.089,0,0,0,5.216.458A29.689,29.689,0,0,0,54,12.694" fill="#fff"/>
    </g>
    <g id="Group_59169" data-name="Group 59169">
      <path id="Path_43962" data-name="Path 43962" d="M104.96,89.666a5.628,5.628,0,0,0-6.266-5.591,5.536,5.536,0,0,0-4.96,5.053,5.613,5.613,0,0,0,1.517,4.406A3.3,3.3,0,0,1,96.18,95.8v1.359a3.155,3.155,0,1,0,6.311,0V95.744a3.127,3.127,0,0,1,.891-2.171,5.609,5.609,0,0,0,1.579-3.908" transform="translate(-69.647 -62.461)" fill="#ffdb45"/>
      <path id="Path_43963" data-name="Path 43963" d="M103.328,129.854v1.355a3.155,3.155,0,1,0,6.311,0v-1.355Z" transform="translate(-76.796 -96.512)" fill="#686777"/>
    </g>
    <rect id="Rectangle_6593" data-name="Rectangle 6593" width="59.357" height="59.404" fill="none"/>
  </g>
</svg>
