<svg xmlns="http://www.w3.org/2000/svg" width="123.061" height="100.609" viewBox="0 0 123.061 100.609">
  <g id="Group_18722" data-name="Group 18722" transform="translate(-0.001 -0.001)">
    <g id="Group_18666" data-name="Group 18666" transform="translate(0.001 59.875)">
      <g id="Group_18648" data-name="Group 18648" transform="translate(6.007 1.372)">
        <path id="Path_17717" data-name="Path 17717" d="M-1823,624.134a43.354,43.354,0,0,0-3.43-2.943,13.12,13.12,0,0,0-3.887-1.544,28.516,28.516,0,0,0-4.531,1s-5.509-.49-6.435.154-.85,1.313-.464,1.8,1.879.335,3.526.36a8.252,8.252,0,0,1,2.085.18l-2.394,2.548,6.2,1.725,3.784-.142,1.365,1.716Z" transform="translate(1842.021 -619.643)" fill="#ffbf9d"/>
      </g>
      <g id="Group_18649" data-name="Group 18649" transform="translate(6.138 0.075)">
        <path id="Path_17718" data-name="Path 17718" d="M-1841.644,615.951l.15,5.489.265.682,2.708,3.3,6.606-.436-5.263-2.051-1.871-1.422-.723-2.345S-1839.548,615.552-1841.644,615.951Z" transform="translate(1841.644 -615.921)" fill="#ffbf9d"/>
      </g>
      <g id="Group_18650" data-name="Group 18650" transform="translate(0 3.88)">
        <path id="Path_17719" data-name="Path 17719" d="M-1852.669,629.37h-1.609s-2.1-3.453-4.02-2.28l.442.682a1.192,1.192,0,0,0-1.415.336l5.3,4.646h.243l5.642-.364Z" transform="translate(1859.271 -626.847)" fill="#ffbf9d"/>
      </g>
      <g id="Group_18652" data-name="Group 18652" transform="translate(3.732 4.922)">
        <g id="Group_18651" data-name="Group 18651">
          <path id="Path_17720" data-name="Path 17720" d="M-1844.724,632.369a3.125,3.125,0,0,1-.455.019,3,3,0,0,0-1.115.224l-.054.025-.035-.05c-.163-.23-.365-.478-.573-.737l-1.142-1.41a4.524,4.524,0,0,1-.453-.6,3.223,3.223,0,0,1,.535.532c.312.345.732.832,1.179,1.385.208.261.406.508.572.755l-.088-.025a2.7,2.7,0,0,1,1.176-.183A1.251,1.251,0,0,1-1844.724,632.369Z" transform="translate(1848.552 -629.838)" fill="#ff9a6c"/>
        </g>
      </g>
      <g id="Group_18654" data-name="Group 18654" transform="translate(15.515 4.256)">
        <g id="Group_18653" data-name="Group 18653">
          <path id="Path_17721" data-name="Path 17721" d="M-1811.226,627.93a13.825,13.825,0,0,0-1.862.788,13.742,13.742,0,0,0-1.629,1.2,1.835,1.835,0,0,1,.39-.458,5.835,5.835,0,0,1,1.164-.872,5.833,5.833,0,0,1,1.344-.555A1.881,1.881,0,0,1-1811.226,627.93Z" transform="translate(1814.718 -627.925)" fill="#ff9a6c"/>
        </g>
      </g>
      <g id="Group_18656" data-name="Group 18656" transform="translate(12.184 2.838)">
        <g id="Group_18655" data-name="Group 18655">
          <path id="Path_17722" data-name="Path 17722" d="M-1822.738,623.855a7.794,7.794,0,0,1-.758.931,7.833,7.833,0,0,1-.784.909,3.511,3.511,0,0,1,.668-1.006A3.518,3.518,0,0,1-1822.738,623.855Z" transform="translate(1824.282 -623.853)" fill="#ff9a6c"/>
        </g>
      </g>
      <g id="Group_18658" data-name="Group 18658" transform="translate(6.062)">
        <g id="Group_18657" data-name="Group 18657">
          <path id="Path_17723" data-name="Path 17723" d="M-1839.714,623.925a.843.843,0,0,1-.127-.126l-.34-.38-.532-.607-.332-.381a4.186,4.186,0,0,1-.358-.446,2.332,2.332,0,0,1-.376-1.257c-.009-.468-.019-.967-.029-1.491-.018-1.053-.037-2.209-.057-3.424v-.067l.063-.009.174-.024a1.28,1.28,0,0,1,1.069.378,2.347,2.347,0,0,1,.511.965,6.325,6.325,0,0,1,.2,1.978l0-.024c.269.89.508,1.682.708,2.35l-.018-.025,1.36,1.063.361.291a.714.714,0,0,1,.119.109.648.648,0,0,1-.137-.086l-.377-.27-1.388-1.026-.013-.009,0-.016-.739-2.341,0-.01v-.013a6.285,6.285,0,0,0-.206-1.928,2.2,2.2,0,0,0-.478-.9,1.126,1.126,0,0,0-.947-.333l-.16.021.062-.075c.016,1.216.031,2.371.044,3.424.044,1.043-.119,2.036.356,2.694a4.128,4.128,0,0,0,.342.442l.322.388.512.624.32.4A.814.814,0,0,1-1839.714,623.925Z" transform="translate(1841.864 -615.704)" fill="#ff9a6c"/>
        </g>
      </g>
      <g id="Group_18660" data-name="Group 18660" transform="translate(0.972 4.123)">
        <g id="Group_18659" data-name="Group 18659">
          <path id="Path_17724" data-name="Path 17724" d="M-1851.912,633.209a.449.449,0,0,1-.282-.081,3.025,3.025,0,0,1-.621-.5,17.066,17.066,0,0,1-1.66-2.007c-.6-.821-1.106-1.588-1.462-2.15-.178-.281-.318-.511-.411-.672a1.027,1.027,0,0,1-.131-.259,1.124,1.124,0,0,1,.181.227l.45.645c.379.546.9,1.3,1.5,2.12a23.1,23.1,0,0,0,1.614,2.021,3.633,3.633,0,0,0,.575.521A2.159,2.159,0,0,0-1851.912,633.209Z" transform="translate(1856.479 -627.544)" fill="#ff9a6c"/>
        </g>
      </g>
      <g id="Group_18661" data-name="Group 18661" transform="translate(9.679 0.66)">
        <path id="Path_17725" data-name="Path 17725" d="M-1825.976,623.183l-2.916-.2-.871-2.388-.161-1.606a1.532,1.532,0,0,0-1.524-1.393h-.029l.164,3.937.6,2.445,2.369,1.4h2.9Z" transform="translate(1831.475 -617.598)" fill="#ffbf9d"/>
      </g>
      <g id="Group_18665" data-name="Group 18665" transform="translate(9.601 0.585)">
        <g id="Group_18662" data-name="Group 18662" transform="translate(0.079 0.075)">
          <path id="Path_17726" data-name="Path 17726" d="M-1825.976,623.183l-2.916-.2-.871-2.388-.161-1.606a1.532,1.532,0,0,0-1.524-1.393h-.029l.164,3.937.6,2.445,2.369,1.4" transform="translate(1831.475 -617.598)" fill="#ffbf9d"/>
        </g>
        <g id="Group_18664" data-name="Group 18664">
          <g id="Group_18663" data-name="Group 18663">
            <path id="Path_17727" data-name="Path 17727" d="M-1828.491,625.238a.891.891,0,0,1-.171-.083l-.477-.265-1.748-1-.019-.011-.005-.023c-.176-.7-.384-1.529-.613-2.441l0-.007V621.4c-.051-1.184-.109-2.522-.171-3.936l0-.075.077,0c.026,0,.056,0,.085,0a1.6,1.6,0,0,1,1.5,1.231,3.4,3.4,0,0,1,.065.481l.045.463c.03.3.058.6.086.891l0-.017c.318.889.607,1.695.858,2.393l-.048-.036,2.132.168.579.054a.975.975,0,0,1,.2.029.986.986,0,0,1-.2,0l-.581-.024-2.135-.119-.035,0-.013-.034-.884-2.384,0-.008v-.009q-.045-.433-.092-.89-.024-.229-.048-.463a3.278,3.278,0,0,0-.064-.46,1.453,1.453,0,0,0-1.361-1.115c-.026,0-.053,0-.078,0l.074-.079c.056,1.415.109,2.753.156,3.937l0-.013c.219.916.417,1.746.585,2.448l-.026-.033,1.724,1.044.463.289A.924.924,0,0,1-1828.491,625.238Z" transform="translate(1831.701 -617.383)" fill="#ff9a6c"/>
          </g>
        </g>
      </g>
    </g>
    <g id="Group_18683" data-name="Group 18683" transform="translate(41.35 0.001)">
      <g id="Group_18667" data-name="Group 18667">
        <path id="Path_17728" data-name="Path 17728" d="M-1704.259,463.437c-2.5-9.523-4.805-20.6-18.729-19.608,0,0-8.581,1.651-12.655,7.983-2.4,3.725-4.473,19.782-4.886,32.464h0v.007c-.017.516.2,4.116.184,4.621l36.855,3.068h6.64a65.254,65.254,0,0,0-2.417-13.254C-1701.214,472.37-1703.374,466.808-1704.259,463.437Z" transform="translate(1740.53 -443.766)" fill="#263238"/>
      </g>
      <g id="Group_18668" data-name="Group 18668" transform="translate(4.887 2.861)">
        <path id="Path_17729" data-name="Path 17729" d="M-1715.692,452.812l.871-.831,9.413,3.794a2.628,2.628,0,0,1,2.481,2.544l-.083,30.67a8.594,8.594,0,0,1-1.66,5.539l-1.322,1.745a6.942,6.942,0,0,1-11.6-.733,3.331,3.331,0,0,1-.333-.793,6.317,6.317,0,0,1-.14-.686c-.28-2.468-.3-4.607-.3-4.607-.168-2.709-.223-3.821-.223-3.8,0,0-5.765-.663-7.323-8.063-.775-3.68-.629-8.744-.412-13.727C-1726.02,456.971-1721.236,452.8-1715.692,452.812Z" transform="translate(1726.495 -451.981)" fill="#ffbf9d"/>
      </g>
      <g id="Group_18669" data-name="Group 18669" transform="translate(18.113 18.755)">
        <path id="Path_17730" data-name="Path 17730" d="M-1688.515,498.537a.957.957,0,0,0,.971.919.916.916,0,0,0,.943-.912.959.959,0,0,0-.97-.92A.916.916,0,0,0-1688.515,498.537Z" transform="translate(1688.516 -497.624)" fill="#263238"/>
      </g>
      <g id="Group_18670" data-name="Group 18670" transform="translate(8.285 19.012)">
        <path id="Path_17731" data-name="Path 17731" d="M-1716.739,499.274a.958.958,0,0,0,.971.919.916.916,0,0,0,.943-.912.959.959,0,0,0-.97-.92A.917.917,0,0,0-1716.739,499.274Z" transform="translate(1716.739 -498.361)" fill="#263238"/>
      </g>
      <g id="Group_18671" data-name="Group 18671" transform="translate(6.028 15.616)">
        <path id="Path_17732" data-name="Path 17732" d="M-1723.2,489.712c.125.119.823-.454,1.853-.5s1.81.428,1.915.3c.053-.058-.08-.278-.421-.5a2.628,2.628,0,0,0-1.541-.392,2.528,2.528,0,0,0-1.467.556C-1723.167,489.428-1723.263,489.659-1723.2,489.712Z" transform="translate(1723.219 -488.609)" fill="#263238"/>
      </g>
      <g id="Group_18672" data-name="Group 18672" transform="translate(16.234 15.056)">
        <path id="Path_17733" data-name="Path 17733" d="M-1693.888,488.314c.137.106.773-.536,1.792-.69s1.844.24,1.936.1c.045-.064-.107-.268-.47-.455a2.624,2.624,0,0,0-1.573-.232,2.531,2.531,0,0,0-1.4.7C-1693.882,488.028-1693.954,488.267-1693.888,488.314Z" transform="translate(1693.911 -487.003)" fill="#263238"/>
      </g>
      <g id="Group_18673" data-name="Group 18673" transform="translate(10.235 15.718)">
        <path id="Path_17734" data-name="Path 17734" d="M-1708.478,497.5a6.8,6.8,0,0,0-1.687-.218c-.264-.014-.516-.054-.569-.231a1.336,1.336,0,0,1,.136-.788l.677-2.041a34.412,34.412,0,0,0,1.483-5.324,34.567,34.567,0,0,0-1.909,5.192c-.225.716-.439,1.4-.643,2.051a1.52,1.52,0,0,0-.085,1.039.661.661,0,0,0,.452.363,1.788,1.788,0,0,0,.45.039A6.707,6.707,0,0,0-1708.478,497.5Z" transform="translate(1711.139 -488.902)" fill="#263238"/>
      </g>
      <g id="Group_18674" data-name="Group 18674" transform="translate(12.796 33.372)">
        <path id="Path_17735" data-name="Path 17735" d="M-1703.783,542.765a19,19,0,0,0,9.857-3.166s-2.253,5.29-9.755,4.967Z" transform="translate(1703.783 -539.599)" fill="#ff9a6c"/>
      </g>
      <g id="Group_18675" data-name="Group 18675" transform="translate(13.337 25.836)">
        <path id="Path_17736" data-name="Path 17736" d="M-1699.453,518.536a1.694,1.694,0,0,0-1.2-.569,1.414,1.414,0,0,0-1.449.552,1.057,1.057,0,0,0-.072.832c.075.119.019.122.135.205a3.839,3.839,0,0,0,1.4.611,1.246,1.246,0,0,0,1.332-.409A1.073,1.073,0,0,0-1699.453,518.536Z" transform="translate(1702.23 -517.959)" fill="#ff9a6c"/>
      </g>
      <g id="Group_18676" data-name="Group 18676" transform="translate(15.998 10.567)">
        <path id="Path_17737" data-name="Path 17737" d="M-1694.577,475.182c.132.263,1.019-.007,2.108-.027,1.087-.044,2,.174,2.1-.1.045-.128-.145-.366-.533-.581a3.269,3.269,0,0,0-1.627-.367,3.145,3.145,0,0,0-1.582.46C-1694.472,474.808-1694.636,475.056-1694.577,475.182Z" transform="translate(1694.589 -474.11)" fill="#263238"/>
      </g>
      <g id="Group_18677" data-name="Group 18677" transform="translate(6.162 13.696)">
        <path id="Path_17738" data-name="Path 17738" d="M-1722.8,484.256c.193.225.889-.053,1.742-.108.85-.084,1.583.078,1.737-.175.068-.123-.059-.351-.385-.556a2.412,2.412,0,0,0-1.437-.312,2.415,2.415,0,0,0-1.366.539C-1722.8,483.9-1722.888,484.146-1722.8,484.256Z" transform="translate(1722.834 -483.096)" fill="#263238"/>
      </g>
      <g id="Group_18678" data-name="Group 18678" transform="translate(13.05 2.357)">
        <path id="Path_17739" data-name="Path 17739" d="M-1687.838,470.466s-3.962.958-9.585-11.151a40.38,40.38,0,0,0-5.632-8.275l3.488-.5s10.4,2.929,10.573,3.061,2.623,5.378,2.623,5.378Z" transform="translate(1703.055 -450.536)" fill="#263238"/>
      </g>
      <g id="Group_18679" data-name="Group 18679" transform="translate(26.967 19.671)">
        <path id="Path_17740" data-name="Path 17740" d="M-1663.089,502.385c-.027-.555.55-1.9,1.094-2.011,1.453-.3,4.1-.317,4.312,3.4.288,5.085-4.876,4.325-4.894,4.18C-1662.59,507.844-1663,504.3-1663.089,502.385Z" transform="translate(1663.089 -500.254)" fill="#ffbf9d"/>
      </g>
      <g id="Group_18680" data-name="Group 18680" transform="translate(28.921 21.282)">
        <path id="Path_17741" data-name="Path 17741" d="M-1657.475,508.959c.021-.018.092.057.245.117a.887.887,0,0,0,.663-.024,2.2,2.2,0,0,0,.9-2.024,2.945,2.945,0,0,0-.32-1.254,1.024,1.024,0,0,0-.705-.642.452.452,0,0,0-.509.272c-.06.146-.022.246-.048.256s-.114-.079-.085-.291a.57.57,0,0,1,.182-.331.672.672,0,0,1,.483-.157,1.246,1.246,0,0,1,.969.736,3.007,3.007,0,0,1,.387,1.4,2.3,2.3,0,0,1-1.167,2.269.952.952,0,0,1-.818-.089C-1657.46,509.082-1657.493,508.97-1657.475,508.959Z" transform="translate(1657.479 -504.881)" fill="#ff9a6c"/>
      </g>
      <g id="Group_18682" data-name="Group 18682" transform="translate(12.953 26.397)">
        <g id="Group_18681" data-name="Group 18681">
          <path id="Path_17742" data-name="Path 17742" d="M-1699.517,519.791a11.236,11.236,0,0,1-1.916.311,11.311,11.311,0,0,1-1.9.407c-.063-.1.7-.646,1.814-.852A2.837,2.837,0,0,1-1699.517,519.791Z" transform="translate(1703.334 -519.57)" fill="#263238"/>
        </g>
      </g>
    </g>
    <g id="Group_18692" data-name="Group 18692" transform="translate(97.858 62.245)">
      <g id="Group_18684" data-name="Group 18684" transform="translate(0 0.024)">
        <path id="Path_17743" data-name="Path 17743" d="M-1578.26,626.335s4.259-3.648,5.493-3.745a27.651,27.651,0,0,1,4.48.506s2.05.018,3.069-.11a7.8,7.8,0,0,1,3.2.156c.307.094.691.858-.213,1.379a32.355,32.355,0,0,1-4.106.472l9.318,2.661-1.21,1a.949.949,0,0,1-.57.216l-13.415.476-.614,1.5Z" transform="translate(1578.26 -622.579)" fill="#ffbf9d"/>
      </g>
      <g id="Group_18685" data-name="Group 18685" transform="translate(10.169 0.074)">
        <path id="Path_17744" data-name="Path 17744" d="M-1549.058,626.431h4.352s1.526-2.027,2.078-2.871c.482-.738,1.064-.955,1.572-.781a.579.579,0,0,1,.308.266h0a.6.6,0,0,1,.008.581l-1.914,3.571,1-.339s2.008-1.967,2.4-2.422,1.818-2.37,3.085-.974l-1.754,1.948,1.754-1.234s1.4-1.2,2.143.227l-5.214,4.4" transform="translate(1549.058 -622.722)" fill="#ffbf9d"/>
      </g>
      <g id="Group_18687" data-name="Group 18687" transform="translate(5.639)">
        <g id="Group_18686" data-name="Group 18686">
          <path id="Path_17745" data-name="Path 17745" d="M-1562.066,624.49a1.014,1.014,0,0,1,.173-.059,2.575,2.575,0,0,1,.518-.12,4.16,4.16,0,0,1,1.955.2,6.869,6.869,0,0,1,1.255.578c.214.127.433.265.652.418l.33.235a3.424,3.424,0,0,0,.322.22c1.1.086,2.361.16,3.681.253l-.061.026c.406-.484.809-1.01,1.2-1.561.152-.214.3-.43.438-.645s.273-.437.428-.643a3.521,3.521,0,0,1,.513-.569,1.589,1.589,0,0,1,.317-.219.666.666,0,0,1,.4-.088l-.025,0a.912.912,0,0,1,.686.165.758.758,0,0,1,.228.651v.012l-.007.013-2.11,3.784,0-.011a1.33,1.33,0,0,1-.768.812,2.309,2.309,0,0,1-.819.173,5.135,5.135,0,0,1-.52,0,.864.864,0,0,1-.178-.018.989.989,0,0,1,.179-.009c.117,0,.292,0,.516-.021a2.334,2.334,0,0,0,.791-.19,1.255,1.255,0,0,0,.706-.768V627.1l0-.005,2.072-3.8-.008.025a.624.624,0,0,0-.183-.524.777.777,0,0,0-.579-.129h-.006l-.02,0a.58.58,0,0,0-.3.078,1.473,1.473,0,0,0-.287.2,3.363,3.363,0,0,0-.488.546c-.288.4-.554.86-.863,1.286-.391.555-.795,1.082-1.208,1.571l-.024.028-.037,0c-1.329-.1-2.565-.174-3.7-.274a2.343,2.343,0,0,1-.367-.244l-.326-.237c-.214-.153-.429-.292-.639-.42a6.949,6.949,0,0,0-1.228-.585,4.246,4.246,0,0,0-1.916-.243,3,3,0,0,0-.517.093A.945.945,0,0,1-1562.066,624.49Z" transform="translate(1562.066 -622.51)" fill="#ff9a6c"/>
        </g>
      </g>
      <g id="Group_18689" data-name="Group 18689" transform="translate(18.024 0.814)">
        <g id="Group_18688" data-name="Group 18688">
          <path id="Path_17746" data-name="Path 17746" d="M-1521.465,624.847a1.114,1.114,0,0,1-.17.239c-.117.148-.29.358-.505.615-.432.515-1.036,1.219-1.71,1.991s-1.255,1.5-1.757,1.96a4.1,4.1,0,0,1-.628.5.774.774,0,0,1-.268.124,1.9,1.9,0,0,1,.235-.172,5.438,5.438,0,0,0,.586-.527c.475-.471,1.026-1.216,1.715-1.98s1.293-1.467,1.745-1.965c.227-.249.411-.448.542-.584A1.1,1.1,0,0,1-1521.465,624.847Z" transform="translate(1526.503 -624.847)" fill="#ff9a6c"/>
        </g>
      </g>
      <g id="Group_18691" data-name="Group 18691" transform="translate(16.519 1.017)">
        <g id="Group_18690" data-name="Group 18690">
          <path id="Path_17747" data-name="Path 17747" d="M-1526.669,625.432a4.4,4.4,0,0,1-.529.622c-.341.37-.818.875-1.352,1.426-.438.451-.846.864-1.172,1.187l-.011.011-.013,0a4.635,4.635,0,0,1-1.078.279,1.7,1.7,0,0,1,.279-.115l.76-.278-.024.015c.313-.336.713-.757,1.151-1.208.534-.551,1.024-1.044,1.385-1.395A4.339,4.339,0,0,1-1526.669,625.432Z" transform="translate(1530.824 -625.431)" fill="#ff9a6c"/>
        </g>
      </g>
    </g>
    <g id="Group_18716" data-name="Group 18716" transform="translate(17.91 40.941)">
      <g id="Group_18693" data-name="Group 18693" transform="translate(64.457 3.439)">
        <path id="Path_17748" data-name="Path 17748" d="M-1621.69,571.208s6.254,1.612,6.867,10.112c.349,4.843-2.228,20.4-2.228,20.4l9.235-9.485,8.231,5.727s-11.2,13.69-13.782,15.749-6.7,5.369-8.039,5.1-1.34-6.442-1.34-6.442V578.274Z" transform="translate(1622.745 -571.208)" fill="#fb725e"/>
      </g>
      <g id="Group_18694" data-name="Group 18694" transform="translate(0 4.48)">
        <path id="Path_17749" data-name="Path 17749" d="M-1787.29,574.2s-5.564,1.829-5.337,12.7.049,14.527.049,14.527l-8.339-8.824-6.927,7.64s7.75,11.513,13.172,17.109c5.11,5.272,9.652.694,11.129-3.013,1.2-3,2.157-14.419,2.157-14.419Z" transform="translate(1807.843 -574.197)" fill="#fb725e"/>
      </g>
      <g id="Group_18696" data-name="Group 18696" transform="translate(62.224 13.454)" opacity="0.3">
        <g id="Group_18695" data-name="Group 18695">
          <path id="Path_17750" data-name="Path 17750" d="M-1625.385,609.531c.5-3.18.636-6.646-.816-9.565-3.566,8.814-3.406,18.933-2.129,28.271l2.826,8.077c1.78-5.413.087-11.178.126-16.836C-1625.355,616.264-1625.887,612.711-1625.385,609.531Z" transform="translate(1629.16 -599.966)"/>
        </g>
      </g>
      <g id="Group_18697" data-name="Group 18697" transform="translate(19.394)">
        <path id="Path_17751" data-name="Path 17751" d="M-1752.149,572.732s3.72,25.016,4.44,27.207.72,8.646.72,8.646-3.9,7.267-4.144,12.319l47.011.1-3.055-20.757a35.256,35.256,0,0,1-.069-3.941c.2-3.655.48-11.5,1.527-16.317,1.218-5.6-.421-15.194-.421-15.194l-14.042-3.459c-3.324,4.776-11.616,4.84-14.886,0l-15.848,4.48Z" transform="translate(1752.149 -561.332)" fill="#fb725e"/>
      </g>
      <g id="Group_18699" data-name="Group 18699" transform="translate(65.287 33.777)">
        <g id="Group_18698" data-name="Group 18698">
          <path id="Path_17752" data-name="Path 17752" d="M-1620.362,662.469a.917.917,0,0,1,.141-.223c.1-.138.245-.333.432-.57a12.977,12.977,0,0,1,1.613-1.727,8.342,8.342,0,0,1,1.99-1.278c.276-.124.5-.216.665-.269a.876.876,0,0,1,.253-.071,13.1,13.1,0,0,0-2.81,1.733,16.887,16.887,0,0,0-1.63,1.681A7,7,0,0,1-1620.362,662.469Z" transform="translate(1620.363 -658.328)" fill="#263238"/>
        </g>
      </g>
      <g id="Group_18701" data-name="Group 18701" transform="translate(15.084 31.721)">
        <g id="Group_18700" data-name="Group 18700">
          <path id="Path_17753" data-name="Path 17753" d="M-1757.854,658.092c-.028.008-.138-.509-.493-1.272a7.681,7.681,0,0,0-1.968-2.59,7.69,7.69,0,0,0-2.877-1.519c-.811-.226-1.34-.249-1.335-.279a1.551,1.551,0,0,1,.369.008,6.393,6.393,0,0,1,.994.168,7.313,7.313,0,0,1,2.947,1.507,7.313,7.313,0,0,1,1.968,2.661,6.328,6.328,0,0,1,.328.953A1.592,1.592,0,0,1-1757.854,658.092Z" transform="translate(1764.527 -652.425)" fill="#263238"/>
        </g>
      </g>
      <g id="Group_18703" data-name="Group 18703" transform="translate(17.792 19.482)">
        <g id="Group_18702" data-name="Group 18702">
          <path id="Path_17754" data-name="Path 17754" d="M-1752.484,621.629a.745.745,0,0,1-.213-.116c-.133-.082-.318-.21-.54-.376a13.059,13.059,0,0,1-1.615-1.451,19.051,19.051,0,0,1-1.392-1.663,4.9,4.9,0,0,1-.5-.743,5.825,5.825,0,0,1,.589.677c.353.426.839,1.014,1.418,1.626a18.1,18.1,0,0,0,1.572,1.471A7.724,7.724,0,0,1-1752.484,621.629Z" transform="translate(1756.75 -617.279)" fill="#263238"/>
        </g>
      </g>
      <g id="Group_18705" data-name="Group 18705" transform="translate(32.188 37.373)">
        <g id="Group_18704" data-name="Group 18704">
          <path id="Path_17755" data-name="Path 17755" d="M-1692.725,668.654a.257.257,0,0,1-.038.058l-.124.16c-.114.137-.268.35-.5.6a19.757,19.757,0,0,1-2.035,2.011,27.333,27.333,0,0,1-3.43,2.5,47.381,47.381,0,0,1-4.57,2.473c-1.664.795-3.272,1.5-4.726,2.153s-2.758,1.257-3.836,1.8-1.935,1.007-2.519,1.343c-.295.164-.517.3-.672.389l-.176.1a.276.276,0,0,1-.063.03s.017-.017.054-.043l.168-.112c.151-.095.368-.242.659-.414.575-.353,1.427-.835,2.5-1.388s2.374-1.17,3.827-1.83,3.058-1.369,4.719-2.162a49.369,49.369,0,0,0,4.562-2.455,28.394,28.394,0,0,0,3.434-2.462,21.789,21.789,0,0,0,2.061-1.969c.234-.243.4-.45.516-.58l.135-.15C-1692.745,668.668-1692.727,668.652-1692.725,668.654Z" transform="translate(1715.411 -668.654)" fill="#263238"/>
        </g>
      </g>
      <g id="Group_18707" data-name="Group 18707" transform="translate(20.518 16.233)">
        <g id="Group_18706" data-name="Group 18706">
          <path id="Path_17756" data-name="Path 17756" d="M-1748.922,650.894a.249.249,0,0,1,0-.061c0-.047.005-.107.009-.181q.016-.253.044-.707a17.634,17.634,0,0,1,.531-2.615,43.315,43.315,0,0,1,3.618-8.628l-.009.038c-.186-2.722-.469-5.762-.795-8.959-.619-6.037-1.271-11.493-1.745-15.441-.239-1.968-.432-3.563-.567-4.675l-.151-1.272c-.015-.139-.027-.249-.036-.331a.651.651,0,0,1-.007-.114.629.629,0,0,1,.022.112c.013.081.03.19.051.329.042.3.1.724.179,1.268.146,1.111.356,2.7.615,4.669.5,3.945,1.17,9.4,1.79,15.439.325,3.2.6,6.24.781,8.965v.02l-.01.018a44.7,44.7,0,0,0-3.659,8.583,18.938,18.938,0,0,0-.566,2.6q-.042.451-.065.7l-.02.181A.26.26,0,0,1-1748.922,650.894Z" transform="translate(1748.924 -607.948)" fill="#263238"/>
        </g>
      </g>
      <g id="Group_18709" data-name="Group 18709" transform="translate(64.263 11.985)">
        <g id="Group_18708" data-name="Group 18708">
          <path id="Path_17757" data-name="Path 17757" d="M-1621.161,595.749a.711.711,0,0,1,.005.124c0,.089,0,.21,0,.364,0,.32.005.793-.025,1.4-.033,1.215-.159,2.971-.375,5.134s-.526,4.731-.844,7.585-.633,6-.733,9.307a51.435,51.435,0,0,0,.642,9.3c.418,2.84.91,5.381,1.292,7.519s.674,3.873.835,5.078c.087.6.136,1.071.172,1.389.015.154.028.273.037.362a.68.68,0,0,1,.008.124.751.751,0,0,1-.023-.122c-.012-.088-.03-.208-.052-.36-.045-.317-.1-.784-.2-1.384-.179-1.2-.48-2.933-.883-5.067s-.9-4.675-1.324-7.518a50.874,50.874,0,0,1-.655-9.323c.1-3.318.422-6.464.746-9.318s.649-5.421.876-7.581.37-3.911.422-5.125c.039-.606.039-1.078.053-1.4.006-.154.01-.275.013-.364A.8.8,0,0,1-1621.161,595.749Z" transform="translate(1623.302 -595.749)" fill="#263238"/>
        </g>
      </g>
      <g id="Group_18711" data-name="Group 18711" transform="translate(21.257 17.344)" opacity="0.3">
        <g id="Group_18710" data-name="Group 18710">
          <path id="Path_17758" data-name="Path 17758" d="M-1746.511,611.138a56.183,56.183,0,0,0,2.725,23.72Z" transform="translate(1746.801 -611.138)"/>
        </g>
      </g>
      <g id="Group_18713" data-name="Group 18713" transform="translate(39.108 42.144)" opacity="0.3">
        <g id="Group_18712" data-name="Group 18712">
          <path id="Path_17759" data-name="Path 17759" d="M-1684.02,685.269c-3.562,3.272-7.136,6.068-11.518,7.625a12.968,12.968,0,0,0,9.19-3.1,17.2,17.2,0,0,0,5.54-7.444Z" transform="translate(1695.538 -682.354)"/>
        </g>
      </g>
      <g id="Group_18715" data-name="Group 18715" transform="translate(46.568 39.695)">
        <g id="Group_18714" data-name="Group 18714">
          <path id="Path_17760" data-name="Path 17760" d="M-1674.116,684.29c-.027-.031,2.189-2.064,4.95-4.539s5.022-4.459,5.05-4.428-2.188,2.063-4.949,4.54S-1674.088,684.322-1674.116,684.29Z" transform="translate(1674.116 -675.323)" fill="#263238"/>
        </g>
      </g>
    </g>
    <g id="Group_18717" data-name="Group 18717" transform="translate(68.722 26.399)">
      <path id="Path_17761" data-name="Path 17761" d="M-1658.292,521.39a1.817,1.817,0,0,1-1.817,1.817,1.817,1.817,0,0,1-1.818-1.817,1.818,1.818,0,0,1,1.818-1.818A1.817,1.817,0,0,1-1658.292,521.39Z" transform="translate(1661.927 -519.572)" fill="#455a64"/>
    </g>
    <g id="Group_18721" data-name="Group 18721" transform="translate(57.12 2.408)">
      <g id="Group_18718" data-name="Group 18718" transform="translate(9.342 32.894)">
        <path id="Path_17762" data-name="Path 17762" d="M-1651.7,561.94q-.8-6.664-1.607-13.329l-11.5-3.471a114.741,114.741,0,0,1-3.608,24.533,31.95,31.95,0,0,0,13.2,1.374q.293-3.219.587-6.439.431,2.427.862,4.854a4.766,4.766,0,0,0,2.16-3.386A14.112,14.112,0,0,0-1651.7,561.94Z" transform="translate(1668.416 -545.14)" fill="#263238"/>
      </g>
      <g id="Group_18720" data-name="Group 18720">
        <g id="Group_18719" data-name="Group 18719">
          <path id="Path_17763" data-name="Path 17763" d="M-1678.187,509.516s.009-.057.034-.167.064-.278.113-.489c.1-.435.252-1.066.443-1.877.376-1.632.934-3.992,1.476-6.936a74.894,74.894,0,0,0,1.252-10.428,45.163,45.163,0,0,0-1.16-12.765,32.031,32.031,0,0,0-5.333-11.6c-.3-.392-.585-.788-.907-1.146s-.611-.736-.939-1.07l-.478-.507-.487-.483c-.318-.324-.651-.624-.97-.926-1.291-1.195-2.552-2.245-3.68-3.231s-2.136-1.894-2.97-2.746c-.212-.209-.4-.424-.6-.624s-.37-.4-.534-.592-.326-.378-.478-.555l-.41-.523c-.266-.325-.468-.639-.654-.9s-.329-.5-.441-.686l-.256-.431c-.057-.1-.083-.149-.083-.149s.035.047.1.142l.269.423c.116.187.26.418.453.677s.394.571.663.892l.413.517.481.549c.166.193.344.389.538.586s.385.411.6.618c.837.844,1.847,1.746,2.98,2.724s2.4,2.026,3.695,3.219c.321.3.655.6.975.926l.491.484.481.508c.331.335.628.709.947,1.073s.612.757.915,1.15a32.031,32.031,0,0,1,5.367,11.65,44.98,44.98,0,0,1,1.153,12.807,73.644,73.644,0,0,1-1.285,10.442c-.556,2.945-1.13,5.3-1.523,6.93-.2.813-.359,1.444-.471,1.871-.055.209-.1.371-.128.485S-1678.187,509.516-1678.187,509.516Z" transform="translate(1695.244 -450.679)" fill="#455a64"/>
        </g>
      </g>
    </g>
  </g>
</svg>
