<svg xmlns="http://www.w3.org/2000/svg" xmlns:xlink="http://www.w3.org/1999/xlink" width="194.407" height="205.931" viewBox="0 0 194.407 205.931">
  <defs>
    <linearGradient id="linear-gradient" x1="0.5" x2="0.5" y2="1" gradientUnits="objectBoundingBox">
      <stop offset="0" stop-color="#6400d8"/>
      <stop offset="1" stop-color="#1a00a7"/>
    </linearGradient>
    <clipPath id="clip-path">
      <rect id="Rectangle_5966" data-name="Rectangle 5966" width="3.862" height="10.619" fill="none"/>
    </clipPath>
    <clipPath id="clip-path-2">
      <rect id="Rectangle_5967" data-name="Rectangle 5967" width="2.099" height="1.197" fill="none"/>
    </clipPath>
    <clipPath id="clip-path-3">
      <rect id="Rectangle_5969" data-name="Rectangle 5969" width="16.089" height="48.967" fill="none"/>
    </clipPath>
    <clipPath id="clip-path-4">
      <rect id="Rectangle_5972" data-name="Rectangle 5972" width="15.668" height="9.783" fill="none"/>
    </clipPath>
    <clipPath id="clip-path-5">
      <rect id="Rectangle_5973" data-name="Rectangle 5973" width="15.382" height="10.576" fill="none"/>
    </clipPath>
    <clipPath id="clip-path-6">
      <rect id="Rectangle_5970" data-name="Rectangle 5970" width="6.925" height="0.383" fill="none"/>
    </clipPath>
  </defs>
  <g id="Group_58337" data-name="Group 58337" transform="translate(-77 -105)">
    <g id="Group_58047" data-name="Group 58047" transform="translate(39.847 449.542)">
      <path id="Path_35557" data-name="Path 35557" d="M0,0H190.046V4.89H0Z" transform="translate(41.014 -144)" stroke="rgba(0,0,0,0)" stroke-width="1" fill="url(#linear-gradient)"/>
    </g>
    <path id="Path_40854" data-name="Path 40854" d="M169.426,432.659c.008.015.069.028.171.039.849.093,4.77-.146,4.77-.146.179-.506-.16-2.028-.648-2.117s-4.661.192-4.661.192-.657.086-.821,1.191c-.1.682,1.189.84,1.189.84" transform="translate(-7.941 -127.178)" fill="#ffbe9d"/>
    <path id="Path_40858" data-name="Path 40858" d="M174.357,430.248a7.31,7.31,0,0,1-1.8.167,6.9,6.9,0,0,1-1.785-.064,7.307,7.307,0,0,1,1.8-.167,6.9,6.9,0,0,1,1.785.064" transform="translate(-9.662 -127.012)" fill="#eb996e"/>
    <ellipse id="Ellipse_1631" data-name="Ellipse 1631" cx="93.5" cy="93" rx="93.5" ry="93" transform="translate(77 105)" fill="#fff" opacity="0.267"/>
    <g id="Group_58048" data-name="Group 58048" transform="translate(-24.365 -0.74)">
      <path id="Path_40717" data-name="Path 40717" d="M159.1,407.444H183.8V388.952h1.715v-5.169l-26.623-5.045.8,10.215Z" transform="translate(21.002 -100.265)" fill="#e8505b"/>
      <path id="Path_40721" data-name="Path 40721" d="M295.311,349.773c-9.558-6.531-11.839-18.814-11.578-29.88.043-1.847-.18-3.791.682-5.421s2.9-2.757,4.561-2c1.378.631,1.992,2.22,2.773,3.531a10.8,10.8,0,0,0,4.373,4.091,4.115,4.115,0,0,0,3.795.3c1.583-.9,1.748-3.1,1.718-4.934q-.086-5.134-.171-10.267a17.114,17.114,0,0,1,.5-5.46,5.7,5.7,0,0,1,3.54-3.889,3.455,3.455,0,0,1,4.3,2.271,16.942,16.942,0,0,1,.076,2.286,1.931,1.931,0,0,0,1.149,1.807,2.221,2.221,0,0,0,2.008-.864,24.426,24.426,0,0,0,4.315-6.664,33.879,33.879,0,0,1,4.018-6.872,9.931,9.931,0,0,1,6.69-3.844c2.629-.176,5.447,1.418,6.139,3.993s-.79,5.225-2.411,7.337a40.99,40.99,0,0,1-8.45,8.224,3.373,3.373,0,0,0-1.412,1.55c-.386,1.228.787,2.432,2,2.822a21.235,21.235,0,0,0,4.291.438c1.434.154,2.991.769,3.547,2.117.772,1.869-.778,3.853-2.309,5.157a35.111,35.111,0,0,1-10.33,6.107,11.851,11.851,0,0,0-3.842,1.917,3.4,3.4,0,0,0-1.048,3.9,3.462,3.462,0,0,0,3.778,1.407,24.511,24.511,0,0,0,4.014-1.581c2.514-.979,5.774-.839,7.414,1.326a5.811,5.811,0,0,1,.672,5.132,13.394,13.394,0,0,1-2.737,4.568A35.313,35.313,0,0,1,312.4,349.144c-5.833,2.09-11.252,2.7-17.092.629" transform="translate(-54.685 -43.074)" fill="#f5f5f5" opacity="0.4"/>
      <path id="Path_40722" data-name="Path 40722" d="M316.948,344.795A164.5,164.5,0,0,1,323.3,327.01l1.9-4.576c.628-1.5,1.251-2.989,1.95-4.406a82.142,82.142,0,0,1,4.484-7.917c1.548-2.449,3.107-4.717,4.579-6.827s2.892-4.046,4.257-5.758a65.2,65.2,0,0,1,7.033-7.59c.9-.828,1.614-1.447,2.106-1.861l.562-.467a1.373,1.373,0,0,1,.2-.15,1.251,1.251,0,0,1-.177.177l-.54.492c-.477.43-1.179,1.065-2.062,1.906a68.988,68.988,0,0,0-6.936,7.644c-1.349,1.717-2.749,3.659-4.214,5.77s-3.009,4.385-4.547,6.833a83.212,83.212,0,0,0-4.449,7.9c-.693,1.411-1.309,2.887-1.938,4.391l-1.9,4.575a168.523,168.523,0,0,0-6.361,17.74" transform="translate(-73.539 -45.06)" fill="#e0e0e0"/>
      <path id="Path_40723" data-name="Path 40723" d="M336.947,331.62a3.758,3.758,0,0,1-.187-.781c-.1-.507-.225-1.244-.363-2.157-.279-1.826-.577-4.36-.9-7.156s-.653-5.32-.958-7.137c-.151-.909-.279-1.643-.375-2.149a3.653,3.653,0,0,1-.111-.8,3.655,3.655,0,0,1,.239.768c.135.5.3,1.228.481,2.134.367,1.812.74,4.341,1.059,7.14.308,2.759.586,5.256.8,7.163.1.862.188,1.587.257,2.169a3.66,3.66,0,0,1,.058.8" transform="translate(-83.24 -58.667)" fill="#e0e0e0"/>
      <path id="Path_40724" data-name="Path 40724" d="M364.311,347.281a5.115,5.115,0,0,1-.941.122c-.605.061-1.482.143-2.56.28-2.16.256-5.132.714-8.388,1.363s-6.177,1.373-8.276,1.953c-1.051.283-1.9.534-2.481.7a5.1,5.1,0,0,1-.919.236,5.034,5.034,0,0,1,.879-.363c.574-.209,1.41-.5,2.456-.811,2.087-.641,5.01-1.4,8.276-2.056a83.352,83.352,0,0,1,8.428-1.267c1.086-.106,1.968-.152,2.578-.171a4.993,4.993,0,0,1,.948.01" transform="translate(-87.039 -78.985)" fill="#e0e0e0"/>
      <path id="Path_40725" data-name="Path 40725" d="M301.61,379.58a1.2,1.2,0,0,1-.165-.286l-.413-.85c-.355-.739-.841-1.823-1.424-3.17-1.167-2.693-2.662-6.464-4.256-10.647s-3.053-7.964-4.162-10.677l-1.323-3.21-.355-.876a.167.167,0,1,1,.062-.028l.412.849c.355.74.841,1.823,1.424,3.171,1.167,2.693,2.662,6.463,4.257,10.648s3.052,7.962,4.161,10.676c.544,1.318.991,2.4,1.323,3.21l.355.876a1.224,1.224,0,0,1,.1.315" transform="translate(-57.915 -80.283)" fill="#e0e0e0"/>
      <path id="Path_40726" data-name="Path 40726" d="M348.878,394.827a1.28,1.28,0,0,1-.31.132l-.908.315-3.348,1.123c-2.827.95-6.717,2.306-11.013,3.81s-8.2,2.827-11.051,3.718c-1.424.446-2.579.8-3.382,1.02l-.927.254a1.209,1.209,0,0,1-.33.066,1.285,1.285,0,0,1,.31-.132l.908-.314,3.348-1.124c2.827-.949,6.717-2.306,11.015-3.81s8.2-2.827,11.05-3.717c1.424-.447,2.579-.8,3.383-1.02l.927-.254a1.224,1.224,0,0,1,.33-.066" transform="translate(-73.913 -105.968)" fill="#e0e0e0"/>
      <path id="Path_40727" data-name="Path 40727" d="M400.415,48.669a4.428,4.428,0,0,0,2.639-4.1,4.162,4.162,0,1,0-8.307-.038,4.422,4.422,0,0,0,2.647,4.135c-6.392.963-6.1,7.909-6.1,7.909l15.114.07s.345-7.022-5.991-7.979" transform="translate(-115.712 95.252)" fill="#e0e0e0" opacity="0.257"/>
      <path id="Path_40728" data-name="Path 40728" d="M401.021,180.272a6.836,6.836,0,0,1,1.669-.725l.344-1.652,2.791-.049.4,1.639a6.834,6.834,0,0,1,1.694.666l1.411-.925,2.009,1.939-.875,1.442a6.832,6.832,0,0,1,.725,1.67l1.652.344.049,2.791-1.639.4a6.853,6.853,0,0,1-.666,1.693l.924,1.411-1.939,2.009-1.442-.875a6.848,6.848,0,0,1-1.669.725l-.344,1.652-2.791.049-.4-1.639a6.84,6.84,0,0,1-1.694-.666l-1.411.925-2.009-1.939.875-1.442a6.833,6.833,0,0,1-.725-1.669l-1.652-.344-.049-2.791,1.639-.4a6.855,6.855,0,0,1,.666-1.694l-.925-1.411,1.939-2.009Zm1.488,3.719a2.995,2.995,0,1,0,4.234-.074,2.995,2.995,0,0,0-4.234.074" transform="translate(-118.531 17.123)" fill="#e0e0e0" opacity="0.257"/>
      <path id="Path_40729" data-name="Path 40729" d="M409.532,190.777a2.265,2.265,0,0,1,.558-.489,2.982,2.982,0,0,1,1.954-.462,3.022,3.022,0,0,1,1.328.472,3.065,3.065,0,0,1,1.074,1.21,3.075,3.075,0,0,1,.289,1.762,3.055,3.055,0,0,1-2.528,2.619,3.061,3.061,0,0,1-1.772-.227,3.062,3.062,0,0,1-1.247-1.031,3.013,3.013,0,0,1-.518-1.311,2.983,2.983,0,0,1,.393-1.969,2.269,2.269,0,0,1,.47-.574c.016.014-.181.2-.412.608a2.986,2.986,0,0,0-.331,1.917,2.926,2.926,0,0,0,1.71,2.215,2.92,2.92,0,0,0,1.679.206,2.9,2.9,0,0,0,2.389-2.476,2.93,2.93,0,0,0-.265-1.67,2.924,2.924,0,0,0-2.274-1.631,2.986,2.986,0,0,0-1.9.4c-.4.245-.578.448-.593.433" transform="translate(-125.554 10.337)" fill="#e0e0e0"/>
      <path id="Path_40730" data-name="Path 40730" d="M400.94,180.2a.7.7,0,0,1-.093-.049l-.277-.16-1.087-.642.034,0-1.927,2.019.005-.054.93,1.407.016.026-.015.027a6.817,6.817,0,0,0-.656,1.682l-.008.033-.033.008-1.638.407.046-.061c.018.879.036,1.812.055,2.791l-.054-.065,1.652.341.042.009.012.042a6.779,6.779,0,0,0,.72,1.65l.023.038-.023.039-.872,1.443-.012-.094,2.011,1.936-.1-.009,1.41-.926.042-.027.043.024a6.8,6.8,0,0,0,1.674.657l.049.012.012.049c.126.513.264,1.073.4,1.639l-.083-.064,2.791-.05-.082.068.344-1.652.01-.051.05-.014a6.753,6.753,0,0,0,1.647-.716h0l.045-.026.044.027,1.442.875-.106.013,1.939-2.008-.01.106-.924-1.411-.028-.043.025-.045a6.762,6.762,0,0,0,.659-1.672l.012-.049.049-.012,1.639-.4-.062.081q-.023-1.429-.046-2.791l.063.076-1.652-.346-.046-.01-.013-.045a6.762,6.762,0,0,0-.715-1.652l-.023-.038.023-.039.877-1.44.012.088-2-1.943.081.008-1.413.921-.032.02-.032-.018a6.824,6.824,0,0,0-1.677-.665l-.034-.008-.008-.033-.4-1.64.05.039-2.791.036.037-.03-.354,1.65,0,.016-.016,0a7.1,7.1,0,0,0-1.276.491l-.3.157a.751.751,0,0,1-.1.051.848.848,0,0,1,.093-.063c.064-.039.161-.1.294-.17a6.614,6.614,0,0,1,1.274-.519l-.019.021c.091-.451.2-.994.333-1.654l.006-.03h.031l2.791-.061h.04l.01.04.407,1.637-.041-.042a6.91,6.91,0,0,1,1.71.667l-.064,0,1.409-.928.044-.029.038.037,2.012,1.935.041.04-.029.049-.872,1.444V182.5a6.919,6.919,0,0,1,.736,1.687l-.058-.055,1.653.342.062.013v.064q.025,1.361.051,2.791v.065l-.064.016-1.638.4.061-.061a6.921,6.921,0,0,1-.673,1.715l0-.087.925,1.411.037.057-.047.049-1.939,2.009-.048.049-.058-.036L408,192.058h.087a6.935,6.935,0,0,1-1.688.733l.06-.065-.344,1.652-.014.067h-.068l-2.791.048h-.067l-.016-.065-.4-1.639.061.061a6.931,6.931,0,0,1-1.714-.675l.084,0-1.412.923-.053.035-.046-.045-2.006-1.942-.044-.042.032-.052.876-1.441v.077a6.952,6.952,0,0,1-.73-1.688l.054.05-1.652-.347-.053-.011v-.054c-.015-.98-.029-1.913-.042-2.791V184.8l.047-.012,1.64-.4-.042.041a6.906,6.906,0,0,1,.677-1.7l0,.052-.919-1.415-.019-.029.024-.025,1.951-2,.016-.016.018.012,1.063.661.273.174a.767.767,0,0,1,.093.063" transform="translate(-118.45 17.191)" fill="#e0e0e0"/>
      <path id="Path_40731" data-name="Path 40731" d="M58.309,32.749a3.266,3.266,0,0,0,3.08-.664c.536.769,1.214,1.684,1.981,2.659q.633.8,1.22,1.5a3.332,3.332,0,0,0-1.716,3.928c-.722.225-1.538.5-2.411.821-.772.283-1.485.566-2.123.832a3.614,3.614,0,1,0,.127.822c.7-.22,1.479-.483,2.313-.79.894-.328,1.712-.655,2.418-.956a3.348,3.348,0,1,0,2.255-4.938c-.408-.557-.867-1.162-1.361-1.791-.793-1.009-1.545-1.907-2.179-2.619a3.909,3.909,0,0,0,.675-1.27,3.353,3.353,0,1,0-6.373-2.011,3.5,3.5,0,0,0,2.093,4.473" transform="translate(76.879 103.451)" fill="#e0e0e0" opacity="0.257"/>
      <path id="Path_40732" data-name="Path 40732" d="M10.666,223.3l3.376,4.16a.616.616,0,0,0,.527.226l5.34-.422a.616.616,0,0,1,.566.949l-2.913,4.5a.617.617,0,0,0-.052.571l2.052,4.948a.616.616,0,0,1-.728.832l-5.176-1.382a.616.616,0,0,0-.559.127l-4.072,3.48a.616.616,0,0,1-1.016-.435l-.286-5.35A.617.617,0,0,0,7.43,235l-4.569-2.8a.616.616,0,0,1,.1-1.1l5-1.925a.617.617,0,0,0,.378-.431l1.249-5.21a.616.616,0,0,1,1.078-.244" transform="translate(104.807 -8.532)" fill="#e0e0e0" opacity="0.257"/>
      <path id="Path_40733" data-name="Path 40733" d="M297.692,252.51a6.043,6.043,0,1,0-11.251,3.053h0l.017.022c.231.391.522.67.815,1.08l3.508,4.648a1.091,1.091,0,0,0,1.742,0l3.45-4.571a13.059,13.059,0,0,0,.878-1.163l.013-.016h0a6,6,0,0,0,.834-3.053m-6.043,2.631a2.659,2.659,0,1,1,2.659-2.659,2.66,2.66,0,0,1-2.659,2.659" transform="translate(-55.759 -21.805)" fill="#e0e0e0" opacity="0.257"/>
      <rect id="Rectangle_5964" data-name="Rectangle 5964" width="189.009" height="189.964" transform="translate(106.264 118.013)" fill="none" opacity="0.285"/>
      <path id="Path_40734" data-name="Path 40734" d="M183.387,193.195a1.539,1.539,0,0,1-.16.264l-.495.73c-.435.63-1.071,1.538-1.868,2.651-1.592,2.228-3.821,5.285-6.353,8.61s-4.894,6.284-6.673,8.368c-.895,1.037-1.62,1.875-2.15,2.43l-.606.641a1.627,1.627,0,0,1-.222.213,1.539,1.539,0,0,1,.189-.244l.574-.669c.509-.572,1.215-1.424,2.093-2.473,1.745-2.108,4.086-5.078,6.615-8.4s4.779-6.363,6.4-8.566l1.926-2.609.53-.7a1.6,1.6,0,0,1,.2-.238" transform="translate(12.74 8.416)" fill="#e8505b"/>
      <path id="Path_40735" data-name="Path 40735" d="M234.257,73.249c.062.009-.212,2.328-.61,5.179s-.772,5.157-.833,5.148.212-2.327.61-5.179.772-5.156.833-5.148" transform="translate(-25.805 76.459)" fill="#e8505b"/>
      <path id="Path_40736" data-name="Path 40736" d="M297.4,66.3a2.466,2.466,0,0,1-.289.253l-.852.69-3.159,2.5-10.471,8.189-10.512,8.137-3.2,2.446-.878.656a2.449,2.449,0,0,1-.315.217,2.408,2.408,0,0,1,.288-.252l.852-.69,3.158-2.5,10.475-8.192,10.513-8.138,3.2-2.445.877-.656a2.438,2.438,0,0,1,.315-.216" transform="translate(-45.612 80.402)" fill="#e8505b"/>
      <path id="Path_40737" data-name="Path 40737" d="M322.581,132.136c0,.062-10.6.942-23.681,1.965s-23.7,1.8-23.7,1.741,10.6-.942,23.683-1.965,23.694-1.8,23.7-1.741" transform="translate(-49.855 43.055)" fill="#e8505b"/>
      <path id="Path_40738" data-name="Path 40738" d="M290.8,178.966c-.028.055-4.525-2.183-10.043-5s-9.969-5.145-9.941-5.2,4.524,2.183,10.044,5,9.968,5.144,9.94,5.2" transform="translate(-47.369 22.274)" fill="#e8505b"/>
      <path id="Path_40739" data-name="Path 40739" d="M167.816,72.3a2,2,0,0,1-.222-.267l-.6-.791c-.518-.688-1.258-1.693-2.164-2.94-1.813-2.493-4.279-5.964-6.937-9.845s-5-7.438-6.672-10.03c-.835-1.3-1.5-2.348-1.958-3.081l-.52-.846a1.944,1.944,0,0,1-.168-.3,2.052,2.052,0,0,1,.206.279l.555.823,2.018,3.041c1.7,2.568,4.068,6.109,6.724,9.989s5.1,7.364,6.881,9.88l2.106,2.981.566.815a1.992,1.992,0,0,1,.185.293" transform="translate(21.979 92.941)" fill="#e8505b"/>
      <path id="Path_40740" data-name="Path 40740" d="M162.721,119.98c-.026.056-2.973-1.276-6.58-2.976s-6.511-3.123-6.485-3.18,2.972,1.276,6.581,2.976,6.51,3.123,6.484,3.18" transform="translate(21.364 53.442)" fill="#e8505b"/>
      <path id="Path_40741" data-name="Path 40741" d="M117.817,141.391c-.006.062-9.941-.778-22.187-1.876s-22.175-2.038-22.169-2.1,9.938.778,22.19,1.877,22.173,2.038,22.167,2.1" transform="translate(64.59 40.061)" fill="#e8505b"/>
      <path id="Path_40742" data-name="Path 40742" d="M149.514,174.039c.024.057-5.874,2.625-13.172,5.735s-13.238,5.585-13.263,5.527,5.873-2.624,13.174-5.735,13.237-5.584,13.261-5.527" transform="translate(36.442 19.283)" fill="#e8505b"/>
      <path id="Path_40743" data-name="Path 40743" d="M219.214,118.263a21.622,21.622,0,1,1-21.622-21.622,21.622,21.622,0,0,1,21.622,21.622" transform="translate(6.437 63.19)" fill="#fff" opacity="0.348"/>
      <path id="Path_40745" data-name="Path 40745" d="M220.731,125.971a8.588,8.588,0,1,0-9.383,11.061l.644,2.069,7.187-2.238s-.318-1.175-.625-2.216a8.586,8.586,0,0,0,2.176-8.675" transform="translate(-9.431 49.975)" fill="#ffda00"/>
      <path id="Path_40746" data-name="Path 40746" d="M223.119,148.725s-.01-.035-.023-.1-.034-.175-.059-.306c-.049-.27-.122-.667-.2-1.182s-.171-1.146-.229-1.884a12.729,12.729,0,0,1,.034-2.514,8.14,8.14,0,0,1,.292-1.437,1.582,1.582,0,0,1,.4-.678.887.887,0,0,1,.786-.217.586.586,0,0,1,.361.244.6.6,0,0,1,.1.431,1.224,1.224,0,0,1-.463.743,2.35,2.35,0,0,1-1.743.41,2.379,2.379,0,0,1-1.584-1.007,1.8,1.8,0,0,1-.343-.931.772.772,0,0,1,.568-.8.555.555,0,0,1,.507.159.778.778,0,0,1,.224.485,1.68,1.68,0,0,1-.323.994,2.564,2.564,0,0,1-1.739,1.15,2.233,2.233,0,0,1-1.954-.688,1.3,1.3,0,0,1-.365-.976.656.656,0,0,1,.247-.475.643.643,0,0,1,.519-.111.857.857,0,0,1,.458.252,1.34,1.34,0,0,1,.272.434,2.466,2.466,0,0,1,.167.976,2.557,2.557,0,0,1-.727,1.735,2.607,2.607,0,0,1-1.624.762,1.364,1.364,0,0,1-.86-.162.665.665,0,0,1-.291-.775.561.561,0,0,1,.312-.3.811.811,0,0,1,.415-.046,1.243,1.243,0,0,1,.677.406c.344.381.645.761.941,1.122,1.17,1.449,2.06,2.665,2.665,3.512.3.424.532.756.687.982l.174.258c.039.059.056.09.056.09s-.023-.028-.065-.084l-.183-.253-.7-.97c-.615-.839-1.514-2.048-2.69-3.489-.3-.357-.6-.741-.941-1.112a1.165,1.165,0,0,0-.631-.379.515.515,0,0,0-.374.957,1.274,1.274,0,0,0,.8.145,2.51,2.51,0,0,0,1.563-.738,2.46,2.46,0,0,0,.7-1.669,2.377,2.377,0,0,0-.161-.935.934.934,0,0,0-.655-.623.541.541,0,0,0-.437.092.553.553,0,0,0-.206.4,1.194,1.194,0,0,0,.339.9,2.129,2.129,0,0,0,1.861.654,2.458,2.458,0,0,0,1.665-1.1,1.585,1.585,0,0,0,.307-.928.675.675,0,0,0-.193-.42.45.45,0,0,0-.414-.132.6.6,0,0,0-.366.258.741.741,0,0,0-.119.44,1.7,1.7,0,0,0,.324.876,2.283,2.283,0,0,0,1.516.968,2.26,2.26,0,0,0,1.669-.387,1.134,1.134,0,0,0,.432-.682.507.507,0,0,0-.389-.578.8.8,0,0,0-.709.194,1.5,1.5,0,0,0-.384.642,8.114,8.114,0,0,0-.3,1.42,12.854,12.854,0,0,0-.049,2.5c.053.736.137,1.367.211,1.882s.141.909.183,1.184c.02.132.036.235.048.308s.013.106.013.106" transform="translate(-15.98 38.887)" fill="#263238"/>
      <path id="Path_40747" data-name="Path 40747" d="M229.921,161.284l-6.17,1.922a.485.485,0,0,1-.289-.926l6.17-1.922a.485.485,0,1,1,.289.926" transform="translate(-20.311 27.056)" fill="#263238"/>
      <path id="Path_40748" data-name="Path 40748" d="M230.59,163.433l-6.17,1.922a.485.485,0,0,0,.288.926l.678-.211,1.431,1.431a.623.623,0,0,0,.626.154l2.2-.687a.623.623,0,0,0,.429-.489l.342-1.977.46-.144a.485.485,0,1,0-.289-.926" transform="translate(-20.855 25.312)" fill="#263238"/>
      <g id="Group_58027" data-name="Group 58027" transform="translate(195.324 172.428)">
        <g id="Group_58026" data-name="Group 58026" clip-path="url(#clip-path)">
          <path id="Path_40749" data-name="Path 40749" d="M206.7,128.242a6.317,6.317,0,0,1,1.3-1.6,4.551,4.551,0,0,1,1.149-.761c.3-.129.486-.154.522-.093.082.138-.471.552-1.134,1.372a7.063,7.063,0,0,0-1.011,7.579c.425.966.85,1.511.735,1.621-.05.05-.223-.023-.479-.226a4.554,4.554,0,0,1-.91-1.035,6.312,6.312,0,0,1-.836-1.889,6.687,6.687,0,0,1-.164-2.549" transform="translate(-205.822 -125.754)" fill="#fff"/>
        </g>
      </g>
      <g id="Group_58030" data-name="Group 58030" transform="translate(200.07 171.109)">
        <g id="Group_58029" data-name="Group 58029" clip-path="url(#clip-path-2)">
          <path id="Path_40750" data-name="Path 40750" d="M217.98,123.8c-.521.157-1.024.158-1.163-.1a.445.445,0,0,1,.138-.477,1.723,1.723,0,0,1,1.552-.475c.222.058.363.174.381.318" transform="translate(-216.788 -122.707)" fill="#fff"/>
        </g>
      </g>
      <path id="Path_40751" data-name="Path 40751" d="M233.979,170.824c0,.018-.18-.005-.465,0a3.59,3.59,0,0,0-2.065.709,4.518,4.518,0,0,1-.368.284,1.334,1.334,0,0,1,.321-.343,3.147,3.147,0,0,1,2.112-.726,1.319,1.319,0,0,1,.465.073" transform="translate(-24.827 21.149)" fill="#455a64"/>
      <path id="Path_40752" data-name="Path 40752" d="M232.242,165.971c.009.028-1.1.4-2.476.826s-2.5.753-2.508.726,1.1-.4,2.476-.826,2.5-.753,2.507-.726" transform="translate(-22.659 23.86)" fill="#455a64"/>
      <path id="Path_40753" data-name="Path 40753" d="M232.979,167.94a3.631,3.631,0,0,1-.588.251c-.369.141-.882.325-1.455.512s-1.1.343-1.476.447a3.617,3.617,0,0,1-.623.145,4.072,4.072,0,0,1,.6-.216l1.465-.476,1.463-.482a4.037,4.037,0,0,1,.613-.181" transform="translate(-23.553 22.743)" fill="#455a64"/>
      <path id="Path_40754" data-name="Path 40754" d="M131.233,10.712a.981.981,0,0,1-.02-.172c-.009-.125-.021-.291-.036-.5q-.011-.167-.024-.371c-.015-.136-.045-.283-.069-.443a7.74,7.74,0,0,0-.225-1.094,10.135,10.135,0,0,0-1.181-2.81A10.535,10.535,0,0,0,117.021.828a9.685,9.685,0,0,0-2.662,1.433,11.9,11.9,0,0,0-1.193,1.015,11.9,11.9,0,0,0-1.03,1.219,10.176,10.176,0,0,0-1.5,2.9,11.237,11.237,0,0,0-.543,3.317,11.248,11.248,0,0,0,.542,3.319,10.2,10.2,0,0,0,1.5,2.9,11.962,11.962,0,0,0,1.03,1.219,11.855,11.855,0,0,0,1.193,1.015,10.981,10.981,0,0,0,1.29.829,10.993,10.993,0,0,0,1.372.6,10.563,10.563,0,0,0,12.655-4.489,10.148,10.148,0,0,0,1.181-2.81,7.8,7.8,0,0,0,.225-1.094c.024-.16.054-.307.069-.443s.017-.259.024-.371c.015-.213.027-.379.036-.5a.981.981,0,0,1,.02-.172.961.961,0,0,1,0,.172c0,.125-.008.293-.014.506q-.006.169-.013.373c-.011.137-.038.286-.059.447a7.472,7.472,0,0,1-.206,1.106,10.064,10.064,0,0,1-1.158,2.854,10.7,10.7,0,0,1-7.2,5.072,10.736,10.736,0,0,1-5.634-.452,11.173,11.173,0,0,1-1.4-.613,11.161,11.161,0,0,1-1.318-.843,12.117,12.117,0,0,1-1.219-1.034,12.1,12.1,0,0,1-1.054-1.243A10.394,10.394,0,0,1,110.42,14.1a11.447,11.447,0,0,1-.554-3.389,11.439,11.439,0,0,1,.555-3.388,10.386,10.386,0,0,1,1.538-2.957,12.046,12.046,0,0,1,1.054-1.243,12,12,0,0,1,1.219-1.033,11.2,11.2,0,0,1,1.318-.843,11.261,11.261,0,0,1,1.4-.612,10.739,10.739,0,0,1,5.634-.452,10.694,10.694,0,0,1,7.2,5.071,10.049,10.049,0,0,1,1.158,2.854,7.528,7.528,0,0,1,.206,1.106c.021.162.048.31.059.447s.01.261.013.373c.006.214.011.382.014.507a.961.961,0,0,1,0,.172" transform="translate(43.938 118.013)" fill="#e8505b"/>
      <path id="Path_40755" data-name="Path 40755" d="M131.2,17.773a5.258,5.258,0,0,0-.123-.807,3.189,3.189,0,0,0-.371-.877,3.289,3.289,0,0,0-3.949-1.4,3.087,3.087,0,0,0-.829.447,3.76,3.76,0,0,0-.372.316,3.718,3.718,0,0,0-.321.38,3.263,3.263,0,0,0,0,3.873,3.007,3.007,0,0,0,.692.7,3.08,3.08,0,0,0,.829.447,3.3,3.3,0,0,0,3.949-1.4,3.2,3.2,0,0,0,.371-.877,5.259,5.259,0,0,0,.123-.807.215.215,0,0,1,0,.054c0,.042,0,.093,0,.158a1.5,1.5,0,0,1-.021.257,2.385,2.385,0,0,1-.063.347,3.143,3.143,0,0,1-.361.9,3.355,3.355,0,0,1-2.259,1.6,3.376,3.376,0,0,1-1.771-.141,3.157,3.157,0,0,1-.855-.457,3.756,3.756,0,0,1-.383-.325,3.842,3.842,0,0,1-.331-.391,3.355,3.355,0,0,1,0-3.991,3.8,3.8,0,0,1,.331-.391,3.865,3.865,0,0,1,.383-.325,3.174,3.174,0,0,1,.855-.457,3.375,3.375,0,0,1,1.771-.141,3.354,3.354,0,0,1,2.259,1.6,3.143,3.143,0,0,1,.361.9,2.385,2.385,0,0,1,.063.347,1.5,1.5,0,0,1,.021.257c0,.065,0,.117,0,.158a.215.215,0,0,1,0,.054" transform="translate(35.641 109.841)" fill="#263238"/>
      <path id="Path_40756" data-name="Path 40756" d="M137.561,27.785c.02-.019.745.673,1.619,1.547s1.567,1.6,1.547,1.619-.745-.672-1.619-1.547-1.567-1.6-1.547-1.619" transform="translate(28.227 102.251)" fill="#263238"/>
      <path id="Path_40757" data-name="Path 40757" d="M36.2,114.828a14.211,14.211,0,1,1-14.211-14.211A14.211,14.211,0,0,1,36.2,114.828" transform="translate(101.852 60.934)" fill="#fff" opacity="0.237"/>
      <path id="Path_40758" data-name="Path 40758" d="M36.051,114.707s-.012-.078-.023-.23l-.045-.674q-.014-.223-.031-.5c-.019-.182-.058-.379-.091-.593a10.266,10.266,0,0,0-.3-1.465,13.556,13.556,0,0,0-1.575-3.766,14.2,14.2,0,0,0-9.543-6.642,13.16,13.16,0,0,0-1.784-.206c-.3-.01-.611-.04-.92-.035l-.934.048c-.157.011-.315.01-.471.031l-.471.072c-.314.052-.633.089-.949.154a14.963,14.963,0,0,0-1.881.553,14.665,14.665,0,0,0-1.839.809c-.3.162-.583.35-.878.525a7.183,7.183,0,0,0-.851.587,15.81,15.81,0,0,0-1.6,1.36,15.969,15.969,0,0,0-1.382,1.634,13.652,13.652,0,0,0-2.016,3.884,13.978,13.978,0,0,0,0,8.9,13.646,13.646,0,0,0,2.016,3.885,15.934,15.934,0,0,0,1.382,1.635,15.92,15.92,0,0,0,1.6,1.36,7.223,7.223,0,0,0,.851.587c.3.175.581.363.878.525a14.764,14.764,0,0,0,1.84.809,14.963,14.963,0,0,0,1.881.553c.316.065.635.1.949.154l.471.072c.157.021.315.02.471.031l.934.048c.309,0,.616-.025.92-.035a13.1,13.1,0,0,0,1.785-.206,14.195,14.195,0,0,0,9.542-6.643,13.56,13.56,0,0,0,1.575-3.765,10.319,10.319,0,0,0,.3-1.465c.032-.214.072-.411.091-.593s.022-.347.031-.5l.045-.674c.011-.152.023-.23.023-.23s0,.078,0,.23-.013.386-.023.677q-.009.225-.02.5c-.016.183-.051.381-.08.6a10.068,10.068,0,0,1-.279,1.477A13.47,13.47,0,0,1,34.1,122a14.291,14.291,0,0,1-9.616,6.762,13.361,13.361,0,0,1-1.808.215c-.309.011-.619.042-.932.038l-.947-.046c-.159-.011-.319-.01-.478-.03l-.477-.072c-.319-.052-.643-.089-.963-.154a15.109,15.109,0,0,1-1.91-.556,14.879,14.879,0,0,1-1.869-.818c-.3-.164-.593-.354-.893-.531a7.354,7.354,0,0,1-.865-.594,16.14,16.14,0,0,1-1.626-1.379,16.217,16.217,0,0,1-1.405-1.659,13.867,13.867,0,0,1-2.051-3.946,14.177,14.177,0,0,1,0-9.039,13.859,13.859,0,0,1,2.05-3.945,16.212,16.212,0,0,1,1.405-1.658,16.076,16.076,0,0,1,1.626-1.379,7.367,7.367,0,0,1,.865-.594c.3-.177.59-.367.893-.531a14.933,14.933,0,0,1,1.868-.817,15.125,15.125,0,0,1,1.91-.556c.32-.066.644-.1.963-.154l.477-.072c.159-.02.319-.019.478-.03l.947-.046c.313,0,.624.026.932.038a13.285,13.285,0,0,1,1.808.215,14.289,14.289,0,0,1,9.616,6.761,13.478,13.478,0,0,1,1.553,3.809,10.131,10.131,0,0,1,.279,1.477c.029.216.064.414.08.6s.014.349.02.5c.01.291.017.516.023.677s0,.23,0,.23" transform="translate(101.999 61.055)" fill="#e8505b"/>
      <path id="Path_40759" data-name="Path 40759" d="M38.359,124.334a7.578,7.578,0,1,1-7.578-7.578,7.578,7.578,0,0,1,7.578,7.578" transform="translate(93.101 51.778)" fill="#f5f5f5"/>
      <path id="Path_40760" data-name="Path 40760" d="M38.3,124.295s-.015-.166-.033-.482a3.687,3.687,0,0,0-.064-.582,5.52,5.52,0,0,0-.157-.782,7.232,7.232,0,0,0-.839-2.011,7.534,7.534,0,0,0-9.053-3.221,7.067,7.067,0,0,0-1.907,1.026,8.427,8.427,0,0,0-.855.726,8.589,8.589,0,0,0-.738.873,7.5,7.5,0,0,0,0,8.906,6.877,6.877,0,0,0,1.593,1.6,7.078,7.078,0,0,0,1.907,1.026,7.57,7.57,0,0,0,3.959.329,7.579,7.579,0,0,0,5.093-3.55,7.236,7.236,0,0,0,.839-2.011,5.464,5.464,0,0,0,.157-.782,3.677,3.677,0,0,0,.064-.581c.019-.316.033-.482.033-.482s0,.166-.015.483a3.63,3.63,0,0,1-.055.584,5.429,5.429,0,0,1-.15.787,7.189,7.189,0,0,1-.829,2.028,7.587,7.587,0,0,1-9.124,3.274,7.16,7.16,0,0,1-1.93-1.035,6.979,6.979,0,0,1-1.613-1.617,7.579,7.579,0,0,1,0-9.01,6.965,6.965,0,0,1,1.613-1.617,7.158,7.158,0,0,1,1.93-1.035,7.635,7.635,0,0,1,4-.324,7.613,7.613,0,0,1,5.123,3.6,7.192,7.192,0,0,1,.83,2.028,5.423,5.423,0,0,1,.15.787,3.629,3.629,0,0,1,.055.584c.013.317.015.483.015.483" transform="translate(93.16 51.818)" fill="#263238"/>
      <path id="Path_40761" data-name="Path 40761" d="M34.106,122.816a3.864,3.864,0,0,1,1.219.113,5,5,0,0,1,3.735,3.906,5.029,5.029,0,0,1-.208,2.652A5.054,5.054,0,0,1,37.1,131.84a5.014,5.014,0,0,1-5.98,0,5.063,5.063,0,0,1-1.756-2.353,4.99,4.99,0,0,1,.75-4.763,4.934,4.934,0,0,1,2.777-1.795,3.864,3.864,0,0,1,1.219-.113,9.915,9.915,0,0,0-1.2.2,4.942,4.942,0,0,0-2.672,1.807,4.845,4.845,0,0,0-.681,4.6,4.869,4.869,0,0,0,1.692,2.246,4.811,4.811,0,0,0,5.718,0,4.874,4.874,0,0,0,1.691-2.246,4.845,4.845,0,0,0-.681-4.6,4.941,4.941,0,0,0-2.672-1.807,9.927,9.927,0,0,0-1.2-.2" transform="translate(89.776 48.346)" fill="#e8505b"/>
      <path id="Path_40762" data-name="Path 40762" d="M38.53,130.613a.768.768,0,0,1,.394.007,1.565,1.565,0,0,1,.918.566,1.641,1.641,0,0,1,.261,1.569,1.668,1.668,0,0,1-3.146,0,1.641,1.641,0,0,1,.261-1.569,1.566,1.566,0,0,1,.917-.566.768.768,0,0,1,.394-.007c0,.02-.14.022-.373.092a1.574,1.574,0,0,0-.813.578,1.475,1.475,0,1,0,2.37,0,1.574,1.574,0,0,0-.812-.578c-.233-.07-.374-.071-.373-.092" transform="translate(85.352 43.928)" fill="#e8505b"/>
      <path id="Path_40763" data-name="Path 40763" d="M22.056,139.731c2.618-1.826,5.456-3.635,8.074-5.461" transform="translate(93.752 41.843)" fill="#f5f5f5"/>
      <path id="Path_40764" data-name="Path 40764" d="M30.129,134.27c.014.021-1.782,1.26-4.012,2.768s-4.048,2.714-4.062,2.693,1.782-1.26,4.012-2.768,4.048-2.714,4.062-2.693" transform="translate(93.752 41.843)" fill="#263238"/>
      <path id="Path_40765" data-name="Path 40765" d="M21.658,145.551a4.921,4.921,0,0,1-.936.011,4.931,4.931,0,0,1-.933-.079,4.918,4.918,0,0,1,.936-.011,4.928,4.928,0,0,1,.933.079" transform="translate(95.037 35.495)" fill="#263238"/>
      <path id="Path_40766" data-name="Path 40766" d="M23.366,146.856a4.663,4.663,0,0,1,.272-1.263,4.663,4.663,0,0,1-.272,1.263" transform="translate(93.012 35.419)" fill="#263238"/>
      <path id="Path_40767" data-name="Path 40767" d="M24.422,146.445a5.026,5.026,0,0,1,.238-1.322,5.026,5.026,0,0,1-.238,1.322" transform="translate(92.414 35.686)" fill="#263238"/>
      <path id="Path_40768" data-name="Path 40768" d="M21.949,144.415a2.439,2.439,0,0,1,.65.107,2.426,2.426,0,0,1,.63.195,2.438,2.438,0,0,1-.65-.107,2.425,2.425,0,0,1-.63-.195" transform="translate(93.812 36.092)" fill="#263238"/>
      <path id="Path_40769" data-name="Path 40769" d="M132.827,90.523a8.238,8.238,0,1,1-8.238-8.238,8.238,8.238,0,0,1,8.238,8.238" transform="translate(40.259 71.334)" fill="#fff" opacity="0.237"/>
      <path id="Path_40770" data-name="Path 40770" d="M132.679,90.408a.605.605,0,0,1-.018-.133c-.008-.1-.018-.229-.031-.39a4.107,4.107,0,0,0-.074-.63,6.058,6.058,0,0,0-.177-.847,7.872,7.872,0,0,0-.918-2.173,8.153,8.153,0,0,0-9.79-3.465,7.65,7.65,0,0,0-2.057,1.108A7.444,7.444,0,0,0,117.9,85.6a8.092,8.092,0,0,0,0,9.607,7.436,7.436,0,0,0,1.718,1.728,7.648,7.648,0,0,0,2.057,1.109,8.173,8.173,0,0,0,9.79-3.466,7.859,7.859,0,0,0,.918-2.173,6.058,6.058,0,0,0,.177-.847,4.1,4.1,0,0,0,.074-.63c.013-.161.023-.29.031-.39a.605.605,0,0,1,.018-.133.568.568,0,0,1,0,.134c0,.1-.005.23-.009.392a3.818,3.818,0,0,1-.054.637,5.785,5.785,0,0,1-.158.858,7.808,7.808,0,0,1-.895,2.217,8.308,8.308,0,0,1-5.59,3.945,8.345,8.345,0,0,1-4.379-.349,7.817,7.817,0,0,1-2.114-1.131,7.635,7.635,0,0,1-1.768-1.769,8.3,8.3,0,0,1,0-9.869,7.634,7.634,0,0,1,1.768-1.769,7.825,7.825,0,0,1,2.114-1.131,8.343,8.343,0,0,1,4.379-.349,8.3,8.3,0,0,1,5.59,3.945,7.791,7.791,0,0,1,.9,2.217,5.847,5.847,0,0,1,.158.859,3.817,3.817,0,0,1,.054.637c0,.163.006.292.009.393a.568.568,0,0,1,0,.134" transform="translate(40.406 71.448)" fill="#e8505b"/>
      <path id="Path_40771" data-name="Path 40771" d="M131.761,96.738a1.925,1.925,0,0,0,1.147-1.781,1.809,1.809,0,1,0-3.611-.016,1.922,1.922,0,0,0,1.15,1.8c-2.778.418-2.652,3.438-2.652,3.438l6.569.03s.15-3.052-2.6-3.468" transform="translate(33.766 65.242)" fill="#f5f5f5"/>
      <path id="Path_40772" data-name="Path 40772" d="M131.7,96.694a3.2,3.2,0,0,1,1.213.424,2.867,2.867,0,0,1,1,1.117,4.284,4.284,0,0,1,.428,1.929v.033h-.035l-6.569-.02h-.044v-.043a4.265,4.265,0,0,1,.411-1.858,2.833,2.833,0,0,1,.952-1.121,3.429,3.429,0,0,1,1.328-.5l-.01.084a1.962,1.962,0,0,1-1.171-1.723,2.013,2.013,0,0,1,.827-1.744,1.757,1.757,0,0,1,1.714-.174,1.913,1.913,0,0,1,1.013,1.111,2.062,2.062,0,0,1,.045,1.237,1.951,1.951,0,0,1-.451.813,1.8,1.8,0,0,1-.462.358,1.535,1.535,0,0,1-.185.083,2.023,2.023,0,0,0,.624-.461,1.939,1.939,0,0,0,.431-.8,2.022,2.022,0,0,0-.056-1.206,1.854,1.854,0,0,0-.986-1.068,1.688,1.688,0,0,0-1.643.175,1.937,1.937,0,0,0-.788,1.678,1.878,1.878,0,0,0,1.122,1.646l.138.057-.149.028a3.342,3.342,0,0,0-1.289.491,2.741,2.741,0,0,0-.922,1.087,4.193,4.193,0,0,0-.4,1.815l-.044-.043,6.569.04-.035.033a4.252,4.252,0,0,0-.408-1.9,2.853,2.853,0,0,0-.969-1.109,2.474,2.474,0,0,0-.487-.247,1.909,1.909,0,0,0-.385-.128l-.321-.081" transform="translate(33.824 65.285)" fill="#263238"/>
      <path id="Path_40773" data-name="Path 40773" d="M87.713,193.325a14.354,14.354,0,1,1-14.354-14.354,14.354,14.354,0,0,1,14.354,14.354" transform="translate(72.791 16.484)" fill="#fff" opacity="0.237"/>
      <path id="Path_40774" data-name="Path 40774" d="M87.566,193.2s-.012-.079-.023-.232l-.045-.681q-.014-.226-.031-.5c-.02-.183-.059-.383-.092-.6a10.45,10.45,0,0,0-.3-1.48,13.7,13.7,0,0,0-1.591-3.8,14.339,14.339,0,0,0-9.639-6.71,13.291,13.291,0,0,0-1.8-.208c-.308-.01-.617-.041-.929-.035l-.943.049c-.158.011-.318.01-.476.031l-.475.073c-.317.053-.64.09-.959.156a15.216,15.216,0,0,0-1.9.558,14.867,14.867,0,0,0-1.858.817c-.3.163-.589.353-.887.53a7.281,7.281,0,0,0-.86.592,13.036,13.036,0,0,0-3.011,3.025,13.789,13.789,0,0,0-2.036,3.924,14.119,14.119,0,0,0,0,8.988,13.8,13.8,0,0,0,2.036,3.925,13.042,13.042,0,0,0,3.012,3.026,7.194,7.194,0,0,0,.86.592c.3.177.586.367.887.531a14.939,14.939,0,0,0,1.858.817,15.2,15.2,0,0,0,1.9.558c.319.066.642.1.959.156l.475.073c.158.021.318.02.476.031l.944.049c.312,0,.622-.025.929-.036a13.222,13.222,0,0,0,1.8-.208,14.339,14.339,0,0,0,9.639-6.71,13.679,13.679,0,0,0,1.591-3.8,10.387,10.387,0,0,0,.3-1.48c.032-.217.072-.415.092-.6s.022-.351.031-.5l.045-.681c.012-.154.023-.232.023-.232s0,.079,0,.233-.013.39-.023.683q-.009.227-.02.5c-.016.185-.052.385-.081.6a10.235,10.235,0,0,1-.281,1.492,13.616,13.616,0,0,1-1.568,3.847,14.432,14.432,0,0,1-9.713,6.83,13.484,13.484,0,0,1-1.826.217c-.312.012-.625.042-.942.038l-.956-.047c-.161-.011-.322-.01-.483-.03l-.482-.073c-.322-.052-.649-.09-.973-.156a15.263,15.263,0,0,1-1.929-.562,15.052,15.052,0,0,1-1.888-.826c-.305-.165-.6-.357-.9-.536a7.52,7.52,0,0,1-.874-.6,13.244,13.244,0,0,1-3.062-3.068,13.99,13.99,0,0,1-2.07-3.985,14.316,14.316,0,0,1,0-9.13,14,14,0,0,1,2.071-3.984,13.225,13.225,0,0,1,3.061-3.067,7.407,7.407,0,0,1,.874-.6c.3-.179.6-.371.9-.537a15.083,15.083,0,0,1,1.887-.826,15.264,15.264,0,0,1,1.929-.562c.324-.066.651-.1.973-.156l.482-.073c.161-.021.322-.019.483-.03l.956-.047c.316,0,.63.027.942.038a13.416,13.416,0,0,1,1.826.217,14.429,14.429,0,0,1,9.713,6.829,13.6,13.6,0,0,1,1.569,3.847,10.235,10.235,0,0,1,.281,1.492c.029.218.065.418.081.6s.014.353.02.5c.01.294.018.521.023.684s0,.233,0,.233" transform="translate(72.938 16.606)" fill="#e8505b"/>
      <path id="Path_40775" data-name="Path 40775" d="M74.488,201.474a7.628,7.628,0,1,1,7.112,8.112,7.628,7.628,0,0,1-7.112-8.112" transform="translate(64.017 7.763)" fill="#f5f5f5"/>
      <path id="Path_40776" data-name="Path 40776" d="M74.466,201.388a.644.644,0,0,1,.007.124c0,.091,0,.211,0,.363v.267c0,.1.019.205.029.321a5.556,5.556,0,0,0,.11.794,7.283,7.283,0,0,0,.715,2.067,7.558,7.558,0,0,0,8.847,3.8,6.921,6.921,0,0,0,1.971-.9,6.879,6.879,0,0,0,1.7-1.494,7.3,7.3,0,0,0,1.211-2,7.477,7.477,0,0,0,.312-4.748,7.31,7.31,0,0,0-.939-2.144,8.567,8.567,0,0,0-.68-.921,8.472,8.472,0,0,0-.806-.782,6.934,6.934,0,0,0-1.837-1.151,7.578,7.578,0,0,0-9.269,2.616,7.287,7.287,0,0,0-.979,1.955,5.553,5.553,0,0,0-.213.773c-.026.113-.054.217-.071.314s-.025.185-.035.264c-.022.151-.038.269-.051.359a.657.657,0,0,1-.023.122.636.636,0,0,1,.005-.124c.008-.09.019-.21.033-.362q.012-.121.027-.267c.014-.1.04-.2.063-.317a5.386,5.386,0,0,1,.2-.783,7.227,7.227,0,0,1,.963-1.991,7.684,7.684,0,0,1,5.4-3.3,7.714,7.714,0,0,1,4.019.588,7.1,7.1,0,0,1,1.881,1.171,7.053,7.053,0,0,1,1.523,1.74,7.466,7.466,0,0,1,.964,2.193,7.636,7.636,0,0,1-.32,4.86,7.461,7.461,0,0,1-1.242,2.048,7.075,7.075,0,0,1-1.737,1.525,7.093,7.093,0,0,1-2.018.915,7.714,7.714,0,0,1-4.061.058,7.68,7.68,0,0,1-4.921-3.976,7.217,7.217,0,0,1-.694-2.1,5.408,5.408,0,0,1-.095-.8c-.007-.117-.019-.224-.021-.323s.006-.187.008-.268c.006-.152.011-.273.015-.363a.617.617,0,0,1,.011-.123" transform="translate(64.039 7.848)" fill="#263238"/>
      <path id="Path_40777" data-name="Path 40777" d="M95.444,206.623a1.468,1.468,0,0,1-.27.018l-.741.015c-.629.009-1.506.015-2.5.016h-.049v-.049c0-.158,0-.325,0-.495,0-1.105.006-2.105.014-2.829.007-.349.012-.638.016-.858a1.9,1.9,0,0,1,.019-.314,1.876,1.876,0,0,1,.019.314c0,.219.01.508.016.858.009.724.015,1.724.015,2.829,0,.169,0,.336,0,.495l-.049-.049c.989,0,1.866.007,2.5.016l.741.015a1.575,1.575,0,0,1,.27.018" transform="translate(54.136 3.348)" fill="#263238"/>
      <path id="Path_40778" data-name="Path 40778" d="M91.992,197.242a4.188,4.188,0,0,1,0,1.282,4.188,4.188,0,0,1,0-1.282" transform="translate(54.105 6.12)" fill="#263238"/>
      <path id="Path_40779" data-name="Path 40779" d="M98.916,199.618a4.047,4.047,0,0,1-.893.893,2.058,2.058,0,0,1,.412-.482,2.085,2.085,0,0,1,.482-.411" transform="translate(50.657 4.772)" fill="#263238"/>
      <path id="Path_40780" data-name="Path 40780" d="M103.369,204.747a7.454,7.454,0,0,1-1.079.656,2.812,2.812,0,0,1,1.079-.656" transform="translate(48.236 1.863)" fill="#263238"/>
      <path id="Path_40781" data-name="Path 40781" d="M105.247,212.3a7.767,7.767,0,0,1-1.748,0,7.76,7.76,0,0,1,1.748,0" transform="translate(47.55 -2.395)" fill="#263238"/>
      <path id="Path_40782" data-name="Path 40782" d="M77.373,212.03a6.926,6.926,0,0,1-1.65,0,6.928,6.928,0,0,1,1.65,0" transform="translate(63.307 -2.242)" fill="#263238"/>
      <path id="Path_40783" data-name="Path 40783" d="M79.8,217.761a7.2,7.2,0,0,1-1.309,1.055,7.2,7.2,0,0,1,1.309-1.055" transform="translate(61.736 -5.52)" fill="#263238"/>
      <path id="Path_40784" data-name="Path 40784" d="M85.253,222.146a5.654,5.654,0,0,1-.424.736,5.527,5.527,0,0,1-.45.72,4.372,4.372,0,0,1,.875-1.456" transform="translate(58.398 -8.009)" fill="#263238"/>
      <path id="Path_40785" data-name="Path 40785" d="M91.992,225.509a7.766,7.766,0,0,1,0-1.748,7.766,7.766,0,0,1,0,1.748" transform="translate(54.105 -8.925)" fill="#263238"/>
      <path id="Path_40786" data-name="Path 40786" d="M99.045,223.615a3.767,3.767,0,0,1-1.308-1.14,135.809,135.809,0,0,0,1.308,1.14" transform="translate(50.819 -8.195)" fill="#263238"/>
      <path id="Path_40787" data-name="Path 40787" d="M103.419,219.283a3.013,3.013,0,0,1-.579-.508,3.058,3.058,0,0,1-.509-.579,6.042,6.042,0,0,1,1.087,1.087" transform="translate(48.213 -5.768)" fill="#263238"/>
      <path id="Path_40788" data-name="Path 40788" d="M80.083,205.416a2.313,2.313,0,0,1-.511-.441,2.341,2.341,0,0,1-.441-.511,4.619,4.619,0,0,1,.952.952" transform="translate(61.374 2.023)" fill="#263238"/>
      <path id="Path_40789" data-name="Path 40789" d="M85.148,200.134a4.433,4.433,0,0,1-.934-.93,4.433,4.433,0,0,1,.934.93" transform="translate(58.491 5.007)" fill="#263238"/>
      <path id="Path_40790" data-name="Path 40790" d="M154.346,252.25a10.991,10.991,0,0,0-.245-1.569,6.217,6.217,0,0,0-.724-1.7,6.423,6.423,0,0,0-1.636-1.808,6.373,6.373,0,0,0-6.037-.9,6.388,6.388,0,0,0-2.954,2.221,6.335,6.335,0,0,0,0,7.52,6.388,6.388,0,0,0,2.954,2.221,6.41,6.41,0,0,0,7.673-2.709,6.188,6.188,0,0,0,.724-1.7,10.981,10.981,0,0,0,.245-1.569.356.356,0,0,1,.006.105c0,.083,0,.184,0,.309a2.939,2.939,0,0,1-.04.5,4.586,4.586,0,0,1-.122.676,6.119,6.119,0,0,1-.7,1.746,6.534,6.534,0,0,1-4.4,3.112,6.57,6.57,0,0,1-3.452-.273,6.572,6.572,0,0,1-3.061-2.286,6.538,6.538,0,0,1,0-7.781,6.572,6.572,0,0,1,3.061-2.286,6.573,6.573,0,0,1,3.451-.273,6.534,6.534,0,0,1,4.4,3.112,6.108,6.108,0,0,1,.7,1.746,4.54,4.54,0,0,1,.122.676,2.937,2.937,0,0,1,.04.5c0,.125,0,.226,0,.309a.356.356,0,0,1-.006.105" transform="translate(26.112 -21.363)" fill="#e8505b"/>
      <path id="Path_40791" data-name="Path 40791" d="M154.206,258.577a1.028,1.028,0,0,0-.861.492c-.234-.18-.524-.389-.847-.609q-.267-.181-.509-.335a1.048,1.048,0,0,0,.141-1.341c.2-.136.414-.3.645-.476.2-.158.392-.311.558-.451a1.14,1.14,0,1,0-.116-.235c-.189.132-.4.286-.619.457-.237.183-.451.359-.634.517a1.05,1.05,0,1,0-.7,1.826,1.035,1.035,0,0,0,.5-.131c.175.128.37.267.579.408.334.227.645.424.9.578a1.226,1.226,0,0,0-.082.445,1.055,1.055,0,1,0,1.05-1.145" transform="translate(21.052 -26.2)" fill="#f5f5f5"/>
      <path id="Path_40792" data-name="Path 40792" d="M154.15,258.521a.773.773,0,0,1,.394.071,1.134,1.134,0,0,1,.665.882,1.242,1.242,0,0,1-.14.8,1.075,1.075,0,0,1-.776.551,1.046,1.046,0,0,1-.988-.427,1.264,1.264,0,0,1-.158-1.193l.016.045c-.47-.3-.98-.616-1.486-.985l.044,0a1.079,1.079,0,0,1-1.074-.016,1.093,1.093,0,1,1,1.292-1.749h-.06l.619-.5.638-.473-.016.052a1.084,1.084,0,0,1,.056-.881,1.1,1.1,0,1,1,.072,1.121l.055.007c-.418.348-.824.651-1.208.926l.008-.046a1.082,1.082,0,0,1-.149,1.38l0-.043c.569.365,1,.7,1.352.953l-.026,0a1.063,1.063,0,0,1,.61-.454.732.732,0,0,1,.266-.028,1.449,1.449,0,0,0-.261.046,1.057,1.057,0,0,0-.585.456l-.01.016-.016-.011c-.351-.243-.789-.576-1.36-.935l-.03-.019.026-.024a1.024,1.024,0,0,0,.132-1.3l-.018-.026.026-.019c.38-.276.783-.58,1.2-.928l.032-.027.022.035a1.01,1.01,0,1,0,.562-1.539,1.006,1.006,0,0,0-.617.5.994.994,0,0,0-.051.809l.012.031-.029.021-.634.47-.615.5-.032.026-.028-.026a1.005,1.005,0,1,0-.2,1.627l.022-.013.022.016c.5.37,1.009.687,1.476.987l.027.017-.011.029a1.2,1.2,0,0,0,.143,1.126.983.983,0,0,0,.924.408,1.02,1.02,0,0,0,.74-.517,1.2,1.2,0,0,0,.143-.77,1.117,1.117,0,0,0-.631-.868,1.169,1.169,0,0,0-.385-.092" transform="translate(21.109 -26.144)" fill="#263238"/>
      <path id="Path_40793" data-name="Path 40793" d="M342.243,190.144s-.012-.082-.024-.241-.027-.4-.047-.708q-.014-.235-.032-.521c-.02-.191-.061-.4-.1-.623a10.832,10.832,0,0,0-.311-1.538,14.231,14.231,0,0,0-1.653-3.953,14.9,14.9,0,0,0-10.017-6.974,13.76,13.76,0,0,0-1.874-.216c-.319-.011-.641-.042-.966-.037l-.98.051c-.164.012-.33.01-.495.032l-.494.076c-.33.055-.665.093-1,.162a15.709,15.709,0,0,0-1.975.58,15.46,15.46,0,0,0-1.931.849c-.312.17-.612.367-.922.551a7.569,7.569,0,0,0-.893.616,13.519,13.519,0,0,0-3.13,3.144,14.326,14.326,0,0,0-2.116,4.078,14.666,14.666,0,0,0,0,9.342,14.343,14.343,0,0,0,2.116,4.079,13.543,13.543,0,0,0,3.13,3.145,7.538,7.538,0,0,0,.894.616c.31.184.61.382.923.551a15.462,15.462,0,0,0,1.931.849,15.637,15.637,0,0,0,1.975.58c.331.069.667.107,1,.162l.494.076c.164.022.331.02.495.032l.981.051c.324,0,.646-.026.966-.037a13.829,13.829,0,0,0,1.874-.216,14.9,14.9,0,0,0,10.016-6.975,14.219,14.219,0,0,0,1.653-3.953,10.889,10.889,0,0,0,.312-1.538c.034-.225.074-.432.095-.623s.023-.365.032-.521q.03-.456.047-.707c.012-.16.024-.241.024-.241s0,.082,0,.242-.014.4-.025.71q-.009.236-.021.524c-.017.192-.055.4-.085.626a10.694,10.694,0,0,1-.292,1.55,14.135,14.135,0,0,1-1.63,4,15,15,0,0,1-10.09,7.094,13.946,13.946,0,0,1-1.9.225c-.324.012-.65.044-.978.04l-.994-.048c-.166-.011-.335-.01-.5-.032l-.5-.076c-.335-.055-.675-.093-1.011-.162a16.361,16.361,0,0,1-3.965-1.441c-.318-.171-.622-.371-.936-.557a7.708,7.708,0,0,1-.908-.623,13.76,13.76,0,0,1-3.18-3.187,14.539,14.539,0,0,1-2.151-4.14,14.877,14.877,0,0,1,0-9.483,14.541,14.541,0,0,1,2.151-4.138,13.751,13.751,0,0,1,3.18-3.186,7.715,7.715,0,0,1,.907-.623c.314-.186.619-.386.936-.557a15.665,15.665,0,0,1,1.961-.858,15.845,15.845,0,0,1,2-.583c.336-.069.676-.108,1.011-.162l.5-.076c.167-.022.335-.02.5-.031l.993-.049c.329,0,.655.028.978.04a13.946,13.946,0,0,1,1.9.225,14.993,14.993,0,0,1,10.091,7.093,14.132,14.132,0,0,1,1.63,4,10.632,10.632,0,0,1,.293,1.55c.03.226.068.434.085.627s.015.367.021.524q.016.458.025.71c0,.16,0,.242,0,.242" transform="translate(-70.903 18.659)" fill="#e8505b"/>
      <path id="Path_40794" data-name="Path 40794" d="M345.744,207.26a1.9,1.9,0,0,1-.329.022l-.944.02-3.473.035-11.457.032h-.925v-.108c.013-4.279.025-8.117.033-10.912.014-1.37.026-2.484.034-3.278.008-.37.015-.666.019-.889a1.7,1.7,0,0,1,.021-.309,1.709,1.709,0,0,1,.021.309c0,.223.011.518.02.889.008.794.019,1.908.033,3.278.009,2.794.02,6.632.034,10.912l-.108-.108h.817l11.457.032,3.473.035.944.02a1.9,1.9,0,0,1,.329.022" transform="translate(-80.158 9.165)" fill="#263238"/>
      <path id="Path_40795" data-name="Path 40795" d="M346.072,200.5a4.4,4.4,0,0,1-.508.485l-1.437,1.261c-1.219,1.058-2.913,2.508-4.793,4.1l-.285.241-.073.062-.07-.065-2.132-1.981.133,0-3.131,2.582-.908.727a2.01,2.01,0,0,1-.34.243,1.987,1.987,0,0,1,.3-.293l.872-.771,3.08-2.642.067-.058.066.061,2.142,1.97-.143,0,.284-.241c1.88-1.591,3.59-3.022,4.834-4.051l1.482-1.209a4.367,4.367,0,0,1,.562-.421" transform="translate(-82.377 4.272)" fill="#263238"/>
      <path id="Path_40796" data-name="Path 40796" d="M358.562,203.816a5.333,5.333,0,0,1-.075-1.062c-.019-.658-.032-1.571-.033-2.588l.108.108h-.184c-1.059,0-2.017-.012-2.711-.032a5.784,5.784,0,0,1-1.122-.077,5.814,5.814,0,0,1,1.122-.076c.694-.02,1.652-.032,2.711-.032h.292v.108c0,1.017-.014,1.929-.033,2.588a5.358,5.358,0,0,1-.075,1.062" transform="translate(-94.867 4.521)" fill="#263238"/>
      <path id="Path_40797" data-name="Path 40797" d="M407.187,116.52a1.118,1.118,0,0,1-.021-.182c-.009-.131-.022-.307-.038-.533-.007-.118-.016-.249-.025-.392s-.047-.3-.073-.469a8.2,8.2,0,0,0-.237-1.157,10.729,10.729,0,0,0-1.248-2.973,11.143,11.143,0,0,0-13.385-4.75,10.237,10.237,0,0,0-2.816,1.516,10.152,10.152,0,0,0-2.352,2.363,10.781,10.781,0,0,0-1.59,3.065,11.027,11.027,0,0,0,0,7.02,10.778,10.778,0,0,0,1.59,3.066,10.182,10.182,0,0,0,2.352,2.364,10.222,10.222,0,0,0,2.816,1.516,11.171,11.171,0,0,0,13.385-4.75,10.734,10.734,0,0,0,1.248-2.973,8.2,8.2,0,0,0,.237-1.157c.026-.169.058-.325.073-.468s.018-.274.025-.392c.016-.225.029-.4.038-.533a1.119,1.119,0,0,1,.021-.182,1.05,1.05,0,0,1,0,.182c0,.131-.009.309-.016.535q-.006.178-.015.395c-.012.145-.04.3-.062.473a7.939,7.939,0,0,1-.219,1.169,10.635,10.635,0,0,1-1.225,3.016,11.307,11.307,0,0,1-7.611,5.359,11.346,11.346,0,0,1-5.954-.478,10.417,10.417,0,0,1-2.873-1.538,10.358,10.358,0,0,1-2.4-2.406,10.972,10.972,0,0,1-1.625-3.126,11.228,11.228,0,0,1,0-7.162,10.972,10.972,0,0,1,1.625-3.125,10.388,10.388,0,0,1,2.4-2.405,10.405,10.405,0,0,1,2.873-1.538,11.344,11.344,0,0,1,5.954-.478,11.309,11.309,0,0,1,7.611,5.358,10.645,10.645,0,0,1,1.225,3.016,8.01,8.01,0,0,1,.219,1.169c.023.171.05.328.062.473s.01.276.015.4c.007.227.012.4.016.535a1.05,1.05,0,0,1,0,.182" transform="translate(-111.919 58.334)" fill="#e8505b"/>
      <path id="Path_40798" data-name="Path 40798" d="M403.523,117.2l1.5,3.045a.391.391,0,0,0,.294.214l3.36.488a.391.391,0,0,1,.216.666l-2.431,2.37a.39.39,0,0,0-.113.346l.574,3.346a.39.39,0,0,1-.566.412l-3.005-1.58a.389.389,0,0,0-.363,0l-3.005,1.58a.391.391,0,0,1-.567-.412l.574-3.346a.391.391,0,0,0-.112-.346l-2.431-2.37a.391.391,0,0,1,.216-.666l3.36-.488a.392.392,0,0,0,.294-.214l1.5-3.045a.391.391,0,0,1,.7,0" transform="translate(-119.139 51.652)" fill="#fafafa"/>
      <path id="Path_40799" data-name="Path 40799" d="M403.436,117.174s-.018-.032-.064-.08a.379.379,0,0,0-.63.122l-.292.609-.807,1.668-.245.5-.131.267a.442.442,0,0,1-.261.208c-.418.071-.836.128-1.289.2l-1.412.21-.745.113a.324.324,0,0,0-.177.517l2.442,2.373a.484.484,0,0,1,.148.479l-.077.453-.156.92q-.159.93-.324,1.9a.312.312,0,0,0,.137.345.3.3,0,0,0,.187.047.494.494,0,0,0,.2-.077l.89-.468,1.818-.956.233-.122a.465.465,0,0,1,.305-.036,1.116,1.116,0,0,1,.255.114l.228.12.9.475,1.761.925a.306.306,0,0,0,.354-.079.3.3,0,0,0,.077-.172.915.915,0,0,0-.025-.218q-.081-.475-.16-.94-.158-.93-.309-1.82l-.075-.442a.482.482,0,0,1,.168-.46l.622-.6,1.189-1.154.566-.548a.33.33,0,0,0-.042-.541,1.174,1.174,0,0,0-.336-.073L408,120.9l-.69-.1-1.283-.192-.59-.089a2.925,2.925,0,0,1-.288-.05.437.437,0,0,1-.236-.188l-.811-1.67-.5-1.057-.127-.276a.465.465,0,0,1-.038-.1.482.482,0,0,1,.054.089l.142.27.532,1.043.832,1.65a.345.345,0,0,0,.187.146c.074.02.182.028.273.043l.591.083,1.284.181.691.1.357.051a1.216,1.216,0,0,1,.379.084.452.452,0,0,1,.231.351.463.463,0,0,1-.158.395l-.562.551-1.184,1.16-.619.606a.329.329,0,0,0-.124.328q.038.219.077.442.153.889.315,1.819l.162.94a1.01,1.01,0,0,1,.027.26.457.457,0,0,1-.117.263.468.468,0,0,1-.537.119l-1.773-.928-.9-.475-.228-.12a1.052,1.052,0,0,0-.213-.1.3.3,0,0,0-.2.024l-.228.119-1.819.956-.89.467a.653.653,0,0,1-.263.094.461.461,0,0,1-.285-.072.475.475,0,0,1-.209-.509l.328-1.9.159-.92.078-.453a.328.328,0,0,0-.1-.344l-2.442-2.4a.456.456,0,0,1-.074-.44.448.448,0,0,1,.326-.291l.756-.11,1.413-.2,1.276-.183a.341.341,0,0,0,.2-.158l.131-.26.251-.5.833-1.655.306-.6a.412.412,0,0,1,.415-.252.386.386,0,0,1,.271.141.242.242,0,0,1,.052.091" transform="translate(-119.052 51.674)" fill="#263238"/>
      <path id="Path_40800" data-name="Path 40800" d="M345.7,40.687a.6.6,0,0,1-.018-.133c-.008-.1-.018-.229-.031-.39a4.063,4.063,0,0,0-.075-.63,5.985,5.985,0,0,0-.176-.847,7.878,7.878,0,0,0-.918-2.174,8.153,8.153,0,0,0-9.79-3.465,7.639,7.639,0,0,0-2.057,1.109,7.429,7.429,0,0,0-1.718,1.727,8.091,8.091,0,0,0,0,9.607,7.457,7.457,0,0,0,1.718,1.728,7.648,7.648,0,0,0,2.057,1.109,8.176,8.176,0,0,0,9.79-3.466,7.867,7.867,0,0,0,.918-2.173,6.052,6.052,0,0,0,.177-.847,4.1,4.1,0,0,0,.074-.63c.013-.161.023-.29.031-.39a.6.6,0,0,1,.018-.133.567.567,0,0,1,0,.134c0,.1-.005.23-.009.392a3.815,3.815,0,0,1-.054.637,5.778,5.778,0,0,1-.157.858,7.8,7.8,0,0,1-.895,2.217A8.307,8.307,0,0,1,339,48.871a8.345,8.345,0,0,1-4.379-.349,7.828,7.828,0,0,1-2.114-1.131,7.646,7.646,0,0,1-1.768-1.77,8.3,8.3,0,0,1,0-9.869,7.633,7.633,0,0,1,1.768-1.769,7.826,7.826,0,0,1,2.114-1.131A8.344,8.344,0,0,1,339,32.5a8.306,8.306,0,0,1,5.59,3.945,7.8,7.8,0,0,1,.9,2.217,5.839,5.839,0,0,1,.157.859,3.814,3.814,0,0,1,.054.637c0,.163.007.292.009.393a.567.567,0,0,1,0,.134" transform="translate(-80.438 99.655)" fill="#e8505b"/>
      <path id="Path_40801" data-name="Path 40801" d="M347.011,44.382a3.757,3.757,0,1,0-7,1.9h0l.011.014c.144.243.325.416.507.671l2.182,2.89a.678.678,0,0,0,1.083,0l2.145-2.842a8.158,8.158,0,0,0,.546-.723l.008-.01h0a3.732,3.732,0,0,0,.519-1.9m-3.757,1.636a1.653,1.653,0,1,1,1.653-1.653,1.654,1.654,0,0,1-1.653,1.653" transform="translate(-86.33 94.967)" fill="#f5f5f5"/>
      <path id="Path_40802" data-name="Path 40802" d="M345.962,48.694a3.906,3.906,0,0,0,.4-.069,1.648,1.648,0,0,0,.89-.6,1.614,1.614,0,1,0-2.578,0,1.648,1.648,0,0,0,.89.6,3.911,3.911,0,0,0,.4.069,1.268,1.268,0,0,1-.408-.035,1.649,1.649,0,0,1-.932-.6,1.683,1.683,0,0,1-.252-1.6,1.691,1.691,0,0,1,3.184,0,1.682,1.682,0,0,1-.252,1.6,1.648,1.648,0,0,1-.932.6,1.268,1.268,0,0,1-.408.035" transform="translate(-89.039 92.291)" fill="#263238"/>
      <path id="Path_40803" data-name="Path 40803" d="M346.953,44.335a2.706,2.706,0,0,1-.024.521,3.709,3.709,0,0,1-.474,1.389l-.02-.035h.049l-.029.039-.008.01,0,0-2.573,3.433a.855.855,0,0,1-.532.413.724.724,0,0,1-.668-.2c-.3-.373-.576-.756-.877-1.15l-1.872-2.478,0,0-.01-.014-.055-.072h.092l-.039.068a3.978,3.978,0,0,1-.331-.729,3.788,3.788,0,0,1,3.778-4.982,3.844,3.844,0,0,1,1.832.577,3.754,3.754,0,0,1,1.631,2.2,2.708,2.708,0,0,1,.088.429,1.79,1.79,0,0,1,.032.32c.007.174.006.264.006.264a5.25,5.25,0,0,0-.16-1,3.743,3.743,0,0,0-1.63-2.155,3.791,3.791,0,0,0-1.8-.557,3.716,3.716,0,0,0-3.689,4.879,3.874,3.874,0,0,0,.324.712l.039.067h-.08l.036-.072.01.014,0,0,1.864,2.472.868,1.145a.642.642,0,0,0,.592.183.773.773,0,0,0,.486-.381l2.593-3.411,0,0,.008-.01.019.039h-.043l.021-.036a3.791,3.791,0,0,0,.49-1.368c.026-.167.034-.3.04-.385s.009-.133.009-.133" transform="translate(-86.272 95.014)" fill="#263238"/>
      <path id="Path_40804" data-name="Path 40804" d="M236.671,20.837s-.012-.08-.023-.235-.026-.394-.046-.69q-.014-.228-.031-.508c-.02-.186-.06-.388-.093-.607a10.533,10.533,0,0,0-.3-1.5,13.871,13.871,0,0,0-1.613-3.855,14.528,14.528,0,0,0-9.768-6.8,13.505,13.505,0,0,0-1.827-.211c-.312-.01-.626-.041-.942-.036l-.956.05c-.161.011-.322.01-.483.032l-.482.074c-.322.054-.649.091-.972.158a15.309,15.309,0,0,0-1.926.566,15.045,15.045,0,0,0-1.883.828c-.305.166-.6.358-.9.537a7.3,7.3,0,0,0-.871.6,16.252,16.252,0,0,0-1.638,1.392A16.424,16.424,0,0,0,210.5,12.3a13.992,13.992,0,0,0-2.064,3.977,15.427,15.427,0,0,0-.745,4.554,15.438,15.438,0,0,0,.744,4.556,13.984,13.984,0,0,0,2.064,3.978,16.382,16.382,0,0,0,1.415,1.674,16.3,16.3,0,0,0,1.638,1.392,7.346,7.346,0,0,0,.871.6c.3.179.595.372.9.537a15.114,15.114,0,0,0,1.884.828,15.365,15.365,0,0,0,1.926.566c.323.067.65.1.972.158l.482.074c.161.021.322.02.483.031l.956.05c.316,0,.63-.026.942-.036a13.434,13.434,0,0,0,1.828-.211,14.53,14.53,0,0,0,9.768-6.8,13.876,13.876,0,0,0,1.613-3.855,10.566,10.566,0,0,0,.3-1.5c.033-.219.073-.421.093-.607s.022-.356.031-.508q.03-.445.046-.69c.012-.156.023-.235.023-.235s0,.08,0,.236-.013.4-.024.692q-.009.23-.02.511c-.016.187-.053.39-.083.611a10.336,10.336,0,0,1-.285,1.512,13.781,13.781,0,0,1-1.589,3.9,14.625,14.625,0,0,1-9.842,6.92,13.558,13.558,0,0,1-1.851.219c-.315.012-.634.043-.955.039l-.969-.048c-.163-.011-.327-.01-.489-.031l-.489-.074c-.326-.053-.658-.091-.986-.158a15.478,15.478,0,0,1-1.955-.569,15.235,15.235,0,0,1-1.913-.837c-.309-.167-.607-.362-.913-.543a7.56,7.56,0,0,1-.885-.608,16.463,16.463,0,0,1-1.664-1.411,16.519,16.519,0,0,1-1.438-1.7,14.177,14.177,0,0,1-2.1-4.038,15.63,15.63,0,0,1-.757-4.627,15.617,15.617,0,0,1,.758-4.625,14.181,14.181,0,0,1,2.1-4.037,16.609,16.609,0,0,1,1.438-1.7,16.46,16.46,0,0,1,1.664-1.411,7.5,7.5,0,0,1,.885-.608c.307-.181.6-.376.913-.543a15.286,15.286,0,0,1,1.912-.837,15.475,15.475,0,0,1,1.955-.569c.328-.067.66-.1.986-.158l.489-.074c.162-.021.327-.02.489-.031l.969-.048c.321,0,.639.027.954.039a13.559,13.559,0,0,1,1.851.219,14.626,14.626,0,0,1,9.842,6.92,13.792,13.792,0,0,1,1.59,3.9,10.391,10.391,0,0,1,.285,1.512c.03.221.066.424.083.611s.014.357.02.511c.01.3.018.528.024.693s0,.236,0,.236" transform="translate(-11.43 114.497)" fill="#e8505b"/>
      <path id="Path_40805" data-name="Path 40805" d="M236.516,33.1a.563.563,0,0,1,.184-.039,2.243,2.243,0,0,1,.541-.012,2.915,2.915,0,0,1,1.795.825,3.011,3.011,0,0,1-.015,4.314,3.017,3.017,0,0,1-3.565.484,3.011,3.011,0,0,1-1.164-4.155,2.915,2.915,0,0,1,1.51-1.273,2.252,2.252,0,0,1,.525-.133.552.552,0,0,1,.188-.011c0,.025-.256.051-.679.229a2.921,2.921,0,0,0-1.4,1.27,2.849,2.849,0,0,0-.023,2.709,2.794,2.794,0,0,0,1.152,1.16,2.807,2.807,0,0,0,3.293-.447,2.8,2.8,0,0,0,.8-1.425,2.85,2.85,0,0,0-.744-2.6,2.923,2.923,0,0,0-1.687-.852c-.455-.06-.714-.015-.716-.04" transform="translate(-26.418 99.268)" fill="#263238"/>
      <path id="Path_40806" data-name="Path 40806" d="M230.506,22.428a.432.432,0,0,1-.044-.092l-.118-.289-.451-1.151.04.024-2.7.389.052-.054c-.041.5-.087,1.051-.135,1.643l0,.042-.039.016a6.688,6.688,0,0,0-1.516.894l-.037.029-.043-.019-1.5-.678.1-.026-1.645,2.177,0-.116,1.063,1.261.038.045-.022.055a6.616,6.616,0,0,0-.444,1.7l-.007.061-.058.022-1.543.58.067-.113c.117.849.242,1.765.372,2.7l-.1-.095,1.643.143.068.006.026.063a6.637,6.637,0,0,0,.883,1.51l.042.055-.029.063-.683,1.5-.035-.14,2.173,1.651-.147,0,1.264-1.06.055-.046.066.027a6.568,6.568,0,0,0,1.688.446h0l.1.076v0l0,.006,0,.012.009.024.018.048.036.1.073.194.145.387.288.77-.126-.076,2.7-.366-.1.106q.074-.83.146-1.643l.006-.07.065-.027a6.569,6.569,0,0,0,1.511-.879l.055-.042.063.029,1.5.686-.136.034,1.656-2.169,0,.136L235.8,31.728l-.041-.05.025-.059a6.591,6.591,0,0,0,.451-1.692l.008-.062.058-.022,1.546-.573-.063.105c-.126-.952-.246-1.85-.359-2.705l.082.078-1.642-.15-.052,0-.019-.048a6.649,6.649,0,0,0-.879-1.522l-.029-.038.02-.042.691-1.5.021.085-2.161-1.666.066,0-1.273,1.048-.018.015-.021-.009a7.051,7.051,0,0,0-1.274-.4l-.325-.064a.439.439,0,0,1-.107-.024.659.659,0,0,1,.11,0c.073.008.183.02.329.045a6.383,6.383,0,0,1,1.3.369l-.039.006,1.254-1.071.032-.027.034.026,2.182,1.64.044.033-.023.051-.677,1.5-.01-.08a6.748,6.748,0,0,1,.913,1.552l-.071-.052,1.643.139.072.006.01.072c.118.855.243,1.752.374,2.7l.011.077-.074.028-1.543.581.066-.083a6.764,6.764,0,0,1-.458,1.748l-.016-.109,1.061,1.263.056.067-.053.069-1.649,2.174-.055.071-.082-.037-1.5-.682.118-.014a6.789,6.789,0,0,1-1.563.913l.071-.1q-.071.813-.144,1.643l-.008.093-.093.013-2.7.368-.093.013-.033-.088-.288-.77-.145-.387-.073-.194-.036-.1-.018-.049-.009-.024,0-.012,0-.006v0l.1.076h0a6.831,6.831,0,0,1-1.749-.462l.121-.019-1.265,1.059-.072.061-.074-.057-2.17-1.654-.074-.056.039-.084.686-1.5.014.117a6.832,6.832,0,0,1-.91-1.564l.093.069-1.642-.147-.087-.008-.012-.087-.363-2.705-.011-.084.079-.029,1.546-.574-.065.083a6.784,6.784,0,0,1,.466-1.745l.015.1-1.056-1.267-.048-.058.045-.059,1.66-2.166.041-.054.061.028,1.5.69-.08.01a6.762,6.762,0,0,1,1.558-.9l-.042.058c.055-.591.107-1.144.154-1.641l0-.048.047-.006,2.707-.345.031,0,.01.028.409,1.151c.042.124.076.223.1.3a.632.632,0,0,1,.031.107" transform="translate(-19.297 106.189)" fill="#263238"/>
      <rect id="Rectangle_5968" data-name="Rectangle 5968" width="189.009" height="189.964" transform="translate(106.264 118.013)" fill="none"/>
      <path id="Path_40807" data-name="Path 40807" d="M182.317,284.912l-.6.2c-2.7.912-10.736,3.568-13.166,4.562,0,0,4.3,38.04,4.806,41.575s.631,17.678.631,17.678h45.754s-.122-38.122.01-44.036c.171-7.65,1.119-15.217,1.119-15.217l-7.992-3.124-9.344-4.925Z" transform="translate(10.648 -41.753)" fill="#e8505b"/>
      <g id="Group_58035" data-name="Group 58035" transform="translate(190.705 251.39)" opacity="0.31">
        <g id="Group_58034" data-name="Group 58034" clip-path="url(#clip-path-3)">
          <path id="Path_40808" data-name="Path 40808" d="M207.584,308.238q-5.6,20.807-11.8,41.446c-.488,1.621-.972,3.4-.313,4.962a4.454,4.454,0,0,0,3.53,2.511,7.125,7.125,0,0,0,4.347-.98,13.808,13.808,0,0,0,6.088-8.379,41.008,41.008,0,0,0,1.156-10.53q.324-14.165.647-28.329Z" transform="translate(-195.146 -308.238)"/>
        </g>
      </g>
      <path id="Path_40809" data-name="Path 40809" d="M160.4,300.23s-6.71,2.974-6.187,14.9a146.894,146.894,0,0,0,1.586,15.536l18.87-5.434-4.8-20.708Z" transform="translate(18.799 -52.305)" fill="#e8505b"/>
      <path id="Path_40810" data-name="Path 40810" d="M270.647,319.422l-1.01,13.764,18.97-6.144s-4.067-24.295-10.51-26.813l-6.945,11.87Z" transform="translate(-46.7 -52.305)" fill="#e8505b"/>
      <path id="Path_40811" data-name="Path 40811" d="M276.942,335.4a1.31,1.31,0,0,1,.035.28c.015.208.034.475.057.805.04.727.1,1.733.163,2.963.123,2.5.258,5.962.38,9.783s.233,7.257.315,9.786c.038,1.231.069,2.237.091,2.965.006.331.011.6.015.807a.141.141,0,1,1-.045,0c-.015-.207-.034-.474-.058-.8-.04-.727-.1-1.733-.163-2.963-.124-2.5-.258-5.962-.38-9.784s-.233-7.255-.314-9.784c-.038-1.231-.069-2.238-.091-2.966-.007-.331-.011-.6-.015-.807a1.344,1.344,0,0,1,.01-.282" transform="translate(-50.837 -72.256)" fill="#263238"/>
      <path id="Path_40812" data-name="Path 40812" d="M179.076,310.673a2.152,2.152,0,0,1-.248-.438l-.612-1.221a20.222,20.222,0,0,0-2.363-3.8,9.23,9.23,0,0,0-3.511-2.677,11.123,11.123,0,0,0-1.782-.5,1.784,1.784,0,0,1,.5.02,5.848,5.848,0,0,1,1.336.333,8.838,8.838,0,0,1,3.627,2.681,17.782,17.782,0,0,1,2.334,3.874c.242.525.426.955.548,1.254a2.133,2.133,0,0,1,.168.474" transform="translate(9.507 -53.325)" fill="#263238"/>
      <path id="Path_40813" data-name="Path 40813" d="M279.717,298.9a17.6,17.6,0,0,0-1.757,6.539,3.468,3.468,0,0,1-.037-1.008,11.558,11.558,0,0,1,1.257-4.678,3.468,3.468,0,0,1,.537-.854" transform="translate(-51.394 -51.548)" fill="#263238"/>
      <path id="Path_40814" data-name="Path 40814" d="M168.637,312.13c0,.011-.068,0-.186.02a.727.727,0,0,0-.415.3,1.758,1.758,0,0,0-.289.785,3.341,3.341,0,0,1-.137.536,1.047,1.047,0,0,1-.384.517,1.271,1.271,0,0,1-1.4-.151,4.974,4.974,0,0,1-1-1.275,2.307,2.307,0,0,0-.561-.6,1.256,1.256,0,0,0-.769-.263.825.825,0,0,0-.66.428,2.166,2.166,0,0,0-.2.885c-.022.32-.026.643-.064.966a2.019,2.019,0,0,1-.305.93,1.312,1.312,0,0,1-.363.341,1.177,1.177,0,0,1-.466.148,1.707,1.707,0,0,1-.9-.17,3.677,3.677,0,0,1-1.2-1.108,4.289,4.289,0,0,0-.954-.971,1.427,1.427,0,0,0-1.032-.271,1.093,1.093,0,0,0-.669.449.773.773,0,0,0-.143.5c.007.122.04.183.028.187a.374.374,0,0,1-.073-.181.783.783,0,0,1,.114-.548,1.169,1.169,0,0,1,.716-.525,1.542,1.542,0,0,1,1.145.261,4.331,4.331,0,0,1,1.013.987,3.559,3.559,0,0,0,1.139,1.037,1.5,1.5,0,0,0,.784.144.914.914,0,0,0,.672-.4,3.752,3.752,0,0,0,.326-1.785,2.353,2.353,0,0,1,.228-.977,1.047,1.047,0,0,1,.845-.54,1.866,1.866,0,0,1,1.514.969,4.977,4.977,0,0,0,.943,1.242,1.112,1.112,0,0,0,1.206.168,1.437,1.437,0,0,0,.485-.945,1.791,1.791,0,0,1,.343-.813.739.739,0,0,1,.476-.293.35.35,0,0,1,.194.025" transform="translate(17.492 -58.856)" fill="#fafafa"/>
      <path id="Path_40815" data-name="Path 40815" d="M170.985,327.344a.781.781,0,0,1,.009.248,1.557,1.557,0,0,1-.235.673,1.971,1.971,0,0,1-.851.743,1.67,1.67,0,0,1-1.485-.021,9.271,9.271,0,0,0-1.518-.892,1.558,1.558,0,0,0-1.619.81c-.393.58-.552,1.341-.95,2.049a2.4,2.4,0,0,1-.862.9,1.385,1.385,0,0,1-1.286.1,2.253,2.253,0,0,1-.9-.916c-.215-.354-.392-.712-.609-1.028a1.512,1.512,0,0,0-.823-.666,1.148,1.148,0,0,0-.968.19,3.647,3.647,0,0,0-1.166,1.591,13.1,13.1,0,0,1-.815,1.6,2.755,2.755,0,0,1-2.13,1.4,1.492,1.492,0,0,1-.7-.123.888.888,0,0,1-.163-.088c-.035-.023-.052-.035-.05-.039a1.889,1.889,0,0,0,.91.162,2.692,2.692,0,0,0,2-1.4,13.5,13.5,0,0,0,.779-1.6,3.8,3.8,0,0,1,1.22-1.686,1.36,1.36,0,0,1,1.14-.225,1.723,1.723,0,0,1,.948.748c.23.334.41.7.619,1.036a2.048,2.048,0,0,0,.8.828,1.157,1.157,0,0,0,1.081-.091,2.195,2.195,0,0,0,.783-.814c.38-.663.543-1.43.97-2.056a2.339,2.339,0,0,1,.8-.745,1.383,1.383,0,0,1,1.035-.129,2.633,2.633,0,0,1,.843.457,5.86,5.86,0,0,0,.7.475,1.54,1.54,0,0,0,1.361.048,1.922,1.922,0,0,0,.829-.676,1.88,1.88,0,0,0,.3-.873" transform="translate(18.979 -67.686)" fill="#fafafa"/>
      <path id="Path_40816" data-name="Path 40816" d="M170.361,348.606c0,.01-.056-.015-.159-.023a.61.61,0,0,0-.417.132,1.27,1.27,0,0,0-.4.591,2.123,2.123,0,0,0-.041.969,2.461,2.461,0,0,1-.093,1.254,1.328,1.328,0,0,1-1.257.72,1.994,1.994,0,0,1-1.487-.691,6.037,6.037,0,0,1-.945-1.513l.079.059a1.27,1.27,0,0,0-1.177.583,3.02,3.02,0,0,0-.5,1.427,10.242,10.242,0,0,1-.211,1.17,2.521,2.521,0,0,1-.563,1.043,1.409,1.409,0,0,1-1.053.483,1.649,1.649,0,0,1-1.018-.435,9.781,9.781,0,0,1-1.2-1.558,1.828,1.828,0,0,0-1.37-.782,1.719,1.719,0,0,0-1.246.417,1.816,1.816,0,0,0-.529.866,2.294,2.294,0,0,0-.039.884s-.012-.017-.025-.055a1.027,1.027,0,0,1-.043-.171,1.725,1.725,0,0,1,.021-.679,1.871,1.871,0,0,1,.529-.938,1.891,1.891,0,0,1,2.157-.26,2.363,2.363,0,0,1,.689.6,10.119,10.119,0,0,0,1.193,1.516,1.442,1.442,0,0,0,.888.378,1.191,1.191,0,0,0,.887-.418,2.313,2.313,0,0,0,.509-.951,10.439,10.439,0,0,0,.2-1.145,3.211,3.211,0,0,1,.54-1.528,1.483,1.483,0,0,1,1.392-.662l.055.01.024.049a5.924,5.924,0,0,0,.9,1.469,1.8,1.8,0,0,0,1.338.644,1.156,1.156,0,0,0,1.108-.6,2.362,2.362,0,0,0,.105-1.173,2.2,2.2,0,0,1,.078-1.017,1.312,1.312,0,0,1,.457-.614.625.625,0,0,1,.465-.11.357.357,0,0,1,.154.061" transform="translate(17.4 -79.708)" fill="#fafafa"/>
      <path id="Path_40817" data-name="Path 40817" d="M291.935,344.461c0,.014-.08.011-.218.062a1.024,1.024,0,0,0-.487.392,2.669,2.669,0,0,0-.386.936,5.464,5.464,0,0,1-.367,1.34,1.39,1.39,0,0,1-.55.631,1,1,0,0,1-.917.027,1.824,1.824,0,0,1-.7-.672,6.118,6.118,0,0,1-.457-.889,2.8,2.8,0,0,0-.56-.817.965.965,0,0,0-.864-.335.834.834,0,0,0-.589.726,6.256,6.256,0,0,0-.057,1.129,3.136,3.136,0,0,1-.79,2.161,1.9,1.9,0,0,1-2.055.492,6.2,6.2,0,0,1-1.5-1.227,1.548,1.548,0,0,0-1.432-.5,1.814,1.814,0,0,0-1.032.778,3.381,3.381,0,0,0-.4.934c-.147.547-.2.861-.218.857a.889.889,0,0,1,.017-.229c.02-.149.051-.369.116-.65a3.3,3.3,0,0,1,.383-.98,1.93,1.93,0,0,1,1.1-.865,1.393,1.393,0,0,1,.836.036,2.337,2.337,0,0,1,.759.476,6.264,6.264,0,0,0,1.455,1.176,1.689,1.689,0,0,0,1.818-.456,2.933,2.933,0,0,0,.721-2.01,6.345,6.345,0,0,1,.063-1.169,1.385,1.385,0,0,1,.238-.561.937.937,0,0,1,.519-.334,1.175,1.175,0,0,1,1.067.4,2.982,2.982,0,0,1,.6.886,5.95,5.95,0,0,0,.434.866,1.65,1.65,0,0,0,.612.612.824.824,0,0,0,.752-.011,1.235,1.235,0,0,0,.49-.55,5.556,5.556,0,0,0,.387-1.3,2.658,2.658,0,0,1,.438-.958,1.021,1.021,0,0,1,.544-.383.508.508,0,0,1,.232-.019" transform="translate(-51.645 -77.394)" fill="#fafafa"/>
      <path id="Path_40818" data-name="Path 40818" d="M288.665,320.969c.006,0-.021.059-.08.159s-.148.246-.274.427a4.338,4.338,0,0,1-.518.621,2.271,2.271,0,0,1-.921.567,1.608,1.608,0,0,1-1.312-.116c-.434-.266-.641-.773-1.03-1.044a.667.667,0,0,0-.655-.068,1.144,1.144,0,0,0-.5.545,2.057,2.057,0,0,0-.206.783c-.013.283,0,.581-.014.885a2.55,2.55,0,0,1-.171.907,1.289,1.289,0,0,1-.63.67,2.04,2.04,0,0,1-1.666-.1,7.459,7.459,0,0,1-1.244-.82,3.671,3.671,0,0,0-1.1-.6,1.458,1.458,0,0,0-.988.05,1.327,1.327,0,0,0-.6.459,1,1,0,0,0-.148.629.4.4,0,0,1-.047-.173.822.822,0,0,1,.12-.5,1.375,1.375,0,0,1,.626-.528,1.576,1.576,0,0,1,1.081-.087,3.747,3.747,0,0,1,1.16.6,7.623,7.623,0,0,0,1.22.783,1.85,1.85,0,0,0,1.486.087,1.066,1.066,0,0,0,.52-.56,2.357,2.357,0,0,0,.151-.827c.011-.294,0-.588.015-.888a2.264,2.264,0,0,1,.233-.87,1.346,1.346,0,0,1,.613-.642.878.878,0,0,1,.859.091c.459.342.642.833,1.014,1.058a1.451,1.451,0,0,0,1.167.122,2.186,2.186,0,0,0,.881-.507,4.757,4.757,0,0,0,.533-.582,5.451,5.451,0,0,1,.424-.534" transform="translate(-50.625 -64.07)" fill="#fafafa"/>
      <path id="Path_40819" data-name="Path 40819" d="M247.258,377.207a.639.639,0,0,1-.223.255,1.228,1.228,0,0,1-.95.154,2.368,2.368,0,0,1-.669-.229,6.694,6.694,0,0,1-.7-.454,4.053,4.053,0,0,0-.81-.463,1.363,1.363,0,0,0-.986-.026,1.739,1.739,0,0,0-.807.75,9.27,9.27,0,0,0-.563,1.125,6.216,6.216,0,0,1-.659,1.215,1.869,1.869,0,0,1-.559.5,1.087,1.087,0,0,1-.364.137c-.064.013-.128.031-.194.039h-.2a1.368,1.368,0,0,1-.75-.263,2.726,2.726,0,0,1-.573-.551c-.331-.411-.6-.867-.929-1.285a2.429,2.429,0,0,0-1.219-.939,1.968,1.968,0,0,0-1.521.316,3.6,3.6,0,0,0-1.119,1.179c-.295.461-.536.953-.811,1.421a4.818,4.818,0,0,1-.994,1.268,2.61,2.61,0,0,1-1.406.672,1.955,1.955,0,0,1-1.421-.425,4.8,4.8,0,0,1-.92-1.037,6.314,6.314,0,0,0-1.56-1.817,1.763,1.763,0,0,0-.965-.293,2.257,2.257,0,0,0-.892.2,2.462,2.462,0,0,0-1.1.969,1.991,1.991,0,0,0-.287.891,3.229,3.229,0,0,1,0,.334.243.243,0,0,1-.018-.084,1.7,1.7,0,0,1-.024-.251,1.935,1.935,0,0,1,.257-.934,2.526,2.526,0,0,1,1.125-1.039,2.382,2.382,0,0,1,.944-.234,1.914,1.914,0,0,1,1.051.3,6.365,6.365,0,0,1,1.628,1.844,4.653,4.653,0,0,0,.887.988,1.753,1.753,0,0,0,1.277.376,2.407,2.407,0,0,0,1.288-.627,4.629,4.629,0,0,0,.945-1.217c.268-.46.509-.955.812-1.431a3.82,3.82,0,0,1,1.188-1.249,2.185,2.185,0,0,1,1.7-.343,2.63,2.63,0,0,1,1.337,1.021c.334.433.6.888.922,1.284a1.658,1.658,0,0,0,1.167.742,1.358,1.358,0,0,0,1.148-.584,6.106,6.106,0,0,0,.646-1.171,9.39,9.39,0,0,1,.586-1.141,1.9,1.9,0,0,1,.9-.8,1.508,1.508,0,0,1,1.1.041,4.114,4.114,0,0,1,.83.494,7.018,7.018,0,0,0,.677.463,2.32,2.32,0,0,0,.637.237,1.205,1.205,0,0,0,.907-.106,1.849,1.849,0,0,0,.248-.217" transform="translate(-20.278 -95.409)" fill="#fafafa"/>
      <path id="Path_40820" data-name="Path 40820" d="M248.008,344.18s-.008.025-.035.07a.452.452,0,0,1-.176.15,1,1,0,0,1-.861-.077c-.358-.167-.639-.573-1.115-.765a.7.7,0,0,0-.729.127,1.805,1.805,0,0,0-.4.813,5.4,5.4,0,0,1-.352,1.009,1.4,1.4,0,0,1-.376.46,1.2,1.2,0,0,1-.58.226,2.725,2.725,0,0,1-2.224-1.164,6.748,6.748,0,0,0-.954-.939,1.956,1.956,0,0,0-1.258-.4,3.447,3.447,0,0,0-2.417,1.422c-.617.8-1.032,1.717-1.577,2.528a4.212,4.212,0,0,1-2.153,1.79,2.421,2.421,0,0,1-1.333.082,2.237,2.237,0,0,1-1.077-.651,9.827,9.827,0,0,0-1.481-1.582,1.447,1.447,0,0,0-.865-.222,1.527,1.527,0,0,0-.757.282,3.449,3.449,0,0,0-.9.99c-.394.634-.536,1.029-.558,1.019a1.382,1.382,0,0,1,.1-.286,5.985,5.985,0,0,1,.385-.778,3.43,3.43,0,0,1,.9-1.047,1.65,1.65,0,0,1,.817-.321,1.591,1.591,0,0,1,.961.229,9.505,9.505,0,0,1,1.53,1.587,2.052,2.052,0,0,0,.99.591,2.228,2.228,0,0,0,1.221-.086,4.016,4.016,0,0,0,2.035-1.715c.531-.792.944-1.716,1.582-2.544a3.649,3.649,0,0,1,2.588-1.5,2.168,2.168,0,0,1,1.393.451,6.817,6.817,0,0,1,.981.973,3.7,3.7,0,0,0,.94.836,1.914,1.914,0,0,0,1.109.282,1.033,1.033,0,0,0,.824-.583,5.393,5.393,0,0,0,.353-.972,1.923,1.923,0,0,1,.456-.873.836.836,0,0,1,.869-.138c.52.228.784.645,1.111.8a.97.97,0,0,0,.8.114.688.688,0,0,0,.23-.178" transform="translate(-21.85 -76.781)" fill="#fafafa"/>
      <path id="Path_40821" data-name="Path 40821" d="M250.373,310.309c-.009.009-.068-.068-.221-.148a1.022,1.022,0,0,0-.733-.053,1.428,1.428,0,0,0-.893.728,7.726,7.726,0,0,0-.538,1.517,3.356,3.356,0,0,1-.413.875,1.622,1.622,0,0,1-.852.639,2.018,2.018,0,0,1-1.137-.032,4.1,4.1,0,0,1-1.074-.513,6.094,6.094,0,0,0-2.14-1.16,1.972,1.972,0,0,0-1.215.2,3.6,3.6,0,0,0-1.027.818c-.615.661-1.029,1.472-1.61,2.141a4.337,4.337,0,0,1-.967.876,2.38,2.38,0,0,1-1.2.388,3.366,3.366,0,0,1-2.11-.875c-.559-.45-1.024-.915-1.519-1.246a2.656,2.656,0,0,0-1.466-.534,1.9,1.9,0,0,0-1.117.359,1.249,1.249,0,0,0-.451.591c-.06.164-.058.26-.072.258a.668.668,0,0,1,.029-.272,1.241,1.241,0,0,1,.441-.647,1.96,1.96,0,0,1,1.169-.415,2.758,2.758,0,0,1,1.556.528c.515.333,1,.8,1.546,1.231a3.2,3.2,0,0,0,1.988.815,2.869,2.869,0,0,0,2.009-1.2c.558-.644.971-1.458,1.612-2.15a3.785,3.785,0,0,1,1.093-.866,2.191,2.191,0,0,1,1.351-.216,6.173,6.173,0,0,1,2.218,1.2,2.628,2.628,0,0,0,2.043.539,1.443,1.443,0,0,0,.764-.561,3.23,3.23,0,0,0,.4-.824,7.5,7.5,0,0,1,.58-1.53,1.756,1.756,0,0,1,.454-.514,1.47,1.47,0,0,1,.526-.235,1.038,1.038,0,0,1,.775.1.559.559,0,0,1,.2.188" transform="translate(-23.994 -57.842)" fill="#fafafa"/>
      <path id="Path_40822" data-name="Path 40822" d="M258.414,293.567a.421.421,0,0,1-.026.162,2.509,2.509,0,0,1-.154.444,1.49,1.49,0,0,1-.458.6.79.79,0,0,1-.986-.064,4.594,4.594,0,0,1-.666-1,1.424,1.424,0,0,0-.412-.452,1.227,1.227,0,0,0-.607-.192,1.757,1.757,0,0,0-1.287.482,4.226,4.226,0,0,0-.9,1.273,3.27,3.27,0,0,1-.454.71.954.954,0,0,1-.786.352,1.079,1.079,0,0,1-.717-.415,2.077,2.077,0,0,1-.356-.679,2.729,2.729,0,0,0-.555-1.17.889.889,0,0,0-.485-.254.585.585,0,0,0-.461.141,1.965,1.965,0,0,0-.451.808,1.857,1.857,0,0,1-.372.653.737.737,0,0,1-.414.239.284.284,0,0,1-.166-.011.754.754,0,0,0,.514-.286,1.873,1.873,0,0,0,.318-.636,2.016,2.016,0,0,1,.465-.887.75.75,0,0,1,.586-.194,1.061,1.061,0,0,1,.593.29,2.84,2.84,0,0,1,.622,1.237,1.886,1.886,0,0,0,.325.61.866.866,0,0,0,.57.334.733.733,0,0,0,.6-.283,3.078,3.078,0,0,0,.419-.662,4.369,4.369,0,0,1,.951-1.336,1.958,1.958,0,0,1,1.448-.524,1.418,1.418,0,0,1,.7.235,1.594,1.594,0,0,1,.46.518,4.776,4.776,0,0,0,.614.976.651.651,0,0,0,.81.078,1.455,1.455,0,0,0,.449-.536c.183-.353.239-.574.259-.567" transform="translate(-34.257 -48.123)" fill="#fafafa"/>
      <path id="Path_40823" data-name="Path 40823" d="M192,294.576a.717.717,0,0,1,.042.2,5.547,5.547,0,0,1,.053.6,2.815,2.815,0,0,1-.113.95,1.586,1.586,0,0,1-.822.968,1.128,1.128,0,0,1-.761.1,1.208,1.208,0,0,1-.674-.486c-.171-.227-.3-.482-.452-.719a1.141,1.141,0,0,0-2.088.109,2.331,2.331,0,0,0-.269.923,6.9,6.9,0,0,0,.018,1.027,3.258,3.258,0,0,1-.077,1.075,1.5,1.5,0,0,1-.61.882,1.186,1.186,0,0,1-1.037.084,2.274,2.274,0,0,1-.817-.538c-.442-.46-.713-.98-1.093-1.348a1.661,1.661,0,0,0-1.294-.525,1.621,1.621,0,0,0-1.074.46,1.716,1.716,0,0,0-.445.785,2.345,2.345,0,0,0-.042.786.525.525,0,0,1-.059-.2,1.6,1.6,0,0,1,.016-.6,1.764,1.764,0,0,1,.44-.853,1.741,1.741,0,0,1,1.155-.532,1.825,1.825,0,0,1,1.434.55c.409.388.7.915,1.109,1.334a2.083,2.083,0,0,0,.742.483.97.97,0,0,0,.849-.068,1.286,1.286,0,0,0,.511-.756,3.062,3.062,0,0,0,.068-1,3.53,3.53,0,0,1,.284-2.071,1.345,1.345,0,0,1,2.447-.107c.159.251.28.5.435.714a1.036,1.036,0,0,0,.566.429.97.97,0,0,0,.651-.073,1.462,1.462,0,0,0,.77-.864,2.862,2.862,0,0,0,.144-.909c0-.513-.027-.8-.007-.8" transform="translate(3.946 -49.097)" fill="#fafafa"/>
      <path id="Path_40824" data-name="Path 40824" d="M217.627,177.885c-2.93-.631-5.69,2.177-8.669,1.85-1.809-.2-3.273-1.506-4.931-2.256a9.169,9.169,0,0,0-8.16.38c-2.314,1.432-3.762,2.875-3.863,5.595-2.308-1.077-5.745,2-6.769,4.784s-.476,5.516.476,8.32a39.083,39.083,0,0,0,7.6,13.163c.3.34.758.7,1.149.479a.988.988,0,0,0,.356-.826,32.7,32.7,0,0,0-.81-7.925,19.777,19.777,0,0,1-.171-7.93c.621-2.589,2.4-5.053,4.957-5.787a8.439,8.439,0,0,1,5.731.729c1.79.814,3.4,1.971,5.121,2.926a10.853,10.853,0,0,0,5.59,1.64A5.153,5.153,0,0,0,219.907,190c.684-1.844-.465-4.284-2.417-4.529a3.866,3.866,0,0,0,.137-7.585" transform="translate(1.493 17.771)" fill="#263238"/>
      <path id="Path_40825" data-name="Path 40825" d="M219,229.4l-.756-5.646s7.35-2.064,6.543-9.564c-.389-3.622-1.8-11.013-3.152-17.689a14.055,14.055,0,0,0-15.451-11.165l-.722.087c-7.737,1.391-10.878,8.739-9.274,16.433l4.361,30.115a9.314,9.314,0,0,0,10.494,7.892h0A9.316,9.316,0,0,0,219,229.4" transform="translate(-4.803 12.933)" fill="#ffbe9d"/>
      <path id="Path_40826" data-name="Path 40826" d="M234.479,272.135a17.54,17.54,0,0,1-10.1-1.6s2.955,5.112,10.347,3.54Z" transform="translate(-21.027 -35.458)" fill="#eb996e"/>
      <path id="Path_40827" data-name="Path 40827" d="M247.417,220.611a1.1,1.1,0,0,1-.895,1.245,1.05,1.05,0,0,1-1.225-.873,1.1,1.1,0,0,1,.894-1.245,1.051,1.051,0,0,1,1.226.874" transform="translate(-32.884 -6.633)" fill="#263238"/>
      <path id="Path_40828" data-name="Path 40828" d="M247.278,220.153c-.116.155-1-.347-2.149-.206-1.151.125-1.925.818-2.067.692-.069-.055.036-.323.372-.635a2.953,2.953,0,0,1,1.633-.727,2.843,2.843,0,0,1,1.732.338c.386.229.536.467.479.537" transform="translate(-31.613 -6.371)" fill="#263238"/>
      <path id="Path_40829" data-name="Path 40829" d="M222.1,222.712a1.11,1.11,0,0,1-.891,1.267,1.061,1.061,0,0,1-1.229-.894,1.11,1.11,0,0,1,.89-1.267,1.063,1.063,0,0,1,1.23.9" transform="translate(-18.52 -7.813)" fill="#263238"/>
      <path id="Path_40830" data-name="Path 40830" d="M221.748,222.227c-.116.155-1-.347-2.149-.206-1.151.125-1.925.818-2.067.692-.068-.055.035-.322.372-.634a2.95,2.95,0,0,1,1.633-.727,2.841,2.841,0,0,1,1.731.338c.386.229.537.467.479.537" transform="translate(-17.13 -7.547)" fill="#263238"/>
      <path id="Path_40831" data-name="Path 40831" d="M236.557,229.885a7.651,7.651,0,0,1,1.829-.562c.29-.066.561-.158.587-.364a1.508,1.508,0,0,0-.3-.848l-1.138-2.133a38.828,38.828,0,0,1-2.655-5.619,38.75,38.75,0,0,1,3.1,5.392q.578,1.126,1.1,2.151a1.713,1.713,0,0,1,.291,1.135.742.742,0,0,1-.431.488,2.007,2.007,0,0,1-.491.129,7.542,7.542,0,0,1-1.894.23" transform="translate(-26.976 -6.995)" fill="#263238"/>
      <path id="Path_40832" data-name="Path 40832" d="M231,245.153c.186-.033.338,1.215,1.514,1.974s2.489.461,2.52.635c.026.076-.268.278-.828.361a3.131,3.131,0,0,1-2.095-.459,2.729,2.729,0,0,1-1.19-1.665c-.11-.516-.008-.842.078-.845" transform="translate(-24.707 -21.06)" fill="#263238"/>
      <path id="Path_40833" data-name="Path 40833" d="M219.154,210.41c-.077.327-1.243.316-2.574.641-1.338.3-2.378.824-2.592.565-.1-.125.058-.442.463-.8a4.61,4.61,0,0,1,3.935-.919c.519.14.8.356.768.51" transform="translate(-15.115 -0.993)" fill="#263238"/>
      <path id="Path_40834" data-name="Path 40834" d="M245.755,211.319c-.171.286-1,.109-1.951.211-.958.068-1.739.387-1.958.136-.1-.123,0-.4.321-.69a2.842,2.842,0,0,1,3.15-.279c.369.228.512.484.438.622" transform="translate(-30.913 -1.314)" fill="#263238"/>
      <path id="Path_40835" data-name="Path 40835" d="M193.609,236.186c-.134-.04-5.328-.9-4.55,4.2s5.738,3.267,5.725,3.119-1.175-7.315-1.175-7.315" transform="translate(-0.943 -15.929)" fill="#ffbe9d"/>
      <path id="Path_40836" data-name="Path 40836" d="M194.7,244.169c-.025-.013-.08.076-.219.168a.9.9,0,0,1-.662.115,2.226,2.226,0,0,1-1.318-1.818,2.97,2.97,0,0,1,.055-1.309,1.039,1.039,0,0,1,.564-.784.458.458,0,0,1,.562.163c.09.132.073.239.1.244s.1-.1.023-.307a.575.575,0,0,0-.249-.289.678.678,0,0,0-.511-.055,1.265,1.265,0,0,0-.807.933,3.051,3.051,0,0,0-.091,1.469,2.332,2.332,0,0,0,1.632,2,.963.963,0,0,0,.792-.258c.138-.15.148-.268.129-.275" transform="translate(-2.711 -18.291)" fill="#eb996e"/>
      <path id="Path_40837" data-name="Path 40837" d="M221.958,192.96a10.892,10.892,0,0,1-9.868-1.011c-2.007-1.326-3.679-3.377-6.047-3.806a6.127,6.127,0,0,0-4.575,1.2A11.835,11.835,0,0,0,198.331,193c1.9,3.632,1.442,8,.931,12.066a2.051,2.051,0,0,1-.454,1.253,1.638,1.638,0,0,1-2.094-.206,6.368,6.368,0,0,1-1.79-3.171,21.213,21.213,0,0,1-.948-8.311,14.445,14.445,0,0,1,3.071-7.71,13.684,13.684,0,0,1,9.1-4.745,16.8,16.8,0,0,1,10.09,2.3,9.842,9.842,0,0,1,3.579,3.244" transform="translate(-3.727 14.71)" fill="#263238"/>
      <path id="Path_40838" data-name="Path 40838" d="M230.951,181.763a1.1,1.1,0,0,1,.007.45,2.093,2.093,0,0,1-.589,1.141,3.28,3.28,0,0,1-1.836.868,5.5,5.5,0,0,1-1.28.074,2.741,2.741,0,0,1-1.377-.448,1.819,1.819,0,0,1-.813-1.369,1.6,1.6,0,0,1,.93-1.437,1.979,1.979,0,0,1,.907-.228,1.682,1.682,0,0,1,.926.289,2.347,2.347,0,0,1,.977,1.7,2.719,2.719,0,0,1-.582,1.975,4.139,4.139,0,0,1-1.729,1.276,6.791,6.791,0,0,1-4.432.049,19.4,19.4,0,0,1-4.06-1.825,24.6,24.6,0,0,0-3.7-1.78,7.641,7.641,0,0,0-3.62-.434,7.306,7.306,0,0,0-2.969,1.154,9.128,9.128,0,0,0-3.026,3.495,12.023,12.023,0,0,0-.52,1.166,3.491,3.491,0,0,1-.168.414.379.379,0,0,1,.023-.112c.02-.073.048-.181.1-.32a9.592,9.592,0,0,1,.479-1.193,9.016,9.016,0,0,1,3.015-3.6,7.441,7.441,0,0,1,3.038-1.214,7.83,7.83,0,0,1,3.729.421,24.475,24.475,0,0,1,3.741,1.783,19.381,19.381,0,0,0,4.01,1.8,6.562,6.562,0,0,0,4.268-.036,3.9,3.9,0,0,0,1.629-1.192,2.478,2.478,0,0,0,.541-1.8,2.122,2.122,0,0,0-.868-1.538,1.553,1.553,0,0,0-1.612-.06,1.4,1.4,0,0,0-.83,1.242,1.637,1.637,0,0,0,.721,1.228,2.583,2.583,0,0,0,1.286.433,5.422,5.422,0,0,0,1.244-.053,3.209,3.209,0,0,0,1.789-.8,2.11,2.11,0,0,0,.609-1.08,3.557,3.557,0,0,0,.043-.441" transform="translate(-9.465 15.439)" fill="#455a64"/>
      <path id="Path_40839" data-name="Path 40839" d="M185.072,205.58a8.515,8.515,0,0,0,1.612.219,4.431,4.431,0,0,0,1.694-.384,7.446,7.446,0,0,0,1.809-1.154,6.025,6.025,0,0,0,1.915-3.324,12.426,12.426,0,0,0,.15-1.627,1.338,1.338,0,0,1,.08.44,5.141,5.141,0,0,1-.052,1.219,5.877,5.877,0,0,1-1.926,3.485,7.2,7.2,0,0,1-1.885,1.178,4.368,4.368,0,0,1-1.786.348,4.073,4.073,0,0,1-1.2-.215,1.3,1.3,0,0,1-.408-.184" transform="translate(1.274 4.947)" fill="#455a64"/>
      <path id="Path_40840" data-name="Path 40840" d="M186.618,213.977c0-.048.615.014,1.574-.157a7.073,7.073,0,0,0,5.5-4.667c.325-.919.364-1.534.411-1.527a1.264,1.264,0,0,1,0,.431,5.874,5.874,0,0,1-.235,1.153A6.83,6.83,0,0,1,188.22,214a5.9,5.9,0,0,1-1.176.045,1.261,1.261,0,0,1-.426-.067" transform="translate(0.397 0.229)" fill="#455a64"/>
      <path id="Path_40841" data-name="Path 40841" d="M219.043,235.822a.14.14,0,1,1,.078-.173.134.134,0,0,1-.078.173" transform="translate(-17.9 -15.613)" fill="#eb996e"/>
      <path id="Path_40842" data-name="Path 40842" d="M223.973,234.009a.164.164,0,1,1,.071-.192.147.147,0,0,1-.071.192" transform="translate(-20.692 -14.562)" fill="#eb996e"/>
      <path id="Path_40843" data-name="Path 40843" d="M227.381,233.385c-.068.017-.147-.06-.175-.172s.005-.217.074-.234.147.06.174.172,0,.216-.073.234" transform="translate(-22.623 -14.153)" fill="#eb996e"/>
      <path id="Path_40844" data-name="Path 40844" d="M221.97,238.852c-.07.009-.131-.021-.137-.066s.047-.088.117-.1.131.021.136.066-.047.088-.117.1" transform="translate(-19.58 -17.393)" fill="#eb996e"/>
      <path id="Path_40845" data-name="Path 40845" d="M226.472,237.05a.146.146,0,1,1,.1-.168.137.137,0,0,1-.1.168" transform="translate(-22.123 -16.301)" fill="#eb996e"/>
      <path id="Path_40846" data-name="Path 40846" d="M250.356,231.252a.145.145,0,1,1,.077-.177.136.136,0,0,1-.077.177" transform="translate(-35.663 -13.016)" fill="#eb996e"/>
      <path id="Path_40847" data-name="Path 40847" d="M253.794,230.47a.165.165,0,1,1,.09-.185.148.148,0,0,1-.09.185" transform="translate(-37.619 -12.551)" fill="#eb996e"/>
      <path id="Path_40848" data-name="Path 40848" d="M247.326,231.783a.113.113,0,1,1,.087-.147.12.12,0,0,1-.087.147" transform="translate(-33.951 -13.351)" fill="#eb996e"/>
      <path id="Path_40849" data-name="Path 40849" d="M250.247,234.873a.149.149,0,1,1,.035-.192.139.139,0,0,1-.035.192" transform="translate(-35.581 -15.075)" fill="#eb996e"/>
      <path id="Path_40850" data-name="Path 40850" d="M253.261,234a.109.109,0,1,1,.142-.088.119.119,0,0,1-.142.088" transform="translate(-37.346 -14.611)" fill="#eb996e"/>
      <path id="Path_40851" data-name="Path 40851" d="M187.663,240.071c.008.026-.28.024-.511-.31a.89.89,0,0,1-.134-.667,1.121,1.121,0,0,1,.463-.689,1.176,1.176,0,0,1,.8-.2,1.3,1.3,0,0,1,.623.238c.313.232.366.485.344.488-.034.021-.136-.186-.431-.354a1.155,1.155,0,0,0-1.209.012.97.97,0,0,0-.389.548.775.775,0,0,0,.067.542c.154.3.389.358.374.392" transform="translate(0.179 -17.115)" fill="#263238"/>
      <path id="Path_40852" data-name="Path 40852" d="M223.218,365.606l.385,11.173s-32.392,6.417-36.559,8.564-5.868,2.479-5.615,8.666l51.764-.089s6.38-2.39,6.253-9.335-1.862-23.632-1.862-23.632Z" transform="translate(3.354 -86.753)" fill="#ffbe9d"/>
      <path id="Path_40853" data-name="Path 40853" d="M180.4,421.806l4.3-.393,4.106-9.81c-.666-.113-14.519-2.161-15.336-1.937l-3.322,11.8s9.954.337,10.25.337" transform="translate(9.737 -114.377)" fill="#ffbe9d"/>
      <path id="Path_40855" data-name="Path 40855" d="M165.715,426.5c.01.02.092.038.231.052,1.144.125,6.139.071,6.355-.538.242-.682-.142-2.39-.8-2.51s-6.281.259-6.281.259-.886.116-1.106,1.6c-.136.919,1.6,1.132,1.6,1.132" transform="translate(13.168 -122.224)" fill="#ffbe9d"/>
      <path id="Path_40856" data-name="Path 40856" d="M163.668,419.717c.01.02.093.038.231.053,1.144.125,6.139.07,6.355-.538.242-.682-.142-2.391-.8-2.511s-6.281.259-6.281.259-.886.116-1.106,1.6c-.136.919,1.6,1.132,1.6,1.132" transform="translate(14.329 -118.376)" fill="#ffbe9d"/>
      <path id="Path_40857" data-name="Path 40857" d="M161.745,412.973c.01.019.093.038.231.053,1.144.125,6.139.07,6.355-.538.242-.682-.142-2.391-.8-2.511s-6.281.26-6.281.26-.886.116-1.106,1.6c-.137.919,1.6,1.132,1.6,1.132" transform="translate(15.419 -114.55)" fill="#ffbe9d"/>
      <path id="Path_40859" data-name="Path 40859" d="M172.929,423.494a19.231,19.231,0,0,1-3.457.267,19.272,19.272,0,0,1-3.468-.047,19.184,19.184,0,0,1,3.458-.267,19.184,19.184,0,0,1,3.467.047" transform="translate(12.091 -122.186)" fill="#eb996e"/>
      <path id="Path_40861" data-name="Path 40861" d="M184.891,407.627s-9.43-4.193-10.018-3.587a13.863,13.863,0,0,0-1.5,2.552Z" transform="translate(7.909 -111.162)" fill="#ffbe9d"/>
      <path id="Path_40862" data-name="Path 40862" d="M285.672,407.243c-.04.012-.232-.675-.681-1.728a17.642,17.642,0,0,0-.894-1.8,17.171,17.171,0,0,0-3.011-3.861,17.627,17.627,0,0,0-1.524-1.305c-.911-.692-1.53-1.045-1.509-1.081a2.137,2.137,0,0,1,.451.22,11.478,11.478,0,0,1,1.154.733,15.251,15.251,0,0,1,1.572,1.283,15.8,15.8,0,0,1,3.049,3.91,15.177,15.177,0,0,1,.861,1.838,11.49,11.49,0,0,1,.429,1.3,2.12,2.12,0,0,1,.1.491" transform="translate(-51.473 -107.468)" fill="#eb996e"/>
      <path id="Path_40863" data-name="Path 40863" d="M180.857,298.482,171.1,326.243,160.136,329.4s3.976,16.826,8.036,19.848a9.452,9.452,0,0,0,5.946,1.978,13.886,13.886,0,0,0,11.173-7.711c1.665-3.835,6.114-43.484,6.114-43.484Z" transform="translate(15.42 -51.314)" fill="#ffbe9d"/>
      <path id="Path_40864" data-name="Path 40864" d="M214.273,270.96l.568-6.765-1.569-5.429-.607-2.077,1.186,1.213,2.164-2.306s-.7-4.1-1.288-4.1a10.936,10.936,0,0,0-2.19.643c-.446.163-.777.293-.777.293l-1.832.936,1.832-2.809s1.887,1.57,2.852.206c.738-1.043-2.011-3.381-3.047-4.205a1.025,1.025,0,0,0-.842-.2l-1.068.215a1.556,1.556,0,0,0-1.564-1.424,2.4,2.4,0,0,0-2.048,1.227l-1.127.2a1.876,1.876,0,0,0-1.76,1.228l-2.475,6.732,3.177,13.686" transform="translate(-7.581 -21.06)" fill="#ffbe9d"/>
      <path id="Path_40865" data-name="Path 40865" d="M203.736,268.086s-.028-.081-.07-.243l-.18-.717-.662-2.744-2.352-9.962-.006-.026.009-.026,1.546-4.233.833-2.276a2.188,2.188,0,0,1,.695-1.083,2,2,0,0,1,1.244-.442h-.019l1.127-.2-.075.055a2.749,2.749,0,0,1,.825-.891,2.261,2.261,0,0,1,1.179-.39,1.743,1.743,0,0,1,1.212.381,1.478,1.478,0,0,1,.6,1.152l-.132-.115.808-.163a3.6,3.6,0,0,1,.424-.073,1.144,1.144,0,0,1,.454.068,1.243,1.243,0,0,1,.387.234l.327.267q.326.271.643.556a14.45,14.45,0,0,1,1.218,1.218,4.02,4.02,0,0,1,.92,1.514.99.99,0,0,1-.013.549,1.313,1.313,0,0,1-.314.443,1.327,1.327,0,0,1-.978.355,3.375,3.375,0,0,1-1.82-.788l.166-.025L209.9,253.29l-.143-.158,1.833-.935.006,0h0c.618-.235,1.228-.466,1.844-.662a8.087,8.087,0,0,1,.938-.254.834.834,0,0,1,.275-.016.434.434,0,0,1,.241.189,2.18,2.18,0,0,1,.226.44,21.57,21.57,0,0,1,.868,3.549l.009.048-.035.037-2.169,2.3-.067.071-.068-.07-1.183-1.215.151-.088,2.152,7.513,0,.012v.012c-.192,2.131-.344,3.818-.449,4.985-.055.569-.1,1.01-.128,1.321-.016.142-.028.254-.037.339a.565.565,0,0,1-.019.114.578.578,0,0,1,0-.116c0-.086.011-.2.02-.341q.033-.467.094-1.323c.091-1.168.222-2.857.389-4.99l0,.024c-.609-2.076-1.348-4.6-2.2-7.5l-.1-.345.252.257,1.189,1.21h-.135l2.16-2.31-.026.085a21.589,21.589,0,0,0-.867-3.5,1.983,1.983,0,0,0-.2-.4.268.268,0,0,0-.114-.106.749.749,0,0,0-.2.018,7.829,7.829,0,0,0-.909.249c-.609.2-1.216.427-1.83.661l.009,0-1.832.938-.369.189.226-.347,1.831-2.81.066-.1.1.076a3.176,3.176,0,0,0,1.683.736,1.1,1.1,0,0,0,.819-.3,1.129,1.129,0,0,0,.254-.351.769.769,0,0,0,.006-.425,3.832,3.832,0,0,0-.87-1.417,14.127,14.127,0,0,0-1.2-1.2q-.314-.282-.636-.55a2.786,2.786,0,0,0-.648-.464,1.238,1.238,0,0,0-.757.014l-.808.162-.136.027,0-.142a1.268,1.268,0,0,0-.518-.968,1.519,1.519,0,0,0-1.065-.335,2.256,2.256,0,0,0-1.824,1.162l-.028.047-.048.009-1.127.2-.01,0h-.01a1.787,1.787,0,0,0-1.114.393,1.976,1.976,0,0,0-.634.992l-.84,2.273-1.564,4.227,0-.051,2.277,9.98.614,2.755c.066.309.117.549.154.723s.044.249.044.249" transform="translate(-7.46 -20.917)" fill="#eb996e"/>
      <path id="Path_40866" data-name="Path 40866" d="M226.078,268a12.248,12.248,0,0,1,1.9-1.022l.7-.342-.585.524a1.8,1.8,0,0,0-.39.5,1.84,1.84,0,0,0-.216,1,1.888,1.888,0,0,0,.257.807,4.661,4.661,0,0,0,.514.623c-.006.022-.335-.1-.649-.537a1.906,1.906,0,0,1-.33-.874,1.967,1.967,0,0,1,.669-1.683l.119.181a12.222,12.222,0,0,1-1.99.824" transform="translate(-21.989 -33.247)" fill="#eb996e"/>
      <path id="Path_40867" data-name="Path 40867" d="M214.092,253.733a5.841,5.841,0,0,1,.53-1.021c.352-.615.852-1.458,1.415-2.381.284-.461.548-.9.808-1.3a2.706,2.706,0,0,1,.9-.907,1.408,1.408,0,0,1,.843-.186c.206.026.3.1.3.1s-.111-.02-.3-.017a1.463,1.463,0,0,0-.757.236,7.086,7.086,0,0,0-1.592,2.184c-.564.923-1.085,1.752-1.472,2.346a5.838,5.838,0,0,1-.666.938" transform="translate(-15.188 -22.637)" fill="#eb996e"/>
      <path id="Path_40868" data-name="Path 40868" d="M206.343,253.5a3.989,3.989,0,0,1,.32-.92c.228-.556.566-1.313.973-2.135s.805-1.549,1.109-2.067a3.951,3.951,0,0,1,.539-.812,4.42,4.42,0,0,1-.4.887l-1.048,2.092-1.03,2.1a4.418,4.418,0,0,1-.465.855" transform="translate(-10.791 -22.431)" fill="#eb996e"/>
      <path id="Path_40869" data-name="Path 40869" d="M182.367,356.37a2.379,2.379,0,0,1-.158.5l-.5,1.343c-.427,1.132-1.012,2.7-1.63,4.435s-1.151,3.322-1.534,4.47l-.458,1.358a2.336,2.336,0,0,1-.195.49,2.369,2.369,0,0,1,.111-.515c.084-.328.218-.8.39-1.38.344-1.161.855-2.755,1.473-4.5s1.229-3.3,1.694-4.418c.232-.56.427-1.009.568-1.317a2.361,2.361,0,0,1,.24-.47" transform="translate(5.349 -84.153)" fill="#eb996e"/>
      <path id="Path_40870" data-name="Path 40870" d="M186.758,376.865a.549.549,0,0,1-.01.128l-.05.373c-.05.343-.119.822-.207,1.43s-.209,1.38-.384,2.256a18.212,18.212,0,0,1-.815,2.925,9.682,9.682,0,0,1-1.908,3.145,14.382,14.382,0,0,1-3.289,2.652,17.664,17.664,0,0,1-4.312,1.794,9.525,9.525,0,0,1-2.459.344,7.459,7.459,0,0,1-2.522-.442,9.288,9.288,0,0,1-4.017-2.968,15.942,15.942,0,0,1-2.327-4.048c-.566-1.383-.9-2.761-1.291-4.016l-1.084-3.5c-.669-2.141-1.18-3.886-1.5-5.1-.161-.607-.278-1.08-.35-1.4-.034-.151-.061-.272-.081-.367a.525.525,0,0,1-.02-.127.549.549,0,0,1,.043.122l.1.361.392,1.39c.344,1.206.877,2.94,1.566,5.075l1.111,3.5c.4,1.259.74,2.629,1.305,3.993a15.821,15.821,0,0,0,2.305,3.987,9.1,9.1,0,0,0,3.922,2.9,7.246,7.246,0,0,0,2.446.43,9.361,9.361,0,0,0,2.4-.333,17.609,17.609,0,0,0,4.262-1.759,14.292,14.292,0,0,0,3.257-2.6,9.575,9.575,0,0,0,1.9-3.077,18.559,18.559,0,0,0,.84-2.892c.185-.87.313-1.627.42-2.244l.249-1.424.072-.369a.54.54,0,0,1,.032-.125" transform="translate(15.421 -91.849)" fill="#eb996e"/>
      <rect id="Rectangle_5971" data-name="Rectangle 5971" width="189.009" height="189.964" transform="translate(106.264 118.013)" fill="none"/>
      <path id="Path_40871" data-name="Path 40871" d="M14.642,358.42a4.857,4.857,0,0,0-2.518-3.216,5.889,5.889,0,0,0-4.277.25,15.371,15.371,0,0,1-4.188,1.259,3.409,3.409,0,0,1-3.548-2,3.819,3.819,0,0,1,1.372-3.668,8.821,8.821,0,0,1,8.025-2.181,8.821,8.821,0,0,1,6.16,5.586" transform="translate(116.401 -79.766)" fill="#3c8"/>
      <g id="Group_58043" data-name="Group 58043" transform="translate(116.402 268.871)" opacity="0.379">
        <g id="Group_58042" data-name="Group 58042" clip-path="url(#clip-path-4)">
          <path id="Path_40872" data-name="Path 40872" d="M14.642,358.42a4.857,4.857,0,0,0-2.518-3.216,5.889,5.889,0,0,0-4.277.25,15.371,15.371,0,0,1-4.188,1.259,3.409,3.409,0,0,1-3.548-2,3.819,3.819,0,0,1,1.372-3.668,8.821,8.821,0,0,1,8.025-2.181,8.821,8.821,0,0,1,6.16,5.586" transform="translate(0 -348.636)"/>
        </g>
      </g>
      <path id="Path_40873" data-name="Path 40873" d="M32.232,362.8c2.143-2.036,2.036-5.581.967-8.338a12.63,12.63,0,0,0-6.01-6.268,19.031,19.031,0,0,0-16.587-.538,7.876,7.876,0,0,1,6.366,3.738c1.175,1.951,1.436,4.319,2.406,6.379A10.041,10.041,0,0,0,32.232,362.8" transform="translate(110.387 -78.277)" fill="#3c8"/>
      <path id="Path_40874" data-name="Path 40874" d="M48.008,310.266c2.373-2.8,2.689-7.3,2.34-10.953s-1.2-7.333-.62-10.959c.341-2.148,1.175-4.2,1.456-6.356s-.118-4.6-1.789-5.988c-1.921-1.6-4.945-1.223-6.944.28a13.018,13.018,0,0,0-4,6.215c-1.858,5.168-2.541,10.9-1.014,16.175s5.109,9.993,10.366,11.586" transform="translate(95.642 -37.977)" fill="#3c8"/>
      <path id="Path_40875" data-name="Path 40875" d="M45.687,375.979a1.989,1.989,0,0,0,.009-.323c0-.212,0-.524-.018-.925-.03-.8-.108-1.966-.288-3.393a45.174,45.174,0,0,0-.912-4.968,22.9,22.9,0,0,0-2.267-5.753,23.975,23.975,0,0,0-3.7-4.953,23.6,23.6,0,0,0-3.884-3.23c-.593-.41-1.166-.721-1.66-1.009-.506-.266-.948-.484-1.31-.659l-.854-.359a1.935,1.935,0,0,0-.3-.112,2.011,2.011,0,0,0,.287.149l.836.392c.356.185.791.412,1.289.686.486.3,1.051.614,1.636,1.029a24.409,24.409,0,0,1,7.5,8.164,29.737,29.737,0,0,1,3.213,10.643c.2,1.421.3,2.578.349,3.379q.034.58.054.923a1.956,1.956,0,0,0,.031.322" transform="translate(99.102 -80.706)" fill="#fff"/>
      <path id="Path_40876" data-name="Path 40876" d="M98,330.995c4.391,2.65,4.377,5.061,3.644,7.337s-3.428,3.857-5.662,3a6.93,6.93,0,0,1-2.959-2.682,12.4,12.4,0,0,0-2.611-3.076,3.346,3.346,0,0,0-3.783-.31" transform="translate(67.257 -69.758)" fill="#3c8"/>
      <g id="Group_58046" data-name="Group 58046" transform="translate(153.887 261.237)" opacity="0.379">
        <g id="Group_58045" data-name="Group 58045" clip-path="url(#clip-path-5)">
          <path id="Path_40877" data-name="Path 40877" d="M98,330.995c4.391,2.65,4.377,5.061,3.644,7.337s-3.428,3.857-5.662,3a6.93,6.93,0,0,1-2.959-2.682,12.4,12.4,0,0,0-2.611-3.076,3.346,3.346,0,0,0-3.783-.31" transform="translate(-86.63 -330.995)"/>
        </g>
      </g>
      <path id="Path_40878" data-name="Path 40878" d="M92.356,329.9c-1.148-1.586-3.984-2.046-5.775-1.254a11.563,11.563,0,0,0-4.278,3.929,17.475,17.475,0,0,1-3.943,4.312c-1.627,1.09-3.9,1.485-5.52.387a4.746,4.746,0,0,1-1.875-3.247,10.81,10.81,0,0,1,.258-3.829,8.251,8.251,0,0,1,2.494-4.935c1.643-1.3,3.922-1.366,6.017-1.3a22.537,22.537,0,0,1,7.1,1.093,9.865,9.865,0,0,1,5.519,4.842" transform="translate(76.189 -65.763)" fill="#3c8"/>
      <path id="Path_40879" data-name="Path 40879" d="M74.019,358.157a.351.351,0,0,0,.012-.1c0-.075.009-.168.015-.283.009-.264.022-.629.038-1.09.028-.963.067-2.328.115-4.008s.122-3.706.244-5.94.291-4.689.63-7.245a23.329,23.329,0,0,1,.727-3.679,19.081,19.081,0,0,1,1.346-3.22,18.548,18.548,0,0,1,1.7-2.665,17.346,17.346,0,0,1,1.854-2.035,13.638,13.638,0,0,1,3.286-2.241c.215-.1.4-.194.569-.263l.429-.166.263-.106a.346.346,0,0,0,.087-.043.36.36,0,0,0-.094.024l-.27.088-.437.15c-.171.063-.362.154-.58.247a13.149,13.149,0,0,0-3.347,2.207,17.135,17.135,0,0,0-1.889,2.038,18.483,18.483,0,0,0-1.729,2.68,19.078,19.078,0,0,0-1.37,3.247,23.282,23.282,0,0,0-.738,3.71c-.34,2.566-.5,5.026-.616,7.262s-.167,4.253-.2,5.946-.048,3.063-.052,4.01c0,.461,0,.826,0,1.09,0,.115,0,.208,0,.283a.359.359,0,0,0,.008.1" transform="translate(74.419 -66.4)" fill="#fff"/>
      <path id="Path_40880" data-name="Path 40880" d="M62,342.594a12.583,12.583,0,0,0,.481-1.886,19.787,19.787,0,0,0,.2-5.3,35.175,35.175,0,0,0-1.673-7.686c-.9-2.825-2.124-5.846-3.169-9.093a41.767,41.767,0,0,1-1.261-4.811,42.8,42.8,0,0,1-.623-4.59,67.145,67.145,0,0,1-.14-7.85c.076-2.236.195-4.044.269-5.294.036-.615.064-1.1.085-1.44.007-.156.013-.28.017-.374a.586.586,0,0,0,0-.128.67.67,0,0,0-.019.126c-.01.094-.022.218-.037.373-.029.341-.07.823-.122,1.437-.1,1.248-.238,3.056-.331,5.294a64.75,64.75,0,0,0,.1,7.87,42.325,42.325,0,0,0,.614,4.612,41.487,41.487,0,0,0,1.263,4.834c1.049,3.257,2.276,6.275,3.185,9.089a35.772,35.772,0,0,1,1.707,7.643A20.439,20.439,0,0,1,62.4,340.7c-.108.615-.206,1.091-.293,1.408l-.089.364a.593.593,0,0,0-.024.126" transform="translate(84.859 -48.853)" fill="#fff"/>
      <path id="Path_40881" data-name="Path 40881" d="M45.227,405.5H65.844l.471-3.968H45.227Z" transform="translate(90.744 -109.77)" fill="#8c4239"/>
      <path id="Path_40882" data-name="Path 40882" d="M66.532,409.654l-2.578,11.9h-11.2l-2.411-11.9Z" transform="translate(87.844 -114.381)" fill="#8c4239"/>
      <path id="Path_40883" data-name="Path 40883" d="M45.228,410.527c0,.055,4.533.086,10.123.07s10.124-.072,10.124-.126-4.532-.086-10.124-.07-10.123.072-10.123.126" transform="translate(90.745 -114.802)" fill="#8c4239"/>
      <path id="Path_40884" data-name="Path 40884" d="M53.4,422.089a8.508,8.508,0,0,1,1.816-1.041,6.417,6.417,0,0,1,2.208-.444,7.768,7.768,0,0,1,2.714.5c.94.318,1.817.688,2.672.891a6.366,6.366,0,0,0,2.309.07,4.753,4.753,0,0,0,1.484-.47,2.87,2.87,0,0,0,.358-.228c.077-.058.116-.091.112-.1s-.176.1-.5.255a5.19,5.19,0,0,1-1.47.4,6.467,6.467,0,0,1-2.25-.109c-.825-.206-1.7-.58-2.649-.9a7.717,7.717,0,0,0-2.782-.493,6.316,6.316,0,0,0-2.256.5,5.834,5.834,0,0,0-1.344.784,3.536,3.536,0,0,0-.32.276c-.07.067-.1.1-.1.109" transform="translate(86.106 -120.487)" fill="#090f2f"/>
      <path id="Path_40885" data-name="Path 40885" d="M53.766,423.951a8.959,8.959,0,0,1,1.744-1.027,5.9,5.9,0,0,1,2.129-.439,7.671,7.671,0,0,1,2.626.472c.908.3,1.76.656,2.575.875a6.615,6.615,0,0,0,2.219.249,3.757,3.757,0,0,0,1.455-.389,2.635,2.635,0,0,0,.347-.219c.074-.057.112-.089.108-.094s-.17.1-.488.245a4.008,4.008,0,0,1-1.431.319,6.773,6.773,0,0,1-2.162-.285c-.8-.224-1.643-.58-2.561-.887a7.611,7.611,0,0,0-2.692-.467,5.829,5.829,0,0,0-3.466,1.271,3.619,3.619,0,0,0-.307.27c-.067.065-.1.1-.1.107" transform="translate(85.9 -121.555)" fill="#fff"/>
      <path id="Path_40886" data-name="Path 40886" d="M52.932,420.045a9.742,9.742,0,0,1,1.865-1.1,6.852,6.852,0,0,1,2.263-.544,7.321,7.321,0,0,1,2.8.494,25.21,25.21,0,0,0,2.767.9,7.024,7.024,0,0,0,2.385,0,5.353,5.353,0,0,0,1.532-.485,2.851,2.851,0,0,0,.372-.231c.08-.06.12-.094.116-.1s-.181.106-.521.261a5.913,5.913,0,0,1-1.521.416,7.2,7.2,0,0,1-2.329-.044,28.1,28.1,0,0,1-2.738-.912,7.3,7.3,0,0,0-2.875-.489,6.94,6.94,0,0,0-3.684,1.426,3.764,3.764,0,0,0-.33.285c-.072.069-.108.107-.1.113" transform="translate(86.373 -119.233)" fill="#fff"/>
      <path id="Path_40887" data-name="Path 40887" d="M44.806,410.609c0,.054,4.638.1,10.357.1s10.359-.044,10.359-.1-4.636-.1-10.359-.1-10.357.044-10.357.1" transform="translate(90.984 -114.867)" fill="#090f2f"/>
      <rect id="Rectangle_5974" data-name="Rectangle 5974" width="189.009" height="189.964" transform="translate(106.264 118.013)" fill="none"/>
      <rect id="Rectangle_5975" data-name="Rectangle 5975" width="189.009" height="189.964" transform="translate(106.264 118.013)" fill="none"/>
      <g id="Group_58038" data-name="Group 58038" transform="translate(177.858 298.234)">
        <g id="Group_58037" data-name="Group 58037" clip-path="url(#clip-path-6)">
          <path id="Path_40860" data-name="Path 40860" d="M172.382,416.578a19.185,19.185,0,0,1-3.457.267,19.275,19.275,0,0,1-3.468-.047,19.181,19.181,0,0,1,3.458-.267,19.228,19.228,0,0,1,3.467.047" transform="translate(-165.457 -416.496)" fill="#eb996e"/>
        </g>
      </g>
    </g>
  </g>
</svg>
