<svg xmlns="http://www.w3.org/2000/svg" width="96.702" height="98.305" viewBox="0 0 96.702 98.305">
  <g id="Group_49559" data-name="Group 49559" transform="translate(-132.551 -76.58)">
    <g id="Group_2964" data-name="Group 2964" transform="translate(5.408 -36.854)">
      <g id="kUIEfK.tif" transform="translate(157.59 139.998)">
        <g id="Group_2956" data-name="Group 2956">
          <path id="Path_5327" data-name="Path 5327" d="M190.75,160.3c.976,0,1.862,0,2.748,0a2.333,2.333,0,0,1,2.6,2.612c.046,7.251.091,16.6.135,23.847.012,1.877-.851,2.732-2.72,2.742-9.862.058-19.723.085-29.584.206-2.532.031-3.433-.907-3.42-3.364.037-7.023-.052-16.14-.085-23.164-.009-1.845.834-2.683,2.7-2.7.844-.007,1.689,0,2.608,0,0-.915-.012-1.736,0-2.558a42.107,42.107,0,0,1,.131-4.714,12.458,12.458,0,0,1,24.6-.456,53.551,53.551,0,0,1,.283,6.628C190.759,159.66,190.75,159.943,190.75,160.3Zm2.209,3.306H163.723v22.74h29.237Zm-23.987-3.283H187.5a2.438,2.438,0,0,0,.07-.372c-.017-1.926.047-3.858-.077-5.779a9.3,9.3,0,0,0-18.5-.326c-.19,2.1-.059,4.221-.07,6.332A.38.38,0,0,0,168.973,160.318Z" transform="translate(-160.427 -142.474)" fill="#36fd8c"/>
        </g>
      </g>
      <g id="Group_2963" data-name="Group 2963" transform="translate(127.143 113.434)">
        <g id="Group_2959" data-name="Group 2959" transform="translate(0.594)">
          <g id="Group_2957" data-name="Group 2957">
            <path id="Path_5328" data-name="Path 5328" d="M130.842,151.7l-3.049-.739a49.149,49.149,0,0,1,89.687-14.015l-2.676,1.638A46.012,46.012,0,0,0,130.842,151.7Z" transform="translate(-127.793 -113.434)" fill="#36fd8c"/>
          </g>
          <g id="Group_2958" data-name="Group 2958" transform="translate(77.469 17.598)">
            <path id="Path_5329" data-name="Path 5329" d="M231.12,132.672,229,152.97l-16.52-11.982Z" transform="translate(-212.481 -132.672)" fill="#36fd8c"/>
          </g>
        </g>
        <g id="Group_2962" data-name="Group 2962" transform="translate(0 60.039)">
          <g id="Group_2960" data-name="Group 2960" transform="translate(6.42)">
            <path id="Path_5330" data-name="Path 5330" d="M176.093,217.333a48.844,48.844,0,0,1-41.931-23.512l2.676-1.638A46.012,46.012,0,0,0,220.8,179.068l3.049.739A49,49,0,0,1,176.093,217.333Z" transform="translate(-134.162 -179.068)" fill="#36fd8c"/>
          </g>
          <g id="Group_2961" data-name="Group 2961" transform="translate(0 0.369)">
            <path id="Path_5331" data-name="Path 5331" d="M127.143,199.769l2.119-20.3,16.52,11.982Z" transform="translate(-127.143 -179.471)" fill="#36fd8c"/>
          </g>
        </g>
      </g>
      <rect id="Rectangle_279" data-name="Rectangle 279" width="3.312" height="7.635" rx="1.656" transform="translate(173.839 168.632)" fill="#36fd8c"/>
    </g>
  </g>
</svg>
