<svg xmlns="http://www.w3.org/2000/svg" width="298.903" height="252.212" viewBox="0 0 298.903 252.212">
  <g id="Group_47759" data-name="Group 47759" transform="translate(-18.291 -41.118)">
    <path id="Path_32429" data-name="Path 32429" d="M354.224,457.256H59.4a1.847,1.847,0,0,1-2.041-1.549h0a1.847,1.847,0,0,1,2.041-1.549h294.82a1.847,1.847,0,0,1,2.041,1.549h0A1.847,1.847,0,0,1,354.224,457.256Z" transform="translate(-39.071 -163.926)" fill="#ffb500"/>
    <g id="Group_47758" data-name="Group 47758" transform="translate(26.906 41.118)">
      <g id="Group_47704" data-name="Group 47704" transform="translate(173.528 162.166)">
        <g id="Group_47703" data-name="Group 47703">
          <g id="Group_47698" data-name="Group 47698" transform="translate(34.863 28.43)">
            <g id="Group_47697" data-name="Group 47697">
              <path id="Path_32430" data-name="Path 32430" d="M377.672,312.328c-.546.3-.873.473-.873.473s-.511-17.2,3.422-21.049c1.3-1.275,2.879-2.329,3.8-3.9,1.367-2.335,1-5.27,1.7-7.884,1.277-4.785,6.082-7.96,10.96-8.819s9.869.151,14.719,1.156a5.369,5.369,0,0,0-3.214,1.213C392.418,279.85,384.432,296.729,377.672,312.328Z" transform="translate(-372.824 -270.824)" fill="#004243"/>
              <path id="Path_32431" data-name="Path 32431" d="M410.093,279.26a8.478,8.478,0,0,0-2.593,3.583c-.96,2.485-1.006,5.213-1.346,7.855s-1.081,5.411-3.049,7.208c-1.927,1.759-4.723,2.3-6.681,4.025-2.051,1.808-2.858,4.6-4.2,6.981-1.672,2.962-9.927,7.668-12.643,9.161C386.341,302.472,394.327,285.594,410.093,279.26Z" transform="translate(-374.733 -276.567)" fill="#00796c"/>
              <path id="Path_32432" data-name="Path 32432" d="M366.022,356.505a87.9,87.9,0,0,1,19.22-44.58c.659-.8-.689-1.685-1.34-.892a89.279,89.279,0,0,0-19.508,45.472Z" transform="translate(-364.394 -297.988)" fill="#002b2b"/>
            </g>
          </g>
          <g id="Group_47700" data-name="Group 47700" transform="translate(0 43.082)">
            <g id="Group_47699" data-name="Group 47699">
              <path id="Path_32433" data-name="Path 32433" d="M280.871,350.379c.426.253.681.4.681.4s.885-13.664-2.135-16.832a16.394,16.394,0,0,1-2.913-3.208c-1.022-1.894-.65-4.218-1.132-6.316-.882-3.84-4.614-6.5-8.469-7.317s-7.851-.155-11.735.509a4.273,4.273,0,0,1,2.522,1.054C270.049,324.145,275.929,337.787,280.871,350.379Z" transform="translate(-255.168 -316.727)" fill="#00796c"/>
              <path id="Path_32434" data-name="Path 32434" d="M263.068,322.813a6.746,6.746,0,0,1,1.962,2.921,26.517,26.517,0,0,1,.852,6.284c.2,2.111.709,4.333,2.224,5.816,1.483,1.452,3.692,1.96,5.2,3.386,1.581,1.494,2.144,3.737,3.146,5.668,1.247,2.4,7.679,6.374,9.8,7.636C281.308,341.931,275.428,328.288,263.068,322.813Z" transform="translate(-260.546 -320.87)" fill="#004243"/>
              <path id="Path_32435" data-name="Path 32435" d="M307.184,378.422h1.3a71.028,71.028,0,0,0-16.874-35.28c-.542-.61-1.587.133-1.038.751A69.925,69.925,0,0,1,307.184,378.422Z" transform="translate(-279.169 -334.556)" fill="#002b2b"/>
            </g>
          </g>
          <g id="Group_47702" data-name="Group 47702" transform="translate(24.244)">
            <g id="Group_47701" data-name="Group 47701">
              <path id="Path_32436" data-name="Path 32436" d="M337.029,240.232c-.5.553-.8.878-.8.878s-7.346-19.23-4.417-25.122c.971-1.952,2.335-3.763,2.757-5.9.626-3.175-.942-6.347-1.182-9.574-.44-5.907,3.737-11.384,8.909-14.273s11.206-3.713,17.08-4.486a6.422,6.422,0,0,0-3.153,2.635C340.907,197.745,338.527,219.952,337.029,240.232Z" transform="translate(-331.122 -181.753)" fill="#004243"/>
              <path id="Path_32437" data-name="Path 32437" d="M368.821,190.007a10.14,10.14,0,0,0-1.519,5.066c-.107,3.186.915,6.283,1.571,9.4s.908,6.537-.608,9.341c-1.485,2.745-4.43,4.456-5.963,7.175-1.605,2.849-1.418,6.321-2,9.538-.723,4-8.2,12.567-10.676,15.322C351.126,225.571,353.505,203.365,368.821,190.007Z" transform="translate(-343.721 -187.372)" fill="#00796c"/>
              <path id="Path_32438" data-name="Path 32438" d="M349.931,302.814a105.1,105.1,0,0,1,6.023-69.744c.514-1.131-1.317-1.734-1.824-.617a106.764,106.764,0,0,0-6.183,70.361Z" transform="translate(-340.327 -215.866)" fill="#002b2b"/>
            </g>
          </g>
        </g>
      </g>
      <g id="Group_47747" data-name="Group 47747" transform="translate(53.99 0)">
        <g id="Group_47705" data-name="Group 47705" transform="translate(4.182 4.791)" opacity="0.28" style="mix-blend-mode: multiply;isolation: isolate">
          <path id="Path_32439" data-name="Path 32439" d="M349.654,66.828l-.015,126.436c0,5.929-5.468,10.739-12.2,10.738l-185.414-.023c-6.736,0-12.2-4.812-12.2-10.741L139.835,66.8c0-5.929,5.468-10.738,12.2-10.738l185.414.022C344.189,56.088,349.655,60.9,349.654,66.828Z" transform="translate(-139.82 -56.065)" fill="#020202"/>
        </g>
        <g id="Group_47746" data-name="Group 47746" transform="translate(0)">
          <g id="Group_47745" data-name="Group 47745">
            <g id="Group_47744" data-name="Group 47744">
              <g id="Group_47706" data-name="Group 47706">
                <path id="Path_32440" data-name="Path 32440" d="M343.59,59.881l-.015,126.437c0,5.929-5.468,10.738-12.2,10.738l-185.414-.023c-6.737,0-12.2-4.812-12.2-10.741l.015-126.437c0-5.929,5.468-10.738,12.2-10.738l185.414.023C338.125,49.141,343.591,53.953,343.59,59.881Z" transform="translate(-133.756 -49.118)" fill="#fff"/>
              </g>
              <g id="Group_47743" data-name="Group 47743" transform="translate(11.72 45.677)">
                <g id="Group_47742" data-name="Group 47742">
                  <g id="Group_47707" data-name="Group 47707" transform="translate(90.13 0.154)">
                    <path id="Path_32441" data-name="Path 32441" d="M285.094,115.58v7.779h-2.2v-6.08H281.45v-1.7Z" transform="translate(-281.45 -115.579)" fill="#1c455f"/>
                  </g>
                  <g id="Group_47708" data-name="Group 47708" transform="translate(119.294)">
                    <path id="Path_32442" data-name="Path 32442" d="M330.2,121.546v1.747h-6.057v-1.377l2.911-2.723a2.826,2.826,0,0,0,.569-.685,1.281,1.281,0,0,0,.144-.572.724.724,0,0,0-.255-.59,1.146,1.146,0,0,0-.745-.211,1.668,1.668,0,0,0-.8.193,1.6,1.6,0,0,0-.592.563l-1.636-.912a3.209,3.209,0,0,1,1.279-1.19,4.142,4.142,0,0,1,1.947-.434,3.98,3.98,0,0,1,1.571.29,2.421,2.421,0,0,1,1.067.83,2.078,2.078,0,0,1,.384,1.249,2.7,2.7,0,0,1-.273,1.2,4.61,4.61,0,0,1-1.05,1.272l-1.466,1.354Z" transform="translate(-323.741 -115.355)" fill="#1c455f"/>
                  </g>
                  <g id="Group_47709" data-name="Group 47709" transform="translate(148.341 0.161)">
                    <path id="Path_32443" data-name="Path 32443" d="M371.757,119.494a2.114,2.114,0,0,1,.516,1.439,2.361,2.361,0,0,1-.37,1.279,2.653,2.653,0,0,1-1.134.952,4.381,4.381,0,0,1-1.885.361,6.807,6.807,0,0,1-1.63-.2,4.815,4.815,0,0,1-1.392-.569l.8-1.656a3.59,3.59,0,0,0,1.025.478,4.013,4.013,0,0,0,1.132.167,1.666,1.666,0,0,0,.9-.211.67.67,0,0,0,.334-.6c0-.5-.4-.754-1.19-.754h-.921v-1.39l1.39-1.5h-3.067v-1.7h5.622v1.378l-1.613,1.732A2.594,2.594,0,0,1,371.757,119.494Z" transform="translate(-365.862 -115.589)" fill="#1c455f"/>
                  </g>
                  <g id="Group_47710" data-name="Group 47710" transform="translate(177.84 0.166)">
                    <path id="Path_32444" data-name="Path 32444" d="M416.052,121.886h-1.159v1.489h-2.143v-1.488h-4.112v-1.434l3.489-4.857h2.281l-3.169,4.543h1.58v-1.322h2.076v1.322h1.158Z" transform="translate(-408.639 -115.595)" fill="#1c455f"/>
                  </g>
                  <g id="Group_47712" data-name="Group 47712" transform="translate(3.361 18.668)">
                    <g id="Group_47711" data-name="Group 47711">
                      <path id="Path_32445" data-name="Path 32445" d="M161.242,145.925a2.214,2.214,0,0,1,.785,1.779,2.483,2.483,0,0,1-.372,1.328,2.589,2.589,0,0,1-1.134.967,4.4,4.4,0,0,1-1.882.36,6.669,6.669,0,0,1-1.63-.2,4.612,4.612,0,0,1-1.383-.566l.789-1.656a3.772,3.772,0,0,0,1.028.478,3.929,3.929,0,0,0,1.126.167,1.683,1.683,0,0,0,.909-.217.692.692,0,0,0,.34-.607.65.65,0,0,0-.334-.59,2.49,2.49,0,0,0-1.179-.2h-2.113l.39-4.547h4.957v1.7H158.4l-.1,1.134h.522A3.672,3.672,0,0,1,161.242,145.925Z" transform="translate(-155.625 -142.425)" fill="#30dec9"/>
                    </g>
                  </g>
                  <g id="Group_47713" data-name="Group 47713" transform="translate(32.734 18.516)">
                    <path id="Path_32446" data-name="Path 32446" d="M203.543,145.488a2.454,2.454,0,0,1,.973.868,2.332,2.332,0,0,1,.36,1.284,2.446,2.446,0,0,1-.4,1.4,2.646,2.646,0,0,1-1.1.932,3.579,3.579,0,0,1-1.554.328,3.512,3.512,0,0,1-2.632-.988,3.9,3.9,0,0,1-.967-2.846,4.78,4.78,0,0,1,.516-2.3,3.485,3.485,0,0,1,1.452-1.459,4.514,4.514,0,0,1,2.166-.5,5.327,5.327,0,0,1,1.266.144,3.233,3.233,0,0,1,1.026.422l-.8,1.58a2.417,2.417,0,0,0-1.43-.4,1.831,1.831,0,0,0-1.97,1.812,2.6,2.6,0,0,1,1.759-.577A2.986,2.986,0,0,1,203.543,145.488Zm-1.1,2.976a.921.921,0,0,0,.3-.724.9.9,0,0,0-.3-.71,1.091,1.091,0,0,0-.771-.267,1.119,1.119,0,0,0-.776.27.927.927,0,0,0-.3.718.915.915,0,0,0,.293.707,1.125,1.125,0,0,0,.794.272A1.089,1.089,0,0,0,202.446,148.464Z" transform="translate(-198.219 -142.205)" fill="#1c455f"/>
                  </g>
                  <g id="Group_47714" data-name="Group 47714" transform="translate(61.606 18.674)">
                    <path id="Path_32447" data-name="Path 32447" d="M246.532,142.436v1.378l-2.744,6.4h-2.4l2.625-6.035h-2.046v1.2h-1.879v-2.946Z" transform="translate(-240.086 -142.435)" fill="#1c455f"/>
                  </g>
                  <g id="Group_47715" data-name="Group 47715" transform="translate(90.77 18.523)">
                    <path id="Path_32448" data-name="Path 32448" d="M288.843,146.818a1.89,1.89,0,0,1,.29,1.043,2.069,2.069,0,0,1-.422,1.29,2.679,2.679,0,0,1-1.187.856,5.37,5.37,0,0,1-3.536,0,2.67,2.67,0,0,1-1.19-.856,2.075,2.075,0,0,1-.421-1.29,1.888,1.888,0,0,1,.288-1.043,2.37,2.37,0,0,1,.823-.768,1.973,1.973,0,0,1-.618-.677,1.842,1.842,0,0,1-.217-.891,1.9,1.9,0,0,1,.393-1.193,2.425,2.425,0,0,1,1.09-.794,4.833,4.833,0,0,1,3.236,0,2.459,2.459,0,0,1,1.1.794,1.932,1.932,0,0,1,.387,1.193,1.811,1.811,0,0,1-.217.891,1.939,1.939,0,0,1-.616.677A2.308,2.308,0,0,1,288.843,146.818ZM286.6,148.5a.942.942,0,0,0,0-1.41,1.516,1.516,0,0,0-1.7,0,.944.944,0,0,0,0,1.41,1.513,1.513,0,0,0,1.7,0Zm-1.515-4.523a.751.751,0,0,0-.254.607.735.735,0,0,0,.249.592.976.976,0,0,0,.671.217,1.009,1.009,0,0,0,.68-.217.732.732,0,0,0,.255-.592.753.753,0,0,0-.255-.607,1.025,1.025,0,0,0-.681-.217A1,1,0,0,0,285.089,143.977Z" transform="translate(-282.377 -142.215)" fill="#1c455f"/>
                  </g>
                  <g id="Group_47716" data-name="Group 47716" transform="translate(119.597 18.526)">
                    <path id="Path_32449" data-name="Path 32449" d="M329.873,143.208a3.909,3.909,0,0,1,.967,2.847,4.805,4.805,0,0,1-.517,2.3,3.5,3.5,0,0,1-1.457,1.462,4.577,4.577,0,0,1-2.172.5,5.2,5.2,0,0,1-1.257-.149,3.45,3.45,0,0,1-1.023-.417l.8-1.577a2.417,2.417,0,0,0,1.431.4,1.944,1.944,0,0,0,1.351-.46,1.992,1.992,0,0,0,.607-1.34,2.6,2.6,0,0,1-1.747.566,2.973,2.973,0,0,1-1.343-.3,2.407,2.407,0,0,1-.973-.868,2.315,2.315,0,0,1-.363-1.284,2.46,2.46,0,0,1,.408-1.4,2.67,2.67,0,0,1,1.1-.932,3.942,3.942,0,0,1,4.186.66Zm-1.712,2.275a1,1,0,0,0,.006-1.425,1.137,1.137,0,0,0-.794-.27,1.084,1.084,0,0,0-.762.266,1.016,1.016,0,0,0,0,1.434,1.249,1.249,0,0,0,1.55-.006Z" transform="translate(-324.18 -142.22)" fill="#1c455f"/>
                  </g>
                  <g id="Group_47717" data-name="Group 47717" transform="translate(145.241 18.53)">
                    <path id="Path_32450" data-name="Path 32450" d="M365.013,142.45v7.78h-2.2v-6.079h-1.445v-1.7Z" transform="translate(-361.366 -142.296)" fill="#1c455f"/>
                    <path id="Path_32451" data-name="Path 32451" d="M370,149.839a3.2,3.2,0,0,1-1.216-1.4,5.587,5.587,0,0,1,0-4.345A3.219,3.219,0,0,1,370,142.7a3.325,3.325,0,0,1,1.78-.477,3.287,3.287,0,0,1,1.765.478,3.2,3.2,0,0,1,1.219,1.4,5.585,5.585,0,0,1,0,4.344,3.177,3.177,0,0,1-1.22,1.4,3.285,3.285,0,0,1-1.765.478A3.321,3.321,0,0,1,370,149.839Zm2.662-1.861a4.593,4.593,0,0,0,0-3.412,1,1,0,0,0-1.779,0,4.593,4.593,0,0,0,0,3.412,1,1,0,0,0,1.779,0Z" transform="translate(-363.533 -142.226)" fill="#1c455f"/>
                  </g>
                  <g id="Group_47718" data-name="Group 47718" transform="translate(177.538 18.688)">
                    <path id="Path_32452" data-name="Path 32452" d="M411.848,142.456v7.78h-2.2v-6.08H408.2v-1.7Z" transform="translate(-408.201 -142.455)" fill="#1c455f"/>
                    <path id="Path_32453" data-name="Path 32453" d="M418.377,142.457v7.779h-2.2v-6.08H414.73v-1.7Z" transform="translate(-410.228 -142.455)" fill="#1c455f"/>
                  </g>
                  <g id="Group_47720" data-name="Group 47720" transform="translate(0 37.036)">
                    <g id="Group_47719" data-name="Group 47719">
                      <path id="Path_32454" data-name="Path 32454" d="M154.4,169.29v7.78h-2.2v-6.08h-1.442v-1.7Z" transform="translate(-150.751 -169.132)" fill="#30dec9"/>
                      <path id="Path_32455" data-name="Path 32455" d="M163.539,175.253V177h-6.056v-1.378L160.4,172.9a2.76,2.76,0,0,0,.565-.685,1.229,1.229,0,0,0,.144-.572.714.714,0,0,0-.255-.589,1.145,1.145,0,0,0-.745-.212,1.653,1.653,0,0,0-.794.194,1.635,1.635,0,0,0-.6.563l-1.632-.912a3.188,3.188,0,0,1,1.279-1.19,4.13,4.13,0,0,1,1.946-.434,4.005,4.005,0,0,1,1.572.29,2.441,2.441,0,0,1,1.067.83,2.1,2.1,0,0,1,.381,1.249,2.711,2.711,0,0,1-.27,1.2,4.664,4.664,0,0,1-1.05,1.272l-1.469,1.354Z" transform="translate(-152.717 -169.061)" fill="#30dec9"/>
                    </g>
                  </g>
                  <g id="Group_47721" data-name="Group 47721" transform="translate(29.027 37.196)">
                    <path id="Path_32456" data-name="Path 32456" d="M196.487,169.295v7.78h-2.2v-6.08h-1.442v-1.7Z" transform="translate(-192.843 -169.294)" fill="#1c455f"/>
                    <path id="Path_32457" data-name="Path 32457" d="M205.1,173.2a2.111,2.111,0,0,1,.516,1.44,2.36,2.36,0,0,1-.369,1.278,2.66,2.66,0,0,1-1.135.952,4.379,4.379,0,0,1-1.885.361,6.85,6.85,0,0,1-1.63-.2,4.831,4.831,0,0,1-1.392-.57l.8-1.656a3.585,3.585,0,0,0,1.026.478,4.01,4.01,0,0,0,1.132.167,1.663,1.663,0,0,0,.9-.21.669.669,0,0,0,.334-.6c0-.5-.4-.753-1.19-.753h-.921V172.5l1.39-1.5h-3.066v-1.7h5.622v1.378l-1.612,1.732A2.6,2.6,0,0,1,205.1,173.2Z" transform="translate(-194.818 -169.294)" fill="#1c455f"/>
                  </g>
                  <g id="Group_47722" data-name="Group 47722" transform="translate(58.182 37.201)">
                    <path id="Path_32458" data-name="Path 32458" d="M238.769,169.3v7.78h-2.2V171h-1.442v-1.7Z" transform="translate(-235.122 -169.3)" fill="#1c455f"/>
                    <path id="Path_32459" data-name="Path 32459" d="M249.4,175.592h-1.154v1.489H246.1v-1.49h-4.113v-1.434l3.492-4.857h2.278l-3.169,4.544h1.577v-1.322h2.081v1.322H249.4Z" transform="translate(-237.253 -169.3)" fill="#1c455f"/>
                  </g>
                  <g id="Group_47723" data-name="Group 47723" transform="translate(87.071 37.204)">
                    <path id="Path_32460" data-name="Path 32460" d="M280.658,169.3v7.78h-2.2V171h-1.445v-1.7Z" transform="translate(-277.014 -169.305)" fill="#1c455f"/>
                    <path id="Path_32461" data-name="Path 32461" d="M289.189,172.806a2.214,2.214,0,0,1,.785,1.779,2.485,2.485,0,0,1-.372,1.328,2.6,2.6,0,0,1-1.134.968,4.4,4.4,0,0,1-1.882.36,6.807,6.807,0,0,1-1.63-.2,4.631,4.631,0,0,1-1.383-.569l.789-1.656a3.736,3.736,0,0,0,1.029.478,3.926,3.926,0,0,0,1.125.168,1.654,1.654,0,0,0,.909-.217.686.686,0,0,0,.34-.6.645.645,0,0,0-.334-.59,2.453,2.453,0,0,0-1.179-.2h-2.114l.39-4.543h4.957v1.7h-3.134l-.1,1.132h.521A3.656,3.656,0,0,1,289.189,172.806Z" transform="translate(-279.05 -169.305)" fill="#1c455f"/>
                  </g>
                  <g id="Group_47724" data-name="Group 47724" transform="translate(116.153 37.05)">
                    <path id="Path_32462" data-name="Path 32462" d="M322.833,169.31v7.78h-2.2v-6.08h-1.445v-1.7Z" transform="translate(-319.186 -169.153)" fill="#1c455f"/>
                    <path id="Path_32463" data-name="Path 32463" d="M331.49,172.368a2.414,2.414,0,0,1,.973.868,2.317,2.317,0,0,1,.36,1.283,2.441,2.441,0,0,1-.4,1.393,2.679,2.679,0,0,1-1.1.935,3.577,3.577,0,0,1-1.554.328,3.514,3.514,0,0,1-2.632-.991,3.9,3.9,0,0,1-.967-2.844,4.762,4.762,0,0,1,.516-2.3,3.493,3.493,0,0,1,1.452-1.463,4.522,4.522,0,0,1,2.166-.5,5.369,5.369,0,0,1,1.267.146,3.252,3.252,0,0,1,1.025.423l-.8,1.577a2.416,2.416,0,0,0-1.43-.4,1.985,1.985,0,0,0-1.369.466,1.957,1.957,0,0,0-.6,1.345,2.586,2.586,0,0,1,1.759-.577A2.95,2.95,0,0,1,331.49,172.368Zm-1.1,2.973a1.016,1.016,0,0,0,0-1.434,1.246,1.246,0,0,0-1.548.006,1,1,0,0,0-.006,1.422,1.124,1.124,0,0,0,.794.272A1.077,1.077,0,0,0,330.393,175.341Z" transform="translate(-321.353 -169.082)" fill="#1c455f"/>
                  </g>
                  <g id="Group_47725" data-name="Group 47725" transform="translate(145.151 37.211)">
                    <path id="Path_32464" data-name="Path 32464" d="M364.88,169.316V177.1h-2.2v-6.08h-1.442v-1.7Z" transform="translate(-361.236 -169.315)" fill="#1c455f"/>
                    <path id="Path_32465" data-name="Path 32465" d="M374.479,169.317v1.378l-2.745,6.4h-2.4l2.624-6.035h-2.045v1.2h-1.879v-2.943Z" transform="translate(-363.345 -169.315)" fill="#1c455f"/>
                  </g>
                  <g id="Group_47726" data-name="Group 47726" transform="translate(175.154 37.057)">
                    <path id="Path_32466" data-name="Path 32466" d="M408.387,169.321V177.1h-2.2v-6.08h-1.445v-1.7Z" transform="translate(-404.743 -169.163)" fill="#1c455f"/>
                    <path id="Path_32467" data-name="Path 32467" d="M418.125,173.7a1.911,1.911,0,0,1,.287,1.046,2.067,2.067,0,0,1-.422,1.287,2.65,2.65,0,0,1-1.187.856,5.322,5.322,0,0,1-3.535,0,2.637,2.637,0,0,1-1.188-.857,2.053,2.053,0,0,1-.422-1.287,1.9,1.9,0,0,1,.288-1.046,2.356,2.356,0,0,1,.821-.765,2.021,2.021,0,0,1-.616-.68,1.811,1.811,0,0,1-.217-.888,1.935,1.935,0,0,1,.39-1.2,2.455,2.455,0,0,1,1.094-.794,4.838,4.838,0,0,1,3.236,0,2.476,2.476,0,0,1,1.093.794,1.934,1.934,0,0,1,.39,1.2,1.848,1.848,0,0,1-.217.888,2.041,2.041,0,0,1-.616.68A2.36,2.36,0,0,1,418.125,173.7Zm-2.24,1.685a.947.947,0,0,0,0-1.413,1.517,1.517,0,0,0-1.7,0,.948.948,0,0,0,0,1.413,1.517,1.517,0,0,0,1.7,0Zm-1.518-4.526a.843.843,0,0,0-.006,1.2,1.162,1.162,0,0,0,1.351,0,.731.731,0,0,0,.256-.6.751.751,0,0,0-.255-.607,1.014,1.014,0,0,0-.677-.214A1,1,0,0,0,414.367,170.854Z" transform="translate(-406.889 -169.092)" fill="#1c455f"/>
                  </g>
                  <g id="Group_47728" data-name="Group 47728" transform="translate(0.062 55.559)">
                    <g id="Group_47727" data-name="Group 47727">
                      <path id="Path_32468" data-name="Path 32468" d="M154.488,196.151v7.78h-2.2v-6.08h-1.443v-1.7Z" transform="translate(-150.841 -195.993)" fill="#ffb500"/>
                      <path id="Path_32469" data-name="Path 32469" d="M163.218,196.914a3.9,3.9,0,0,1,.967,2.846,4.772,4.772,0,0,1-.517,2.3,3.5,3.5,0,0,1-1.454,1.459,4.56,4.56,0,0,1-2.175.5,5.184,5.184,0,0,1-1.255-.15,3.455,3.455,0,0,1-1.023-.419l.8-1.577a2.42,2.42,0,0,0,1.433.4,1.954,1.954,0,0,0,1.352-.463,1.986,1.986,0,0,0,.6-1.34,2.6,2.6,0,0,1-1.745.569,2.95,2.95,0,0,1-1.345-.308,2.414,2.414,0,0,1-.973-.865,2.321,2.321,0,0,1-.361-1.284,2.455,2.455,0,0,1,.408-1.4,2.656,2.656,0,0,1,1.1-.935,3.593,3.593,0,0,1,1.539-.328A3.528,3.528,0,0,1,163.218,196.914Zm-1.712,2.272a1,1,0,0,0,.006-1.422,1.114,1.114,0,0,0-.792-.273,1.079,1.079,0,0,0-.762.267.924.924,0,0,0-.3.724.9.9,0,0,0,.3.71,1.091,1.091,0,0,0,.77.267A1.108,1.108,0,0,0,161.506,199.185Z" transform="translate(-152.917 -195.922)" fill="#ffb500"/>
                    </g>
                  </g>
                  <g id="Group_47729" data-name="Group 47729" transform="translate(29.294 55.563)">
                    <path id="Path_32470" data-name="Path 32470" d="M199.688,202.118v1.747h-6.056v-1.378l2.911-2.723a2.859,2.859,0,0,0,.569-.686,1.269,1.269,0,0,0,.143-.571.722.722,0,0,0-.255-.59,1.143,1.143,0,0,0-.744-.211,1.66,1.66,0,0,0-.8.193,1.607,1.607,0,0,0-.592.563l-1.636-.912a3.218,3.218,0,0,1,1.278-1.19,4.154,4.154,0,0,1,1.947-.433,3.975,3.975,0,0,1,1.571.29,2.413,2.413,0,0,1,1.067.83,2.073,2.073,0,0,1,.384,1.249,2.713,2.713,0,0,1-.272,1.2,4.623,4.623,0,0,1-1.05,1.272l-1.466,1.354Z" transform="translate(-193.231 -195.927)" fill="#1c455f"/>
                    <path id="Path_32471" data-name="Path 32471" d="M205.186,203.543a3.236,3.236,0,0,1-1.219-1.4,5.626,5.626,0,0,1,0-4.347,3.215,3.215,0,0,1,1.22-1.393,3.514,3.514,0,0,1,3.547,0,3.2,3.2,0,0,1,1.214,1.393,5.593,5.593,0,0,1,0,4.347,3.225,3.225,0,0,1-1.214,1.4,3.528,3.528,0,0,1-3.547,0Zm2.662-1.861a4.593,4.593,0,0,0,0-3.412,1,1,0,0,0-1.776,0,4.593,4.593,0,0,0,0,3.412,1,1,0,0,0,1.776,0Z" transform="translate(-196.428 -195.927)" fill="#1c455f"/>
                  </g>
                  <g id="Group_47730" data-name="Group 47730" transform="translate(57.911 55.566)">
                    <path id="Path_32472" data-name="Path 32472" d="M241.185,202.123v1.747h-6.056v-1.378l2.912-2.723a2.859,2.859,0,0,0,.569-.686,1.275,1.275,0,0,0,.143-.571.722.722,0,0,0-.255-.59,1.146,1.146,0,0,0-.745-.211,1.662,1.662,0,0,0-.8.193,1.607,1.607,0,0,0-.592.563l-1.635-.912a3.213,3.213,0,0,1,1.278-1.19,4.149,4.149,0,0,1,1.947-.433,3.98,3.98,0,0,1,1.571.29,2.417,2.417,0,0,1,1.067.83,2.073,2.073,0,0,1,.384,1.249,2.7,2.7,0,0,1-.273,1.2,4.6,4.6,0,0,1-1.05,1.272l-1.465,1.354Z" transform="translate(-234.728 -195.932)" fill="#1c455f"/>
                    <path id="Path_32473" data-name="Path 32473" d="M248.221,196.162v7.78h-2.2v-6.08h-1.445v-1.7Z" transform="translate(-237.785 -196.003)" fill="#1c455f"/>
                  </g>
                  <g id="Group_47731" data-name="Group 47731" transform="translate(87.213 55.57)">
                    <path id="Path_32474" data-name="Path 32474" d="M283.673,202.128v1.747h-6.056V202.5l2.914-2.723a2.781,2.781,0,0,0,.566-.685,1.236,1.236,0,0,0,.143-.572.714.714,0,0,0-.255-.59,1.144,1.144,0,0,0-.745-.211,1.593,1.593,0,0,0-1.389.757l-1.633-.912a3.193,3.193,0,0,1,1.279-1.19,4.14,4.14,0,0,1,1.946-.433,3.992,3.992,0,0,1,1.572.29,2.436,2.436,0,0,1,1.066.83,2.089,2.089,0,0,1,.381,1.249,2.7,2.7,0,0,1-.27,1.2,4.675,4.675,0,0,1-1.05,1.272l-1.469,1.354Z" transform="translate(-277.219 -195.937)" fill="#1c455f"/>
                    <path id="Path_32475" data-name="Path 32475" d="M293.328,202.129v1.747h-6.056V202.5l2.908-2.723a2.79,2.79,0,0,0,.569-.685,1.241,1.241,0,0,0,.147-.572.724.724,0,0,0-.258-.589,1.14,1.14,0,0,0-.745-.212,1.651,1.651,0,0,0-.794.194,1.624,1.624,0,0,0-.6.563l-1.636-.912a3.226,3.226,0,0,1,1.281-1.19,4.129,4.129,0,0,1,1.943-.434,4.008,4.008,0,0,1,1.574.29,2.442,2.442,0,0,1,1.067.83,2.1,2.1,0,0,1,.384,1.249,2.747,2.747,0,0,1-.273,1.2,4.565,4.565,0,0,1-1.052,1.272l-1.465,1.354Z" transform="translate(-280.214 -195.937)" fill="#1c455f"/>
                  </g>
                  <g id="Group_47732" data-name="Group 47732" transform="translate(116.233 55.573)">
                    <path id="Path_32476" data-name="Path 32476" d="M325.762,202.133v1.747h-6.057V202.5l2.908-2.723a2.789,2.789,0,0,0,.569-.685,1.241,1.241,0,0,0,.147-.572.725.725,0,0,0-.259-.59,1.137,1.137,0,0,0-.744-.211,1.651,1.651,0,0,0-.794.194,1.629,1.629,0,0,0-.6.563l-1.636-.912a3.221,3.221,0,0,1,1.281-1.19,4.131,4.131,0,0,1,1.943-.434,4,4,0,0,1,1.574.29,2.442,2.442,0,0,1,1.067.83,2.1,2.1,0,0,1,.384,1.249,2.742,2.742,0,0,1-.273,1.2,4.579,4.579,0,0,1-1.052,1.272l-1.466,1.354Z" transform="translate(-319.302 -195.942)" fill="#1c455f"/>
                    <path id="Path_32477" data-name="Path 32477" d="M334.888,200.077a2.128,2.128,0,0,1,.516,1.439,2.34,2.34,0,0,1-.372,1.279,2.65,2.65,0,0,1-1.132.952,4.406,4.406,0,0,1-1.888.361,6.787,6.787,0,0,1-1.627-.2,4.822,4.822,0,0,1-1.392-.569l.8-1.656a3.6,3.6,0,0,0,1.028.478,4.037,4.037,0,0,0,1.129.167,1.668,1.668,0,0,0,.9-.21.672.672,0,0,0,.334-.6c0-.5-.4-.753-1.19-.754h-.923v-1.39l1.39-1.5h-3.066v-1.7h5.622v1.378l-1.612,1.732A2.606,2.606,0,0,1,334.888,200.077Z" transform="translate(-322.31 -196.013)" fill="#1c455f"/>
                  </g>
                  <g id="Group_47733" data-name="Group 47733" transform="translate(145.389 55.576)">
                    <path id="Path_32478" data-name="Path 32478" d="M368.041,202.138v1.747h-6.057v-1.378l2.908-2.723a2.807,2.807,0,0,0,.569-.685,1.242,1.242,0,0,0,.147-.572.723.723,0,0,0-.259-.589,1.133,1.133,0,0,0-.744-.211,1.657,1.657,0,0,0-.794.193,1.624,1.624,0,0,0-.6.563l-1.636-.912a3.221,3.221,0,0,1,1.281-1.19,4.129,4.129,0,0,1,1.943-.434,4.007,4.007,0,0,1,1.574.29,2.442,2.442,0,0,1,1.067.83,2.1,2.1,0,0,1,.384,1.25,2.741,2.741,0,0,1-.273,1.2,4.59,4.59,0,0,1-1.052,1.272l-1.466,1.354Z" transform="translate(-361.581 -195.947)" fill="#1c455f"/>
                    <path id="Path_32479" data-name="Path 32479" d="M379.183,202.469h-1.155v1.489h-2.146v-1.49H371.77v-1.434l3.492-4.857h2.278l-3.17,4.544h1.577V199.4h2.082v1.322h1.154Z" transform="translate(-364.744 -196.019)" fill="#1c455f"/>
                  </g>
                  <g id="Group_47734" data-name="Group 47734" transform="translate(174.281 55.58)">
                    <path id="Path_32480" data-name="Path 32480" d="M409.938,202.144v1.747h-6.056v-1.378l2.909-2.723a2.787,2.787,0,0,0,.568-.685,1.231,1.231,0,0,0,.147-.572.723.723,0,0,0-.258-.589,1.14,1.14,0,0,0-.745-.211,1.661,1.661,0,0,0-.794.193,1.635,1.635,0,0,0-.6.563l-1.635-.912a3.211,3.211,0,0,1,1.281-1.19,4.132,4.132,0,0,1,1.944-.434,4.006,4.006,0,0,1,1.574.29,2.449,2.449,0,0,1,1.068.83,2.1,2.1,0,0,1,.383,1.25,2.751,2.751,0,0,1-.272,1.2,4.582,4.582,0,0,1-1.053,1.272l-1.465,1.354Z" transform="translate(-403.478 -195.952)" fill="#1c455f"/>
                    <path id="Path_32481" data-name="Path 32481" d="M418.98,199.683a2.221,2.221,0,0,1,.783,1.779,2.509,2.509,0,0,1-.372,1.328,2.6,2.6,0,0,1-1.135.968,4.389,4.389,0,0,1-1.885.36,6.822,6.822,0,0,1-1.627-.2,4.672,4.672,0,0,1-1.383-.569l.789-1.656a3.751,3.751,0,0,0,1.028.478,3.931,3.931,0,0,0,1.129.168,1.63,1.63,0,0,0,.9-.217.673.673,0,0,0,.34-.6.642.642,0,0,0-.334-.59,2.45,2.45,0,0,0-1.179-.2h-2.11l.39-4.544h4.958v1.7H416.14l-.1,1.132h.525A3.67,3.67,0,0,1,418.98,199.683Z" transform="translate(-406.545 -196.023)" fill="#1c455f"/>
                  </g>
                  <g id="Group_47736" data-name="Group 47736" transform="translate(0.207 74.085)">
                    <g id="Group_47735" data-name="Group 47735">
                      <path id="Path_32482" data-name="Path 32482" d="M157.5,228.978v1.744h-6.057v-1.378l2.914-2.723a2.808,2.808,0,0,0,.565-.683,1.248,1.248,0,0,0,.144-.572.714.714,0,0,0-.255-.59,1.145,1.145,0,0,0-.745-.211,1.651,1.651,0,0,0-.794.193,1.605,1.605,0,0,0-.6.56l-1.632-.909a3.17,3.17,0,0,1,1.278-1.19,4.1,4.1,0,0,1,1.947-.434,3.99,3.99,0,0,1,1.571.29,2.417,2.417,0,0,1,1.067.827,2.112,2.112,0,0,1,.381,1.252,2.688,2.688,0,0,1-.27,1.193,4.607,4.607,0,0,1-1.05,1.272l-1.469,1.357Z" transform="translate(-151.051 -222.787)" fill="#30dec9"/>
                      <path id="Path_32483" data-name="Path 32483" d="M166.669,226.071a2.427,2.427,0,0,1,.973.868,2.328,2.328,0,0,1,.363,1.284,2.451,2.451,0,0,1-.4,1.4,2.655,2.655,0,0,1-1.1.932,3.567,3.567,0,0,1-1.551.329,3.52,3.52,0,0,1-2.635-.988,3.91,3.91,0,0,1-.967-2.847,4.812,4.812,0,0,1,.516-2.3,3.491,3.491,0,0,1,1.454-1.459,4.5,4.5,0,0,1,2.166-.5,5.372,5.372,0,0,1,1.267.144,3.218,3.218,0,0,1,1.023.422l-.8,1.58a2.434,2.434,0,0,0-1.434-.4,1.957,1.957,0,0,0-1.366.47,1.93,1.93,0,0,0-.6,1.342,2.587,2.587,0,0,1,1.756-.577A2.973,2.973,0,0,1,166.669,226.071Zm-1.093,2.976a.932.932,0,0,0,.3-.724.91.91,0,0,0-.3-.71,1.1,1.1,0,0,0-.771-.267,1.127,1.127,0,0,0-.78.27,1,1,0,0,0-.006,1.425,1.133,1.133,0,0,0,.8.272A1.094,1.094,0,0,0,165.576,229.047Z" transform="translate(-154.247 -222.787)" fill="#30dec9"/>
                    </g>
                  </g>
                  <g id="Group_47737" data-name="Group 47737" transform="translate(29.201 74.089)">
                    <path id="Path_32484" data-name="Path 32484" d="M199.553,228.983v1.744H193.5v-1.377l2.912-2.723a2.743,2.743,0,0,0,.565-.683,1.218,1.218,0,0,0,.147-.572.716.716,0,0,0-.258-.59,1.138,1.138,0,0,0-.744-.211,1.613,1.613,0,0,0-1.39.753l-1.633-.909a3.175,3.175,0,0,1,1.281-1.19,4.086,4.086,0,0,1,1.943-.434,4,4,0,0,1,1.574.29,2.429,2.429,0,0,1,1.067.827,2.133,2.133,0,0,1,.381,1.252,2.725,2.725,0,0,1-.27,1.193,4.546,4.546,0,0,1-1.053,1.272l-1.468,1.357Z" transform="translate(-193.096 -222.792)" fill="#1c455f"/>
                    <path id="Path_32485" data-name="Path 32485" d="M209.666,223.019V224.4l-2.747,6.4h-2.4l2.622-6.035H205.1v1.2h-1.879v-2.946Z" transform="translate(-196.238 -222.862)" fill="#1c455f"/>
                  </g>
                  <g id="Group_47738" data-name="Group 47738" transform="translate(58.283 74.092)">
                    <path id="Path_32486" data-name="Path 32486" d="M241.728,228.989v1.744h-6.056v-1.378l2.908-2.723a2.821,2.821,0,0,0,.569-.683,1.258,1.258,0,0,0,.147-.572.728.728,0,0,0-.258-.59,1.144,1.144,0,0,0-.745-.211,1.661,1.661,0,0,0-.794.194,1.608,1.608,0,0,0-.6.559l-1.636-.909a3.2,3.2,0,0,1,1.281-1.19,4.1,4.1,0,0,1,1.943-.434,4.005,4.005,0,0,1,1.574.29,2.411,2.411,0,0,1,1.067.827,2.111,2.111,0,0,1,.384,1.252,2.722,2.722,0,0,1-.273,1.194,4.489,4.489,0,0,1-1.052,1.272l-1.466,1.357Z" transform="translate(-235.268 -222.797)" fill="#1c455f"/>
                    <path id="Path_32487" data-name="Path 32487" d="M251.973,227.4a1.915,1.915,0,0,1,.29,1.043,2.069,2.069,0,0,1-.422,1.29,2.682,2.682,0,0,1-1.19.856,5.371,5.371,0,0,1-3.536,0,2.679,2.679,0,0,1-1.19-.856,2.065,2.065,0,0,1-.422-1.29,1.89,1.89,0,0,1,.29-1.043,2.323,2.323,0,0,1,.823-.768,1.913,1.913,0,0,1-.618-.677,1.842,1.842,0,0,1-.217-.891,1.913,1.913,0,0,1,.39-1.193,2.417,2.417,0,0,1,1.094-.794,4.829,4.829,0,0,1,3.233,0,2.436,2.436,0,0,1,1.1.8,1.934,1.934,0,0,1,.39,1.193,1.85,1.85,0,0,1-.217.891,1.915,1.915,0,0,1-.619.677A2.317,2.317,0,0,1,251.973,227.4Zm-2.24,1.682a.942.942,0,0,0,0-1.41,1.514,1.514,0,0,0-1.7,0,.943.943,0,0,0,0,1.41,1.516,1.516,0,0,0,1.7,0Zm-1.514-4.523a.752.752,0,0,0-.259.607.733.733,0,0,0,.252.592.975.975,0,0,0,.671.217,1,1,0,0,0,.677-.217.735.735,0,0,0,.259-.592.752.752,0,0,0-.259-.607,1.014,1.014,0,0,0-.677-.217A1,1,0,0,0,248.219,224.56Z" transform="translate(-238.445 -222.797)" fill="#1c455f"/>
                  </g>
                  <g id="Group_47739" data-name="Group 47739" transform="translate(87.269 74.096)">
                    <path id="Path_32488" data-name="Path 32488" d="M283.761,228.994v1.744H277.7v-1.378l2.909-2.723a2.832,2.832,0,0,0,.568-.683,1.25,1.25,0,0,0,.147-.572.726.726,0,0,0-.258-.59,1.141,1.141,0,0,0-.744-.211,1.658,1.658,0,0,0-.794.194,1.594,1.594,0,0,0-.6.56l-1.636-.909a3.206,3.206,0,0,1,1.282-1.19,4.094,4.094,0,0,1,1.943-.434,4.007,4.007,0,0,1,1.574.29,2.416,2.416,0,0,1,1.067.827,2.111,2.111,0,0,1,.383,1.252,2.731,2.731,0,0,1-.272,1.194,4.5,4.5,0,0,1-1.052,1.272l-1.466,1.357Z" transform="translate(-277.3 -222.802)" fill="#1c455f"/>
                    <path id="Path_32489" data-name="Path 32489" d="M293,223.792a3.905,3.905,0,0,1,.967,2.847,4.772,4.772,0,0,1-.516,2.3A3.506,3.506,0,0,1,292,230.4a4.6,4.6,0,0,1-2.176.5,5.179,5.179,0,0,1-1.254-.15,3.439,3.439,0,0,1-1.023-.417l.8-1.577a2.419,2.419,0,0,0,1.433.4,1.958,1.958,0,0,0,1.352-.46,1.992,1.992,0,0,0,.6-1.339,2.6,2.6,0,0,1-1.744.565,2.979,2.979,0,0,1-1.345-.305,2.418,2.418,0,0,1-.973-.868,2.311,2.311,0,0,1-.361-1.284,2.461,2.461,0,0,1,.408-1.4,2.659,2.659,0,0,1,1.1-.932,3.941,3.941,0,0,1,4.183.66Zm-1.712,2.275a1,1,0,0,0,.006-1.425,1.128,1.128,0,0,0-.792-.27,1.08,1.08,0,0,0-.762.267,1.016,1.016,0,0,0,0,1.434,1.245,1.245,0,0,0,1.547-.006Z" transform="translate(-280.407 -222.803)" fill="#1c455f"/>
                  </g>
                  <g id="Group_47740" data-name="Group 47740" transform="translate(116.383 74.101)">
                    <path id="Path_32490" data-name="Path 32490" d="M325.414,226.94a2.128,2.128,0,0,1,.516,1.44,2.338,2.338,0,0,1-.372,1.278,2.621,2.621,0,0,1-1.132.95,4.416,4.416,0,0,1-1.888.361,6.646,6.646,0,0,1-1.627-.2,4.81,4.81,0,0,1-1.392-.565l.8-1.656a3.593,3.593,0,0,0,1.029.478,4.011,4.011,0,0,0,1.129.168,1.669,1.669,0,0,0,.9-.211.674.674,0,0,0,.334-.6q0-.757-1.19-.757h-.923v-1.39l1.39-1.5h-3.067v-1.7h5.622v1.378l-1.612,1.735A2.587,2.587,0,0,1,325.414,226.94Z" transform="translate(-319.519 -222.878)" fill="#1c455f"/>
                    <path id="Path_32491" data-name="Path 32491" d="M331.5,230.422a3.2,3.2,0,0,1-1.216-1.4,5.587,5.587,0,0,1,0-4.344,3.215,3.215,0,0,1,1.216-1.4,3.325,3.325,0,0,1,1.78-.477,3.287,3.287,0,0,1,1.765.478,3.2,3.2,0,0,1,1.219,1.4,5.585,5.585,0,0,1,0,4.344,3.187,3.187,0,0,1-1.22,1.4,3.526,3.526,0,0,1-3.544,0Zm2.662-1.861a4.593,4.593,0,0,0,0-3.412,1,1,0,0,0-1.779,0,4.593,4.593,0,0,0,0,3.412,1,1,0,0,0,1.779,0Z" transform="translate(-322.725 -222.809)" fill="#1c455f"/>
                  </g>
                  <g id="Group_47741" data-name="Group 47741" transform="translate(144.999 74.258)">
                    <path id="Path_32492" data-name="Path 32492" d="M366.911,226.946a2.125,2.125,0,0,1,.516,1.439,2.34,2.34,0,0,1-.373,1.278,2.608,2.608,0,0,1-1.132.95,4.411,4.411,0,0,1-1.887.361,6.652,6.652,0,0,1-1.628-.2,4.814,4.814,0,0,1-1.392-.565l.8-1.656a3.592,3.592,0,0,0,1.029.478,4.011,4.011,0,0,0,1.129.168,1.667,1.667,0,0,0,.9-.211.673.673,0,0,0,.334-.6q0-.757-1.19-.757h-.923v-1.39l1.39-1.5h-3.066v-1.7h5.622v1.378l-1.613,1.735A2.583,2.583,0,0,1,366.911,226.946Z" transform="translate(-361.016 -223.037)" fill="#1c455f"/>
                    <path id="Path_32493" data-name="Path 32493" d="M374.542,223.039v7.78h-2.2v-6.08h-1.443v-1.7Z" transform="translate(-364.082 -223.037)" fill="#1c455f"/>
                  </g>
                </g>
              </g>
              <rect id="Rectangle_4560" data-name="Rectangle 4560" width="193.299" height="1.735" rx="0.867" transform="translate(8.82 29.765)" fill="#4a22f0"/>
              <text id="SEPTEMBER" transform="translate(41.543 24.63)" fill="#4a22f0" font-size="9" font-family="Montserrat-ExtraBold, Montserrat" font-weight="800" letter-spacing="0.06em"><tspan x="-31" y="0">SEPTEMBER</tspan></text>
            </g>
            <path id="Path_32494" data-name="Path 32494" d="M235.9,165.035c-.636.588.3,1.545.937.96,6.8-6.28,15.711,3.2,9.715,10.028a10.331,10.331,0,0,1-8.31,3.362c-3.953-.328-7.384-4.187-4.95-8.033.463-.732-.689-1.419-1.15-.69a6.483,6.483,0,0,0,3.138,9.366c4.378,1.942,10.09-.079,12.84-3.826C254.194,167.924,243.509,158.006,235.9,165.035Z" transform="translate(-164.993 -66.357)" fill="#28dec9"/>
          </g>
          <path id="Path_32495" data-name="Path 32495" d="M328.755,111.606c-.837-.206-1.211,1.083-.371,1.29,8.477,2.089,4.091,14.018-3.319,13.606-8.728-.486-9.211-13.342-.29-14.382.845-.1.872-1.441.015-1.342-4.4.514-7.968,3.727-8.044,8.361a8.726,8.726,0,0,0,7.428,8.606C333.679,129.214,338.92,114.11,328.755,111.606Z" transform="translate(-190.555 -68.255)" fill="#28dec9"/>
          <path id="Path_32496" data-name="Path 32496" d="M333.27,222.909c-.331-.8-1.59-.333-1.259.465,3.346,8.064-8.861,11.607-12.922,5.4-4.784-7.316,5.28-15.329,11.408-8.763.581.622,1.678-.153,1.089-.783-3.025-3.241-7.726-4.206-11.5-1.518a8.726,8.726,0,0,0-2.524,11.085C322.012,237.315,337.281,232.579,333.27,222.909Z" transform="translate(-190.498 -100.963)" fill="#28dec9"/>
        </g>
      </g>
      <g id="Group_47757" data-name="Group 47757" transform="translate(7.204 43.912)">
        <g id="Group_47748" data-name="Group 47748" transform="translate(21.89 87.051)">
          <path id="Path_32497" data-name="Path 32497" d="M119.1,420.973a3.038,3.038,0,0,0,1.5-.464c-.258,3.681-.485,7.364-.651,11.051a11.831,11.831,0,0,1-5.939-.052c-.87-3.809-1.867-7.782-2.806-11.833A18.841,18.841,0,0,0,119.1,420.973Z" transform="translate(-88.508 -319.878)" fill="#ffab91"/>
          <path id="Path_32498" data-name="Path 32498" d="M108.176,351.121a41.866,41.866,0,0,1,10.585-21.8l2.263,2.74a9.839,9.839,0,0,1,1.942,7.918c-2.238,12.585-1.488,27.268-2.387,40.064-.08,1.138-5.152,1.139-5.855,1.047-.687-.09-5.7-.926-5.862-1.619A79.173,79.173,0,0,1,108.176,351.121Z" transform="translate(-86.642 -277.616)" fill="#696756"/>
          <path id="Path_32499" data-name="Path 32499" d="M123.86,295.313c5.908-19.89,6.6-41.652,5.424-62.367-6.453-.665-11.974-1.138-18.416-.373a126.647,126.647,0,0,0,6.752,64.191Z" transform="translate(-87.669 -232.179)" fill="#696756"/>
          <path id="Path_32500" data-name="Path 32500" d="M80.694,425.86a3.038,3.038,0,0,0,1.561-.175c-.943,3.567-1.854,7.143-2.707,10.734a11.825,11.825,0,0,1-5.825-1.162c-.142-3.9-.378-7.994-.542-12.148A18.846,18.846,0,0,0,80.694,425.86Z" transform="translate(-70.721 -321.484)" fill="#ffab91"/>
          <path id="Path_32501" data-name="Path 32501" d="M75.973,356.1A41.869,41.869,0,0,1,90.45,336.667l1.711,3.115a9.84,9.84,0,0,1,.425,8.142c-4.553,11.944-6.5,25.072-9.781,37.474-.292,1.1-5.274.155-5.948-.067-.658-.217-5.525-1.79-5.554-2.5C70.951,373.872,73.03,364.074,75.973,356.1Z" transform="translate(-69.825 -281.052)" fill="#83816c"/>
          <path id="Path_32502" data-name="Path 32502" d="M99.112,299.635c4.365-14.695,6.828-42.026,6.828-42.026s12.32-10.208,12.32-23.935c-6.453-.665-25.348,3.31-31.79,4.076a126.653,126.653,0,0,0,6.753,64.191Z" transform="translate(-76.257 -232.843)" fill="#83816c"/>
          <path id="Path_32503" data-name="Path 32503" d="M81.864,421.69a24.014,24.014,0,0,1-8.528-1.971c-.611-.263-.89.735-.287,1a24.8,24.8,0,0,0,8.8,2.011C82.518,422.756,82.529,421.72,81.864,421.69Z" transform="translate(-70.502 -319.879)" fill="#696756"/>
          <path id="Path_32504" data-name="Path 32504" d="M97.994,346.427a10.656,10.656,0,0,1-2.338-4.8c-.136-.652-1.138-.389-1,.263a11.748,11.748,0,0,0,2.6,5.263C97.686,347.659,98.424,346.933,97.994,346.427Z" transform="translate(-80.759 -283.195)" fill="#696756"/>
          <path id="Path_32505" data-name="Path 32505" d="M97.457,353.377l-1.308-2.328a.518.518,0,0,0-.9.512l1.308,2.329A.518.518,0,0,0,97.457,353.377Z" transform="translate(-81.01 -287.659)" fill="#696756"/>
          <path id="Path_32506" data-name="Path 32506" d="M119.791,420.069A12.1,12.1,0,0,1,112,419.044c-.6-.292-1.132.595-.533.888a13.277,13.277,0,0,0,8.584,1.138C120.708,420.942,120.444,419.941,119.791,420.069Z" transform="translate(-88.508 -319.556)" fill="#545345"/>
          <path id="Path_32507" data-name="Path 32507" d="M124.318,340.775l-2.71-2.978c-.449-.494-1.189.232-.74.724l2.71,2.978C124.027,341.993,124.767,341.268,124.318,340.775Z" transform="translate(-92.961 -281.504)" fill="#545345"/>
          <path id="Path_32508" data-name="Path 32508" d="M123.455,346.365l-1.495-3.384c-.269-.608-1.168-.093-.9.513l1.5,3.384C122.824,347.486,123.722,346.971,123.455,346.365Z" transform="translate(-93.093 -283.878)" fill="#545345"/>
          <path id="Path_32509" data-name="Path 32509" d="M128.524,442.624l-6.084-1.562-8.626-.149a20.768,20.768,0,0,0-1.359,7.05h23.069C135.507,444.445,132.045,442.624,128.524,442.624Z" transform="translate(-89.091 -329.812)" fill="#fff"/>
          <path id="Path_32510" data-name="Path 32510" d="M84.628,442.624l-6.084-1.562-8.626-.149a20.775,20.775,0,0,0-1.358,7.05H91.627C91.611,444.445,88.149,442.624,84.628,442.624Z" transform="translate(-68.559 -329.812)" fill="#fff"/>
        </g>
        <path id="Path_32511" data-name="Path 32511" d="M97.749,100.276a33.428,33.428,0,0,0-4.722-12.363,5.5,5.5,0,0,1-1.1-2.544c-.047-.934.661-1.975,1.593-1.892a18.683,18.683,0,0,1-1.426-4.758,4.251,4.251,0,0,1,.5-3.419,3.047,3.047,0,0,1,2.379-1.019,6.251,6.251,0,0,1,2.569.671,15.448,15.448,0,0,1,8.49-6.093,5.659,5.659,0,0,1,2.342-.168,2.573,2.573,0,0,1,1.876,1.3,1.689,1.689,0,0,1-.485,2.108,8.8,8.8,0,0,1,3.208-.112,2.143,2.143,0,0,1,1.589,1.982c-.058,1.01-1.025,1.687-1.892,2.208a6.768,6.768,0,0,1,2.368,1.369,2.981,2.981,0,0,1,1.2,2.543,4.262,4.262,0,0,1-1.442,2.362,37.126,37.126,0,0,1-5.917,4.825C104.247,90.319,100.709,95.583,97.749,100.276Z" transform="translate(-57.599 -68.629)" fill="#6d4c41"/>
        <g id="Group_47752" data-name="Group 47752" transform="translate(0 34.454)">
          <path id="Path_32512" data-name="Path 32512" d="M156.271,176.025c2.208-3.535,2.841-6.3-.093-9.265a9.541,9.541,0,0,0-8.011-2.471,10.793,10.793,0,0,0-4.839,1.872c-.733.532-2.014,2.186-2.889,1.183-6.637-7.6-10.55-14.87-17.488-22.213a14.379,14.379,0,0,0-8.079-4.244,7.627,7.627,0,0,0-6.709,1.822,7.707,7.707,0,0,0-1.9,6,18.943,18.943,0,0,0,1.862,6.184,74.161,74.161,0,0,0,24.889,30.157C141.023,185.623,152.018,182.834,156.271,176.025Z" transform="translate(-64.292 -136.819)" fill="#002b2b"/>
          <path id="Path_32513" data-name="Path 32513" d="M93.95,135.139a62.391,62.391,0,0,0-14.462-1.711,5.469,5.469,0,0,0-4.466,2.237c-3.924,5.512-.092,13.58,1.235,20.247a90.7,90.7,0,0,1-.883,39.2,4.01,4.01,0,0,0,2.663,4.736,81.054,81.054,0,0,0,28.512,4.587,18.882,18.882,0,0,0,6.554-1.151,4.27,4.27,0,0,0,2.552-4.321c-1.254-14.284-2.385-28.2-3.653-42.527,0-.053-.01-.1-.014-.158A23.783,23.783,0,0,0,93.95,135.139Z" transform="translate(-48.888 -133.392)" fill="#004243"/>
          <g id="Group_47749" data-name="Group 47749">
            <path id="Path_32514" data-name="Path 32514" d="M40.82,191.421a9.336,9.336,0,0,0,8.784-15.91c-.462-1.544-.382-2.8-.844-4.343,7.089-5.842,12.134-15.29,14.919-24.044a17.2,17.2,0,0,0,1.018-7.1A7.628,7.628,0,0,0,61.06,134.1a7.706,7.706,0,0,0-6.293-.131,18.954,18.954,0,0,0-5.409,3.529,74.162,74.162,0,0,0-21.925,32.376C29.142,177.715,33.09,189.258,40.82,191.421Z" transform="translate(-27.433 -133.361)" fill="#004243"/>
            <path id="Path_32515" data-name="Path 32515" d="M74.721,244.579a24.954,24.954,0,0,0-1.891-6.2,58.842,58.842,0,0,0-6.34-1.6,56.876,56.876,0,0,1-7.645-14.489,6.576,6.576,0,0,0-5.092,1.381,6.729,6.729,0,0,0-2.779,4.565c2.928,3.137,9.544,7.756,12.471,10.894a4.414,4.414,0,0,0,.288,3.665,4.971,4.971,0,0,0,2.373,2.141c0,.04-.007.081-.013.121-.083.581-.545,1.025-.588,1.592a.569.569,0,0,0,.515.612c.9-.028,1.429-.975,1.62-1.769,0-.008,0-.017.005-.026a3.9,3.9,0,0,1-.118,1.975.734.734,0,0,0,1.278.681,3.958,3.958,0,0,0,.646-3.072,7.442,7.442,0,0,0-.372-1.365l.09-.039c.539,1.4,1.414,2.816.479,4.134a.624.624,0,0,0,.761.925,2.9,2.9,0,0,0,1.453-3.155,13.7,13.7,0,0,0-.661-2.32c-.035-.1-.067-.207-.1-.309.168-.051.336-.1.5-.147a6.682,6.682,0,0,1,1.062,2.032,1.927,1.927,0,0,1-.054,1.1,6.817,6.817,0,0,0-.287,1.081,1.245,1.245,0,0,0,.3,1.038c.268.26.93.463,1.02.1C73.919,247.029,74.9,245.693,74.721,244.579Z" transform="translate(-38.444 -174.905)" fill="#ffab91"/>
          </g>
          <path id="Path_32516" data-name="Path 32516" d="M205.2,159.881a17.235,17.235,0,0,0-5.157,1.546c-.576,2.039-1.694,4.848-2.5,6.819a56.844,56.844,0,0,1-14.354,7.9,6.579,6.579,0,0,0,1.469,5.067,6.726,6.726,0,0,0,4.612,2.7c3.086-2.982,7.589-9.677,10.676-12.659a4.413,4.413,0,0,0,3.659-.352,4.973,4.973,0,0,0,2.1-2.41c.04,0,.082.006.121.011.582.073,1.034.527,1.6.56a.569.569,0,0,0,.6-.525c-.044-.9-1-1.411-1.8-1.589l-.025,0a3.906,3.906,0,0,1,1.976.084.734.734,0,0,0,.658-1.29,3.958,3.958,0,0,0-3.083-.593,7.487,7.487,0,0,0-1.358.395c-.014-.029-.027-.06-.041-.089,1.39-.563,2.791-1.462,4.125-.55a.623.623,0,0,0,.911-.777,2.9,2.9,0,0,0-3.18-1.4,13.686,13.686,0,0,0-2.308.7c-.1.037-.206.07-.308.1-.054-.167-.108-.334-.156-.5a6.7,6.7,0,0,1,2.014-1.1,1.93,1.93,0,0,1,1.1.035,6.738,6.738,0,0,0,1.086.268,1.245,1.245,0,0,0,1.034-.316c.255-.273.446-.938.082-1.021C207.666,160.64,206.313,159.683,205.2,159.881Z" transform="translate(-100.244 -145.753)" fill="#ffab91"/>
          <g id="Group_47750" data-name="Group 47750" transform="translate(97.734 9.906)">
            <path id="Path_32517" data-name="Path 32517" d="M229.789,172.355l.892.789a.514.514,0,0,0,.7-.012h0a.515.515,0,0,0,.048-.7l-.744-.93a.515.515,0,0,0-.757-.052l-.148.141A.515.515,0,0,0,229.789,172.355Z" transform="translate(-219.736 -161.019)" fill="#c48b00"/>
            <rect id="Rectangle_4561" data-name="Rectangle 4561" width="3.602" height="11.95" transform="translate(0 2.482) rotate(-43.552)" fill="#af8b30"/>
            <path id="Path_32518" data-name="Path 32518" d="M227.1,170.69l1.815,1.333,1.425-1.355-1.24-1.88Z" transform="translate(-218.558 -159.838)" fill="#8c6f26"/>
          </g>
          <g id="Group_47751" data-name="Group 47751" transform="translate(98.929 14.674)">
            <path id="Path_32519" data-name="Path 32519" d="M218.889,162.352a.786.786,0,0,1,.765-.05.709.709,0,0,1,.211.624,2.738,2.738,0,0,1-2.383,2.594,1.028,1.028,0,0,1-1.042-1.527,3.648,3.648,0,0,1,1.026-.847A9.945,9.945,0,0,1,218.889,162.352Z" transform="translate(-214.694 -161.533)" fill="#ffab91"/>
            <path id="Path_32520" data-name="Path 32520" d="M218.45,161.1a.416.416,0,0,0-.6-.086c-.008,0-.017,0-.025.006a19.168,19.168,0,0,0-3.35,2.079c-.529.406.2,1.142.724.74a17.735,17.735,0,0,1,2.676-1.682c.309,1.1-1.678,2.469-2.347,2.911a.505.505,0,0,0-.238.453.522.522,0,0,0,.106.433,2.358,2.358,0,0,1,.492,2.3,1.481,1.481,0,0,1-1.956.892c-.627-.229-.909.768-.286,1a2.5,2.5,0,0,0,3.094-1.265,3.21,3.21,0,0,0-.288-3.191C217.911,164.651,219.839,162.839,218.45,161.1Z" transform="translate(-213.299 -160.93)" fill="#ff8a65"/>
          </g>
          <path id="Path_32521" data-name="Path 32521" d="M106.393,144.634c-2.375,4.49-9.815-1.388-12.149-3.38-.5-.43-1.248.291-.74.724,2.892,2.468,10.882,8.664,13.777,3.189C107.592,144.579,106.7,144.044,106.393,144.634Z" transform="translate(-58.257 -136.991)" fill="#002b2b"/>
          <path id="Path_32522" data-name="Path 32522" d="M52.8,201.1a12.357,12.357,0,0,0-9.843-2.26c-.655.122-.39,1.124.263,1a11.33,11.33,0,0,1,9.047,2.146C52.8,202.384,53.326,201.492,52.8,201.1Z" transform="translate(-34.516 -163.88)" fill="#002b2b"/>
          <path id="Path_32523" data-name="Path 32523" d="M57.568,197.323a5.874,5.874,0,0,0-4.107-2.164c-.664-.061-.672.975-.012,1.035a4.855,4.855,0,0,1,3.378,1.852C57.245,198.567,57.982,197.839,57.568,197.323Z" transform="translate(-39.372 -162.265)" fill="#002b2b"/>
          <path id="Path_32524" data-name="Path 32524" d="M80.488,169.041a40.58,40.58,0,0,1-7.538,14.01c-.42.509.3,1.255.724.74a41.863,41.863,0,0,0,7.809-14.463A.518.518,0,0,0,80.488,169.041Z" transform="translate(-48.664 -149.883)" fill="#002b2b"/>
          <path id="Path_32525" data-name="Path 32525" d="M84.36,180.174a6.359,6.359,0,0,1-2.584,2.461c-.591.309-.079,1.209.512.9a7.364,7.364,0,0,0,2.96-2.827A.518.518,0,0,0,84.36,180.174Z" transform="translate(-52.729 -155.141)" fill="#002b2b"/>
          <path id="Path_32526" data-name="Path 32526" d="M103.072,224.876a27.693,27.693,0,0,1-10.535,11.381c-.57.343-.061,1.246.512.9a28.685,28.685,0,0,0,10.911-11.748C104.259,224.816,103.372,224.28,103.072,224.876Z" transform="translate(-57.768 -176.044)" fill="#002b2b"/>
          <path id="Path_32527" data-name="Path 32527" d="M128.761,224.8A37.324,37.324,0,0,0,113.3,223.3c-.654.073-.674,1.109-.012,1.035a36.554,36.554,0,0,1,15.185,1.466A.518.518,0,0,0,128.761,224.8Z" transform="translate(-67.363 -175.317)" fill="#002b2b"/>
          <path id="Path_32528" data-name="Path 32528" d="M142.041,226.433c-.364-.554-1.267-.047-.9.513a19.3,19.3,0,0,1,2.972,7.731c.1.657,1.1.391,1-.263A20.04,20.04,0,0,0,142.041,226.433Z" transform="translate(-80.578 -176.782)" fill="#002b2b"/>
        </g>
        <g id="Group_47756" data-name="Group 47756" transform="translate(35.234 9.157)">
          <g id="Group_47755" data-name="Group 47755">
            <g id="Group_47754" data-name="Group 47754">
              <path id="Path_32529" data-name="Path 32529" d="M106.174,115.187c-1.4,3.552-.607,11.517-.149,12.013a1.438,1.438,0,0,1,.277,1.825c-.45.519-1.281.372-1.93.147a20.155,20.155,0,0,1-8.185-5.356c.222-.2.6-.595.825-.792,2.638-2.345,1.682-9.792,1.364-13.307Z" transform="translate(-94.826 -97.004)" fill="#ffab91"/>
              <path id="Path_32530" data-name="Path 32530" d="M100.759,117.1c-.07-1.487-.227-5.655-.35-7.011l7.74,5.272a18.129,18.129,0,0,0-.791,6.091C105.17,119.986,102.915,118.59,100.759,117.1Z" transform="translate(-96.8 -97.179)" fill="#ff8a65"/>
              <g id="Group_47753" data-name="Group 47753">
                <path id="Path_32531" data-name="Path 32531" d="M114.027,90.63c1.161,5.571.931,17.825-6.753,18.735-2.493.295-4.924-1.209-6.431-3.217a21.7,21.7,0,0,1-3-6.866,8.2,8.2,0,0,1-2.78-.706,2.648,2.648,0,0,1-1.438-2.224,1.635,1.635,0,0,1,1.825-1.6c1.8.426,3.259,2.707,3.485.832,1.65-13.671,9.692-6.487,12.33-9.749.044-.054,1.976,2.681,2.133,2.989A7.069,7.069,0,0,1,114.027,90.63Z" transform="translate(-93.629 -85.833)" fill="#ffab91"/>
                <path id="Path_32532" data-name="Path 32532" d="M96.092,104.914c.642-.373,1.408.062,1.929.486.342.277,1.063,1.011.708,1.49a.03.03,0,0,1-.028.009c-.422-.071-.706-.673-1.04-.923-.48-.36-1.078-.367-1.554-.7A.213.213,0,0,1,96.092,104.914Z" transform="translate(-94.737 -94.692)" fill="#ff8a65"/>
                <path id="Path_32533" data-name="Path 32533" d="M129.991,102.679a.339.339,0,0,1,.53.046,1.648,1.648,0,0,1,.146,1.111,2.785,2.785,0,0,1-.238,1.186.365.365,0,0,1-.661-.056,2.781,2.781,0,0,1-.077-1.209A1.659,1.659,0,0,1,129.991,102.679Z" transform="translate(-110.483 -93.663)" fill="#212121"/>
                <path id="Path_32534" data-name="Path 32534" d="M117.043,101.783a.339.339,0,0,1,.53.046,1.646,1.646,0,0,1,.146,1.111,2.787,2.787,0,0,1-.238,1.186.365.365,0,0,1-.661-.056,2.78,2.78,0,0,1-.077-1.209A1.656,1.656,0,0,1,117.043,101.783Z" transform="translate(-104.427 -93.244)" fill="#212121"/>
              </g>
            </g>
          </g>
          <path id="Path_32535" data-name="Path 32535" d="M118.646,95.592a2.95,2.95,0,0,0-3.693-.238c-.532.389-.027,1.294.512.9a1.919,1.919,0,0,1,2.44.062C118.4,96.758,119.144,96.037,118.646,95.592Z" transform="translate(-103.497 -90.033)" fill="#6d4c41"/>
          <path id="Path_32536" data-name="Path 32536" d="M130.672,96.959a1.5,1.5,0,0,0-1.833-.229c-.565.35-.056,1.252.513.9a.447.447,0,0,1,.58.053C130.4,98.155,131.143,97.433,130.672,96.959Z" transform="translate(-109.983 -90.83)" fill="#6d4c41"/>
          <path id="Path_32537" data-name="Path 32537" d="M115.882,118.621a4.368,4.368,0,0,1-3.289-1.655c-.422-.516-1.16.211-.74.724a5.378,5.378,0,0,0,4.017,1.967A.518.518,0,0,0,115.882,118.621Z" transform="translate(-102.094 -100.312)" fill="#212121"/>
          <path id="Path_32538" data-name="Path 32538" d="M125.31,107.73a.266.266,0,0,0-.381.372,4.365,4.365,0,0,1,1.236,1.923,1.658,1.658,0,0,1-1.415,2.248c-.342.007-.037.54.306.532a2.047,2.047,0,0,0,2.006-1.81C127.253,109.709,126.155,108.6,125.31,107.73Z" transform="translate(-108.115 -96.037)" fill="#ff8a65"/>
        </g>
      </g>
    </g>
  </g>
</svg>
