<svg xmlns="http://www.w3.org/2000/svg" width="287.999" height="211.035" viewBox="0 0 287.999 211.035">
  <g id="Group_15649" data-name="Group 15649" transform="translate(-23.809 -99.844)">
    <g id="Group_15605" data-name="Group 15605" transform="translate(23.809 99.844)">
      <path id="Path_16589" data-name="Path 16589" d="M1538.494,652.847l-2.26.693-1.518-3.513-3.429.607-1.566-2.443-1.237.792,2.093,3.268,3.25-.575,1.579,3.654,3.4-1.043Z" transform="translate(-1429.054 -612.788)" fill="#50bfa5"/>
      <path id="Path_16590" data-name="Path 16590" d="M2437.4,1436.557l-2.259.693-1.518-3.513-3.428.607-1.566-2.443-1.237.792,2.094,3.267,3.25-.574,1.579,3.654,3.4-1.044Z" transform="translate(-2183.054 -1270.158)" fill="#50bfa5"/>
      <g id="Group_15571" data-name="Group 15571" transform="translate(82.396 113.285)">
        <g id="Group_15570" data-name="Group 15570" transform="translate(0 0)">
          <path id="Path_16591" data-name="Path 16591" d="M1435.932,1226.008s-12.058-40.87-13.026-49.885,5.775-6.222,5.775-6.222-5.672-17.178-1.571-21.255,7.8,3.522,7.8,3.522,1.242-20.854,5.615-20.861c8.146-.015,7.985,22.743,7.985,22.743s2.079-8.91,6.44-6.467c6.578,3.683-2.855,21.538-2.855,21.538s8.381.006,11.325,4.232C1468.705,1180.935,1435.932,1226.008,1435.932,1226.008Z" transform="translate(-1422.812 -1131.307)" fill="#50bfa5"/>
        </g>
      </g>
      <g id="Group_15573" data-name="Group 15573" transform="translate(36.912 142.44)">
        <g id="Group_15572" data-name="Group 15572" transform="translate(0 0)">
          <path id="Path_16592" data-name="Path 16592" d="M1203.213,1372.3s-34.761-5.813-42.323-11.972-.077-8.937-.077-8.937-17.463-8.952-17.26-15.039,8.877-2.993,8.877-2.993-14.714-16.778-11.23-19.964c6.489-5.935,23.5,11.506,23.5,11.506s-5.051-8.295.269-9.607c8.022-1.979,13.942,18.472,13.942,18.472s-1.5-8.077,4.027-7C1192.861,1328.7,1203.213,1372.3,1203.213,1372.3Z" transform="translate(-1140.666 -1312.164)" fill="#50bfa5"/>
        </g>
        <path id="Path_16593" data-name="Path 16593" d="M1185.712,1326.766c-5.545-1-4.027,7-4.027,7s-5.921-20.452-13.943-18.472c-5.319,1.313-.268,9.607-.268,9.607s-17.01-17.441-23.5-11.506l61.9,58.914C1204.77,1366.683,1195.009,1328.447,1185.712,1326.766Z" transform="translate(-1143.442 -1312.164)" fill="#3c8f7c"/>
      </g>
      <g id="Group_15574" data-name="Group 15574" transform="translate(34.354 178.631)">
        <path id="Path_16594" data-name="Path 16594" d="M1199.8,1565.816s-18.306-18.617-27.525-20.556-7.561,4.62-7.561,4.62-18.29-16-22.529-12.119.346,7.617.346,7.617-15.235-2.7-17.416,2.3c-3.351,7.682,21.705,11.864,21.705,11.864s-10.5.727-8.065,5.545C1142.423,1572.351,1199.8,1565.816,1199.8,1565.816Z" transform="translate(-1124.802 -1537.076)" fill="#355389"/>
        <path id="Path_16595" data-name="Path 16595" d="M1126.716,1547.262c2.181-5,17.416-2.3,17.416-2.3s-4.585-3.741-.346-7.617,21.961,9.945,21.961,9.945-4.179-7.987,5.04-6.049S1201.4,1565.4,1201.4,1565.4Z" transform="translate(-1126.407 -1536.659)" fill="#466eb6"/>
      </g>
      <g id="Group_15582" data-name="Group 15582" transform="translate(125.267 5.698)">
        <path id="Path_16596" data-name="Path 16596" d="M1740.365,523.4a7.065,7.065,0,0,0-2.869,12.719,4.7,4.7,0,0,1,1.828,2.72l.932,3.762a2.049,2.049,0,0,0,2.322,1.529l2.334-.384a2.048,2.048,0,0,0,1.709-2.192c-.324-3.884-.724-5.293.538-7.025A7.065,7.065,0,0,0,1740.365,523.4Z" transform="translate(-1727.14 -513.727)" fill="#f7cc7f"/>
        <g id="Group_15575" data-name="Group 15575" transform="translate(10.472 14.251)">
          <path id="Path_16597" data-name="Path 16597" d="M1757.089,564.191c-.4-3.327-.964-6.84-1.155-7.837-3.532.195-2.19-3.528-.56-2.014A3.085,3.085,0,0,1,1756.2,556a9.134,9.134,0,0,0,3.365-.98,4.331,4.331,0,0,1,.092-1.968c.346-.793,1.351-1.009,1.76-.236a1.233,1.233,0,0,1,.069.969,3.139,3.139,0,0,1-1.571,1.429c.186,2.645.443,5.311.767,7.937l-.333.041c-.319-2.583-.574-5.2-.759-7.808a9.471,9.471,0,0,1-3.323.948c.241,1.274.776,4.7,1.152,7.822Zm-2.833-8.621a1.977,1.977,0,0,0,1.607.452,2.732,2.732,0,0,0-.718-1.435C1754.268,553.772,1753.729,555,1754.256,555.57Zm5.712-2.386a3.743,3.743,0,0,0-.075,1.657,2.655,2.655,0,0,0,1.281-1.173.762.762,0,0,0-.392-.987C1760.74,552.671,1760.1,552.875,1759.968,553.184Z" transform="translate(-1753.707 -552.332)" fill="#fae0b2"/>
        </g>
        <path id="Path_16598" data-name="Path 16598" d="M1764.159,613.107c.009.031.02.061.027.093l.933,3.762a2.049,2.049,0,0,0,2.321,1.529l2.335-.384a2.048,2.048,0,0,0,1.708-2.192c-.144-1.728-.3-2.965-.324-3.96Z" transform="translate(-1752.002 -588.092)" fill="#96d9c9"/>
        <g id="Group_15576" data-name="Group 15576" transform="translate(6.732 2.501)">
          <path id="Path_16599" data-name="Path 16599" d="M1732.438,483.8l-1.843-3.363a.672.672,0,0,1,1.179-.646l1.842,3.364a.672.672,0,1,1-1.179.646Z" transform="translate(-1730.512 -479.443)" fill="#fae0b2"/>
        </g>
        <g id="Group_15577" data-name="Group 15577" transform="translate(0 13.302)">
          <path id="Path_16600" data-name="Path 16600" d="M1693.38,548.14l-4.017-.351a.672.672,0,0,1,.117-1.339l4.017.351a.672.672,0,0,1-.117,1.339Z" transform="translate(-1688.75 -546.447)" fill="#fae0b2"/>
        </g>
        <g id="Group_15578" data-name="Group 15578" transform="translate(0.453 23.613)">
          <path id="Path_16601" data-name="Path 16601" d="M1691.756,614.1a.672.672,0,0,1,.006-.95,21.982,21.982,0,0,1,3.227-2.632.672.672,0,1,1,.746,1.118,20.623,20.623,0,0,0-3.029,2.471A.672.672,0,0,1,1691.756,614.1Z" transform="translate(-1691.562 -610.405)" fill="#fae0b2"/>
        </g>
        <g id="Group_15579" data-name="Group 15579" transform="translate(18.083)">
          <path id="Path_16602" data-name="Path 16602" d="M1801.417,470.608a.672.672,0,0,1-.476-.823,25.554,25.554,0,0,0,.829-5.219.672.672,0,1,1,1.342.072,26.907,26.907,0,0,1-.872,5.493A.672.672,0,0,1,1801.417,470.608Z" transform="translate(-1800.919 -463.93)" fill="#fae0b2"/>
        </g>
        <g id="Group_15580" data-name="Group 15580" transform="translate(22.689 9.716)">
          <path id="Path_16603" data-name="Path 16603" d="M1829.523,526.324a.672.672,0,0,1,.449-.837l4.176-1.258a.672.672,0,0,1,.388,1.287l-4.176,1.258A.672.672,0,0,1,1829.523,526.324Z" transform="translate(-1829.494 -524.2)" fill="#fae0b2"/>
        </g>
        <g id="Group_15581" data-name="Group 15581" transform="translate(24.857 19.984)">
          <path id="Path_16604" data-name="Path 16604" d="M1847.66,590.865a.665.665,0,0,1-.182-.025,21.081,21.081,0,0,1-4.182-1.676.672.672,0,0,1,.631-1.187,19.749,19.749,0,0,0,3.915,1.569.672.672,0,0,1-.182,1.319Z" transform="translate(-1842.939 -587.898)" fill="#fae0b2"/>
        </g>
      </g>
      <path id="Path_16605" data-name="Path 16605" d="M2209.991,701.593l-2.106-4.982-5.3-1.089a.743.743,0,0,1-.337-1.289l4.087-3.543-.6-5.375a.744.744,0,0,1,1.123-.719l4.632,2.792,4.926-2.233a.743.743,0,0,1,1.031.845l-1.224,5.268,3.646,3.995a.743.743,0,0,1-.485,1.242l-5.389.464-2.673,4.7A.744.744,0,0,1,2209.991,701.593Z" transform="translate(-1993.987 -643.234)" fill="#f7cc7f"/>
      <path id="Path_16606" data-name="Path 16606" d="M2392.333,684.566l-.866,3.487-5.765-.774-1.895,4.943-4.41.127.064,2.232,5.9-.169,1.8-4.684,6,.8,1.3-5.248Z" transform="translate(-2142.793 -643.299)" fill="#f48c7f"/>
      <path id="Path_16607" data-name="Path 16607" d="M1577.239,1623.451H1475.9a7.143,7.143,0,0,1-7.009-7.27v-4.323a7.143,7.143,0,0,1,7.009-7.27h101.344a14.357,14.357,0,0,0-.186,18.642Z" transform="translate(-1379.063 -1415.007)" fill="#b75742"/>
      <path id="Path_16608" data-name="Path 16608" d="M1802.366,1617.995h-56.21a7.143,7.143,0,0,0-7.009,7.27h0a7.143,7.143,0,0,0,7.009,7.269h56.215A14.425,14.425,0,0,1,1802.366,1617.995Z" transform="translate(-1605.756 -1426.252)" fill="#fae0b2"/>
      <path id="Path_16609" data-name="Path 16609" d="M1599.371,1520.229a.42.42,0,0,0-.417-.6h-53.624c-4.2,0-7.61,3.066-7.61,6.849h0c0,3.783,3.407,6.849,7.61,6.849h53.639a.422.422,0,0,0,.418-.6h0A13.123,13.123,0,0,1,1599.371,1520.229Z" transform="translate(-1436.799 -1343.747)" fill="#86b1f2"/>
      <path id="Path_16610" data-name="Path 16610" d="M1733.3,1527.54h-26.576c-4.933,0-8.932,2.569-8.932,5.74s4,5.739,8.932,5.739h26.751A13.1,13.1,0,0,1,1733.3,1527.54Z" transform="translate(-1571.071 -1350.379)" fill="#f7cc7f"/>
      <g id="Group_15583" data-name="Group 15583" transform="translate(150.561 179.881)">
        <path id="Path_16611" data-name="Path 16611" d="M1850.462,1544.417H1847c-.744,0-1.348.25-1.348.558v.05h4.809Z" transform="translate(-1845.654 -1544.417)" fill="#b75742"/>
        <path id="Path_16612" data-name="Path 16612" d="M1860.182,1545.817c0-.773-.9-1.4-2.019-1.4h-4.442c.846,0,1.532.475,1.532,1.062l-.021,15.006,2.454-1.93,2.5,1.93Z" transform="translate(-1852.421 -1544.417)" fill="#f47458"/>
      </g>
      <g id="Group_15585" data-name="Group 15585" transform="translate(97.4 162.884)">
        <path id="Path_16613" data-name="Path 16613" d="M1670.588,1454.69h-31.2c-2.767,0-5.01-2.662-5.01-5.946h0c0-3.284,2.243-5.946,5.01-5.946h31.2a10.462,10.462,0,0,0-.223,11.555Z" transform="translate(-1615.275 -1442.182)" fill="#fae0b2"/>
        <path id="Path_16614" data-name="Path 16614" d="M1534.992,1445.539h0c0-3.284,2.3-5.946,5.128-5.946H1571.8a.289.289,0,0,0,.266-.311h0a.289.289,0,0,0-.266-.305h-50.248c-3.126,0-5.66,2.938-5.66,6.562h0c0,3.624,2.534,6.562,5.66,6.562h50.247a.289.289,0,0,0,.266-.305h0a.29.29,0,0,0-.266-.311H1540.12C1537.288,1451.485,1534.992,1448.823,1534.992,1445.539Z" transform="translate(-1515.888 -1438.977)" fill="#466eb6"/>
        <g id="Group_15584" data-name="Group 15584" transform="translate(45.055 3.538)">
          <path id="Path_16615" data-name="Path 16615" d="M1800.184,1460.925h-3.461c-.745,0-1.348.245-1.348.547v.049h4.809Z" transform="translate(-1795.375 -1460.925)" fill="#184655"/>
          <path id="Path_16616" data-name="Path 16616" d="M1809.9,1462.3c0-.758-.9-1.373-2.019-1.373h-4.442c.846,0,1.531.466,1.531,1.041l-.021,14.716,2.454-1.892,2.5,1.892Z" transform="translate(-1802.141 -1460.925)" fill="#3c8f7c"/>
        </g>
      </g>
      <g id="Group_15588" data-name="Group 15588" transform="translate(104.774 40.924)">
        <g id="Group_15587" data-name="Group 15587" transform="translate(57.156 33.369)">
          <path id="Path_16617" data-name="Path 16617" d="M2146.35,890.74l4.606-1.212-3.122,41.64-5.526.184,2.787-39.1A1.69,1.69,0,0,1,2146.35,890.74Z" transform="translate(-2105.854 -889.513)" fill="#184655"/>
          <g id="Group_15586" data-name="Group 15586">
            <path id="Path_16618" data-name="Path 16618" d="M2169.605,932.277a1.5,1.5,0,0,1-.315,0,1.846,1.846,0,0,1-1.512-2.032l3.065-39.154a1.679,1.679,0,0,1,1.8-1.641,1.847,1.847,0,0,1,1.513,2.032l-3.066,39.154A1.719,1.719,0,0,1,2169.605,932.277Z" transform="translate(-2127.212 -889.435)" fill="#f7cc7f"/>
            <path id="Path_16619" data-name="Path 16619" d="M1916.18,1147.1c0,.029,0,.057.006.086h0a2.725,2.725,0,0,0,2.756,2.661l38.9-3.481a2.719,2.719,0,0,0,2.234-3.107c-.006-.068-.015-.134-.025-.2Z" transform="translate(-1916.18 -1102.173)" fill="#f7cc7f"/>
          </g>
        </g>
        <path id="Path_16620" data-name="Path 16620" d="M1985.08,1422.307c-2.547,1.412-10.333-1.064-10.333-1.288-.112,2.128-8.719,22.956-8.719,22.956l.007,6.408s17.735.845,17.479-.722-1.209-.548-4.746-3.508c-.314-.263-5.281-1.416-3.937-4.356C1977.538,1435.876,1983.288,1426,1985.08,1422.307Z" transform="translate(-1900.837 -1301.954)" fill="#f7a491"/>
        <path id="Path_16621" data-name="Path 16621" d="M1959.6,1569.965l19.413.005c.7-.071.864-.641.617-.987-.51-.714-4.23-2.4-6.731-3.512-4.357.509-12.014-1.166-12.715-2.159C1958.339,1565.781,1959.207,1569.884,1959.6,1569.965Z" transform="translate(-1894.982 -1421.308)" fill="#3c8f7c"/>
        <path id="Path_16622" data-name="Path 16622" d="M1935.692,1224.345c-.263-.788,16.714-7.992,17.473-7.169,1.344,1.456-9.185,28.787-9.185,28.787l12.1,3.7s12.577-31.576,12.052-37.352-6.826-12.338-20.477-8.138S1935.692,1224.345,1935.692,1224.345Z" transform="translate(-1875.335 -1118.945)" fill="#355389"/>
        <path id="Path_16623" data-name="Path 16623" d="M2092.325,1447.539a64.2,64.2,0,0,0-9.553-.722c.35,2.648,2.052,16.223,1.741,17.057a10.189,10.189,0,0,1-4.056,4.961s13.182,11.894,13.978,10.52-.588-1.19-1.448-5.722c-.077-.4-1.982-6.728-2.1-10.14C2090.66,1456.988,2092.226,1451.152,2092.325,1447.539Z" transform="translate(-1996.818 -1323.594)" fill="#f7a491"/>
        <path id="Path_16624" data-name="Path 16624" d="M1762.529,1171.263c-1.839-.981-6.613-1.015-11.863-.676a120.46,120.46,0,0,0-30.073,5.9l-6.515,2.158.022-6.68s-20.726-3.468-21.446,1.669c-1.086,7.735.262,23.439,7.167,26.944,21.449,10.887,51.506-17.345,51.614-13.651.146,4.961,4.329,23.42,5.4,31.5,2.973.051,8.083.049,10.3-.459C1767.562,1202.141,1767.764,1174.056,1762.529,1171.263Z" transform="translate(-1671.251 -1091.731)" fill="#466eb6"/>
        <path id="Path_16625" data-name="Path 16625" d="M2077.891,1557.7l14.819,11.837c.587.389,1.075.052,1.1-.373.058-.875-1.753-4.535-2.98-6.982-3.693-2.367-8.562-8.541-8.474-9.753C2080.8,1553.745,2077.64,1557.387,2077.891,1557.7Z" transform="translate(-1994.654 -1412.177)" fill="#3c8f7c"/>
        <path id="Path_16626" data-name="Path 16626" d="M1611.327,697.409c-.5-4.55-1.022-9.117-4.794-12.452a10.2,10.2,0,0,0-10.771-1.712c-10.874,4.091-5.271,13.748-19.136,23.484-4.308,3.025-9.056,5.1-12.3,9.17-4.54,5.7-2.826,12.561,1.312,17.141,19.8,21.912,41.9-7.68,43.49-14.784C1610.308,712.971,1611.648,700.339,1611.327,697.409Z" transform="translate(-1561.631 -682.44)" fill="#13375b"/>
        <path id="Path_16627" data-name="Path 16627" d="M1714.931,882.835a60.445,60.445,0,0,0-3.283-5.348c-1.678-2.982-6.011-4.49-6.011-4.49s-1.45.029-3.114.111a1.317,1.317,0,0,1-.314.553c-.625.469-4.21-.137-6.526,1.436-7.762,6.653-5.615,38.9-5,49.088l23.639.224s-2.981-21.916,1.823-27.547C1719.483,892.94,1717.331,887.257,1714.931,882.835Z" transform="translate(-1669.256 -842.277)" fill="#50bfa5"/>
        <path id="Path_16628" data-name="Path 16628" d="M1766.9,799.389s-1.3,9.28-2.207,11.534,4.99,7.078,9.9,8.541-1.5-4.981-1.3-7.392,1.095-13.824,1.095-13.824Z" transform="translate(-1731.883 -779.58)" fill="#f7a491"/>
        <path id="Path_16629" data-name="Path 16629" d="M1784.043,801.522c.144-1.888.248-3.273.248-3.273l-7.489,1.14s-.189,1.09-.4,2.632C1779.44,803.782,1782.17,803.226,1784.043,801.522Z" transform="translate(-1741.781 -779.58)" fill="#f47458"/>
        <path id="Path_16630" data-name="Path 16630" d="M1760.766,699.744a8.509,8.509,0,0,0-4.774,3.447c-1.823,2.781-3.073,10.97,2.93,14.792s10.671-1.584,10.749-6.858S1768.618,698.814,1760.766,699.744Z" transform="translate(-1723.398 -696.884)" fill="#f7a491"/>
        <path id="Path_16631" data-name="Path 16631" d="M1841.724,745.412c-.512,1.273-1.528,2.062-2.27,1.764s-.927-1.572-.415-2.844,1.528-2.062,2.269-1.764S1842.237,744.14,1841.724,745.412Z" transform="translate(-1794.077 -732.822)" fill="#f7a491"/>
        <path id="Path_16632" data-name="Path 16632" d="M1745.193,699.1s-3.763,8.441-7.07,9.195-3.258,5-3.258,5,.074-9.808,3.173-12.058A13.032,13.032,0,0,1,1745.193,699.1Z" transform="translate(-1706.939 -696.414)" fill="#13375b"/>
        <path id="Path_16633" data-name="Path 16633" d="M1744.851,756.587c.435,1.371.037,2.72-.89,3.015s-2.031-.578-2.466-1.949-.037-2.721.889-3.015S1744.416,755.217,1744.851,756.587Z" transform="translate(-1712.352 -742.951)" fill="#f7a491"/>
        <path id="Path_16634" data-name="Path 16634" d="M1773.131,1009.453c-1.419-.513-3.53-.576-3.494-.764.142-.758,6.408,1.673,5.561.567-.471-.615-5.16-2.8-6.3-2.437-1.106.349-8.367,2.387-8.367,2.387l-19.846-4.651s-5.009-11.383-5.5-21.163a27.274,27.274,0,0,0-10.559,3.58c1.735,9.353,5.954,24.513,10.617,27.358,1.962,1.2,25.385-1.432,25.385-1.432a53.245,53.245,0,0,0,6-.689c.64-.246,2.287-1.174,3.183-1.427,2.036-.577,5.665.871,5.677.473A3.922,3.922,0,0,0,1773.131,1009.453Z" transform="translate(-1698.351 -934.877)" fill="#f7a491"/>
        <path id="Path_16635" data-name="Path 16635" d="M1724.621,881.736c-.191-3.009-1.33-5.915-4.533-6.851a6.483,6.483,0,0,0-5.8,1.27c-1.887,1.541-2.413,4.013-2.4,6.352a90.776,90.776,0,0,0,1.353,16.05,34.337,34.337,0,0,1,11.941-3.758C1725.179,894.77,1724.874,885.714,1724.621,881.736Z" transform="translate(-1687.665 -843.67)" fill="#96d9c9"/>
      </g>
      <g id="Group_15589" data-name="Group 15589" transform="translate(48.44 53.856)">
        <path id="Path_16636" data-name="Path 16636" d="M1244.521,804.545l-30.768-5.729a1.138,1.138,0,0,1-.911-1.327l3.854-20.7a1.139,1.139,0,0,1,1.327-.911l30.768,5.729a1.139,1.139,0,0,1,.911,1.327l-3.854,20.7A1.138,1.138,0,0,1,1244.521,804.545Z" transform="translate(-1212.72 -773.732)" fill="#f7cc7f"/>
        <path id="Path_16637" data-name="Path 16637" d="M1265.03,769.81l-9.366-1.744a1.138,1.138,0,0,1-.911-1.327l.587-3.15a1.138,1.138,0,0,1,1.327-.91l9.365,1.744a1.138,1.138,0,0,1,.911,1.327l-.586,3.15A1.138,1.138,0,0,1,1265.03,769.81Z" transform="translate(-1247.875 -762.659)" fill="#f7cc7f"/>
        <path id="Path_16638" data-name="Path 16638" d="M1245.384,814.812a1.138,1.138,0,0,1-1.3.81l-30.969-5.767a1.138,1.138,0,0,1-.926-1.218l1.621-18.554a1.139,1.139,0,0,1,1.342-1.02l34.4,6.406a1.137,1.137,0,0,1,.887,1.428Z" transform="translate(-1212.182 -784.791)" fill="#fae0b2"/>
      </g>
      <g id="Group_15590" data-name="Group 15590" transform="translate(216.36 10.831)">
        <path id="Path_16639" data-name="Path 16639" d="M2260.22,501.022l-5.269,1.438-1.135-6.385,1.724-.306.8,4.5,3.419-.933Z" transform="translate(-2253.817 -495.769)" fill="#50bfa5"/>
      </g>
      <g id="Group_15591" data-name="Group 15591" transform="translate(53.969 102.527)">
        <path id="Path_16640" data-name="Path 16640" d="M1252.313,1072.209a8.15,8.15,0,0,1,4.253,1.09,6.146,6.146,0,0,1,2.267,2.342l-.244.169a5.533,5.533,0,0,0-2.834-1.743,6.816,6.816,0,0,0-3.162-.031Z" transform="translate(-1251.372 -1070.968)" fill="#355389"/>
        <path id="Path_16641" data-name="Path 16641" d="M1253.816,1069.335s-8.039,1.341-7.29,7.621,9.231,11.166,16.8,7.282c10.183-5.225,6.161-18.509-1.087-19.536S1253.816,1069.335,1253.816,1069.335Z" transform="translate(-1246.477 -1064.578)" fill="#f47458"/>
        <path id="Path_16642" data-name="Path 16642" d="M1308.609,1071.643s2.1-2.153,6.693-.194,4.928,11.094.829,10.563S1305.332,1072.961,1308.609,1071.643Z" transform="translate(-1297.859 -1069.651)" fill="#f48c7f"/>
      </g>
      <g id="Group_15594" data-name="Group 15594" transform="translate(78.118)">
        <path id="Path_16643" data-name="Path 16643" d="M1438.179,449.669l-33.064,11.794a2.049,2.049,0,0,1-2.618-1.241l-6.1-17.108a2.048,2.048,0,0,1,1.241-2.618L1430.7,428.7a2.049,2.049,0,0,1,2.618,1.241l6.1,17.108A2.049,2.049,0,0,1,1438.179,449.669Z" transform="translate(-1396.275 -428.582)" fill="#86b1f2"/>
        <path id="Path_16644" data-name="Path 16644" d="M1454.056,509.463a6.552,6.552,0,1,1-8.373-3.97A6.552,6.552,0,0,1,1454.056,509.463Z" transform="translate(-1434.067 -492.774)" fill="#fff"/>
        <path id="Path_16645" data-name="Path 16645" d="M1468.285,519.744a1.932,1.932,0,1,1-2.469-1.171A1.931,1.931,0,0,1,1468.285,519.744Z" transform="translate(-1453.529 -503.971)" fill="#86b1f2"/>
        <path id="Rectangle_1908" data-name="Rectangle 1908" d="M2.982,0h.211A2.982,2.982,0,0,1,6.175,2.982v0a0,0,0,0,1,0,0H0a0,0,0,0,1,0,0v0A2.982,2.982,0,0,1,2.982,0Z" transform="translate(11.087 20.426) rotate(-19.632)" fill="#86b1f2"/>
        <g id="Group_15592" data-name="Group 15592" transform="translate(19.968 6.286)">
          <path id="Path_16646" data-name="Path 16646" d="M1520.976,474.4a.836.836,0,0,1-.281-1.623l14.454-5.156a.836.836,0,0,1,.561,1.574l-14.454,5.156A.834.834,0,0,1,1520.976,474.4Z" transform="translate(-1520.14 -467.574)" fill="#fff"/>
        </g>
        <g id="Group_15593" data-name="Group 15593" transform="translate(23.87 11.018)">
          <path id="Path_16647" data-name="Path 16647" d="M1545.179,502.626A.836.836,0,0,1,1544.9,501l11.288-4.027a.836.836,0,0,1,.562,1.574l-11.289,4.027A.831.831,0,0,1,1545.179,502.626Z" transform="translate(-1544.343 -496.928)" fill="#fff"/>
        </g>
      </g>
      <path id="Path_16648" data-name="Path 16648" d="M1536.134,1359.874H1456.3a4.489,4.489,0,0,0-4.489,4.489v3.776a4.489,4.489,0,0,0,4.489,4.489h79.836l-.042-.043A9.142,9.142,0,0,1,1536.134,1359.874Z" transform="translate(-1364.738 -1209.742)" fill="#f47458"/>
      <path id="Path_16649" data-name="Path 16649" d="M1720.7,1371.585h-42.679a4.489,4.489,0,0,0-4.489,4.489h0a4.489,4.489,0,0,0,4.489,4.489H1720.7A9.156,9.156,0,0,1,1720.7,1371.585Z" transform="translate(-1550.72 -1219.565)" fill="#fae0b2"/>
      <g id="Group_15598" data-name="Group 15598" transform="translate(230.579 124.595)">
        <g id="Group_15596" data-name="Group 15596" transform="translate(0 0)">
          <path id="Path_16650" data-name="Path 16650" d="M2348.177,1227.372l-6.052-15.183a1.489,1.489,0,0,1,.832-1.934l21.777-8.68a1.489,1.489,0,0,1,1.934.832l6.052,15.183a1.488,1.488,0,0,1-.831,1.934l-21.777,8.68A1.489,1.489,0,0,1,2348.177,1227.372Z" transform="translate(-2342.019 -1201.469)" fill="#fae0b2"/>
          <path id="Path_16651" data-name="Path 16651" d="M2479.193,1233.656l-5.437-13.643a.427.427,0,0,1,.239-.555h0a.428.428,0,0,1,.555.239l5.438,13.643a.428.428,0,0,1-.239.555h0A.428.428,0,0,1,2479.193,1233.656Z" transform="translate(-2452.493 -1216.532)" fill="#466eb6"/>
          <path id="Path_16652" data-name="Path 16652" d="M2468.185,1235.214l-4.465-11.2a.427.427,0,0,1,.239-.555h0a.427.427,0,0,1,.554.239l4.465,11.2a.427.427,0,0,1-.238.555h0A.427.427,0,0,1,2468.185,1235.214Z" transform="translate(-2444.076 -1219.887)" fill="#466eb6"/>
          <path id="Path_16653" data-name="Path 16653" d="M2459.124,1241.656l-5.439-13.643a.428.428,0,0,1,.24-.555h0a.427.427,0,0,1,.554.239l5.438,13.643a.428.428,0,0,1-.239.555h0A.427.427,0,0,1,2459.124,1241.656Z" transform="translate(-2435.658 -1223.242)" fill="#466eb6"/>
          <path id="Path_16654" data-name="Path 16654" d="M2447.848,1242.542l-4.2-10.53a.427.427,0,0,1,.239-.555h0a.427.427,0,0,1,.554.239l4.2,10.53a.428.428,0,0,1-.239.555h0A.428.428,0,0,1,2447.848,1242.542Z" transform="translate(-2427.241 -1226.597)" fill="#466eb6"/>
          <g id="Group_15595" data-name="Group 15595" transform="translate(24.019 1.624)">
            <path id="Path_16655" data-name="Path 16655" d="M2493.547,1211.944l-.11-.275a.191.191,0,0,0-.245-.114l-2.066.824a.192.192,0,0,0-.1.252l.11.274a.191.191,0,0,0,.245.115l2.067-.824A.192.192,0,0,0,2493.547,1211.944Z" transform="translate(-2491.011 -1211.542)" fill="#355389"/>
            <path id="Path_16656" data-name="Path 16656" d="M2496.453,1219.234l-.11-.275a.192.192,0,0,0-.246-.115l-2.067.824a.192.192,0,0,0-.1.252l.11.274a.191.191,0,0,0,.245.114l2.066-.824A.192.192,0,0,0,2496.453,1219.234Z" transform="translate(-2493.448 -1217.657)" fill="#355389"/>
            <path id="Path_16657" data-name="Path 16657" d="M2499.357,1226.523l-.109-.275a.191.191,0,0,0-.245-.114l-2.067.824a.191.191,0,0,0-.1.252l.109.275a.192.192,0,0,0,.246.115l2.067-.824A.191.191,0,0,0,2499.357,1226.523Z" transform="translate(-2495.885 -1223.771)" fill="#355389"/>
            <path id="Path_16658" data-name="Path 16658" d="M2502.264,1233.813l-.11-.275a.192.192,0,0,0-.245-.115l-2.067.824a.192.192,0,0,0-.1.252l.109.275a.192.192,0,0,0,.246.114l2.067-.823A.192.192,0,0,0,2502.264,1233.813Z" transform="translate(-2498.322 -1229.885)" fill="#355389"/>
            <path id="Path_16659" data-name="Path 16659" d="M2505.168,1241.1l-.109-.275a.192.192,0,0,0-.245-.115l-2.067.824a.191.191,0,0,0-.1.251l.11.275a.192.192,0,0,0,.246.115l2.066-.824A.19.19,0,0,0,2505.168,1241.1Z" transform="translate(-2500.76 -1236)" fill="#355389"/>
            <path id="Path_16660" data-name="Path 16660" d="M2508.075,1248.391l-.11-.274a.192.192,0,0,0-.246-.115l-2.066.824a.192.192,0,0,0-.1.252l.11.274a.191.191,0,0,0,.245.115l2.067-.824A.193.193,0,0,0,2508.075,1248.391Z" transform="translate(-2503.197 -1242.114)" fill="#355389"/>
            <path id="Path_16661" data-name="Path 16661" d="M2510.98,1255.681l-.11-.275a.192.192,0,0,0-.245-.115l-2.067.824a.192.192,0,0,0-.1.252l.109.275a.192.192,0,0,0,.245.114l2.067-.824A.191.191,0,0,0,2510.98,1255.681Z" transform="translate(-2505.635 -1248.229)" fill="#355389"/>
            <path id="Path_16662" data-name="Path 16662" d="M2513.884,1262.97l-.11-.275a.19.19,0,0,0-.245-.114l-2.067.824a.191.191,0,0,0-.1.251l.109.275a.191.191,0,0,0,.245.114l2.067-.824A.191.191,0,0,0,2513.884,1262.97Z" transform="translate(-2508.071 -1254.343)" fill="#355389"/>
            <path id="Path_16663" data-name="Path 16663" d="M2516.791,1270.26l-.109-.275a.192.192,0,0,0-.245-.115l-2.066.824a.192.192,0,0,0-.1.252l.11.274a.191.191,0,0,0,.245.114l2.067-.823A.192.192,0,0,0,2516.791,1270.26Z" transform="translate(-2510.508 -1260.458)" fill="#355389"/>
            <path id="Path_16664" data-name="Path 16664" d="M2519.7,1277.55l-.109-.275a.192.192,0,0,0-.245-.115l-2.066.824a.192.192,0,0,0-.1.252l.109.275a.191.191,0,0,0,.245.114l2.068-.823A.193.193,0,0,0,2519.7,1277.55Z" transform="translate(-2512.945 -1266.572)" fill="#355389"/>
            <path id="Path_16665" data-name="Path 16665" d="M2522.6,1284.839l-.109-.275a.191.191,0,0,0-.246-.114l-2.066.824a.191.191,0,0,0-.1.252l.11.275a.192.192,0,0,0,.245.115l2.067-.824A.191.191,0,0,0,2522.6,1284.839Z" transform="translate(-2515.382 -1272.686)" fill="#355389"/>
            <path id="Path_16666" data-name="Path 16666" d="M2525.508,1292.129l-.11-.275a.191.191,0,0,0-.245-.115l-2.066.824a.191.191,0,0,0-.1.252l.11.275a.191.191,0,0,0,.245.114l2.067-.824A.191.191,0,0,0,2525.508,1292.129Z" transform="translate(-2517.819 -1278.801)" fill="#355389"/>
          </g>
        </g>
        <g id="Group_15597" data-name="Group 15597" transform="translate(27.83 13.598)">
          <path id="Path_16667" data-name="Path 16667" d="M2524.241,1285.966l-8.644,12.307a.372.372,0,0,0-.045.09l-.88,2.7a.338.338,0,0,0,.525.375l2.313-1.744a.336.336,0,0,0,.074-.076l8.665-12.339a.339.339,0,0,0-.095-.48l-1.455-.929A.338.338,0,0,0,2524.241,1285.966Z" transform="translate(-2514.654 -1285.822)" fill="#b75742"/>
          <path id="Path_16668" data-name="Path 16668" d="M2517.88,1364.971l-.021.03-2.232,1.683-.608-.407.834-2.563A10.437,10.437,0,0,1,2517.88,1364.971Z" transform="translate(-2514.96 -1351.156)" fill="#f7cc7f"/>
        </g>
      </g>
      <g id="Group_15599" data-name="Group 15599" transform="translate(172.635 2.996)">
        <path id="Path_16669" data-name="Path 16669" d="M2000.128,460.248c1.244.993,3.408,4.188,6.169,6.431,1.615,1.312,2.859.978,4.921,1.227,9.783,1.182,7.132,3.182,8.305,3.378-.333.767-3.382,7.245-3.951,8.555a2.386,2.386,0,0,1-2.749,1.566c-2.023-.28-4.065-.488-6.056-.919-5.106-1.107-7.947-3.661-11.606-6.762a2.393,2.393,0,0,1-.707-3.012A83.09,83.09,0,0,1,2000.128,460.248Z" transform="translate(-1992.326 -458.14)" fill="#466eb6"/>
        <path id="Path_16670" data-name="Path 16670" d="M2010.841,468.108c-.044,2.132.119,2.56-.8,2.236a12.825,12.825,0,0,1-1.605-.717c-.368-.19-.381-.44-.084-.739.435-.436.881-.861,1.315-1.284a1.887,1.887,0,0,1,.828-2.267c.159-.094.043.1,1.405-3.031-4.5-.556-7.684-.929-13.18-1.6a7.4,7.4,0,0,1-3.914-1.7q-5.889-4.927-11.773-9.858a1.085,1.085,0,0,1-.177-1.6,1.229,1.229,0,0,1,1.211-.346c1.255.157,13.553,1.685,14.8,1.831a8.088,8.088,0,0,1,4.354,1.872q5.785,4.844,11.584,9.671c.53.442.674.848.487,1.34a1.036,1.036,0,0,1-1.326.653c-.487-.105-.7.042-.87.493-.758,2.039-1.286,2.491-1.1,3.235A2.056,2.056,0,0,1,2010.841,468.108Z" transform="translate(-1982.584 -447.169)" fill="#86b1f2"/>
      </g>
      <g id="Group_15601" data-name="Group 15601" transform="translate(221.25 162.99)">
        <path id="Path_16671" data-name="Path 16671" d="M2284.428,1445.949l2.241,2.137a59.575,59.575,0,0,1,12.753,17.672l.343.727s5.869.519,6.689-4.788h0a88.686,88.686,0,0,1-12.887-18.926l-1.061-2.481Z" transform="translate(-2284.383 -1440.185)" fill="#466eb6"/>
        <path id="Path_16672" data-name="Path 16672" d="M2292.267,1439.735c.288.413-1.286,2.009-3.516,3.564s-4.282,2.5-4.57,2.087,1.3-2.027,3.526-3.583S2291.979,1439.322,2292.267,1439.735Z" transform="translate(-2284.147 -1439.637)" fill="#86b1f2"/>
        <path id="Path_16673" data-name="Path 16673" d="M2301.706,1440.3l-.008-.008s-4.467,3.781-6.309,4.168l.569.774a23.8,23.8,0,0,0,2.222-1.384C2300.384,1442.309,2301.948,1440.732,2301.706,1440.3Z" transform="translate(-2293.576 -1440.184)" fill="#355389"/>
        <g id="Group_15600" data-name="Group 15600" transform="translate(2.705 11.093)">
          <path id="Path_16674" data-name="Path 16674" d="M2345.984,1508.449c.008.652-.242,3.465-4.923,4.639q.462.63.908,1.27c2.963-.876,4.3-2.4,4.895-3.556.094-.183.209-.429.285-.619Q2346.556,1509.323,2345.984,1508.449Z" transform="translate(-2334.592 -1508.449)" fill="#b75742"/>
          <path id="Path_16675" data-name="Path 16675" d="M2307.819,1530.789l-6.889-.246,1.633,1.385-.975,1.77,6.521-1.662Z" transform="translate(-2300.929 -1526.981)" fill="#b75742"/>
          <path id="Path_16676" data-name="Path 16676" d="M2334.825,1542.01l-2.448,4.264,1.722-.656.663,1.354,1.15-4.485Z" transform="translate(-2327.307 -1536.599)" fill="#b75742"/>
          <path id="Path_16677" data-name="Path 16677" d="M2341.1,1525.665a2.264,2.264,0,1,1,2.031-2.412A2.23,2.23,0,0,1,2341.1,1525.665Z" transform="translate(-2332.648 -1519.098)" fill="#f47458"/>
        </g>
      </g>
      <g id="Group_15603" data-name="Group 15603" transform="translate(232.003 60.795)">
        <path id="Path_16678" data-name="Path 16678" d="M2365.88,828.808l-14.508-12.947c-.943-.841-.55-2.572.75-3.309L2363.7,806a1.809,1.809,0,0,1,2.114.1l14.509,12.947c.943.841.55,2.572-.75,3.309l-11.58,6.557A1.811,1.811,0,0,1,2365.88,828.808Z" transform="translate(-2350.852 -805.706)" fill="#9bc1f9"/>
        <g id="Group_15602" data-name="Group 15602" transform="translate(13.127 1.912)">
          <path id="Path_16679" data-name="Path 16679" d="M2433.494,828.46l-1.209-9.947a.892.892,0,0,1,.619-.909.576.576,0,0,1,.788.471l1.114,9.153,11,2.66a.607.607,0,0,1,.369.864.852.852,0,0,1-.931.549Z" transform="translate(-2432.279 -817.569)" fill="#fff"/>
        </g>
      </g>
      <g id="Group_15604" data-name="Group 15604" transform="translate(0 208.324)">
        <path id="Path_16680" data-name="Path 16680" d="M913.1,1720.853a1.528,1.528,0,0,0-1.406,1.627c0,.9.629,1.627,1.574.535h285.76c.366,0,.663-.48.665-1.074h0c0-.6-.3-1.088-.665-1.088Z" transform="translate(-911.697 -1720.853)" fill="#184655"/>
      </g>
      <path id="Path_16681" data-name="Path 16681" d="M1247.06,602.494l1.5,2.967,3.388-.11,1.445,3.445,3.573-1.23,1.807,3.823,3.429-.727,2.34,3.394-1.285.886-1.749-2.538-3.619.767-1.737-3.675-3.633,1.25-1.595-3.8-3.309.107-1.39-2.75-2.158.525-.369-1.516Z" transform="translate(-1190.178 -574.458)" fill="#f7cc7f"/>
      <path id="Path_16682" data-name="Path 16682" d="M2379.708,1053.556l3.08,1.252,2.482-2.309,3.352,1.647,1.886-3.274,3.875,1.7,2.108-2.8,3.993,1.022-.386,1.511-2.987-.764-2.225,2.955-3.723-1.63-1.917,3.329-3.7-1.818-2.425,2.254-2.854-1.16-1.282,1.814-1.274-.9Z" transform="translate(-2141.378 -949.628)" fill="#50bfa5"/>
    </g>
    <circle id="Ellipse_1082" data-name="Ellipse 1082" cx="3.227" cy="3.227" r="3.227" transform="translate(59.019 211.089)" fill="#fcba3d"/>
    <circle id="Ellipse_1089" data-name="Ellipse 1089" cx="3.227" cy="3.227" r="3.227" transform="translate(193.622 157.616)" fill="#fcba3d"/>
    <ellipse id="Ellipse_1088" data-name="Ellipse 1088" cx="4" cy="3" rx="4" ry="3" transform="translate(236.808 244.066)" fill="#ffb1b1"/>
    <circle id="Ellipse_1083" data-name="Ellipse 1083" cx="1.383" cy="1.383" r="1.383" transform="translate(57.175 173.289)" fill="#fcba3d"/>
    <ellipse id="Ellipse_1084" data-name="Ellipse 1084" cx="1.5" cy="1" rx="1.5" ry="1" transform="translate(65.808 158.066)" fill="#fcba3d"/>
    <ellipse id="Ellipse_1087" data-name="Ellipse 1087" cx="0.5" cy="1.5" rx="0.5" ry="1.5" transform="translate(255.808 160.066)" fill="#fcba3d"/>
    <circle id="Ellipse_1092" data-name="Ellipse 1092" cx="2.5" cy="2.5" r="2.5" transform="translate(196.808 191.066)" fill="#fcb1b1"/>
    <circle id="Ellipse_1090" data-name="Ellipse 1090" cx="1.383" cy="1.383" r="1.383" transform="translate(272.909 170.524)" fill="#fcba3d"/>
    <ellipse id="Ellipse_1085" data-name="Ellipse 1085" cx="2" cy="1.5" rx="2" ry="1.5" transform="translate(126.808 150.066)" fill="#fcba3d"/>
    <ellipse id="Ellipse_1093" data-name="Ellipse 1093" cx="3.5" cy="2" rx="3.5" ry="2" transform="translate(112.808 190.066)" fill="#cca7ff"/>
    <ellipse id="Ellipse_1086" data-name="Ellipse 1086" cx="3.5" cy="3" rx="3.5" ry="3" transform="translate(215.808 131.066)" fill="#fcba3d"/>
    <circle id="Ellipse_1091" data-name="Ellipse 1091" cx="2.305" cy="2.305" r="2.305" transform="translate(239.719 224.918)" fill="#fcba3d"/>
  </g>
</svg>
