<svg xmlns="http://www.w3.org/2000/svg" width="165.532" height="252.49" viewBox="0 0 165.532 252.49">
  <path id="Path_31951" data-name="Path 31951" d="M1208.766-702.578H1063.234a10,10,0,0,0-10,10v232.49a10,10,0,0,0,10,10h145.532a10,10,0,0,0,10-10v-232.49A10,10,0,0,0,1208.766-702.578Zm-73.032,28.633a48.5,48.5,0,0,1,48.5,48.5,48.5,48.5,0,0,1-48.5,48.5,48.5,48.5,0,0,1-48.5-48.5A48.5,48.5,0,0,1,1135.734-673.945Zm-48.5,125h97v7h-97Zm0,16h97v7h-97Zm86.5,52.97h-75.124a12.287,12.287,0,0,1-12.316-12.256,12.286,12.286,0,0,1,12.131-12.315h75.124a12.286,12.286,0,0,1,12.316,12.256A12.287,12.287,0,0,1,1173.736-479.975Z" transform="translate(-1053.234 702.578)" fill="#fff"/>
</svg>
