<svg id="Group_59074" data-name="Group 59074" xmlns="http://www.w3.org/2000/svg" xmlns:xlink="http://www.w3.org/1999/xlink" width="28.209" height="16.132" viewBox="0 0 28.209 16.132">
  <defs>
    <clipPath id="clip-path">
      <rect id="Rectangle_6549" data-name="Rectangle 6549" width="28.209" height="16.132" fill="#f9aa14"/>
    </clipPath>
  </defs>
  <g id="Group_59073" data-name="Group 59073" clip-path="url(#clip-path)">
    <path id="Path_43275" data-name="Path 43275" d="M7.333,6.171a10.483,10.483,0,0,0-3.648,6.453,1.864,1.864,0,0,1-2.132,1.611A1.875,1.875,0,0,1,.029,12,14.106,14.106,0,0,1,4.948,3.339a14.153,14.153,0,0,1,18.359.049L20.325,5.743a10.527,10.527,0,0,0-12.992.428" transform="translate(0 -0.001)" fill="#f9aa14"/>
    <path id="Path_43276" data-name="Path 43276" d="M336.642,90.974a1.909,1.909,0,1,1-2.621-2.717l12.463-9.8Z" transform="translate(-321.016 -75.587)" fill="#fff"/>
    <path id="Path_43277" data-name="Path 43277" d="M618.782,144.931a10.369,10.369,0,0,0-1.913-4.6l2.352-2.981a14.1,14.1,0,0,1,3.234,7.157,1.836,1.836,0,0,1-1.593,2.053,1.862,1.862,0,0,1-2.08-1.633" transform="translate(-594.263 -132.322)" fill="#f9aa14"/>
  </g>
</svg>
