<svg xmlns="http://www.w3.org/2000/svg" xmlns:xlink="http://www.w3.org/1999/xlink" width="78.01" height="54.768" viewBox="0 0 78.01 54.768">
  <defs>
    <radialGradient id="radial-gradient" cx="0.76" cy="-1.808" r="0.279" gradientUnits="objectBoundingBox">
      <stop offset="0" stop-color="#ffe6cc"/>
      <stop offset="0.235" stop-color="#fde1c1"/>
      <stop offset="0.638" stop-color="#f9d5a6"/>
      <stop offset="1" stop-color="#f6c988"/>
    </radialGradient>
    <linearGradient id="linear-gradient" x1="-123.339" y1="87.508" x2="-123.202" y2="87.508" gradientUnits="objectBoundingBox">
      <stop offset="0" stop-color="#87d40b"/>
      <stop offset="0.369" stop-color="#65c607"/>
      <stop offset="1" stop-color="#25ad00"/>
    </linearGradient>
    <linearGradient id="linear-gradient-2" x1="-156.232" y1="85.412" x2="-156.062" y2="85.412" gradientUnits="objectBoundingBox">
      <stop offset="0" stop-color="#1d8a00"/>
      <stop offset="0.605" stop-color="#56aa06"/>
      <stop offset="1" stop-color="#78bd0a"/>
    </linearGradient>
    <linearGradient id="linear-gradient-3" x1="-327.536" y1="588.742" x2="-327.471" y2="589.07" gradientUnits="objectBoundingBox">
      <stop offset="0" stop-color="#44424a"/>
      <stop offset="1" stop-color="#28262b"/>
    </linearGradient>
    <radialGradient id="radial-gradient-2" cx="-2.716" cy="2.906" r="0.283" xlink:href="#radial-gradient"/>
    <linearGradient id="linear-gradient-4" x1="-90.663" y1="85.974" x2="-90.595" y2="85.974" gradientUnits="objectBoundingBox">
      <stop offset="0" stop-color="#ff81ad"/>
      <stop offset="0.264" stop-color="#ff77a6"/>
      <stop offset="0.697" stop-color="#ff5f94"/>
      <stop offset="1" stop-color="#ff4a85"/>
    </linearGradient>
    <linearGradient id="linear-gradient-5" x1="-98.526" y1="89.321" x2="-98.467" y2="89.321" gradientUnits="objectBoundingBox">
      <stop offset="0" stop-color="#ff3074"/>
      <stop offset="1" stop-color="#e3074e"/>
    </linearGradient>
    <linearGradient id="linear-gradient-6" x1="-339.371" y1="577.353" x2="-339.305" y2="577.666" xlink:href="#linear-gradient-3"/>
    <radialGradient id="radial-gradient-3" cx="0.534" cy="0.372" r="0.281" xlink:href="#radial-gradient"/>
    <linearGradient id="linear-gradient-7" x1="-203.809" y1="124.718" x2="-203.394" y2="124.718" gradientUnits="objectBoundingBox">
      <stop offset="0" stop-color="#f9b700"/>
      <stop offset="0.501" stop-color="#f9b100"/>
      <stop offset="0.994" stop-color="#f9a600"/>
    </linearGradient>
    <linearGradient id="linear-gradient-8" x1="-261.616" y1="124.758" x2="-261.041" y2="124.758" gradientUnits="objectBoundingBox">
      <stop offset="0" stop-color="#f99a00"/>
      <stop offset="0.501" stop-color="#f99400"/>
      <stop offset="0.994" stop-color="#f98900"/>
    </linearGradient>
    <linearGradient id="linear-gradient-9" x1="-334.711" y1="572.727" x2="-334.643" y2="573.04" xlink:href="#linear-gradient-3"/>
    <radialGradient id="radial-gradient-4" cx="-6.27" cy="-55.947" r="1.204" gradientUnits="objectBoundingBox">
      <stop offset="0" stop-color="#8b87a1"/>
      <stop offset="0.165" stop-color="#8d89a3" stop-opacity="0.976"/>
      <stop offset="0.323" stop-color="#9692a9" stop-opacity="0.906"/>
      <stop offset="0.478" stop-color="#a3a0b5" stop-opacity="0.784"/>
      <stop offset="0.63" stop-color="#b7b4c4" stop-opacity="0.616"/>
      <stop offset="0.782" stop-color="#d0ced9" stop-opacity="0.4"/>
      <stop offset="0.931" stop-color="#eeeef1" stop-opacity="0.137"/>
      <stop offset="1" stop-color="#fff" stop-opacity="0"/>
    </radialGradient>
    <radialGradient id="radial-gradient-5" cx="0.766" cy="0.735" r="0.414" gradientUnits="objectBoundingBox">
      <stop offset="0" stop-color="#a091ff"/>
      <stop offset="0.197" stop-color="#9789ee"/>
      <stop offset="0.585" stop-color="#8174c3"/>
      <stop offset="1" stop-color="#665b8f"/>
    </radialGradient>
    <radialGradient id="radial-gradient-6" cx="0.5" cy="0.5" r="3.658" gradientUnits="objectBoundingBox">
      <stop offset="0" stop-color="#a091ff"/>
      <stop offset="1" stop-color="#9d8ffa"/>
    </radialGradient>
    <radialGradient id="radial-gradient-7" cx="0.5" cy="0.5" r="4.805" gradientUnits="objectBoundingBox">
      <stop offset="0" stop-color="#7769d1"/>
      <stop offset="0.251" stop-color="#6e60c0"/>
      <stop offset="0.743" stop-color="#594c95"/>
      <stop offset="1" stop-color="#4d407d"/>
    </radialGradient>
    <radialGradient id="radial-gradient-8" cx="0.506" cy="0.423" r="1.022" xlink:href="#radial-gradient-7"/>
    <linearGradient id="linear-gradient-10" x1="-17.276" y1="153.499" x2="-17.244" y2="153.499" gradientUnits="objectBoundingBox">
      <stop offset="0" stop-color="#f6c988"/>
      <stop offset="0.362" stop-color="#f9d5a6"/>
      <stop offset="0.765" stop-color="#fde1c1"/>
      <stop offset="1" stop-color="#ffe6cc"/>
    </linearGradient>
    <linearGradient id="linear-gradient-11" x1="-11.647" y1="106.601" x2="-11.657" y2="106.501" gradientUnits="objectBoundingBox">
      <stop offset="0" stop-color="#b3002c"/>
      <stop offset="0.176" stop-color="#bd0b37"/>
      <stop offset="0.493" stop-color="#da2b55"/>
      <stop offset="0.707" stop-color="#f2446e"/>
      <stop offset="0.724" stop-color="#ef406b"/>
      <stop offset="0.898" stop-color="#dd2552"/>
      <stop offset="1" stop-color="#d61b49"/>
    </linearGradient>
    <linearGradient id="linear-gradient-12" x1="-36.051" y1="130.272" x2="-36.079" y2="130.224" gradientUnits="objectBoundingBox">
      <stop offset="0" stop-color="#3f7d53"/>
      <stop offset="1" stop-color="#356946"/>
    </linearGradient>
    <linearGradient id="linear-gradient-13" x1="-11.685" y1="233.595" x2="-11.694" y2="233.203" gradientUnits="objectBoundingBox">
      <stop offset="0" stop-color="#2c573a"/>
      <stop offset="1" stop-color="#2c573a"/>
    </linearGradient>
    <linearGradient id="linear-gradient-14" x1="-23.549" y1="176.472" x2="-23.506" y2="176.472" xlink:href="#linear-gradient-10"/>
    <linearGradient id="linear-gradient-15" x1="-15.684" y1="128.618" x2="-15.698" y2="128.511" xlink:href="#linear-gradient-11"/>
    <linearGradient id="linear-gradient-16" x1="-44.012" y1="137.064" x2="-44.064" y2="137.006" gradientUnits="objectBoundingBox">
      <stop offset="0" stop-color="#80381b"/>
      <stop offset="1" stop-color="#bd472f"/>
    </linearGradient>
    <linearGradient id="linear-gradient-17" x1="-15.782" y1="428.936" x2="-15.794" y2="428.047" xlink:href="#linear-gradient-16"/>
    <linearGradient id="linear-gradient-18" x1="-19.392" y1="229.547" x2="-19.357" y2="229.547" xlink:href="#linear-gradient-10"/>
    <linearGradient id="linear-gradient-19" x1="-12.801" y1="159.84" x2="-12.812" y2="159.636" xlink:href="#linear-gradient-11"/>
    <linearGradient id="linear-gradient-20" x1="-37.303" y1="183.968" x2="-37.341" y2="183.866" gradientUnits="objectBoundingBox">
      <stop offset="0" stop-color="#804f1b"/>
      <stop offset="1" stop-color="#bd782f"/>
    </linearGradient>
    <linearGradient id="linear-gradient-21" x1="-12.894" y1="427.683" x2="-12.904" y2="426.568" xlink:href="#linear-gradient-20"/>
    <linearGradient id="linear-gradient-22" x1="-19.811" y1="107.747" x2="-19.744" y2="107.747" xlink:href="#linear-gradient-3"/>
    <linearGradient id="linear-gradient-23" x1="-11.025" y1="209.912" x2="-11.025" y2="210.109" xlink:href="#linear-gradient-3"/>
    <radialGradient id="radial-gradient-9" cx="0.934" cy="-0.974" r="1.077" gradientUnits="objectBoundingBox">
      <stop offset="0" stop-color="#44424a"/>
      <stop offset="0.574" stop-color="#312f35"/>
      <stop offset="1" stop-color="#28262b"/>
    </radialGradient>
    <linearGradient id="linear-gradient-24" x1="-141.002" y1="275.454" x2="-140.74" y2="275.454" gradientUnits="objectBoundingBox">
      <stop offset="0" stop-color="#db9a09"/>
      <stop offset="1" stop-color="#d8930a"/>
    </linearGradient>
    <linearGradient id="linear-gradient-25" x1="-121.229" y1="148.736" x2="-121.006" y2="148.736" gradientUnits="objectBoundingBox">
      <stop offset="0.165" stop-color="#ffe600"/>
      <stop offset="1" stop-color="#d8930a"/>
    </linearGradient>
    <linearGradient id="linear-gradient-26" x1="-454.321" y1="5426.018" x2="-453.273" y2="5426.018" gradientUnits="objectBoundingBox">
      <stop offset="0" stop-color="#e29700"/>
      <stop offset="1" stop-color="#d8930a"/>
    </linearGradient>
    <linearGradient id="linear-gradient-27" x1="-69.371" y1="200.028" x2="-69.321" y2="200.139" xlink:href="#linear-gradient-11"/>
    <linearGradient id="linear-gradient-28" x1="-60.417" y1="245.357" x2="-60.378" y2="245.522" xlink:href="#linear-gradient-11"/>
    <linearGradient id="linear-gradient-29" x1="-74.475" y1="184.988" x2="-74.556" y2="184.885" gradientUnits="objectBoundingBox">
      <stop offset="0" stop-color="#e8d0b7"/>
      <stop offset="0.434" stop-color="#e3c8ac"/>
      <stop offset="0.986" stop-color="#dbba99"/>
    </linearGradient>
    <linearGradient id="linear-gradient-30" x1="-75.92" y1="226.698" x2="-75.894" y2="226.779" gradientUnits="objectBoundingBox">
      <stop offset="0.014" stop-color="#e8d0b7"/>
      <stop offset="0.105" stop-color="#e5ccb1"/>
      <stop offset="0.669" stop-color="#d6b796"/>
      <stop offset="0.997" stop-color="#d1b08c"/>
    </linearGradient>
    <linearGradient id="linear-gradient-31" x1="-11.931" y1="85.524" x2="-11.93" y2="85.542" gradientUnits="objectBoundingBox">
      <stop offset="0.014" stop-color="#e8d9ca"/>
      <stop offset="0.226" stop-color="#f5e7d8"/>
      <stop offset="0.444" stop-color="#fff1e3"/>
      <stop offset="0.719" stop-color="#f1e2d4"/>
      <stop offset="1" stop-color="#e8d9ca"/>
    </linearGradient>
    <linearGradient id="linear-gradient-32" x1="-11.504" y1="131.102" x2="-11.503" y2="131.134" gradientUnits="objectBoundingBox">
      <stop offset="0" stop-color="#fff"/>
      <stop offset="0.266" stop-color="#fbf8f6"/>
      <stop offset="0.693" stop-color="#f1e8de"/>
      <stop offset="1" stop-color="#e8d9ca"/>
    </linearGradient>
    <linearGradient id="linear-gradient-33" x1="-64.08" y1="188.955" x2="-64.037" y2="189.054" xlink:href="#linear-gradient-11"/>
  </defs>
  <g id="Group_52457" data-name="Group 52457" transform="translate(-524.467 792.125)">
    <g id="Group_52416" data-name="Group 52416">
      <g id="Group_52415" data-name="Group 52415">
        <g id="Group_52901" data-name="Group 52901">
          <g id="Group_52414" data-name="Group 52414">
            <g id="Group_52411" data-name="Group 52411">
              <path id="Path_36349" data-name="Path 36349" d="M584.329-785.143l.49-4.72a.909.909,0,0,0,1.115-.3c.7,1.959,1.836,4.519,1.836,4.519a1.643,1.643,0,0,1-.7,1.2,3.03,3.03,0,0,1-2.207.054A1.79,1.79,0,0,1,584.329-785.143Z" fill="url(#radial-gradient)"/>
              <path id="Path_36350" data-name="Path 36350" d="M586.581-767.135l-2.252-18.009a1.381,1.381,0,0,0,1.946.173,1.4,1.4,0,0,0,.221-.234c.812,5.571,2.131,18.3,2.131,18.3Z" fill="url(#linear-gradient)"/>
              <path id="Path_36351" data-name="Path 36351" d="M587.766-785.645l2.033,18.15-1.174.591-2.131-18.3S587.291-784.451,587.766-785.645Z" fill="url(#linear-gradient-2)"/>
              <path id="Path_36352" data-name="Path 36352" d="M584.821-789.864a12.447,12.447,0,0,1,.25-2.261,10.078,10.078,0,0,1,.865,1.96s.206,1.371-.236,1.13A3.484,3.484,0,0,1,584.821-789.864Z" fill="url(#linear-gradient-3)"/>
            </g>
            <g id="Group_52412" data-name="Group 52412">
              <path id="Path_36353" data-name="Path 36353" d="M595.764-784.931l2.067-4.271a.908.908,0,0,0,1.15.1c0,2.082.188,4.874.188,4.874a1.654,1.654,0,0,1-1.069.886,3.024,3.024,0,0,1-2.094-.7A1.793,1.793,0,0,1,595.764-784.931Z" fill="url(#radial-gradient-2)"/>
              <path id="Path_36354" data-name="Path 36354" d="M591.755-767.231l4.009-17.7a1.381,1.381,0,0,0,1.77.825,1.4,1.4,0,0,0,.289-.145c-1.133,5.515-4.224,17.934-4.224,17.934Z" fill="url(#linear-gradient-4)"/>
              <path id="Path_36355" data-name="Path 36355" d="M599.169-784.236,594.9-766.478l-1.3.156,4.22-17.929S598.317-783.275,599.169-784.236Z" fill="url(#linear-gradient-5)"/>
              <path id="Path_36356" data-name="Path 36356" d="M597.831-789.206a12.367,12.367,0,0,1,1-2.041,10,10,0,0,1,.146,2.137s-.273,1.36-.607.982A3.487,3.487,0,0,1,597.831-789.206Z" fill="url(#linear-gradient-6)"/>
            </g>
            <g id="Group_52413" data-name="Group 52413">
              <path id="Path_36357" data-name="Path 36357" d="M589.6-779.466l1.165-4.6a.908.908,0,0,0,1.146-.137c.415,2.04,1.165,4.737,1.165,4.737s-.217.866-.869,1.083a3.025,3.025,0,0,1-2.191-.264A1.8,1.8,0,0,1,589.6-779.466Z" fill="url(#radial-gradient-3)"/>
              <path id="Path_36358" data-name="Path 36358" d="M589.349-767.043l.252-12.423a1.382,1.382,0,0,0,1.9.453,1.412,1.412,0,0,0,.254-.2c0,5.63-.415,12.7-.415,12.7Z" fill="url(#linear-gradient-7)"/>
              <path id="Path_36359" data-name="Path 36359" d="M593.077-779.466l-.491,12.532-1.247.416.415-12.7S592.435-778.358,593.077-779.466Z" fill="url(#linear-gradient-8)"/>
              <path id="Path_36360" data-name="Path 36360" d="M590.766-784.066a12.356,12.356,0,0,1,.573-2.2,10.031,10.031,0,0,1,.573,2.064s.006,1.387-.4,1.084A3.486,3.486,0,0,1,590.766-784.066Z" fill="url(#linear-gradient-9)"/>
            </g>
          </g>
        </g>
      </g>
      <g id="Group_52410" data-name="Group 52410">
        <path id="Path_36342" data-name="Path 36342" d="M585.52-754.689c5.185-.69,12.022-.217,15.268,1.055s1.673,2.863-3.513,3.553-12.022.217-15.268-1.055S580.334-754,585.52-754.689Z" opacity="0.7" fill="url(#radial-gradient-4)" style="mix-blend-mode: normal;isolation: isolate"/>
        <g id="Group_52409" data-name="Group 52409">
          <g id="Group_52408" data-name="Group 52408">
            <path id="Path_36343" data-name="Path 36343" d="M597.74-770.886H584.086a57.427,57.427,0,0,0-.63,6.222c-.056,1.078.833,2.255.837,3.5,0,1.151-.883,2.36-.8,3.6a46.11,46.11,0,0,0,.594,4.983c0,.732,3.056,1.325,6.826,1.325s6.826-.593,6.826-1.325h0a45.563,45.563,0,0,0,.582-4.8c.085-1.223-.8-2.417-.789-3.558.009-1.327.9-2.581.837-3.723A57.192,57.192,0,0,0,597.74-770.886Z" fill="url(#radial-gradient-5)"/>
            <path id="Path_36344" data-name="Path 36344" d="M597.736-770.889c0,.366-3.056.662-6.826.662s-6.826-.3-6.826-.662,3.056-.662,6.826-.662S597.736-771.255,597.736-770.889Z" fill="url(#radial-gradient-6)"/>
            <path id="Path_36345" data-name="Path 36345" d="M596.966-770.968c0,.247-2.713.448-6.06.448s-6.06-.2-6.06-.448,2.713-.448,6.06-.448S596.966-771.216,596.966-770.968Z" fill="url(#radial-gradient-7)"/>
          </g>
          <path id="Path_36346" data-name="Path 36346" d="M584.293-761.167c0,1.034-.709,2.114-.8,3.22,0,0,1.514.785,7.415.785s7.4-.63,7.4-.63h0c-.095-1.081-.789-2.137-.782-3.151.008-1.206.74-2.352.829-3.409-.138.081-1.654.77-7.038.77-5.645,0-7.868-1.084-7.868-1.084v.215C583.514-763.432,584.289-762.329,584.293-761.167Z" fill="url(#radial-gradient-8)"/>
          <path id="Path_36347" data-name="Path 36347" d="M591.338-766.175a24.238,24.238,0,0,1-7.709-.955q-.038.425-.073.888a23.823,23.823,0,0,0,7.782.981c4.367,0,6.269-.438,6.955-.667q-.032-.462-.069-.891A24.736,24.736,0,0,1,591.338-766.175Z" fill="#fff" opacity="0.31" style="mix-blend-mode: normal;isolation: isolate"/>
          <path id="Path_36348" data-name="Path 36348" d="M591.337-754.593a25.81,25.81,0,0,0,6.782-.613c.036-.315.071-.63.1-.944a24.775,24.775,0,0,1-6.882.643,23.936,23.936,0,0,1-7.761-.974q.041.471.092.945A24.449,24.449,0,0,0,591.337-754.593Z" fill="#fff" opacity="0.31" style="mix-blend-mode: normal;isolation: isolate"/>
        </g>
      </g>
    </g>
    <g id="Group_52454" data-name="Group 52454">
      <g id="Group_52429" data-name="Group 52429">
        <g id="Group_52420" data-name="Group 52420">
          <path id="Path_36362" data-name="Path 36362" d="M541.943-755.026a15.431,15.431,0,0,1,.241,4.3,10.4,10.4,0,0,1-.673,2.976s26.218,2.846,27.96,3.021,2.2.687,2.773-1.649.512-6.038-.483-6.88S541.943-755.026,541.943-755.026Z" fill="url(#linear-gradient-10)"/>
          <path id="Path_36363" data-name="Path 36363" d="M571.088-752.07s.207,2.713.127,4-.054,3.4-.054,3.4a1.807,1.807,0,0,0,.715-1.483C571.969-747.295,572.061-751.609,571.088-752.07Z" fill="#683f23"/>
          <g id="Group_52418" data-name="Group 52418">
            <path id="Path_36364" data-name="Path 36364" d="M561.54-759.149l-20.785,3.482s28.53,2.506,29.738,2.753,2.073,5.909.993,8.652c5.515-1.515,14.618-6.453,14.618-6.453a14.066,14.066,0,0,0,.342-5.756C585.3-757.767,561.54-759.149,561.54-759.149Z" fill="url(#linear-gradient-11)"/>
            <path id="Path_36365" data-name="Path 36365" d="M586.432-756.482l.013.011a10.676,10.676,0,0,1-.342,5.756s-9.1,4.938-14.618,6.453a12.784,12.784,0,0,0-.27-7.809Z" fill="url(#linear-gradient-12)"/>
            <path id="Path_36366" data-name="Path 36366" d="M570.5-752.919c-1.208-.247-29.738-2.753-29.738-2.753l20.785-3.482s23.622,1.374,24.892,2.667l-15.217,4.411C571-752.55,570.755-752.86,570.5-752.919Z" fill="url(#linear-gradient-13)"/>
            <g id="Group_52417" data-name="Group 52417">
              <path id="Path_36367" data-name="Path 36367" d="M569.277-744.257c2.149.128,2.272,0,2.37-.1.617-.63.592-1.825.549-3.806-.008-.354-.016-.732-.021-1.135-.033-2.676-.955-3.441-1.506-3.9-.377-.313-2.346-.473-7.088-.788-1.637-.109-3.329-.222-4.814-.349-4.559-.391-17.879-1.327-18.013-1.336l-.046.685c.134.009,13.45.945,18.005,1.336,1.49.128,3.185.241,4.824.35a47.8,47.8,0,0,1,6.785.668c.484.4,1.227,1.018,1.255,3.354,0,.406.013.786.021,1.142.035,1.607.06,2.782-.308,3.229-1.331.3-18.94-1.684-30.57-3.1l-.073.682c.075.009,7.628.929,15.157,1.761C563.315-744.733,567.223-744.379,569.277-744.257Z" fill="#26593c"/>
            </g>
          </g>
          <g id="Group_52419" data-name="Group 52419">
            <path id="Path_36368" data-name="Path 36368" d="M570.3-751.923l-3.42-.311-3.421-.294-6.842-.587-6.845-.548-3.423-.274-3.424-.256,3.42.312,3.421.294,6.842.586,6.845.548,3.422.274Z" fill="#dbaa82"/>
            <path id="Path_36369" data-name="Path 36369" d="M570.257-751.161l-3.42-.311-3.421-.294-6.842-.587-6.845-.548-3.423-.274-3.424-.256,3.42.312,3.421.294,6.842.586,6.845.548,3.423.274Z" fill="#dbaa82"/>
            <path id="Path_36370" data-name="Path 36370" d="M570.212-750.4l-3.42-.311L563.371-751l-6.842-.587-6.845-.549-3.423-.274-3.424-.256,3.42.312,3.421.294,6.842.587,6.845.548,3.423.274Z" fill="#dbaa82"/>
            <path id="Path_36371" data-name="Path 36371" d="M570.167-749.638l-3.42-.312-3.421-.294-6.842-.587-6.845-.549-3.423-.274-3.424-.256,3.42.312,3.421.294,6.842.587,6.845.548,3.423.274Z" fill="#dbaa82"/>
            <path id="Path_36372" data-name="Path 36372" d="M570.122-748.876l-3.42-.311-3.421-.294-6.842-.587-6.845-.549-3.423-.274-3.424-.256,3.42.312,3.421.294,6.842.586,6.845.548,3.423.274Z" fill="#dbaa82"/>
            <path id="Path_36373" data-name="Path 36373" d="M570.585-748.072l-3.483-.317-3.485-.3-6.969-.6-6.972-.559-3.486-.279-3.487-.261,3.483.317,3.485.3,6.969.6,6.972.559,3.486.279Z" fill="#dbaa82"/>
            <path id="Path_36374" data-name="Path 36374" d="M570.618-747.3l-3.492-.318-3.494-.3-6.988-.6-6.991-.561-3.5-.28-3.5-.262,3.492.318,3.494.3,6.988.6,6.991.561,3.5.28Z" fill="#dbaa82"/>
            <path id="Path_36375" data-name="Path 36375" d="M570.879-746.414l-3.531-.333-3.533-.315-7.065-.63-7.068-.592-3.534-.3-3.536-.278,3.531.333,3.533.315,7.065.63,7.068.592,3.534.3Z" fill="#dbaa82"/>
            <path id="Path_36376" data-name="Path 36376" d="M570.82-745.423l-3.529-.362-3.531-.345-7.062-.688-7.065-.65-3.533-.325-3.534-.307,3.529.362,3.531.345,7.062.688,7.065.65,3.533.324Z" fill="#dbaa82"/>
          </g>
        </g>
        <g id="Group_52424" data-name="Group 52424">
          <path id="Path_36377" data-name="Path 36377" d="M581.092-761.885s-.458,4.9-.372,6.2a5.615,5.615,0,0,0,.372,1.891s-19.759.808-21.071.853-1.678.348-2-1.137-.114-7.314.668-7.8S581.092-761.885,581.092-761.885Z" fill="url(#linear-gradient-14)"/>
          <path id="Path_36378" data-name="Path 36378" d="M559.28-761.379a24.933,24.933,0,0,1,.056,3.14,15.192,15.192,0,0,1-.9,5.087,25.228,25.228,0,0,1,0-4.114A23.241,23.241,0,0,1,559.28-761.379Z" fill="#683f23"/>
          <g id="Group_52422" data-name="Group 52422">
            <path id="Path_36379" data-name="Path 36379" d="M566.6-765.2l15.409,2.957s-21.475.509-22.39.619-1.815,7.136-1.128,8.9c-4.063-1.155-10.659-8.1-10.659-8.1a8.638,8.638,0,0,1,0-3.622C548.749-765.218,566.6-765.2,566.6-765.2Z" fill="url(#linear-gradient-15)"/>
            <path id="Path_36380" data-name="Path 36380" d="M547.844-764.454l-.01.006a18.9,18.9,0,0,0,.01,8.2s6.587,2.368,10.649,3.524c-.537-1.378.19-7.7.843-8.755Z" fill="url(#linear-gradient-16)"/>
            <path id="Path_36381" data-name="Path 36381" d="M559.62-761.624c.915-.11,22.39-.619,22.39-.619L566.6-765.2s-17.75-.018-18.758.746l11.2,3.333C559.223-761.415,559.421-761.6,559.62-761.624Z" fill="url(#linear-gradient-17)"/>
            <g id="Group_52421" data-name="Group 52421">
              <path id="Path_36382" data-name="Path 36382" d="M560.145-752.642c-1.615,0-1.7-.083-1.77-.15-.434-.418-.362-1.167-.242-2.407.022-.221.045-.458.066-.711.144-1.677.169-5.413,1.08-5.856a29,29,0,0,1,5.563-.27c1.231-.007,2.5-.015,3.62-.04,3.432-.075,13.447-.166,13.548-.167v.431c-.1,0-10.113.092-13.542.167-1.121.025-2.4.032-3.628.04a44.115,44.115,0,0,0-5.33.206c-.648.4-.744,4.061-.869,5.525-.022.254-.045.492-.066.715-.1,1.007-.168,1.742.087,2.036.984.236,14.258-.35,23.029-.806l.024.43c-.057,0-5.753.3-11.429.54C564.631-752.718,561.689-752.642,560.145-752.642Z" fill="#c65e5c"/>
            </g>
          </g>
          <g id="Group_52423" data-name="Group 52423">
            <path id="Path_36383" data-name="Path 36383" d="M559.719-760.995l2.575-.068,2.575-.057,5.15-.113,5.15-.089,2.575-.044,2.575-.033-2.575.068-2.575.057-5.15.113-5.15.089-2.575.044Z" fill="#dbaa82"/>
            <path id="Path_36384" data-name="Path 36384" d="M559.719-760.515l2.575-.068,2.575-.057,5.15-.113,5.15-.089,2.575-.044,2.575-.033-2.575.068-2.575.057-5.15.113-5.15.089-2.575.044Z" fill="#dbaa82"/>
            <path id="Path_36385" data-name="Path 36385" d="M559.719-759.947l2.575-.068,2.575-.057,5.15-.113,5.15-.089,2.575-.044,2.575-.033-2.575.068-2.575.057-5.15.113-5.15.089-2.575.044Z" fill="#dbaa82"/>
            <path id="Path_36386" data-name="Path 36386" d="M559.719-759.372l2.575-.068,2.575-.057,5.15-.113,5.15-.089,2.575-.044,2.575-.033-2.575.068-2.575.057-5.15.113-5.15.089-2.575.044Z" fill="#dbaa82"/>
            <path id="Path_36387" data-name="Path 36387" d="M559.719-758.808l2.575-.068,2.575-.057,5.15-.113,5.15-.089,2.575-.044,2.575-.033-2.575.068-2.575.057-5.15.113-5.15.089-2.575.044Z" fill="#dbaa82"/>
            <path id="Path_36388" data-name="Path 36388" d="M559.719-758.239l2.575-.068,2.575-.057,5.15-.113,5.15-.089,2.575-.044,2.575-.033-2.575.068-2.575.057-5.15.113-5.15.089-2.575.044Z" fill="#dbaa82"/>
            <path id="Path_36389" data-name="Path 36389" d="M559.719-757.672l2.575-.068,2.575-.057,5.15-.113,5.15-.089,2.575-.044,2.575-.033-2.575.068-2.575.057-5.15.113-5.15.089-2.575.044Z" fill="#dbaa82"/>
            <path id="Path_36390" data-name="Path 36390" d="M559.719-757.1l2.575-.068,2.575-.057,5.15-.113,5.15-.089,2.575-.044,2.575-.033-2.575.068-2.575.057-5.15.113-5.15.089-2.575.044Z" fill="#dbaa82"/>
            <path id="Path_36391" data-name="Path 36391" d="M559.719-756.532l2.575-.068,2.575-.057,5.15-.113,5.15-.089,2.575-.044,2.575-.033-2.575.068-2.575.057-5.15.113-5.15.089-2.575.044Z" fill="#dbaa82"/>
            <path id="Path_36392" data-name="Path 36392" d="M559.719-756.049l2.575-.068,2.575-.057,5.15-.113,5.15-.089,2.575-.044,2.575-.033-2.575.068-2.575.057-5.15.113-5.15.089-2.575.044Z" fill="#dbaa82"/>
            <path id="Path_36393" data-name="Path 36393" d="M559.719-755.569l2.575-.068,2.575-.057,5.15-.113,5.15-.089,2.575-.044,2.575-.033-2.575.068-2.575.057-5.15.113-5.15.089-2.575.044Z" fill="#dbaa82"/>
            <path id="Path_36394" data-name="Path 36394" d="M559.335-755.082l2.622-.069,2.623-.058,5.245-.115,5.246-.091,2.623-.045,2.623-.034-2.622.069-2.622.058-5.245.115-5.246.091-2.623.045Z" fill="#dbaa82"/>
            <path id="Path_36395" data-name="Path 36395" d="M559.28-754.6l2.629-.069,2.63-.058,5.259-.115,5.26-.091,2.63-.045,2.63-.034-2.63.069-2.63.058-5.259.115-5.26.091-2.63.045Z" fill="#dbaa82"/>
            <path id="Path_36396" data-name="Path 36396" d="M559.038-754.056l2.659-.077,2.659-.066,5.319-.132,5.319-.108,2.66-.054,2.66-.042-2.659.077-2.659.066-5.319.132-5.319.108-2.66.054Z" fill="#dbaa82"/>
            <path id="Path_36397" data-name="Path 36397" d="M559.038-753.429l2.659-.1,2.659-.085,5.318-.169,5.319-.144,2.66-.072,2.66-.061-2.659.1-2.659.085-5.318.168-5.319.144-2.66.072Z" fill="#dbaa82"/>
          </g>
        </g>
        <g id="Group_52428" data-name="Group 52428">
          <path id="Path_36398" data-name="Path 36398" d="M584.651-765.568a10.809,10.809,0,0,0-.452,3.4,7.337,7.337,0,0,0,.452,2.39s-24.006,1.021-25.6,1.078-2.039.44-2.433-1.437-.139-4.808.811-5.428S584.651-765.568,584.651-765.568Z" fill="url(#linear-gradient-18)"/>
          <path id="Path_36399" data-name="Path 36399" d="M558.218-764.954a5.21,5.21,0,0,0-.357,1.722,23.359,23.359,0,0,1-.456,4.3,2.169,2.169,0,0,1-.473-1.654,13.907,13.907,0,0,1,.5-3.406A3.684,3.684,0,0,1,558.218-764.954Z" fill="#683f23"/>
          <g id="Group_52426" data-name="Group 52426">
            <path id="Path_36400" data-name="Path 36400" d="M567.055-768.591l18.711,2.571s-26.09.643-27.2.782-2.2,4.584-1.371,6.809c-4.936-1.46-13.069-4.3-13.069-4.3a9.755,9.755,0,0,1,0-4.577C545.237-768.28,567.055-768.591,567.055-768.591Z" fill="url(#linear-gradient-19)"/>
            <path id="Path_36401" data-name="Path 36401" d="M544.137-767.315l-.012.008a12.73,12.73,0,0,0,.012,5.925s8.121,1.492,13.057,2.952a8.954,8.954,0,0,1,.668-6.174Z" fill="url(#linear-gradient-20)"/>
            <path id="Path_36402" data-name="Path 36402" d="M558.564-765.238c1.112-.139,27.2-.782,27.2-.782L565.977-768.7s-20.617.422-21.842,1.387l13.724,2.711C558.082-764.974,558.323-765.208,558.564-765.238Z" fill="url(#linear-gradient-21)"/>
            <g id="Group_52425" data-name="Group 52425">
              <path id="Path_36403" data-name="Path 36403" d="M559.2-758.322c-1.962,0-2.067-.1-2.15-.189-.528-.528-.44-1.474-.294-3.041.026-.28.054-.579.08-.9.175-2.119,1.055-2.681,1.58-3.017.36-.23,2.16-.264,6.491-.291,1.495-.009,3.041-.019,4.4-.05,4.169-.1,16.337-.21,16.46-.211v.545c-.122,0-12.287.116-16.452.211-1.362.031-2.91.041-4.407.05a49.887,49.887,0,0,0-6.208.21c-.462.3-1.171.749-1.323,2.6-.026.321-.055.622-.081.9-.118,1.272-.2,2.2.106,2.573,1.2.3,17.322-.443,27.978-1.019l.029.544c-.069,0-6.99.377-13.885.682C564.652-758.418,561.077-758.322,559.2-758.322Z" fill="#ce8a4d"/>
            </g>
          </g>
          <g id="Group_52427" data-name="Group 52427">
            <path id="Path_36404" data-name="Path 36404" d="M558.682-764.444l3.128-.086,3.128-.072,6.256-.143,6.257-.112,3.128-.056,3.129-.042-3.128.086-3.128.072-6.256.143-6.257.112-3.128.056Z" fill="#dbaa82"/>
            <path id="Path_36405" data-name="Path 36405" d="M558.682-763.838l3.128-.086,3.128-.072,6.256-.143,6.257-.113,3.128-.056,3.129-.042-3.128.086-3.128.072-6.256.143-6.257.112-3.128.056Z" fill="#dbaa82"/>
            <path id="Path_36406" data-name="Path 36406" d="M558.682-763.232l3.128-.086,3.128-.072,6.256-.143,6.257-.113,3.128-.056,3.129-.042-3.128.086-3.128.072-6.256.143-6.257.112-3.128.056Z" fill="#dbaa82"/>
            <path id="Path_36407" data-name="Path 36407" d="M558.682-762.626l3.128-.086,3.128-.072,6.256-.143,6.257-.113,3.128-.056,3.129-.042-3.128.086-3.128.072-6.256.143-6.257.112-3.128.056Z" fill="#dbaa82"/>
            <path id="Path_36408" data-name="Path 36408" d="M558.682-762.021l3.128-.086,3.128-.072,6.256-.143,6.257-.112,3.128-.056,3.129-.042-3.128.086-3.128.076-6.256.143-6.257.112-3.128.056Z" fill="#dbaa82"/>
            <path id="Path_36409" data-name="Path 36409" d="M558.218-761.4l3.186-.087,3.186-.073,6.373-.145,6.373-.115,3.187-.057,3.187-.043-3.186.087-3.186.073-6.373.145-6.373.115-3.187.057Z" fill="#dbaa82"/>
            <path id="Path_36410" data-name="Path 36410" d="M558.149-760.8l3.194-.087,3.2-.073,6.39-.146,6.39-.115,3.2-.057,3.2-.043-3.2.087-3.2.073-6.389.145-6.39.115-3.2.057Z" fill="#dbaa82"/>
            <path id="Path_36411" data-name="Path 36411" d="M557.857-760.108l3.23-.1,3.231-.084,6.462-.167,6.462-.136,3.231-.068,3.232-.054-3.231.1-3.231.084-6.461.167-6.462.136-3.231.068Z" fill="#dbaa82"/>
            <path id="Path_36412" data-name="Path 36412" d="M557.857-759.318l3.23-.121,3.231-.107,6.461-.213,6.462-.183,3.231-.091,3.232-.077-3.23.121-3.231.107-6.462.213-6.462.182-3.231.091Z" fill="#dbaa82"/>
          </g>
        </g>
      </g>
      <g id="Group_52453" data-name="Group 52453">
        <g id="Group_52433" data-name="Group 52433">
          <path id="Path_36413" data-name="Path 36413" d="M551.264-779.849s1.608,4.1-.68,11.469c-.631,2.033,3.82,2.547,7.6,3.1a75.83,75.83,0,0,0,15.325-.083c3.4-.481,4-.965,4.061-1.505a20.578,20.578,0,0,0-.337-4.219,18.605,18.605,0,0,1,.087-8.478Z" fill="url(#linear-gradient-22)"/>
          <g id="Group_52432" data-name="Group 52432">
            <path id="Path_36415" data-name="Path 36415" d="M539.681-783.377l14.1,6a2.5,2.5,0,0,0,1.172.177l32.943-2.832c.116-.01.18-.561.07-.59l-17.8-4.4a2.265,2.265,0,0,0-.7-.077c-2.964.134-23.361.619-29.79,1.137C539.568-783.953,539.59-783.416,539.681-783.377Z" fill="#2c2d30"/>
            <path id="Path_36416" data-name="Path 36416" d="M539.688-783.837l14.1,6a2.5,2.5,0,0,0,1.172.177l32.943-2.832c.116-.01.133-.118.024-.148l-17.75-4.841a2.264,2.264,0,0,0-.7-.076c-2.964.134-23.312,1.062-29.74,1.58C539.625-783.97,539.6-783.876,539.688-783.837Z" fill="url(#linear-gradient-23)"/>
          </g>
        </g>
        <g id="Group_52452" data-name="Group 52452">
          <path id="Path_36417" data-name="Path 36417" d="M573.976-770.841h0c-.113.074-.663.137-.662,0,.035-3.244.351-8-.342-8.273-.557-.218-4.132-1.409-8.737-2.684-.13-.036-.753-.162-.717-.292s.717-.215.847-.179c.545.151,8.493,2.716,9.245,2.929.553.156.349,4.665.229,8.2C573.832-771,574.086-770.919,573.976-770.841Z" fill="#ffc33e"/>
          <path id="Path_36418" data-name="Path 36418" d="M565.482-782.084c-.025.394-.694.531-1.549.478s-1.574-.279-1.549-.672.76-.906,1.616-.853S565.506-782.478,565.482-782.084Z" fill="url(#radial-gradient-9)"/>
          <g id="Group_52451" data-name="Group 52451">
            <g id="Group_52450" data-name="Group 52450">
              <g id="Group_52434" data-name="Group 52434">
                <path id="Path_36419" data-name="Path 36419" d="M572.186-763.689a8.037,8.037,0,0,1,.111-1.725l2.43.081a5.756,5.756,0,0,1,.022.9,13.829,13.829,0,0,0,.561,4.526s-.531-.279-.942-2.863c.018.283.074,1.821.172,3.205a13.3,13.3,0,0,1-.624-3.36s-.022,2.076.046,3.6c0,0-.407-.592-.4-2.932a8.737,8.737,0,0,1-.491,2.639,11.209,11.209,0,0,0,.073-2.916,7.009,7.009,0,0,1-.851,2.758,7.414,7.414,0,0,0,.3-3.2c-.032.972-.524,2.927-1.083,3.3A9.069,9.069,0,0,0,572.186-763.689Z" fill="url(#linear-gradient-24)"/>
                <path id="Path_36420" data-name="Path 36420" d="M573.964-769.86s.709-.974,0-1.368a.68.68,0,0,0-.945.178.682.682,0,0,0-.092.572c.166.437.338.721.1,1.172A7.48,7.48,0,0,0,572-765.083a8.77,8.77,0,0,1-.781,4.259c.653-.4,1.223-2.464,1.257-3.492a7.124,7.124,0,0,1-.335,3.383,6.852,6.852,0,0,0,.987-2.917,10.713,10.713,0,0,1-.075,3.086c.4-.376.566-2.791.566-2.791,0,2.476.481,3.1.481,3.1-.086-1.617-.068-3.814-.068-3.814a12.97,12.97,0,0,0,.745,3.558c-.138-1.7-.214-3.624-.22-3.43.492,2.771,1.122,3.07,1.122,3.07a13.326,13.326,0,0,1-.676-4.792,5.788,5.788,0,0,0-.68-2.988C574.012-769.552,573.8-769.576,573.964-769.86Z" fill="url(#linear-gradient-25)"/>
                <path id="Path_36421" data-name="Path 36421" d="M573.982-769.482s.073-.338.016-.407c-.152-.185-.762-.127-.876-.057s-.018.383-.03.5A2.073,2.073,0,0,1,573.982-769.482Z" fill="url(#linear-gradient-26)"/>
              </g>
              <g id="Group_52435" data-name="Group 52435">
                <path id="Path_36422" data-name="Path 36422" d="M574.742-764.117a.8.8,0,0,0,0-.207c-.006-.133-.018-.325-.034-.562-.033-.474-.086-1.129-.149-1.853a9.152,9.152,0,0,0-.133-1.018,3.9,3.9,0,0,0-.244-.8,2.534,2.534,0,0,0-.278-.495.638.638,0,0,0-.137-.156,4.682,4.682,0,0,1,.353.677,4.273,4.273,0,0,1,.22.8c.057.307.093.649.125,1.01.064.723.127,1.377.177,1.85.025.236.047.428.064.56A.969.969,0,0,0,574.742-764.117Z" fill="#e2940a"/>
              </g>
              <g id="Group_52436" data-name="Group 52436">
                <path id="Path_36423" data-name="Path 36423" d="M574.162-764.638a.693.693,0,0,0,.015-.181v-.493c-.009-.416-.042-.991-.112-1.622s-.168-1.2-.251-1.607c-.042-.2-.079-.368-.108-.481a.659.659,0,0,0-.055-.173,5.8,5.8,0,0,0,.1.666c.066.41.151.977.223,1.6s.113,1.2.14,1.615A5.806,5.806,0,0,0,574.162-764.638Z" fill="#e2940a"/>
              </g>
              <g id="Group_52437" data-name="Group 52437">
                <path id="Path_36424" data-name="Path 36424" d="M573.594-764.854c.014,0-.024-.256-.07-.668a16.137,16.137,0,0,1-.1-1.613c-.006-.631.024-1.2.058-1.615a6.277,6.277,0,0,0,.051-.67.7.7,0,0,0-.044.176c-.023.114-.048.28-.074.487a12.1,12.1,0,0,0,.045,3.243c.031.2.062.371.088.485A.665.665,0,0,0,573.594-764.854Z" fill="#e2940a"/>
              </g>
              <g id="Group_52438" data-name="Group 52438">
                <path id="Path_36425" data-name="Path 36425" d="M572.964-763.325a1.181,1.181,0,0,0,.015-.237c0-.153.006-.374.007-.647,0-.546,0-1.3-.014-2.135a10.216,10.216,0,0,1,.122-2.118,8.233,8.233,0,0,1,.238-.846,1.035,1.035,0,0,0-.108.212,3.835,3.835,0,0,0-.2.62,8.973,8.973,0,0,0-.151,2.133c.011.834.026,1.588.042,2.134.008.273.016.494.024.647A1.185,1.185,0,0,0,572.964-763.325Z" fill="#e2940a"/>
              </g>
              <g id="Group_52439" data-name="Group 52439">
                <path id="Path_36426" data-name="Path 36426" d="M572.2-763.816a4.312,4.312,0,0,0,.068-.62c.032-.384.075-.913.131-1.5s.114-1.112.156-1.5a4.329,4.329,0,0,0,.052-.622,3.855,3.855,0,0,0-.118.613c-.059.381-.127.909-.184,1.495s-.089,1.117-.1,1.5A3.777,3.777,0,0,0,572.2-763.816Z" fill="#e2940a"/>
              </g>
              <g id="Group_52440" data-name="Group 52440">
                <path id="Path_36427" data-name="Path 36427" d="M573.947-762.8a24.789,24.789,0,0,0-.186-3.081A25.181,25.181,0,0,0,573.947-762.8Z" fill="#e2940a"/>
              </g>
              <g id="Group_52441" data-name="Group 52441">
                <path id="Path_36428" data-name="Path 36428" d="M573.77-770.1a.909.909,0,0,0,.062-1.016c-.026.01.048.232.029.511S573.74-770.116,573.77-770.1Z" fill="#e2940a"/>
              </g>
              <g id="Group_52442" data-name="Group 52442">
                <path id="Path_36429" data-name="Path 36429" d="M573.32-770.116c.013,0,0-.068-.026-.165a2.216,2.216,0,0,1-.075-.378.821.821,0,0,1,.055-.367c.037-.089.078-.137.068-.147s-.069.024-.128.116a.681.681,0,0,0-.09.4,1.2,1.2,0,0,0,.107.394C573.273-770.165,573.308-770.111,573.32-770.116Z" fill="#e2940a"/>
              </g>
              <g id="Group_52443" data-name="Group 52443">
                <path id="Path_36430" data-name="Path 36430" d="M573.456-770.263a3.02,3.02,0,0,0,.012-.425,3.013,3.013,0,0,0,.046-.423.862.862,0,0,0-.058.848Z" fill="#e2940a"/>
              </g>
              <g id="Group_52444" data-name="Group 52444">
                <path id="Path_36431" data-name="Path 36431" d="M573.635-770.4c.026,0,.058-.125.071-.284s0-.29-.025-.292-.058.125-.071.284S573.609-770.4,573.635-770.4Z" fill="#e2940a"/>
              </g>
              <g id="Group_52445" data-name="Group 52445">
                <path id="Path_36432" data-name="Path 36432" d="M574-770.256c.019.016.126-.091.171-.266s.006-.32-.019-.316-.032.137-.074.291S573.98-770.272,574-770.256Z" fill="#e2940a"/>
              </g>
              <g id="Group_52446" data-name="Group 52446">
                <path id="Path_36433" data-name="Path 36433" d="M573.336-762.451a3.782,3.782,0,0,0,.044-1.779c-.028,0,0,.4-.011.89S573.309-762.456,573.336-762.451Z" fill="#e2940a"/>
              </g>
              <g id="Group_52447" data-name="Group 52447">
                <path id="Path_36434" data-name="Path 36434" d="M575.368-761.826c.026-.01-.115-.42-.252-.936a9.576,9.576,0,0,0-.249-.937,4.893,4.893,0,0,0,.5,1.873Z" fill="#e2940a"/>
              </g>
            </g>
          </g>
        </g>
      </g>
    </g>
    <g id="Group_52456" data-name="Group 52456">
      <path id="Path_36437" data-name="Path 36437" d="M544.586-751.124s1.576-4.624,4.634-5.533a15.427,15.427,0,0,0-.463,2.766l3.2-1.312s-3.383,3.1-4.217,5.84C546.9-746.675,544.586-751.124,544.586-751.124Z" fill="url(#linear-gradient-27)"/>
      <path id="Path_36438" data-name="Path 36438" d="M544.352-743.845s-3.242,3.655-6.414,3.31a15.246,15.246,0,0,0,1.5-2.372l-3.456-.027s4.321-1.555,6.148-3.754C543.932-748.844,544.352-743.845,544.352-743.845Z" fill="url(#linear-gradient-28)"/>
      <g id="Group_52455" data-name="Group 52455">
        <path id="Path_36439" data-name="Path 36439" d="M565.043-737.632a3.3,3.3,0,0,0,4.013-1.118c1.634-2.225,1.646-5.318.417-6.257s-1.088-.891-1.708-1.08a5.386,5.386,0,0,0-3.737,1.636C563.1-743.361,562.562-738.489,565.043-737.632Z" fill="url(#linear-gradient-29)"/>
        <path id="Path_36440" data-name="Path 36440" d="M562.731-740.453l4.217,1.2a7.567,7.567,0,0,1,.9-5.063c.77-1.219,1.625-.776,1.83-.5-.466-.45-1.32-1.513-4.379-1.652C562.887-745.979,562.731-740.453,562.731-740.453Z" fill="url(#linear-gradient-30)"/>
        <path id="Path_36441" data-name="Path 36441" d="M528.366-755.9a4.061,4.061,0,0,0-3.708,2.873c-.741,2.781.788,4.542,2.642,5.005s14.413,3.893,19.6,5.1,13.8,5.166,18.438,5.4c-1.622-.741-1.615-3.451-1.152-5.352s2.225-3.429,3.661-3.2c-1.993-.324-12.235-2.039-21.318-4.542S528.366-755.9,528.366-755.9Z" fill="url(#linear-gradient-31)"/>
        <path id="Path_36442" data-name="Path 36442" d="M524.467-755.9s11.314,3.707,14.465,5.329,8.018,3.731,12.536,3.847,10.636,2.271,10.636,2.271,4.24-3.059,7.369-.556c-2.294-2.572-11.956-4.009-17.658-4.866a64.179,64.179,0,0,1-15.433-4.1,36.505,36.505,0,0,0-6.952-2.537A8.834,8.834,0,0,0,524.467-755.9Z" fill="url(#linear-gradient-32)"/>
        <path id="Path_36443" data-name="Path 36443" d="M546.339-750.89s-1.977-.335-2.942,2.34.058,4.458,1.232,5.079a12.7,12.7,0,0,1-5.487-1.409c-1.09-.648-1.09-5.236,1.03-6.626S545.85-751.246,546.339-750.89Z" fill="url(#linear-gradient-33)"/>
      </g>
    </g>
  </g>
</svg>
