<svg xmlns="http://www.w3.org/2000/svg" width="34.121" height="37.14" viewBox="0 0 34.121 37.14">
  <g id="Group_565" data-name="Group 565" transform="translate(-29.487 -78.575)">
    <path id="Path_698" data-name="Path 698" d="M55.111,85.884q.768-.755,1.535-1.507a.319.319,0,0,0,.091-.277c-.043-.675-.072-1.351-.124-2.025a.6.6,0,0,1,.2-.517c.812-.81,1.617-1.627,2.425-2.442.133-.126.267-.25.4-.377.114-.11.229-.209.4-.143a.369.369,0,0,1,.232.387c.014.346.046.692.071,1.037a8.568,8.568,0,0,0,.049,1.038.942.942,0,0,0,.7.74c.406.029.813.04,1.22.06.306.022.612.047.918.066.164.01.31.046.367.219a.362.362,0,0,1-.128.385c-.087.086-.167.178-.25.267-.858.852-1.72,1.7-2.571,2.559a.67.67,0,0,1-.571.221c-.654-.049-1.31-.082-1.964-.121a.349.349,0,0,0-.31.086c-.491.507-.989,1.009-1.484,1.513-1.057,1.049-2.109,2.1-3.175,3.142-.191.187-.212.3-.035.518a10,10,0,0,1-.852,13.608,9.571,9.571,0,0,1-8.474,2.624,9.733,9.733,0,0,1-7.9-6.581,9.56,9.56,0,0,1-.4-5.242c.051-.267.123-.515.481-.464a.427.427,0,0,1,.172.509,9.3,9.3,0,0,0-.054,3.491,9.4,9.4,0,1,0,16.566-7.512c-.155-.192-.235-.237-.433-.035q-1.52,1.553-3.073,3.074a.335.335,0,0,0-.071.485A4.517,4.517,0,1,1,42.625,93a4.419,4.419,0,0,1,4.991.051c.172.108.261.1.4-.041,1.01-1.024,2.031-2.038,3.048-3.056.064-.064.145-.117.169-.213a9.4,9.4,0,0,0-13.6,1.938.506.506,0,0,1-.5.267c-.226-.192-.2-.387-.041-.618a10.081,10.081,0,0,1,1.685-1.869,9.9,9.9,0,0,1,8.282-2.3,9.506,9.506,0,0,1,4.5,2.011c.1.078.166.129.281.012Q53.47,87.53,55.111,85.884Zm-6.656,9c-.835.837-1.653,1.659-2.474,2.479a2.35,2.35,0,0,1-.326.28.767.767,0,0,1-.871.017.748.748,0,0,1-.377-.725,1.017,1.017,0,0,1,.366-.687c.8-.8,1.6-1.6,2.4-2.4.151-.149.183-.226-.029-.357a3.885,3.885,0,0,0-4.662,6.175,3.877,3.877,0,0,0,5.974-4.787ZM45.231,97.11c.114-.008.177-.1.249-.167Q52.8,89.62,60.118,82.3c.088-.088.232-.166.074-.323-.173-.17-.235.021-.311.1q-7.317,7.305-14.627,14.615a2.39,2.39,0,0,0-.165.183.14.14,0,0,0-.018.171A.158.158,0,0,0,45.231,97.11ZM57.393,83.564c.02-.007.045-.007.057-.019q1.1-1.1,2.2-2.195a.213.213,0,0,0,.092-.184c-.069-.481-.008-.974-.129-1.491-.6.6-1.172,1.208-1.781,1.768-.4.367-.7.723-.529,1.311a2.143,2.143,0,0,1,.018.521A.429.429,0,0,0,57.393,83.564Zm5.159-1.041a12.518,12.518,0,0,1-1.287-.077.618.618,0,0,0-.591.229c-.635.655-1.288,1.293-1.93,1.941-.056.057-.163.093-.139.2.233.023.458.038.68.069a1.3,1.3,0,0,0,1.423-.514A2.621,2.621,0,0,1,61.073,84Z"/>
    <path id="Path_699" data-name="Path 699" d="M55.111,85.884q-1.636,1.648-3.273,3.3c-.115.117-.183.066-.281-.012a9.506,9.506,0,0,0-4.5-2.011,9.9,9.9,0,0,0-8.282,2.3,10.081,10.081,0,0,0-1.685,1.869c-.164.231-.185.426.04.618q-.155.369-.31.738c-.387-.179-.494-.117-.707.411-.133.329-.078.439.278.552a8.073,8.073,0,0,1-.424,1.012c-.358-.051-.43.2-.481.464a9.56,9.56,0,0,0,.4,5.242,9.733,9.733,0,0,0,7.9,6.581,10.019,10.019,0,0,0,11.563-9.05A9.7,9.7,0,0,0,53.1,90.713c-.177-.215-.156-.331.035-.518,1.066-1.04,2.118-2.093,3.175-3.142l.455.459a.692.692,0,0,0,.162.625,14.462,14.462,0,0,1,2.827,11.032,14.111,14.111,0,0,1-3.385,7.435,14.519,14.519,0,0,1-10.652,5.174,14.08,14.08,0,0,1-4.978-.657A14.765,14.765,0,0,1,47.05,82.39a14.148,14.148,0,0,1,6.987,2.849.615.615,0,0,0,.545.128A2.846,2.846,0,0,1,55.111,85.884Z" fill="#ed3e54"/>
    <path id="Path_700" data-name="Path 700" d="M54.582,85.367a.615.615,0,0,1-.545-.128A14.148,14.148,0,0,0,47.05,82.39a14.765,14.765,0,0,0-6.307,28.731,14.08,14.08,0,0,0,4.978.657A14.519,14.519,0,0,0,56.373,106.6a14.111,14.111,0,0,0,3.385-7.435,14.462,14.462,0,0,0-2.827-11.032.692.692,0,0,1-.162-.625c.342-.332.574-.316.857.058a15.088,15.088,0,0,1,3.166,10.072,15.4,15.4,0,0,1-6.535,12.117c-.1.074-.205.138-.3.216-.171.141-.489.206-.5.4-.007.15.259.315.41.467.944.946,1.893,1.886,2.832,2.836a1.155,1.155,0,0,1-.277,1.928,1.174,1.174,0,0,1-1.353-.276q-1.812-1.808-3.616-3.622a.428.428,0,0,0-.546-.121,15.506,15.506,0,0,1-11.623-.044.411.411,0,0,0-.526.117q-1.821,1.842-3.66,3.665a1.155,1.155,0,0,1-1.867-.184,1.064,1.064,0,0,1,.013-1.192,2.307,2.307,0,0,1,.317-.375q1.522-1.53,3.054-3.05c.175-.173.184-.248-.034-.394a15.66,15.66,0,0,1,6.882-28.666c.2-.023.256-.089.251-.282-.012-.472-.009-.945,0-1.418a1.108,1.108,0,1,1,2.214,0c.006.452.012.9,0,1.356-.007.211.057.277.27.29a15.37,15.37,0,0,1,5.768,1.513A15.123,15.123,0,0,1,54.535,84.5C54.934,84.8,54.943,85.027,54.582,85.367ZM34.238,115.053a.454.454,0,0,0,.361-.142q1.806-1.8,3.613-3.608c.132-.132.1-.195-.053-.263a3.725,3.725,0,0,1-.518-.267c-.185-.122-.3-.074-.446.074-1.067,1.079-2.143,2.149-3.215,3.223a1.179,1.179,0,0,0-.192.238A.492.492,0,0,0,34.238,115.053Zm22.206-.5a.632.632,0,0,0-.255-.471q-1.416-1.415-2.831-2.831c-.547-.546-.543-.538-1.232-.206-.229.11-.27.178-.071.374,1.126,1.11,2.239,2.233,3.359,3.349A1.318,1.318,0,0,0,55.7,115,.5.5,0,0,0,56.444,114.556ZM45.28,80.465h0c0-.257.01-.514,0-.769a.4.4,0,0,0-.438-.415.407.407,0,0,0-.469.413c-.013.5-.005,1,0,1.507,0,.081-.008.181.113.177.254-.009.544.082.75-.051.146-.094.034-.364.05-.555C45.287,80.67,45.28,80.567,45.28,80.465Z"/>
    <path id="Path_701" data-name="Path 701" d="M36.822,92.683q.156-.369.31-.738a.506.506,0,0,0,.5-.267,9.4,9.4,0,0,1,13.6-1.938c-.024.1-.1.149-.169.213-1.017,1.018-2.038,2.032-3.048,3.056-.144.146-.233.149-.4.041A4.419,4.419,0,0,0,42.625,93a4.52,4.52,0,1,0,6.451,1.671.335.335,0,0,1,.071-.485q1.551-1.524,3.073-3.074c.2-.2.278-.157.433.035a9.4,9.4,0,1,1-16.512,4.021.427.427,0,0,0-.172-.509,8.073,8.073,0,0,0,.424-1.012A.864.864,0,0,0,36.822,92.683Z" fill="#fbfaee"/>
    <path id="Path_702" data-name="Path 702" d="M48.455,94.882a3.877,3.877,0,0,1-5.974,4.787,3.885,3.885,0,0,1,4.662-6.175c.212.131.18.208.029.357-.8.794-1.6,1.6-2.4,2.4a1.017,1.017,0,0,0-.366.687.748.748,0,0,0,.377.725.767.767,0,0,0,.871-.017,2.35,2.35,0,0,0,.326-.28C46.8,96.541,47.62,95.719,48.455,94.882Z" fill="#ed3e54"/>
    <path id="Path_703" data-name="Path 703" d="M45.23,97.11a.157.157,0,0,1-.159-.071.14.14,0,0,1,.018-.171,2.39,2.39,0,0,1,.165-.183q7.311-7.31,14.627-14.615c.076-.076.138-.267.311-.1.158.157.014.235-.074.323Q52.8,89.621,45.48,96.943C45.408,97.015,45.345,97.1,45.23,97.11Z" fill="#8c6935"/>
    <path id="Path_704" data-name="Path 704" d="M57.393,83.564a.429.429,0,0,1-.07-.289,2.143,2.143,0,0,0-.018-.521c-.173-.588.132-.944.529-1.311.609-.56,1.177-1.164,1.781-1.768.121.517.06,1.01.129,1.491a.213.213,0,0,1-.092.184q-1.1,1.1-2.2,2.195C57.438,83.557,57.413,83.557,57.393,83.564Z" fill="#76d69f"/>
    <path id="Path_705" data-name="Path 705" d="M62.552,82.523,61.073,84a2.621,2.621,0,0,0-.365.373,1.3,1.3,0,0,1-1.423.514c-.222-.031-.447-.046-.68-.069-.024-.106.083-.142.139-.2.642-.648,1.3-1.286,1.93-1.941a.618.618,0,0,1,.591-.229A12.518,12.518,0,0,0,62.552,82.523Z" fill="#76d69f"/>
    <path id="Path_706" data-name="Path 706" d="M36.822,92.683a.864.864,0,0,1-.429.963c-.356-.113-.411-.223-.278-.552C36.328,92.566,36.435,92.5,36.822,92.683Z"/>
    <path id="Path_707" data-name="Path 707" d="M34.238,115.054a.493.493,0,0,1-.45-.746,1.179,1.179,0,0,1,.192-.238c1.072-1.074,2.148-2.144,3.215-3.223.146-.148.261-.2.446-.074a3.725,3.725,0,0,0,.518.267c.15.068.185.131.053.263q-1.809,1.8-3.613,3.608A.458.458,0,0,1,34.238,115.054Z" fill="#c06134"/>
    <path id="Path_708" data-name="Path 708" d="M56.444,114.556A.5.5,0,0,1,55.7,115a1.318,1.318,0,0,1-.286-.231c-1.12-1.116-2.233-2.239-3.359-3.349-.2-.2-.158-.264.071-.374.689-.332.685-.34,1.232.206q1.414,1.416,2.831,2.831A.632.632,0,0,1,56.444,114.556Z" fill="#c06134"/>
    <path id="Path_709" data-name="Path 709" d="M45.28,80.465c0,.1.007.205,0,.307-.016.191.1.461-.05.555-.206.133-.5.042-.75.051-.121,0-.113-.1-.113-.177,0-.5-.009-1,0-1.507a.407.407,0,0,1,.469-.413.4.4,0,0,1,.438.415c.013.255,0,.512,0,.769Z" fill="#c06134"/>
  </g>
</svg>
