<svg xmlns="http://www.w3.org/2000/svg" width="328.17" height="186.36" viewBox="0 0 328.17 186.36">
  <g id="Group_47799" data-name="Group 47799" transform="translate(-200.522 -194.827)">
    <path id="Path_32539" data-name="Path 32539" d="M225.674,380.617s-38.946-46.914-19.912-95.211c12.407-31.481,58.945-48.732,85.209-31.481,11.186,7.347,47.075.248,66.237-30.17,37.237-59.109,167.2-23.211,143.536,67.541C489.294,335.213,535.589,336.81,512,380.71Z" transform="translate(0)" fill="#ebf3fa"/>
    <g id="Group_47769" data-name="Group 47769" transform="translate(217.851 271.489)">
      <g id="Group_47764" data-name="Group 47764" transform="translate(30.012 22.415)">
        <path id="Path_32540" data-name="Path 32540" d="M652.786,1059.939s-3.928-4.582-.242-7.493c0,0,2.692-1.63,4.887-1.5,0,0-3.11,5.216-2.1,5.734s3.047-6.062,3.047-6.062,6.126-.594,8.1.354c0,0-5.237,4.286-4.134,4.541s6.76-3.952,6.76-3.952,5.7.97,5.4,4.449-2.269,4.552-3.132,4.46-5.915-2.021-6.025-1.313,2.931,3.02,5.06,3.128c0,0-4.02,4.433-6.692,3.154s-2.9-3.308-4.565-4.068-3.087-.759-2.4.017,3.7,1.53,4.654,3.214,1.807,2.821-.957,2.405-7.257-2.439-7.455-4.755Z" transform="translate(-646.147 -1050.438)" fill="#c8dbf4"/>
        <g id="Group_47763" data-name="Group 47763" transform="translate(0 5.642)">
          <path id="Path_32541" data-name="Path 32541" d="M659.27,1099.192s-15.487-.6-18.907,3.832a11.2,11.2,0,0,1-3.084,4.328l-.363.989s2.684-2.83,3.644-3C640.56,1105.34,639.058,1099.853,659.27,1099.192Z" transform="translate(-633.724 -1099.165)" fill="#c8dbf4"/>
          <path id="Path_32542" data-name="Path 32542" d="M612.9,1166.891a9.725,9.725,0,0,0-3.555,6.851l.6.054s1.062-4.542,2.981-6.318S612.9,1166.891,612.9,1166.891Z" transform="translate(-609.349 -1158.704)" fill="#c8dbf4"/>
        </g>
      </g>
      <g id="Group_47766" data-name="Group 47766" transform="translate(0 9.974)">
        <path id="Path_32543" data-name="Path 32543" d="M373.087,959.178s6.248-3.5,3.332-8.248c0,0-2.333-2.916-4.832-3.666,0,0,1.333,7.081,0,7.248s-.916-8-.916-8-6.581-3.166-9.164-2.916c0,0,4.082,6.915,2.749,6.748s-5.915-7.165-5.915-7.165-6.748-1.25-7.831,2.749.666,6,1.666,6.248,7.414.167,7.248,1-4.5,2.166-6.915,1.416c0,0,2.666,6.581,6.165,6.248s4.582-2.5,6.748-2.666,3.749.417,2.666,1-4.749.191-6.5,1.678-3.166,2.4.083,3.07,9.081.25,10.247-2.249Z" transform="translate(-350.169 -942.997)" fill="#c8dbf4"/>
        <g id="Group_47765" data-name="Group 47765" transform="translate(3.424 4.184)">
          <path id="Path_32544" data-name="Path 32544" d="M379.739,979.127s17.495,5.665,19.494,12A13.291,13.291,0,0,0,400.9,997.2v1.25s-1.833-4.249-2.833-4.832C398.067,993.623,401.982,988.124,379.739,979.127Z" transform="translate(-379.739 -979.127)" fill="#c8dbf4"/>
          <path id="Path_32545" data-name="Path 32545" d="M556.092,1129.305a11.539,11.539,0,0,1,1.16,9.084l-.694-.186s.674-5.493-.738-8.256S556.092,1129.305,556.092,1129.305Z" transform="translate(-534.932 -1111.227)" fill="#c8dbf4"/>
        </g>
      </g>
      <g id="Group_47768" data-name="Group 47768" transform="translate(27.444 0)">
        <path id="Path_32546" data-name="Path 32546" d="M592.583,878.194s-8.236-4.612-4.393-10.872c0,0,3.075-3.844,6.369-4.832,0,0-1.757,9.334,0,9.554s1.208-10.542,1.208-10.542,8.676-4.173,12.08-3.844c0,0-5.381,9.115-3.624,8.9s7.8-9.444,7.8-9.444,8.9-1.647,10.323,3.624-.878,7.907-2.2,8.236-9.774.22-9.554,1.318,5.93,2.855,9.115,1.867c0,0-3.514,8.676-8.126,8.236s-6.04-3.295-8.9-3.514-4.942.549-3.514,1.318,6.26.252,8.566,2.212,4.173,3.169-.11,4.047-11.97.329-13.507-2.965Z" transform="translate(-587.169 -856.866)" fill="#d4e4f8"/>
        <g id="Group_47767" data-name="Group 47767" transform="translate(1.065 5.515)">
          <path id="Path_32547" data-name="Path 32547" d="M642.854,904.491s-23.061,7.468-25.7,15.814a17.519,17.519,0,0,1-2.2,8.016v1.647s2.416-5.6,3.734-6.369C618.695,923.6,613.533,916.351,642.854,904.491Z" transform="translate(-612.807 -904.491)" fill="#d4e4f8"/>
          <path id="Path_32548" data-name="Path 32548" d="M598.516,1102.454a15.21,15.21,0,0,0-1.529,11.975l.915-.246s-.888-7.241.973-10.883S598.516,1102.454,598.516,1102.454Z" transform="translate(-596.363 -1078.624)" fill="#d4e4f8"/>
        </g>
      </g>
      <path id="Path_32549" data-name="Path 32549" d="M508.34,1213.615a16.134,16.134,0,0,0,16.133-16.134H492.207A16.134,16.134,0,0,0,508.34,1213.615Z" transform="translate(-475.759 -1158.039)" fill="#d4e4f8"/>
      <path id="Rectangle_4562" data-name="Rectangle 4562" d="M1.99,0H30.722a1.99,1.99,0,0,1,1.99,1.99v0a0,0,0,0,1,0,0H0a0,0,0,0,1,0,0v0A1.99,1.99,0,0,1,1.99,0Z" transform="translate(16.225 54.406)" fill="#d4e4f8"/>
      <rect id="Rectangle_4563" data-name="Rectangle 4563" width="33.164" height="0.495" transform="translate(15.917 39.442)" fill="#9fc1f4"/>
    </g>
    <g id="Group_47773" data-name="Group 47773" transform="translate(285.238 281.495)">
      <g id="Group_47770" data-name="Group 47770" transform="translate(41.473 54.195)">
        <path id="Path_32550" data-name="Path 32550" d="M1297.23,1455.886h.08a1.082,1.082,0,0,0,1.094-1.158l-4.349-43.432-3.795.339,6.245,43.666A.707.707,0,0,0,1297.23,1455.886Z" transform="translate(-1290.26 -1411.295)" fill="#8cb4f4"/>
      </g>
      <g id="Group_47771" data-name="Group 47771" transform="translate(5.389 54.195)">
        <path id="Path_32551" data-name="Path 32551" d="M979.824,1455.886h-.08a1.083,1.083,0,0,1-1.094-1.158L983,1411.3l3.795.339-6.245,43.666A.706.706,0,0,1,979.824,1455.886Z" transform="translate(-978.645 -1411.295)" fill="#8cb4f4"/>
      </g>
      <g id="Group_47772" data-name="Group 47772" transform="translate(72.154 54.195)">
        <path id="Path_32552" data-name="Path 32552" d="M1562.181,1455.886h.08a1.082,1.082,0,0,0,1.094-1.158l-4.349-43.432-3.795.339,6.245,43.666A.706.706,0,0,0,1562.181,1455.886Z" transform="translate(-1555.211 -1411.295)" fill="#8cb4f4"/>
      </g>
      <path id="Path_32553" data-name="Path 32553" d="M939.971,991.154l-7.72-38.121c-.991-5.161,3.286-9.881,8.839-9.754l14.888.34a11.76,11.76,0,0,1,11.029,8.489L978.3,991.154Z" transform="translate(-932.109 -943.276)" fill="#8cb4f4"/>
      <path id="Path_32554" data-name="Path 32554" d="M980.3,991.154l-7.719-38.121c-.991-5.161,3.286-9.881,8.839-9.754l14.887.34a11.76,11.76,0,0,1,11.029,8.489l11.294,39.046Z" transform="translate(-967.769 -943.276)" fill="#8cb4f4"/>
      <path id="Rectangle_4564" data-name="Rectangle 4564" d="M3.476,0H59.728A3.476,3.476,0,0,1,63.2,3.476V6.953a0,0,0,0,1,0,0H3.476A3.476,3.476,0,0,1,0,3.476v0A3.476,3.476,0,0,1,3.476,0Z" transform="translate(71.067 54.83) rotate(180)" fill="#8cb4f4"/>
      <rect id="Rectangle_4565" data-name="Rectangle 4565" width="41.015" height="6.953" rx="3.476" transform="translate(76.937 54.83) rotate(180)" fill="#8cb4f4"/>
    </g>
    <g id="Group_47778" data-name="Group 47778" transform="translate(227.411 328.049)">
      <path id="Path_32555" data-name="Path 32555" d="M480.844,1346.133v1.3c0,.455-.147.827-.327.827h-47.46c-.18,0-.327-.372-.327-.827v-1.3c0-.455.147-.827.327-.827h47.46C480.7,1345.306,480.844,1345.678,480.844,1346.133Z" transform="translate(-432.729 -1345.306)" fill="#9abfe2"/>
      <path id="Path_32556" data-name="Path 32556" d="M555.947,1346.133v1.3c0,.455-.135.827-.3.827H517.969c-.165,0-.3-.372-.3-.827v-1.3c0-.455.135-.827.3-.827h37.678C555.812,1345.306,555.947,1345.678,555.947,1346.133Z" transform="translate(-507.832 -1345.306)" fill="#bad4f4"/>
      <rect id="Rectangle_4566" data-name="Rectangle 4566" width="33.694" height="49.11" transform="translate(2.409 2.955)" fill="#c8dbf4"/>
      <rect id="Rectangle_4567" data-name="Rectangle 4567" width="33.694" height="49.11" transform="translate(11.851 2.955)" fill="#dfebfd"/>
      <g id="Group_47777" data-name="Group 47777" transform="translate(13.662 4.343)">
        <g id="Group_47774" data-name="Group 47774">
          <path id="Path_32557" data-name="Path 32557" d="M580.785,1427.819H550.712v-45.012h30.073Zm-29.748-.325H580.46v-44.362H551.037Z" transform="translate(-550.712 -1382.807)" fill="#b7d3f3"/>
        </g>
        <g id="Group_47775" data-name="Group 47775" transform="translate(0.162 14.89)">
          <rect id="Rectangle_4568" data-name="Rectangle 4568" width="29.748" height="0.325" fill="#b7d3f3"/>
        </g>
        <g id="Group_47776" data-name="Group 47776" transform="translate(0.162 30.071)">
          <rect id="Rectangle_4569" data-name="Rectangle 4569" width="29.748" height="0.325" fill="#b7d3f3"/>
        </g>
        <path id="Path_32558" data-name="Path 32558" d="M661.017,1400.437H655.5a.488.488,0,0,1-.487-.487h0a.488.488,0,0,1,.487-.487h5.52a.488.488,0,0,1,.487.487h0A.489.489,0,0,1,661.017,1400.437Z" transform="translate(-642.933 -1397.534)" fill="#b7d3f3"/>
        <path id="Path_32559" data-name="Path 32559" d="M661.017,1528.633H655.5a.488.488,0,0,1-.487-.487h0a.488.488,0,0,1,.487-.487h5.52a.489.489,0,0,1,.487.487h0A.488.488,0,0,1,661.017,1528.633Z" transform="translate(-642.933 -1510.886)" fill="#b7d3f3"/>
        <path id="Path_32560" data-name="Path 32560" d="M661.017,1662.27H655.5a.488.488,0,0,1-.487-.487h0a.488.488,0,0,1,.487-.487h5.52a.489.489,0,0,1,.487.487h0A.489.489,0,0,1,661.017,1662.27Z" transform="translate(-642.933 -1629.048)" fill="#b7d3f3"/>
      </g>
    </g>
    <g id="Group_47785" data-name="Group 47785" transform="translate(384.659 218.525)">
      <path id="Rectangle_4570" data-name="Rectangle 4570" d="M12.089,0h.745A12.088,12.088,0,0,1,24.922,12.088v0A12.089,12.089,0,0,1,12.833,24.178h-.744A12.089,12.089,0,0,1,0,12.089v0A12.089,12.089,0,0,1,12.089,0Z" fill="#c0d8fb"/>
      <path id="Rectangle_4571" data-name="Rectangle 4571" d="M11.041,0h.68A11.042,11.042,0,0,1,22.763,11.042v0A11.042,11.042,0,0,1,11.721,22.084h-.679A11.042,11.042,0,0,1,0,11.042v0A11.041,11.041,0,0,1,11.041,0Z" transform="translate(1.08 1.047)" fill="#dfebfd"/>
      <g id="Group_47781" data-name="Group 47781" transform="translate(2.942 2.738)">
        <g id="Group_47779" data-name="Group 47779" transform="translate(9.003)">
          <circle id="Ellipse_1270" data-name="Ellipse 1270" cx="0.516" cy="0.516" r="0.516" fill="#b7d3f3"/>
          <path id="Path_32561" data-name="Path 32561" d="M1929.313,431.855a.516.516,0,1,1,.2.7A.517.517,0,0,1,1929.313,431.855Z" transform="translate(-1925.147 -430.609)" fill="#b7d3f3"/>
          <path id="Path_32562" data-name="Path 32562" d="M1958.825,457.738a.516.516,0,1,1-.154.714A.516.516,0,0,1,1958.825,457.738Z" transform="translate(-1951.09 -453.657)" fill="#b7d3f3"/>
          <path id="Path_32563" data-name="Path 32563" d="M1971.954,496.267a.516.516,0,1,1-.516.516A.516.516,0,0,1,1971.954,496.267Z" transform="translate(-1962.452 -487.797)" fill="#b7d3f3"/>
          <path id="Path_32564" data-name="Path 32564" d="M1961.372,539.094a.516.516,0,1,1-.73,0A.516.516,0,0,1,1961.372,539.094Z" transform="translate(-1952.773 -525.531)" fill="#b7d3f3"/>
          <path id="Path_32565" data-name="Path 32565" d="M1933.377,567.162a.516.516,0,1,1-.73,0A.516.516,0,0,1,1933.377,567.162Z" transform="translate(-1928.019 -550.349)" fill="#b7d3f3"/>
          <path id="Path_32566" data-name="Path 32566" d="M1893.837,578.842a.516.516,0,1,1,.516.516A.516.516,0,0,1,1893.837,578.842Z" transform="translate(-1893.837 -560.354)" fill="#b7d3f3"/>
        </g>
        <g id="Group_47780" data-name="Group 47780" transform="translate(0 0.98)">
          <path id="Path_32567" data-name="Path 32567" d="M1859.249,431.855a.516.516,0,1,0-.2.7A.516.516,0,0,0,1859.249,431.855Z" transform="translate(-1853.396 -431.589)" fill="#b7d3f3"/>
          <path id="Path_32568" data-name="Path 32568" d="M1829.737,457.738a.516.516,0,1,0,.154.714A.516.516,0,0,0,1829.737,457.738Z" transform="translate(-1827.453 -454.638)" fill="#b7d3f3"/>
          <path id="Path_32569" data-name="Path 32569" d="M1816.609,496.267a.516.516,0,1,0,.516.516A.516.516,0,0,0,1816.609,496.267Z" transform="translate(-1816.093 -488.777)" fill="#b7d3f3"/>
          <path id="Path_32570" data-name="Path 32570" d="M1827.191,539.094a.516.516,0,1,0,.73,0A.516.516,0,0,0,1827.191,539.094Z" transform="translate(-1825.772 -526.511)" fill="#b7d3f3"/>
          <circle id="Ellipse_1271" data-name="Ellipse 1271" cx="0.516" cy="0.516" r="0.516" transform="translate(4.509 15.681)" fill="#b7d3f3"/>
        </g>
      </g>
      <g id="Group_47784" data-name="Group 47784" transform="translate(12.322 5.275)">
        <path id="Path_32571" data-name="Path 32571" d="M1897.093,496.783a.516.516,0,1,1,.516.516A.516.516,0,0,1,1897.093,496.783Z" transform="translate(-1897.093 -490.334)" fill="#b7d3f3"/>
        <g id="Group_47782" data-name="Group 47782" transform="translate(0.446)">
          <rect id="Rectangle_4572" data-name="Rectangle 4572" width="0.141" height="6.449" fill="#b7d3f3"/>
        </g>
        <g id="Group_47783" data-name="Group 47783" transform="translate(0.321 3.59)">
          <rect id="Rectangle_4573" data-name="Rectangle 4573" width="4.347" height="0.423" transform="translate(0 2.684) rotate(-38.132)" fill="#b7d3f3"/>
        </g>
      </g>
    </g>
    <g id="Group_47788" data-name="Group 47788" transform="translate(288.441 243.156)">
      <g id="Group_47787" data-name="Group 47787" transform="translate(0 0)">
        <path id="Path_32572" data-name="Path 32572" d="M1260.879,1280.9a20.69,20.69,0,0,1-7.194,7.687h-16.674S1263.31,1276.674,1260.879,1280.9Z" transform="translate(-1204.907 -1202.666)" fill="#233862"/>
        <g id="Group_47786" data-name="Group 47786">
          <path id="Path_32573" data-name="Path 32573" d="M1614.357,1668.839c-.18,1.75,2.253,2.2,5.075,2.372s1.962.74,5.824,1.482,5.424-.3,5.709-.82c.255-.461-1.537-1.206-3.445-2.046-.24-.1-.481-.213-.721-.321-2.148-.972-3.338-2.92-5-4.732-1.575-1.716-3.03-7.174-3.03-7.174l-5.246-1.179s1.424,4.913,1.914,7.009a6.477,6.477,0,0,1-.578,3.645A6.886,6.886,0,0,0,1614.357,1668.839Z" transform="translate(-1537.82 -1535.502)" fill="#ffb27d"/>
          <path id="Path_32574" data-name="Path 32574" d="M1625.728,1752.566c2.822.171,1.962.74,5.824,1.482s5.424-.3,5.709-.82c.255-.461-1.537-1.206-3.445-2.046l-.03.032a11.019,11.019,0,0,1-5.862.007c-2.552-.722-5.011-2.279-6.769-2.792a6.885,6.885,0,0,0-.5,1.764C1620.473,1751.943,1622.906,1752.4,1625.728,1752.566Z" transform="translate(-1544.116 -1616.857)" fill="#0f2549"/>
          <path id="Path_32575" data-name="Path 32575" d="M1165.753,1119.045c-2.823-1.982-21.5-5.516-31.026-6.538l-10.533-9.143s-8.965,13.279-9.036,23.438c-.033,4.737,2.149,5.207,2.149,5.208s33.765.25,35.245.4c2.423.25,5.618,6.285,6.417,11.782s14.878,27.854,14.878,27.854a17.658,17.658,0,0,0,4.294.861,4.291,4.291,0,0,0,2.136-.575S1172.119,1123.516,1165.753,1119.045Z" transform="translate(-1097.164 -1046.487)" fill="#233862"/>
          <path id="Path_32576" data-name="Path 32576" d="M1538.936,1668.839c-.18,1.75,2.253,2.2,5.075,2.372s1.963.74,5.824,1.482,5.424-.3,5.71-.82c.254-.461-1.537-1.206-3.445-2.046-.24-.1-.48-.213-.721-.321-2.148-.972-3.338-2.92-5-4.732-1.575-1.716-3.03-7.174-3.03-7.174l-5.246-1.179s1.424,4.913,1.914,7.009a6.478,6.478,0,0,1-.577,3.645A6.876,6.876,0,0,0,1538.936,1668.839Z" transform="translate(-1471.132 -1535.502)" fill="#ffb27d"/>
          <path id="Path_32577" data-name="Path 32577" d="M1550.307,1752.566c2.822.171,1.963.74,5.824,1.482s5.424-.3,5.71-.82c.255-.461-1.537-1.206-3.445-2.046l-.03.032a11.019,11.019,0,0,1-5.862.007c-2.552-.722-5.011-2.279-6.769-2.792a6.875,6.875,0,0,0-.5,1.764C1545.052,1751.943,1547.485,1752.4,1550.307,1752.566Z" transform="translate(-1477.428 -1616.857)" fill="#233862"/>
          <path id="Path_32578" data-name="Path 32578" d="M1089.665,1119.045c-2.452-1.722-9.828-3.057-17.971-4.048a5.477,5.477,0,0,1-4.649-4.111h0l-18.938-7.522s-8.965,13.279-9.036,23.438c-.033,4.737,2.149,5.207,2.149,5.208s33.765.25,35.245.4c2.422.25,5.618,6.285,6.417,11.782s14.878,27.854,14.878,27.854a17.654,17.654,0,0,0,4.294.861,4.291,4.291,0,0,0,2.136-.575S1096.031,1123.516,1089.665,1119.045Z" transform="translate(-1029.887 -1046.487)" fill="#2b478b"/>
          <path id="Path_32579" data-name="Path 32579" d="M994.2,613.9c-2.6-1.367-6.562-1.551-7.206-1.638-7.7-1.035-12.332,10.152-12.6,13.541-.5,6.248-3.807,7.2-8.459,11.113-9.328,7.846-6.593,16.962-1.492,20.349,3.06,2.032,8.454,0,8.454,0,.076.053,14.752-8.2,21.987-12.188C1005.729,643.532,1000.835,617.378,994.2,613.9Z" transform="translate(-959.767 -612.19)" fill="#233862"/>
          <path id="Path_32580" data-name="Path 32580" d="M1164.684,781.613c.034.017-3.421,1.588-5.914.764-2.346-.773-4.412-4.3-4.379-4.31,1.018-.148,2.053-1.152,2.342-7.1l.451.113,7.581,1.916s-.3,2.4-.423,4.672C1164.237,779.572,1164.258,781.387,1164.684,781.613Z" transform="translate(-1131.854 -752.578)" fill="#ffb27d"/>
          <path id="Path_32581" data-name="Path 32581" d="M1184.464,777.788s0,.494-.283,2.729c-4.288-1.081-6.178-2.5-7.511-4.13Z" transform="translate(-1151.552 -757.372)" fill="#ed975d"/>
          <path id="Path_32582" data-name="Path 32582" d="M1166.719,664.43s-10.025,1.632-10.945-4.627-2.834-10.263,3.528-11.57,7.959.9,8.775,2.912S1169.3,663.844,1166.719,664.43Z" transform="translate(-1132.191 -643.713)" fill="#ffb27d"/>
          <path id="Path_32583" data-name="Path 32583" d="M1145.957,640.42s-4.553,7.186-8.617,8.888-6.061.838-6.061.838a17.119,17.119,0,0,0,2.331-6.568,3.081,3.081,0,0,1,1.9-2.477C1138.429,639.934,1144.071,638.092,1145.957,640.42Z" transform="translate(-1111.418 -636.161)" fill="#233862"/>
          <path id="Path_32584" data-name="Path 32584" d="M1223.5,640.292a15.868,15.868,0,0,1,3.767,2.65,12.182,12.182,0,0,1,2.2,6.1s1.316-7.225-1.425-9.709C1225.129,636.7,1223.5,640.292,1223.5,640.292Z" transform="translate(-1192.957 -635.338)" fill="#233862"/>
          <path id="Path_32585" data-name="Path 32585" d="M1106.271,845.273c-.3,20.377-.084,16.119-2.313,18.053-.537.466-2.047.743-4.034.874-6.248.415-17.232-.615-17.65-1.769-1.441-4-.424-5.237-1.626-11.354-.125-.65-.281-1.355-.463-2.121-1-4.2-1.979-5.631,1.578-12.381,3.226-6.114,7.019-11.081,7.32-10.9,8.51,5.052,8.8.817,8.8.817S1106.42,835.334,1106.271,845.273Z" transform="translate(-1065.421 -800.948)" fill="#fff"/>
          <path id="Path_32586" data-name="Path 32586" d="M1240.13,832.766s8.71,1.476,9.738,5.247,7.079,25.935,7.079,25.935-4.452.8-6.508-1.257-7.156-19.08-7.156-19.08Z" transform="translate(-1207.665 -807.224)" fill="#fff"/>
          <path id="Path_32587" data-name="Path 32587" d="M1110.543,993.416c-6.248.415-17.232-.615-17.65-1.769-1.441-4-.424-5.237-1.626-11.354l3.014-8.486s-.5,9.45,2.289,11.936,11.411,4.8,12.765,6.875A7.6,7.6,0,0,1,1110.543,993.416Z" transform="translate(-1076.04 -930.163)" fill="#ebf3ff"/>
          <path id="Path_32588" data-name="Path 32588" d="M1195.909,1116.812s6.165-1.373,7.159-.825a14.481,14.481,0,0,1,3.73,3.233c.3.693-2.214-.526-3.034-.746a7.3,7.3,0,0,0-2.619.574,8.7,8.7,0,0,1-4.692.471Z" transform="translate(-1168.564 -1057.534)" fill="#ffb27d"/>
          <path id="Path_32589" data-name="Path 32589" d="M1008.225,825.709s-8.725.51-11.59,4.506c-4.034,5.626-12.035,29.6-7.449,32.8,5.164,3.6,23.5.942,23.5.942s.61-2.853-.239-4.232-14.648-3.609-15.285-4.246,7.961-12.419,7.961-14.33S1008.225,825.709,1008.225,825.709Z" transform="translate(-984.562 -800.984)" fill="#fff"/>
          <path id="Path_32590" data-name="Path 32590" d="M1260.31,1131.787a11.925,11.925,0,0,0,1.715,1.865,1.264,1.264,0,0,0,.7.149l-.87-1.567Z" transform="translate(-1225.508 -1071.619)" fill="#ffb27d"/>
          <path id="Path_32591" data-name="Path 32591" d="M1257.733,1116.97l3.755,1.824a.669.669,0,0,1-.622.24,8.949,8.949,0,0,1-1.629-.448Z" transform="translate(-1223.229 -1058.518)" fill="#ffb27d"/>
        </g>
      </g>
    </g>
    <g id="Group_47789" data-name="Group 47789" transform="translate(319.337 286.936)">
      <path id="Path_32592" data-name="Path 32592" d="M1244.021,1143.687H1226.58a1.39,1.39,0,0,1,1.39-1.39h16.051Z" transform="translate(-1226.58 -1124.692)" fill="#ed7d2b"/>
      <path id="Path_32593" data-name="Path 32593" d="M1326.042,990.267h26.965l-6.468,19H1319.4Z" transform="translate(-1308.651 -990.267)" fill="#ed7d2b"/>
      <path id="Path_32594" data-name="Path 32594" d="M1356.435,990.264l-6.468,19h-27.14l6.643-19Z" transform="translate(-1311.682 -990.264)" fill="#f99746"/>
      <path id="Path_32595" data-name="Path 32595" d="M1467.178,1060.734a1.753,1.753,0,0,1-1.617,1.314,1.012,1.012,0,0,1-1.011-1.314,1.753,1.753,0,0,1,1.618-1.314A1.012,1.012,0,0,1,1467.178,1060.734Z" transform="translate(-1436.963 -1051.412)" fill="#fff"/>
    </g>
    <g id="Group_47793" data-name="Group 47793" transform="translate(308.334 305.932)">
      <rect id="Rectangle_4574" data-name="Rectangle 4574" width="119.969" height="4.273" rx="2.137" transform="translate(4.074)" fill="#182d4f"/>
      <g id="Group_47790" data-name="Group 47790" transform="translate(112.66 2.174)">
        <path id="Path_32596" data-name="Path 32596" d="M2117.847,1245.573l.051-.006a1.085,1.085,0,0,0,.957-1.207l-10.53-71.281-3.855.11,12.39,71.666A.886.886,0,0,0,2117.847,1245.573Z" transform="translate(-2104.47 -1173.08)" fill="#182d4f"/>
      </g>
      <g id="Group_47791" data-name="Group 47791" transform="translate(0 2.174)">
        <path id="Path_32597" data-name="Path 32597" d="M1132.581,1245.573l-.051-.006a1.085,1.085,0,0,1-.958-1.207l10.53-71.281,3.855.11-12.39,71.666A.885.885,0,0,1,1132.581,1245.573Z" transform="translate(-1131.564 -1173.08)" fill="#182d4f"/>
      </g>
      <g id="Group_47792" data-name="Group 47792" transform="translate(24.378 2.174)">
        <path id="Path_32598" data-name="Path 32598" d="M1343.107,1245.573l-.051-.006a1.085,1.085,0,0,1-.958-1.207l10.53-71.281,3.855.11-12.39,71.666A.886.886,0,0,1,1343.107,1245.573Z" transform="translate(-1342.09 -1173.08)" fill="#182d4f"/>
      </g>
    </g>
    <rect id="Rectangle_4575" data-name="Rectangle 4575" width="328.17" height="1.261" rx="0.63" transform="translate(200.522 379.926)" fill="#2e3552"/>
    <g id="Group_47794" data-name="Group 47794" transform="translate(386.62 236.207)">
      <path id="Path_32599" data-name="Path 32599" d="M1887.372,1717.028h20.9c1.005-1.227.635-5.752.483-7.23-.031-.3-.053-.471-.053-.471s-7.136-5.708-8.116-1.337c-.03.137-.066.271-.106.4-1.235,4.088-6.774,5.945-9.972,6.463A3.623,3.623,0,0,0,1887.372,1717.028Z" transform="translate(-1878.137 -1572.693)" fill="#233862"/>
      <path id="Path_32600" data-name="Path 32600" d="M2036.8,1212.259c-.755,0-35.794,6.579-41.59,13.753-2.9,3.584-3.326,44.977-3.326,44.977s3.582,4.441,11.318,1.862c0,0,5.672-28.32,5.253-36.91-.116-2.375,23.941-.344,28.344-1.483s15.161-10.718,12.791-15.384S2036.8,1212.259,2036.8,1212.259Z" transform="translate(-1970.547 -1135.823)" fill="#233862"/>
      <path id="Path_32601" data-name="Path 32601" d="M1922.287,1124.727s-7.068.1-8.74.812-5.062,2.361-4.155,2.613,5.237-.1,6.172.039a15.781,15.781,0,0,0,2.663-.039h3.246Z" transform="translate(-1897.474 -1058.427)" fill="#ffb27d"/>
      <path id="Path_32602" data-name="Path 32602" d="M1841.071,906.377a12.919,12.919,0,0,0-4.75-2.056,20.573,20.573,0,0,1-3.417-.7c-2.159-.761-6.479-4.645-6.153-5.1,1.048-1.46,6.092,1.63,6.972,1.3s-1.692-2.161-.8-2.8c.467-.336,1.561,1.348,2.454,1.517,1.209.229,2.154,1.936,2.518,2.025a28.262,28.262,0,0,1,3.812,2.481Z" transform="translate(-1824.521 -857.04)" fill="#ffb27d"/>
      <path id="Path_32603" data-name="Path 32603" d="M2053.646,804.589s-5.38,1.668-10.681,16.265-7.314,15.385-9.241,15.959-18.84,3.94-18.84,3.94v4.332h26.061s9.772-9.3,12.7-15.554S2053.646,804.589,2053.646,804.589Z" transform="translate(-1990.882 -775.36)" fill="#ed7d2b"/>
      <path id="Path_32604" data-name="Path 32604" d="M1807.619,1717.028h20.9c1-1.227.635-5.752.483-7.23-.031-.3-.053-.471-.053-.471s-7.136-5.708-8.116-1.337c-.03.137-.066.271-.106.4-1.235,4.088-6.774,5.945-9.972,6.463A3.622,3.622,0,0,0,1807.619,1717.028Z" transform="translate(-1807.619 -1572.693)" fill="#1b3051"/>
      <path id="Path_32605" data-name="Path 32605" d="M1947.631,1212.259c-.755,0-35.794,6.579-41.59,13.753-2.9,3.584-3.326,44.977-3.326,44.977s3.582,4.441,11.318,1.862c0,0,5.672-28.32,5.253-36.91-.116-2.375,23.941-.344,28.344-1.483s15.161-10.718,12.791-15.384S1947.631,1212.259,1947.631,1212.259Z" transform="translate(-1891.703 -1135.823)" fill="#2b478b"/>
      <path id="Path_32606" data-name="Path 32606" d="M2292.79,701.436a34.018,34.018,0,0,0,7.448-1.621c2.855-.927,5.157-2.281,3.674-4.891-1.367-2.405-3.579-7.778-3.43-12.23l-5.313,4.282-3.609,2.908a43.243,43.243,0,0,0,.409,4.719q.108.822.256,1.771a1.288,1.288,0,0,1-.593,1.293l-.082.051A2.015,2.015,0,0,0,2292.79,701.436Z" transform="translate(-2234.67 -667.581)" fill="#ffb27d"/>
      <path id="Path_32607" data-name="Path 32607" d="M2298.5,721.6a8.782,8.782,0,0,0,.133,2.921,15.093,15.093,0,0,0,6.226-3.091c-1.638-.45-2.234-2.22-3.454-2.055Z" transform="translate(-2241.611 -700.008)" fill="#ed975d"/>
      <path id="Path_32608" data-name="Path 32608" d="M2254.766,586.85s12.377,2.056,13.539-5.671,3.542-12.666-4.312-14.306-9.836,1.078-10.851,3.563S2251.577,586.116,2254.766,586.85Z" transform="translate(-2200.853 -564.73)" fill="#ffb27d"/>
      <path id="Path_32609" data-name="Path 32609" d="M2242.621,554.463c-.532,1.861.891,4.127,3.279,4.873,3.544,1.108,2.761,5.455,4.356,5.4s2.238-2.5,3.663-.55c1.215,1.663-1.011,3.634-.858,4.546.263,1.565,2.715,4.768,4.925,4.608s6.345-10.663,5.518-13.912-4.135-6.675-7.266-7.148-7.479.879-8.483.879S2242.908,553.458,2242.621,554.463Z" transform="translate(-2192.15 -552.177)" fill="#2b478b"/>
      <path id="Path_32610" data-name="Path 32610" d="M2255.446,784.586c-1.789-7.2-6.733-14.755-10.076-14.749-5.7.011-13.886,1.514-17.193,9.671-2.435,6.007-5.684,40.565-2.012,43.022,8.392,5.618,27.845,17.087,31.3,5.391C2260.631,817.2,2258.551,797.083,2255.446,784.586Z" transform="translate(-2176.237 -744.633)" fill="#f99746"/>
      <path id="Path_32611" data-name="Path 32611" d="M1967.061,802.251a6.747,6.747,0,0,0-10.442-2.908,63.847,63.847,0,0,0-7.161,6.692c-10.631,11.321-12.792,11.251-14.788,11.017s-18.866-3.814-18.866-3.814a5.1,5.1,0,0,0-1.372,1.667,3.142,3.142,0,0,0-.337,2.313c-.661-.427,5.98,4.15,9.285,5.976a90.828,90.828,0,0,0,13.562,5.528,3.5,3.5,0,0,0,2.278-.034c3.888-1.4,16.946-6.509,27.576-15.37C1969.6,810.982,1968.568,806.17,1967.061,802.251Z" transform="translate(-1901.689 -769.462)" fill="#f99746"/>
      <path id="Path_32612" data-name="Path 32612" d="M2296.764,748.25l-1.29-2.906s-11.545.941-13.485,7.512C2281.989,752.856,2290.938,748.391,2296.764,748.25Z" transform="translate(-2227.058 -722.976)" fill="#fff"/>
    </g>
    <g id="Group_47798" data-name="Group 47798" transform="translate(418.769 281.701)">
      <g id="Group_47795" data-name="Group 47795" transform="translate(58.616 53.99)">
        <path id="Path_32613" data-name="Path 32613" d="M2598.417,1455.886h.08a1.082,1.082,0,0,0,1.094-1.158l-4.349-43.432-3.795.339,6.244,43.666A.707.707,0,0,0,2598.417,1455.886Z" transform="translate(-2591.447 -1411.295)" fill="#8cb4f4"/>
      </g>
      <g id="Group_47796" data-name="Group 47796" transform="translate(36.232 53.99)">
        <path id="Path_32614" data-name="Path 32614" d="M2405.113,1455.886h.08a1.082,1.082,0,0,0,1.094-1.158l-4.349-43.432-3.795.339,6.244,43.666A.707.707,0,0,0,2405.113,1455.886Z" transform="translate(-2398.143 -1411.295)" fill="#8cb4f4"/>
      </g>
      <g id="Group_47797" data-name="Group 47797" transform="translate(0 53.99)">
        <path id="Path_32615" data-name="Path 32615" d="M2086.432,1455.886h-.08a1.083,1.083,0,0,1-1.094-1.158l4.349-43.432,3.795.339-6.245,43.666A.707.707,0,0,1,2086.432,1455.886Z" transform="translate(-2085.253 -1411.295)" fill="#73a2e5"/>
      </g>
      <path id="Path_32616" data-name="Path 32616" d="M2349.44,992.887l4.128-36.275c.542-5.228-1.208-10.346-8.752-10.742l-13.271-.808c-7.865-.324-11.417,6.222-12.413,11.262l-7.879,39.875Z" transform="translate(-2285.083 -945.05)" fill="#8cb4f4"/>
      <path id="Rectangle_4576" data-name="Rectangle 4576" d="M3.476,0H63.2a0,0,0,0,1,0,0V3.476a3.476,3.476,0,0,1-3.476,3.476H3.476A3.476,3.476,0,0,1,0,3.476v0A3.476,3.476,0,0,1,3.476,0Z" transform="translate(1.086 47.672)" fill="#73a2e5"/>
      <path id="Rectangle_4577" data-name="Rectangle 4577" d="M3.476,0H38.12a0,0,0,0,1,0,0V3.476a3.477,3.477,0,0,1-3.477,3.477H3.476A3.476,3.476,0,0,1,0,3.476v0A3.476,3.476,0,0,1,3.476,0Z" transform="translate(26.17 47.672)" fill="#8cb4f4"/>
    </g>
  </g>
</svg>
