<svg xmlns="http://www.w3.org/2000/svg" xmlns:xlink="http://www.w3.org/1999/xlink" width="134" height="119.099" viewBox="0 0 134 119.099">
  <defs>
    <clipPath id="clip-path">
      <path id="Path_5923" data-name="Path 5923" d="M501.264,299.118a6.741,6.741,0,0,0-5.753,5.622,1.431,1.431,0,0,0-.953-.079,1.094,1.094,0,0,0-1.6.57c-.286-.091-.559-.174-.817-.251a7.727,7.727,0,0,0-5.182-2.2c-3.576,0-5.812,2.951-9.389,5.991a14.068,14.068,0,0,0,3.47,2.268c-.114.164-.227.331-.34.5-4.2,6.438-2.95,17.258-2.95,17.258l1.252.715s2.593-9.747,7.511-15.023a23.342,23.342,0,0,1,7.758-5.284c.007,0,.014.007.022.008a1.046,1.046,0,0,0,1.06-.454c.555-.215,1.063-.392,1.51-.537,3.152,2.451,7.244.868,9.321-1.066,2.594-2.414,3.935-8.405,3.935-8.405A41.813,41.813,0,0,0,501.264,299.118Z" transform="translate(-477.568 -298.671)" fill="none"/>
    </clipPath>
  </defs>
  <g id="Group_3675" data-name="Group 3675" transform="translate(-107 -95.901)">
    <g id="Group_3607" data-name="Group 3607" transform="translate(-340.53 -202.628)">
      <g id="Group_3527" data-name="Group 3527" transform="translate(450.333 298.53)">
        <path id="Path_5869" data-name="Path 5869" d="M468.984,306.708s.536-8.853-7.154-8.137-13.682,10.552-10.73,16.99,11.714,10.909,17.794,5.633S468.984,306.708,468.984,306.708Z" transform="translate(-450.333 -298.53)" fill="#001428"/>
      </g>
      <g id="Group_3528" data-name="Group 3528" transform="translate(466.521 303.111)">
        <path id="Path_5870" data-name="Path 5870" d="M489.2,305.1s-9.032-3.13-15.738-.715-7.064,12.25-3.218,17.973a74.009,74.009,0,0,0,6.438,8.495l1.252-1.073s4.828-16.006,8.584-19.4S489.2,305.1,489.2,305.1Z" transform="translate(-467.782 -303.468)" fill="#001428"/>
      </g>
      <g id="Group_3529" data-name="Group 3529" transform="translate(466.141 304.026)">
        <path id="Path_5871" data-name="Path 5871" d="M473.433,304.454l-.208.107c-.134.073-.341.165-.578.316-.12.075-.255.148-.394.244l-.445.315-.476.393c-.153.154-.325.3-.487.475a8.9,8.9,0,0,0-.941,1.195,9.6,9.6,0,0,0-.793,1.495,10.712,10.712,0,0,0-.569,1.72,11.636,11.636,0,0,0-.319,1.849,16.218,16.218,0,0,0,.044,3.71c.08.59.173,1.16.293,1.694s.259,1.034.4,1.494.3.871.443,1.236.285.678.411.931.225.454.293.59l.108.209-.143-.186c-.091-.123-.24-.294-.393-.535s-.349-.531-.546-.88-.4-.753-.595-1.208l-.287-.717c-.084-.252-.18-.513-.257-.786a14.525,14.525,0,0,1-.55-5.634,12.464,12.464,0,0,1,.366-1.958,9.8,9.8,0,0,1,.674-1.815,8.484,8.484,0,0,1,.944-1.547,7.7,7.7,0,0,1,1.107-1.182c.19-.164.383-.307.563-.445l.544-.347.5-.263c.157-.076.309-.131.441-.188a5,5,0,0,1,.627-.214Z" transform="translate(-467.372 -304.454)" fill="#00384c"/>
      </g>
      <g id="Group_3530" data-name="Group 3530" transform="translate(493.214 350.077)">
        <path id="Path_5872" data-name="Path 5872" d="M498.612,354.627l4.739-.536-1.52,4.56s-5.365,1.521-5.276,1.162S498.612,354.627,498.612,354.627Z" transform="translate(-496.554 -354.091)" fill="#002a42"/>
      </g>
      <g id="Group_3531" data-name="Group 3531" transform="translate(471.198 306.44)">
        <path id="Path_5873" data-name="Path 5873" d="M494.215,307.056s9.925,1.61,10.73,8.182,1.341,10.462,2.682,12.206,5.5,6.171,4.694,10.865-5.5,6.707-9.925,8.584-5.232,6.84-5.232,6.84l-4.56.536a83.552,83.552,0,0,0-12.072-18.912c-2.682,2.683-4.694,2.28-6.438.4s-2.818-9.657,4.56-5.633C478.656,330.126,479.327,310.946,494.215,307.056Z" transform="translate(-472.822 -307.056)" fill="#ffd199"/>
      </g>
      <g id="Group_3532" data-name="Group 3532" transform="translate(492.29 305.879)">
        <path id="Path_5874" data-name="Path 5874" d="M496.506,306.451l.155.012a5.643,5.643,0,0,1,.645.072,5.749,5.749,0,0,1,1.963.74,4.243,4.243,0,0,1,1.153,1.006,3.116,3.116,0,0,1,.459.824l.044.117.01.03,0,.007c-.006-.018.06.182.032.1l0,.009.007.036.024.147c0,.023.026.157.036.268a2.955,2.955,0,0,1,.014.334,2.544,2.544,0,0,1-.289,1.028,3.08,3.08,0,0,1-.541.725,6,6,0,0,1-1.186.9c-.4.236-.713.436-1.168.674a9.488,9.488,0,0,0-1.028.548,1.1,1.1,0,0,0-.525.621.694.694,0,0,0,.009.383,1.009,1.009,0,0,0,.18.343,2.346,2.346,0,0,0,.6.539,2.8,2.8,0,0,0,.589.287,2.057,2.057,0,0,0,.418.1l.154.01-.154.027a2.2,2.2,0,0,1-.447,0,3.008,3.008,0,0,1-.69-.151,2.771,2.771,0,0,1-.838-.452,1.561,1.561,0,0,1-.4-.469,1.4,1.4,0,0,1-.182-.662,1.931,1.931,0,0,1,.589-1.343,9.952,9.952,0,0,1,.992-.892c.256-.22.606-.572.892-.851a4.173,4.173,0,0,0,.688-.84.936.936,0,0,0,.128-.333.217.217,0,0,0-.032-.162.048.048,0,0,0-.015.035c0,.011.015.046-.015-.025l-.058-.136-.015-.034,0-.008c-.029-.085.037.111.031.091h0l0,0-.019-.015a.934.934,0,0,0-.161-.122,2.009,2.009,0,0,0-.515-.217,2.867,2.867,0,0,0-1.02-.093c-.158.011-.095.029-.226.042l-.153.025Z" transform="translate(-495.557 -306.451)" fill="#001428"/>
      </g>
      <g id="Group_3533" data-name="Group 3533" transform="translate(476.674 321.194)">
        <path id="Path_5875" data-name="Path 5875" d="M481.765,322.959s1.564,11.089-3.04,8.226A18.62,18.62,0,0,1,481.765,322.959Z" transform="translate(-478.725 -322.959)" fill="#001428"/>
      </g>
      <g id="Group_3534" data-name="Group 3534" transform="translate(475.605 304.383)">
        <path id="Path_5876" data-name="Path 5876" d="M498.761,308.147s-7.333,1.521-12.251,6.8S479,329.966,479,329.966l-1.252-.715s-1.252-10.82,2.95-17.258,9.3-7.154,9.3-7.154S495.631,306.181,498.761,308.147Z" transform="translate(-477.573 -304.839)" fill="#ff1f5f"/>
      </g>
      <g id="Group_3535" data-name="Group 3535" transform="translate(479.356 309.301)">
        <path id="Path_5877" data-name="Path 5877" d="M488.591,310.14l-.347.406c-.222.257-.524.635-.889,1.087s-.772.992-1.2,1.573-.881,1.208-1.313,1.848c-.225.314-.43.641-.641.957l-.6.94-.547.889c-.178.281-.331.556-.474.807l-.4.687-.3.535-.265.465.2-.5c.131-.314.3-.77.566-1.291.126-.263.262-.55.42-.845s.311-.614.5-.926.367-.647.578-.967.412-.655.636-.974c.443-.642.9-1.272,1.365-1.838.222-.29.461-.551.677-.806s.431-.488.633-.7c.393-.432.755-.76,1-1S488.591,310.14,488.591,310.14Z" transform="translate(-481.616 -310.14)" fill="#b70053"/>
      </g>
      <g id="Group_3536" data-name="Group 3536" transform="translate(477.657 310.285)">
        <path id="Path_5878" data-name="Path 5878" d="M483.541,311.2l-.187.465c-.123.293-.274.724-.469,1.232s-.4,1.111-.624,1.752-.457,1.329-.68,2.019c-.113.345-.232.688-.337,1.029l-.323,1-.568,1.773-.406,1.256-.161.475.088-.495c.067-.312.135-.764.266-1.294s.266-1.155.45-1.814.393-1.358.619-2.052c.113-.347.238-.69.356-1.029s.252-.667.373-.987c.253-.636.514-1.221.744-1.717s.45-.9.6-1.179S483.541,311.2,483.541,311.2Z" transform="translate(-479.785 -311.2)" fill="#b70053"/>
      </g>
      <g id="Group_3537" data-name="Group 3537" transform="translate(493.484 298.661)">
        <path id="Path_5879" data-name="Path 5879" d="M496.844,305.109s.537-5.275,5.812-5.99a41.813,41.813,0,0,1,8.853-.358s-1.341,5.991-3.935,8.405c-2.233,2.08-6.8,3.756-10.014.447A8.061,8.061,0,0,1,496.844,305.109Z" transform="translate(-496.844 -298.671)" fill="#ff1f5f"/>
      </g>
      <g id="Group_3538" data-name="Group 3538" transform="translate(494.158 304.026)">
        <path id="Path_5880" data-name="Path 5880" d="M502.352,304.454c-.737.371-1.461.754-2.179,1.143s-1.419.8-2.094,1.252l-.013-.327a.742.742,0,0,0,.179.046,1.286,1.286,0,0,0,.23.02,4.84,4.84,0,0,0,.491-.006c.331-.018.667-.054,1-.09l2.025-.251c-.322.116-.651.206-.981.3s-.662.172-1,.237a9.834,9.834,0,0,1-1.021.16,4.133,4.133,0,0,1-.529.028,1.635,1.635,0,0,1-.279-.021,1.006,1.006,0,0,1-.31-.088l-.3-.127.29-.2c.343-.237.7-.455,1.059-.657s.732-.39,1.107-.564.757-.332,1.144-.477S501.951,304.556,502.352,304.454Z" transform="translate(-497.571 -304.454)" fill="#b70053"/>
      </g>
      <g id="Group_3539" data-name="Group 3539" transform="translate(475.6 302.774)">
        <path id="Path_5881" data-name="Path 5881" d="M492.769,305.966a8.021,8.021,0,0,0-5.812-2.862c-3.576,0-5.812,2.951-9.389,5.991,2.682,2.414,6.975,4.114,10.283,3.129a23.949,23.949,0,0,0,6.349-3.218S494.2,306.055,492.769,305.966Z" transform="translate(-477.568 -303.104)" fill="#ff1f5f"/>
      </g>
      <g id="Group_3540" data-name="Group 3540" transform="translate(475.6 302.774)">
        <path id="Path_5882" data-name="Path 5882" d="M492.769,305.966a8.021,8.021,0,0,0-5.812-2.862c-3.576,0-5.812,2.951-9.389,5.991,2.682,2.414,6.975,4.114,10.283,3.129a23.949,23.949,0,0,0,6.349-3.218S494.2,306.055,492.769,305.966Z" transform="translate(-477.568 -303.104)" fill="#ff1f5f"/>
      </g>
      <g id="Group_3541" data-name="Group 3541" transform="translate(475.6 308.676)">
        <path id="Path_5883" data-name="Path 5883" d="M477.568,309.555s.226.177.627.477c.206.142.445.326.744.506s.633.38,1,.593l.59.306.646.3.7.275c.243.077.486.174.738.252a11.633,11.633,0,0,0,1.584.379,9.431,9.431,0,0,0,1.667.134,7.228,7.228,0,0,0,1.649-.192,12.584,12.584,0,0,0,1.553-.495c.494-.2.973-.387,1.417-.593s.86-.408,1.24-.6c.757-.4,1.381-.747,1.808-1.008s.67-.413.67-.413-.221.184-.628.477-1,.705-1.743,1.138a20.971,20.971,0,0,1-2.639,1.319,12.927,12.927,0,0,1-1.589.533,7.533,7.533,0,0,1-1.734.229,9.837,9.837,0,0,1-1.732-.166,12,12,0,0,1-1.625-.416c-.258-.086-.508-.183-.751-.276l-.7-.314-.644-.331-.584-.339a11.509,11.509,0,0,1-.974-.664c-.286-.2-.515-.408-.711-.566s-.328-.3-.429-.394Z" transform="translate(-477.568 -309.466)" fill="#b70053"/>
      </g>
      <g id="Group_3542" data-name="Group 3542" transform="translate(490.802 304.476)">
        <path id="Path_5884" data-name="Path 5884" d="M493.953,306.1s.536-1.7,1.789-.984c1.341-.357,2.593,1.342,2.235,2.862s-1.163.715-1.163.715-.357,1.162-1.341.983S495.384,306.9,493.953,306.1Z" transform="translate(-493.953 -304.939)" fill="#e2005c"/>
      </g>
      <g id="Group_3543" data-name="Group 3543" transform="translate(512.701 340.088)">
        <path id="Path_5885" data-name="Path 5885" d="M543.14,380.407s12.161,5.186,17.884,6.081,11.356-2.325,11.356-2.325-7.779-11.178-22.8-21.908l-8.853-6.081s-8.048-9.478-9.836-11.088-2.593-2.325-4.829-1.252a28.113,28.113,0,0,0-5.275,3.935,15.522,15.522,0,0,0-3.13,1.521c-.715.625,2.683,5.811,3.755,7.69,0,0,3.667,2.861,4.74,3.129Z" transform="translate(-517.557 -343.324)" fill="#f9c38a"/>
      </g>
      <g id="Group_3544" data-name="Group 3544" transform="translate(533.682 363.946)">
        <path id="Path_5886" data-name="Path 5886" d="M540.88,369.04l.13.271c.082.173.212.426.384.75s.392.709.642,1.154c.27.433.552.937.905,1.458l.539.821.61.856c.406.6.9,1.179,1.376,1.807l.778.914c.265.307.524.627.817.92.573.6,1.136,1.224,1.766,1.783l.921.862.964.8c.324.259.632.534.96.773l.981.7c.326.224.632.466.957.662l.956.574.906.545c.3.162.6.3.882.442.571.276,1.086.546,1.557.754l1.245.48,1.086.418-1.1-.387-1.261-.444c-.478-.195-1-.451-1.583-.711-.288-.135-.594-.264-.9-.418l-.926-.52-.979-.55c-.334-.188-.648-.423-.983-.639l-1.008-.674c-.339-.231-.656-.5-.99-.751l-1-.777-.955-.843c-.653-.547-1.24-1.164-1.839-1.752-.305-.289-.576-.6-.854-.907l-.816-.9c-.5-.622-1.019-1.2-1.448-1.792l-.644-.852-.572-.818c-.374-.52-.676-1.023-.964-1.457-.268-.447-.509-.832-.691-1.161s-.327-.585-.421-.769l-.141-.274Z" transform="translate(-540.173 -369.04)" fill="#c98343"/>
      </g>
      <g id="Group_3545" data-name="Group 3545" transform="translate(521.964 362.506)">
        <path id="Path_5887" data-name="Path 5887" d="M540.15,368.963l4.158,13.547-2.682-.67s1.878,4.963-1.476,1.878c0,0-1.609,5.231-5.365,3.085a46.862,46.862,0,0,1-6.3-4.293l-.939-15.022Z" transform="translate(-527.542 -367.488)" fill="#00384c"/>
      </g>
      <g id="Group_3546" data-name="Group 3546" transform="translate(523.928 316.123)">
        <path id="Path_5888" data-name="Path 5888" d="M530.333,354.219l23.607-1.163-8.585-28.794s-2.325,4.561-3.487,5.187-10.819,1.252-10.819,1.252a13.341,13.341,0,0,1-1.342-2.593c-.089-.626,1.252-.894,1.252-.894l-.8-1.789s1.52-6.8,2.236-7.421,14.307-.537,15.379-.447,17.616,39.344,20.388,45.6c-10.194,1.073-37.825,4.2-37.735,3.935S528.724,357.08,530.333,354.219Z" transform="translate(-529.659 -317.494)" fill="#ffd199"/>
      </g>
      <g id="Group_3547" data-name="Group 3547" transform="translate(481.222 350.881)">
        <path id="Path_5889" data-name="Path 5889" d="M528.975,370.07a20.007,20.007,0,0,1-1.341-13.323s-18.689.447-21.639.536a84.325,84.325,0,0,0-8.585,1.073l1.7-3.219-10.819-.179a41.263,41.263,0,0,1,2.682,3.577,100.148,100.148,0,0,1-6.081,8.763c-2.414,2.861-.625,3.487-.625,3.487s1.431,3.4,6.349,12.787,9.836,28.614,9.836,28.614h25.484s1.878-13.86,2.146-18.867c.194-3.606.387-14.119.48-19.724.012-.709-2.425-3.327-2.425-3.327l2.483-.288-.057-.06Z" transform="translate(-483.628 -354.958)" fill="#005a82"/>
      </g>
      <g id="Group_3548" data-name="Group 3548" transform="translate(507.97 365.993)">
        <path id="Path_5890" data-name="Path 5890" d="M531.058,371.247c-.472.081-.945.168-1.421.233l-.714.095c-.24.029-.474.057-.725.073l.083-.236a10.742,10.742,0,0,1,1.482,1.352,5.086,5.086,0,0,1,.612.829,1.547,1.547,0,0,1,.235,1.131,1.009,1.009,0,0,1-.381.537.947.947,0,0,1-.146.095l-.109.056a1.26,1.26,0,0,1-.333.086,2.048,2.048,0,0,1-1.109-.258c-.317-.153-.6-.328-.88-.479a2.467,2.467,0,0,0-.794-.315.569.569,0,0,0-.559.236,2.325,2.325,0,0,0-.378.757,14.784,14.784,0,0,1-.589,1.928,2.552,2.552,0,0,1-.719.9,2.015,2.015,0,0,1-1.132.4,4.474,4.474,0,0,1-2.069-.559c-.613-.3-1.183-.651-1.744-.979a8.819,8.819,0,0,0-.828-.44,1.465,1.465,0,0,0-.689-.146c-.015.006.007-.011,0-.016s-.005,0-.006.018a.243.243,0,0,1-.008.057,1.719,1.719,0,0,0,.066.391c.078.29.195.6.305.91a8.338,8.338,0,0,1,.459,1.995,3.184,3.184,0,0,1-.081,1.073,1.765,1.765,0,0,1-.61.949,2.127,2.127,0,0,1-1.016.4,3.885,3.885,0,0,1-1.033,0,9.931,9.931,0,0,1-1.943-.481,18.024,18.024,0,0,1-1.831-.756,14.825,14.825,0,0,0,3.8.883,2.494,2.494,0,0,0,1.714-.417,1.783,1.783,0,0,0,.418-1.595,7.777,7.777,0,0,0-.5-1.821c-.115-.3-.242-.611-.344-.953a2.3,2.3,0,0,1-.1-.578.925.925,0,0,1,.09-.4.663.663,0,0,1,.37-.324,1.328,1.328,0,0,1,.689-.023l.121.025.06.013.05.011.035.011a2.4,2.4,0,0,1,.269.095,7.785,7.785,0,0,1,.922.469c.577.33,1.132.665,1.7.938a3.958,3.958,0,0,0,1.7.476,1.367,1.367,0,0,0,1.2-.863,4.132,4.132,0,0,0,.3-.855,8.446,8.446,0,0,1,.282-.979,2.974,2.974,0,0,1,.536-.977,1.4,1.4,0,0,1,.528-.384,1.249,1.249,0,0,1,.663-.064,2.956,2.956,0,0,1,1.023.421c.291.173.562.356.833.5a1.506,1.506,0,0,0,.772.235.8.8,0,0,0,.147-.023l.112-.051a.6.6,0,0,0,.061-.038.471.471,0,0,0,.195-.238,1.077,1.077,0,0,0-.142-.757,4.63,4.63,0,0,0-.514-.786,11.919,11.919,0,0,0-1.328-1.413l-.268-.242.352.007c.227,0,.472,0,.709-.014l.716-.036Z" transform="translate(-512.458 -371.247)" fill="#002133"/>
      </g>
      <g id="Group_3549" data-name="Group 3549" transform="translate(495.335 356.067)">
        <path id="Path_5891" data-name="Path 5891" d="M500.387,360.548s-.038.058-.1.173-.135.286-.233.5a8.2,8.2,0,0,0-.275.806,3.338,3.338,0,0,0-.123.506c-.031.181-.091.363-.108.563l-.07.619c-.017.213-.013.437-.021.663l-.006.345.032.353c.026.237.028.482.062.726a12.713,12.713,0,0,0,.322,1.495l.214.758c.091.249.2.494.3.74s.18.5.3.74l.359.71.352.7.4.656c.271.425.49.866.775,1.235s.519.742.749,1.08.469.624.668.892l.524.687c.288.384.448.61.448.61s-.208-.179-.562-.5l-.635-.595a8.979,8.979,0,0,1-.792-.805c-.273-.312-.568-.651-.872-1.018a11.536,11.536,0,0,1-.886-1.212l-.446-.658c-.139-.23-.263-.475-.392-.718l-.388-.736c-.124-.25-.216-.517-.325-.776s-.206-.523-.3-.789l-.215-.811-.106-.4c-.032-.134-.041-.273-.062-.407l-.106-.8c-.022-.264-.019-.527-.021-.782v-.378l.037-.368c.031-.242.041-.478.086-.7l.149-.643a5.238,5.238,0,0,1,.185-.576,3.47,3.47,0,0,1,.206-.5,5.833,5.833,0,0,1,.417-.775A4.135,4.135,0,0,1,500.387,360.548Z" transform="translate(-498.84 -360.548)" fill="#002133"/>
      </g>
      <g id="Group_3550" data-name="Group 3550" transform="translate(520.93 354.369)">
        <path id="Path_5892" data-name="Path 5892" d="M526.881,358.717l.1,1.8c.04.534.072,1.155.134,1.817.019.331.07.67.1,1.016s.086.693.128,1.043.1.695.161,1.035c.08.335.12.674.2.993s.141.632.23.919.162.564.246.815.176.474.249.68.163.369.222.516c.127.287.2.459.2.459s-.122-.133-.328-.377a4.164,4.164,0,0,1-.355-.457c-.12-.187-.255-.4-.4-.639s-.254-.514-.386-.8-.232-.606-.344-.933-.192-.673-.276-1.024c-.068-.354-.136-.714-.194-1.076-.034-.364-.088-.726-.106-1.085s-.034-.712-.033-1.053.012-.671.029-.982.051-.606.077-.877A10.718,10.718,0,0,1,526.881,358.717Z" transform="translate(-526.428 -358.717)" fill="#002133"/>
      </g>
      <g id="Group_3551" data-name="Group 3551" transform="translate(514.319 344.98)">
        <path id="Path_5893" data-name="Path 5893" d="M530.39,348.6c.894,1.431,2.683,4.2,2.236,5.1a2.026,2.026,0,0,1-1.253,1.072s1.61,1.878.805,3.04a1.792,1.792,0,0,1-2.236.447,1.047,1.047,0,0,1-.894,1.073,1.753,1.753,0,0,1-1.7-.715s0,2.146-1.073,1.878-4.74-3.129-4.74-3.129l-2.235-3.846Z" transform="translate(-519.302 -348.597)" fill="#f9c38a"/>
      </g>
      <g id="Group_3552" data-name="Group 3552" transform="translate(516.554 344.98)">
        <path id="Path_5894" data-name="Path 5894" d="M521.711,357.361c1.109.79,2.227,1.569,3.376,2.284.287.179.581.347.878.5a3.02,3.02,0,0,0,.447.186l.056.019.014,0c-.033,0,0,0,0,0l.032,0,.127.013a.416.416,0,0,0,.167-.046.609.609,0,0,0,.274-.3,1.945,1.945,0,0,0,.158-.44,4.43,4.43,0,0,0,.116-.97l.006-.493.3.392a2.065,2.065,0,0,0,.274.284,1.757,1.757,0,0,0,.326.227,1.329,1.329,0,0,0,.357.139,1.113,1.113,0,0,0,.371.023,1.758,1.758,0,0,0,.184-.033c.047-.018.14-.043.189-.067a1.115,1.115,0,0,0,.305-.192.754.754,0,0,0,.2-.286.828.828,0,0,0,.048-.169.74.74,0,0,0,.01-.162l-.026-.33.3.138a2.272,2.272,0,0,0,.309.111,2.245,2.245,0,0,0,.329.065,1.625,1.625,0,0,0,.644-.038,1.211,1.211,0,0,0,.29-.122l.132-.087.118-.108a1.433,1.433,0,0,0,.195-.242l.088-.16c.019-.049.026-.093.042-.138a1.276,1.276,0,0,0,.044-.309,1.816,1.816,0,0,0-.03-.329,2.751,2.751,0,0,0-.2-.654,5.392,5.392,0,0,0-.739-1.2l-.166-.207.257-.066a1.638,1.638,0,0,0,.377-.158,1.923,1.923,0,0,0,.346-.247,1.947,1.947,0,0,0,.285-.319,1.674,1.674,0,0,0,.115-.182l.027-.046s.018-.035.006,0l.008-.028.036-.109a1.081,1.081,0,0,0,.006-.4,2.666,2.666,0,0,0-.094-.431,6.9,6.9,0,0,0-.319-.848c-.249-.556-.528-1.1-.826-1.638l-.914-1.6c.348.508.691,1.018,1.018,1.54a16.656,16.656,0,0,1,.917,1.61,7.268,7.268,0,0,1,.36.866,3.172,3.172,0,0,1,.118.465,1.524,1.524,0,0,1,.025.251,1.083,1.083,0,0,1-.026.267l-.032.11-.008.028a.35.35,0,0,1-.021.047l-.029.054a2.1,2.1,0,0,1-.124.212,2.231,2.231,0,0,1-.315.379,2.306,2.306,0,0,1-.393.3,1.8,1.8,0,0,1-.468.2l.09-.273a5.893,5.893,0,0,1,.444.61,5.015,5.015,0,0,1,.362.662,3.094,3.094,0,0,1,.238.733,2.073,2.073,0,0,1,.039.4,1.579,1.579,0,0,1-.055.412c-.021.07-.044.145-.069.209l-.087.161a1.676,1.676,0,0,1-.254.329l-.15.14-.171.117a1.675,1.675,0,0,1-.379.165,1.943,1.943,0,0,1-.8.056,2.581,2.581,0,0,1-.385-.081,2.48,2.48,0,0,1-.375-.141l.276-.192a1.05,1.05,0,0,1-.016.27,1.2,1.2,0,0,1-.073.247,1.156,1.156,0,0,1-.3.418,1.451,1.451,0,0,1-.43.262c-.083.034-.131.045-.22.074a2.441,2.441,0,0,1-.244.043,1.5,1.5,0,0,1-.49-.036,1.741,1.741,0,0,1-.447-.179,2.164,2.164,0,0,1-.382-.274,2.378,2.378,0,0,1-.322-.344l.31-.1a4.738,4.738,0,0,1-.138,1.051,2.149,2.149,0,0,1-.2.511.908.908,0,0,1-.425.417.721.721,0,0,1-.325.063l-.126-.018-.031,0-.034-.006-.016-.006-.066-.023a3.323,3.323,0,0,1-.486-.221c-.3-.168-.6-.349-.88-.54-.572-.376-1.119-.783-1.659-1.2S522.232,357.8,521.711,357.361Z" transform="translate(-521.711 -348.597)" fill="#c98343"/>
      </g>
      <g id="Group_3553" data-name="Group 3553" transform="translate(472.649 330.959)">
        <path id="Path_5895" data-name="Path 5895" d="M474.387,335.255a2.278,2.278,0,0,1,.258-.584c.057-.091.118-.181.184-.268a2.268,2.268,0,0,1,.222-.241,1.922,1.922,0,0,1,.253-.212,1.777,1.777,0,0,1,.283-.175,1.97,1.97,0,0,1,.306-.138c.107-.031.213-.07.323-.093l.332-.049a2.356,2.356,0,0,1,.334,0,1.633,1.633,0,0,1,.33.026l.327.052a2.905,2.905,0,0,1,.315.09l.312.1c.2.086.4.173.591.265l.158.074-.073.162c-.043.1-.093.193-.125.29a1.857,1.857,0,0,0-.089.293.829.829,0,0,0-.017.285.533.533,0,0,0,.091.25.7.7,0,0,0,.212.195,1.453,1.453,0,0,0,.285.14,4.688,4.688,0,0,0,.643.17,3,3,0,0,1-.68-.036,1.112,1.112,0,0,1-.649-.315.74.74,0,0,1-.179-.353,1.09,1.09,0,0,1-.016-.382,1.7,1.7,0,0,1,.076-.355c.033-.116.08-.223.122-.332l.084.237c-.191-.072-.379-.15-.566-.229l-.29-.085c-.1-.026-.192-.061-.289-.081l-.294-.052a1.367,1.367,0,0,0-.294-.029c-.1,0-.2-.016-.3-.007l-.292.026c-.1.015-.19.044-.286.065a1.658,1.658,0,0,0-.277.095,1.6,1.6,0,0,0-.265.131,1.9,1.9,0,0,0-.251.161,2.862,2.862,0,0,0-.234.192c-.074.069-.147.142-.216.218A3.283,3.283,0,0,0,474.387,335.255Z" transform="translate(-474.387 -333.485)" fill="#c98343"/>
      </g>
      <g id="Group_3566" data-name="Group 3566" transform="translate(486.51 315.829)">
        <g id="Group_3554" data-name="Group 3554" transform="translate(13.761 5.5)">
          <path id="Path_5896" data-name="Path 5896" d="M504.214,328.693s-.358-3.219.76-4.337,1.833-1.475,2.593-1.118c.492,1.252.76,4.025.135,4.74S504.929,329.229,504.214,328.693Z" transform="translate(-504.159 -323.104)" fill="#fff"/>
        </g>
        <g id="Group_3555" data-name="Group 3555" transform="translate(0.581 7.434)">
          <path id="Path_5897" data-name="Path 5897" d="M490.4,327.681l-.447,1.431a4.318,4.318,0,0,0,2.638,1.565c1.476.089,3.219.268,4.516-.314.983-.536.894-1.252.894-1.252s-1.118-2.728-2.817-3.576A3.429,3.429,0,0,0,490.4,327.681Z" transform="translate(-489.953 -325.189)" fill="#fff"/>
        </g>
        <g id="Group_3556" data-name="Group 3556" transform="translate(11.267 6.796)">
          <path id="Path_5898" data-name="Path 5898" d="M501.471,324.5l.3,2.518c.094.839.216,1.674.327,2.509s.24,1.668.4,2.493c.04.206.074.413.12.618s.081.411.132.614l.151.608.175.6-.238-.108a7.914,7.914,0,0,1,1.322-.417,1.9,1.9,0,0,1,.736-.031.461.461,0,0,1,.353.279.652.652,0,0,1-.019.412,2.654,2.654,0,0,1-.334.626c-.132.191-.279.366-.426.542q-.447.519-.939.99c.283-.355.568-.709.829-1.076.129-.184.256-.371.367-.563a2.451,2.451,0,0,0,.275-.584.424.424,0,0,0,.007-.255.2.2,0,0,0-.171-.1,1.661,1.661,0,0,0-.611.067,9.545,9.545,0,0,0-1.255.445l-.179.076-.059-.185-.2-.613-.16-.621c-.054-.207-.093-.416-.14-.623s-.087-.417-.122-.626q-.228-1.255-.359-2.52c-.1-.841-.152-1.688-.207-2.532S501.469,325.348,501.471,324.5Z" transform="translate(-501.471 -324.501)" fill="#c98343"/>
        </g>
        <g id="Group_3557" data-name="Group 3557" transform="translate(6.617 22.712)">
          <path id="Path_5899" data-name="Path 5899" d="M503.344,342.551a1.844,1.844,0,0,1-.2.282,3.41,3.41,0,0,1-.271.29l-.183.167-.221.161a2.97,2.97,0,0,1-.546.3l-.32.123-.35.079a1.937,1.937,0,0,1-.368.045,2.077,2.077,0,0,1-.379.011,3.93,3.93,0,0,1-.764-.113l-.374-.1-.351-.147-.343-.148-.311-.186a4.2,4.2,0,0,1-.569-.378l-.472-.383a3.307,3.307,0,0,1-.367-.356l-.271-.286c-.148-.159-.229-.253-.229-.253s.1.07.281.2l.314.231c.124.084.251.2.411.289l.5.318a5.731,5.731,0,0,0,.572.318l.3.16.327.126.329.131.344.084a3.463,3.463,0,0,0,.69.116,2.641,2.641,0,0,0,.342,0,1.643,1.643,0,0,0,.333-.021l.321-.05.3-.084a1.831,1.831,0,0,0,.278-.1,2.066,2.066,0,0,0,.255-.114,4,4,0,0,0,.427-.249,3.23,3.23,0,0,0,.309-.23A2.943,2.943,0,0,0,503.344,342.551Z" transform="translate(-496.459 -341.657)" fill="#c98343"/>
        </g>
        <g id="Group_3558" data-name="Group 3558" transform="translate(0 2.985)">
          <path id="Path_5900" data-name="Path 5900" d="M497.844,322.1l-.069-.055c-.035-.03-.113-.083-.205-.145s-.214-.135-.359-.209-.313-.15-.5-.233-.392-.156-.618-.22-.464-.127-.714-.186-.517-.091-.786-.125c-.272-.015-.547-.06-.826-.053s-.558-.014-.832.014-.547.023-.806.07l-.753.107-.67.134a5.74,5.74,0,0,0-.566.127l-.435.109-.381.092.361-.151.417-.171a4.937,4.937,0,0,1,.552-.2l.664-.2c.238-.064.495-.112.758-.173s.542-.09.823-.136.572-.057.862-.08.583-.007.87-.012c.287.014.571.035.845.068a7.94,7.94,0,0,1,1.481.335c.211.08.406.147.572.228s.313.152.43.216.207.122.277.173l.095.067a.393.393,0,0,1-.456.64l-.018-.013Z" transform="translate(-489.327 -320.394)" fill="#001428"/>
        </g>
        <g id="Group_3559" data-name="Group 3559" transform="translate(13.199)">
          <path id="Path_5901" data-name="Path 5901" d="M503.558,320.611c0,.008.017-.092.059-.235a4.958,4.958,0,0,1,.2-.574,5.366,5.366,0,0,1,.39-.756c.084-.132.175-.263.274-.392a4.066,4.066,0,0,1,.326-.369,3.852,3.852,0,0,1,.75-.595,2.616,2.616,0,0,1,.387-.2,1.906,1.906,0,0,1,.362-.138c.114-.033.215-.075.311-.092l.246-.044.212-.038-.2.071-.232.08c-.088.032-.182.087-.286.136a1.789,1.789,0,0,0-.321.185,2.394,2.394,0,0,0-.329.244,2.455,2.455,0,0,0-.315.3,2.586,2.586,0,0,0-.28.345,3.524,3.524,0,0,0-.238.374c-.069.129-.132.258-.187.384a4.875,4.875,0,0,0-.237.716,4.278,4.278,0,0,0-.1.518c-.016.124-.015.179-.017.187a.392.392,0,1,1-.777-.106Z" transform="translate(-503.554 -317.176)" fill="#001428"/>
        </g>
        <g id="Group_3560" data-name="Group 3560" transform="translate(0.647 6.661)">
          <path id="Path_5902" data-name="Path 5902" d="M490.025,328.761a3.99,3.99,0,0,1,.034-.515,6.54,6.54,0,0,1,.3-1.332,5.363,5.363,0,0,1,.361-.862,4,4,0,0,1,.627-.9,2.439,2.439,0,0,1,1.1-.7l.174-.053c.059-.011.121-.014.182-.02l.186-.014.093,0,.046,0h.017l.037,0,.017,0a4.31,4.31,0,0,1,.58.083,4.136,4.136,0,0,1,1.167.45,5.218,5.218,0,0,1,.936.672,6.958,6.958,0,0,1,1.248,1.511,6.617,6.617,0,0,1,.379.667c.107.2.184.385.248.534.127.3.183.482.183.482s-.142-.125-.375-.349-.565-.538-.956-.9c-.2-.182-.414-.37-.644-.561s-.477-.379-.733-.563a6.608,6.608,0,0,0-.817-.479,3.883,3.883,0,0,0-.859-.3,3.179,3.179,0,0,0-.5-.082l-.017,0,.028,0h-.007l-.021,0-.043,0h-.085c-.029,0-.057,0-.086,0l-.084.024a1.646,1.646,0,0,0-.683.356,4.28,4.28,0,0,0-.6.625c-.183.224-.348.456-.5.674-.289.443-.521.835-.682,1.112Z" transform="translate(-490.025 -324.356)" fill="#001428"/>
        </g>
        <g id="Group_3561" data-name="Group 3561" transform="translate(1.721 12.407)">
          <path id="Path_5903" data-name="Path 5903" d="M491.182,330.549a2.28,2.28,0,0,0,.243.118,3.89,3.89,0,0,0,.668.212,6.948,6.948,0,0,0,.969.156,8.962,8.962,0,0,0,1.124.032c.193,0,.385-.008.574-.025s.377-.02.557-.045.357-.029.522-.056.323-.044.469-.06c.291-.036.534-.075.705-.1s.272-.032.272-.032-.09.042-.251.1-.391.165-.677.245c-.143.042-.3.086-.465.129s-.343.075-.527.109a4.853,4.853,0,0,1-.572.081c-.2.021-.4.037-.6.039a5.6,5.6,0,0,1-.6-.014,5.01,5.01,0,0,1-.579-.068,4.389,4.389,0,0,1-.995-.285,2.678,2.678,0,0,1-.369-.185c-.106-.064-.195-.122-.265-.174A1.276,1.276,0,0,1,491.182,330.549Z" transform="translate(-491.182 -330.549)" fill="#001428"/>
        </g>
        <g id="Group_3562" data-name="Group 3562" transform="translate(13.582 5.131)">
          <path id="Path_5904" data-name="Path 5904" d="M504.11,327.836a2.459,2.459,0,0,1-.07-.3,4.919,4.919,0,0,1-.072-.8,5.691,5.691,0,0,1,.49-2.358,3.6,3.6,0,0,1,.792-1.141,2.192,2.192,0,0,1,.583-.4,1.533,1.533,0,0,1,.65-.133,1.193,1.193,0,0,1,.519.125,1.3,1.3,0,0,1,.318.207,1.645,1.645,0,0,1,.16.173l.051.064-.3-.02a1.969,1.969,0,0,0-.312.02.588.588,0,0,0-.169.04.636.636,0,0,0-.161.066,1.192,1.192,0,0,0-.293.214,2.445,2.445,0,0,0-.268.339c-.089.128-.171.279-.257.434s-.168.324-.242.5c-.318.691-.618,1.447-.9,2.012-.139.284-.264.522-.361.69S504.11,327.836,504.11,327.836Z" transform="translate(-503.967 -322.706)" fill="#001428"/>
        </g>
        <g id="Group_3563" data-name="Group 3563" transform="translate(14.53 10.194)">
          <path id="Path_5905" data-name="Path 5905" d="M507.939,328.164a1.462,1.462,0,0,1-.309.426,2.244,2.244,0,0,1-.424.338,2.905,2.905,0,0,1-.561.269,3.265,3.265,0,0,1-.606.136,2.681,2.681,0,0,1-.537,0,1.911,1.911,0,0,1-.375-.062c-.089-.022-.138-.039-.138-.039s.051-.016.139-.039.212-.046.358-.084.313-.078.49-.12.361-.1.542-.167a7.528,7.528,0,0,0,.979-.417C507.759,328.274,507.939,328.164,507.939,328.164Z" transform="translate(-504.989 -328.164)" fill="#001428"/>
        </g>
        <g id="Group_3564" data-name="Group 3564" transform="translate(1.05 7.241)">
          <path id="Path_5906" data-name="Path 5906" d="M496.092,326.794s-.671,2.682-2.615,2.682a3.212,3.212,0,0,1-3.018-1.676c.805-1.878,1.744-2.749,2.683-2.817S496.092,326.794,496.092,326.794Z" transform="translate(-490.459 -324.981)" fill="#001428"/>
        </g>
        <g id="Group_3565" data-name="Group 3565" transform="translate(13.793 5.632)">
          <path id="Path_5907" data-name="Path 5907" d="M506.541,323.248s.469,2.683-.268,3.689-1.342.872-2.079.268C504.529,325.059,506.072,323.181,506.541,323.248Z" transform="translate(-504.194 -323.246)" fill="#001428"/>
        </g>
      </g>
      <g id="Group_3567" data-name="Group 3567" transform="translate(485.794 306.499)">
        <path id="Path_5908" data-name="Path 5908" d="M488.556,307.865s.156-.061.436-.15.683-.213,1.177-.318a11.662,11.662,0,0,1,1.714-.26,5.938,5.938,0,0,1,.994.008,3.024,3.024,0,0,1,1.027.262.667.667,0,0,1,.277.236.4.4,0,0,1,.04.149.321.321,0,0,1-.036.15.485.485,0,0,1-.142.16,1.887,1.887,0,0,1-.511.225,8.014,8.014,0,0,1-.965.212c-.625.107-1.212.156-1.712.207s-.92.062-1.214.083l-.461.019.452-.095c.289-.052.7-.142,1.193-.226s1.068-.2,1.676-.327c.3-.063.615-.141.916-.234a1.6,1.6,0,0,0,.4-.174c.016-.013.033-.032.025-.022s-.011.053,0,.06a.607.607,0,0,0-.11-.072,2.684,2.684,0,0,0-.894-.238,6.812,6.812,0,0,0-.939-.04,14.745,14.745,0,0,0-1.69.132c-.494.069-.909.123-1.2.175Z" transform="translate(-488.556 -307.12)" fill="#b70053"/>
      </g>
      <g id="Group_3568" data-name="Group 3568" transform="translate(492.947 304.83)">
        <path id="Path_5909" data-name="Path 5909" d="M496.266,305.321a1.759,1.759,0,0,1,.421.4,2.594,2.594,0,0,1,.317.512,2.99,2.99,0,0,1,.222.657c.028.115.033.235.05.35a3.038,3.038,0,0,1,.008.341,2.807,2.807,0,0,1-.031.317,1.677,1.677,0,0,1-.059.277,1.938,1.938,0,0,1-.143.4c-.043.093-.071.144-.071.144s0-.06-.006-.16v-.178c.006-.068-.007-.147-.006-.229a6.2,6.2,0,0,0-.129-1.179,5.521,5.521,0,0,0-.158-.61c-.062-.192-.128-.372-.19-.525C496.37,305.531,496.266,305.321,496.266,305.321Z" transform="translate(-496.266 -305.321)" fill="#b70053"/>
      </g>
      <g id="Group_3569" data-name="Group 3569" transform="translate(516.018 345.248)">
        <path id="Path_5910" data-name="Path 5910" d="M527.482,358.633c-.4-.332-.791-.683-1.187-1.024l-1.158-1.056c-.767-.707-1.519-1.432-2.263-2.163l-.032-.032-.015-.043c-.308-.9-.615-1.792-.893-2.7-.139-.454-.283-.905-.419-1.359s-.265-.911-.382-1.372c.2.433.371.874.556,1.311s.347.882.521,1.324c.348.881.667,1.774.985,2.666l-.047-.075c.746.729,1.485,1.466,2.208,2.219l1.078,1.136C526.783,357.855,527.141,358.235,527.482,358.633Z" transform="translate(-521.133 -348.886)" fill="#c98343"/>
      </g>
      <g id="Group_3570" data-name="Group 3570" transform="translate(518.7 342.566)">
        <path id="Path_5911" data-name="Path 5911" d="M530.284,358.066c-.373-.458-.724-.931-1.086-1.4l-1.051-1.421c-.7-.949-1.375-1.914-2.047-2.883l-.015-.021-.008-.024c-.367-1.045-.735-2.09-1.073-3.145l-.507-1.584c-.157-.532-.325-1.059-.471-1.6.227.507.431,1.022.648,1.534l.61,1.547c.407,1.031.785,2.072,1.162,3.114l-.023-.045c.67.969,1.335,1.942,1.978,2.93l.96,1.484C529.667,357.06,529.986,357.556,530.284,358.066Z" transform="translate(-524.024 -345.995)" fill="#c98343"/>
      </g>
      <g id="Group_3571" data-name="Group 3571" transform="translate(521.294 342.208)">
        <path id="Path_5912" data-name="Path 5912" d="M531.916,354.551c-.586-.651-1.138-1.329-1.685-2.011s-1.076-1.376-1.6-2.074l-.014-.02-.009-.023c-.324-.791-.647-1.583-.942-2.386l-.442-1.206c-.134-.407-.28-.81-.4-1.222.2.379.386.765.58,1.149l.543,1.163c.361.777.693,1.564,1.025,2.352l-.023-.042c.518.7,1.034,1.407,1.528,2.129S531.46,353.8,531.916,354.551Z" transform="translate(-526.82 -345.609)" fill="#c98343"/>
      </g>
      <g id="Group_3572" data-name="Group 3572" transform="translate(525.228 320.747)">
        <path id="Path_5913" data-name="Path 5913" d="M537.678,322.477c.027.269.038.538.054.807s.02.537.029.806c.018.537.021,1.074.016,1.612v.135l-.135.04c-1.085.322-2.173.636-3.268.921-.547.144-1.1.273-1.649.41-.275.071-.553.128-.829.19s-.554.122-.833.175c.265-.1.532-.2.8-.294s.532-.194.8-.279c.538-.176,1.074-.359,1.615-.529,1.08-.34,2.168-.652,3.258-.956l-.135.175c.024-.536.057-1.072.1-1.608.023-.267.039-.535.073-.8S537.636,322.744,537.678,322.477Z" transform="translate(-531.06 -322.477)" fill="#c98343"/>
      </g>
      <g id="Group_3573" data-name="Group 3573" transform="translate(527.195 321.851)">
        <path id="Path_5914" data-name="Path 5914" d="M537.87,323.964s-.067.054-.181.13a4.607,4.607,0,0,1-.492.283,5.689,5.689,0,0,1-1.608.513,6.356,6.356,0,0,1-.892.077l-.409-.011c-.131,0-.252-.024-.366-.033a4.965,4.965,0,0,1-.539-.085l-.2-.038.206.021a4.825,4.825,0,0,0,.541.041c.112,0,.234.014.362,0l.4-.022a6.23,6.23,0,0,0,.858-.145,5.419,5.419,0,0,0,1.487-.611,3.5,3.5,0,0,0,.575-.419Z" transform="translate(-533.181 -323.667)" fill="#c98343"/>
      </g>
      <g id="Group_3574" data-name="Group 3574" transform="translate(528.968 322.953)">
        <rect id="Rectangle_644" data-name="Rectangle 644" width="1.808" height="0.392" transform="translate(0 1.788) rotate(-81.466)" fill="#c98343"/>
      </g>
      <g id="Group_3575" data-name="Group 3575" transform="translate(532.247 367.379)">
        <path id="Path_5915" data-name="Path 5915" d="M538.626,372.741l.056.106.164.282c.139.241.338.594.557,1.021s.469.928.719,1.472c.121.274.257.552.376.843l.369.878.345.887c.118.291.213.586.316.867.2.564.371,1.1.5,1.56.275.922.394,1.563.394,1.563s-.364-.542-.812-1.393c-.227-.424-.477-.925-.727-1.47-.122-.274-.26-.551-.379-.842l-.369-.878-.345-.889c-.116-.292-.211-.587-.313-.869-.2-.566-.367-1.1-.5-1.564s-.226-.854-.287-1.135A3.549,3.549,0,0,1,538.626,372.741Z" transform="translate(-538.626 -372.741)" fill="#002133"/>
      </g>
      <g id="Group_3576" data-name="Group 3576" transform="translate(506.674 375.382)">
        <path id="Path_5916" data-name="Path 5916" d="M511.061,381.367s.479,2,1.037,5.045c.133.762.288,1.585.428,2.459s.3,1.794.432,2.752.27,1.945.4,2.952.24,2.031.363,3.054c.092,1.027.183,2.054.274,3.065.065,1.013.146,2.009.194,2.973s.087,1.9.1,2.786l.013,2.5-.067,2.109c-.01.628-.08,1.174-.106,1.624l-.117,1.411.04-1.416c.008-.45.053-.995.037-1.623l-.008-2.105L514,406.463c-.033-.883-.109-1.813-.151-2.775s-.146-1.955-.22-2.964l-.3-3.054c-.113-1.021-.209-2.046-.335-3.05s-.24-1.995-.376-2.949l-.378-2.755c-.118-.877-.25-1.7-.364-2.466-.24-1.524-.43-2.8-.585-3.685Z" transform="translate(-511.061 -381.367)" fill="#002133"/>
      </g>
      <g id="Group_3605" data-name="Group 3605" transform="translate(475.6 298.661)">
        <g id="Group_3604" data-name="Group 3604" clip-path="url(#clip-path)">
          <g id="Group_3577" data-name="Group 3577" transform="translate(6.438 7.779)">
            <circle id="Ellipse_575" data-name="Ellipse 575" cx="0.492" cy="0.492" r="0.492" fill="#fff"/>
          </g>
          <g id="Group_3578" data-name="Group 3578" transform="translate(11.803 5.7)">
            <circle id="Ellipse_576" data-name="Ellipse 576" cx="0.492" cy="0.492" r="0.492" fill="#fff"/>
          </g>
          <g id="Group_3579" data-name="Group 3579" transform="translate(2.079 9.121)">
            <path id="Path_5917" data-name="Path 5917" d="M480.792,308.994a.492.492,0,1,1-.492-.492A.491.491,0,0,1,480.792,308.994Z" transform="translate(-479.809 -308.502)" fill="#fff"/>
          </g>
          <g id="Group_3580" data-name="Group 3580" transform="translate(1.744 23.517)">
            <circle id="Ellipse_577" data-name="Ellipse 577" cx="0.492" cy="0.492" r="0.492" fill="#fff"/>
          </g>
          <g id="Group_3581" data-name="Group 3581" transform="translate(0.604 27.407)">
            <circle id="Ellipse_578" data-name="Ellipse 578" cx="0.492" cy="0.492" r="0.492" fill="#fff"/>
          </g>
          <g id="Group_3582" data-name="Group 3582" transform="translate(2.481 12.586)">
            <circle id="Ellipse_579" data-name="Ellipse 579" cx="0.492" cy="0.492" r="0.492" fill="#fff"/>
          </g>
          <g id="Group_3583" data-name="Group 3583" transform="translate(3.554 19.65)">
            <circle id="Ellipse_580" data-name="Ellipse 580" cx="0.492" cy="0.492" r="0.492" fill="#fff"/>
          </g>
          <g id="Group_3584" data-name="Group 3584" transform="translate(6.84 14.732)">
            <path id="Path_5918" data-name="Path 5918" d="M485.924,315.042a.492.492,0,1,1-.492-.492A.491.491,0,0,1,485.924,315.042Z" transform="translate(-484.941 -314.55)" fill="#fff"/>
          </g>
          <g id="Group_3585" data-name="Group 3585" transform="translate(1.609 19.225)">
            <circle id="Ellipse_581" data-name="Ellipse 581" cx="0.492" cy="0.492" r="0.492" fill="#fff"/>
          </g>
          <g id="Group_3586" data-name="Group 3586" transform="translate(1.14 16.073)">
            <path id="Path_5919" data-name="Path 5919" d="M479.78,316.488a.492.492,0,1,1-.492-.492A.492.492,0,0,1,479.78,316.488Z" transform="translate(-478.797 -315.996)" fill="#fff"/>
          </g>
          <g id="Group_3587" data-name="Group 3587" transform="translate(-0.335 22.019)">
            <circle id="Ellipse_582" data-name="Ellipse 582" cx="0.492" cy="0.492" r="0.492" fill="#fff"/>
          </g>
          <g id="Group_3588" data-name="Group 3588" transform="translate(4.694 6.215)">
            <circle id="Ellipse_583" data-name="Ellipse 583" cx="0.492" cy="0.492" r="0.492" fill="#fff"/>
          </g>
          <g id="Group_3589" data-name="Group 3589" transform="translate(9.59 9.993)">
            <path id="Path_5920" data-name="Path 5920" d="M488.888,309.934a.492.492,0,1,1-.492-.492A.492.492,0,0,1,488.888,309.934Z" transform="translate(-487.905 -309.442)" fill="#fff"/>
          </g>
          <g id="Group_3590" data-name="Group 3590" transform="translate(28.346 1.52)">
            <circle id="Ellipse_584" data-name="Ellipse 584" cx="0.492" cy="0.492" r="0.492" fill="#fff"/>
          </g>
          <g id="Group_3591" data-name="Group 3591" transform="translate(8.316 12.117)">
            <path id="Path_5921" data-name="Path 5921" d="M487.515,312.223a.492.492,0,1,1-.492-.492A.493.493,0,0,1,487.515,312.223Z" transform="translate(-486.532 -311.731)" fill="#fff"/>
          </g>
          <g id="Group_3592" data-name="Group 3592" transform="translate(3.822 15.604)">
            <path id="Path_5922" data-name="Path 5922" d="M482.671,315.982a.492.492,0,1,1-.492-.492A.492.492,0,0,1,482.671,315.982Z" transform="translate(-481.688 -315.49)" fill="#fff"/>
          </g>
          <g id="Group_3593" data-name="Group 3593" transform="translate(8.517 5.544)">
            <circle id="Ellipse_585" data-name="Ellipse 585" cx="0.492" cy="0.492" r="0.492" fill="#fff"/>
          </g>
          <g id="Group_3594" data-name="Group 3594" transform="translate(28.301 5.007)">
            <circle id="Ellipse_586" data-name="Ellipse 586" cx="0.492" cy="0.492" r="0.492" fill="#fff"/>
          </g>
          <g id="Group_3595" data-name="Group 3595" transform="translate(19.784 4.404)">
            <circle id="Ellipse_587" data-name="Ellipse 587" cx="0.492" cy="0.492" r="0.492" fill="#fff"/>
          </g>
          <g id="Group_3596" data-name="Group 3596" transform="translate(13.547 9.702)">
            <circle id="Ellipse_588" data-name="Ellipse 588" cx="0.492" cy="0.492" r="0.492" fill="#fff"/>
          </g>
          <g id="Group_3597" data-name="Group 3597" transform="translate(25.082 4.068)">
            <circle id="Ellipse_589" data-name="Ellipse 589" cx="0.492" cy="0.492" r="0.492" fill="#fff"/>
          </g>
          <g id="Group_3598" data-name="Group 3598" transform="translate(25.015 7.623)">
            <circle id="Ellipse_590" data-name="Ellipse 590" cx="0.492" cy="0.492" r="0.492" fill="#fff"/>
          </g>
          <g id="Group_3599" data-name="Group 3599" transform="translate(23.003 1.788)">
            <circle id="Ellipse_591" data-name="Ellipse 591" cx="0.492" cy="0.492" r="0.492" fill="#fff"/>
          </g>
          <g id="Group_3600" data-name="Group 3600" transform="translate(5.32 11.133)">
            <circle id="Ellipse_592" data-name="Ellipse 592" cx="0.492" cy="0.492" r="0.492" fill="#fff"/>
          </g>
          <g id="Group_3601" data-name="Group 3601" transform="translate(12.429 8.048)">
            <circle id="Ellipse_593" data-name="Ellipse 593" cx="0.492" cy="0.492" r="0.492" fill="#fff"/>
          </g>
          <g id="Group_3602" data-name="Group 3602" transform="translate(21.483 6.304)">
            <circle id="Ellipse_594" data-name="Ellipse 594" cx="0.492" cy="0.492" r="0.492" fill="#fff"/>
          </g>
          <g id="Group_3603" data-name="Group 3603" transform="translate(21.885 8.919)">
            <circle id="Ellipse_595" data-name="Ellipse 595" cx="0.492" cy="0.492" r="0.492" fill="#fff"/>
          </g>
        </g>
      </g>
      <g id="Group_3606" data-name="Group 3606" transform="translate(450.333 298.53)" opacity="0.2" style="mix-blend-mode: multiply;isolation: isolate">
        <path id="Path_5924" data-name="Path 5924" d="M506.687,397.535a88.631,88.631,0,0,0-.424-13.607c-.512-4.2-1.889-8.212-2.351-12.417a22.984,22.984,0,0,1,1.166-10.624A19.632,19.632,0,0,1,507.5,356.4c-1.147-.291-2.281-.635-3.4-.971-2.622-.79-5.295-1.2-7.935-1.892a8.118,8.118,0,0,1-4.788-3.069c-1.415-1.985-1.763-4.476-2.144-6.822a99.386,99.386,0,0,0-3.98-15.987c-2.792-8.274-6.283-17.111-11.924-23.98-.382.1-.76.215-1.13.349a7.729,7.729,0,0,0-3.212,2.176c-.024-1.863-.585-8.243-7.16-7.632-7.69.715-13.682,10.552-10.73,16.99,2.907,6.342,11.45,10.768,17.517,5.857.118.2.24.392.367.582,1.914,2.848,3.517,4.965,4.645,6.374-3.531-.082-2.562,5.259-1.158,6.771,1.743,1.878,3.756,2.28,6.438-.4a85.3,85.3,0,0,1,10.77,16.2l-3.8-.063a41.263,41.263,0,0,1,2.682,3.577,100.141,100.141,0,0,1-6.081,8.763c-2.414,2.861-.625,3.487-.625,3.487s1.431,3.4,6.349,12.787,9.836,28.614,9.836,28.614h8.179C506.368,404.585,506.571,401.062,506.687,397.535Z" transform="translate(-450.333 -298.53)" fill="#423724"/>
      </g>
    </g>
    <ellipse id="Ellipse_597" data-name="Ellipse 597" cx="67" cy="10" rx="67" ry="10" transform="translate(107 195)" opacity="0.111"/>
  </g>
</svg>
