<svg xmlns="http://www.w3.org/2000/svg" xmlns:xlink="http://www.w3.org/1999/xlink" width="20.319" height="21.559" viewBox="0 0 20.319 21.559">
  <defs>
    <linearGradient id="linear-gradient" y1="0.5" x2="1" y2="0.5" gradientUnits="objectBoundingBox">
      <stop offset="0" stop-color="#6b23fa"/>
      <stop offset="1" stop-color="#5e2dfa"/>
    </linearGradient>
  </defs>
  <g id="tQfEJu.tif" transform="translate(-59.432 -433.912)">
    <g id="Group_2965" data-name="Group 2965">
      <path id="Path_5332" data-name="Path 5332" d="M73.832,452.9l.488,1.311a8.9,8.9,0,0,1-2.144.842,11.256,11.256,0,0,1-6.723-.189,8.588,8.588,0,0,1-5.72-6.591A11.975,11.975,0,0,1,62.5,437.5a10.373,10.373,0,0,1,7.221-3.541,9.888,9.888,0,0,1,4.964.746,8.117,8.117,0,0,1,4.834,6.076,9.82,9.82,0,0,1-.52,5.933,5.652,5.652,0,0,1-2.926,3.124,4.521,4.521,0,0,1-1.8.386,2.215,2.215,0,0,1-2.335-2.228c-.01-.157,0-.315,0-.473l-.06-.036c-.054.059-.113.114-.163.176a14.528,14.528,0,0,1-.99,1.237,4.372,4.372,0,0,1-3.695,1.293,3.287,3.287,0,0,1-2.776-2.661,6.707,6.707,0,0,1,.788-4.782,7.258,7.258,0,0,1,7.209-3.727,8.738,8.738,0,0,1,2.3.526.221.221,0,0,1,.167.3c-.373,1.955-.745,3.911-1.1,5.87a4.917,4.917,0,0,0-.034,2.025,1.1,1.1,0,0,0,1.483.915,2.644,2.644,0,0,0,1.335-.818A5.712,5.712,0,0,0,77.79,444.9a9.3,9.3,0,0,0-.41-5.18,6.384,6.384,0,0,0-5.079-4.19,8.785,8.785,0,0,0-8.762,3.082,9.987,9.987,0,0,0-2.232,5.4,10.932,10.932,0,0,0,.328,4.578,7.366,7.366,0,0,0,6.489,5.312,9.881,9.881,0,0,0,5.64-.986A.343.343,0,0,1,73.832,452.9Zm-1.213-12.027a.93.93,0,0,0-.111-.054,4.774,4.774,0,0,0-3.114.158,5.64,5.64,0,0,0-3.188,5.807,1.913,1.913,0,0,0,2.257,1.746,2.851,2.851,0,0,0,1.574-.766,5.692,5.692,0,0,0,1.822-2.992C72.162,443.488,72.367,442.182,72.619,440.871Z" fill="url(#linear-gradient)"/>
    </g>
  </g>
</svg>
