<svg xmlns="http://www.w3.org/2000/svg" width="109.975" height="97.571" viewBox="0 0 109.975 97.571">
  <g id="Group_26369" data-name="Group 26369" transform="translate(0 0)">
    <g id="Group_18683" data-name="Group 18683" transform="translate(16.357 0)">
      <g id="Group_18667" data-name="Group 18667" transform="translate(0)">
        <path id="Path_17728" data-name="Path 17728" d="M277.284,576.629c2.5-9.522,4.806-20.6,18.728-19.608,0,0,8.58,1.652,12.655,7.983,2.4,3.725,4.473,19.782,4.887,32.464h0v.006c.017.517-.2,4.116-.184,4.622l-36.855,3.067h-6.64a65.195,65.195,0,0,1,2.417-13.251C274.24,585.56,276.4,580,277.284,576.629Z" transform="translate(-269.874 -556.958)" fill="#2e353a"/>
      </g>
      <g id="Group_18668" data-name="Group 18668" transform="translate(15.226 2.859)">
        <path id="Path_17729" data-name="Path 17729" d="M286.621,560.119l-.871-.831-9.413,3.794a2.626,2.626,0,0,0-2.481,2.543l.082,30.674a8.587,8.587,0,0,0,1.66,5.54l1.323,1.745a6.942,6.942,0,0,0,11.6-.736,3.384,3.384,0,0,0,.334-.793,6.521,6.521,0,0,0,.14-.686c.28-2.467.3-4.607.3-4.607.168-2.709.222-3.821.223-3.8,0,0,5.767-.663,7.324-8.064.775-3.681.629-8.743.412-13.727C296.948,564.278,292.164,560.111,286.621,560.119Z" transform="translate(-273.856 -559.288)" fill="#eebd9c"/>
      </g>
      <g id="Group_18669" data-name="Group 18669" transform="translate(23.653 18.753)">
        <path id="Path_17730" data-name="Path 17730" d="M286.551,573.155a.958.958,0,0,1-.971.919.916.916,0,0,1-.942-.888v-.023a.958.958,0,0,1,.97-.92.918.918,0,0,1,.942.891Z" transform="translate(-284.638 -572.242)" fill="#2e353a"/>
      </g>
      <g id="Group_18670" data-name="Group 18670" transform="translate(33.482 19.003)">
        <path id="Path_17731" data-name="Path 17731" d="M278.54,573.359a.958.958,0,0,1-.97.919.916.916,0,0,1-.944-.888v-.023a.957.957,0,0,1,.971-.92.916.916,0,0,1,.942.89Z" transform="translate(-276.626 -572.446)" fill="#2e353a"/>
      </g>
      <g id="Group_18671" data-name="Group 18671" transform="translate(33.85 15.613)">
        <path id="Path_17732" data-name="Path 17732" d="M278.568,570.786c-.123.123-.822-.454-1.853-.5s-1.81.428-1.915.3c-.053-.059.08-.277.422-.5a2.629,2.629,0,0,1,1.541-.391,2.531,2.531,0,0,1,1.472.556C278.54,570.5,278.636,570.732,278.568,570.786Z" transform="translate(-274.789 -569.683)" fill="#2e353a"/>
      </g>
      <g id="Group_18672" data-name="Group 18672" transform="translate(23.688 15.053)">
        <path id="Path_17733" data-name="Path 17733" d="M286.841,570.539c-.137.106-.773-.536-1.791-.69s-1.84.245-1.936.1c-.045-.064.107-.269.47-.455a2.624,2.624,0,0,1,1.573-.232,2.542,2.542,0,0,1,1.4.7C286.834,570.253,286.907,570.492,286.841,570.539Z" transform="translate(-283.105 -569.226)" fill="#2e353a"/>
      </g>
      <g id="Group_18673" data-name="Group 18673" transform="translate(30.744 15.716)">
        <path id="Path_17734" data-name="Path 17734" d="M278.265,578.368a6.805,6.805,0,0,1,1.687-.218c.264-.013.515-.054.569-.231a1.347,1.347,0,0,0-.136-.788l-.677-2.04a34.325,34.325,0,0,1-1.483-5.324,34.588,34.588,0,0,1,1.909,5.193c.225.717.439,1.4.643,2.052a1.524,1.524,0,0,1,.085,1.039.663.663,0,0,1-.451.368,1.777,1.777,0,0,1-.449.039A6.71,6.71,0,0,1,278.265,578.368Z" transform="translate(-278.225 -569.767)" fill="#2e353a"/>
      </g>
      <g id="Group_18674" data-name="Group 18674" transform="translate(21.027 33.37)">
        <path id="Path_17735" data-name="Path 17735" d="M290.16,587.321a19,19,0,0,1-9.857-3.166s2.254,5.291,9.754,4.967Z" transform="translate(-280.303 -584.155)" fill="#e6986e"/>
      </g>
      <g id="Group_18676" data-name="Group 18676" transform="translate(23.451 10.562)">
        <path id="Path_17737" data-name="Path 17737" d="M287.132,566.641c-.133.264-1.018-.007-2.108-.027-1.087-.044-2,.174-2.1-.1-.045-.123.145-.368.534-.582a3.273,3.273,0,0,1,1.627-.368,3.148,3.148,0,0,1,1.583.46C287.028,566.267,287.191,566.514,287.132,566.641Z" transform="translate(-282.913 -565.566)" fill="#2e353a"/>
      </g>
      <g id="Group_18677" data-name="Group 18677" transform="translate(33.99 13.692)">
        <path id="Path_17738" data-name="Path 17738" d="M278.393,569.279c-.193.225-.89-.053-1.742-.108-.85-.085-1.583.078-1.736-.174-.067-.123.059-.351.385-.557a2.529,2.529,0,0,1,2.8.228C278.392,568.923,278.479,569.17,278.393,569.279Z" transform="translate(-274.897 -568.117)" fill="#2e353a"/>
      </g>
      <g id="Group_18678" data-name="Group 18678" transform="translate(13.947 2.355)">
        <path id="Path_17739" data-name="Path 17739" d="M281.977,578.806s3.962.958,9.585-11.152a40.343,40.343,0,0,1,5.632-8.275l-3.488-.5s-10.4,2.929-10.573,3.061-2.623,5.378-2.623,5.378Z" transform="translate(-280.51 -558.877)" fill="#2e353a"/>
      </g>
      <g id="Group_18679" data-name="Group 18679" transform="translate(11.295 19.668)">
        <path id="Path_17740" data-name="Path 17740" d="M297.271,575.119c.027-.556-.55-1.9-1.094-2.011-1.454-.3-4.1-.317-4.311,3.4-.288,5.084,4.876,4.325,4.894,4.18C296.772,580.578,297.179,577.038,297.271,575.119Z" transform="translate(-291.853 -572.988)" fill="#eebd9c"/>
      </g>
      <g id="Group_18680" data-name="Group 18680" transform="translate(12.576 21.287)">
        <path id="Path_17741" data-name="Path 17741" d="M295.625,578.379c-.021-.017-.092.056-.245.123a.882.882,0,0,1-.664-.025,2.193,2.193,0,0,1-.9-2.023,2.936,2.936,0,0,1,.32-1.254,1.025,1.025,0,0,1,.706-.642.454.454,0,0,1,.509.272c.06.146.022.245.048.256s.114-.078.086-.291a.577.577,0,0,0-.183-.33.678.678,0,0,0-.482-.157,1.245,1.245,0,0,0-.969.736,3,3,0,0,0-.388,1.4,2.3,2.3,0,0,0,1.168,2.269.953.953,0,0,0,.818-.088C295.61,578.5,295.642,578.389,295.625,578.379Z" transform="translate(-293.445 -574.308)" fill="#e6986e"/>
      </g>
      <g id="Group_26332" data-name="Group 26332" transform="translate(26.931 25.647)">
        <g id="Group_26313" data-name="Group 26313" transform="translate(0 1.302)">
          <g id="Group_26312" data-name="Group 26312" transform="translate(0)">
            <g id="Group_26311" data-name="Group 26311" transform="translate(0)">
              <g id="Group_26310" data-name="Group 26310">
                <g id="Group_26309" data-name="Group 26309">
                  <g id="Group_26308" data-name="Group 26308">
                    <g id="Group_26307" data-name="Group 26307" transform="translate(0)">
                      <g id="Group_26306" data-name="Group 26306">
                        <g id="Group_26305" data-name="Group 26305">
                          <g id="Group_26304" data-name="Group 26304">
                            <g id="Group_26303" data-name="Group 26303" transform="translate(0)">
                              <g id="Group_26302" data-name="Group 26302">
                                <g id="Group_26301" data-name="Group 26301">
                                  <g id="Group_26300" data-name="Group 26300">
                                    <g id="Group_26299" data-name="Group 26299">
                                      <g id="Group_26298" data-name="Group 26298">
                                        <g id="Group_26297" data-name="Group 26297">
                                          <path id="Path_23011" data-name="Path 23011" d="M284.152,579.718a2.543,2.543,0,0,0-2.35-.75,2.325,2.325,0,0,0-1.524.991,1.468,1.468,0,0,0,.031,1.685,1.7,1.7,0,0,0,1.881.31,5.337,5.337,0,0,0,1.705-1.223,1.55,1.55,0,0,0,.367-.45.47.47,0,0,0-.047-.523" transform="translate(-280.029 -578.922)" fill="#ff9a6c"/>
                                        </g>
                                      </g>
                                    </g>
                                  </g>
                                </g>
                              </g>
                            </g>
                          </g>
                        </g>
                      </g>
                    </g>
                  </g>
                </g>
              </g>
            </g>
          </g>
        </g>
        <g id="Group_26331" data-name="Group 26331" transform="translate(0.114)">
          <g id="Group_26330" data-name="Group 26330" transform="translate(0)">
            <g id="Group_26329" data-name="Group 26329" transform="translate(0)">
              <g id="Group_26328" data-name="Group 26328">
                <g id="Group_26327" data-name="Group 26327">
                  <g id="Group_26326" data-name="Group 26326" transform="translate(0)">
                    <g id="Group_26325" data-name="Group 26325">
                      <g id="Group_26324" data-name="Group 26324">
                        <g id="Group_26323" data-name="Group 26323" transform="translate(0)">
                          <g id="Group_26322" data-name="Group 26322" transform="translate(0)">
                            <g id="Group_26321" data-name="Group 26321">
                              <g id="Group_26320" data-name="Group 26320" transform="translate(0)">
                                <g id="Group_26319" data-name="Group 26319">
                                  <g id="Group_26318" data-name="Group 26318">
                                    <g id="Group_26317" data-name="Group 26317">
                                      <g id="Group_26316" data-name="Group 26316">
                                        <g id="Group_26315" data-name="Group 26315" transform="translate(0)">
                                          <g id="Group_26314" data-name="Group 26314">
                                            <path id="Path_23012" data-name="Path 23012" d="M279.557,577.861c.227-.032.18,1.612,1.578,2.584s3.185.548,3.215.761c.029.095-.336.328-1.022.4a3.807,3.807,0,0,1-2.526-.648,3.313,3.313,0,0,1-1.375-2.075C279.315,578.254,279.452,577.861,279.557,577.861Z" transform="translate(-279.385 -577.861)" fill="#263238"/>
                                          </g>
                                        </g>
                                      </g>
                                    </g>
                                  </g>
                                </g>
                              </g>
                            </g>
                          </g>
                        </g>
                      </g>
                    </g>
                  </g>
                </g>
              </g>
            </g>
          </g>
        </g>
      </g>
    </g>
    <g id="Group_26342" data-name="Group 26342" transform="translate(73.734 48.179)">
      <g id="Group_26333" data-name="Group 26333" transform="translate(19.733 2.654)">
        <path id="Path_23013" data-name="Path 23013" d="M238,599.954c.693-.329,1.856-1.015,2.575-1.283a3.409,3.409,0,0,1,2.251-.152,1.117,1.117,0,0,1,.852.929l-2.826,2.071-2.853-.75Z" transform="translate(-238 -598.388)" fill="#ff9a6c"/>
      </g>
      <g id="Group_26334" data-name="Group 26334" transform="translate(11.569)">
        <path id="Path_23014" data-name="Path 23014" d="M240.428,600.415a58.116,58.116,0,0,0,5.911-1.536c.836-.436,5.269-2.654,6-2.654s1.369.2,1.5.936l-.966.75-.123.384-1.65.859-.3.555-4.2,2.244s-4.411,2.238-5.146,2.372-4.411.434-5.981,1.772l-6.307-2.589s1.822-2.589,3.223-3.224a6.845,6.845,0,0,1,4.821.032Z" transform="translate(-229.173 -596.225)" fill="#ffbf9d"/>
      </g>
      <g id="Group_26335" data-name="Group 26335" transform="translate(0 7.223)">
        <path id="Path_23015" data-name="Path 23015" d="M262.152,603.322s-8.029,17.507-9.32,21.013c0,0-8.975-1.474-9.283-6.456l11.569-15.766Z" transform="translate(-243.549 -602.112)" fill="#ffbf9d"/>
      </g>
      <g id="Group_26337" data-name="Group 26337" transform="translate(26.06 2.043)">
        <g id="Group_26336" data-name="Group 26336" transform="translate(0)">
          <path id="Path_23016" data-name="Path 23016" d="M231.514,600.433s.029,0,.086,0a1.364,1.364,0,0,0,.242-.049,5.216,5.216,0,0,0,.836-.337c.342-.164.737-.383,1.174-.627.218-.121.448-.25.687-.375s.5-.228.763-.345a10.721,10.721,0,0,1,1.519-.552,2.464,2.464,0,0,1,1.277-.093,1.063,1.063,0,0,1,.59.6,2.75,2.75,0,0,0,.134.3s0-.031-.012-.085a1.754,1.754,0,0,0-.072-.236,1.457,1.457,0,0,0-.186-.346.925.925,0,0,0-.42-.319,1.435,1.435,0,0,0-.633-.063,4.72,4.72,0,0,0-.708.124,10.1,10.1,0,0,0-1.542.549c-.264.116-.528.222-.772.352s-.47.26-.687.385c-.433.25-.822.476-1.156.65a6.9,6.9,0,0,1-.809.373C231.628,600.4,231.511,600.42,231.514,600.433Z" transform="translate(-231.513 -597.89)" fill="#ff9a6c"/>
        </g>
      </g>
      <g id="Group_26339" data-name="Group 26339" transform="translate(30.901 0.931)">
        <g id="Group_26338" data-name="Group 26338" transform="translate(0)">
          <path id="Path_23017" data-name="Path 23017" d="M230.047,598.123a3,3,0,0,0,.71-.247,14.183,14.183,0,0,1,1.669-.666,2.581,2.581,0,0,1,.96-.082.948.948,0,0,1,.677.315,1.107,1.107,0,0,1,.2.482.7.7,0,0,0,.038.2.512.512,0,0,0,.016-.2,1.054,1.054,0,0,0-.175-.535.893.893,0,0,0-.3-.258A1.347,1.347,0,0,0,233.4,597a2.56,2.56,0,0,0-1.012.076,10.186,10.186,0,0,0-1.671.709A6.446,6.446,0,0,0,230.047,598.123Z" transform="translate(-230.047 -596.984)" fill="#ff9a6c"/>
        </g>
      </g>
      <g id="Group_26341" data-name="Group 26341" transform="translate(18.246 3.693)">
        <g id="Group_26340" data-name="Group 26340" transform="translate(0)">
          <path id="Path_23018" data-name="Path 23018" d="M239.269,599.238c0,.01.07.042.206.091s.335.113.584.178a9.656,9.656,0,0,0,4.007.175c.255-.044.459-.088.6-.128a.722.722,0,0,0,.214-.071c0-.022-.317.04-.825.1a11.87,11.87,0,0,1-3.972-.173C239.581,599.306,239.275,599.217,239.269,599.238Z" transform="translate(-239.269 -599.235)" fill="#ff9a6c"/>
        </g>
      </g>
    </g>
    <g id="Group_26368" data-name="Group 26368" transform="translate(0 36.893)">
      <g id="Group_26343" data-name="Group 26343" transform="translate(14.159)">
        <path id="Path_23019" data-name="Path 23019" d="M251.666,591.613l11.693-2.418,2.873-2.168,5.676,12.15L281.66,590c.247.451,2.747,3.932,2.747,3.932L290.481,596a12.788,12.788,0,0,1,6.592,4.21,27.212,27.212,0,0,1,3.932,6.6c2.734,6.414,6.678,13.825,6.678,13.825l2.474-3.983,10.421,4.906s-6.1,12.309-8.126,14.066c-2.247,1.953-7.411,2.179-10.982-1.464A130.311,130.311,0,0,1,291.8,621.1l-1.913,9.09-1.769,10.374,2.859,7.138H249.246l1.726-6.747s-1.7-17.591-2.169-20.863C247.7,612.372,251.666,591.613,251.666,591.613Z" transform="translate(-248.608 -587.027)" fill="#7279ba"/>
      </g>
      <g id="Group_26344" data-name="Group 26344" transform="translate(0 4.586)">
        <path id="Path_23020" data-name="Path 23020" d="M321.14,590.765s-8.357,2.345-10.2,10.649c-1.114,5.034-4.9,19.379-6.23,31.19-.79,7.021-.766,13.51-.79,14.252h12.824l5.437-53.748Z" transform="translate(-303.923 -590.765)" fill="#7279ba"/>
      </g>
      <g id="Group_26346" data-name="Group 26346" transform="translate(38.65 7.412)">
        <g id="Group_26345" data-name="Group 26345" transform="translate(0)">
          <path id="Path_23021" data-name="Path 23021" d="M278.24,597.375a.334.334,0,0,0,.036.086l.119.242c.1.212.253.523.433.922.368.791.806,1.959,1.509,3.264l.036.068.059-.05c.866-.739,1.809-1.626,2.78-2.586,1.719-1.708,3.228-3.3,4.343-4.426l1.325-1.331.362-.361a.816.816,0,0,0,.12-.133,1.056,1.056,0,0,0-.139.113l-.38.342c-.325.3-.791.744-1.356,1.3-1.135,1.112-2.655,2.692-4.373,4.4-.97.958-1.907,1.848-2.764,2.59l.094.017c-.707-1.29-1.162-2.451-1.551-3.237-.189-.4-.351-.7-.465-.907l-.136-.234A.378.378,0,0,0,278.24,597.375Z" transform="translate(-278.24 -593.068)"/>
        </g>
      </g>
      <g id="Group_26348" data-name="Group 26348" transform="translate(28.731 2.464)">
        <g id="Group_26347" data-name="Group 26347" transform="translate(0)">
          <path id="Path_23022" data-name="Path 23022" d="M288.633,589.035a.891.891,0,0,0,.025.184l.1.523c.094.453.253,1.1.477,1.9.454,1.59,1.189,3.753,2.093,6.107.478,1.247.952,2.422,1.394,3.467l.033.08.065-.058c1.191-1.05,2.259-1.878,2.981-2.494.364-.306.648-.553.838-.726l.215-.2a.472.472,0,0,0,.07-.075.444.444,0,0,0-.083.059l-.227.186-.86.7c-.736.6-1.812,1.412-3.016,2.46l.1.022c-.433-1.045-.9-2.222-1.38-3.467-.9-2.351-1.651-4.505-2.128-6.084-.237-.79-.409-1.436-.519-1.883l-.123-.516A.91.91,0,0,0,288.633,589.035Z" transform="translate(-288.632 -589.035)"/>
        </g>
      </g>
      <g id="Group_26350" data-name="Group 26350" transform="translate(55.766 17.534)">
        <g id="Group_26349" data-name="Group 26349" transform="translate(0)">
          <path id="Path_23023" data-name="Path 23023" d="M271.348,625.786a.18.18,0,0,0,.023-.059l.055-.179.2-.692c.09-.3.178-.671.282-1.1s.218-.924.331-1.471a73.072,73.072,0,0,0,1.225-8.636c.3-3.4.362-6.485.347-8.718-.009-1.116-.031-2.02-.061-2.644l-.036-.718-.012-.187a.217.217,0,0,0-.009-.063.183.183,0,0,0,0,.064v.187l.01.719c.013.623.021,1.526.017,2.642-.01,2.231-.091,5.314-.387,8.707a79.683,79.683,0,0,1-1.183,8.629c-.108.547-.209,1.04-.31,1.472s-.179.8-.26,1.105l-.173.7-.042.182A.318.318,0,0,0,271.348,625.786Z" transform="translate(-271.347 -601.318)"/>
        </g>
      </g>
      <g id="Group_26352" data-name="Group 26352" transform="translate(13.989 13.8)">
        <g id="Group_26351" data-name="Group 26351" transform="translate(0)">
          <path id="Path_23024" data-name="Path 23024" d="M307.873,598.274a.476.476,0,0,0-.036.072l-.093.216-.345.836c-.072.183-.16.384-.243.607l-.25.737-.286.847-.264.968a34.776,34.776,0,0,0-.955,10.9c.231,4.283.73,8.133,1.04,10.922l.382,3.3.109.9.032.233a.365.365,0,0,0,.016.079.392.392,0,0,0,0-.08l-.018-.234-.083-.9c-.075-.782-.19-1.912-.34-3.307-.286-2.793-.769-6.644-1-10.919a35.61,35.61,0,0,1,.912-10.867l.254-.967.275-.849.239-.739c.08-.224.162-.426.232-.61l.32-.844.08-.222A.274.274,0,0,0,307.873,598.274Z" transform="translate(-305.339 -598.274)"/>
        </g>
      </g>
      <g id="Group_26354" data-name="Group 26354" transform="translate(73.131 33.603)">
        <g id="Group_26353" data-name="Group 26353" transform="translate(0)">
          <path id="Path_23025" data-name="Path 23025" d="M259.124,623.366c.038,0,.082-2,.1-4.475s0-4.477-.039-4.477-.082,2-.1,4.476S259.087,623.366,259.124,623.366Z" transform="translate(-259.08 -614.414)"/>
        </g>
      </g>
      <g id="Group_26356" data-name="Group 26356" transform="translate(34.033 12.386)">
        <g id="Group_26355" data-name="Group 26355" transform="translate(0)">
          <path id="Path_23026" data-name="Path 23026" d="M289.673,639.418a.75.75,0,0,0-.009-.11l-.036-.32-.152-1.232-.114-.89-.112-1.061c-.077-.761-.183-1.626-.252-2.588l-.124-1.507c-.042-.524-.065-1.071-.1-1.636-.078-1.13-.11-2.34-.157-3.612-.058-2.547-.048-5.348.083-8.284s.4-5.726.7-8.256c.164-1.263.31-2.465.494-3.583.09-.559.164-1.1.255-1.618l.265-1.49c.158-.95.345-1.8.492-2.552l.212-1.045.2-.875.267-1.212.065-.317a.616.616,0,0,0,.018-.108.669.669,0,0,0-.032.106l-.079.313-.293,1.206-.207.872-.223,1.044c-.155.75-.347,1.6-.513,2.551l-.274,1.488c-.094.518-.172,1.06-.263,1.62-.189,1.118-.34,2.32-.508,3.584-.3,2.532-.562,5.326-.707,8.266s-.137,5.745-.072,8.293c.049,1.275.086,2.486.169,3.616.038.566.065,1.113.109,1.638l.133,1.507c.076.962.188,1.827.272,2.588l.124,1.06.125.89.178,1.228.049.319A.625.625,0,0,0,289.673,639.418Z" transform="translate(-288.451 -597.122)"/>
        </g>
      </g>
      <g id="Group_26358" data-name="Group 26358" transform="translate(17.318 25.039)">
        <g id="Group_26357" data-name="Group 26357" transform="translate(0)">
          <path id="Path_23027" data-name="Path 23027" d="M306.981,608.71a.275.275,0,0,0-.053-.009l-.163-.02-.647-.072-2.46-.261-8.765-.908-.065-.006v.065c-.069,2.654-.145,5.653-.227,8.835v.028l.018.021,1.058,1.136,3.828,4.108.033.036.044-.022,6.457-3.2.028-.013,0-.032c.281-2.93.514-5.354.676-7.052l.18-1.95.044-.508c.01-.114.011-.17.011-.17s-.01.064-.025.182l-.058.517-.21,1.96c-.177,1.688-.428,4.1-.731,7.012l.031-.044-6.466,3.186.078.015-3.824-4.11-1.058-1.136.017.048c.076-3.183.148-6.183.212-8.835l-.067.059,8.732.842,2.477.232.659.059.172.013A.45.45,0,0,0,306.981,608.71Z" transform="translate(-294.6 -607.434)"/>
        </g>
      </g>
      <g id="Group_26360" data-name="Group 26360" transform="translate(17.529 28.163)">
        <g id="Group_26359" data-name="Group 26359" transform="translate(0)">
          <path id="Path_23028" data-name="Path 23028" d="M294.986,609.984a3.128,3.128,0,0,0,.455.086c.294.048.721.108,1.249.175,1.056.136,2.52.291,4.137.446l4.14.4,1.253.131a3.18,3.18,0,0,0,.463.034,2.854,2.854,0,0,0-.455-.087c-.294-.048-.721-.107-1.249-.175-1.056-.136-2.52-.291-4.137-.444l-4.14-.4-1.253-.132A2.875,2.875,0,0,0,294.986,609.984Z" transform="translate(-294.986 -609.98)"/>
        </g>
      </g>
      <g id="Group_26362" data-name="Group 26362" transform="translate(12.258 16.202)" opacity="0.3">
        <g id="Group_26361" data-name="Group 26361" transform="translate(0)">
          <path id="Path_23029" data-name="Path 23029" d="M308.821,622.532l-.442,5.369c-.974-4.6-2.505-9.542-2.267-14.238.236-4.665.68-9.183,3.323-13.432a26.69,26.69,0,0,0-1.551,9.984C308.125,615.71,308.821,622.532,308.821,622.532Z" transform="translate(-306.087 -600.232)"/>
        </g>
      </g>
      <g id="Group_26363" data-name="Group 26363" transform="translate(73.845 27.721)">
        <path id="Path_23030" data-name="Path 23030" d="M248.23,610.408a1.123,1.123,0,0,1,1.826-.519q4.769,2.372,9.536,4.747a2.108,2.108,0,0,1,.768,3.791c-.88,1.207-1.93,2.52-3.413,2.691l-8.2-5.623a2.153,2.153,0,0,1-1.586-2.276A6.26,6.26,0,0,1,248.23,610.408Z" transform="translate(-247.158 -609.621)" fill="#7279ba"/>
      </g>
      <g id="Group_26365" data-name="Group 26365" transform="translate(73.881 31.943)">
        <g id="Group_26364" data-name="Group 26364" transform="translate(0)">
          <path id="Path_23031" data-name="Path 23031" d="M250.5,613.062a.441.441,0,0,0,.083.092l.259.244c.225.211.558.507.978.866.838.717,2.029,1.67,3.4,2.642s2.674,1.775,3.629,2.325c.479.275.87.491,1.143.632l.317.162a.449.449,0,0,0,.114.048.409.409,0,0,0-.1-.072l-.3-.184-1.119-.669c-.942-.569-2.228-1.384-3.6-2.353s-2.569-1.908-3.422-2.6l-1-.832-.275-.225C250.537,613.083,250.5,613.058,250.5,613.062Z" transform="translate(-250.499 -613.062)"/>
        </g>
      </g>
      <g id="Group_26367" data-name="Group 26367" transform="translate(28.642 3.066)" opacity="0.3">
        <g id="Group_26366" data-name="Group 26366" transform="translate(0)">
          <path id="Path_23032" data-name="Path 23032" d="M289.092,589.526c1.123,3.727,2.694,7.941,4.021,11.553,1.131-.961,2.713-2.229,3.844-3.19a31.655,31.655,0,0,1-3.492,5.458c-.156.2-.367.412-.613.364s-.352-.3-.437-.52l-2.069-5.472C289.379,595.164,288.444,592.179,289.092,589.526Z" transform="translate(-288.877 -589.526)"/>
        </g>
      </g>
    </g>
    <g id="Group_18721" data-name="Group 18721" transform="translate(18.011 2.407)">
      <g id="Group_18718" data-name="Group 18718" transform="translate(0 32.892)">
        <path id="Path_17762" data-name="Path 17762" d="M290.54,602.527q.8-6.664,1.607-13.328l11.5-3.471a114.7,114.7,0,0,0,3.607,24.533,31.951,31.951,0,0,1-13.2,1.374q-.294-3.219-.588-6.439-.432,2.428-.859,4.854a4.764,4.764,0,0,1-2.159-3.386A14.078,14.078,0,0,1,290.54,602.527Z" transform="translate(-290.341 -585.728)" fill="#2e353a"/>
      </g>
      <g id="Group_18720" data-name="Group 18720" transform="translate(5.689)">
        <g id="Group_18719" data-name="Group 18719" transform="translate(0)">
          <path id="Path_17763" data-name="Path 17763" d="M286.231,617.755s-.009-.058-.034-.167l-.113-.491c-.1-.436-.252-1.066-.443-1.877-.377-1.632-.934-3.991-1.472-6.936a74.864,74.864,0,0,1-1.251-10.429,45.141,45.141,0,0,1,1.159-12.76,32.02,32.02,0,0,1,5.332-11.6c.3-.391.585-.788.907-1.146s.613-.736.94-1.07l.477-.508.491-.484c.319-.324.652-.623.969-.926,1.291-1.2,2.552-2.245,3.681-3.231s2.136-1.894,2.969-2.746c.212-.209.4-.423.6-.623s.368-.4.535-.593l.477-.555.41-.523c.266-.324.467-.638.654-.9s.33-.491.442-.686l.256-.432c.058-.1.083-.15.083-.15s-.034.047-.1.142l-.269.423c-.115.188-.259.418-.453.677s-.394.571-.663.892l-.414.517-.481.548q-.248.291-.537.586c-.193.2-.385.411-.6.613-.837.844-1.847,1.746-2.98,2.724s-2.4,2.026-3.694,3.219c-.32.3-.655.6-.975.926l-.491.485-.481.508c-.331.335-.628.709-.946,1.072s-.613.757-.914,1.151a32.046,32.046,0,0,0-5.367,11.65,44.929,44.929,0,0,0-1.152,12.807,73.62,73.62,0,0,0,1.286,10.443c.556,2.945,1.13,5.3,1.524,6.93.2.814.359,1.444.471,1.871.055.21.1.368.123.491A.8.8,0,0,0,286.231,617.755Z" transform="translate(-282.721 -558.92)" fill="#4d5a64"/>
        </g>
      </g>
    </g>
  </g>
</svg>
