<svg xmlns="http://www.w3.org/2000/svg" width="23.545" height="23.544" viewBox="0 0 23.545 23.544">
  <g id="yiTvD1.tif" transform="translate(919.163 615.432)">
    <g id="Group_4715" data-name="Group 4715" transform="translate(-919.163 -615.432)">
      <path id="Path_9152" data-name="Path 9152" d="M-895.619-603.666a11.784,11.784,0,0,0-11.732-11.766,11.787,11.787,0,0,0-11.812,11.822,11.758,11.758,0,0,0,11.708,11.721A11.755,11.755,0,0,0-895.619-603.666Z" transform="translate(919.163 615.432)" fill="#f0f2f2"/>
      <path id="Path_9153" data-name="Path 9153" d="M-895.619-603.666a11.755,11.755,0,0,1-11.836,11.778,11.758,11.758,0,0,1-11.708-11.721,11.787,11.787,0,0,1,11.812-11.822A11.784,11.784,0,0,1-895.619-603.666Zm-18.748.483a6.868,6.868,0,0,0,2.291,4.737,6.937,6.937,0,0,0,4.212,1.78c0-.49,0-.955,0-1.42a.47.47,0,0,1,.464-.512.471.471,0,0,1,.48.512c0,.414,0,.828,0,1.241v.167a6.907,6.907,0,0,0,4.87-2.446,6.95,6.95,0,0,0,1.647-4.059h-.212c-.394,0-.786,0-1.179,0a.725.725,0,0,1-.285-.054.463.463,0,0,1-.248-.519.462.462,0,0,1,.443-.367c.434-.007.87,0,1.3,0h.165a6.917,6.917,0,0,0-2.412-4.841,6.953,6.953,0,0,0-4.094-1.677c0,.493,0,.958,0,1.423a.472.472,0,0,1-.482.511.474.474,0,0,1-.463-.514c0-.414,0-.828,0-1.242v-.164a6.95,6.95,0,0,0-6.494,6.495c.051,0,.1.007.152.007.424,0,.848,0,1.273.005a.47.47,0,0,1,.483.523.471.471,0,0,1-.493.421C-913.413-603.181-913.883-603.183-914.366-603.183Zm6.481-8.426v-2.861A10.692,10.692,0,0,0-915.7-610.6a10.476,10.476,0,0,0-2.5,6.452h2.85a7.89,7.89,0,0,1,2.324-5.135A7.885,7.885,0,0,1-907.885-611.609Zm-10.293,8.442a10.764,10.764,0,0,0,10.3,10.3V-595.7a7.879,7.879,0,0,1-5.136-2.324,7.874,7.874,0,0,1-2.327-5.139Zm11.28-8.441a7.852,7.852,0,0,1,5.142,2.332,7.879,7.879,0,0,1,2.32,5.135h2.839a10.775,10.775,0,0,0-10.3-10.307Zm-.005,18.748a10.764,10.764,0,0,0,10.3-10.307h-2.83a7.887,7.887,0,0,1-2.332,5.144A7.884,7.884,0,0,1-906.9-595.7Z" transform="translate(919.163 615.432)"/>
      <path id="Path_9154" data-name="Path 9154" d="M-912.571-601.392c.483,0,.953,0,1.423,0a.471.471,0,0,0,.493-.421.47.47,0,0,0-.483-.523c-.424-.006-.848,0-1.273-.005-.05,0-.1,0-.152-.007a6.95,6.95,0,0,1,6.494-6.495v.164c0,.414,0,.828,0,1.242a.474.474,0,0,0,.463.514.472.472,0,0,0,.482-.511c0-.465,0-.93,0-1.422a6.952,6.952,0,0,1,4.094,1.677,6.917,6.917,0,0,1,2.412,4.841h-.165c-.434,0-.869,0-1.3,0a.462.462,0,0,0-.443.367.463.463,0,0,0,.248.519.725.725,0,0,0,.285.054c.393.006.786,0,1.179,0h.212a6.95,6.95,0,0,1-1.647,4.059,6.907,6.907,0,0,1-4.87,2.446v-.167c0-.413,0-.827,0-1.241a.471.471,0,0,0-.48-.512.47.47,0,0,0-.464.512c0,.465,0,.93,0,1.42a6.937,6.937,0,0,1-4.212-1.78A6.867,6.867,0,0,1-912.571-601.392Zm6.957,2.8a3.275,3.275,0,0,0,3.3-3.275,3.279,3.279,0,0,0-3.276-3.281,3.273,3.273,0,0,0-3.279,3.278A3.275,3.275,0,0,0-905.614-598.588Z" transform="translate(917.367 613.641)" fill="#31c988"/>
      <path id="Path_9155" data-name="Path 9155" d="M-907.523-611.249a7.886,7.886,0,0,0-5.134,2.328,7.89,7.89,0,0,0-2.324,5.135h-2.85a10.476,10.476,0,0,1,2.5-6.452,10.692,10.692,0,0,1,7.812-3.872Z" transform="translate(918.8 615.072)" fill="none"/>
      <path id="Path_9156" data-name="Path 9156" d="M-917.81-598.576h2.836a7.873,7.873,0,0,0,2.327,5.139,7.878,7.878,0,0,0,5.136,2.324v2.839A10.763,10.763,0,0,1-917.81-598.576Z" transform="translate(918.794 610.841)" fill="none"/>
      <path id="Path_9157" data-name="Path 9157" d="M-902.308-611.24v-2.841a10.775,10.775,0,0,1,10.3,10.307h-2.839a7.879,7.879,0,0,0-2.32-5.135A7.852,7.852,0,0,0-902.308-611.24Z" transform="translate(914.572 615.064)" fill="none"/>
      <path id="Path_9158" data-name="Path 9158" d="M-902.315-588.269v-2.842a7.884,7.884,0,0,0,5.135-2.321,7.887,7.887,0,0,0,2.332-5.144h2.83A10.764,10.764,0,0,1-902.315-588.269Z" transform="translate(914.574 610.841)" fill="none"/>
      <path id="Path_9159" data-name="Path 9159" d="M-904.23-597.2a3.275,3.275,0,0,1-3.258-3.278,3.273,3.273,0,0,1,3.279-3.278,3.279,3.279,0,0,1,3.276,3.281A3.275,3.275,0,0,1-904.23-597.2Zm.039-5.6a2.327,2.327,0,0,0-2.344,2.3,2.325,2.325,0,0,0,2.305,2.35,2.325,2.325,0,0,0,2.343-2.3A2.325,2.325,0,0,0-904.19-602.8Z" transform="translate(915.983 612.251)"/>
      <path id="Path_9160" data-name="Path 9160" d="M-903.834-602.443a2.325,2.325,0,0,1,2.3,2.352,2.325,2.325,0,0,1-2.343,2.3,2.325,2.325,0,0,1-2.305-2.35A2.327,2.327,0,0,1-903.834-602.443Z" transform="translate(915.626 611.894)" fill="#e76e61"/>
    </g>
  </g>
</svg>
