<svg xmlns="http://www.w3.org/2000/svg" width="30" height="27.355" viewBox="0 0 30 27.355">
  <g id="tS0Qqj.tif" transform="translate(589.877 -576.651)">
    <g id="Group_39819" data-name="Group 39819" transform="translate(-589.877 576.651)">
      <path id="Path_29603" data-name="Path 29603" d="M-574.432,672.5c0-2.538.008-5.075-.009-7.612,0-.4.093-.529.508-.521,1.422.025,2.845.029,4.267,0,.457-.01.573.123.572.572q-.023,7.468-.008,14.937c0,.842-.089.743.73.747,1.04.005,1.04,0,1.04-1.015,0-2.73.009-5.46-.009-8.189,0-.417.087-.566.536-.556,1.422.03,2.845.028,4.267,0,.434-.008.548.116.545.549-.02,2.883,0,5.767-.021,8.65-.153,1.067,1.176.121,1.282.949.25.936-5.885.412-6.7.45-5.036.093-10.085.031-15.121.01-.99-.1-7.435.475-7.324-.411.134-.964,1.473.16,1.27-1.3,0-3.941.009-7.882-.011-11.822,0-.489.141-.608.611-.6q2.1.045,4.209,0c.448-.01.538.135.537.553-.015,4.037,0,8.074-.021,12.111,0,.511.13.651.639.634,1.144-.037,1.145-.009,1.145-1.144,0-1.922.009-3.845-.008-5.767,0-.367.085-.493.473-.487q2.191.034,4.382,0c.383-.006.479.112.477.484-.017,2.134,0,4.268-.018,6.4,0,.408.112.513.514.509,1.246-.014,1.246,0,1.246-1.269Zm.818.409c0,2.4.008,4.8-.008,7.2,0,.4.1.537.514.524.9-.029,1.8-.022,2.707,0,.343.007.467-.087.466-.449q-.016-7.258,0-14.516c0-.393-.138-.486-.5-.477-.844.022-1.691.034-2.534,0-.5-.023-.663.12-.657.639C-573.6,668.183-573.614,670.545-573.614,672.906Zm-10.5,1.476c0-1.92-.007-3.84.007-5.76,0-.343-.084-.47-.447-.46q-1.353.037-2.706,0c-.369-.009-.492.1-.491.48q.02,5.76,0,11.52c0,.342.09.474.452.464.883-.023,1.767-.031,2.649,0,.434.017.55-.114.545-.545C-584.132,678.184-584.119,676.283-584.119,674.382Zm17.643,1.745c.291,5.251-1.33,4.412,3.154,4.48.337.007.479-.08.478-.445q-.017-4,0-8c0-.339-.124-.422-.438-.417C-567.809,671.8-566.187,671.012-566.477,676.127Zm-14.206,1.193c0,.96.01,1.921-.006,2.88-.005.313.071.443.413.435.94-.021,1.882-.027,2.822,0,.41.013.466-.162.464-.51q-.02-2.794,0-5.588c0-.368-.09-.505-.48-.494-.921.027-1.844.024-2.765,0-.352-.009-.466.092-.457.451C-580.667,675.438-580.683,676.38-580.683,677.321Z" transform="translate(589.877 -654.214)"/>
      <path id="Path_29604" data-name="Path 29604" d="M-563.728,583.078c.175-.376-.085-.564-.409-.758q-1.826-1.1-3.63-2.23c-.671-.467-1.235.8-2.333.25-.546-.363-3.61,2.822-4.422,3.3a.546.546,0,0,0-.223.58c.323,2.643-3.838,2.843-3.734.19a.8.8,0,0,0-.506-.883c-.7-.218-2.806-2.028-3.235-1.461-1.5,1.25-2.163-.414-2.928.071-.433.317-.895.6-1.338.9-.351.352-.793-.322-.329-.508.447-.453,1.752-.749,1.58-1.5a1.884,1.884,0,0,1,2.816-2.027c1.483.9.446,2.061,1.084,2.478.644.214,3.11,2.187,3.422,1.615,1.771-1.474,2.469.435,3.055.051q1.848-1.563,3.722-3.094c.2-.164.152-.277.038-.474a1.889,1.889,0,0,1,2.472-2.694c1.7.972.424,2.285,1.162,2.695,1.263.768,2.525,1.536,3.774,2.326.265.168.407.118.632-.068,2.025-1.5,2.576.921,3.3.365.57-.354,1.159-.678,1.749-1,.189-.1.4-.377.6.013.187.351-.124.387-.291.488-.722.617-2.093.728-2.289,1.775A1.883,1.883,0,0,1-563.728,583.078Zm-19.677-3.525a1.067,1.067,0,0,0,0,2.132A1.066,1.066,0,0,0-583.405,579.553Zm22.592,3.753a1.049,1.049,0,1,0-2.1-.032A1.049,1.049,0,0,0-560.813,583.306Zm-9.75-4.768a1.049,1.049,0,1,0,2.1,0A1.049,1.049,0,0,0-570.563,578.539Zm-6.059,6.981c1.309.035,1.4-2.111.04-2.1A1.049,1.049,0,0,0-576.623,585.52Z" transform="translate(587.347 -576.651)"/>
      <path id="Path_29605" data-name="Path 29605" d="M-449.4,679.158c0-2.362.015-4.724-.012-7.085-.006-.52.158-.662.657-.639.843.038,1.689.025,2.534,0,.363-.009.5.084.5.477q-.018,7.258,0,14.516c0,.363-.123.457-.466.449-.9-.02-1.805-.026-2.707,0-.411.013-.517-.127-.514-.524C-449.393,683.958-449.4,681.558-449.4,679.158Z" transform="translate(465.664 -660.466)" fill="#e65066"/>
      <path id="Path_29606" data-name="Path 29606" d="M-567.907,703.424c0,1.9-.013,3.8.01,5.7.005.432-.11.562-.545.545-.882-.034-1.766-.026-2.649,0-.361.009-.453-.122-.452-.464q.014-5.76,0-11.52c0-.385.121-.489.491-.48q1.352.034,2.706,0c.363-.01.449.117.447.46C-567.914,699.584-567.907,701.5-567.907,703.424Z" transform="translate(573.665 -683.256)" fill="#72b1e4"/>
      <path id="Path_29607" data-name="Path 29607" d="M-388.048,732.456c.29-5.116-1.334-4.323,3.194-4.384.314-.006.439.078.438.417q-.017,4,0,8c0,.366-.141.452-.478.445C-389.376,736.869-387.757,737.707-388.048,732.456Z" transform="translate(411.448 -710.543)" fill="#72b1e4"/>
      <path id="Path_29608" data-name="Path 29608" d="M-510.471,751.34c0-.941.016-1.882-.008-2.823-.009-.359.105-.459.457-.451.921.023,1.844.026,2.765,0,.39-.011.483.126.48.494q-.024,2.794,0,5.588c0,.348-.053.522-.464.51-.94-.029-1.882-.023-2.822,0-.342.008-.418-.122-.413-.435C-510.461,753.261-510.471,752.3-510.471,751.34Z" transform="translate(519.665 -728.234)" fill="#f0bc1b"/>
      <path id="Path_29609" data-name="Path 29609" d="M-563.727,601.735a1.066,1.066,0,0,1,0,2.132A1.067,1.067,0,0,1-563.727,601.735Z" transform="translate(567.668 -598.833)" fill="#f0bc1b"/>
      <path id="Path_29610" data-name="Path 29610" d="M-376.57,625.987a1.049,1.049,0,0,1-2.1-.032A1.049,1.049,0,1,1-376.57,625.987Z" transform="translate(403.103 -619.333)" fill="#f0bc1b"/>
      <path id="Path_29611" data-name="Path 29611" d="M-444.812,585.172a1.049,1.049,0,0,1,2.1,0A1.049,1.049,0,1,1-444.812,585.172Z" transform="translate(461.595 -583.284)" fill="#f0bc1b"/>
      <path id="Path_29612" data-name="Path 29612" d="M-504.991,637.259a1.049,1.049,0,0,1,.04-2.1C-503.589,635.148-503.682,637.294-504.991,637.259Z" transform="translate(515.715 -628.39)" fill="#f0bc1b"/>
    </g>
  </g>
</svg>
