<svg xmlns="http://www.w3.org/2000/svg" width="29.659" height="30" viewBox="0 0 29.659 30">
  <g id="BgdfRe.tif" transform="translate(547.887 591.358) rotate(90)">
    <g id="Group_39821" data-name="Group 39821" transform="translate(-591.358 518.228)">
      <path id="Path_29613" data-name="Path 29613" d="M-570.994,529.313c.253-5.438-3.12-9.81-7.831-10.822a10.633,10.633,0,0,0-5.059.087,10.131,10.131,0,0,0-6.941,12.916c1.905,5.679,7.958,8.139,11.909,6.814A15.393,15.393,0,0,0-575.4,536.8c.441-.283.832-.942,1.274-.833.464.115.792.735,1.206,1.106a.55.55,0,0,1,.153.778,2.566,2.566,0,0,0,.489,3.025c2.088,2.137,4.227,4.221,6.393,6.278a2.522,2.522,0,0,0,2.049.72,2.549,2.549,0,0,0,2.291-1.74,2.518,2.518,0,0,0-.616-2.809c-1.308-1.316-2.66-2.589-3.986-3.887-.781-.765-1.538-1.554-2.324-2.313a2.227,2.227,0,0,0-2.462-.687,1.438,1.438,0,0,1-1.98-.6,1.8,1.8,0,0,0-.327-.323c-.281-.209-.255-.382-.03-.644A8.8,8.8,0,0,0-570.994,529.313Z" transform="translate(591.358 -518.228)" fill="#fbdfa1"/>
      <path id="Path_29614" data-name="Path 29614" d="M-570.994,529.313a8.8,8.8,0,0,1-2.277,5.56c-.225.262-.251.434.03.644a1.8,1.8,0,0,1,.327.323,1.438,1.438,0,0,0,1.98.6,2.227,2.227,0,0,1,2.462.687c.786.759,1.543,1.548,2.324,2.313,1.326,1.3,2.677,2.571,3.986,3.887a2.518,2.518,0,0,1,.616,2.809,2.549,2.549,0,0,1-2.291,1.74,2.522,2.522,0,0,1-2.049-.72c-2.166-2.057-4.305-4.141-6.393-6.278a2.566,2.566,0,0,1-.489-3.025.55.55,0,0,0-.153-.778c-.414-.37-.742-.991-1.206-1.106-.442-.109-.832.549-1.274.833a15.393,15.393,0,0,1-3.517,1.509c-3.95,1.325-10-1.135-11.909-6.814a10.131,10.131,0,0,1,6.941-12.916,10.633,10.633,0,0,1,5.059-.087C-574.114,519.5-570.742,523.875-570.994,529.313Zm-10.119,8.455c.6-.034,1.228-.083,1.854-.181a6.989,6.989,0,0,0,1.6-.595,9.128,9.128,0,0,0,5.686-10.261c-.529-3.133-3.295-7.124-7.875-7.55a10.4,10.4,0,0,0-2.806.016,9.324,9.324,0,0,0-7.4,11.894A9.8,9.8,0,0,0-581.113,537.768Zm18.839,7.634a2.036,2.036,0,0,0-.668-1.626q-2.727-2.665-5.45-5.335a.935.935,0,0,1-.081-.081c-.2-.252-.38-.246-.608-.01-.639.661-1.29,1.308-1.948,1.95-.2.193-.261.328-.027.555,1.947,1.892,3.872,3.805,5.828,5.687a1.636,1.636,0,0,0,1.97.265A1.65,1.65,0,0,0-562.274,545.4Zm-9.894-6.388a1.8,1.8,0,0,0,.184.776c.162.383.328.509.678.127.595-.65,1.224-1.271,1.869-1.871.33-.307.208-.456-.1-.626A1.813,1.813,0,0,0-572.168,539.015Z" transform="translate(591.358 -518.228)"/>
      <path id="Path_29615" data-name="Path 29615" d="M-574.5,544.439a9.8,9.8,0,0,1-8.942-6.678,9.324,9.324,0,0,1,7.4-11.893,10.4,10.4,0,0,1,2.806-.016c4.581.427,7.346,4.418,7.875,7.55a9.128,9.128,0,0,1-5.686,10.261,6.986,6.986,0,0,1-1.6.595C-573.275,544.356-573.9,544.406-574.5,544.439Zm-.534-17.349a7.536,7.536,0,0,0-6.711,4.574,7.369,7.369,0,0,0,1.156,8.542,7.7,7.7,0,0,0,5.773,2.887,7.844,7.844,0,0,0,8.235-8.16C-566.684,530.546-569.956,527.206-575.036,527.09Z" transform="translate(584.747 -524.899)" fill="#dddbd4"/>
      <path id="Path_29616" data-name="Path 29616" d="M-406.761,699.321a1.65,1.65,0,0,1-.984,1.405,1.636,1.636,0,0,1-1.97-.265c-1.956-1.882-3.882-3.8-5.828-5.687-.234-.227-.171-.362.027-.555.658-.641,1.31-1.289,1.948-1.95.228-.236.408-.242.608.01a.93.93,0,0,0,.081.081q2.725,2.668,5.45,5.335A2.036,2.036,0,0,1-406.761,699.321Zm-7.888-4.89a.243.243,0,0,0-.253.144c-.076.181.057.286.163.393q1.441,1.445,2.886,2.886c.133.132.282.324.48.132.214-.208-.018-.343-.142-.468q-1.437-1.448-2.885-2.886A2.758,2.758,0,0,0-414.649,694.432Zm3.982,4.428c.176.017.313-.037.3-.158a.724.724,0,0,0-.536-.579c-.11-.037-.226.083-.213.2C-411.089,698.621-410.852,698.748-410.667,698.859Z" transform="translate(435.845 -672.147)" fill="#9ba839"/>
      <path id="Path_29617" data-name="Path 29617" d="M-424.078,685.54a1.813,1.813,0,0,1,2.629-1.594c.309.17.432.319.1.626-.645.6-1.274,1.221-1.869,1.871-.35.382-.516.256-.678-.127A1.808,1.808,0,0,1-424.078,685.54Z" transform="translate(443.267 -664.753)" fill="#9ba839"/>
      <path id="Path_29618" data-name="Path 29618" d="M-565.163,537.327c5.081.116,8.352,3.456,8.453,7.843a7.844,7.844,0,0,1-8.235,8.16,7.7,7.7,0,0,1-5.773-2.887,7.369,7.369,0,0,1-1.156-8.542A7.536,7.536,0,0,1-565.163,537.327Zm-7.045,7.805a7.587,7.587,0,0,0,7.292,7.734c4.069.167,7.809-3.135,7.815-7.12.007-4.291-2.688-7.72-6.86-7.956A7.521,7.521,0,0,0-572.208,545.132Z" transform="translate(574.874 -535.136)"/>
      <path id="Path_29619" data-name="Path 29619" d="M-408.712,712.495a2.758,2.758,0,0,1,.249.2q1.446,1.44,2.885,2.886c.124.125.355.26.142.468-.2.192-.347,0-.48-.132q-1.445-1.44-2.886-2.886c-.106-.107-.238-.212-.163-.393A.243.243,0,0,1-408.712,712.495Z" transform="translate(429.908 -690.21)"/>
      <path id="Path_29620" data-name="Path 29620" d="M-375.378,745.356c-.185-.111-.421-.239-.453-.533-.013-.12.1-.24.213-.2a.724.724,0,0,1,.536.579C-375.065,745.318-375.2,745.372-375.378,745.356Z" transform="translate(400.555 -718.643)"/>
      <path id="Path_29621" data-name="Path 29621" d="M-568.16,548.588a7.521,7.521,0,0,1,8.247-7.342c4.172.236,6.867,3.665,6.86,7.956-.006,3.985-3.746,7.287-7.815,7.12A7.587,7.587,0,0,1-568.16,548.588Zm8.48-2.778c0-.5.006-1,0-1.5-.01-.655-.354-1.055-.887-1.045s-.86.414-.863,1.074c-.006,1.016-.017,2.032.006,3.048.008.377-.108.5-.487.487q-1.552-.034-3.105,0c-.672.015-1.032.365-1.02.916s.4.861,1.065.865c1.016.007,2.033.023,3.048-.008.419-.013.511.132.5.522-.026,1-.011,1.993-.008,2.99,0,.7.334,1.1.888,1.1s.86-.407.863-1.12c0-.978.029-1.957-.011-2.933-.019-.476.152-.572.586-.56,1.034.028,2.07.014,3.105.005a.846.846,0,0,0,.9-.658.824.824,0,0,0-.353-.956,1.442,1.442,0,0,0-.831-.173c-.978,0-1.956-.013-2.933.005-.345.006-.482-.1-.466-.456C-559.661,546.884-559.679,546.346-559.68,545.809Z" transform="translate(570.826 -538.591)" fill="#77cad0"/>
      <path id="Path_29622" data-name="Path 29622" d="M-543.264,561.542c0,.537.018,1.074-.006,1.61-.016.359.121.462.466.456.977-.018,1.955-.007,2.933-.005a1.442,1.442,0,0,1,.831.173.824.824,0,0,1,.353.956.846.846,0,0,1-.9.658c-1.035.009-2.071.023-3.105-.005-.434-.012-.6.084-.586.56.039.976.014,1.955.011,2.933,0,.713-.319,1.117-.863,1.12s-.885-.4-.888-1.1c0-1-.018-1.994.008-2.99.01-.39-.081-.535-.5-.522-1.015.031-2.032.015-3.048.008-.669,0-1.054-.325-1.065-.865s.349-.9,1.02-.916q1.552-.034,3.105,0c.379.008.5-.11.487-.487-.023-1.016-.012-2.032-.006-3.048,0-.659.336-1.064.863-1.074s.877.39.887,1.045C-543.258,560.545-543.264,561.044-543.264,561.542Zm-3.357,2.689c-.556,0-1.112-.007-1.668,0-.206,0-.514-.115-.518.26,0,.344.276.3.5.3,1.093,0,2.187.023,3.279-.011.458-.014.632.074.609.58-.045,1.034-.024,2.071-.007,3.106,0,.252-.174.676.264.692s.292-.411.3-.664c.014-1.055.025-2.11,0-3.164-.011-.414.076-.564.527-.55,1.13.036,2.262.011,3.394.013.218,0,.452.013.465-.287.014-.328-.237-.28-.446-.28-1.151,0-2.3-.013-3.452.008-.369.007-.5-.087-.487-.475.026-1.131.011-2.263.008-3.394,0-.236.081-.558-.311-.539-.345.016-.258.315-.259.532,0,1.151-.012,2.3.005,3.452,0,.32-.082.438-.415.424C-545.431,564.213-546.026,564.231-546.621,564.231Z" transform="translate(554.41 -554.324)"/>
      <path id="Path_29623" data-name="Path 29623" d="M-540.328,570.623c.594,0,1.19-.018,1.783.007.333.014.42-.1.415-.424-.017-1.15-.008-2.3-.005-3.452,0-.217-.086-.516.259-.532.391-.019.31.3.311.539,0,1.131.018,2.263-.008,3.394-.009.388.119.482.488.476,1.15-.022,2.3-.008,3.452-.008.208,0,.46-.048.446.28-.013.3-.247.288-.465.287-1.131,0-2.263.023-3.394-.013-.451-.014-.538.136-.527.55.029,1.054.018,2.109,0,3.164,0,.253.154.68-.3.664s-.26-.439-.264-.692c-.017-1.035-.039-2.072.007-3.106.022-.506-.151-.594-.609-.58-1.092.034-2.186.011-3.279.011-.228,0-.507.042-.5-.3,0-.375.312-.256.518-.26C-541.44,570.616-540.884,570.623-540.328,570.623Z" transform="translate(548.117 -560.717)" fill="#fefefd"/>
    </g>
  </g>
</svg>
