<svg xmlns="http://www.w3.org/2000/svg" width="38.637" height="28.607" viewBox="0 0 38.637 28.607">
  <g id="EP2a4W.tif" transform="translate(-302.05 -288.098)">
    <g id="Group_39914" data-name="Group 39914" transform="translate(302.05 288.098)">
      <path id="Path_29747" data-name="Path 29747" d="M340.619,301.6q-.072-6.258-.144-12.516a1.69,1.69,0,0,0-.026-.2c.1-.714.009-.825-.745-.778-4.65.289-9.29.75-13.949.884a4.342,4.342,0,0,0-3.5,1.441c-.192.231-.357.327-.664.085a6.551,6.551,0,0,0-4.188-1.308c-1.63,0-3.256-.086-4.879-.224q-4.833-.411-9.665-.836c-.277-.024-.554-.052-.727.229-.183.3-.02.512.186.712.014,4.175-.022,8.35.153,12.522-.155.51.056.773.669.776,1.833.009,3.667,0,5.5.009.181,0,.4-.1.559.1a3.221,3.221,0,0,0-1.2,3.691,3.159,3.159,0,0,0,3.237,2.294c.291,0,.3.135.344.361a2.875,2.875,0,0,0,2.545,2.6c.344.061.407.179.461.491a2.814,2.814,0,0,0,2.166,2.424.757.757,0,0,1,.594.532,2.7,2.7,0,0,0,3.953,1.426.712.712,0,0,1,.733-.073,2.287,2.287,0,0,0,3.207-1.691c.06-.3.159-.336.424-.346a2.645,2.645,0,0,0,2.821-2.73c.02-.347.119-.386.424-.4a2.657,2.657,0,0,0,2.718-2.706c.02-.386.153-.412.471-.429a2.678,2.678,0,0,0,2.66-2.418.72.72,0,0,1,.465-.646,4.479,4.479,0,0,0,2.146-2,.7.7,0,0,1,.744-.428c.633.024,1.268.021,1.9,0C340.665,302.433,340.787,302.246,340.619,301.6Z" transform="translate(-302.05 -288.098)" fill="#e3e3f8"/>
      <path id="Path_29748" data-name="Path 29748" d="M304.152,307.892c-.175-4.173-.14-8.348-.153-12.523,5.045.446,10.081,1.014,15.154,1.1a5.434,5.434,0,0,1,3.713,1.268l-.667.635c-1.5,1.439-3.016,2.87-4.511,4.32a1.667,1.667,0,0,0-.38,2.247,4.826,4.826,0,0,0,6.49,1.264,11.765,11.765,0,0,0,3.777-3.346c.1.087.177.139.24.2q3.521,3.536,7.039,7.075a2.464,2.464,0,0,1,.343.419,1.756,1.756,0,0,1-.384,2.316,1.565,1.565,0,0,1-2.2-.148c-.821-.779-1.626-1.574-2.444-2.356-.272-.26-.566-.652-.966-.263s-.011.686.26.949c.7.678,1.4,1.348,2.1,2.023a2.354,2.354,0,0,1,.7,1.139,1.731,1.731,0,0,1-.73,1.9,1.663,1.663,0,0,1-2.126-.206c-.889-.8-1.735-1.656-2.6-2.486-.256-.245-.543-.494-.873-.163s-.079.612.179.86c.817.783,1.642,1.558,2.446,2.354a1.739,1.739,0,0,1,.086,2.582,1.59,1.59,0,0,1-2.5-.306c-.557-.655-1.115-1.309-1.683-1.954a.457.457,0,0,0-.712-.091.471.471,0,0,0-.025.721c.113.141.242.27.352.413a13.234,13.234,0,0,1,1.664,2.13,1.128,1.128,0,0,1-1.009,1.77c-.483.034-.766,0-.548-.662a2.651,2.651,0,0,0-1.639-3.356.83.83,0,0,1-.58-.64,2.794,2.794,0,0,0-2.384-2.124c-.342-.06-.47-.132-.527-.5a2.84,2.84,0,0,0-2.559-2.5c-.318-.047-.392-.137-.408-.449a3.278,3.278,0,0,0-3.378-3.327c-.2-.006-.42.045-.562-.15a.975.975,0,0,0-.912-.32q-3.123.008-6.246,0A1.178,1.178,0,0,0,304.152,307.892Zm24.108-1.884c-.233.056-.445.223-.286.463a3.287,3.287,0,0,0,1.144,1.116c.228.122.443-.019.427-.329A3.494,3.494,0,0,0,328.26,306.008Zm-1.733,4.5a3.489,3.489,0,0,0-1.262-1.289c-.359,0-.466.268-.3.494a5.873,5.873,0,0,0,1.043,1.048C326.282,310.969,326.459,310.757,326.528,310.506Zm-3.076,3.244c.023-.279-1.007-1.382-1.249-1.357-.257.027-.465.209-.307.452a3.614,3.614,0,0,0,1.133,1.121A.273.273,0,0,0,323.452,313.749Z" transform="translate(-303.733 -294.378)" fill="#db9f77"/>
      <path id="Path_29749" data-name="Path 29749" d="M430.952,293.874a1.7,1.7,0,0,1,.026.2q.073,6.258.144,12.515a4.922,4.922,0,0,0-2.079-.125c-.555.012-.683-.173-.659-.692.045-.971.022-1.945.031-2.918,0-.347-.061-.665-.483-.674s-.486.312-.491.658c-.012.973-.065,1.946-.042,2.918a3.386,3.386,0,0,1-1.608,2.958c-.45.324-.805.451-1.1-.187a2.464,2.464,0,0,0-.546-.6q-3.205-3.225-6.41-6.451c-.164-.165-.422-.279-.423-.591.8.056,1.588.106,2.375.168.372.029.789.087.847-.414s-.367-.548-.736-.574c-.925-.064-1.853-.092-2.775-.187a1.034,1.034,0,0,0-1.094.58,10.013,10.013,0,0,1-4.169,3.773,3.61,3.61,0,0,1-4.417-.736c-.679-.651-.689-.893-.016-1.536,2.141-2.048,4.3-4.079,6.426-6.143a2.837,2.837,0,0,1,2-.822c4.454-.14,8.893-.534,13.336-.851A4.108,4.108,0,0,0,430.952,293.874Z" transform="translate(-392.552 -293.087)" fill="#fccb9d"/>
      <path id="Path_29750" data-name="Path 29750" d="M340.449,288.885a4.108,4.108,0,0,1-1.858.272c-4.443.317-8.882.71-13.336.851a2.837,2.837,0,0,0-2,.822c-2.127,2.064-4.285,4.095-6.426,6.143-.672.643-.662.886.017,1.536a3.61,3.61,0,0,0,4.417.736,10.013,10.013,0,0,0,4.169-3.773,1.033,1.033,0,0,1,1.094-.58c.921.1,1.85.123,2.775.187.37.026.8.061.736.574s-.474.443-.847.414c-.788-.062-1.576-.112-2.375-.168,0,.312.259.426.423.591q3.2,3.232,6.41,6.451a2.466,2.466,0,0,1,.546.6c.295.638.65.512,1.1.187a3.386,3.386,0,0,0,1.608-2.958c-.022-.972.03-1.945.042-2.918,0-.346.059-.668.491-.658s.486.328.482.674c-.009.973.014,1.947-.031,2.918-.024.518.1.7.659.691a4.923,4.923,0,0,1,2.079.125c.167.645.046.831-.606.851-.633.019-1.268.022-1.9,0a.7.7,0,0,0-.744.428,4.479,4.479,0,0,1-2.146,2,.72.72,0,0,0-.465.646,2.678,2.678,0,0,1-2.66,2.418c-.318.017-.451.043-.471.429a2.657,2.657,0,0,1-2.718,2.706c-.305.015-.4.054-.424.4a2.645,2.645,0,0,1-2.821,2.73c-.265.01-.364.044-.424.346a2.287,2.287,0,0,1-3.207,1.691.712.712,0,0,0-.733.073,2.7,2.7,0,0,1-3.953-1.426.757.757,0,0,0-.594-.532,2.814,2.814,0,0,1-2.166-2.424c-.054-.312-.117-.431-.461-.491a2.875,2.875,0,0,1-2.545-2.6c-.041-.226-.052-.357-.344-.361A3.159,3.159,0,0,1,308,306.183a3.221,3.221,0,0,1,1.2-3.691c-.16-.2-.377-.1-.559-.1-1.833-.01-3.667,0-5.5-.009-.613,0-.824-.266-.669-.776a1.178,1.178,0,0,1,.836-.192q3.123,0,6.246,0a.975.975,0,0,1,.912.32c.142.2.36.144.562.15a3.278,3.278,0,0,1,3.378,3.327c.016.313.09.4.408.449a2.84,2.84,0,0,1,2.559,2.5c.057.372.185.444.527.5a2.794,2.794,0,0,1,2.384,2.124.831.831,0,0,0,.58.64,2.651,2.651,0,0,1,1.639,3.356c-.217.661.065.7.548.662a1.128,1.128,0,0,0,1.009-1.77,13.236,13.236,0,0,0-1.664-2.13c-.109-.144-.239-.272-.352-.413a.471.471,0,0,1,.025-.72.457.457,0,0,1,.712.091c.568.645,1.127,1.3,1.683,1.954a1.59,1.59,0,0,0,2.5.305,1.739,1.739,0,0,0-.086-2.582c-.8-.8-1.629-1.57-2.446-2.354-.258-.248-.514-.524-.179-.86s.617-.083.873.163c.865.831,1.711,1.683,2.6,2.486a1.663,1.663,0,0,0,2.126.206,1.731,1.731,0,0,0,.73-1.9,2.354,2.354,0,0,0-.7-1.139c-.7-.675-1.407-1.345-2.1-2.023-.271-.263-.672-.548-.26-.949s.694,0,.965.263c.817.782,1.623,1.578,2.444,2.356a1.565,1.565,0,0,0,2.2.148,1.756,1.756,0,0,0,.384-2.316,2.464,2.464,0,0,0-.343-.419q-3.517-3.54-7.039-7.075c-.063-.063-.136-.116-.24-.2a11.765,11.765,0,0,1-3.777,3.346,4.826,4.826,0,0,1-6.49-1.264,1.667,1.667,0,0,1,.38-2.247c1.494-1.449,3.006-2.881,4.511-4.32l.667-.635a5.434,5.434,0,0,0-3.713-1.268c-5.073-.083-10.109-.651-15.154-1.1-.207-.2-.369-.416-.186-.712.173-.28.45-.253.727-.229q4.832.42,9.665.836c1.623.138,3.249.224,4.879.224a6.551,6.551,0,0,1,4.188,1.308c.308.242.473.146.664-.085a4.342,4.342,0,0,1,3.5-1.441c4.659-.134,9.3-.595,13.949-.884C340.458,288.06,340.55,288.171,340.449,288.885Zm-27.534,18.13c.145-.424.316-.842.431-1.274a2.246,2.246,0,0,0-1.072-2.548,2.307,2.307,0,0,0-3.2,3.073,2.255,2.255,0,0,0,2.507,1.168c.457-.105.9-.285,1.343-.43-.082.28-.152.565-.248.84a1.946,1.946,0,0,0,2.37,2.562c.766-.2.769-.185.585.571a1.9,1.9,0,0,0,1.813,2.491c.642-.017.719.172.747.72a1.649,1.649,0,0,0,1.819,1.525,1.708,1.708,0,0,0,1.626-1.679,1.725,1.725,0,0,0-1.719-1.808c-.253-.033-.513.052-.527-.4-.053-1.75-1.05-2.5-2.726-2.047-.489.131-.587.041-.4-.414a2.232,2.232,0,0,0,.078-.329,1.9,1.9,0,0,0-2.39-2.32C313.605,306.807,313.261,306.914,312.915,307.015Z" transform="translate(-302.05 -288.098)"/>
      <path id="Path_29751" data-name="Path 29751" d="M479.9,373.448a3.494,3.494,0,0,1,1.286,1.25c.016.31-.2.451-.427.329a3.288,3.288,0,0,1-1.144-1.116C479.451,373.671,479.663,373.5,479.9,373.448Z" transform="translate(-455.368 -361.819)"/>
      <path id="Path_29752" data-name="Path 29752" d="M458.967,398.286c-.069.252-.246.463-.513.253a5.873,5.873,0,0,1-1.043-1.048c-.171-.225-.063-.492.3-.494A3.489,3.489,0,0,1,458.967,398.286Z" transform="translate(-436.172 -382.159)"/>
      <path id="Path_29753" data-name="Path 29753" d="M436.552,421.662a.273.273,0,0,1-.424.216A3.616,3.616,0,0,1,435,420.757c-.158-.243.05-.425.307-.452C435.544,420.28,436.575,421.383,436.552,421.662Z" transform="translate(-416.833 -402.291)"/>
      <path id="Path_29754" data-name="Path 29754" d="M379.437,424.547c.346-.1.69-.208,1.038-.3a1.9,1.9,0,0,1,2.39,2.32,2.221,2.221,0,0,1-.078.329c-.184.455-.086.545.4.414,1.675-.448,2.672.3,2.726,2.047.014.453.274.367.527.4a1.726,1.726,0,0,1,1.719,1.808,1.708,1.708,0,0,1-1.626,1.679,1.649,1.649,0,0,1-1.819-1.525c-.029-.548-.106-.737-.747-.72a1.9,1.9,0,0,1-1.813-2.491c.185-.756.181-.769-.585-.571a1.946,1.946,0,0,1-2.37-2.562c.1-.275.166-.56.248-.84Z" transform="translate(-368.571 -405.629)" fill="#fccb9d"/>
      <path id="Path_29755" data-name="Path 29755" d="M355.771,400.726c-.447.146-.887.325-1.343.43a2.254,2.254,0,0,1-2.507-1.168,2.307,2.307,0,0,1,3.2-3.073,2.246,2.246,0,0,1,1.072,2.548c-.115.432-.286.85-.431,1.274Z" transform="translate(-344.894 -381.821)" fill="#fccb9d"/>
    </g>
  </g>
</svg>
