<svg xmlns="http://www.w3.org/2000/svg" width="29.241" height="25.402" viewBox="0 0 29.241 25.402">
  <g id="VUanGT.tif" transform="translate(346.287 -336.928)">
    <g id="Group_39915" data-name="Group 39915" transform="translate(-346.287 336.928)">
      <path id="Path_29756" data-name="Path 29756" d="M-334.361,336.953c.2.259.327.424.459.587q4.727,5.844,9.466,11.682a.568.568,0,0,1-.006.854q-4.687,5.842-9.336,11.7c-.114.144-.306.268-.273.515q3.4-.01,6.8-.018c.3,0,.371-.178.487-.323q4.781-6.017,9.563-12.034a.451.451,0,0,0,.018-.67q-4.907-6.008-9.786-12.03a.658.658,0,0,0-.587-.291C-329.785,336.944-332.01,336.946-334.361,336.953Zm-11.827,25.377c2.277-.007,4.405-.024,6.533-.01a1.077,1.077,0,0,0,.982-.423q4.7-5.96,9.443-11.9a.511.511,0,0,0,.009-.762q-4.854-5.939-9.67-11.9a.968.968,0,0,0-.877-.375c-2,.024-3.994.018-5.991.028a.736.736,0,0,0-.528.089c.136.174.262.34.394.5q4.71,5.82,9.433,11.634a.629.629,0,0,1-.012.948c-1.865,2.3-3.7,4.622-5.544,6.936Z" transform="translate(346.287 -336.928)" fill="#fbdfa1"/>
      <path id="Path_29757" data-name="Path 29757" d="M-234.905,336.953c2.351-.007,4.576-.009,6.8-.025a.658.658,0,0,1,.587.291q4.885,6.019,9.786,12.03a.451.451,0,0,1-.018.67q-4.789,6.013-9.563,12.034c-.116.146-.188.323-.487.323q-3.4,0-6.8.018c-.033-.246.159-.371.273-.515q4.658-5.856,9.336-11.7a.568.568,0,0,0,.006-.854q-4.753-5.831-9.466-11.682C-234.578,337.377-234.7,337.212-234.905,336.953Zm1.8.761c.165.223.25.346.345.463q4.473,5.531,8.955,11.058c.215.265.295.458.053.759q-4.15,5.163-8.259,10.346c-.285.359-.928.822-.729,1.07.255.319,1.047.059,1.6.118a1.008,1.008,0,0,0,1.031-.445c1.529-2.006,3.088-4,4.638-5.994.485-.625.971-1.249,1.464-1.87a.391.391,0,0,1,.5-.17c.229.1.193.267.105.422a2.818,2.818,0,0,1-.234.326q-1.438,1.852-2.878,3.7c-.936,1.2-1.877,2.4-2.8,3.613-.08.105-.422.284-.014.4a1.5,1.5,0,0,0,1.56-.452q4.417-5.568,8.842-11.132a.468.468,0,0,0-.012-.707q-3.736-4.568-7.441-9.151c-.574-.707-1.146-1.414-1.728-2.116a1.671,1.671,0,0,0-1.353-.222c-.278.244.111.428.254.61,2.344,2.991,4.7,5.973,7.046,8.965.178.228.638.553.125.765-.423.174-.559-.266-.733-.487q-3.774-4.769-7.528-9.548a.637.637,0,0,0-.566-.329C-231.566,337.714-232.272,337.711-233.1,337.714Z" transform="translate(246.831 -336.928)"/>
      <path id="Path_29758" data-name="Path 29758" d="M-346.188,362.6l4.171-5.232c1.845-2.314,3.679-4.632,5.544-6.936a.629.629,0,0,0,.012-.948q-4.74-5.805-9.433-11.634c-.132-.163-.258-.329-.394-.5a.736.736,0,0,1,.528-.089c2-.01,3.994,0,5.991-.028a.968.968,0,0,1,.877.375q4.818,5.956,9.67,11.9a.511.511,0,0,1-.009.762q-4.738,5.943-9.443,11.9a1.077,1.077,0,0,1-.982.423C-341.783,362.577-343.911,362.595-346.188,362.6Zm1.63-24.579c.151.2.216.291.288.38q4.51,5.578,9.029,11.153a.505.505,0,0,1,.029.759c-1.77,2.185-3.513,4.383-5.263,6.577q-1.792,2.247-3.579,4.5c-.091.115-.285.234-.183.375s.333.063.506.067c.413.009.829-.019,1.24.005a.893.893,0,0,0,.874-.376c1.139-1.5,2.312-2.991,3.474-4.484q1.316-1.691,2.634-3.381c.13-.166.269-.381.58-.224.243.123.151.31.034.475-.055.078-.11.156-.169.232-1.611,2.073-3.227,4.143-4.829,6.22a9.752,9.752,0,0,0-1.1,1.506c.753.018,1.365.133,1.863-.508,2.852-3.674,5.768-7.318,8.682-10.963a.6.6,0,0,0,0-.9q-4.5-5.49-8.944-11a1.025,1.025,0,0,0-1.048-.424c-.191.026-.45-.079-.559.089-.087.134.1.257.2.375q1.394,1.776,2.795,3.549c1.471,1.864,2.949,3.726,4.408,5.6.172.221.593.523.17.738-.453.23-.582-.212-.751-.425q-3.778-4.769-7.535-9.549c-.129-.164-.22-.364-.536-.363Z" transform="translate(346.287 -337.199)"/>
      <path id="Path_29759" data-name="Path 29759" d="M-218.083,343.795c.831,0,1.538,0,2.245-.009a.637.637,0,0,1,.566.329q3.76,4.776,7.528,9.548c.174.22.31.661.733.487.513-.212.054-.537-.125-.765-2.342-2.992-4.7-5.974-7.046-8.965-.142-.182-.531-.366-.254-.61a1.671,1.671,0,0,1,1.353.222c.582.7,1.154,1.41,1.728,2.116q3.717,4.577,7.441,9.151a.468.468,0,0,1,.012.707q-4.438,5.558-8.842,11.132a1.5,1.5,0,0,1-1.56.452c-.408-.113-.066-.291.014-.4.923-1.209,1.864-2.41,2.8-3.613q1.439-1.851,2.878-3.7a2.817,2.817,0,0,0,.234-.326c.088-.155.124-.322-.105-.422a.391.391,0,0,0-.5.17c-.493.621-.979,1.246-1.464,1.87-1.55,2-3.109,3.988-4.638,5.994a1.008,1.008,0,0,1-1.031.445c-.553-.06-1.344.2-1.6-.118-.2-.248.444-.711.729-1.07q4.116-5.18,8.259-10.346c.242-.3.163-.494-.053-.759q-4.489-5.523-8.955-11.058C-217.833,344.14-217.918,344.017-218.083,343.795Zm12.036,12.749a.294.294,0,0,0-.253-.281.44.44,0,0,0-.462.157,6.232,6.232,0,0,0-.585.774c-.143.259-.748.558-.249.8.559.271.626-.311.856-.538A6.948,6.948,0,0,0-206.047,356.544Z" transform="translate(231.811 -343.009)" fill="#5fbb90"/>
      <path id="Path_29760" data-name="Path 29760" d="M-330.136,344.365l2.306-.007c.316,0,.407.2.536.363q3.765,4.776,7.535,9.549c.169.213.3.655.751.425.423-.214,0-.517-.17-.738-1.459-1.87-2.937-3.731-4.408-5.6q-1.4-1.773-2.795-3.549c-.092-.117-.284-.241-.2-.375.11-.168.368-.063.559-.089a1.025,1.025,0,0,1,1.048.424q4.447,5.514,8.944,11a.6.6,0,0,1,0,.9c-2.914,3.645-5.83,7.289-8.682,10.963-.5.641-1.11.526-1.863.508a9.752,9.752,0,0,1,1.1-1.506c1.6-2.077,3.218-4.147,4.829-6.22.059-.076.114-.155.169-.232.117-.165.209-.352-.034-.475-.31-.157-.45.058-.58.224q-1.32,1.689-2.634,3.381c-1.162,1.493-2.334,2.981-3.474,4.484a.893.893,0,0,1-.874.376c-.411-.024-.827,0-1.24-.005-.172,0-.4.075-.505-.067s.091-.26.183-.375q1.785-2.251,3.579-4.5c1.75-2.194,3.494-4.392,5.263-6.577a.505.505,0,0,0-.029-.759q-4.528-5.57-9.029-11.153C-329.919,344.656-329.985,344.564-330.136,344.365Zm12.036,12.741a.283.283,0,0,0-.242-.273.409.409,0,0,0-.421.109q-.514.653-1.012,1.315c-.095.126-.035.241.1.327a.33.33,0,0,0,.376.007A8.2,8.2,0,0,0-318.1,357.106Z" transform="translate(331.865 -343.541)" fill="#5fbb90"/>
      <path id="Path_29761" data-name="Path 29761" d="M-120.218,460.893a6.947,6.947,0,0,1-.693.912c-.23.226-.3.809-.856.538-.5-.242.106-.541.249-.8a6.233,6.233,0,0,1,.585-.774.44.44,0,0,1,.462-.157A.294.294,0,0,1-120.218,460.893Z" transform="translate(145.981 -447.358)"/>
      <path id="Path_29762" data-name="Path 29762" d="M-232.081,461.214a8.192,8.192,0,0,1-1.2,1.484.33.33,0,0,1-.376-.007c-.137-.086-.2-.2-.1-.327q.5-.661,1.012-1.315a.408.408,0,0,1,.421-.109A.283.283,0,0,1-232.081,461.214Z" transform="translate(245.846 -447.649)"/>
    </g>
  </g>
</svg>
