<svg xmlns="http://www.w3.org/2000/svg" width="30.724" height="30.723" viewBox="0 0 30.724 30.723">
  <g id="Group_4141" data-name="Group 4141" transform="translate(-179.624 -379.623)">
    <g id="Group_3859" data-name="Group 3859">
      <rect id="Rectangle_718" data-name="Rectangle 718" width="1.962" height="1.934" rx="0.967" transform="translate(194.005 387.522)" fill="#fff"/>
    </g>
    <g id="Group_3858" data-name="Group 3858">
      <g id="Group_3857" data-name="Group 3857">
        <path id="Path_6336" data-name="Path 6336" d="M205.88,384.162a15.157,15.157,0,0,0-10.862-4.539A15.366,15.366,0,0,0,184.1,405.831a15.2,15.2,0,0,0,10.855,4.515h0a15.323,15.323,0,0,0,15.388-15.2A15.514,15.514,0,0,0,205.88,384.162Zm-24.53,10.763a13.559,13.559,0,0,1,13.785-13.573v-.3h0l.025.3a13.637,13.637,0,0,1-.3,27.273,13.385,13.385,0,0,1-9.526-3.97A13.638,13.638,0,0,1,181.35,394.925Zm13.61,15.123Z" fill="#fff"/>
      </g>
      <rect id="Rectangle_717" data-name="Rectangle 717" width="2.015" height="11.237" rx="1.008" transform="translate(193.978 391.622)" fill="#fff"/>
    </g>
  </g>
</svg>
