<svg xmlns="http://www.w3.org/2000/svg" width="34.398" height="34.916" viewBox="0 0 34.398 34.916">
  <g id="Group_3837" data-name="Group 3837" transform="translate(-115.443 -305.995)">
    <path id="Path_6322" data-name="Path 6322" d="M124.757,324.352c0,1.812-.007,3.624.006,5.436a2.234,2.234,0,0,0,2.141,2.525c1.607.218,3.216.359,4.781.417a30.882,30.882,0,0,0,6.778-.41,2.168,2.168,0,0,0,2.048-2.115c.056-2.645.035-5.3.011-7.582a1.567,1.567,0,0,0-1.385-1.438c-.135-.017-.271-.029-.421-.042l-.434-.041v-.191c0-.33,0-.655.008-.976.007-.7.015-1.352-.014-2.016a5.626,5.626,0,0,0-5.6-5.382,5.732,5.732,0,0,0-1.875.319,5.64,5.64,0,0,0-3.8,5.529c-.007.57-.005,1.14,0,1.715v.974l-.278.054a1.678,1.678,0,0,1-.193.032,1.655,1.655,0,0,0-1.765,1.877Zm3.985-6.784a3.963,3.963,0,0,1,7.875.534c.01.63.007,1.26,0,1.9l0,1.11h-7.9v-.211c0-.347-.01-.694-.02-1.039A15.5,15.5,0,0,1,128.742,317.568Zm-2.311,8.135,0-2.495a.36.36,0,0,1,.035-.146l.069-.2h12.338V329.6c0,.826-.062.968-.911,1.1a35.564,35.564,0,0,1-5.329.4,36.235,36.235,0,0,1-5.48-.418.749.749,0,0,1-.732-.817Q126.431,327.782,126.431,325.7Z" fill="#000"/>
    <path id="Path_6323" data-name="Path 6323" d="M148.242,317.661a1.355,1.355,0,0,0-.79.254c-.2.16-.238.43-.1.8a15.043,15.043,0,0,1,.643,8.357,15.369,15.369,0,0,1-24.738,8.846.724.724,0,0,1-.156-.19c-.017-.026-.035-.054-.057-.083l-.205-.278,1.009-.159c.485-.075.953-.147,1.419-.233a.827.827,0,0,0,.533-.326.746.746,0,0,0,.125-.574.771.771,0,0,0-.89-.629c-1.544.23-2.975.454-4.375.687a.735.735,0,0,0-.644.837c.014.223.049.442.086.675l.157,1.05c.126.865.254,1.729.39,2.592a.939.939,0,0,0,.378.665.74.74,0,0,0,.608.077.724.724,0,0,0,.557-.86c-.035-.384-.091-.776-.15-1.192-.029-.2-.058-.4-.087-.619l-.064-.482,1.156.826a16.6,16.6,0,0,0,12.016,3.069A16.8,16.8,0,0,0,149.83,324.6a16.462,16.462,0,0,0-.993-6.3C148.67,317.847,148.5,317.668,148.242,317.661Z" fill="#000"/>
    <path id="Path_6324" data-name="Path 6324" d="M117.288,319.895a15.356,15.356,0,0,1,20.837-11.228,15.48,15.48,0,0,1,4.18,2.533l.359.3-1.15.17c-.471.069-.9.132-1.328.205a1.01,1.01,0,0,0-.673.382.669.669,0,0,0-.107.517c.091.489.453.712,1.013.628q.988-.147,1.977-.3,1.01-.154,2.017-.306a1.105,1.105,0,0,0,.738-.326,1.023,1.023,0,0,0,.11-.783c-.184-1.22-.4-2.533-.668-4.129a.959.959,0,0,0-.355-.645.724.724,0,0,0-.557-.107.813.813,0,0,0-.6,1.031c.06.374.118.749.182,1.16l.156.994-.621-.422c-.125-.083-.223-.149-.318-.218a16.7,16.7,0,0,0-10.028-3.357,18.61,18.61,0,0,0-3.287.3,16.87,16.87,0,0,0-12.691,22.319,1.033,1.033,0,0,0,.5.615.708.708,0,0,0,.559,0c.435-.164.58-.583.387-1.12A15.186,15.186,0,0,1,117.288,319.895Z" fill="#000"/>
    <path id="Path_6325" data-name="Path 6325" d="M132,328.347a.338.338,0,0,0,.139.234.93.93,0,0,0,.663.107.717.717,0,0,0,.624-.716,2.6,2.6,0,0,1,.4-1.547,1.186,1.186,0,0,0-.223-1.382,1.321,1.321,0,0,0-1.443-.315,1.273,1.273,0,0,0-.795,1.189v.017c.047.154.094.307.142.46A12.805,12.805,0,0,1,132,328.347Z" fill="#000"/>
  </g>
</svg>
