<svg id="Group_559" data-name="Group 559" xmlns="http://www.w3.org/2000/svg" width="36.43" height="33.043" viewBox="0 0 36.43 33.043">
  <g id="Group_558" data-name="Group 558" transform="translate(19.472 14.458)">
    <path id="Path_688" data-name="Path 688" d="M1252.828,594.2q4.937-.011,9.873,0a1.673,1.673,0,0,0,1.314-.6,2.727,2.727,0,0,0,.678-1.9v-11.39h.768q.183,0,.366,0a.368.368,0,0,0,.4-.407c0-.206,0-.411,0-.616v-.075c0-.315-.131-.443-.45-.443h-1.472l-2,0a.239.239,0,0,1-.253-.167c-.243-.592-.492-1.183-.74-1.773l-.021-.049a1.818,1.818,0,0,0-1.656-1.1h-3.771a1.833,1.833,0,0,0-1.648,1.09q-.387.916-.767,1.835a.228.228,0,0,1-.239.162l-1.288,0h-2.245a.362.362,0,0,0-.4.392c0,.254,0,.507,0,.761a.362.362,0,0,0,.37.387c.061,0,.123,0,.186,0h.983v3.054q0,4.176,0,8.354a2.707,2.707,0,0,0,.585,1.794,1.75,1.75,0,0,0,1.423.685v.07h0Zm2.432-15.92c.124-.3.246-.589.369-.88a.31.31,0,0,1,.319-.179h2.819q.391,0,.784,0a.362.362,0,0,1,.374.255c.112.285.228.568.347.856l.176.428h-5.389Zm-2.7,14.2a1.418,1.418,0,0,1-.206-.748V580.32h10.795v2.694q0,4.332,0,8.665a1.505,1.505,0,0,1-.21.8.337.337,0,0,1-.309.178q-4.876-.006-9.747,0A.343.343,0,0,1,1252.563,592.481Z" transform="translate(-1249.274 -575.685)" fill="#eff9f3"/>
    <path id="Path_689" data-name="Path 689" d="M1256.987,583.077v4.386q0,1.231,0,2.463a.367.367,0,0,0,.407.416c.24,0,.48,0,.718,0a.367.367,0,0,0,.409-.414q0-3.445,0-6.891a.362.362,0,0,0-.4-.407c-.1,0-.2,0-.3,0l-.386,0C1257.111,582.629,1256.987,582.755,1256.987,583.077Z" transform="translate(-1249.274 -575.685)" fill="#eff9f3"/>
    <path id="Path_690" data-name="Path 690" d="M1254.327,590.342h.649c.338,0,.463-.125.463-.46v-6.82c0-.3-.13-.431-.432-.434h-.358c-.111,0-.222,0-.332,0a.367.367,0,0,0-.414.408q0,3.445,0,6.891A.37.37,0,0,0,1254.327,590.342Z" transform="translate(-1249.274 -575.685)" fill="#eff9f3"/>
    <path id="Path_691" data-name="Path 691" d="M1260.069,583.042q0,3.447,0,6.892a.369.369,0,0,0,.4.408h.676c.329,0,.457-.127.457-.451v-3.976q0-1.43,0-2.86c0-.292-.131-.424-.424-.427l-.352,0c-.117,0-.235,0-.352,0A.367.367,0,0,0,1260.069,583.042Z" transform="translate(-1249.274 -575.685)" fill="#eff9f3"/>
  </g>
  <path id="Path_692" data-name="Path 692" d="M1247.417,591.367a12.3,12.3,0,0,1-1.515.1h-.2a13.963,13.963,0,0,1-8.987-3.237l.168-.093c.269-.149.524-.289.786-.4.406-.177.824-.348,1.228-.512l.039-.016c.506-.206,1.03-.42,1.539-.648a14.178,14.178,0,0,0,1.64-.882,3.75,3.75,0,0,0,.77-.688,2.222,2.222,0,0,0,.629-1.512c0-.3,0-.606.007-.908v-.061c.005-.528.009-1.057.007-1.584a.573.573,0,0,0-.188-.366c-.073-.08-.154-.154-.234-.228a1.881,1.881,0,0,1-.344-.373,4.954,4.954,0,0,1-.711-2.2c-.005-.065-.014-.13-.022-.19l-.024-.178-.12-.058a.29.29,0,0,0-.107-.038c-.621-.081-.621-.081-.74-.7-.008-.042-.013-.085-.019-.136a1.881,1.881,0,0,0-.032-.2c-.086-.376.007-.581.319-.707a.557.557,0,0,0,.141-.088l.1-.07-.025-.124c-.052-.262-.106-.52-.159-.777l-.008-.04c-.119-.571-.231-1.11-.32-1.664a7.7,7.7,0,0,1,.01-2.777,3.449,3.449,0,0,1,2.493-2.787,6.713,6.713,0,0,1,3.366-.205,1.33,1.33,0,0,1,1.015.69.535.535,0,0,0,.382.263c1.847.19,2.294,1.7,2.345,2.924a10.307,10.307,0,0,1-.479,3.381h1.7a11.132,11.132,0,0,0,.371-3.374,8.336,8.336,0,0,0-.387-2.057,3.464,3.464,0,0,0-2.537-2.335l-.087-.022a.583.583,0,0,1-.219-.08,3.8,3.8,0,0,0-2.4-1.08,9.629,9.629,0,0,0-1.107-.067,7.1,7.1,0,0,0-3.5.872,5.116,5.116,0,0,0-2.552,3.911,11.563,11.563,0,0,0,.223,4.4.707.707,0,0,1-.062.556,3.112,3.112,0,0,0,.744,3.52.658.658,0,0,1,.2.3,7.523,7.523,0,0,0,1.25,2.594.505.505,0,0,1,.089.275v.079c0,.525,0,1.068-.044,1.593a1.1,1.1,0,0,1-.237.575,2.8,2.8,0,0,1-.713.569,8.854,8.854,0,0,1-1.137.545q-.39.157-.783.311a15.871,15.871,0,0,0-3.554,1.759,14.1,14.1,0,0,1-3.977-9.294,14.341,14.341,0,0,1,24.371-10.851,14.117,14.117,0,0,1,3.924,7.3h1.638a16.1,16.1,0,0,0-13.118-12.837c-.352-.06-.71-.1-1.057-.143l-.033,0-.52-.061-1.872,0c-.168.023-.337.044-.506.065l-.068.008c-.393.049-.8.1-1.194.173a15.912,15.912,0,0,0-10.556,6.947,15.048,15.048,0,0,0-2.585,7.183,15.639,15.639,0,0,0,4.117,12.27,15.951,15.951,0,0,0,8.734,4.989,19.137,19.137,0,0,0,2.293.278c.517.014.979.021,1.373.021l.329,0c.139,0,.4-.022.7-.054Z" transform="translate(-1229.802 -561.227)" fill="#eff9f3"/>
</svg>
