<svg xmlns="http://www.w3.org/2000/svg" width="30.798" height="30.798" viewBox="0 0 30.798 30.798">
  <g id="Group_4140" data-name="Group 4140" transform="translate(-179.587 -263.329)">
    <g id="Group_3850" data-name="Group 3850">
      <g id="Group_3849" data-name="Group 3849">
        <path id="Path_6334" data-name="Path 6334" d="M194.986,294.127a15.392,15.392,0,1,1,13.573-8.12c-.12.224-.319.557-.463.794l1.268,7.172-7.647-1.4c-.307.144-.815.379-1.142.506A15.333,15.333,0,0,1,194.986,294.127Zm0-29.054a13.655,13.655,0,1,0,4.955,26.383c.422-.164,1.27-.571,1.278-.575l.256-.123,5.735,1.048-.947-5.355.175-.283s.4-.65.585-.986a13.66,13.66,0,0,0-12.037-20.109Z" fill="#fff"/>
      </g>
    </g>
    <g id="Group_3851" data-name="Group 3851">
      <path id="Path_6335" data-name="Path 6335" d="M191.415,275.91a2.984,2.984,0,0,1,.5-1.588,3.875,3.875,0,0,1,1.468-1.332,4.617,4.617,0,0,1,2.251-.528,4.808,4.808,0,0,1,2.111.442,3.426,3.426,0,0,1,1.415,1.2,2.95,2.95,0,0,1,.5,1.65,2.542,2.542,0,0,1-.285,1.228,3.781,3.781,0,0,1-.676.912q-.392.383-1.406,1.29a5.912,5.912,0,0,0-.45.45,1.851,1.851,0,0,0-.251.354,1.755,1.755,0,0,0-.128.322q-.045.16-.136.565a.917.917,0,0,1-.981.857,1,1,0,0,1-.722-.28,1.1,1.1,0,0,1-.293-.833,3.07,3.07,0,0,1,.215-1.2,3.024,3.024,0,0,1,.569-.89,12.956,12.956,0,0,1,.956-.912c.352-.307.606-.54.763-.7a2.347,2.347,0,0,0,.4-.524,1.267,1.267,0,0,0,.161-.627,1.458,1.458,0,0,0-.491-1.113,1.793,1.793,0,0,0-1.266-.454,1.752,1.752,0,0,0-1.336.458,3.664,3.664,0,0,0-.725,1.349q-.28.932-1.064.931a1.044,1.044,0,0,1-.779-.325A1,1,0,0,1,191.415,275.91Zm4.024,9.037a1.3,1.3,0,0,1-.878-.325,1.142,1.142,0,0,1-.375-.911,1.176,1.176,0,0,1,.363-.875,1.225,1.225,0,0,1,.89-.354,1.209,1.209,0,0,1,1.229,1.229,1.15,1.15,0,0,1-.371.907A1.255,1.255,0,0,1,195.439,284.947Z" fill="#fff"/>
    </g>
  </g>
</svg>
