<svg xmlns="http://www.w3.org/2000/svg" width="24.724" height="25.808" viewBox="0 0 24.724 25.808">
  <g id="footer-logout">
    <g id="Group_562" data-name="Group 562">
      <path id="Path_696" data-name="Path 696" d="M1305.424,382.276c-.53-.075-1.062-.136-1.589-.228a12.007,12.007,0,0,1-9.76-9.445,11.285,11.285,0,0,1,3.631-10.862,12.166,12.166,0,0,1,1.327-1.053.954.954,0,0,1,1.239.115.878.878,0,0,1,.135,1.107,1.708,1.708,0,0,1-.412.392,9.835,9.835,0,0,0,.354,16.378,10.639,10.639,0,0,0,15.333-4.119,9.8,9.8,0,0,0-3.118-12.14c-.093-.068-.188-.133-.28-.2a.9.9,0,0,1-.277-1.263.967.967,0,0,1,1.318-.3,8.887,8.887,0,0,1,.945.7,11.6,11.6,0,0,1,.629,17.452,12.169,12.169,0,0,1-7.671,3.41,2.169,2.169,0,0,0-.25.049Z" transform="translate(-1293.835 -356.468)" fill="#eff9f3"/>
      <path id="Path_697" data-name="Path 697" d="M1307.456,362.939c0,1.8,0,3.6,0,5.406a.957.957,0,0,1-1.235.969.943.943,0,0,1-.689-1q0-4.4,0-8.8c0-.681,0-1.361,0-2.042a.963.963,0,1,1,1.924,0C1307.459,359.3,1307.456,361.118,1307.456,362.939Z" transform="translate(-1293.835 -356.468)" fill="#eff9f3"/>
    </g>
  </g>
</svg>
