<svg id="Group_553" data-name="Group 553" xmlns="http://www.w3.org/2000/svg" width="32.539" height="33.57" viewBox="0 0 32.539 33.57">
  <g id="Group_552" data-name="Group 552" transform="translate(0 9.424)">
    <path id="Path_664" data-name="Path 664" d="M1206.444,484.161q-6.264-.006-12.53,0a.811.811,0,0,0-.5.163c-.486.427-.945.884-1.414,1.33l.089.12q7.19,0,14.38,0a.825.825,0,0,0,.912-.778A.884.884,0,0,0,1206.444,484.161Z" transform="translate(-1179.966 -468.064)" fill="#eff9f3"/>
    <path id="Path_665" data-name="Path 665" d="M1206.49,479.148c-.249,0-.5.049-.746.048q-4.455,0-8.91-.012a.476.476,0,0,0-.278.051,1.764,1.764,0,0,0-.307,1.539h4.679c1.852,0,3.7,0,5.557,0a.815.815,0,1,0,.005-1.622Z" transform="translate(-1179.966 -468.064)" fill="#eff9f3"/>
    <path id="Path_666" data-name="Path 666" d="M1197.466,469.039a11.2,11.2,0,0,1,.372,1.115c.078.346.2.5.6.492,1.553-.026,3.108-.011,4.662-.011,1.1,0,2.2,0,3.308,0a.953.953,0,0,0,.98-.806.878.878,0,0,0-.932-.847c-.134-.008-.268,0-.4,0q-4.109-.017-8.216-.029A1.617,1.617,0,0,0,1197.466,469.039Z" transform="translate(-1179.966 -468.064)" fill="#eff9f3"/>
    <path id="Path_667" data-name="Path 667" d="M1206.392,475.746a.892.892,0,0,0,.985-.842c-.021-.481-.437-.8-1.024-.8-2.689,0-5.378.012-8.067,0-.419,0-.572.13-.551.545.017.338-.03.679-.053,1.106h1.745C1201.749,475.75,1204.07,475.752,1206.392,475.746Z" transform="translate(-1179.966 -468.064)" fill="#eff9f3"/>
    <path id="Path_668" data-name="Path 668" d="M1190.33,475.2c.341-.339.709-.717.281-1.173-.457-.486-.868-.15-1.234.224-.943.965-1.894,1.923-2.843,2.885-.625-.6-1.149-1.084-1.657-1.587-.34-.335-.709-.577-1.128-.194-.439.4-.192.776.144,1.115.631.635,1.272,1.261,1.88,1.917a.806.806,0,0,0,1.359.017C1188.186,477.321,1189.26,476.26,1190.33,475.2Z" transform="translate(-1179.966 -468.064)" fill="#eff9f3"/>
    <path id="Path_669" data-name="Path 669" d="M1187.464,484.963a8.379,8.379,0,0,0,1.744-.789,13.194,13.194,0,0,0,2.86-2.192,7.8,7.8,0,0,0,1.446-1.97,4.364,4.364,0,0,0,.487-1.995c-.005-.613,0-1.226,0-1.839V470.1a.539.539,0,0,0-.062-.005,12.154,12.154,0,0,1-1.877-.132,12.512,12.512,0,0,1-2.622-.678,12.653,12.653,0,0,1-2.367-1.186.146.146,0,0,0-.184.006c-.223.138-.446.279-.676.4a12.432,12.432,0,0,1-2.284.974,13.189,13.189,0,0,1-3.7.609h-.259v.254q0,3.9,0,7.8a3.7,3.7,0,0,0,.062.63,5.155,5.155,0,0,0,.866,2,9.933,9.933,0,0,0,1.881,2.024,13.493,13.493,0,0,0,1.857,1.307,8.781,8.781,0,0,0,1.868.86A1.607,1.607,0,0,0,1187.464,484.963Zm-3.83-3.245a8.5,8.5,0,0,1-1.687-1.879,3.436,3.436,0,0,1-.58-1.647c-.008-.148,0-.3,0-.444a.8.8,0,0,0-.016-.1.406.406,0,0,0,.016-.066V475.8a.339.339,0,0,0-.017-.075.869.869,0,0,0,.017-.123q0-2.054,0-4.108v-.133l.462-.056a15.414,15.414,0,0,0,3.162-.755,13.3,13.3,0,0,0,1.863-.818.245.245,0,0,1,.27.005,13.2,13.2,0,0,0,2.341,1.008,14.01,14.01,0,0,0,2.315.539c.242.035.484.066.727.09.082.009.1.039.1.118q0,1.986,0,3.971c0,.831-.006,1.662,0,2.492a3.33,3.33,0,0,1-.505,1.752,8.264,8.264,0,0,1-1.518,1.812,10.621,10.621,0,0,1-1.782,1.3,10.819,10.819,0,0,1-1.474.752.885.885,0,0,1-.3.093.808.808,0,0,1-.321-.07,10.241,10.241,0,0,1-1.641-.841A11.426,11.426,0,0,1,1183.634,481.718Z" transform="translate(-1179.966 -468.064)" fill="#eff9f3"/>
  </g>
  <path id="Path_670" data-name="Path 670" d="M1212,463.126c-.706-1.653-2.093-2.462-4.353-2.532v1.566l.039,0c.234.016.45.03.665.049a2.837,2.837,0,0,1,2.517,2.267,6.776,6.776,0,0,1,.1,1.255q.013,10.779.011,21.559a3.018,3.018,0,0,1-3.286,3.279l-9.044,0q-4.026,0-8.051.014a3.1,3.1,0,0,1-3.012-1.769.24.24,0,0,0-.09-.054c-.29-.01-.59-.013-.9-.013l-.654,0c.011.051.022.1.035.147a4.479,4.479,0,0,0,4.3,3.312l6.763,0q5.468,0,10.934-.01a4.488,4.488,0,0,0,4.51-4.57c.026-8.987.025-15.9,0-22.408A5.579,5.579,0,0,0,1212,463.126Z" transform="translate(-1179.966 -458.64)" fill="#eff9f3"/>
  <path id="Path_671" data-name="Path 671" d="M1187.362,466.423a6.536,6.536,0,0,1,.4-3.017c.641-1.166,2.284-1.317,3.146-1.337v-1.488c-1.123.041-3.579.328-4.537,2-.495.864-.566,1.866-.5,3.841Z" transform="translate(-1179.966 -458.64)" fill="#eff9f3"/>
  <path id="Path_672" data-name="Path 672" d="M1195.5,464.247h7.412a2.8,2.8,0,0,0,0-5.607H1195.5a2.8,2.8,0,0,0,0,5.607Zm0-3.973h7.412a1.17,1.17,0,0,1,0,2.339H1195.5a1.17,1.17,0,0,1,0-2.339Z" transform="translate(-1179.966 -458.64)" fill="#eff9f3"/>
</svg>
