<svg xmlns="http://www.w3.org/2000/svg" width="27.439" height="26.97" viewBox="0 0 27.439 26.97">
  <g id="footer-privacy">
    <g id="Group_560" data-name="Group 560">
      <path id="Path_693" data-name="Path 693" d="M1085.646,373.863c-.828-.582-1.665-1.125-2.453-1.732a24.77,24.77,0,0,1-4.181-4.188.871.871,0,0,1-.028-1.18,20.161,20.161,0,0,1,10.037-7.183,12.623,12.623,0,0,1,8.334.349.464.464,0,0,0,.623-.159c1.691-1.97,3.4-3.925,5.1-5.889a.965.965,0,0,1,1-.38.918.918,0,0,1,.473,1.533c-.653.769-1.32,1.525-1.982,2.286l-19.647,22.573c-.059.067-.118.136-.179.2a.886.886,0,0,1-1.3.115.933.933,0,0,1-.1-1.34c.486-.582.989-1.151,1.486-1.724q1.353-1.563,2.706-3.125C1085.578,373.962,1085.621,373.9,1085.646,373.863Zm3.17-3.616c-.118-.182-.22-.33-.313-.483a4.55,4.55,0,0,1-.659-2.984,4.7,4.7,0,0,1,6.85-3.6.235.235,0,0,0,.35-.064c.388-.47.789-.928,1.184-1.392a1.343,1.343,0,0,0,.1-.16.409.409,0,0,0-.065-.051c-.056-.022-.112-.041-.169-.06a11.135,11.135,0,0,0-8.062.443,19.565,19.565,0,0,0-7.007,5.306.714.714,0,0,0-.063.114,20.85,20.85,0,0,0,6.012,5.053Zm1.315-1.505,3.466-3.981a2.787,2.787,0,0,0-3.314.849A2.676,2.676,0,0,0,1090.131,368.742Z" transform="translate(-1078.767 -353.473)" fill="#eff9f3"/>
      <path id="Path_694" data-name="Path 694" d="M1089.488,375.277c.473-.54.916-1.053,1.37-1.557a.307.307,0,0,1,.232-.075,11.968,11.968,0,0,0,7.09-1.509,20.534,20.534,0,0,0,5.753-4.684c.031-.036.057-.079.1-.139a23.626,23.626,0,0,0-4.186-3.922l1.257-1.443c.515.416,1.029.808,1.517,1.229a27.128,27.128,0,0,1,3.344,3.509.945.945,0,0,1-.025,1.287,22.488,22.488,0,0,1-5,4.706,16.529,16.529,0,0,1-5.829,2.625,12.389,12.389,0,0,1-5.463.029C1089.613,375.324,1089.577,375.308,1089.488,375.277Z" transform="translate(-1078.767 -353.473)" fill="#eff9f3"/>
    </g>
  </g>
</svg>
