<svg xmlns="http://www.w3.org/2000/svg" width="30.084" height="21.847" viewBox="0 0 30.084 21.847">
  <g id="_3NNlGx.tif" data-name="3NNlGx.tif" transform="translate(-55.26 -265.513)">
    <g id="Group_3848" data-name="Group 3848">
      <path id="Path_6333" data-name="Path 6333" d="M55.26,285.53V267.457c0-1.41.687-1.83,1.945-1.944H83.056a2.128,2.128,0,0,1,2.288,2.249V285.3a2.024,2.024,0,0,1-1.907,2.059H57.129A1.646,1.646,0,0,1,55.26,285.53Zm2.274-18.606c.13.16.172.222.224.274q5.772,5.752,11.548,11.5a1.322,1.322,0,0,0,2.1-.092q5.65-5.629,11.3-11.266c.11-.109.2-.237.35-.418Zm.156,19.017H82.86l-8.417-8.519c-.691.712-1.385,1.447-2.1,2.16a2.674,2.674,0,0,1-4.082,0c-.724-.723-1.423-1.473-2.109-2.186Zm7.23-9.437-8.242-8.347V284.83Zm10.763-.131,8.243,8.346V268.044Z" fill="#fff"/>
    </g>
  </g>
</svg>
