<svg id="xGfg4M.tif" xmlns="http://www.w3.org/2000/svg" width="30.694" height="36.63" viewBox="0 0 30.694 36.63">
  <g id="Group_554" data-name="Group 554">
    <path id="Path_673" data-name="Path 673" d="M1271.728,493.619l.688.039v.082h-.687Z" transform="translate(-1271.728 -457.11)" fill="#eff9f3"/>
    <path id="Path_674" data-name="Path 674" d="M1274.256,476.45q0-3.009,0-6.018c0-1.771.007-3.541,0-5.312a.892.892,0,0,1,.35-.745q2.435-2.059,4.85-4.14a.91.91,0,0,1,.625-.226q3.544.008,7.088.006,2.879,0,5.756-.005c.64,0,1.279.011,1.918-.005a.686.686,0,0,1,.763.785q-.018,7.725-.007,15.45c0,.292,0,.3.3.361a7.711,7.711,0,0,1,2.518,1.046,8.386,8.386,0,0,1,3.705,4.977,8.08,8.08,0,0,1,0,4.389,8.328,8.328,0,0,1-4.4,5.376,8.078,8.078,0,0,1-4.9.812,8.331,8.331,0,0,1-6.012-3.858,5.051,5.051,0,0,1-.32-.558.3.3,0,0,0-.317-.184q-2.433.009-4.867.006-3.151,0-6.3,0c-.528,0-.752-.221-.752-.746q0-4.716,0-9.432V476.45Zm11.565,10.936c-.111-.692-.261-1.331-.308-1.977a7.936,7.936,0,0,1,1.142-4.847,8.293,8.293,0,0,1,7.5-4.185c.179,0,.246-.035.244-.23-.01-1.044-.008-2.087-.008-3.13q0-5.757,0-11.512c0-.273,0-.273-.276-.273q-6.857,0-13.713-.006a.589.589,0,0,0-.416.155q-2.175,1.864-4.359,3.72a.407.407,0,0,0-.161.344c.006,1.353,0,2.706,0,4.059q0,5.745,0,11.492,0,3.08,0,6.159c0,.156.03.231.209.23,1.332-.005,2.665,0,4,0l5.311,0Zm12.991,2.742a7.09,7.09,0,0,0,2.14-7.151,7.243,7.243,0,0,0-14.01.011,7.105,7.105,0,0,0,2.154,7.164c.011-.026.024-.049.032-.074.02-.064.043-.128.058-.193a3.2,3.2,0,0,1,1.137-1.831,4.758,4.758,0,0,1,2.361-.956,7.564,7.564,0,0,1,3.548.251,3.6,3.6,0,0,1,2.156,1.712A9.875,9.875,0,0,1,1298.812,490.128Zm-5.008-1.911a5.779,5.779,0,0,0-1.661.235,2.34,2.34,0,0,0-1.851,2.377.36.36,0,0,0,.21.365,7.1,7.1,0,0,0,3.28.871,9.463,9.463,0,0,0,1.563-.143,6.323,6.323,0,0,0,2.142-.79.266.266,0,0,0,.122-.187,2.251,2.251,0,0,0-1.164-2.169A5.143,5.143,0,0,0,1293.8,488.217Z" transform="translate(-1271.728 -457.11)" fill="#eff9f3"/>
    <path id="Path_675" data-name="Path 675" d="M1298.509,466.806q0,4.492,0,8.985a.626.626,0,0,1-.451.66.58.58,0,0,1-.674-.279.836.836,0,0,1-.085-.366q-.008-2.947-.006-5.9t0-5.876q0-2.7,0-5.411c0-.3,0-.3-.3-.3h-12.943c-.471,0-.942,0-1.413,0a.588.588,0,0,1-.631-.589.576.576,0,0,1,.627-.609q2.816-.007,5.633,0l7.592,0c.633,0,1.265,0,1.9,0,.526,0,.746.227.746.749v8.946Z" transform="translate(-1271.728 -457.11)" fill="#eff9f3"/>
    <path id="Path_676" data-name="Path 676" d="M1284.769,472.5c-2.1,0-3.023,0-5.123,0a.646.646,0,0,1-.71-.471.611.611,0,0,1,.637-.759c.613-.005.047,0,.66,0h10.824a.653.653,0,0,1,.662.37.6.6,0,0,1-.568.86c-.391.011-.781,0-1.172,0h-5.21Z" transform="translate(-1271.728 -457.11)" fill="#eff9f3"/>
    <path id="Path_677" data-name="Path 677" d="M1284.735,468.414h-5.163a.63.63,0,0,1-.632-.437.592.592,0,0,1,.3-.7,1.032,1.032,0,0,1,.41-.073c1.912,0,2.646,0,4.557,0q3.433,0,6.866,0a.641.641,0,0,1,.641.331.612.612,0,0,1-.5.88,3.269,3.269,0,0,1-.343.007Z" transform="translate(-1271.728 -457.11)" fill="#eff9f3"/>
    <path id="Path_678" data-name="Path 678" d="M1284.755,475.349c2.121,0,1.3,0,3.417,0a.6.6,0,0,1,.625.412.586.586,0,0,1-.427.776,2.569,2.569,0,0,1-.481.027h-3.72c-1.884,0-2.591,0-4.476,0a.71.71,0,0,1-.651-.243.613.613,0,0,1,.51-.977l1.831,0h3.372Z" transform="translate(-1271.728 -457.11)" fill="#eff9f3"/>
    <path id="Path_679" data-name="Path 679" d="M1281.642,480.639c-1.09,0-1,0-2.091,0a.62.62,0,0,1-.61-.438.594.594,0,0,1,.286-.69.954.954,0,0,1,.407-.083c1.634,0,2.091,0,3.725,0,.5,0,.995-.008,1.493,0a.61.61,0,1,1,.038,1.216h-3.248Z" transform="translate(-1271.728 -457.11)" fill="#eff9f3"/>
    <path id="Path_680" data-name="Path 680" d="M1296.793,482.928a3.586,3.586,0,0,1-1.341,2.872,2.469,2.469,0,0,1-3.185-.146,3.528,3.528,0,0,1-1.034-3.556,2.739,2.739,0,0,1,3.478-2.026,2.619,2.619,0,0,1,1.993,2.193C1296.752,482.5,1296.769,482.743,1296.793,482.928Zm-4.45.118a2.393,2.393,0,0,0,.334,1.237,1.4,1.4,0,0,0,2.512.049,2.56,2.56,0,0,0,.337-1.782,1.594,1.594,0,0,0-2.431-1.133A1.7,1.7,0,0,0,1292.343,483.046Z" transform="translate(-1271.728 -457.11)" fill="#eff9f3"/>
  </g>
</svg>
