<svg xmlns="http://www.w3.org/2000/svg" width="32.566" height="32.569" viewBox="0 0 32.566 32.569">
  <g id="_22RyuR.tif" data-name=" 22RyuR.tif" transform="translate(-25.082 -300.668)">
    <g id="Group_3568" data-name="Group 3568">
      <path id="Path_5815" data-name="Path 5815" d="M51,330.052c-.25-.138-.486-.244-.695-.388-.927-.637-1.858-1.269-2.761-1.938-.343-.255-.6-.161-.98-.082-1.723.355-2.206,1.534-2.282,3.084-.027.543-.214,1.076-.269,1.62-.072.708-.466.906-1.118.887-1.046-.029-2.1-.039-3.14,0-.734.03-1.042-.308-1.138-.986-.15-1.059-.343-2.113-.494-3.173-.065-.454-.217-.79-.718-.871a.874.874,0,0,1-.365-.135c-1.08-.78-1.979-.443-2.881.367a21.125,21.125,0,0,1-1.852,1.318.852.852,0,0,1-1.2-.054c-.017-.019-.033-.038-.049-.058-.785-.806-1.575-1.608-2.389-2.384a.9.9,0,0,1-.179-1.26.882.882,0,0,1,.1-.112c.658-.879,1.266-1.8,1.93-2.67a1.086,1.086,0,0,0,.125-1.049c-.355-1.663-1.449-2.212-2.994-2.281-.594-.027-1.18-.217-1.774-.3s-.781-.421-.774-.972c.013-1.1.03-2.2-.006-3.3a.945.945,0,0,1,.942-1.1c1.059-.159,2.113-.347,3.173-.5a1.171,1.171,0,0,0,.908-.689,2.691,2.691,0,0,0-.493-3.656,13.379,13.379,0,0,1-1.047-1.467.854.854,0,0,1,.037-1.206c.019-.017.038-.034.057-.049q1.233-1.209,2.444-2.44a.836.836,0,0,1,1.172-.15.765.765,0,0,1,.074.065c.948.7,1.9,1.39,2.882,2.038a1.4,1.4,0,0,0,.822.086c.2-.017.375-.206.574-.235,1.29-.194,1.589-1.084,1.662-2.21.049-.753.223-1.5.337-2.246a.917.917,0,0,1,.944-.888.784.784,0,0,1,.128.013c1.1.033,2.2.022,3.3,0a.85.85,0,0,1,.983.7.792.792,0,0,1,.012.146c.164,1.136.363,2.269.617,3.388a1.861,1.861,0,0,0,.609.762c.122.115.362.1.5.2a1.884,1.884,0,0,0,2.65-.282l.014-.018c.576-.524,1.271-.917,1.893-1.4a.893.893,0,0,1,1.261-.044.806.806,0,0,1,.11.124c.777.813,1.58,1.6,2.385,2.39a.851.851,0,0,1,.158,1.193c-.015.02-.032.039-.049.058-.668.937-1.317,1.888-1.993,2.819a1.083,1.083,0,0,0-.135,1.048,2.588,2.588,0,0,0,2.878,2.183,11.731,11.731,0,0,1,1.779.266.944.944,0,0,1,.962.924.917.917,0,0,1-.012.165c-.037,1.071-.034,2.146,0,3.218a.922.922,0,0,1-.738,1.076.9.9,0,0,1-.187.016c-1.111.159-2.209.4-3.319.566-.445.067-.73.223-.8.694a.961.961,0,0,1-.168.436c-.781,1.036-.4,1.875.363,2.729.535.6.953,1.309,1.434,1.962a.768.768,0,0,1-.008,1.086l-.04.036c-.869.87-1.733,1.746-2.613,2.6A2.526,2.526,0,0,1,51,330.052ZM29.932,307.411c.717,1.029,1.406,2.044,2.126,3.037a1.1,1.1,0,0,1,.08,1.3,12.6,12.6,0,0,0-.939,2.232,1.3,1.3,0,0,1-1.262,1.044c-1.134.146-2.257.37-3.39.562v2.7c1.167.212,2.314.448,3.471.62a1.211,1.211,0,0,1,1.149.966,11.1,11.1,0,0,0,.929,2.236,1.153,1.153,0,0,1-.1,1.428c-.719.957-1.4,1.946-2.011,2.811l1.842,2.032c1.043-.729,2.025-1.473,3.073-2.11a1.634,1.634,0,0,1,1.2-.071c.794.247,1.528.685,2.323.923a1.225,1.225,0,0,1,.977,1.146c.139,1.009.3,2.017.5,3.015a.76.76,0,0,0,.489.5c.751.057,1.51.024,2.3.024.218-1.241.444-2.42.625-3.606a1.2,1.2,0,0,1,.946-1.087,11.193,11.193,0,0,0,2.166-.894,1.256,1.256,0,0,1,1.568.109c.954.716,1.949,1.376,2.833,1.994l1.992-1.861c-.7-.98-1.366-1.949-2.082-2.878a1.249,1.249,0,0,1-.126-1.566,9.443,9.443,0,0,0,.861-2.094,1.252,1.252,0,0,1,1.191-1.022c1.178-.167,2.346-.409,3.5-.616v-2.718c-1.209-.193-2.389-.4-3.574-.565a1.177,1.177,0,0,1-1.1-.931,10.913,10.913,0,0,0-.885-2.17,1.264,1.264,0,0,1,.115-1.569c.718-.953,1.38-1.949,2.007-2.844l-1.871-1.984c-1,.713-1.985,1.393-2.94,2.118a1.171,1.171,0,0,1-1.432.109,11.543,11.543,0,0,0-2.161-.906,1.26,1.26,0,0,1-1.03-1.182c-.162-1.178-.409-2.344-.624-3.533-.8,0-1.5-.039-2.2.025a.812.812,0,0,0-.565.506c-.211,1.022-.36,2.058-.505,3.093a1.13,1.13,0,0,1-.9,1.034,14.787,14.787,0,0,0-2.315.948,1.137,1.137,0,0,1-1.363-.093c-.977-.731-1.987-1.421-2.914-2.079Z" fill="#eff9f3"/>
      <path id="Path_5816" data-name="Path 5816" d="M41.345,322.6a5.6,5.6,0,0,1-5.611-5.589v-.061a5.593,5.593,0,0,1,5.575-5.611h.074a5.594,5.594,0,0,1,5.612,5.575c0,.025,0,.05,0,.075a5.6,5.6,0,0,1-5.588,5.611Zm4.277-5.63a4.258,4.258,0,1,0-4.239,4.26h0A4.286,4.286,0,0,0,45.622,316.968Z" fill="#eff9f3"/>
    </g>
  </g>
</svg>
