<svg xmlns="http://www.w3.org/2000/svg" width="39.598" height="25.757" viewBox="0 0 39.598 25.757">
  <g id="footer-support">
    <g id="Group_561" data-name="Group 561">
      <path id="Path_695" data-name="Path 695" d="M1187.7,376.729l-2.354-3.105a6.473,6.473,0,0,1-.917.371,2.81,2.81,0,0,1-2.613-1.164,2.03,2.03,0,0,1,.093-2.376c1.794-2.816,3.569-5.645,5.353-8.468.648-1.025,1.514-1.453,2.433-1.079,1.242.5,2.054,1.169,1.909,2.507a.476.476,0,0,0,.191.356c1.182.84,2.6.821,3.948,1.068a.353.353,0,0,0,.252-.088,5.433,5.433,0,0,1,2.843-1.128,18.939,18.939,0,0,1,5.262-.6,44.856,44.856,0,0,1,4.768.8,2.746,2.746,0,0,0,2.058-.344,5.133,5.133,0,0,1,.082-1.228,2.635,2.635,0,0,1,2.216-1.738,1.9,1.9,0,0,1,2.015,1.084c1.788,2.858,3.6,5.7,5.4,8.553a2,2,0,0,1-.678,3.056,2.286,2.286,0,0,1-2.125.408.44.44,0,0,0-.355.11c-.829.767-1.653,1.539-2.459,2.33a.6.6,0,0,0-.126.473,2.1,2.1,0,0,1-.3,1.707c-.194.285-.381.575-.571.863a2.087,2.087,0,0,1-1.513.928.9.9,0,0,0-.509.307,7.285,7.285,0,0,0-.629.936,2.141,2.141,0,0,1-1.65,1.113.6.6,0,0,0-.356.243c-.287.411-.543.844-.822,1.26a1.944,1.944,0,0,1-1.977.907.715.715,0,0,0-.467.178,5.493,5.493,0,0,0-.468.526,1.926,1.926,0,0,1-1.788.62c-1.5-.229-3.007-.456-4.508-.7a.787.787,0,0,0-.781.25,2.125,2.125,0,0,1-3.072-.189.473.473,0,0,0-.587-.171,2.882,2.882,0,0,1-2.8-1.034c-.162-.215-.291-.314-.571-.231-.871.258-2.747-1.02-2.785-2.006-.011-.266-.155-.358-.39-.485a6.609,6.609,0,0,1-1.533-1.052,1.866,1.866,0,0,1-.1-2.351C1187.029,377.682,1187.359,377.226,1187.7,376.729Zm3.279-11.86c-.088.053-.125.062-.139.085q-2.29,3.618-4.568,7.242a.4.4,0,0,0,.007.363c.729.993,1.474,1.974,2.244,3a1.733,1.733,0,0,1,1.879-.689,13.427,13.427,0,0,1,1.914.862,1.891,1.891,0,0,1,2.209-.836c.988.364,1.944.862,2.072,2.129.013.124.2.265.343.336,1.486.765,2.155,1.56,1.83,3.032,1.778,1.045,1.97,1.736,1.005,3.7.176.033.342.068.509.094,1.116.171,2.239.308,3.346.522a1.05,1.05,0,0,0,1.331-.609c-.154-.086-.312-.182-.476-.266-.922-.47-1.849-.93-2.766-1.41a.676.676,0,0,1-.32-.952.7.7,0,0,1,.938-.268c.1.043.195.1.293.15,1.286.653,2.574,1.3,3.857,1.961.334.171.643.194.874-.139.284-.408.539-.835.822-1.278-.343-.191-.642-.359-.944-.523-1.349-.735-2.7-1.465-4.046-2.207a.673.673,0,0,1-.333-.95.688.688,0,0,1,.974-.259c.1.047.194.1.29.155q2.5,1.362,5,2.726c.314.172.636.282.888-.043.321-.414.59-.868.894-1.323-.5-.3-.94-.567-1.383-.832q-2.361-1.413-4.724-2.825c-.316-.188-.576-.406-.465-.822.147-.549.6-.7,1.145-.372,1.939,1.156,3.881,2.308,5.811,3.479,1.3.788,1.252.781,2.054-.467.385-.6.347-.8-.249-1.182q-2.342-1.52-4.686-3.035c-2.249-1.459-4.505-2.9-6.738-4.387a1.162,1.162,0,0,0-1.374-.055c-1.623.887-3.27,1.731-4.914,2.579a1.839,1.839,0,0,1-2.048-.116,1.807,1.807,0,0,1-.806-1.879,2.8,2.8,0,0,1,.459-1.009c.582-.813,1.208-1.594,1.89-2.481A7.312,7.312,0,0,1,1190.984,364.869Zm20.754-.192a4.744,4.744,0,0,0-.527.211,3.663,3.663,0,0,1-2.773.243,31.914,31.914,0,0,0-3.691-.7,20.39,20.39,0,0,0-6.828.811,2.287,2.287,0,0,0-1.174.729c-.957,1.14-1.851,2.333-2.748,3.521a.559.559,0,0,0,.388.916,1.105,1.105,0,0,0,.526-.159c1.656-.857,3.314-1.711,4.957-2.593a2.121,2.121,0,0,1,2.383.121c.869.59,1.762,1.144,2.641,1.718q3.363,2.2,6.723,4.393c.728.473,1.472.922,2.219,1.388l2.876-2.725Zm-22.631-2.622a2.791,2.791,0,0,0-.542.469q-2.8,4.406-5.573,8.829c-.091.144-.172.446-.1.511a3.853,3.853,0,0,0,1.055.789c.336.144.539-.208.711-.481q2.67-4.238,5.346-8.472c.167-.264.43-.566.167-.848A7.343,7.343,0,0,0,1189.107,362.055Zm29.421,10.449a5.024,5.024,0,0,0,1.076-.845c.113-.154-.038-.59-.182-.831-.634-1.063-1.31-2.1-1.971-3.148q-1.7-2.685-3.39-5.368c-.327-.518-.568-.572-1.082-.258-.107.065-.214.131-.318.2-.41.28-.472.531-.223.95.193.323.4.638.6.956q2.436,3.856,4.878,7.709A4.7,4.7,0,0,0,1218.528,372.5Zm-27.29,10.3a2.822,2.822,0,0,0,.561-.448q1.644-2.373,3.255-4.77a.964.964,0,0,0,.157-.518c0-.249-.737-.825-1.082-.886-.38-.068-.563.19-.745.457q-1.506,2.211-3.017,4.421c-.174.255-.465.547-.218.837A7.935,7.935,0,0,0,1191.238,382.808Zm3.083,1.339a3.629,3.629,0,0,0,.572-.511c.732-1.037,1.445-2.087,2.164-3.133.627-.914.616-.988-.257-1.657-.025-.019-.049-.039-.074-.057a.559.559,0,0,0-.894.123c-.891,1.289-1.778,2.582-2.64,3.891a.629.629,0,0,0-.008.589A9.266,9.266,0,0,0,1194.321,384.147Zm-4.205-8.122a3.7,3.7,0,0,0-.576.5c-.473.644-.921,1.306-1.378,1.961-.629.9-.611.993.31,1.616l.077.054a.567.567,0,0,0,.887-.168c.578-.839,1.163-1.673,1.714-2.529.1-.156.153-.5.061-.593A9.574,9.574,0,0,0,1190.116,376.025Zm7.055,8.927a2.625,2.625,0,0,0,.546-.413c.4-.538.788-1.093,1.161-1.653.263-.4.163-.692-.305-1.017-.36-.25-.637-.2-.915.191-.371.524-.752,1.043-1.082,1.593-.129.214-.255.572-.161.744C1196.543,384.633,1196.882,384.755,1197.171,384.952Z" transform="translate(-1181.479 -360.484)" fill="#eff9f3"/>
    </g>
  </g>
</svg>
