<svg xmlns="http://www.w3.org/2000/svg" width="60.303" height="68.504" viewBox="0 0 60.303 68.504">
  <g id="hand_3039293" transform="translate(-30.645)">
    <g id="Group_58774" data-name="Group 58774" transform="translate(32.433 1.003)">
      <g id="Group_58770" data-name="Group 58770" transform="translate(0)">
        <path id="Path_42265" data-name="Path 42265" d="M143.145,49.284v3.01h6.319V46.127H146.3A3.167,3.167,0,0,0,143.145,49.284Z" transform="translate(-129.881 -40.959)" fill="#efc17a" fill-rule="evenodd"/>
        <path id="Path_42266" data-name="Path 42266" d="M149.436,26.864h-6.319l0,4.153,8.645,5.275v4.341h19.618V33.987l2.73-3.916V12.633a3.041,3.041,0,1,0-6.081,0c0-2.042-.387-4.228-3.041-4.228a3.05,3.05,0,0,0-3.041,3.041c0-1.882-1.069-3.47-3.1-3.47a3.105,3.105,0,0,0-3.1,3.1c0-1.931-1.061-3.571-3.157-3.571a3.167,3.167,0,0,0-3.157,3.157q0,8.1,0,16.206Z" transform="translate(-129.853 -7.5)" fill="#fdd8a8" fill-rule="evenodd"/>
        <path id="Path_42267" data-name="Path 42267" d="M88.26,92.225h13.663v8.028H88.26Z" transform="translate(-82.34 -80.889)" fill="#d15573" fill-rule="evenodd"/>
        <path id="Path_42268" data-name="Path 42268" d="M49.93,92.225l-5.92,4.014,5.92,4.014Z" transform="translate(-44.01 -80.889)" fill="#efc17a" fill-rule="evenodd"/>
        <path id="Path_42269" data-name="Path 42269" d="M374.753,92.225h6.027v8.028h-6.027Z" transform="translate(-330.501 -80.889)" fill="#d15573" fill-rule="evenodd"/>
        <path id="Path_42270" data-name="Path 42270" d="M419.8,92.225v8.028h3.219a4.014,4.014,0,0,0,0-8.028Z" transform="translate(-369.519 -80.889)" fill="#efc17a" fill-rule="evenodd"/>
        <path id="Path_42271" data-name="Path 42271" d="M192.723,255.134v10.035h23.632V255.134Z" transform="translate(-172.826 -222.002)" fill="#7fdcc7" fill-rule="evenodd"/>
        <path id="Path_42272" data-name="Path 42272" d="M207.722,330.134H227.34v23.33H207.722Z" transform="translate(-185.818 -286.967)" fill="#7fdcc7" fill-rule="evenodd"/>
        <path id="Path_42273" data-name="Path 42273" d="M146.127,26.864h-3.01l0,4.153,8.645,5.275v4.341h3.01V36.292l-8.645-5.275Zm8-19a3.166,3.166,0,0,0-1.684,2.79V29.874h-3.01V10.657a3.2,3.2,0,0,1,4.694-2.79Z" transform="translate(-129.853 -7.5)" fill="#ffc476" fill-rule="evenodd"/>
        <path id="Path_42274" data-name="Path 42274" d="M192.723,255.135h3.01V265.17h-3.01Z" transform="translate(-172.826 -222.002)" fill="#5fa6b0" fill-rule="evenodd"/>
        <path id="Path_42275" data-name="Path 42275" d="M207.722,330.134h3.01v23.33h-3.01Z" transform="translate(-185.818 -286.967)" fill="#5fa6b0" fill-rule="evenodd"/>
        <path id="Path_42276" data-name="Path 42276" d="M143.145,49.285V52.3h3.01v-3.01a3.167,3.167,0,0,1,3.157-3.157H146.3A3.166,3.166,0,0,0,143.145,49.285Z" transform="translate(-129.881 -40.96)" fill="#e8ab4c" fill-rule="evenodd"/>
        <path id="Path_42277" data-name="Path 42277" d="M88.26,129.725h13.663v3.01H88.26Z" transform="translate(-82.34 -113.372)" fill="#c21d44" fill-rule="evenodd"/>
        <path id="Path_42278" data-name="Path 42278" d="M46.23,110.975l-2.22,1.505,5.92,4.014v-3.01Z" transform="translate(-44.01 -97.13)" fill="#e8ab4c" fill-rule="evenodd"/>
        <path id="Path_42279" data-name="Path 42279" d="M374.753,129.725h6.027v3.01h-6.027Z" transform="translate(-330.501 -113.372)" fill="#c21d44" fill-rule="evenodd"/>
        <path id="Path_42280" data-name="Path 42280" d="M419.8,113.484v3.01h3.219a4.026,4.026,0,0,0,4.014-4.014,3.976,3.976,0,0,0-.295-1.505,4.028,4.028,0,0,1-3.719,2.509Z" transform="translate(-369.519 -97.13)" fill="#e8ab4c" fill-rule="evenodd"/>
      </g>
      <g id="Group_58771" data-name="Group 58771" transform="translate(30.484 36.143)">
        <path id="Path_42281" data-name="Path 42281" d="M281.888,279.642h-6.021v-2.007h6.021Zm-8.028,0h-2.007v-2.007h2.007Z" transform="translate(-271.853 -277.635)" fill="#fff"/>
      </g>
      <g id="Group_58772" data-name="Group 58772" transform="translate(36.505 46.178)">
        <path id="Path_42282" data-name="Path 42282" d="M318.859,362.669h-2.007v-6.021h2.007Zm0-8.028h-2.007v-2.007h2.007Z" transform="translate(-316.852 -352.634)" fill="#fff"/>
      </g>
      <g id="Group_58773" data-name="Group 58773" transform="translate(8.931 14.346)">
        <path id="Path_42283" data-name="Path 42283" d="M110.76,114.725h2.007v2.007H110.76Z" transform="translate(-110.76 -114.725)" fill="#fff"/>
      </g>
    </g>
    <g id="Group_58775" data-name="Group 58775" transform="translate(30.645 0)">
      <path id="Path_42284" data-name="Path 42284" d="M73.645,2.092a4.026,4.026,0,0,0-2.567.921q-.053-.117-.114-.23A3.573,3.573,0,0,0,67.564.9a4.032,4.032,0,0,0-2.874,1.2A3.888,3.888,0,0,0,61.427.475,4.088,4.088,0,0,0,58.507,1.7,3.936,3.936,0,0,0,55.174,0a4.166,4.166,0,0,0-4.161,4.161V5.168H48.854a4.165,4.165,0,0,0-4.161,4.161v2.007H38.046l-7.4,5.017,7.4,5.017h6.647l0,3.713,8.645,5.275v2.774H51.327V38.15h2.007V35.14h9.809V33.133h-7.8v-3.9L46.7,23.958l0-2.587h2.307V19.364H39.357V13.343h9.649V11.336H46.7V9.329a2.156,2.156,0,0,1,2.154-2.154h2.159v16.2H53.02V4.161a2.156,2.156,0,0,1,2.154-2.154c2,0,2.154,1.965,2.154,2.568V7.739h2.007V4.575a2.1,2.1,0,0,1,2.093-2.093c1.543,0,2.092,1.274,2.092,2.467V7.739h2.007V4.949a2.04,2.04,0,0,1,2.037-2.037c1.258,0,2.037.539,2.037,3.225v1.6h2.007v-1.6a2.037,2.037,0,1,1,4.074,0V23.258l-2.73,3.916v5.958h-7.8v2.007h9.809v8.028H53.334v-3.01H51.327v5.017H76.966V33.132H74.959V27.805l2.73-3.916V6.136a4.049,4.049,0,0,0-4.044-4.044ZM37.35,14.232v4.242l-3.129-2.121Z" transform="translate(-30.645 0)"/>
      <path id="Path_42285" data-name="Path 42285" d="M403.488,84.725h-6.235v2.007h2.013V88.75h-2.013v2.007h2.013v2h-2.013V94.76h6.235a5.017,5.017,0,0,0,0-10.035Zm0,8.028h-2.215V86.732h2.215a3.01,3.01,0,1,1,0,6.021Z" transform="translate(-348.202 -73.389)"/>
      <path id="Path_42286" data-name="Path 42286" d="M219.841,371.95H202.23V352.634h-2.007v21.323h21.625v-7.024h-2.007Z" transform="translate(-177.534 -305.453)"/>
      <path id="Path_42287" data-name="Path 42287" d="M346.852,352.634h2.007v12.291h-2.007Z" transform="translate(-304.545 -305.453)"/>
      <path id="Path_42288" data-name="Path 42288" d="M140.76,114.725h3.628v2.007H140.76Z" transform="translate(-126.027 -99.375)"/>
      <path id="Path_42289" data-name="Path 42289" d="M230.222,467h2.007v2.007h-2.007Z" transform="translate(-203.519 -404.517)"/>
    </g>
  </g>
</svg>
