<svg xmlns="http://www.w3.org/2000/svg" width="20.287" height="24.187" viewBox="0 0 20.287 24.187">
  <g id="Group_47086" data-name="Group 47086" transform="translate(-74.204 -192.317)">
    <g id="Group_47023" data-name="Group 47023" transform="translate(74.204 192.317)">
      <g id="Group_47022" data-name="Group 47022" transform="translate(0 0)">
        <g id="Group_47021" data-name="Group 47021">
          <path id="Path_32072" data-name="Path 32072" d="M109.915,284.3a2.341,2.341,0,0,0,.018.29,2.455,2.455,0,0,0,4.873.033,2.3,2.3,0,0,0,.021-.323,2.456,2.456,0,1,0-4.912,0Z" transform="translate(-102.227 -262.567)" fill="#d98939"/>
          <path id="Path_32073" data-name="Path 32073" d="M109.933,284.588a2.341,2.341,0,0,1-.018-.29,2.457,2.457,0,0,1,2.456-2.459.1.1,0,0,0,.018,0c.047,0,.093.005.14.008s.067,0,.1.006c.054.006.107.015.16.024.027,0,.055.008.082.013.055.011.109.027.162.042.024.007.049.012.073.019.053.016.1.037.155.057.023.009.047.016.07.026.049.021.1.046.145.07.023.011.047.021.069.034.045.025.089.053.132.08.023.014.047.028.07.043.04.027.078.058.116.087s.049.035.072.055.067.061.1.091.05.044.074.068.056.061.084.092.051.054.074.082.045.06.068.09.05.065.073.1.036.06.055.09.047.074.068.112.031.065.047.1.039.077.056.118.026.07.039.105.031.079.044.12.02.077.03.115.022.079.031.12.015.1.022.146c0,.033.011.065.015.1a2.486,2.486,0,0,1,.013.251,2.3,2.3,0,0,1-.021.323,2.456,2.456,0,0,1-3.015,2.063h.021a2.457,2.457,0,0,0,.993-.209c.561-.249,1.152-.841.652-1.461-.343-.426-.934-.352-1.42-.358Q110.985,284.643,109.933,284.588Z" transform="translate(-102.227 -262.567)" fill="#a2122a" opacity="0.2"/>
          <path id="Path_32074" data-name="Path 32074" d="M112.23,194.274a1.956,1.956,0,0,0,3.912,0,.173.173,0,0,0,0-.039,1.953,1.953,0,0,0-3.906,0A.172.172,0,0,0,112.23,194.274Z" transform="translate(-104.044 -192.317)" fill="#e3b33e"/>
          <path id="Path_32075" data-name="Path 32075" d="M113.714,197.226l-.061-.016a2,2,0,0,1-.214-.073,1.925,1.925,0,0,1-.215-.106l-.02-.012a2.012,2.012,0,0,1-.182-.12l-.019-.014a1.947,1.947,0,0,1-.773-1.554.172.172,0,0,1,0-.039,2.157,2.157,0,0,1,.522-.121,7.936,7.936,0,0,1,1.3-.166,5.2,5.2,0,0,1,.663.022c.112.011.226.02.337.041a.408.408,0,0,0,.264,0c.157-.071.178-.23.178-.384a1.926,1.926,0,0,0-.29-1.021,1.951,1.951,0,0,1-1.255,3.606l-.066-.01Q113.8,197.247,113.714,197.226Z" transform="translate(-104.044 -193.374)" fill="#a2122a" opacity="0.2"/>
          <path id="Path_32076" data-name="Path 32076" d="M74.2,219.388v.719c11.748,2.417,20.287,0,20.287,0v-.719a5.9,5.9,0,0,1-1.758-1.788c-.091-.133-.178-.272-.266-.42a3.617,3.617,0,0,1-.208-.417c-.665-1.553-.426-3.764-.927-9.3-.018-.205-.045-.4-.075-.592-.018-.109-.036-.211-.061-.314a6.535,6.535,0,0,0-.372-1.211c-.045-.112-.094-.221-.145-.323-1.77-3.613-6.331-3.613-6.331-3.613s-4.625,0-6.368,3.688c-.048.1-.1.211-.139.323a6.335,6.335,0,0,0-.356,1.205c-.021.1-.039.205-.054.311-.027.169-.051.344-.066.526-.5,5.471-.269,7.694-.906,9.243a3.647,3.647,0,0,1-.232.474c-.076.13-.151.251-.23.369A5.909,5.909,0,0,1,74.2,219.388Z" transform="translate(-74.204 -199.452)" fill="#f7e439"/>
          <g id="Group_47020" data-name="Group 47020" transform="translate(1.791 5.2)">
            <g id="Group_47019" data-name="Group 47019">
              <g id="Group_47015" data-name="Group 47015" transform="translate(0 12.054)">
                <path id="Path_32077" data-name="Path 32077" d="M82.525,273.309a52.475,52.475,0,0,0,8.712.737,45.14,45.14,0,0,0,8.026-.686c-.091-.133-.178-.272-.266-.42a3.617,3.617,0,0,1-.208-.417,48.3,48.3,0,0,1-15.8-.057,3.655,3.655,0,0,1-.232.474C82.679,273.07,82.6,273.191,82.525,273.309Z" transform="translate(-82.525 -272.466)" fill="#e3b33e"/>
              </g>
              <g id="Group_47018" data-name="Group 47018" transform="translate(1.435)">
                <g id="Group_47016" data-name="Group 47016" transform="translate(0.411)">
                  <path id="Path_32078" data-name="Path 32078" d="M91.1,217.24a49.143,49.143,0,0,1,12.983-.075c-.045-.112-.094-.221-.145-.323a49.584,49.584,0,0,0-12.7.076C91.189,217.02,91.14,217.129,91.1,217.24Z" transform="translate(-91.098 -216.472)" fill="#e3b33e"/>
                </g>
                <g id="Group_47017" data-name="Group 47017" transform="translate(0 1.463)">
                  <path id="Path_32079" data-name="Path 32079" d="M89.19,224.091a49.28,49.28,0,0,1,13.826-.066c-.018-.109-.036-.211-.061-.314a49.467,49.467,0,0,0-13.711.07C89.223,223.882,89.205,223.985,89.19,224.091Z" transform="translate(-89.19 -223.269)" fill="#e3b33e"/>
                </g>
              </g>
            </g>
          </g>
        </g>
        <path id="Path_32080" data-name="Path 32080" d="M92.453,220.588l-.116.019a49.764,49.764,0,0,1-18.133-.455v-.68a52.234,52.234,0,0,0,9.212,1.058,48.121,48.121,0,0,0,6.857-.306c.3-.035.6-.013.759-.32.358-.691-.136-1.328-.5-1.873-.094-.139-.184-.287-.275-.444a3.888,3.888,0,0,1-.214-.438c-.686-1.64-.438-3.978-.955-9.826-.018-.217-.048-.423-.079-.625-.018-.115-.036-.224-.064-.332a6.953,6.953,0,0,0-.381-1.278c-.048-.118-.1-.233-.151-.341a6.485,6.485,0,0,0-3.773-3.28c1.03.072,4.54.538,6.041,3.6.051.1.1.212.145.323A6.535,6.535,0,0,1,91.2,206.6c.024.1.042.206.061.314.03.19.057.387.075.592.5,5.537.263,7.748.927,9.3a3.618,3.618,0,0,0,.208.417c.088.148.175.287.266.42a5.9,5.9,0,0,0,1.758,1.788v.719S93.769,220.357,92.453,220.588Z" transform="translate(-74.204 -199.496)" fill="#a2122a" opacity="0.2"/>
        <path id="Path_32081" data-name="Path 32081" d="M87.951,204.745a13.211,13.211,0,0,0-1.8.873,7.152,7.152,0,0,0-1.242,1.053c-1.851,1.993-1.578,4.957-1.709,7.469-.1,1.979.009,4.085-.925,5.911a6.532,6.532,0,0,1-.469.792c-.156.221-.393.4-.523.632a24.641,24.641,0,0,0,5.2.541q-.837-.168-1.658-.4c-.549-.154-1.691-.321-1.766-1.035a1.714,1.714,0,0,1,.134-.725,8.317,8.317,0,0,0,.281-1.486,11.3,11.3,0,0,0,.18-1.7c.017-.929.023-1.857.047-2.786a20.983,20.983,0,0,1,.36-4.137,7.4,7.4,0,0,1,1.144-2.681A7.2,7.2,0,0,1,87.951,204.745Z" transform="translate(-79.756 -202.07)" fill="#fff" opacity="0.4"/>
      </g>
    </g>
  </g>
</svg>
