<svg xmlns="http://www.w3.org/2000/svg" width="27.104" height="31.219" viewBox="0 0 27.104 31.219">
  <g id="Group_2694" data-name="Group 2694" transform="translate(-161.377 -344.017)">
    <path id="Path_4827" data-name="Path 4827" d="M183.471,357.748a8.338,8.338,0,0,1-4.369,7.4c-.988.521-.9,2.8-.859,4.525.021.818-2.278.43-2.992.43-.645,0-3.466.086-3.509-.3-.16-1.439.345-4-.712-4.606a8.6,8.6,0,0,1-4.459-7.45,8.45,8.45,0,0,1,16.9,0Z" fill="#fdfdfd"/>
    <g id="nAfsTw.tif">
      <g id="Group_2691" data-name="Group 2691">
        <path id="Path_4828" data-name="Path 4828" d="M182.1,357.69a7.191,7.191,0,1,1-7.132-7.242A7.152,7.152,0,0,1,182.1,357.69Zm-8.476-4.915a.768.768,0,0,0-1.055-.8,3.435,3.435,0,0,0-1.314.661,5,5,0,0,0-1.958,2.55c-.1.358-.172.738.147,1.005a1.034,1.034,0,0,0,1.064.072,5.261,5.261,0,0,0,2.281-1.756A3.2,3.2,0,0,0,173.62,352.775Zm1.716,11.407a6.465,6.465,0,0,0,4.669-2.411c.255-.312.219-.548-.1-.761-.276-.186-.442-.022-.654.168a13.562,13.562,0,0,1-1.337,1.172,5.487,5.487,0,0,1-2.951.886c-.323.015-.524.164-.525.484s.231.467.535.485A2.537,2.537,0,0,0,175.336,364.182Zm6.11-6.167c0-.045,0-.09.007-.134.026-.341-.027-.645-.436-.7-.316-.046-.507.2-.531.669a5.7,5.7,0,0,1-.191,1.278c-.09.316-.015.582.322.674s.536-.1.619-.419A6.109,6.109,0,0,0,181.446,358.015Z" fill="#fcd404"/>
        <path id="Path_4829" data-name="Path 4829" d="M173.606,370.386h-1.618c-.639,0-.733-.091-.734-.72,0-.795-.005-1.589,0-2.384a2.193,2.193,0,0,0-1.089-2.03,8.266,8.266,0,0,1-3.412-3.943,8.926,8.926,0,0,1,14.406-9.936,8.955,8.955,0,0,1,1.812,10.146,8.836,8.836,0,0,1-3.273,3.714,2.228,2.228,0,0,0-1.106,2.022c0,.824,0,1.649,0,2.473,0,.54-.117.651-.665.652-.285,0-.569-.008-.854,0-.347.007-.459-.195-.489-.5-.033-.334.212-.4.437-.442.617-.121.619-.11.618-.759,0-.495.006-.99,0-1.484a3.154,3.154,0,0,1,1.563-2.8,7.669,7.669,0,0,0,3.553-7.838,7.851,7.851,0,0,0-8.088-6.738,7.941,7.941,0,0,0-6.91,11.292A7.49,7.49,0,0,0,170.113,364a8.993,8.993,0,0,1,1.171.895,3.044,3.044,0,0,1,.919,2.168c.01.645.02,1.291-.006,1.934-.014.331.07.443.417.433.9-.025,1.8-.01,2.7-.009.314,0,.627.027.633.446s-.265.518-.63.511c-.569-.011-1.138,0-1.707,0Z" fill="#090809"/>
        <path id="Path_4830" data-name="Path 4830" d="M174.938,371.152c1,0,2,0,3.007,0,.5,0,.641.137.646.631,0,.359.01.719,0,1.078a2.423,2.423,0,0,1-2.431,2.37q-1.234.008-2.469,0a2.415,2.415,0,0,1-2.437-2.408c-.005-.36.01-.719,0-1.078-.016-.42.176-.6.591-.594,1.033.009,2.065,0,3.1,0Zm.025.965v.006h-2.381l-.045,0c-.162,0-.31-.04-.339.224a1.6,1.6,0,0,0,1.7,1.921l2.021,0a1.547,1.547,0,0,0,1.733-1.746c0-.361-.125-.415-.438-.407C176.46,372.131,175.711,372.117,174.963,372.117Z" fill="#090809"/>
        <path id="Path_4831" data-name="Path 4831" d="M165.523,352.754a2.877,2.877,0,0,1-.291-.131c-.608-.349-1.211-.707-1.82-1.054-.294-.169-.488-.392-.3-.726s.461-.308.768-.125c.64.384,1.292.745,1.937,1.12a.467.467,0,0,1,.236.608A.485.485,0,0,1,165.523,352.754Z" fill="#090809"/>
        <path id="Path_4832" data-name="Path 4832" d="M184.265,352.754a.455.455,0,0,1-.47-.289.426.426,0,0,1,.142-.56c.729-.437,1.464-.864,2.208-1.275a.421.421,0,0,1,.578.194.4.4,0,0,1-.057.57,20.656,20.656,0,0,1-2.32,1.343A.286.286,0,0,1,184.265,352.754Z" fill="#090809"/>
        <path id="Path_4833" data-name="Path 4833" d="M165.523,362.387a2.884,2.884,0,0,0-.291.131c-.608.349-1.211.707-1.82,1.054-.294.169-.488.392-.3.726s.461.308.768.124c.64-.383,1.292-.744,1.937-1.119a.468.468,0,0,0,.236-.608A.485.485,0,0,0,165.523,362.387Z" fill="#090809"/>
        <path id="Path_4834" data-name="Path 4834" d="M184.265,362.387a.455.455,0,0,0-.47.289.426.426,0,0,0,.142.56c.729.437,1.464.864,2.208,1.275a.421.421,0,0,0,.578-.194.4.4,0,0,0-.057-.57,20.652,20.652,0,0,0-2.32-1.343A.286.286,0,0,0,184.265,362.387Z" fill="#090809"/>
        <path id="Path_4835" data-name="Path 4835" d="M185.4,358.129a.455.455,0,0,1-.276-.478.426.426,0,0,1,.392-.425c.849-.037,1.7-.062,2.548-.068.261,0,.4.194.416.446a.4.4,0,0,1-.321.473,20.5,20.5,0,0,1-2.681.075A.286.286,0,0,1,185.4,358.129Z" fill="#090809"/>
        <path id="Path_4836" data-name="Path 4836" d="M161.657,358.129a.455.455,0,0,1-.276-.478.426.426,0,0,1,.392-.425c.849-.037,1.7-.062,2.548-.068.261,0,.4.194.416.446a.4.4,0,0,1-.321.473,20.5,20.5,0,0,1-2.681.075A.276.276,0,0,1,161.657,358.129Z" fill="#090809"/>
        <path id="Path_4837" data-name="Path 4837" d="M179.819,348.233c.044-.088.1-.21.166-.326.333-.584.671-1.164,1-1.749.174-.306.4-.514.755-.3.333.2.279.48.105.774-.381.642-.747,1.293-1.128,1.935a.444.444,0,0,1-.609.207A.489.489,0,0,1,179.819,348.233Z" fill="#090809"/>
        <path id="Path_4838" data-name="Path 4838" d="M170.023,348.35a.452.452,0,0,1-.3.429.416.416,0,0,1-.553-.147q-.662-1.09-1.276-2.209a.42.42,0,0,1,.168-.552.4.4,0,0,1,.571.018,19.009,19.009,0,0,1,1.378,2.348A.34.34,0,0,1,170.023,348.35Z" fill="#090809"/>
        <path id="Path_4839" data-name="Path 4839" d="M175.4,345.684c0,.389,0,.777,0,1.166a.455.455,0,0,1-.485.518.46.46,0,0,1-.486-.52q0-1.143,0-2.286c0-.316.152-.537.467-.545.335-.008.511.2.508.546,0,.374,0,.748,0,1.121Z" fill="#090809"/>
        <path id="Path_4840" data-name="Path 4840" d="M175.624,367.544c.238,0,.478-.015.715,0a.434.434,0,0,1,.425.48.417.417,0,0,1-.4.457c-.505.022-1.013.02-1.518,0a.418.418,0,0,1-.406-.453.43.43,0,0,1,.425-.48c.252-.016.506,0,.76,0Z" fill="#090809"/>
        <path id="Path_4841" data-name="Path 4841" d="M173.62,352.775a3.2,3.2,0,0,1-.835,1.731,5.261,5.261,0,0,1-2.281,1.756,1.034,1.034,0,0,1-1.064-.072c-.319-.267-.248-.647-.147-1.005a5,5,0,0,1,1.958-2.55,3.435,3.435,0,0,1,1.314-.661A.768.768,0,0,1,173.62,352.775Z" fill="#fdfdfd"/>
        <path id="Path_4842" data-name="Path 4842" d="M175.336,364.182a2.537,2.537,0,0,1-.358.023c-.3-.018-.535-.156-.535-.485s.2-.469.525-.484a5.487,5.487,0,0,0,2.951-.886,13.562,13.562,0,0,0,1.337-1.172c.212-.19.378-.354.654-.168.314.213.35.449.1.761A6.465,6.465,0,0,1,175.336,364.182Z" fill="#090809"/>
        <path id="Path_4843" data-name="Path 4843" d="M181.446,358.015a6.109,6.109,0,0,1-.21,1.365c-.083.315-.28.512-.619.419s-.412-.358-.322-.674a5.7,5.7,0,0,0,.191-1.278c.024-.468.215-.715.531-.669.409.058.462.362.436.7C181.45,357.925,181.448,357.97,181.446,358.015Z" fill="#090809"/>
        <path id="Path_4844" data-name="Path 4844" d="M174.963,372.117c.748,0,1.5.014,2.246-.007.313-.008.443.046.438.407a1.547,1.547,0,0,1-1.733,1.746l-2.021,0a1.6,1.6,0,0,1-1.7-1.921c.029-.264.177-.225.339-.224l.045,0h2.381Z" fill="#b7b7b7"/>
      </g>
    </g>
  </g>
</svg>
