<svg id="Group_58733" data-name="Group 58733" xmlns="http://www.w3.org/2000/svg" xmlns:xlink="http://www.w3.org/1999/xlink" width="21.17" height="23.318" viewBox="0 0 21.17 23.318">
  <defs>
    <clipPath id="clip-path">
      <rect id="Rectangle_6294" data-name="Rectangle 6294" width="21.17" height="23.318" fill="#03ffe2"/>
    </clipPath>
  </defs>
  <g id="Group_58731" data-name="Group 58731" clip-path="url(#clip-path)">
    <path id="Path_42163" data-name="Path 42163" d="M6.963,2.074H9.692V.733A1.366,1.366,0,0,1,9.8.467.9.9,0,0,1,11.33.411a2.65,2.65,0,0,1,.149.322V2.074h2.728V.686c0-.333.6-.694.917-.686a.966.966,0,0,1,.87.78V2.074A4.63,4.63,0,0,1,21.17,6.329V18.985a4.574,4.574,0,0,1-4.3,4.257c-4.1.241-8.437-.187-12.563,0A4.574,4.574,0,0,1,0,18.985V6.329A4.63,4.63,0,0,1,5.176,2.074V.733A2.65,2.65,0,0,1,5.325.411.885.885,0,0,1,6.584.172c.117.08.379.38.379.514ZM5.176,3.861H4.259A2.829,2.829,0,0,0,1.789,6.331V7.389H19.381V6.331a3.485,3.485,0,0,0-.291-.979,2.967,2.967,0,0,0-3.1-1.49v.964a1.991,1.991,0,0,1-.263.489A.928.928,0,0,1,14.4,5.249a2.794,2.794,0,0,1-.188-.329V3.861H11.479V4.872a1.906,1.906,0,0,1-.12.256.9.9,0,0,1-1.546,0,1.906,1.906,0,0,1-.12-.256V3.861H6.963V4.92a2.747,2.747,0,0,1-.168.3.93.93,0,0,1-1.356.093,1.991,1.991,0,0,1-.263-.489ZM19.381,9.176H1.789v9.807a2.786,2.786,0,0,0,2.655,2.472c4.272-.049,8.56.089,12.822-.07a2.794,2.794,0,0,0,2.114-2.4Z" transform="translate(0 0)" fill="#03ffe2"/>
    <path id="Path_42164" data-name="Path 42164" d="M295.313,337.3a.729.729,0,0,1,.384-.157,10.622,10.622,0,0,1,1.765.022.635.635,0,0,1,.339.272,12.311,12.311,0,0,1,.038,1.9.54.54,0,0,1-.3.456,11.9,11.9,0,0,1-1.848.038.531.531,0,0,1-.539-.543,9.429,9.429,0,0,1,.032-1.756.722.722,0,0,1,.125-.228" transform="translate(-281.231 -321.239)" fill="#03ffe2"/>
    <path id="Path_42165" data-name="Path 42165" d="M98.771,337.357a.721.721,0,0,1,.125.228,8.95,8.95,0,0,1,.031,1.708c-.037.367-.159.554-.538.591a11.9,11.9,0,0,1-1.848-.038.54.54,0,0,1-.3-.456,12.036,12.036,0,0,1,0-1.744.5.5,0,0,1,.343-.41,10.038,10.038,0,0,1,1.8-.036.729.729,0,0,1,.384.157" transform="translate(-91.682 -321.298)" fill="#03ffe2"/>
    <path id="Path_42166" data-name="Path 42166" d="M196.511,337.083a10.681,10.681,0,0,1,1.772-.007.511.511,0,0,1,.452.442,12.456,12.456,0,0,1,0,1.838.479.479,0,0,1-.448.4,11.636,11.636,0,0,1-1.86-.023.465.465,0,0,1-.33-.375,12.78,12.78,0,0,1,0-1.881.525.525,0,0,1,.408-.391" transform="translate(-186.832 -321.169)" fill="#03ffe2"/>
    <path id="Path_42167" data-name="Path 42167" d="M295.459,242.184a12.759,12.759,0,0,1,1.873-.011.468.468,0,0,1,.447.447,11.625,11.625,0,0,1,0,1.7c-.032.339-.159.49-.512.512a13.672,13.672,0,0,1-1.725-.019c-.327-.039-.422-.292-.447-.587a10.121,10.121,0,0,1,.006-1.55.575.575,0,0,1,.359-.488" transform="translate(-281.171 -230.74)" fill="#03ffe2"/>
    <path id="Path_42168" data-name="Path 42168" d="M96.532,242.395a.62.62,0,0,1,.29-.11,13.262,13.262,0,0,1,1.908.022c.221.068.31.357.329.565a10.578,10.578,0,0,1,0,1.506c-.028.28-.146.507-.445.543a13.685,13.685,0,0,1-1.725.019.471.471,0,0,1-.488-.348,11.665,11.665,0,0,1-.023-1.861.69.69,0,0,1,.157-.337" transform="translate(-91.812 -230.852)" fill="#03ffe2"/>
    <path id="Path_42169" data-name="Path 42169" d="M196.408,242.17a13.127,13.127,0,0,1,1.92-.011.434.434,0,0,1,.4.4,12.349,12.349,0,0,1,0,1.837.476.476,0,0,1-.512.419c-.424.027-1.153.021-1.583,0-.276-.013-.506-.117-.542-.42a12.448,12.448,0,0,1,0-1.88.463.463,0,0,1,.313-.346" transform="translate(-186.824 -230.726)" fill="#03ffe2"/>
  </g>
</svg>
