<svg xmlns="http://www.w3.org/2000/svg" xmlns:xlink="http://www.w3.org/1999/xlink" width="34.959" height="29.78" viewBox="0 0 34.959 29.78">
  <defs>
    <clipPath id="clip-path">
      <rect id="Rectangle_6738" data-name="Rectangle 6738" width="34.959" height="29.78" transform="translate(0 0)" fill="none"/>
    </clipPath>
  </defs>
  <g id="Group_59478" data-name="Group 59478" transform="translate(0 0)">
    <g id="Group_59477" data-name="Group 59477" clip-path="url(#clip-path)">
      <path id="Path_44125" data-name="Path 44125" d="M26.867,6.474h0A.971.971,0,0,1,25.9,5.5V1.619a.971.971,0,1,1,1.942,0V5.5a.971.971,0,0,1-.971.971" fill="#fff"/>
      <path id="Path_44126" data-name="Path 44126" d="M33.017.971h0a.971.971,0,0,1-.971.971H2.913A.971.971,0,1,1,2.913,0H32.046a.971.971,0,0,1,.971.971" fill="#fff"/>
      <path id="Path_44127" data-name="Path 44127" d="M8.092,6.474h0A.971.971,0,0,1,7.121,5.5V1.619a.971.971,0,1,1,1.942,0V5.5a.971.971,0,0,1-.971.971" fill="#fff"/>
      <path id="Path_44128" data-name="Path 44128" d="M1.942,5.179H33.017a1.942,1.942,0,0,1,1.942,1.942V27.838a1.941,1.941,0,0,1-1.942,1.942H1.942A1.941,1.941,0,0,1,0,27.838V7.121A1.942,1.942,0,0,1,1.942,5.179" fill="#fff"/>
      <path id="Path_44129" data-name="Path 44129" d="M2.59,6.474H15.538a1.3,1.3,0,0,1,1.3,1.3V27.191a1.294,1.294,0,0,1-1.3,1.294H2.59a1.294,1.294,0,0,1-1.295-1.294V7.769a1.3,1.3,0,0,1,1.295-1.3" fill="#04cbc1"/>
      <path id="Path_44130" data-name="Path 44130" d="M19.422,6.474H32.37a1.3,1.3,0,0,1,1.3,1.3V27.191a1.294,1.294,0,0,1-1.3,1.294H19.422a1.294,1.294,0,0,1-1.3-1.294V7.769a1.3,1.3,0,0,1,1.3-1.3" fill="#04cbc1"/>
      <path id="Path_44131" data-name="Path 44131" d="M10.459,19.549v2.326c0,1.165-.511,1.582-1.326,1.582s-1.324-.419-1.324-1.583V13.083c0-1.166.511-1.605,1.325-1.605s1.326.442,1.326,1.605v1.745h2.418V13.246c0-2.605-1.3-4.094-3.815-4.094s-3.814,1.489-3.814,4.094v8.466c0,2.6,1.3,4.093,3.814,4.093s3.815-1.489,3.815-4.093V19.549Z" fill="#1e1e1e"/>
      <path id="Path_44132" data-name="Path 44132" d="M22.152,13.246c0,4.652,5,5.28,5,8.628,0,1.166-.511,1.582-1.325,1.582S24.5,23.037,24.5,21.874V20.709H22.082v1c0,2.606,1.3,4.094,3.815,4.094s3.817-1.487,3.817-4.091c0-4.652-5-5.28-5-8.628,0-1.166.466-1.6,1.279-1.6s1.28.442,1.28,1.6v.673h2.416v-.511c0-2.605-1.28-4.093-3.768-4.093s-3.768,1.488-3.768,4.093" fill="#1e1e1e"/>
    </g>
  </g>
</svg>
