<svg xmlns="http://www.w3.org/2000/svg" width="34.337" height="32.954" viewBox="0 0 34.337 32.954">
  <g id="Group_24189" data-name="Group 24189" transform="translate(3077.778 -895.621)">
    <g id="I2jfkq.tif" transform="translate(-3076.073 898.404)">
      <g id="Group_24162" data-name="Group 24162" transform="translate(0 0)">
        <g id="Group_24144" data-name="Group 24144" transform="translate(3.378 8.747)">
          <path id="Path_22176" data-name="Path 22176" d="M-3019.358,998.209c-.068,1.712-.126,3.425-.212,5.136a1.5,1.5,0,0,1-.239.791c-1.381,1.832-2.959,3.427-5.312,3.929a3.373,3.373,0,0,1-1.466-.09c-1.585-.4-2.721-1.556-4-2.462a7.385,7.385,0,0,1-.8-.7,2.553,2.553,0,0,1-.773-1.793c-.092-1.405-.268-2.8-.4-4.208a1.362,1.362,0,0,1,.091-.405,5.288,5.288,0,0,1,.208.791c.179,1.657,1.463,2.5,3.243,2.458a2.52,2.52,0,0,0,2.488-2.684c-.013-.348.109-.538.464-.539s.681,0,.7.5a3.975,3.975,0,0,0,.161.988,2.518,2.518,0,0,0,2.685,1.749,2.757,2.757,0,0,0,2.833-2C-3019.567,999.181-3019.469,998.693-3019.358,998.209Zm-6.441,6.171c-.522,0-1.047.024-1.567-.007s-.654.231-.5.647a1.977,1.977,0,0,0,.5.78,2.508,2.508,0,0,0,3.189-.041,1.956,1.956,0,0,0,.472-.8c.114-.352.007-.612-.462-.588C-3024.716,1004.4-3025.258,1004.38-3025.8,1004.38Zm-1.1-1.544a1.287,1.287,0,0,0,2.277-.118A1.705,1.705,0,0,1-3026.9,1002.836Z" transform="translate(3032.562 -998.209)" fill="#d6ab8e"/>
        </g>
        <g id="Group_24145" data-name="Group 24145" transform="translate(3.15 2.502)">
          <path id="Path_22177" data-name="Path 22177" d="M-3034.357,947.565l-.226-.9a7.686,7.686,0,0,1,10.469-3.031,5.971,5.971,0,0,1,3.013,3.372l-.143.545-2.1-.263,1.235-.256-.026-.151a10.479,10.479,0,0,0-4.455.266l.317.486a7.83,7.83,0,0,1-.729.781.994.994,0,0,1-.608.22,1.557,1.557,0,0,1-.823-.211,3.107,3.107,0,0,1-.57-.725l.354-.441a10.722,10.722,0,0,0-4.442-.467l-.021.145,1.495.344Z" transform="translate(3034.583 -942.645)" fill="#d6ab8e"/>
        </g>
        <g id="Group_24146" data-name="Group 24146" transform="translate(5.027 18.119)">
          <path id="Path_22178" data-name="Path 22178" d="M-3008.578,1084.547a3.949,3.949,0,0,1-4.173,3.7,5.318,5.318,0,0,1-4.3-1.577,2.887,2.887,0,0,1-.833-1.953c.471-.172.935-.371,1.416-.51a1.346,1.346,0,0,0,1.1-1.3c.027-.407.082-.812.135-1.322,1.536.781,3.082,1.24,4.729.188.019.373.025.627.046.879a1.576,1.576,0,0,0,1.207,1.614A4.887,4.887,0,0,1-3008.578,1084.547Z" transform="translate(3017.886 -1081.592)" fill="#b1866b"/>
        </g>
        <g id="Group_24147" data-name="Group 24147" transform="translate(3.136)">
          <path id="Path_22179" data-name="Path 22179" d="M-3021.217,927.251a5.97,5.97,0,0,0-3.013-3.372,7.686,7.686,0,0,0-10.469,3.031,5.676,5.676,0,0,1,2.87-5.336,7.138,7.138,0,0,1,9.885,1.97,5.5,5.5,0,0,1,.9,3.015A3,3,0,0,1-3021.217,927.251Z" transform="translate(3034.715 -920.383)" fill="#eb3e54"/>
        </g>
        <g id="Group_24148" data-name="Group 24148" transform="translate(3.258 7.142)">
          <path id="Path_22180" data-name="Path 22180" d="M-3028.156,984.345a3.1,3.1,0,0,0,.57.725,1.556,1.556,0,0,0,.823.211,1,1,0,0,0,.608-.22,7.871,7.871,0,0,0,.729-.781l2.929-.345,2.1.263c0,.3-.017.607.363.712l-.026.338-.245.284c-.11.484-.209.972-.332,1.453a2.757,2.757,0,0,1-2.833,2,2.517,2.517,0,0,1-2.685-1.748,3.964,3.964,0,0,1-.161-.988c-.017-.5-.351-.5-.7-.5s-.477.191-.464.539a2.52,2.52,0,0,1-2.488,2.684c-1.78.041-3.063-.8-3.243-2.458a5.351,5.351,0,0,0-.208-.791c-.428-.483-.075-1.014-.094-1.521l2.74-.28Zm5.15.149a10.335,10.335,0,0,0-1.465.158,1.858,1.858,0,0,0-1.062.524,2.334,2.334,0,0,0,.828,3.325,2.526,2.526,0,0,0,3.689-1.678c.056-.253.078-.514.116-.771a1.236,1.236,0,0,0-1.022-1.427C-3022.287,984.564-3022.658,984.536-3023.005,984.494Zm-7.668,0v.027c-.335,0-.673-.023-1.006,0a1.251,1.251,0,0,0-1.221,1.614c.023.128.03.259.049.387a2.562,2.562,0,0,0,3.907,1.817,2.279,2.279,0,0,0,.986-2.327c-.2-1.03-.432-1.257-1.6-1.458A9.4,9.4,0,0,0-3030.673,984.491Z" transform="translate(3033.63 -983.927)" fill="#eb3e54"/>
        </g>
        <g id="Group_24149" data-name="Group 24149" transform="translate(16.827 8.111)">
          <path id="Path_22181" data-name="Path 22181" d="M-2912.9,992.9q.013-.169.026-.338c.734-.086,1.1.252.95.936-.161.743-.357,1.48-.57,2.211a2.844,2.844,0,0,1-.406.624Z" transform="translate(2912.901 -992.552)" fill="#d6ab8e"/>
        </g>
        <g id="Group_24150" data-name="Group 24150" transform="translate(2.24 8.106)">
          <path id="Path_22182" data-name="Path 22182" d="M-3041.694,996.212a2.858,2.858,0,0,1-.328-.581c-.23-.786-.445-1.577-.633-2.374-.135-.574.257-.7.8-.755l.356,3.629Z" transform="translate(3042.681 -992.502)" fill="#d6ab8e"/>
        </g>
        <g id="Group_24151" data-name="Group 24151" transform="translate(0 23.637)">
          <path id="Path_22183" data-name="Path 22183" d="M-3062.613,1130.687" transform="translate(3062.613 -1130.687)" fill="#b1866b"/>
        </g>
        <g id="Group_24152" data-name="Group 24152" transform="translate(8.011 14.909)">
          <path id="Path_22184" data-name="Path 22184" d="M-2989.208,1053.039c.542,0,1.084.021,1.624-.006.469-.024.576.236.462.588a1.957,1.957,0,0,1-.472.8,2.508,2.508,0,0,1-3.189.041,1.975,1.975,0,0,1-.5-.78c-.15-.417-.016-.678.5-.647S-2989.73,1053.039-2989.208,1053.039Zm1.379.29h-2.738l-.029.195c.6.6,1.407.23,2.115.307C-2988.161,1053.867-2987.849,1053.777-2987.829,1053.33Zm-.5,1.365a1.3,1.3,0,0,0-1.7,0Z" transform="translate(2991.337 -1053.03)"/>
        </g>
        <g id="Group_24153" data-name="Group 24153" transform="translate(9.039 13.257)">
          <path id="Path_22185" data-name="Path 22185" d="M-2982.193,1038.449a1.705,1.705,0,0,0,2.277-.118A1.287,1.287,0,0,1-2982.193,1038.449Z" transform="translate(2982.193 -1038.331)" fill="#b1866b"/>
        </g>
        <g id="Group_24154" data-name="Group 24154" transform="translate(11.145 6.62)">
          <path id="Path_22186" data-name="Path 22186" d="M-2960.205,979.813l-2.929.344-.317-.486a10.478,10.478,0,0,1,4.454-.266l.027.151Z" transform="translate(2963.451 -979.284)"/>
        </g>
        <g id="Group_24155" data-name="Group 24155" transform="translate(4.622 6.588)">
          <path id="Path_22187" data-name="Path 22187" d="M-3017.377,979.968l-2.615-.418-1.494-.344.021-.145a10.723,10.723,0,0,1,4.442.467Z" transform="translate(3021.486 -978.996)"/>
        </g>
        <g id="Group_24156" data-name="Group 24156" transform="translate(10.985 7.709)">
          <path id="Path_22188" data-name="Path 22188" d="M-2961.975,988.975c.348.041.718.069,1.083.131a1.236,1.236,0,0,1,1.022,1.427c-.038.257-.061.518-.116.771a2.526,2.526,0,0,1-3.689,1.678,2.335,2.335,0,0,1-.828-3.325,1.858,1.858,0,0,1,1.062-.524A10.331,10.331,0,0,1-2961.975,988.975Zm-1.23,1.885a.829.829,0,0,0,1.193.08.715.715,0,0,0,.116-1.042.744.744,0,0,0-1.086-.195c.12.234.338.469.315.678C-2962.685,990.549-2963,990.685-2963.205,990.859Z" transform="translate(2964.872 -988.975)" fill="#d6ab8e"/>
        </g>
        <g id="Group_24157" data-name="Group 24157" transform="translate(3.955 7.706)">
          <path id="Path_22189" data-name="Path 22189" d="M-3025.168,988.947a9.4,9.4,0,0,1,1.114.064c1.168.2,1.4.428,1.6,1.458a2.279,2.279,0,0,1-.986,2.327,2.562,2.562,0,0,1-3.907-1.817c-.019-.129-.026-.26-.049-.387a1.251,1.251,0,0,1,1.221-1.614c.333-.027.671,0,1.006,0Zm0,2.114a.694.694,0,0,0,.771.48.87.87,0,0,0,.745-.795,1,1,0,0,0-.59-1.145.572.572,0,0,0-.772.189c.174.271.434.5.409.687S-3024.935,990.832-3025.17,991.061Z" transform="translate(3027.428 -988.947)" fill="#d6ab8e"/>
        </g>
        <g id="Group_24158" data-name="Group 24158" transform="translate(8.752 15.208)">
          <path id="Path_22190" data-name="Path 22190" d="M-2981.976,1055.695c-.02.447-.332.537-.652.5-.708-.077-1.519.294-2.115-.307l.029-.195Z" transform="translate(2984.743 -1055.695)" fill="#fefefe"/>
        </g>
        <g id="Group_24159" data-name="Group 24159" transform="translate(9.317 16.256)">
          <path id="Path_22191" data-name="Path 22191" d="M-2978.019,1065.332h-1.7A1.3,1.3,0,0,1-2978.019,1065.332Z" transform="translate(2979.721 -1065.014)" fill="#eb3e54"/>
        </g>
        <g id="Group_24160" data-name="Group 24160" transform="translate(12.652 8.284)">
          <path id="Path_22192" data-name="Path 22192" d="M-2950.041,995.395c.21-.175.521-.311.539-.479.023-.209-.2-.444-.315-.678a.743.743,0,0,1,1.086.195.715.715,0,0,1-.116,1.042A.829.829,0,0,1-2950.041,995.395Z" transform="translate(2950.041 -994.084)"/>
        </g>
        <g id="Group_24161" data-name="Group 24161" transform="translate(6.212 8.283)">
          <path id="Path_22193" data-name="Path 22193" d="M-3007.341,995.614c.236-.229.538-.388.563-.583s-.235-.416-.409-.687a.571.571,0,0,1,.772-.189,1,1,0,0,1,.59,1.145.87.87,0,0,1-.745.795A.7.7,0,0,1-3007.341,995.614Z" transform="translate(3007.341 -994.077)"/>
        </g>
      </g>
    </g>
    <g id="Group_24181" data-name="Group 24181" transform="translate(-3077.122 898.404)">
      <g id="Group_24163" data-name="Group 24163" transform="translate(1.048 23.609)">
        <path id="Path_22194" data-name="Path 22194" d="M-3062.613,1130.469Z" transform="translate(3062.613 -1130.442)" fill="none"/>
      </g>
      <g id="Group_24164" data-name="Group 24164" transform="translate(0.606 24.311)">
        <path id="Path_22195" data-name="Path 22195" d="M-3066.549,1136.911c.032-.075.068-.149.1-.222C-3066.481,1136.763-3066.516,1136.837-3066.549,1136.911Z" transform="translate(3066.549 -1136.689)" fill="none"/>
      </g>
      <g id="Group_24165" data-name="Group 24165" transform="translate(22.196 27.033)">
        <path id="Path_22196" data-name="Path 22196" d="M-2874.454,1160.9c.01.126.017.253.025.38C-2874.437,1161.154-2874.445,1161.027-2874.454,1160.9Z" transform="translate(2874.454 -1160.901)" fill="none"/>
      </g>
      <g id="Group_24166" data-name="Group 24166" transform="translate(3.032 18.119)">
        <path id="Path_22197" data-name="Path 22197" d="M-3041.089,1086.674a5.319,5.319,0,0,0,4.3,1.577,3.949,3.949,0,0,0,4.173-3.7,4.884,4.884,0,0,0-.67-.274,1.576,1.576,0,0,1-1.207-1.614c-.021-.252-.027-.506-.046-.879-1.647,1.052-3.193.594-4.729-.188-.053.51-.108.915-.135,1.322a1.346,1.346,0,0,1-1.1,1.3c-.481.139-.945.338-1.416.51l-3.043,1.01,3.043-1.01A2.886,2.886,0,0,0-3041.089,1086.674Z" transform="translate(3044.965 -1081.592)" fill="none"/>
      </g>
      <g id="Group_24167" data-name="Group 24167" transform="translate(1.374 22.258)">
        <path id="Path_22198" data-name="Path 22198" d="M-3059.712,1119.472h0a7.968,7.968,0,0,0,1.654-1.05,2.489,2.489,0,0,0-1.658,1.052h0Z" transform="translate(3059.716 -1118.423)" fill="none"/>
      </g>
      <g id="Group_24168" data-name="Group 24168" transform="translate(3.289 8.106)">
        <path id="Path_22199" data-name="Path 22199" d="M-3041.694,996.212l.2-.081-.356-3.629c-.546.057-.937.181-.8.755.188.8.4,1.588.633,2.374A2.858,2.858,0,0,0-3041.694,996.212Z" transform="translate(3042.681 -992.502)" fill="none"/>
      </g>
      <g id="Group_24169" data-name="Group 24169" transform="translate(4.184 0)">
        <path id="Path_22200" data-name="Path 22200" d="M-3034.474,927.8c.019.508-.334,1.039.094,1.521a1.363,1.363,0,0,0-.091.405c.13,1.4.307,2.8.4,4.208a2.554,2.554,0,0,0,.773,1.793,7.325,7.325,0,0,0,.8.7c1.283.906,2.419,2.065,4,2.462a3.374,3.374,0,0,0,1.466.09c2.353-.5,3.932-2.1,5.312-3.929a1.5,1.5,0,0,0,.239-.79c.085-1.711.144-3.424.211-5.136l.246-.284v3.432a2.844,2.844,0,0,0,.406-.624c.213-.73.409-1.467.57-2.211.148-.684-.215-1.022-.949-.935-.38-.105-.365-.412-.363-.712l.143-.545a3,3,0,0,0,.167-.692,5.5,5.5,0,0,0-.9-3.015,7.138,7.138,0,0,0-9.885-1.97,5.676,5.676,0,0,0-2.87,5.337Q-3034.587,927.358-3034.474,927.8Z" transform="translate(3034.715 -920.383)" fill="none"/>
      </g>
      <g id="Group_24170" data-name="Group 24170" transform="translate(1.378 23.308)">
        <path id="Path_22201" data-name="Path 22201" d="M-3059.682,1127.76h0Z" transform="translate(3059.683 -1127.76)"/>
      </g>
      <g id="Group_24171" data-name="Group 24171" transform="translate(1.374 23.308)">
        <path id="Path_22202" data-name="Path 22202" d="M-3059.716,1127.762h0l0,0Z" transform="translate(3059.716 -1127.76)" fill="#789fce"/>
      </g>
      <g id="Group_24172" data-name="Group 24172" transform="translate(0 21.074)">
        <path id="Path_22203" data-name="Path 22203" d="M-3070.893,1110.449a3.534,3.534,0,0,0-.338.675c-.036.074-.071.148-.1.222-.044.1-.085.2-.12.308a14.224,14.224,0,0,0-.486,4.2,2,2,0,0,0,.008.24h22.282c-.022-.622-.035-1.244-.07-1.865-.007-.127-.015-.253-.025-.38s-.019-.241-.03-.361a15.783,15.783,0,0,0-.4-2.3,1.965,1.965,0,0,0-1.18-1.472c-.863-.316-1.73-.621-2.6-.923s-1.738-.6-2.606-.9h0a3.949,3.949,0,0,1-4.173,3.7,5.319,5.319,0,0,1-4.3-1.577,2.886,2.886,0,0,1-.833-1.953c-1.015.337-2.046.625-3.043,1.01A4.136,4.136,0,0,0-3070.893,1110.449Z" transform="translate(3071.941 -1107.887)" fill="#789fce"/>
      </g>
      <g id="Group_24173" data-name="Group 24173" transform="translate(22.221 27.412)">
        <path id="Path_22204" data-name="Path 22204" d="M-2874.166,1166.144h0c-.022-.622-.035-1.244-.07-1.865C-2874.2,1164.9-2874.188,1165.522-2874.166,1166.144Z" transform="translate(2874.236 -1164.279)" fill="#789fce"/>
      </g>
      <g id="Group_24174" data-name="Group 24174" transform="translate(15.384 21.074)">
        <path id="Path_22205" data-name="Path 22205" d="M-2932.463,1108.79c-.869-.3-1.738-.6-2.606-.9h0C-2934.2,1108.19-2933.332,1108.488-2932.463,1108.79Z" transform="translate(2935.069 -1107.887)" fill="#789fce"/>
      </g>
      <g id="Group_24175" data-name="Group 24175" transform="translate(0.71 23.637)">
        <path id="Path_22206" data-name="Path 22206" d="M-3065.287,1130.687c-.107.227-.228.449-.338.675.11-.226.231-.448.338-.675Z" transform="translate(3065.625 -1130.687)" fill="#789fce"/>
      </g>
      <g id="Group_24176" data-name="Group 24176" transform="translate(1.146 23.531)">
        <path id="Path_22207" data-name="Path 22207" d="M-3061.749,1129.749" transform="translate(3061.749 -1129.749)" fill="#789fce"/>
      </g>
      <g id="Group_24177" data-name="Group 24177" transform="translate(21.429 29.568)">
        <path id="Path_22208" data-name="Path 22208" d="M-2880.406,1183.457h0l-.873.07Z" transform="translate(2881.278 -1183.457)"/>
      </g>
      <g id="Group_24178" data-name="Group 24178" transform="translate(0.259 29.889)">
        <path id="Path_22209" data-name="Path 22209" d="M-3069.506,1186.427a.921.921,0,0,1-.128-.111A.921.921,0,0,0-3069.506,1186.427Z" transform="translate(3069.634 -1186.316)"/>
      </g>
      <g id="Group_24179" data-name="Group 24179" transform="translate(22.291 29.277)">
        <path id="Path_22210" data-name="Path 22210" d="M-2873.6,1181.162h0c0-.1-.008-.194-.011-.291h0C-2873.609,1180.969-2873.606,1181.066-2873.6,1181.162Z" transform="translate(2873.613 -1180.872)"/>
      </g>
      <g id="Group_24180" data-name="Group 24180" transform="translate(0.463 30.049)">
        <path id="Path_22211" data-name="Path 22211" d="M-3067.554,1187.857a1.458,1.458,0,0,1-.27-.122,1.458,1.458,0,0,0,.27.122Z" transform="translate(3067.824 -1187.735)"/>
      </g>
    </g>
    <g id="Group_24182" data-name="Group 24182" transform="translate(-3077.641 927.191)">
      <path id="Path_22212" data-name="Path 22212" d="M-3053.18,1177.03h-23.355l-.027-.523h23.355Z" transform="translate(3076.562 -1176.506)"/>
    </g>
    <path id="Path_22213" data-name="Path 22213" d="M-3054.264,926.413a30.488,30.488,0,0,0-.52-3.812,2.643,2.643,0,0,0-1.956-2.04c-.437-.132-.857-.32-1.291-.485a1.842,1.842,0,0,0-.79-2.121c.483-1.222.208-1.818-1-2.42-.033-.479-.068-.882-.084-1.286a.521.521,0,0,1,.084-.344,3.121,3.121,0,0,0,.8-2.075c1.417-.342,1.821-.952,1.584-2.361a1.263,1.263,0,0,0,.833-2.2c.787-.943.812-1.383.126-2.463a1.628,1.628,0,0,0,.367-1.5c-.027-.125.11-.323.224-.435.484-.478.594-1.007.1-1.466a24.758,24.758,0,0,0-2.12-1.611,1.093,1.093,0,0,0-.326-1.326,6.2,6.2,0,0,0-1.489-.536c-.267-.746-.651-1.1-1.406-1.07a1.6,1.6,0,0,1-1.039-.342,3.357,3.357,0,0,0-1.158-.262,1.451,1.451,0,0,1-.567-.147,2.074,2.074,0,0,0-2.208-.3.869.869,0,0,1-.6,0,2.066,2.066,0,0,0-2.249.343.723.723,0,0,1-.514.116,1.56,1.56,0,0,0-1.354.36.875.875,0,0,1-.517.216,1.577,1.577,0,0,0-1.835,1.249c-1.314-.078-1.735.391-1.685,1.84a6.415,6.415,0,0,0-.761.354c-.3.187-.554.444-.855.627a1.126,1.126,0,0,0-.219,1.847,4.329,4.329,0,0,0,.391.3l-.145.043.337,1.881a1.623,1.623,0,0,0,.276,2.32c-.8,1-.513,1.716.877,2.184-.187,1.388.074,1.834,1.459,2.363-.157.166-.267.391-.425.433a1.683,1.683,0,0,0-1.527,1.765c-1.12.623-1.376,1.151-1.114,2.323a1.361,1.361,0,0,0-.458,1.708c-1.09.578-.892,1.3-.238,2.117-.661.793-.565,1.352.362,2.128a13.189,13.189,0,0,0-.762,5.354h.529a2.111,2.111,0,0,1-.008-.24,14.247,14.247,0,0,1,.486-4.2c.035-.1.075-.207.12-.308.033-.075.068-.149.1-.222.11-.226.231-.448.338-.675h0c.034-.037.29-.29.33-.328l0,0h0a4.226,4.226,0,0,1,1.658-1.051l2.737-.909c.208,1,1.1,3.468,4.882,3.749.159.012.312.018.461.018a4.642,4.642,0,0,0,4.544-3.948q1.166.406,2.333.809c.868.3,1.736.607,2.6.923a1.963,1.963,0,0,1,1.18,1.472,15.747,15.747,0,0,1,.4,2.3q.017.18.03.361t.024.38c.035.621.048,1.243.07,1.865h.6C-3054.224,927.257-3054.23,926.834-3054.264,926.413Zm-18.581-16.194a2.882,2.882,0,0,1-.328-.581c-.229-.786-.445-1.577-.633-2.374-.135-.574.256-.7.8-.755.12,1.218.238,2.423.356,3.629Zm6.408,12.835c-3.62-.269-4.348-2.608-4.492-3.446.431-.161.858-.339,1.3-.466a1.346,1.346,0,0,0,1.1-1.3c.027-.407.082-.812.135-1.322,1.536.781,3.082,1.24,4.729.188.019.373.024.627.046.879a1.576,1.576,0,0,0,1.207,1.614,3.017,3.017,0,0,1,.52.207,5.649,5.649,0,0,1-.721,1.832A3.86,3.86,0,0,1-3066.437,923.055Zm1.183-6.049a3.374,3.374,0,0,1-1.466-.09c-1.585-.4-2.721-1.556-4-2.462a7.418,7.418,0,0,1-.8-.7,2.554,2.554,0,0,1-.773-1.793c-.092-1.405-.269-2.8-.4-4.208a1.363,1.363,0,0,1,.091-.405c-.428-.483-.075-1.014-.094-1.521q-.113-.447-.226-.895a5.677,5.677,0,0,1,2.87-5.337,7.137,7.137,0,0,1,9.884,1.97,5.5,5.5,0,0,1,.9,3.015,3,3,0,0,1-.167.692l-.143.545c0,.3-.017.607.363.712.734-.087,1.1.251.95.935-.161.743-.357,1.48-.57,2.211a2.867,2.867,0,0,1-.406.624v-3.432l-.245.284c-.068,1.712-.126,3.425-.212,5.136a1.5,1.5,0,0,1-.239.79C-3061.323,914.909-3062.9,916.5-3065.254,917.006Z"/>
    <g id="Group_24188" data-name="Group 24188" transform="translate(-3061.082 908.37)">
      <g id="Group_24183" data-name="Group 24183" transform="translate(0.29 0.29)">
        <path id="Path_22214" data-name="Path 22214" d="M-2916.678,1057.532c.12-.084.181-.122.237-.166,1.646-1.3,3.3-2.592,4.934-3.9a1.32,1.32,0,0,1,.891-.318q2.833.027,5.667.021a1.727,1.727,0,0,0,1.828-1.814c.012-2.425.023-6.3.033-8.724a1.706,1.706,0,0,0-1.853-1.9q-2.52-.039-5.041-.063-4.082-.041-8.164-.074a1.738,1.738,0,0,0-1.931,1.57c-.043,2.573-.065,6.6-.072,9.169a1.684,1.684,0,0,0,1.431,1.689,7.424,7.424,0,0,0,1.379.063c.81.017.955.193.89.991C-2916.543,1055.195-2916.6,1056.322-2916.678,1057.532Z" transform="translate(2920.15 -1040.589)"/>
      </g>
      <g id="Group_24184" data-name="Group 24184" transform="translate(0 0)">
        <path id="Path_22215" data-name="Path 22215" d="M-2916.678,1057.532c.078-1.21.135-2.338.228-3.462.065-.8-.08-.974-.89-.991a7.424,7.424,0,0,1-1.379-.063,1.684,1.684,0,0,1-1.431-1.689c.007-2.573.029-6.6.072-9.169a1.738,1.738,0,0,1,1.931-1.57q4.082.031,8.164.074,2.52.025,5.041.063a1.706,1.706,0,0,1,1.853,1.9c-.01,2.425-.02,6.3-.033,8.724a1.727,1.727,0,0,1-1.828,1.814q-2.833,0-5.667-.021a1.32,1.32,0,0,0-.891.318c-1.638,1.309-3.288,2.6-4.934,3.9C-2916.5,1057.41-2916.558,1057.448-2916.678,1057.532Z" transform="translate(2920.44 -1040.299)" fill="#fcfbf1"/>
        <path id="Path_22216" data-name="Path 22216" d="M-2918.717,1056.4l.039-.6c.024-.367.046-.726.067-1.08.05-.823.1-1.6.161-2.387.01-.119.039-.479-.045-.573s-.444-.1-.562-.1-.245,0-.367,0a4.879,4.879,0,0,1-1.065-.069,1.976,1.976,0,0,1-1.661-1.973c0-1.386.021-6.144.072-9.173a2.023,2.023,0,0,1,2.2-1.855h.022c2.462.019,5.056.042,8.165.074,1.923.02,3.525.04,5.042.063a1.988,1.988,0,0,1,2.138,2.2l-.009,2.733c-.007,2.064-.015,4.357-.023,5.992a2.006,2.006,0,0,1-2.118,2.1c-2.114,0-3.969-.005-5.67-.021a1.058,1.058,0,0,0-.707.255c-1.271,1.016-2.57,2.038-3.826,3.028l-1.109.874c-.04.032-.083.061-.144.1l-.107.074Zm-.5-5.325.172,0a1.289,1.289,0,0,1,.98.3,1.282,1.282,0,0,1,.193,1.008c-.064.78-.111,1.555-.161,2.375-.01.151-.019.3-.028.457l.839-.661c1.255-.989,2.553-2.011,3.823-3.025a1.591,1.591,0,0,1,1.075-.381c1.7.017,3.552.024,5.664.021a1.441,1.441,0,0,0,1.538-1.526c.009-1.635.016-3.927.023-5.991l.01-2.733a1.421,1.421,0,0,0-1.568-1.614c-1.516-.024-3.117-.044-5.039-.063-3.108-.031-5.7-.055-8.163-.074h-.019a1.445,1.445,0,0,0-1.621,1.285c-.051,3.025-.068,7.78-.072,9.165a1.4,1.4,0,0,0,1.2,1.4,4.361,4.361,0,0,0,.941.057Z" transform="translate(2922.15 -1038.589)"/>
      </g>
      <g id="Group_24185" data-name="Group 24185" transform="translate(3.788 6.265)">
        <path id="Path_22217" data-name="Path 22217" d="M-2890.811,1081.811h4.363c.508,0,.748.12.754.366s-.239.38-.734.38q-4.41,0-8.82,0c-.49,0-.76-.132-.768-.366s.271-.379.795-.38Z" transform="translate(2896.016 -1081.81)"/>
      </g>
      <g id="Group_24186" data-name="Group 24186" transform="translate(3.788 3.481)">
        <path id="Path_22218" data-name="Path 22218" d="M-2890.811,1062.6q2.181,0,4.363,0c.508,0,.748.12.754.366s-.239.379-.734.38q-4.41,0-8.82,0c-.49,0-.76-.132-.768-.366s.271-.38.795-.38Z" transform="translate(2896.016 -1062.604)"/>
      </g>
      <g id="Group_24187" data-name="Group 24187" transform="translate(3.79 8.89)">
        <path id="Path_22219" data-name="Path 22219" d="M-2892.627,1100.668c-.883,0-1.765,0-2.648,0-.392,0-.679-.084-.721-.366-.035-.235.258-.381.74-.382q2.622,0,5.25,0c.463,0,.694.133.689.378s-.237.365-.707.367C-2890.892,1100.67-2891.76,1100.668-2892.627,1100.668Z" transform="translate(2895.999 -1099.92)"/>
      </g>
    </g>
  </g>
</svg>
