<svg xmlns="http://www.w3.org/2000/svg" width="22.696" height="21.393" viewBox="0 0 22.696 21.393">
  <g id="FyHcyI.tif" transform="translate(-979.529 -241.7)">
    <g id="Group_6276" data-name="Group 6276" transform="translate(979.529 241.7)">
      <path id="Path_14632" data-name="Path 14632" d="M995.17,262.66l-.47.23a7.332,7.332,0,0,1-1.571.2l-.137,0h-.136l-.135,0a11.582,11.582,0,0,0-1.507,0l-.135,0h-.137l-.135,0a11.174,11.174,0,0,0-1.506,0l-.408,0a10.859,10.859,0,0,0-1.506,0h-.475a11.212,11.212,0,0,0-1.506,0l-.136,0h-.136l-.135-.006a11.781,11.781,0,0,0-1.507,0l-.134,0h-.138l-.134,0a4.93,4.93,0,0,1-1.591-.272,3.379,3.379,0,0,1-1.858-2.178,7.483,7.483,0,0,1-.107-1.79c-.006-.176.125-.125.214-.126.591-.009,1.181-.013,1.772-.019l.4.006c.862.009.862.009.81-.877q0-1.359,0-2.717.006-3.45.012-6.9c0-1.082-.017-2.164.006-3.245a3.241,3.241,0,0,1,2.411-3.159,2.8,2.8,0,0,1,.73-.111q6.609.007,13.219,0a3.136,3.136,0,0,1,3.111,3.109c-.006.33-.015.661,0,.99.013.223-.054.281-.279.279-1.605-.011-3.211,0-4.816-.012-.249,0-.339.048-.319.312.029.385.016.773.021,1.16q0,.088,0,.176,0,.818,0,1.637v.344q0,.751,0,1.5v3.962q0,.206,0,.411,0,.751,0,1.5v.345q0,.751,0,1.5v.411a4.882,4.882,0,0,1-.2,1.568l-.226.545,0,0c-.039.01-.064.03-.061.075l-.416.541-.141.14-.473.363-.069.049Zm-3.614-2.306a2.186,2.186,0,0,0,2.179,1.71,2.3,2.3,0,0,0,2.07-2.39c-.026-4.907-.01-9.813-.013-14.72a3.582,3.582,0,0,1,.235-1.214,5.627,5.627,0,0,1,.529-.918.377.377,0,0,0-.063-.02c-3.529,0-7.058-.027-10.586.008a2.117,2.117,0,0,0-2.073,2.143q.008,6.711,0,13.422c0,.08,0,.159,0,.239,0,.1.017.176.146.17a14.223,14.223,0,0,0,1.5-.035q2.833.007,5.667.015c.121,0,.253-.044.358.061V260.2A.129.129,0,0,0,991.556,260.354Zm-.34,1.712a3.2,3.2,0,0,1-.84-1.955c-.009-.232-.1-.307-.353-.306-2.994.012-5.989.008-8.983.008-.464,0-.495.037-.411.5.006.033.025.063.034.095a2.165,2.165,0,0,0,2.186,1.652c2.687.019,5.374.006,8.061.006Zm7.792-17.015c.614,0,1.228-.01,1.842,0,.283.007.426-.052.3-.363a1,1,0,0,1-.027-.166,2.156,2.156,0,0,0-4.262.253c-.016.23.028.277.235.275C997.733,245.047,998.37,245.052,999.007,245.052Z" transform="translate(-979.529 -241.7)" fill="#000102"/>
      <path id="Path_14633" data-name="Path 14633" d="M1072.334,296.64c-.1-.1-.237-.061-.358-.061q-2.833-.01-5.667-.015a.443.443,0,0,0,.022-.1q0-3.99-.006-7.98c0-1.864,0-3.728,0-5.592,0-.447.161-.588.608-.588q3.722,0,7.443-.009c.552,0,.551-.011.523.558,0,.091,0,.182,0,.273q0,6.038,0,12.075c0,.807,0,1.615,0,2.422,0,.347-.162.55-.466.553-.682.007-1.365-.006-2.047-.011a.129.129,0,0,1-.055-.156A8.647,8.647,0,0,1,1072.334,296.64Zm-1.66-3.662c-.773,0-1.546,0-2.32,0s-.75,0-.753.759c0,.219.053.292.281.291,1.682-.007,3.365,0,5.047,0,.772,0,.76-.015.77-.787,0-.248-.1-.267-.3-.265C1072.494,292.982,1071.584,292.977,1070.674,292.977Zm-.061-3v0H1073c.689,0,.676,0,.7-.688.008-.273-.051-.365-.346-.363-1.662.015-3.324.008-4.987.007-.77,0-.758,0-.766.757,0,.258.094.291.315.288C1068.814,289.973,1069.714,289.979,1070.613,289.979Zm-2.426-5.075a1.429,1.429,0,0,1-.239,0c-.293-.05-.391.078-.343.355a.808.808,0,0,1,0,.136c0,.549,0,.549.553.55s.54,0,.54-.522S1068.7,284.9,1068.187,284.9Zm2.488,0h-.407c-.07,0-.148.006-.15.1,0,.282-.005.565,0,.847,0,.118.105.089.18.1.858.08.891.049.862-.806a.165.165,0,0,1,0-.034c.028-.175-.064-.215-.216-.2C1070.857,284.912,1070.766,284.9,1070.675,284.9Zm3.017.547c0-.549,0-.576-.451-.541-.221.017-.625-.229-.6.335.031.7.005.7.513.7C1073.691,285.948,1073.691,285.948,1073.693,285.451Z" transform="translate(-1060.362 -279.514)" fill="#3ddeb9"/>
      <path id="Path_14634" data-name="Path 14634" d="M1050.05,275.189c.683,0,1.365.018,2.048.011.3,0,.464-.206.466-.553,0-.808,0-1.615,0-2.422q0-6.038,0-12.075c0-.091,0-.182,0-.273.028-.569.028-.559-.523-.558q-3.721.009-7.443.009c-.447,0-.606.141-.608.588-.007,1.864-.005,3.728,0,5.592q0,3.99.006,7.98a.45.45,0,0,1-.022.1,14.239,14.239,0,0,1-1.5.035c-.129.006-.151-.066-.146-.17,0-.08,0-.159,0-.239q0-6.711,0-13.422a2.117,2.117,0,0,1,2.073-2.143c3.529-.035,7.058-.01,10.587-.008a.376.376,0,0,1,.063.02,5.625,5.625,0,0,0-.529.918,3.582,3.582,0,0,0-.235,1.214c0,4.907-.013,9.814.013,14.72a2.3,2.3,0,0,1-2.07,2.39A2.187,2.187,0,0,1,1050.05,275.189Z" transform="translate(-1038.023 -256.535)" fill="#fefefd"/>
      <path id="Path_14635" data-name="Path 14635" d="M1005.653,508.115h-.307c-2.687,0-5.374.013-8.061-.006a2.165,2.165,0,0,1-2.186-1.652c-.009-.032-.028-.062-.034-.095-.084-.462-.053-.5.411-.5,2.994,0,5.989,0,8.983-.008.251,0,.345.074.353.306A3.2,3.2,0,0,0,1005.653,508.115Z" transform="translate(-993.966 -487.749)" fill="#fefefe"/>
      <path id="Path_14636" data-name="Path 14636" d="M1234.511,259.992c-.637,0-1.274,0-1.91,0-.207,0-.251-.046-.235-.275a2.156,2.156,0,0,1,4.262-.253,1,1,0,0,0,.027.166c.125.312-.019.37-.3.363C1235.74,259.982,1235.125,259.992,1234.511,259.992Z" transform="translate(-1215.033 -256.641)" fill="#fefefe"/>
      <path id="Path_14637" data-name="Path 14637" d="M1208.91,546.134l-.069.049Z" transform="translate(-1193.123 -525.267)" fill="#00fee9"/>
      <path id="Path_14638" data-name="Path 14638" d="M1224.935,529.817l-.061.075C1224.871,529.847,1224.9,529.827,1224.935,529.817Z" transform="translate(-1208.057 -510.069)" fill="#00fee9"/>
      <path id="Path_14639" data-name="Path 14639" d="M1088.223,438.068c.909,0,1.819,0,2.729,0,.2,0,.3.016.3.265-.01.772,0,.784-.77.787-1.682.006-3.365-.005-5.047,0-.227,0-.281-.072-.281-.291,0-.762-.006-.761.753-.759S1087.45,438.069,1088.223,438.068Z" transform="translate(-1077.91 -424.605)" fill="#000102"/>
      <path id="Path_14640" data-name="Path 14640" d="M1088.139,380.144c-.9,0-1.8-.006-2.7,0-.221,0-.318-.031-.315-.288.009-.758,0-.757.766-.757,1.662,0,3.325.008,4.987-.007.3,0,.354.09.346.363-.019.689-.006.689-.7.689h-2.391Z" transform="translate(-1077.888 -369.679)" fill="#000102"/>
      <path id="Path_14641" data-name="Path 14641" d="M1085.636,320.176c.513,0,.513,0,.513.517s0,.522-.54.522-.553,0-.553-.55a.807.807,0,0,0,0-.136c-.048-.276.049-.405.343-.355A1.452,1.452,0,0,0,1085.636,320.176Z" transform="translate(-1077.811 -314.785)" fill="#000102"/>
      <path id="Path_14642" data-name="Path 14642" d="M1122.378,320.3c.09,0,.182.007.271,0,.152-.014.244.026.216.2a.185.185,0,0,0,0,.034c.029.855,0,.886-.862.806-.074-.007-.177.022-.18-.1-.007-.282-.006-.564,0-.847,0-.09.08-.1.15-.1Z" transform="translate(-1112.065 -314.91)" fill="#000102"/>
      <path id="Path_14643" data-name="Path 14643" d="M1159.719,320.452c0,.5,0,.5-.538.494-.507,0-.482,0-.513-.7-.025-.564.379-.318.6-.335C1159.718,319.876,1159.72,319.9,1159.719,320.452Z" transform="translate(-1146.388 -314.514)" fill="#000102"/>
    </g>
  </g>
</svg>
