<svg id="discover_4860950" xmlns="http://www.w3.org/2000/svg" width="69.456" height="69.456" viewBox="0 0 69.456 69.456">
  <g id="Filled_14_" transform="translate(1.019 1.019)">
    <path id="Path_42209" data-name="Path 42209" d="M0,0H5.437V5.437H0Z" transform="translate(35.061 38.914) rotate(-45)" fill="#c8d1da"/>
    <ellipse id="Ellipse_1728" data-name="Ellipse 1728" cx="21.747" cy="21.747" rx="21.747" ry="21.747" fill="#757575"/>
    <ellipse id="Ellipse_1729" data-name="Ellipse 1729" cx="17.67" cy="17.67" rx="17.67" ry="17.67" transform="translate(4.078 4.078)" fill="#c8d1da"/>
    <path id="Path_42210" data-name="Path 42210" d="M55.17,168.131A17.7,17.7,0,0,1,37.618,152.5a17.67,17.67,0,1,0,35.1,0A17.7,17.7,0,0,1,55.17,168.131Z" transform="translate(-33.422 -132.791)" fill="#92a2b5"/>
    <path id="Path_42211" data-name="Path 42211" d="M107.5,158.374l10.874-5.437-5.437-5.437Z" transform="translate(-93.908 -128.471)" fill="#bdedd4"/>
    <path id="Path_42212" data-name="Path 42212" d="M147.5,112.937l5.437,5.437,5.437-10.874Z" transform="translate(-128.471 -93.908)" fill="#fcf5be"/>
    <path id="Path_42213" data-name="Path 42213" d="M308.485,308.485a5.437,5.437,0,0,1-7.689,0l-21.144-21.144,7.689-7.689L308.486,300.8A5.437,5.437,0,0,1,308.485,308.485Z" transform="translate(-242.661 -242.661)" fill="#ed9c87"/>
    <path id="Path_42214" data-name="Path 42214" d="M309.97,335.607a5.437,5.437,0,0,1-7.689,0l-19.848-19.848-2.781,2.781L300.8,339.685a5.436,5.436,0,0,0,9.27-4.179c-.032.034-.063.068-.1.1Z" transform="translate(-242.661 -273.86)" fill="#e46a4a"/>
  </g>
  <g id="Group_58755" data-name="Group 58755" transform="translate(8.155 8.155)">
    <path id="Path_42215" data-name="Path 42215" d="M160,60h2.039v2.039H160Z" transform="translate(-146.408 -60)" fill="#fff"/>
    <path id="Path_42216" data-name="Path 42216" d="M160,260h2.039v2.039H160Z" transform="translate(-146.408 -232.816)" fill="#fff"/>
    <path id="Path_42217" data-name="Path 42217" d="M60,160h2.039v2.039H60Z" transform="translate(-60 -146.408)" fill="#fff"/>
    <path id="Path_42218" data-name="Path 42218" d="M260,160h2.039v2.039H260Z" transform="translate(-232.816 -146.408)" fill="#fff"/>
    <path id="Path_42219" data-name="Path 42219" d="M0,0H2.039V2.039H0Z" transform="translate(54.158 55.617) rotate(-45)" fill="#fff"/>
    <path id="Path_42220" data-name="Path 42220" d="M0,0H2.039V2.039H0Z" transform="translate(51.276 52.734) rotate(-45)" fill="#fff"/>
  </g>
  <g id="Outline_14_" transform="translate(0 0)">
    <path id="Path_42221" data-name="Path 42221" d="M79.744,2.039a20.836,20.836,0,0,1,19.895,14.89l1.957-.573A22.937,22.937,0,0,0,93.512,4.634a22.772,22.772,0,0,0-27.572.027l1.237,1.62A20.537,20.537,0,0,1,79.744,2.039Z" transform="translate(-56.977 0)"/>
    <path id="Path_42222" data-name="Path 42222" d="M2.039,61.118A20.792,20.792,0,0,1,8.713,45.882l-1.383-1.5a22.771,22.771,0,0,0,5.333,37.141l.906-1.827A20.621,20.621,0,0,1,2.039,61.118Z" transform="translate(0 -38.351)"/>
    <path id="Path_42223" data-name="Path 42223" d="M48.689,30A18.689,18.689,0,1,0,67.379,48.689,18.71,18.71,0,0,0,48.689,30Zm0,35.34a16.65,16.65,0,1,1,16.65-16.65A16.669,16.669,0,0,1,48.689,65.34Z" transform="translate(-25.922 -25.922)"/>
    <path id="Path_42224" data-name="Path 42224" d="M90.729,111.6l13.913-6.956L111.6,90.73,97.686,97.686ZM107.04,95.289l-3.437,6.873-3.437-3.437Zm-4.878,8.315-6.873,3.437,3.437-6.873Z" transform="translate(-78.397 -78.398)"/>
    <path id="Path_42225" data-name="Path 42225" d="M160.486,175.591l-10.365-10.365-1.442,1.442,10.365,10.365a4.417,4.417,0,1,1-6.247,6.247l-17.541-17.54,6.247-6.247,5.734,5.734,1.442-1.442-10.059-10.059-1.922,1.922-2.494-2.494a22.642,22.642,0,0,0,4.25-13.231,22.946,22.946,0,0,0-.413-4.338l-2,.386a20.748,20.748,0,0,1-20.352,24.68,20.64,20.64,0,0,1-7.42-1.367l-.73,1.9a22.77,22.77,0,0,0,21.381-2.747l2.494,2.494-1.922,1.922,21.865,21.865a6.456,6.456,0,0,0,9.131-9.131Zm-29.953-18.42a22.982,22.982,0,0,0,2.4-2.4l2.322,2.321-2.4,2.4Zm1.841,5.685,6.247-6.247,1.442,1.442-6.247,6.247Z" transform="translate(-92.921 -117.157)"/>
    <path id="Path_42226" data-name="Path 42226" d="M52,341h2.039v2.039H52Z" transform="translate(-44.932 -294.651)" fill="#fff"/>
    <path id="Path_42227" data-name="Path 42227" d="M52,391h2.039v2.039H52Z" transform="translate(-44.932 -337.855)" fill="#fff"/>
    <path id="Path_42228" data-name="Path 42228" d="M77,366h2.039v2.039H77Z" transform="translate(-66.534 -316.253)" fill="#fff"/>
    <path id="Path_42229" data-name="Path 42229" d="M27,366h2.039v2.039H27Z" transform="translate(-23.33 -316.253)" fill="#fff"/>
    <path id="Path_42230" data-name="Path 42230" d="M202,371h2.039v2.039H202Z" transform="translate(-174.544 -320.573)" fill="#fff"/>
    <path id="Path_42231" data-name="Path 42231" d="M202,421h2.039v2.039H202Z" transform="translate(-174.544 -363.777)" fill="#fff"/>
    <path id="Path_42232" data-name="Path 42232" d="M227,396h2.039v2.039H227Z" transform="translate(-196.146 -342.175)" fill="#fff"/>
    <path id="Path_42233" data-name="Path 42233" d="M177,396h2.039v2.039H177Z" transform="translate(-152.942 -342.175)" fill="#fff"/>
    <path id="Path_42234" data-name="Path 42234" d="M341,52h2.039v2.039H341Z" transform="translate(-294.651 -44.932)" fill="#fff"/>
    <path id="Path_42235" data-name="Path 42235" d="M391,52h2.039v2.039H391Z" transform="translate(-337.855 -44.932)" fill="#fff"/>
    <path id="Path_42236" data-name="Path 42236" d="M366,77h2.039v2.039H366Z" transform="translate(-316.253 -66.534)" fill="#fff"/>
    <path id="Path_42237" data-name="Path 42237" d="M366,27h2.039v2.039H366Z" transform="translate(-316.253 -23.33)" fill="#fff"/>
    <path id="Path_42238" data-name="Path 42238" d="M371,202h2.039v2.039H371Z" transform="translate(-320.573 -174.544)" fill="#fff"/>
    <path id="Path_42239" data-name="Path 42239" d="M421,202h2.039v2.039H421Z" transform="translate(-363.777 -174.544)" fill="#fff"/>
    <path id="Path_42240" data-name="Path 42240" d="M396,227h2.039v2.039H396Z" transform="translate(-342.175 -196.146)" fill="#fff"/>
    <path id="Path_42241" data-name="Path 42241" d="M396,177h2.039v2.039H396Z" transform="translate(-342.175 -152.942)" fill="#fff"/>
  </g>
</svg>
