<svg xmlns="http://www.w3.org/2000/svg" width="32" height="32" viewBox="0 0 32 32">
  <g id="Group_15683" data-name="Group 15683" transform="translate(-295 -13)">
    <g id="Group_15682" data-name="Group 15682">
      <circle id="Ellipse_1044" data-name="Ellipse 1044" cx="16" cy="16" r="16" transform="translate(295 13)" fill="#fff"/>
      <path id="Path_5804" data-name="Path 5804" d="M420.265-119.975c-.577-.572-.958-.572-1.53,0q-5.231,5.221-10.451,10.457a2.262,2.262,0,0,0-.464.662c-.569,1.3-1.125,2.606-1.68,3.91a.867.867,0,0,0,.093,1.065.9.9,0,0,0,1.07.08c1.318-.571,2.643-1.13,3.963-1.7a1.487,1.487,0,0,0,.449-.3q5.371-5.354,10.726-10.726a3.616,3.616,0,0,0,.4-.634,4.306,4.306,0,0,0-.447-.684C421.693-118.565,420.979-119.268,420.265-119.975Zm-11.979,14.041.728-1.7.953.969Zm2.611-1.37-1.241-1.233,7.724-7.724,1.2,1.27Zm8.478-8.545-1.2-1.185,1.382-1.368,1.183,1.24Z" transform="translate(-103.202 141.661)"/>
    </g>
  </g>
</svg>
