<svg id="Group_44228" data-name="Group 44228" xmlns="http://www.w3.org/2000/svg" width="116.823" height="130.277" viewBox="0 0 116.823 130.277">
  <g id="Group_40100" data-name="Group 40100" transform="translate(0 0)">
    <ellipse id="Ellipse_1241" data-name="Ellipse 1241" cx="47.01" cy="0.603" rx="47.01" ry="0.603" transform="translate(0 129.071)" opacity="0.547"/>
    <g id="Group_40099" data-name="Group 40099" transform="translate(8.126)">
      <g id="Group_39925" data-name="Group 39925" transform="translate(85.342 54.093)">
        <path id="Path_29763" data-name="Path 29763" d="M987.048,659.865l1.818-1.11s2.378-2.118,3.025-2.58a14.857,14.857,0,0,1,3.5-1.558,20.464,20.464,0,0,0,4.6-.568c.816-.38,1.7-.879,1.7-.879a1.254,1.254,0,0,1,.088,1.474,14.028,14.028,0,0,1-3,2.44l.942,6.14s-2.338,1.844-3.8,1.965-2.859-.166-3.27-.037-1.435.49-1.435.49Z" transform="translate(-987.048 -649.691)" fill="#ffbf9d"/>
        <path id="Path_29764" data-name="Path 29764" d="M1003.038,655.192l15.949-10.579.906,1.332-15.8,10.533Z" transform="translate(-996.538 -644.613)" fill="#263238"/>
        <g id="Group_39922" data-name="Group 39922" transform="translate(7.435 6.85)">
          <path id="Path_29765" data-name="Path 29765" d="M1013.512,662.16a1.085,1.085,0,0,1,.575,1.609c-.651,1.114-1.478.766-1.478.766a1.66,1.66,0,0,1-1.078,1.851,2.067,2.067,0,0,1-.8,1.853l-.776.4-.494-.954s-2.918-.267-3.359-1.429l-.022-.6a.865.865,0,0,1-.474-.853c.095-.566.056-.579,1.155-.954a11.1,11.1,0,0,1,3.426-.126s-1.249-.477-1.228-1.122.519-1.057,1.861-.964A13.351,13.351,0,0,1,1013.512,662.16Z" transform="translate(-1005.487 -661.557)" fill="#ffbf9d"/>
          <g id="Group_39921" data-name="Group 39921">
            <path id="Path_29766" data-name="Path 29766" d="M1013.36,662.064a4.666,4.666,0,0,1-.482-.107c-.313-.072-.773-.177-1.366-.263a9.571,9.571,0,0,0-.985-.1,2.72,2.72,0,0,0-1.123.149.824.824,0,0,0-.432.387.712.712,0,0,0-.032.591,1.336,1.336,0,0,0,.472.475,3.572,3.572,0,0,0,.653.339l.559.225-.6-.048a12.884,12.884,0,0,0-2.866.011,3.691,3.691,0,0,0-.736.2,2.886,2.886,0,0,0-.695.307.45.45,0,0,0-.139.3l-.033.2a.705.705,0,0,0,0,.176.794.794,0,0,0,.422.562l.056.031,0,.06c.007.191.014.4.022.6l-.007-.034.072.134a1.694,1.694,0,0,0,.657.558,4.6,4.6,0,0,0,.828.331,9.646,9.646,0,0,0,1.711.341l.057.006.025.048.492.956-.134-.043.776-.4-.012.007a1.953,1.953,0,0,0,.774-1.763l-.006-.065.055-.026a1.9,1.9,0,0,0,.868-.749,1.5,1.5,0,0,0,.177-1l-.023-.128.122.043a.965.965,0,0,0,.754-.068,1.561,1.561,0,0,0,.528-.476,1.866,1.866,0,0,0,.283-.557.891.891,0,0,0-.02-.509,1.2,1.2,0,0,0-.454-.556c-.138-.1-.22-.135-.217-.142a.683.683,0,0,1,.239.108,1.2,1.2,0,0,1,.506.562.972.972,0,0,1,.04.56,1.939,1.939,0,0,1-.285.6,1.662,1.662,0,0,1-.561.525,1.09,1.09,0,0,1-.871.087l.1-.084a1.638,1.638,0,0,1-.177,1.119,2.059,2.059,0,0,1-.934.829l.05-.091a2.3,2.3,0,0,1-.146,1.053,2,2,0,0,1-.69.891l0,0-.007,0-.774.4-.088.046-.046-.089-.5-.953.082.055a9.722,9.722,0,0,1-1.753-.344,4.8,4.8,0,0,1-.867-.345,1.892,1.892,0,0,1-.739-.635l-.089-.168-.006-.011v-.022c-.007-.207-.014-.412-.021-.6l.058.09a1,1,0,0,1-.536-.726.927.927,0,0,1,.005-.234l.035-.2a.655.655,0,0,1,.21-.417,2.923,2.923,0,0,1,.761-.342,3.877,3.877,0,0,1,.772-.2,12.761,12.761,0,0,1,2.917.007l-.043.176a3.7,3.7,0,0,1-.686-.364,1.49,1.49,0,0,1-.525-.549.925.925,0,0,1,.557-1.188,2.819,2.819,0,0,1,1.188-.141,9.164,9.164,0,0,1,1,.119,12.4,12.4,0,0,1,1.364.315c.155.045.273.084.351.111A.421.421,0,0,1,1013.36,662.064Z" transform="translate(-1005.335 -661.462)" fill="#ff9a6c"/>
          </g>
        </g>
        <g id="Group_39923" data-name="Group 39923" transform="translate(8.002 10.681)">
          <path id="Path_29767" data-name="Path 29767" d="M1011.869,671.915a9.658,9.658,0,0,0-5.137-.781,2.146,2.146,0,0,1,.761-.189,6.734,6.734,0,0,1,3.707.563A2.15,2.15,0,0,1,1011.869,671.915Z" transform="translate(-1006.732 -670.886)" fill="#ff9a6c"/>
        </g>
        <g id="Group_39924" data-name="Group 39924" transform="translate(11.767 9.022)">
          <path id="Path_29768" data-name="Path 29768" d="M1018.737,667.692c-.035.045-.574-.309-1.339-.515s-1.407-.264-1.4-.327a2.817,2.817,0,0,1,1.464.123A2.322,2.322,0,0,1,1018.737,667.692Z" transform="translate(-1015.993 -666.804)" fill="#ff9a6c"/>
        </g>
      </g>
      <g id="Group_40078" data-name="Group 40078" transform="translate(20.759)">
        <g id="Group_39930" data-name="Group 39930" transform="translate(9.267)">
          <g id="Group_39929" data-name="Group 39929">
            <g id="Group_39928" data-name="Group 39928">
              <g id="Group_39927" data-name="Group 39927">
                <g id="Group_39926" data-name="Group 39926">
                  <path id="Path_29769" data-name="Path 29769" d="M851.242,513.8a2.739,2.739,0,0,1,2.816-1.451,3.745,3.745,0,0,1,4.611-.007,3.33,3.33,0,0,1,5.079,2.619,2.783,2.783,0,0,1,2.527,4.638,2.675,2.675,0,0,1-1.019,5.224l-13.451-7.906A2.74,2.74,0,0,1,851.242,513.8Z" transform="translate(-850.983 -511.555)" fill="#352a25"/>
                </g>
              </g>
            </g>
          </g>
        </g>
        <g id="Group_40065" data-name="Group 40065" transform="translate(0 1.256)">
          <g id="Group_40058" data-name="Group 40058" transform="translate(0.076 1.423)">
            <g id="Group_39937" data-name="Group 39937" transform="translate(2.895 0.756)">
              <g id="Group_39936" data-name="Group 39936">
                <g id="Group_39935" data-name="Group 39935">
                  <g id="Group_39934" data-name="Group 39934">
                    <g id="Group_39933" data-name="Group 39933">
                      <g id="Group_39932" data-name="Group 39932">
                        <g id="Group_39931" data-name="Group 39931">
                          <path id="Path_29770" data-name="Path 29770" d="M856.463,530.207a11.348,11.348,0,0,0-11.525-10.2l-.588.012c-6.327.5-9.437,6.154-8.762,12.466l1.352,21.078.923,2.635,10.9,13.66,2.748-12.306.052-5.714s6.071-1.072,6.021-7.163C857.561,541.733,857.018,535.68,856.463,530.207Z" transform="translate(-835.497 -520.004)" fill="#ffbf9d"/>
                        </g>
                      </g>
                    </g>
                  </g>
                </g>
              </g>
            </g>
            <g id="Group_39946" data-name="Group 39946" transform="translate(10.986 30.41)">
              <g id="Group_39945" data-name="Group 39945">
                <g id="Group_39944" data-name="Group 39944">
                  <g id="Group_39943" data-name="Group 39943">
                    <g id="Group_39942" data-name="Group 39942">
                      <g id="Group_39941" data-name="Group 39941">
                        <g id="Group_39940" data-name="Group 39940">
                          <g id="Group_39939" data-name="Group 39939">
                            <g id="Group_39938" data-name="Group 39938">
                              <path id="Path_29771" data-name="Path 29771" d="M863.367,595.135a14.752,14.752,0,0,1-7.969-2.19s1.956,4.356,7.963,3.7Z" transform="translate(-855.398 -592.945)" fill="#ff9a6c"/>
                            </g>
                          </g>
                        </g>
                      </g>
                    </g>
                  </g>
                </g>
              </g>
            </g>
            <g id="Group_39958" data-name="Group 39958" transform="translate(20.479 15.866)">
              <g id="Group_39957" data-name="Group 39957">
                <g id="Group_39956" data-name="Group 39956">
                  <g id="Group_39955" data-name="Group 39955">
                    <g id="Group_39954" data-name="Group 39954">
                      <g id="Group_39953" data-name="Group 39953">
                        <g id="Group_39952" data-name="Group 39952">
                          <g id="Group_39951" data-name="Group 39951">
                            <g id="Group_39950" data-name="Group 39950">
                              <g id="Group_39949" data-name="Group 39949">
                                <g id="Group_39948" data-name="Group 39948">
                                  <g id="Group_39947" data-name="Group 39947">
                                    <path id="Path_29772" data-name="Path 29772" d="M880.482,557.94a.869.869,0,0,1-.82.895.832.832,0,0,1-.912-.766.87.87,0,0,1,.819-.9A.832.832,0,0,1,880.482,557.94Z" transform="translate(-878.748 -557.172)" fill="#263238"/>
                                  </g>
                                </g>
                              </g>
                            </g>
                          </g>
                        </g>
                      </g>
                    </g>
                  </g>
                </g>
              </g>
            </g>
            <g id="Group_39971" data-name="Group 39971" transform="translate(19.25 13.394)">
              <g id="Group_39970" data-name="Group 39970">
                <g id="Group_39969" data-name="Group 39969">
                  <g id="Group_39968" data-name="Group 39968">
                    <g id="Group_39967" data-name="Group 39967">
                      <g id="Group_39966" data-name="Group 39966">
                        <g id="Group_39965" data-name="Group 39965">
                          <g id="Group_39964" data-name="Group 39964">
                            <g id="Group_39963" data-name="Group 39963">
                              <g id="Group_39962" data-name="Group 39962">
                                <g id="Group_39961" data-name="Group 39961">
                                  <g id="Group_39960" data-name="Group 39960">
                                    <g id="Group_39959" data-name="Group 39959">
                                      <path id="Path_29773" data-name="Path 29773" d="M879.164,551.97c-.105.116-.774-.358-1.71-.336s-1.612.5-1.716.391c-.051-.05.055-.256.349-.48a2.384,2.384,0,0,1,1.37-.453,2.292,2.292,0,0,1,1.364.409C879.115,551.715,879.216,551.918,879.164,551.97Z" transform="translate(-875.726 -551.09)" fill="#263238"/>
                                    </g>
                                  </g>
                                </g>
                              </g>
                            </g>
                          </g>
                        </g>
                      </g>
                    </g>
                  </g>
                </g>
              </g>
            </g>
            <g id="Group_39983" data-name="Group 39983" transform="translate(12.467 16.432)">
              <g id="Group_39982" data-name="Group 39982">
                <g id="Group_39981" data-name="Group 39981">
                  <g id="Group_39980" data-name="Group 39980">
                    <g id="Group_39979" data-name="Group 39979">
                      <g id="Group_39978" data-name="Group 39978">
                        <g id="Group_39977" data-name="Group 39977">
                          <g id="Group_39976" data-name="Group 39976">
                            <g id="Group_39975" data-name="Group 39975">
                              <g id="Group_39974" data-name="Group 39974">
                                <g id="Group_39973" data-name="Group 39973">
                                  <g id="Group_39972" data-name="Group 39972">
                                    <path id="Path_29774" data-name="Path 29774" d="M860.775,559.333a.87.87,0,0,1-.821.894.832.832,0,0,1-.912-.766.87.87,0,0,1,.82-.895A.833.833,0,0,1,860.775,559.333Z" transform="translate(-859.041 -558.564)" fill="#263238"/>
                                  </g>
                                </g>
                              </g>
                            </g>
                          </g>
                        </g>
                      </g>
                    </g>
                  </g>
                </g>
              </g>
            </g>
            <g id="Group_39996" data-name="Group 39996" transform="translate(10.295 13.448)">
              <g id="Group_39995" data-name="Group 39995">
                <g id="Group_39994" data-name="Group 39994">
                  <g id="Group_39993" data-name="Group 39993">
                    <g id="Group_39992" data-name="Group 39992">
                      <g id="Group_39991" data-name="Group 39991">
                        <g id="Group_39990" data-name="Group 39990">
                          <g id="Group_39989" data-name="Group 39989">
                            <g id="Group_39988" data-name="Group 39988">
                              <g id="Group_39987" data-name="Group 39987">
                                <g id="Group_39986" data-name="Group 39986">
                                  <g id="Group_39985" data-name="Group 39985">
                                    <g id="Group_39984" data-name="Group 39984">
                                      <path id="Path_29775" data-name="Path 29775" d="M857.136,552.1c-.105.115-.775-.358-1.71-.337s-1.611.5-1.716.391c-.051-.05.054-.256.35-.48a2.386,2.386,0,0,1,1.37-.454,2.3,2.3,0,0,1,1.364.409C857.086,551.848,857.188,552.051,857.136,552.1Z" transform="translate(-853.698 -551.223)" fill="#263238"/>
                                    </g>
                                  </g>
                                </g>
                              </g>
                            </g>
                          </g>
                        </g>
                      </g>
                    </g>
                  </g>
                </g>
              </g>
            </g>
            <g id="Group_40008" data-name="Group 40008" transform="translate(16.36 13.411)">
              <g id="Group_40007" data-name="Group 40007">
                <g id="Group_40006" data-name="Group 40006">
                  <g id="Group_40005" data-name="Group 40005">
                    <g id="Group_40004" data-name="Group 40004">
                      <g id="Group_40003" data-name="Group 40003">
                        <g id="Group_40002" data-name="Group 40002">
                          <g id="Group_40001" data-name="Group 40001">
                            <g id="Group_40000" data-name="Group 40000">
                              <g id="Group_39999" data-name="Group 39999">
                                <g id="Group_39998" data-name="Group 39998">
                                  <g id="Group_39997" data-name="Group 39997">
                                    <path id="Path_29776" data-name="Path 29776" d="M869.215,558.921a6.174,6.174,0,0,1,1.514-.306c.239-.029.464-.082.5-.246a1.214,1.214,0,0,0-.174-.7l-.744-1.8a31.277,31.277,0,0,1-1.685-4.727,31.34,31.34,0,0,1,2.062,4.58q.374.951.715,1.816a1.384,1.384,0,0,1,.143.936.6.6,0,0,1-.386.357,1.6,1.6,0,0,1-.4.065A6.116,6.116,0,0,1,869.215,558.921Z" transform="translate(-868.617 -551.133)" fill="#263238"/>
                                  </g>
                                </g>
                              </g>
                            </g>
                          </g>
                        </g>
                      </g>
                    </g>
                  </g>
                </g>
              </g>
            </g>
            <g id="Group_40020" data-name="Group 40020" transform="translate(14.075 21.904)">
              <g id="Group_40019" data-name="Group 40019">
                <g id="Group_40018" data-name="Group 40018">
                  <g id="Group_40017" data-name="Group 40017">
                    <g id="Group_40016" data-name="Group 40016">
                      <g id="Group_40015" data-name="Group 40015">
                        <g id="Group_40014" data-name="Group 40014">
                          <g id="Group_40013" data-name="Group 40013">
                            <g id="Group_40012" data-name="Group 40012">
                              <g id="Group_40011" data-name="Group 40011">
                                <g id="Group_40010" data-name="Group 40010">
                                  <g id="Group_40009" data-name="Group 40009">
                                    <path id="Path_29777" data-name="Path 29777" d="M863.139,572.022c.152-.012.175,1,1.059,1.706s1.963.569,1.974.711c.015.063-.238.2-.694.224a2.528,2.528,0,0,1-1.646-.536,2.2,2.2,0,0,1-.823-1.432C862.962,572.271,863.069,572.017,863.139,572.022Z" transform="translate(-862.997 -572.022)" fill="#263238"/>
                                  </g>
                                </g>
                              </g>
                            </g>
                          </g>
                        </g>
                      </g>
                    </g>
                  </g>
                </g>
              </g>
            </g>
            <g id="Group_40028" data-name="Group 40028" transform="translate(9.89 10.785)">
              <g id="Group_40027" data-name="Group 40027">
                <g id="Group_40026" data-name="Group 40026">
                  <g id="Group_40025" data-name="Group 40025">
                    <g id="Group_40024" data-name="Group 40024">
                      <g id="Group_40023" data-name="Group 40023">
                        <g id="Group_40022" data-name="Group 40022">
                          <g id="Group_40021" data-name="Group 40021">
                            <path id="Path_29778" data-name="Path 29778" d="M856.5,545.542c-.106.245-.917.044-1.9.08-.979.014-1.79.257-1.9.017-.046-.115.113-.34.452-.554a2.926,2.926,0,0,1,1.445-.413,2.811,2.811,0,0,1,1.444.339C856.391,545.208,856.55,545.425,856.5,545.542Z" transform="translate(-852.704 -544.672)" fill="#263238"/>
                          </g>
                        </g>
                      </g>
                    </g>
                  </g>
                </g>
              </g>
            </g>
            <g id="Group_40036" data-name="Group 40036" transform="translate(19.234 10.902)">
              <g id="Group_40035" data-name="Group 40035">
                <g id="Group_40034" data-name="Group 40034">
                  <g id="Group_40033" data-name="Group 40033">
                    <g id="Group_40032" data-name="Group 40032">
                      <g id="Group_40031" data-name="Group 40031">
                        <g id="Group_40030" data-name="Group 40030">
                          <g id="Group_40029" data-name="Group 40029">
                            <path id="Path_29779" data-name="Path 29779" d="M878.876,545.77c-.142.229-.806.075-1.578.144-.775.042-1.41.289-1.583.083-.077-.1,0-.323.269-.552a2.3,2.3,0,0,1,2.547-.183C878.825,545.451,878.937,545.659,878.876,545.77Z" transform="translate(-875.687 -544.96)" fill="#263238"/>
                          </g>
                        </g>
                      </g>
                    </g>
                  </g>
                </g>
              </g>
            </g>
            <g id="Group_40043" data-name="Group 40043" transform="translate(1.43)">
              <g id="Group_40042" data-name="Group 40042">
                <g id="Group_40041" data-name="Group 40041">
                  <g id="Group_40040" data-name="Group 40040">
                    <g id="Group_40039" data-name="Group 40039">
                      <g id="Group_40038" data-name="Group 40038">
                        <g id="Group_40037" data-name="Group 40037">
                          <path id="Path_29780" data-name="Path 29780" d="M853.681,526.323s-1.685-3.78-3.542-4.633c-2.249-1.031-3.156,1.432-5.29.883s-4.28-1.539-6.415.146c-2.336,1.844-1.2,3.08-1.289,5.785-.369,10.967-2.305,14.105-2.981,8.957-.074-.564-1.652-.982-1.934-3.365-.365-3.091-.561-6.849.084-9.061a8.672,8.672,0,0,1,3.439-4.616c2.944-2.289,7.05-2.422,9.844-2.2S853.836,521.543,853.681,526.323Z" transform="translate(-831.893 -518.144)" fill="#352a25"/>
                        </g>
                      </g>
                    </g>
                  </g>
                </g>
              </g>
            </g>
            <g id="Group_40050" data-name="Group 40050" transform="translate(0 17.576)">
              <g id="Group_40049" data-name="Group 40049">
                <g id="Group_40048" data-name="Group 40048">
                  <g id="Group_40047" data-name="Group 40047">
                    <g id="Group_40046" data-name="Group 40046">
                      <g id="Group_40045" data-name="Group 40045">
                        <g id="Group_40044" data-name="Group 40044">
                          <path id="Path_29781" data-name="Path 29781" d="M832.462,562.945a1.653,1.653,0,0,0-1.817-1.556c-1.133.131-2.384.8-2.261,3.147.219,4.161,4.351,3.082,4.352,2.963C832.736,567.417,832.569,564.685,832.462,562.945Z" transform="translate(-828.375 -561.378)" fill="#ffbf9d"/>
                        </g>
                      </g>
                    </g>
                  </g>
                </g>
              </g>
            </g>
            <g id="Group_40057" data-name="Group 40057" transform="translate(1.43 18.929)">
              <g id="Group_40056" data-name="Group 40056">
                <g id="Group_40055" data-name="Group 40055">
                  <g id="Group_40054" data-name="Group 40054">
                    <g id="Group_40053" data-name="Group 40053">
                      <g id="Group_40052" data-name="Group 40052">
                        <g id="Group_40051" data-name="Group 40051">
                          <path id="Path_29782" data-name="Path 29782" d="M833.835,567.955c-.019-.012-.07.055-.189.117a.727.727,0,0,1-.541.04,1.8,1.8,0,0,1-.914-1.565,2.392,2.392,0,0,1,.148-1.048.839.839,0,0,1,.516-.585.369.369,0,0,1,.438.176c.062.114.04.2.062.2s.086-.075.043-.245a.46.46,0,0,0-.177-.252.546.546,0,0,0-.406-.085,1.019,1.019,0,0,0-.723.685,2.458,2.458,0,0,0-.19,1.173,1.884,1.884,0,0,0,1.151,1.741.778.778,0,0,0,.657-.145C833.833,568.056,833.85,567.962,833.835,567.955Z" transform="translate(-831.893 -564.704)" fill="#ff9a6c"/>
                        </g>
                      </g>
                    </g>
                  </g>
                </g>
              </g>
            </g>
          </g>
          <g id="Group_40064" data-name="Group 40064">
            <g id="Group_40063" data-name="Group 40063">
              <g id="Group_40062" data-name="Group 40062">
                <g id="Group_40061" data-name="Group 40061">
                  <g id="Group_40060" data-name="Group 40060">
                    <g id="Group_40059" data-name="Group 40059">
                      <path id="Path_29783" data-name="Path 29783" d="M832.266,527.143a3.95,3.95,0,0,0,1.78.778,1.358,1.358,0,0,0,1.487-.986c.044-.291-.034-.626.152-.854.222-.272.643-.2.993-.167a2.658,2.658,0,0,0,2.719-1.962,1.116,1.116,0,0,0,1.5.11A5.98,5.98,0,0,0,842,522.826a1.714,1.714,0,0,1,1.414-.744,4.111,4.111,0,0,0,.909.181c.546-.06.8-.705.871-1.25s.123-1.179.58-1.483a2.181,2.181,0,0,1,1.488-.072c.5.064,1.152-.068,1.271-.563a.988.988,0,0,0-.2-.751,2.7,2.7,0,0,0-3.2-.955,33.723,33.723,0,0,1-10.064-1.371,3.774,3.774,0,0,0-2.566,2.275,2.689,2.689,0,0,0-2.95,3.973,2.555,2.555,0,0,0-1.363,2.062,1.462,1.462,0,0,0,1.687,1.459,1.489,1.489,0,0,0,2.606,1.432" transform="translate(-828.188 -514.644)" fill="#352a25"/>
                    </g>
                  </g>
                </g>
              </g>
            </g>
          </g>
        </g>
        <g id="Group_40071" data-name="Group 40071" transform="translate(1.369 12.196)">
          <g id="Group_40070" data-name="Group 40070">
            <g id="Group_40069" data-name="Group 40069">
              <g id="Group_40068" data-name="Group 40068">
                <g id="Group_40067" data-name="Group 40067">
                  <g id="Group_40066" data-name="Group 40066">
                    <path id="Path_29784" data-name="Path 29784" d="M831.567,541.554a1,1,0,0,0,.276.795,1.337,1.337,0,0,0,.845.481,1.442,1.442,0,0,0,1.179-.37l-.177-.023a4.167,4.167,0,0,0,.853,1.021,2.4,2.4,0,0,0,.768.456,1.848,1.848,0,0,0,2.027-.653,2.413,2.413,0,0,0,.319-.873.823.823,0,0,0,.025-.337c-.018,0-.051.111-.116.315a2.807,2.807,0,0,1-.368.8,1.7,1.7,0,0,1-2.5.11,4.185,4.185,0,0,1-.813-.957l-.076-.121-.1.1a1.264,1.264,0,0,1-1,.34,1.227,1.227,0,0,1-.762-.381A2.011,2.011,0,0,1,831.567,541.554Z" transform="translate(-831.555 -541.553)" fill="#211612"/>
                  </g>
                </g>
              </g>
            </g>
          </g>
        </g>
        <g id="Group_40077" data-name="Group 40077" transform="translate(9.051 0.865)">
          <g id="Group_40076" data-name="Group 40076">
            <g id="Group_40075" data-name="Group 40075">
              <g id="Group_40074" data-name="Group 40074">
                <g id="Group_40073" data-name="Group 40073">
                  <g id="Group_40072" data-name="Group 40072">
                    <path id="Path_29785" data-name="Path 29785" d="M850.452,515.344c0,.015.109.027.3.1a1.43,1.43,0,0,1,.658.536l.051.078.056-.078a5.182,5.182,0,0,1,1.979-1.671,4.044,4.044,0,0,1,1.632-.393,3.384,3.384,0,0,1,1.773.468,3.435,3.435,0,0,1,1.07.973,2.814,2.814,0,0,1,.484,1.246l.016.132.126-.037a2.335,2.335,0,0,1,1.734.175,2.28,2.28,0,0,1,.968.995,3.119,3.119,0,0,1,.285,1.228.848.848,0,0,0,.043-.341,2.315,2.315,0,0,0-.207-.944,2.366,2.366,0,0,0-1-1.1,2.5,2.5,0,0,0-1.886-.224l.141.094a3.007,3.007,0,0,0-.511-1.356,3.622,3.622,0,0,0-1.142-1.047,3.572,3.572,0,0,0-1.9-.492,4.173,4.173,0,0,0-1.717.436,5.064,5.064,0,0,0-2,1.787h.107a1.411,1.411,0,0,0-.742-.529A.635.635,0,0,0,850.452,515.344Z" transform="translate(-850.452 -513.684)" fill="#211612"/>
                  </g>
                </g>
              </g>
            </g>
          </g>
        </g>
      </g>
      <path id="Path_29786" data-name="Path 29786" d="M817.44,782.916l.147-21.891,3.08-7.986,0-2.154,34.792-.584v2.51l3.993,9.925.213,20.18h-20.1l-1.679-9.114-.388,9.114Z" transform="translate(-801.051 -653.241)" fill="#263238"/>
      <g id="Group_40091" data-name="Group 40091" transform="translate(0 35.293)">
        <path id="Path_29787" data-name="Path 29787" d="M833.492,598.369l7.262,5.688,4.6,5.839,1.682-6.054,1.2-4.748,1.978,1.962,5.013,10.674,5.638,51.593s-9.834,2.88-14.928,3.229-13.211-1.047-13.211-1.047V638.361l-2.891-26.883,3.487-10.3Z" transform="translate(-808.409 -598.369)" fill="#f5f5f5"/>
        <g id="Group_40079" data-name="Group 40079" transform="translate(36.855 11.782)">
          <path id="Path_29788" data-name="Path 29788" d="M870.685,683.407a.727.727,0,0,1-.015-.144c-.005-.107-.012-.247-.021-.425-.014-.386-.034-.935-.06-1.635-.048-1.433-.118-3.483-.2-6.012-.176-5.077-.455-12.088-.855-19.827s-.848-14.745-1.2-19.812c-.176-2.524-.319-4.571-.419-6-.047-.7-.084-1.246-.109-1.632-.01-.177-.017-.318-.023-.425a.77.77,0,0,1,0-.145.742.742,0,0,1,.022.143l.044.423c.035.385.085.931.149,1.629.126,1.415.293,3.463.486,6,.387,5.065.857,12.069,1.259,19.812s.656,14.755.793,19.833c.07,2.539.115,4.594.135,6.015.009.7.015,1.249.02,1.636v.425A.731.731,0,0,1,870.685,683.407Z" transform="translate(-867.781 -627.349)" fill="#263238"/>
        </g>
        <path id="Path_29789" data-name="Path 29789" d="M813.521,602.287,811.84,604.6l-13.752,7.238,7.654,23.341L807.8,648.27l-7.731,31.1s9.38,3.227,10.2,2.2a43.048,43.048,0,0,0,2.356-5.118,54.847,54.847,0,0,0,3.938-15.272c.574-5.295,1.1-12.043.716-16.614-.722-8.556-1.855-22.678-1.959-26.388s-.759-17.722-.759-17.722Z" transform="translate(-789.566 -599.603)" fill="#f9a21b"/>
        <path id="Path_29790" data-name="Path 29790" d="M877.492,601.586l4.551,2.657,14.733,4.841L895.6,619.506l-.676,26.965,4.639,32.367s-4.948,1.752-6.906,1.031-4.639-5.154-4.742-7.834-3.917-28.656-3.917-28.656l-3.711-34.944Z" transform="translate(-836.689 -600.278)" fill="#f9a21b"/>
        <g id="Group_40080" data-name="Group 40080" transform="translate(45.634 3.951)">
          <path id="Path_29791" data-name="Path 29791" d="M889.377,608.087a1.6,1.6,0,0,1,.185.208l.509.624,1.891,2.369.04.05-.052.04-1.6,1.217-.022-.133,1.881.6.059.019v.063l-.13,12.148c-.081,5.584-.155,10.638-.209,14.317-.037,1.819-.067,3.3-.088,4.338-.015.5-.026.893-.035,1.179-.006.124-.011.225-.014.307a.376.376,0,0,1-.012.1.4.4,0,0,1-.009-.1c0-.082,0-.182-.007-.307q0-.43-.005-1.18c.005-1.042.012-2.52.02-4.34.038-3.679.09-8.733.147-14.318.065-4.575.124-8.795.172-12.147l.059.081-1.875-.612-.14-.045.118-.087,1.617-1.2-.012.09-1.844-2.405-.484-.644A1.659,1.659,0,0,1,889.377,608.087Z" transform="translate(-889.376 -608.087)" fill="#263238"/>
        </g>
        <g id="Group_40081" data-name="Group 40081" transform="translate(20.729 2.322)">
          <path id="Path_29792" data-name="Path 29792" d="M834.688,642.28a.458.458,0,0,1-.04-.1l-.1-.3-.375-1.155c-.329-1-.817-2.448-1.444-4.227l-1.039-2.9a34.96,34.96,0,0,1-1.057-3.388,76.515,76.515,0,0,1-1.477-7.987c-.511-3.716-.84-7.219-1.041-10.233l0-.043.031-.029,1.62-1.563.008.128-1.536-1.169-.06-.046.044-.06L831,605.442l.763-1.016.2-.261c.047-.058.072-.087.075-.085a.471.471,0,0,1-.057.1l-.186.274-.73,1.04-2.719,3.8-.016-.105,1.546,1.156.079.059-.071.069-1.61,1.574.028-.072c.218,3.007.557,6.507,1.067,10.216a79.649,79.649,0,0,0,1.457,7.968q.463,1.81,1.032,3.376l1.016,2.915c.609,1.786,1.076,3.24,1.381,4.251.153.505.265.9.337,1.168l.078.307A.408.408,0,0,1,834.688,642.28Z" transform="translate(-828.114 -604.08)" fill="#263238"/>
        </g>
        <path id="Path_29793" data-name="Path 29793" d="M815.235,737.879l8,3.137.534-1.782,2.718,2.485.487-4.32-2.508-4.677-8.645,2.8Z" transform="translate(-799.742 -678.102)" opacity="0.3"/>
        <g id="Group_40086" data-name="Group 40086" transform="translate(22.591 49.555)">
          <path id="Path_29794" data-name="Path 29794" d="M852.774,730.424l-3.246-1.971-2.853-2.585a7.2,7.2,0,0,0,2.219,1.207,1.834,1.834,0,0,0,2.091-.782s-1.17-.738-1.571-.961-4.45-3.242-5.474-3.465-7.793-1.6-7.793-1.6l-.107.35-3.345,7.13,2.973.8a19.833,19.833,0,0,1,1.516,2.5c.668,1.337,3.912,2.655,5.161,3.31s2.661-.492,2.661-.492a1.52,1.52,0,0,0,1.789-1.213,2.213,2.213,0,0,0,1.79-2.018,39.363,39.363,0,0,0,3.917,1.323.564.564,0,0,0,.681-.358A.949.949,0,0,0,852.774,730.424Z" transform="translate(-832.694 -720.264)" fill="#ffbf9d"/>
          <g id="Group_40082" data-name="Group 40082" transform="translate(12.309 8.297)">
            <path id="Path_29795" data-name="Path 29795" d="M866.553,742.737a8.22,8.22,0,0,1-1.892-.85,5.97,5.97,0,0,1-1.686-1.211c.036-.046.791.482,1.789,1.026A13.422,13.422,0,0,1,866.553,742.737Z" transform="translate(-862.972 -740.672)" fill="#ff9a6c"/>
          </g>
          <g id="Group_40083" data-name="Group 40083" transform="translate(10.627 10.092)">
            <path id="Path_29796" data-name="Path 29796" d="M858.835,745.093A8.584,8.584,0,0,1,860.7,746.2a17.492,17.492,0,0,1,1.756,1.266,8.212,8.212,0,0,1-1.875-1.091A15.977,15.977,0,0,1,858.835,745.093Z" transform="translate(-858.835 -745.089)" fill="#ff9a6c"/>
          </g>
          <g id="Group_40084" data-name="Group 40084" transform="translate(9.336 11.472)">
            <path id="Path_29797" data-name="Path 29797" d="M855.661,748.484c.04-.038.664.484,1.5,1.048a8.35,8.35,0,0,1,1.468,1.108,7.812,7.812,0,0,1-1.589-.934A4.826,4.826,0,0,1,855.661,748.484Z" transform="translate(-855.659 -748.482)" fill="#ff9a6c"/>
          </g>
          <g id="Group_40085" data-name="Group 40085" transform="translate(10.171 2.753)">
            <path id="Path_29798" data-name="Path 29798" d="M857.713,727.043a1.829,1.829,0,0,1,.723.156,5.53,5.53,0,0,1,1.559.871,7.3,7.3,0,0,1,1.253,1.268,2.125,2.125,0,0,1,.394.624c-.057.045-.706-.88-1.777-1.726A9.773,9.773,0,0,0,857.713,727.043Z" transform="translate(-857.712 -727.036)" fill="#ff9a6c"/>
          </g>
        </g>
        <path id="Path_29799" data-name="Path 29799" d="M778.568,667.6a3.045,3.045,0,0,1-1.432-2.479,27.716,27.716,0,0,1,.244-4.223c.571-4.76,8.364-32.4,8.364-32.4l7.836,21.541-2.69,9.379,13.712,6.565-3.818,10.774S782.564,670.084,778.568,667.6Z" transform="translate(-777.126 -616.245)" fill="#f9a21b"/>
        <path id="Path_29800" data-name="Path 29800" d="M919.317,620.032,931.9,643.959l.338.491,13.724-7.006,4.52,9.143L932.018,657.8a4.606,4.606,0,0,1-6.186-1.392l-8.162-12.182-2.2-10.013Z" transform="translate(-859.23 -611.225)" fill="#f9a21b"/>
        <g id="Group_40087" data-name="Group 40087" transform="translate(58.222 15.632)">
          <path id="Path_29801" data-name="Path 29801" d="M920.637,636.821a1.6,1.6,0,0,1,.025.3c.007.218.017.506.028.865.014.774.034,1.855.058,3.181.034,2.687.048,6.4.009,10.5s-.125,7.812-.212,10.5c-.05,1.325-.09,2.406-.119,3.18-.019.359-.034.646-.045.864a.152.152,0,1,1-.043,0c0-.218,0-.506.006-.865.013-.775.03-1.855.052-3.181.048-2.686.109-6.4.149-10.5s.049-7.809.053-10.5c0-1.326.007-2.407.009-3.181,0-.359.008-.647.011-.866A1.721,1.721,0,0,1,920.637,636.821Z" transform="translate(-920.339 -636.821)" fill="#263238"/>
        </g>
        <g id="Group_40088" data-name="Group 40088" transform="translate(11.654 18.23)">
          <path id="Path_29802" data-name="Path 29802" d="M805.794,643.21a1.2,1.2,0,0,1,.087.242l.21.7c.181.639.431,1.52.736,2.6.612,2.195,1.452,5.229,2.3,8.6s1.528,6.451,1.953,8.691c.213,1.12.373,2.029.47,2.659l.109.726a1.19,1.19,0,0,1,.024.255,1.155,1.155,0,0,1-.066-.248c-.038-.187-.087-.424-.148-.719l-.536-2.644c-.462-2.23-1.16-5.3-2.011-8.67s-1.668-6.409-2.243-8.614l-.671-2.615c-.07-.292-.127-.529-.171-.714A1.168,1.168,0,0,1,805.794,643.21Z" transform="translate(-805.793 -643.21)" fill="#263238"/>
        </g>
        <g id="Group_40089" data-name="Group 40089" transform="translate(5.983 42.759)">
          <path id="Path_29803" data-name="Path 29803" d="M791.842,714.351a.361.361,0,0,1,.089.026l.256.091.988.37,3.685,1.415,12.694,4.946-.133.06,2.557-7.229,1.257-3.546.053.129-13.553-6.543.01,0a7.852,7.852,0,0,0-5.57.236,10.042,10.042,0,0,0-1.375.723l-.339.223a.635.635,0,0,1-.12.07.689.689,0,0,1,.107-.088l.328-.241a9.04,9.04,0,0,1,1.366-.764,7.894,7.894,0,0,1,2.39-.644,8.092,8.092,0,0,1,3.258.342h0l.005,0,13.579,6.49.085.041-.032.089-1.255,3.547-2.565,7.226-.035.1-.1-.039-12.667-5.015-3.663-1.47-.975-.4-.25-.108A.374.374,0,0,1,791.842,714.351Z" transform="translate(-791.842 -703.547)" fill="#263238"/>
        </g>
        <g id="Group_40090" data-name="Group 40090" transform="translate(72.089 32.98)">
          <path id="Path_29804" data-name="Path 29804" d="M955.466,679.492a3.2,3.2,0,0,1,.033.942,14.609,14.609,0,0,1-.318,2.248c-.181.866-.367,1.642-.49,2.206a4.77,4.77,0,0,1-.231.909,3.655,3.655,0,0,1,.084-.937c.086-.574.249-1.359.43-2.222s.314-1.645.377-2.217A6.035,6.035,0,0,1,955.466,679.492Z" transform="translate(-954.45 -679.492)" fill="#263238"/>
        </g>
      </g>
      <g id="Group_40092" data-name="Group 40092" transform="translate(71.573 68.851)">
        <path id="Path_29805" data-name="Path 29805" d="M954.712,680.914a9.856,9.856,0,0,1-.664,2.173,16.134,16.134,0,0,1-.862,2.1,9.848,9.848,0,0,1,.664-2.174A16.128,16.128,0,0,1,954.712,680.914Z" transform="translate(-953.179 -680.913)" fill="#263238"/>
      </g>
      <g id="Group_40093" data-name="Group 40093" transform="translate(25.002 39.515)">
        <path id="Path_29806" data-name="Path 29806" d="M850.4,615.842a2.857,2.857,0,0,1-.386-.35l-1.022-1.016-3.453-3.527.15-.005a4.256,4.256,0,0,0-.891,1.895,4.214,4.214,0,0,0-.085,1.107l.014.239-.184-.149c-1.746-1.416-3.161-2.8-4.219-3.752-.525-.478-.95-.859-1.246-1.117a3.986,3.986,0,0,1-.448-.413,3.345,3.345,0,0,1,.5.354c.312.241.753.605,1.291,1.071,1.084.92,2.521,2.293,4.257,3.692l-.17.089a4.613,4.613,0,0,1,1.031-3.152l.074-.085.076.08,3.4,3.579.979,1.059A2.914,2.914,0,0,1,850.4,615.842Z" transform="translate(-838.626 -608.754)" fill="#263238"/>
      </g>
      <g id="Group_40094" data-name="Group 40094" transform="translate(37.072 38.89)">
        <path id="Path_29807" data-name="Path 29807" d="M872.636,607.216a1.219,1.219,0,0,1,.017.325c0,.211-.013.518-.042.905a18.911,18.911,0,0,1-.512,3.113l-.063.255-.121-.235a7.6,7.6,0,0,0-1.338-1.846c-.153-.155-.311-.3-.465-.435l.172-.057a28.846,28.846,0,0,1-1.249,4.123c-.2.508-.371.91-.5,1.184a2.031,2.031,0,0,1-.218.415,2.194,2.194,0,0,1,.146-.445q.175-.483.437-1.2a35.743,35.743,0,0,0,1.177-4.12l.038-.172.134.114c.158.136.322.287.479.446a7.523,7.523,0,0,1,1.364,1.9l-.185.02a23.04,23.04,0,0,0,.582-3.076C872.582,607.669,872.61,607.215,872.636,607.216Z" transform="translate(-868.315 -607.216)" fill="#263238"/>
      </g>
      <g id="Group_40096" data-name="Group 40096" transform="translate(53.913 92.56)">
        <path id="Path_29808" data-name="Path 29808" d="M909.742,739.95l1.229,3.819,6.956-.643-2.169-3.648Z" transform="translate(-909.741 -739.378)" fill="#f9a21b"/>
        <g id="Group_40095" data-name="Group 40095">
          <path id="Path_29809" data-name="Path 29809" d="M909.74,739.8a3.33,3.33,0,0,1,.414-.052l1.218-.121c1.053-.1,2.571-.244,4.376-.394l.059,0,.031.051,2.178,3.643.086.144-.167.016-.357.033-6.6.587-.066.006-.02-.063c-.374-1.193-.664-2.165-.862-2.829l-.223-.76a1.543,1.543,0,0,1-.065-.255,2.678,2.678,0,0,1,.107.28l.269.768.932,2.745-.086-.057,6.6-.633.357-.033-.081.159-2.16-3.654.089.046c-1.76.13-3.25.223-4.314.288l-1.247.073C909.91,739.8,909.749,739.811,909.74,739.8Z" transform="translate(-909.739 -739.232)" fill="#263238"/>
        </g>
      </g>
      <g id="Group_40098" data-name="Group 40098" transform="translate(49.48 62.734)">
        <rect id="Rectangle_4110" data-name="Rectangle 4110" width="7.474" height="2.411" transform="translate(0.106 0.116)" fill="#f9a21b"/>
        <g id="Group_40097" data-name="Group 40097" transform="translate(0 0)">
          <path id="Path_29810" data-name="Path 29810" d="M906.415,668.394a1.016,1.016,0,0,1-.014-.177c0-.132-.01-.291-.017-.481-.01-.44-.022-1.029-.038-1.753l.069.069c-1.78.023-4.47.037-7.473.037l.105-.106h0v1.231c0,.4,0,.8,0,1.178l-.1-.1c2.129.006,3.981.027,5.314.048l1.573.029a5.573,5.573,0,0,1,.586.026,4.18,4.18,0,0,1-.539.026l-1.549.029c-1.328.02-3.213.042-5.385.047h-.1v-.1c0-.382,0-.775,0-1.178v-1.231h0l.106-.106c3,0,5.693.015,7.473.037h.07v.068c-.015.741-.028,1.344-.038,1.795A5.324,5.324,0,0,1,906.415,668.394Z" transform="translate(-898.835 -665.867)" fill="#263238"/>
        </g>
      </g>
      <path id="Path_29811" data-name="Path 29811" d="M895.7,620.51l1.148,1.582s-.321,23.995-1.54,29.953Z" transform="translate(-847.263 -576.216)" opacity="0.3"/>
    </g>
  </g>
</svg>
