<svg xmlns="http://www.w3.org/2000/svg" width="20.421" height="22.695" viewBox="0 0 20.421 22.695">
  <g id="DhMfZ9.tif" transform="translate(-366.381 -51.048)">
    <g id="Group_49473" data-name="Group 49473" transform="translate(366.381 51.048)">
      <path id="Path_33078" data-name="Path 33078" d="M435,63.7a8.762,8.762,0,0,1-.815-1.453,7.821,7.821,0,0,1,1-8.085,7.49,7.49,0,0,1,5-3,7.76,7.76,0,0,1,7.289,2.578,7.661,7.661,0,0,1,2.016,5.344,7.825,7.825,0,0,1-1.515,4.637c-.026.036-.047.077-.07.115a9.577,9.577,0,0,1-1.163,1.235,8.072,8.072,0,0,1-4.783,1.944l-1.123,0c-.034-.042-.082-.028-.126-.033-.224-.026-.452-.036-.672-.082a8.331,8.331,0,0,1-2.354-.844,7.989,7.989,0,0,1-1.708-1.249A11.965,11.965,0,0,1,435,63.7Zm6.505-9.365c-.037.07-.064.12-.088.17q-.615,1.246-1.23,2.491c-.034.068-.054.141-.158.155-.715.1-1.428.2-2.142.307l-.832.123-.025.05a.537.537,0,0,1,.1.063c.665.646,1.326,1.295,1.993,1.937a.306.306,0,0,1,.11.31c-.092.491-.172.985-.256,1.477l-.245,1.429.158-.08c.815-.428,1.631-.853,2.442-1.288a.319.319,0,0,1,.342,0c.53.286,1.064.563,1.6.844l.993.521c-.013-.092-.022-.159-.033-.225-.154-.9-.306-1.8-.465-2.7a.269.269,0,0,1,.091-.269q.993-.96,1.981-1.925c.041-.04.08-.082.138-.141-1.007-.147-1.979-.291-2.951-.427a.233.233,0,0,1-.2-.146c-.2-.419-.411-.836-.617-1.254Z" transform="translate(-431.202 -51.048)" fill="#fa890f"/>
      <path id="Path_33079" data-name="Path 33079" d="M370.179,421.054a11.974,11.974,0,0,0,.978,1.1,7.989,7.989,0,0,0,1.708,1.249,8.331,8.331,0,0,0,2.354.844c.22.046.447.056.672.082.044.005.092-.008.126.033-.309.543-.614,1.087-.926,1.628q-1.392,2.414-2.787,4.826a.472.472,0,0,1-.432.279.452.452,0,0,1-.418-.3c-.446-.895-.9-1.787-1.341-2.683a.184.184,0,0,0-.208-.123c-.862.057-1.724.107-2.586.16l-.408.028a.459.459,0,0,1-.468-.215.467.467,0,0,1,.02-.5q.581-1,1.16-2.006l2.522-4.368A.305.305,0,0,1,370.179,421.054Z" transform="translate(-366.381 -408.403)" fill="#febb16"/>
      <path id="Path_33080" data-name="Path 33080" d="M681.1,428.21a8.072,8.072,0,0,0,4.783-1.944,9.578,9.578,0,0,0,1.163-1.235c.361.618.723,1.235,1.082,1.854q1.271,2.2,2.541,4.4a.471.471,0,0,1,.028.513.458.458,0,0,1-.469.209c-.993-.063-1.986-.119-2.978-.185a.23.23,0,0,0-.258.157c-.421.857-.85,1.71-1.273,2.566-.1.2-.2.386-.462.394s-.372-.168-.485-.364q-1.812-3.146-3.631-6.289C681.121,428.261,681.109,428.235,681.1,428.21Z" transform="translate(-670.336 -412.244)" fill="#febb16"/>
      <path id="Path_33081" data-name="Path 33081" d="M541.318,147.138l.7,1.422c.206.418.414.835.617,1.254a.233.233,0,0,0,.2.146c.972.136,1.944.28,2.951.427-.057.059-.1.1-.138.141q-.99.963-1.981,1.925a.269.269,0,0,0-.091.269c.16.9.312,1.8.465,2.7.011.067.02.134.033.225l-.993-.521c-.533-.28-1.068-.557-1.6-.844a.319.319,0,0,0-.342,0c-.811.434-1.628.859-2.442,1.288l-.158.08.245-1.429c.084-.493.164-.986.256-1.477a.305.305,0,0,0-.11-.31c-.667-.643-1.329-1.292-1.993-1.937a.537.537,0,0,0-.1-.063l.025-.05.832-.123c.714-.1,1.427-.209,2.142-.307.1-.014.124-.088.158-.155q.617-1.245,1.23-2.491C541.255,147.258,541.281,147.208,541.318,147.138Z" transform="translate(-531.015 -143.853)" fill="#fefefe"/>
    </g>
  </g>
</svg>
