<svg id="Group_59451" data-name="Group 59451" xmlns="http://www.w3.org/2000/svg" width="27.681" height="24.499" viewBox="0 0 27.681 24.499">
  <path id="Path_44083" data-name="Path 44083" d="M10.507,42.515c-3.647,0-7.327-.542-9.158-1.616A2.251,2.251,0,0,1,0,38.983a10.354,10.354,0,0,1,20.685-.024c0,.01,0,.02,0,.031A2.349,2.349,0,0,1,19.25,41c-1.766,1.012-5.239,1.513-8.743,1.513M10.343,30.26a9.175,9.175,0,0,0-9.2,8.755c0,.356.424.686.784.9,3.282,1.926,13.46,1.984,16.753.1.563-.322.852-.661.859-1.007a9.225,9.225,0,0,0-9.2-8.742" transform="translate(0 -18.016)" fill="#fff"/>
  <path id="Path_44084" data-name="Path 44084" d="M19.74,8.99a4.48,4.48,0,1,1,4.481-4.48A4.485,4.485,0,0,1,19.74,8.99m0-7.816A3.336,3.336,0,1,0,23.076,4.51,3.339,3.339,0,0,0,19.74,1.174" transform="translate(-9.437 -0.029)" fill="#fff"/>
  <path id="Path_44085" data-name="Path 44085" d="M56.115,2.813H47.478a.572.572,0,1,1,0-1.145h8.637a.572.572,0,1,1,0,1.145" transform="translate(-29.007 -1.043)" fill="#facd39"/>
  <path id="Path_44086" data-name="Path 44086" d="M56.115,13.055H47.478a.572.572,0,1,1,0-1.145h8.637a.572.572,0,1,1,0,1.145" transform="translate(-29.007 -7.376)" fill="#facd39"/>
  <path id="Path_44087" data-name="Path 44087" d="M56.115,23.4H47.478a.572.572,0,1,1,0-1.145h8.637a.572.572,0,1,1,0,1.145" transform="translate(-29.007 -13.773)" fill="#facd39"/>
</svg>
