<svg id="Group_59452" data-name="Group 59452" xmlns="http://www.w3.org/2000/svg" width="23.525" height="24.465" viewBox="0 0 23.525 24.465">
  <path id="Path_44088" data-name="Path 44088" d="M118.46,16.147a.47.47,0,0,0-.329-.154.486.486,0,0,0-.328.114l-1.041-1.09a9.42,9.42,0,1,0-2.488,2.336l1.027,1.075-.082.074.005.006a.47.47,0,0,0,.014.612l4.446,4.913a1.465,1.465,0,0,0,1.085.464,1.634,1.634,0,0,0,1.1-.435l.89-.816a1.628,1.628,0,0,0,.532-1.126,1.441,1.441,0,0,0-.381-1.047ZM100.715,9.441a8.469,8.469,0,1,1,8.469,8.469,8.479,8.479,0,0,1-8.469-8.469M115.048,16.8a9.5,9.5,0,0,0,1.116-1.047l.976,1.022L116,17.8Zm7.083,5.753-.891.816a.7.7,0,0,1-.469.189.532.532,0,0,1-.392-.159l-4.125-4.559,1.858-1.672,4.112,4.545a.507.507,0,0,1,.134.373.681.681,0,0,1-.227.469" transform="translate(-99.774 -0.031)" fill="#fff"/>
  <path id="Path_44089" data-name="Path 44089" d="M113,6.2a7.057,7.057,0,1,0,7.058,7.057A7.058,7.058,0,0,0,113,6.2m0,13.174a6.116,6.116,0,1,1,6.117-6.117A6.124,6.124,0,0,1,113,19.371" transform="translate(-103.586 -3.844)" fill="#fff"/>
  <path id="Path_44090" data-name="Path 44090" d="M121.453,15.477l-4.444,1.767a.469.469,0,0,0-.248.229l-2.143,4.35a.471.471,0,0,0,.6.645l4.444-1.766a.47.47,0,0,0,.248-.229l2.143-4.351a.47.47,0,0,0-.6-.645m-4.185,3.1,1.478,1.478L116,21.141Zm2.13.8-1.478-1.478,2.744-1.091Z" transform="translate(-108.924 -9.562)" fill="#facd39"/>
</svg>
