<svg id="Group_59449" data-name="Group 59449" xmlns="http://www.w3.org/2000/svg" width="24.702" height="24.501" viewBox="0 0 24.702 24.501">
  <path id="Path_44091" data-name="Path 44091" d="M214.888,3.543h-5.239V3.38A1.7,1.7,0,0,0,209.464,0h-13a1.7,1.7,0,0,0-.185,3.38v.163h-5.239a.426.426,0,0,0-.426.426v.3a2.126,2.126,0,0,0,1.051,1.827,2.151,2.151,0,0,0,1.455,2.186A2.419,2.419,0,0,0,195.51,10.4h1.125a6.71,6.71,0,0,0,4.387,4.255V20.9H199.38A1.38,1.38,0,0,0,198,22.276v1.8a.426.426,0,0,0,.426.426h9.07a.426.426,0,0,0,.426-.426v-1.8a1.38,1.38,0,0,0-1.378-1.378H204.9V14.655a6.711,6.711,0,0,0,4.387-4.255h1.125a2.419,2.419,0,0,0,2.392-2.121,2.128,2.128,0,0,0,1.455-2.011V6.092a2.125,2.125,0,0,0,1.051-1.827v-.3A.426.426,0,0,0,214.888,3.543ZM195.614,1.7a.849.849,0,0,1,.848-.848h13a.848.848,0,1,1,0,1.7h-13a.849.849,0,0,1-.848-.848m.663,2.7v1.15h-3.534A1.282,1.282,0,0,1,191.47,4.4Zm-3.756,2h3.756v1.15h-2.483a1.282,1.282,0,0,1-1.273-1.15m2.989,3.151a1.567,1.567,0,0,1-1.5-1.147h2.278a6.678,6.678,0,0,0,.121,1.147Zm11.562,12.729v1.372h-8.218V22.277a.527.527,0,0,1,.526-.527c.008,0,7.166,0,7.166,0a.527.527,0,0,1,.526.527m-3.02-1.378h-2.179V14.848a6.293,6.293,0,0,0,2.179,0V20.9Zm-1.089-6.806a5.858,5.858,0,0,1-5.834-6.12c0-1,0-4.572,0-4.572H208.8s0,3.574,0,4.572a5.858,5.858,0,0,1-5.834,6.12m7.453-4.545h-.894a6.715,6.715,0,0,0,.12-1.147h2.278A1.566,1.566,0,0,1,210.416,9.548ZM213.4,6.4a1.282,1.282,0,0,1-1.273,1.15h-2.483V6.4Zm-.222-.852h-3.533V4.4h4.807A1.281,1.281,0,0,1,213.182,5.545Zm-6.9,1.211-2.028-.295-.907-1.838a.443.443,0,0,0-.764,0l-.907,1.838-2.028.295a.428.428,0,0,0-.236.726l1.468,1.431-.347,2.021a.429.429,0,0,0,.618.449l1.814-.954,1.814.954a.426.426,0,0,0,.618-.449l-.346-2.021,1.468-1.431A.429.429,0,0,0,206.28,6.756Zm-1.987,1.7a.426.426,0,0,0-.122.377l.238,1.391-1.249-.656a.426.426,0,0,0-.4,0l-1.249.656.239-1.391a.428.428,0,0,0-.122-.377l-1.01-.985,1.4-.2a.424.424,0,0,0,.321-.233l.625-1.265.624,1.265a.426.426,0,0,0,.321.233l1.4.2Z" transform="translate(-190.612)" fill="#fff"/>
</svg>
