<svg xmlns="http://www.w3.org/2000/svg" width="31.208" height="30.302" viewBox="0 0 31.208 30.302">
  <g id="Group_24138" data-name="Group 24138" transform="translate(2087.958 -619.801)">
    <path id="Path_22118" data-name="Path 22118" d="M-2086.234,635.383c-.379.281-.666.508-.968.715-.392.269-.745.1-.749-.369-.011-1.4,0-2.794-.008-4.191,0-.287.172-.421.369-.568q5.858-4.348,11.713-8.7c1.019-.757,2.047-1.5,3.052-2.274a.663.663,0,0,1,.936,0q4.046,3.026,8.1,6.026c.132-.036.087-.138.087-.211,0-.748-.009-1.5.009-2.243.006-.264-.071-.362-.331-.324-.431.064-.58-.129-.548-.554s.011-.846.005-1.269c0-.245.092-.359.35-.358,1.354.006,2.709.008,4.064,0,.287,0,.37.129.367.385-.006.437-.019.876,0,1.312.019.366-.114.54-.485.486-.307-.045-.408.055-.4.384.02,1.467.015,2.935,0,4.4a.569.569,0,0,0,.27.521c1.1.807,2.2,1.631,3.3,2.437a.744.744,0,0,1,.342.671c-.012,1.326-.006,2.653,0,3.979,0,.217,0,.433-.233.546a.523.523,0,0,1-.582-.124c-.275-.211-.558-.412-.908-.669v.52q0,6.731,0,13.461c0,.642-.094.736-.729.736h-26.287c-.66,0-.741-.083-.741-.766V635.383Zm24.714-5.251c0-.085.008-.216.086-.22.489-.024.341-.383.341-.644.006-2,0-4.006,0-6.009,0-.211-.036-.426.284-.464.582-.068.58-.079.58-.665a2.841,2.841,0,0,1,0-.338c.03-.242-.067-.311-.307-.308-.9.013-1.805.005-2.708.005s-.881,0-.895.907c0,.307.063.455.393.4.4-.065.5.134.5.509-.017,1.283.047,2.57-.026,3.85a1.66,1.66,0,0,0,.927,1.85,1.093,1.093,0,0,1,.237.176c.222.2.214.35-.088.444a6.359,6.359,0,0,0-.691-.485,1.392,1.392,0,0,1-.808-1.618.51.51,0,0,0-.241-.537q-4.1-3.031-8.184-6.079a.337.337,0,0,0-.482.006c-.41.322-.834.626-1.253.937q-6.469,4.8-12.942,9.6a.626.626,0,0,0-.3.589c.023.592.007,1.185.007,1.777v1.1c.208-.145.336-.228.459-.319l13.615-10.118c.663-.492.662-.492,1.338.01q6.791,5.045,13.585,10.087c.135.1.247.269.473.255,0-.99-.007-1.963,0-2.936a.456.456,0,0,0-.251-.4c-.7-.519-1.4-1.042-2.106-1.562-.209-.155-.423-.305-.689-.5a2.217,2.217,0,0,1,0,.328c-.051.265.163.647-.13.775S-2061.284,630.291-2061.52,630.132Zm2.146,6.264c.01-.422.006-.845.036-1.266a.654.654,0,0,0-.314-.632q-6.2-4.594-12.4-9.208a.424.424,0,0,0-.615,0c-1.588,1.2-3.189,2.376-4.785,3.562q-3.8,2.826-7.606,5.653c-.142.105-.323.18-.316.412.017.492.023.985.033,1.477a1.561,1.561,0,0,0-.028.208c0,4.106,0,8.212-.009,12.318,0,.319.142.326.38.326,2.625-.005,5.249-.01,7.874.005.352,0,.441-.09.439-.441-.014-3.429-.009-6.857-.008-10.286,0-.552,0-.556.565-.556q3.768,0,7.535,0c.562,0,.565,0,.565.557,0,3.443.005,6.886-.007,10.329,0,.317.078.4.4.4q3.915-.021,7.831,0c.368,0,.468-.079.466-.459-.016-3.993-.009-7.986-.011-11.979C-2059.347,636.676-2059.364,636.536-2059.374,636.4Zm-9.084,7.436c0-1.678,0-3.357.006-5.035,0-.268-.029-.4-.354-.4q-3.554.022-7.108,0c-.29,0-.344.1-.343.362q.011,5.056,0,10.112c0,.3.08.376.376.375q3.512-.018,7.024,0c.351,0,.411-.115.408-.43C-2068.465,647.161-2068.458,645.5-2068.458,643.832Z" fill="#23242e"/>
    <path id="Path_22119" data-name="Path 22119" d="M-2031.491,711.814c.01.14.027.28.027.42,0,3.993,0,7.986.011,11.979,0,.38-.1.462-.466.459q-3.915-.026-7.831,0c-.318,0-.4-.08-.4-.4.012-3.443.008-6.886.007-10.329,0-.553,0-.556-.565-.557q-3.767,0-7.535,0c-.562,0-.565,0-.565.556,0,3.429-.006,6.857.008,10.286,0,.351-.087.443-.439.44-2.625-.015-5.249-.01-7.874-.005-.239,0-.381-.007-.38-.326q.017-6.159.009-12.318a1.6,1.6,0,0,1,.027-.208c.487-.357.977-.711,1.461-1.073q5.608-4.2,11.21-8.4a.436.436,0,0,1,.62,0q2.9,2.186,5.807,4.352Q-2034.925,709.256-2031.491,711.814Z" transform="translate(-27.883 -75.418)" fill="#fdfcee"/>
    <path id="Path_22120" data-name="Path 22120" d="M-2052.244,641c.236.159.427.537.725.407s.08-.51.13-.775a2.234,2.234,0,0,0,0-.328c.267.192.48.343.69.5.7.52,1.4,1.044,2.107,1.562a.456.456,0,0,1,.251.4c-.011.973-.005,1.946-.005,2.936-.225.013-.337-.155-.472-.255q-6.8-5.039-13.585-10.087c-.676-.5-.675-.5-1.338-.01l-13.615,10.118c-.123.091-.251.175-.459.319v-1.1c0-.593.016-1.186-.007-1.777a.626.626,0,0,1,.3-.589q6.476-4.8,12.942-9.6c.419-.311.843-.615,1.254-.937a.336.336,0,0,1,.481-.006q4.087,3.047,8.184,6.079a.509.509,0,0,1,.241.537,1.393,1.393,0,0,0,.808,1.618,6.409,6.409,0,0,1,.691.485A3.037,3.037,0,0,0-2052.244,641Z" transform="translate(-9.276 -10.872)" fill="#ee5a6b"/>
    <path id="Path_22121" data-name="Path 22121" d="M-1942.3,844.415c0,1.664-.008,3.328.007,4.993,0,.315-.057.432-.408.43q-3.512-.026-7.023,0c-.3,0-.377-.078-.376-.375q.015-5.056,0-10.112c0-.263.053-.363.343-.362q3.554.018,7.108,0c.325,0,.355.127.354.4C-1942.309,841.058-1942.3,842.736-1942.3,844.415Zm-1.52.207v0c.112,0,.225,0,.337,0,.149,0,.3-.035.307-.215s-.139-.227-.292-.229c-.239,0-.478,0-.717,0-.139,0-.254.062-.263.216s.109.217.248.225S-1943.95,844.621-1943.824,844.621Z" transform="translate(-126.154 -200.582)" fill="#b2b1c2"/>
    <path id="Path_22122" data-name="Path 22122" d="M-2031.456,694.179q-3.432-2.56-6.864-5.12-2.907-2.171-5.807-4.352a.436.436,0,0,0-.62,0q-5.6,4.206-11.21,8.4c-.484.362-.973.715-1.46,1.073-.01-.492-.016-.985-.033-1.477-.008-.232.174-.307.315-.412q3.8-2.828,7.606-5.652c1.6-1.186,3.2-2.366,4.785-3.562a.425.425,0,0,1,.616,0q6.188,4.616,12.4,9.208a.654.654,0,0,1,.314.632C-2031.45,693.334-2031.445,693.757-2031.456,694.179Z" transform="translate(-27.918 -57.782)" fill="#cac9bc"/>
    <path id="Path_22123" data-name="Path 22123" d="M-1804.6,648.28a3.033,3.033,0,0,1-.672-.505c.3-.094.311-.248.088-.444a1.083,1.083,0,0,0-.237-.176,1.66,1.66,0,0,1-.927-1.85c.073-1.279.008-2.566.026-3.849.005-.375-.1-.574-.5-.509-.329.053-.4-.1-.393-.4.013-.906,0-.907.895-.907s1.805.008,2.708-.005c.239,0,.337.066.307.308a2.741,2.741,0,0,0,0,.338c0,.586,0,.6-.58.665-.32.037-.283.253-.283.464,0,2,0,4.006,0,6.009,0,.261.148.62-.341.644C-1804.6,648.063-1804.6,648.194-1804.6,648.28Z" transform="translate(-256.915 -18.148)" fill="#fdfcee"/>
    <path id="Path_22124" data-name="Path 22124" d="M-1882.859,900.591c-.126,0-.253.006-.379,0s-.257-.063-.248-.225.124-.212.263-.216c.239-.006.478-.005.717,0,.152,0,.3.051.291.229s-.158.211-.307.215c-.113,0-.225,0-.337,0Z" transform="translate(-187.119 -256.552)" fill="#23242e"/>
  </g>
</svg>
