<svg xmlns="http://www.w3.org/2000/svg" width="44.273" height="55.634" viewBox="0 0 44.273 55.634">
  <g id="Group_24325" data-name="Group 24325" transform="translate(8143.136 10426.517)">
    <g id="Group_24322" data-name="Group 24322" transform="translate(-8844.01 -10804.024)">
      <g id="Group_5286" data-name="Group 5286">
        <ellipse id="Ellipse_537" data-name="Ellipse 537" cx="21.976" cy="3.01" rx="21.976" ry="3.01" transform="translate(700.874 427.122)" opacity="0.15" style="mix-blend-mode: normal;isolation: isolate"/>
        <g id="Group_5285" data-name="Group 5285">
          <circle id="Ellipse_1136" data-name="Ellipse 1136" cx="10.5" cy="10.5" r="10.5" transform="translate(723.01 399.024)" fill="#5abe71"/>
          <path id="Path_11101" data-name="Path 11101" d="M718.635,377.509a16.029,16.029,0,0,1,15.887,13.327,15.717,15.717,0,0,1-.358,6.775c-.1.374.008.4.327.412a11.113,11.113,0,1,1-11.329,13.321,10.53,10.53,0,0,1-.222-2.083c0-.344-.062-.41-.414-.324a15.94,15.94,0,0,1-8.506-30.706A14.973,14.973,0,0,1,718.635,377.509Zm-.087,8.047a5.029,5.029,0,1,0,5.109,3.711A5.025,5.025,0,0,0,718.548,385.556Zm-5.969,21.065a.987.987,0,0,0,.137.091,14.531,14.531,0,0,0,10.107.769c.229-.064.257-.2.292-.384a10.9,10.9,0,0,1,2.735-5.477.355.355,0,0,0,.041-.5,7.885,7.885,0,0,0-3.883-3.5,7.675,7.675,0,0,0-4.549-.514,1.877,1.877,0,0,0-.25.016,8.087,8.087,0,0,0-6.556,8.25.314.314,0,0,0,.166.305A9.9,9.9,0,0,0,712.579,406.621Zm23.187,12.085a2.286,2.286,0,0,0,.333-.026,9.787,9.787,0,0,0,7.624-10.942,9.514,9.514,0,0,0-3.809-6.43,8.711,8.711,0,0,0-4.066-1.767,8.444,8.444,0,0,0-3.525-.021c-.125.015-.252.02-.374.047A9.74,9.74,0,0,0,724.334,410a9.539,9.539,0,0,0,4.649,7.47,7.877,7.877,0,0,0,3.349,1.24A7.987,7.987,0,0,0,735.766,418.706Zm-26.236-15.7a9.637,9.637,0,0,1,6.083-6.867,6.395,6.395,0,1,1,6.378.011,12.661,12.661,0,0,1,1.559.738,9.469,9.469,0,0,1,3.324,3.254c.1.173.175.345.43.142a11.626,11.626,0,0,1,3.432-1.807c.531-.119,1.059-.262,1.595-.347a.419.419,0,0,0,.4-.34,14.069,14.069,0,0,0,.381-7.168,14.559,14.559,0,0,0-7.7-10.19,11.165,11.165,0,0,0-3.5-1.23,13.617,13.617,0,0,0-6.468.056c-.124.021-.25.034-.371.066a14.6,14.6,0,0,0-10.808,15.258,14.4,14.4,0,0,0,2.95,7.723A11.369,11.369,0,0,0,709.3,404.5Z"/>
          <path id="Path_11102" data-name="Path 11102" d="M730.736,398.481a11.626,11.626,0,0,0-3.432,1.807c-.255.2-.325.031-.43-.142a9.469,9.469,0,0,0-3.324-3.254,12.661,12.661,0,0,0-1.559-.738,6.411,6.411,0,1,0-6.378-.011,9.637,9.637,0,0,0-6.083,6.867c-.348-.171-.5-.517-.707-.808a14.959,14.959,0,0,1-2.413-5.433,15.808,15.808,0,0,1-.357-2.6,4.027,4.027,0,0,1,.075-1.691.723.723,0,0,0,.822.245.788.788,0,0,0,.451-.737,11.458,11.458,0,0,1,.9-3.2c.259-.572.2-.924-.178-1.131s-.723-.038-1.037.524c-.006.012-.021.018-.032.027a1.159,1.159,0,0,1,.146-.559,16.282,16.282,0,0,1,1.16-2.265,15.289,15.289,0,0,1,5.852-5.446,4.212,4.212,0,0,0,1.228-.672,13.621,13.621,0,0,1,6.469-.056,1.308,1.308,0,0,0,.206.136,15.029,15.029,0,0,1,7.837,7.322,14.626,14.626,0,0,1,1.469,4.985,16.2,16.2,0,0,1-.166,4.729C731.124,397.093,730.842,397.764,730.736,398.481Zm-21.552-11.72a.7.7,0,0,0,.252-.1,3.31,3.31,0,0,0,.87-1.051.584.584,0,0,0-.236-.769.628.628,0,0,0-.813.038,3.426,3.426,0,0,0-.734.9A.676.676,0,0,0,709.184,386.761Z" fill="#fff"/>
          <path id="Path_11104" data-name="Path 11104" d="M717.459,397.1a7.675,7.675,0,0,1,4.549.514,7.885,7.885,0,0,1,3.883,3.5.355.355,0,0,1-.041.5,10.9,10.9,0,0,0-2.735,5.477c-.035.187-.063.32-.292.384a14.531,14.531,0,0,1-10.107-.769.987.987,0,0,1-.137-.091c.058-.9-.037-1.8.078-2.712a8.725,8.725,0,0,1,2.425-4.968,9.351,9.351,0,0,1,2.1-1.572C717.292,397.3,717.452,397.28,717.459,397.1Z" fill="#ffdc6c"/>
          <path id="Path_11105" data-name="Path 11105" d="M718.548,385.556a5.029,5.029,0,1,1-.335,10.016.317.317,0,0,0-.156-.231,6.349,6.349,0,0,1-.825-.7,5.847,5.847,0,0,1-1.547-4.206,5.663,5.663,0,0,1,1.542-3.736C717.624,386.26,718.116,385.946,718.548,385.556Z" fill="#ffdc6c"/>
          <path id="Path_11106" data-name="Path 11106" d="M715.437,379.262a4.212,4.212,0,0,1-1.228.672,15.289,15.289,0,0,0-5.852,5.446,16.282,16.282,0,0,0-1.16,2.265,1.159,1.159,0,0,0-.146.559V388.2c-.084.04-.09.113-.084.192a15.423,15.423,0,0,0-.722,2.4,3.272,3.272,0,0,0-.118,1.688,4.027,4.027,0,0,0-.075,1.691,15.808,15.808,0,0,0,.357,2.6,14.959,14.959,0,0,0,2.413,5.433c.208.291.359.637.707.808-.074.482-.149.965-.23,1.49a11.369,11.369,0,0,1-2.092-2.191,14.4,14.4,0,0,1-2.95-7.723,14.6,14.6,0,0,1,10.808-15.258C715.187,379.3,715.313,379.283,715.437,379.262Z" fill="#fff"/>
          <path id="Path_11107" data-name="Path 11107" d="M730.736,398.481c.106-.717.388-1.388.516-2.1a16.2,16.2,0,0,0,.166-4.729,14.626,14.626,0,0,0-1.469-4.985,15.029,15.029,0,0,0-7.837-7.322,1.308,1.308,0,0,1-.206-.136,11.168,11.168,0,0,1,3.5,1.23,14.559,14.559,0,0,1,7.7,10.19,14.069,14.069,0,0,1-.381,7.168.419.419,0,0,1-.4.34C731.795,398.219,731.267,398.362,730.736,398.481Z" fill="#fff"/>
          <path id="Path_11110" data-name="Path 11110" d="M718.548,385.556c-.432.39-.924.7-1.321,1.14a5.663,5.663,0,0,0-1.542,3.736,5.847,5.847,0,0,0,1.547,4.206,6.349,6.349,0,0,0,.825.7.317.317,0,0,1,.156.231,5.027,5.027,0,0,1,.335-10.016Z" fill="#ffe8a9"/>
          <path id="Path_11111" data-name="Path 11111" d="M717.459,397.1c-.007.181-.167.2-.282.27a9.351,9.351,0,0,0-2.1,1.572,8.725,8.725,0,0,0-2.425,4.968c-.115.907-.02,1.809-.078,2.712a9.9,9.9,0,0,1-1.76-.951.314.314,0,0,1-.166-.305,8.087,8.087,0,0,1,6.556-8.25A1.877,1.877,0,0,1,717.459,397.1Z" fill="#ffe8a9"/>
          <path id="Path_11112" data-name="Path 11112" d="M706.128,392.479a3.272,3.272,0,0,1,.118-1.688,15.423,15.423,0,0,1,.722-2.4.22.22,0,0,0,.084-.192v.006c.011-.009.026-.015.032-.027.314-.562.653-.734,1.037-.524s.437.559.178,1.131a11.458,11.458,0,0,0-.9,3.2.788.788,0,0,1-.451.737A.723.723,0,0,1,706.128,392.479Z"/>
          <path id="Path_11113" data-name="Path 11113" d="M709.184,386.761a.676.676,0,0,1-.661-.974,3.426,3.426,0,0,1,.734-.9.628.628,0,0,1,.813-.038.584.584,0,0,1,.236.769,3.31,3.31,0,0,1-.87,1.051A.7.7,0,0,1,709.184,386.761Z"/>
          <path id="Path_11114" data-name="Path 11114" d="M707.052,388.2a.22.22,0,0,1-.084.192C706.962,388.311,706.968,388.238,707.052,388.2Z" fill="#5fccfe"/>
        </g>
      </g>
    </g>
    <g id="_2bst7O.tif" data-name="2bst7O.tif" transform="translate(-7845.35 -10967.802)">
      <g id="Group_24324" data-name="Group 24324" transform="translate(-269.578 565.996)">
        <path id="Path_22551" data-name="Path 22551" d="M-259.6,566c.02.179.046.355.057.532a5.8,5.8,0,0,1-.372,2.481,5.347,5.347,0,0,1-2,2.56c-.117.08-.24.152-.363.223a1.661,1.661,0,0,0-.529.463.987.987,0,0,0,.117,1.328,1.86,1.86,0,0,0,.4.311,5.372,5.372,0,0,1,2.553,3.318,5.775,5.775,0,0,1,.071,2.873c-.013.06-.035.08-.1.08q-3.715,0-7.429,0-1.07,0-2.139,0c-.06,0-.082-.016-.095-.075a5.917,5.917,0,0,1-.126-1.787,5.675,5.675,0,0,1,1.119-2.982A5.1,5.1,0,0,1-266.8,573.9a1.294,1.294,0,0,0,.649-.707.992.992,0,0,0-.259-1.076,1.736,1.736,0,0,0-.387-.3,5.267,5.267,0,0,1-2.037-2.039,5.723,5.723,0,0,1-.715-2.277,5.833,5.833,0,0,1,.039-1.455c.009-.057.043-.047.077-.047h9.771C-259.644,566-259.625,566-259.6,566ZM-268.6,579.2h8.093c.006-.088.014-.172.017-.255a4.828,4.828,0,0,0-.331-1.944,4.244,4.244,0,0,0-1.907-2.234,2.625,2.625,0,0,1-.695-.547,1.924,1.924,0,0,1-.45-1.951,2.218,2.218,0,0,1,1.087-1.28,4.354,4.354,0,0,0,1.576-1.5,4.779,4.779,0,0,0,.706-2.147c.011-.123.013-.247.02-.371h-8.124c0,.024,0,.043,0,.062A4.841,4.841,0,0,0-268,569.29a4.2,4.2,0,0,0,1.646,1.662,2.578,2.578,0,0,1,.626.472,1.955,1.955,0,0,1,.539,1.925,2.183,2.183,0,0,1-1.127,1.383,4.281,4.281,0,0,0-1.645,1.615,4.8,4.8,0,0,0-.646,2.3C-268.616,578.827-268.605,579.009-268.6,579.2Z" transform="translate(269.578 -565.997)"/>
        <path id="Path_22552" data-name="Path 22552" d="M-261.7,586.148c0-.186-.014-.369-.008-.551a4.8,4.8,0,0,1,.646-2.3,4.281,4.281,0,0,1,1.645-1.615,2.183,2.183,0,0,0,1.127-1.383,1.955,1.955,0,0,0-.539-1.925,2.577,2.577,0,0,0-.626-.472,4.2,4.2,0,0,1-1.646-1.662,4.84,4.84,0,0,1-.606-2.258c0-.019,0-.038,0-.061h8.123c-.006.124-.009.248-.02.371a4.779,4.779,0,0,1-.706,2.147,4.354,4.354,0,0,1-1.576,1.5,2.217,2.217,0,0,0-1.087,1.28,1.924,1.924,0,0,0,.45,1.951,2.626,2.626,0,0,0,.695.547,4.243,4.243,0,0,1,1.907,2.234,4.829,4.829,0,0,1,.331,1.944c0,.084-.011.167-.017.255Zm7.1-.966c-.007-.045-.011-.083-.018-.121a3.732,3.732,0,0,0-.815-1.785.15.15,0,0,0-.1-.048q-2.11,0-4.221,0a.13.13,0,0,0-.11.052,3.648,3.648,0,0,0-.78,1.561c-.026.111-.044.225-.067.344Zm-.676-9.045h-4.752a.18.18,0,0,0,.012.025,3,3,0,0,0,1,.888,3.4,3.4,0,0,1,1.324,1.238c.012.019.025.037.039.057l.016-.019.038-.061a3.3,3.3,0,0,1,1.229-1.174,3.224,3.224,0,0,0,.864-.679C-255.423,576.326-255.353,576.234-255.272,576.136Z" transform="translate(262.676 -572.95)" fill="#fff"/>
        <path id="Path_22553" data-name="Path 22553" d="M-247.449,651.618h-6.113c.023-.119.041-.232.067-.344a3.647,3.647,0,0,1,.78-1.561.13.13,0,0,1,.11-.052q2.11,0,4.221,0a.15.15,0,0,1,.1.048,3.732,3.732,0,0,1,.815,1.785C-247.461,651.535-247.456,651.573-247.449,651.618Z" transform="translate(255.529 -639.386)" fill="#467fb1"/>
        <path id="Path_22554" data-name="Path 22554" d="M-243.237,591.945c-.081.1-.151.189-.227.274a3.223,3.223,0,0,1-.864.679,3.3,3.3,0,0,0-1.23,1.174l-.038.061s-.006.007-.016.019c-.014-.02-.027-.038-.039-.057a3.4,3.4,0,0,0-1.324-1.238,3,3,0,0,1-1-.888.171.171,0,0,1-.012-.025Z" transform="translate(250.64 -588.758)" fill="#467fb1"/>
      </g>
    </g>
  </g>
</svg>
