<svg xmlns="http://www.w3.org/2000/svg" width="21.091" height="17.099" viewBox="0 0 21.091 17.099">
  <g id="psacEr.tif" transform="translate(-329.99 -193.464)">
    <g id="Group_49475" data-name="Group 49475" transform="translate(329.99 193.464)">
      <path id="Path_33082" data-name="Path 33082" d="M336.468,208.176q-4.055,0-8.11,0c-1.426,0-1.879-.455-1.892-1.86a17.622,17.622,0,0,1,.007-2.052c.305-2.807-.5-5.545-.483-8.332.012-1.521.378-1.886,1.929-1.891,1.117,0,2.236-.035,3.351.012.636.027.846-.211.767-.806a3.84,3.84,0,0,1,0-.54c.011-1.271.336-1.615,1.572-1.621q2.757-.012,5.515,0c1.319,0,1.691.323,1.6,1.673-.069,1.028.2,1.405,1.276,1.3a31.1,31.1,0,0,1,3.35-.02c1.194.017,1.633.454,1.65,1.621a8.4,8.4,0,0,1-.033,2.475c-.867,2.832-.226,5.712-.438,8.558-.075,1-.6,1.472-1.734,1.477C342.019,208.183,339.244,208.176,336.468,208.176Zm.021-.464c2.7,0,5.4.005,8.1,0,1.127,0,1.478-.34,1.488-1.482.019-2.015-.033-4.032.022-6.047.026-.941-.356-.989-1.1-.789q-3.228.859-6.478,1.636c-.595.141-.864.384-.821,1.016.06.87-.537.957-1.217.96-.7,0-1.256-.133-1.191-.988.043-.573-.179-.835-.738-.97-2.257-.545-4.507-1.123-6.756-1.7-.652-.168-.914.006-.9.719.032,2.051-.005,4.1.015,6.155.012,1.185.359,1.494,1.585,1.5Q332.492,207.718,336.49,207.712Zm0-13.193q-4.322,0-8.645,0c-.508,0-1.136-.069-1.284.531a11.446,11.446,0,0,0-.071,3.22c.013.311.335.318.579.38q3.71.944,7.418,1.9c.424.109.653.084.882-.424a1.385,1.385,0,0,1,2.248.009c.26.634.585.482.994.378,1.812-.459,3.621-.928,5.433-1.385,2.53-.637,2.5-.634,2.507-3.228,0-1.034-.4-1.405-1.415-1.392C342.257,194.543,339.375,194.519,336.494,194.519Zm-.069-2.972h-2.263c-1.621,0-1.763.153-1.657,1.811.017.262-.107.658.327.659s.366-.389.342-.655c-.075-.828.325-1.053,1.092-1.025,1.22.046,2.442.019,3.664.01.9-.007,1.924-.2,1.689,1.288a.3.3,0,0,0,.283.38c.092.005.254-.043.271-.1a3.816,3.816,0,0,0,.042-1.906c-.1-.448-.58-.464-.987-.464Q337.826,191.549,336.425,191.548Zm.039,1.269c-.683,0-1.366.011-2.048,0-.426-.009-.762-.026-.734.593.023.523.2.67.7.658,1.329-.03,2.659-.024,3.988,0,.464.008.729-.058.743-.624s-.244-.648-.713-.628C337.758,192.837,337.11,192.816,336.464,192.816Zm.783,8.535c-.062-.575.274-1.3-.8-1.267-1.025.034-.663.742-.678,1.226-.017.54-.3,1.268.778,1.236C337.578,202.514,337.128,201.789,337.246,201.351Z" transform="translate(-325.99 -191.079)" fill="#0f0c09"/>
      <path id="Path_33083" data-name="Path 33083" d="M339.734,237.148q-4,0-7.994,0c-1.226,0-1.573-.311-1.585-1.5-.02-2.051.017-4.1-.016-6.155-.011-.712.25-.887.9-.719,2.249.581,4.5,1.159,6.756,1.7.559.135.781.4.738.97-.065.855.494.992,1.191.988.68,0,1.277-.091,1.217-.96-.043-.632.226-.875.821-1.016q3.251-.77,6.478-1.636c.749-.2,1.131-.152,1.1.789-.056,2.014,0,4.031-.022,6.047-.011,1.142-.361,1.478-1.489,1.482C345.135,237.153,342.434,237.148,339.734,237.148Z" transform="translate(-329.234 -220.515)" fill="#994c01"/>
      <path id="Path_33084" data-name="Path 33084" d="M338.017,206.818c2.882,0,5.763.023,8.644-.013,1.012-.013,1.419.359,1.415,1.392-.008,2.594.023,2.59-2.507,3.228-1.812.457-3.621.926-5.433,1.385-.408.1-.733.256-.994-.378a1.385,1.385,0,0,0-2.248-.009c-.23.508-.458.533-.882.424q-3.707-.955-7.418-1.9c-.243-.062-.566-.069-.579-.38a11.444,11.444,0,0,1,.071-3.22c.148-.6.776-.531,1.284-.531Q333.695,206.819,338.017,206.818Z" transform="translate(-327.513 -203.377)" fill="#b8632b"/>
      <path id="Path_33085" data-name="Path 33085" d="M359.707,193.228q1.4,0,2.8,0c.407,0,.889.016.987.464a3.817,3.817,0,0,1-.042,1.906c-.017.057-.179.105-.271.1a.3.3,0,0,1-.283-.38c.235-1.487-.787-1.295-1.689-1.288-1.221.009-2.444.036-3.664-.01-.767-.029-1.166.2-1.092,1.025.024.267.078.656-.342.655s-.311-.4-.327-.659c-.105-1.659.036-1.811,1.657-1.811Z" transform="translate(-349.272 -192.76)" fill="#994c01"/>
      <path id="Path_33086" data-name="Path 33086" d="M372.154,233.658c-.119.438.332,1.163-.7,1.194-1.074.032-.8-.7-.778-1.236.015-.483-.347-1.192.678-1.226C372.428,232.356,372.093,233.083,372.154,233.658Z" transform="translate(-360.898 -223.386)" fill="#c4c4c4"/>
    </g>
  </g>
</svg>
