<svg xmlns="http://www.w3.org/2000/svg" width="31.939" height="32.575" viewBox="0 0 31.939 32.575">
  <g id="CTUM37.tif" transform="translate(1688.171 -438.977)">
    <g id="Group_24135" data-name="Group 24135" transform="translate(-1688.171 438.977)">
      <path id="Path_22060" data-name="Path 22060" d="M-1667.422,444.457a4.29,4.29,0,0,1,1.842-4.836,4.391,4.391,0,0,1,4.937.244,3.969,3.969,0,0,1,1.451,2.056c.1.351.248.438.574.3a4.479,4.479,0,0,1,.53-.155c1.262-.36,1.853.076,1.853,1.39q.005,8.376,0,16.753,0,3.531,0,7.061c0,1-.219,1.3-1.186,1.585-2.936.87-5.876,1.722-8.809,2.6a2.255,2.255,0,0,1-1.349-.012c-3.156-.937-6.318-1.854-9.473-2.793a1.54,1.54,0,0,0-.936,0q-4.136,1.235-8.28,2.44c-1.3.38-1.9-.063-1.9-1.4q0-11.907,0-23.814c0-.969.247-1.3,1.127-1.562,2.917-.854,5.837-1.694,8.746-2.571a2.649,2.649,0,0,1,1.611.018c2.932.881,5.873,1.732,8.812,2.592C-1667.745,444.39-1667.614,444.413-1667.422,444.457Zm-10.09,23.044c.333.087.669.167,1,.263q4.733,1.38,9.465,2.765c.435.148.32-.2.323-.386.011-.945,0-1.891.009-2.837,0-.168-.069-.442.193-.433.239.009.186.277.187.452,0,.807.03,1.616-.007,2.421-.025.548.112.667.658.5q3.832-1.167,7.687-2.256a.845.845,0,0,0,.749-.981q-.033-11.659-.015-23.318c0-.161.008-.324-.008-.484a.379.379,0,0,0-.094-.243,2.647,2.647,0,0,0-1.618.64,6.724,6.724,0,0,1-1.676,3.129,8.45,8.45,0,0,0-1.63,3.019c-.1.378-.167.765-.275,1.14a.7.7,0,0,1-.726.53.7.7,0,0,1-.722-.534c-.091-.308-.139-.628-.22-.94a9,9,0,0,0-2.635-4.263c-1.984-.583-3.964-1.184-5.954-1.744-1.567-.441-3.1-1-4.7-1.312-.278.149-.142.411-.147.618-.019.715,0,1.43-.011,2.145,0,.167.063.428-.213.415-.208-.01-.167-.241-.168-.395,0-.692-.034-1.386.008-2.076.033-.553-.148-.588-.625-.443q-3.932,1.194-7.883,2.324a.665.665,0,0,0-.59.756q.018,11.835,0,23.669c0,.538.164.618.654.471q3.968-1.2,7.951-2.339a.57.57,0,0,0,.49-.672c-.025-1.13-.01-2.261-.006-3.391,0-.152-.047-.384.16-.4.281-.025.219.239.22.4.007,1.061-.005,2.122.012,3.183C-1677.669,467.1-1677.819,467.37-1677.512,467.5Zm14.135-16.9a.319.319,0,0,0,.24-.312,8.29,8.29,0,0,1,1.708-3.731c.418-.55.848-1.1,1.221-1.676a2.949,2.949,0,0,0,.485-2.174,3.6,3.6,0,0,0-2.838-2.953,3.63,3.63,0,0,0-3.739,1.544,3.265,3.265,0,0,0,.211,3.989C-1664.888,446.913-1663.595,448.474-1663.377,450.6Z" transform="translate(1688.171 -438.977)"/>
      <path id="Path_22061" data-name="Path 22061" d="M-1601.2,493.192q-4.732-1.383-9.465-2.765c-.331-.1-.666-.176-1-.263q0-2.317-.009-4.635c.237-.017.552.08.616-.261.07-.375-.251-.42-.515-.492a.432.432,0,0,1-.112-.073q-.007-2.862-.014-5.724a4.229,4.229,0,0,0-.005-5.06l.025-8.625c1.6.312,3.137.872,4.7,1.313,1.991.56,3.97,1.161,5.954,1.744q-.011,3.7-.022,7.4c-.478-.535-1.177-.419-1.776-.6-.139-.041-.254.077-.329.2a.3.3,0,0,0,.064.376,2.5,2.5,0,0,0,2.035.156l.024,11.508c-.325-.011-.792-.335-.906.2-.1.475.442.387.714.527a1.166,1.166,0,0,0,.193.06c0,1.439.005,2.879,0,4.318C-1601.021,492.739-1600.962,493.006-1601.2,493.192Zm-1.56-12.911c-.225-.045-.427-.017-.5.238s.064.391.3.453c.422.113.842.23,1.266.339a.358.358,0,0,0,.478-.276c.054-.212-.086-.349-.282-.406C-1601.917,480.507-1602.339,480.4-1602.761,480.281Zm-2.935-.8c-.162.034-.308.085-.34.281a.342.342,0,0,0,.2.395,5.36,5.36,0,0,0,1.444.431.312.312,0,0,0,.373-.232.3.3,0,0,0-.167-.4C-1604.681,479.783-1605.187,479.638-1605.7,479.481Zm.309-4.925c-.351-.042-.548.007-.6.261a.343.343,0,0,0,.292.4c.443.117.891.215,1.341.3a.333.333,0,0,0,.426-.252c.06-.248-.068-.392-.305-.448Zm-1.139,4.339c-.274-.446-.571-.953-.9-1.44-.083-.124-.252-.062-.37.03a.315.315,0,0,0-.123.365,3.471,3.471,0,0,0,.8,1.347.356.356,0,0,0,.442.06C-1606.566,479.2-1606.533,479.088-1606.526,478.894Zm-1.553-2.8c-.029.27-.025.487.235.549a.348.348,0,0,0,.446-.312,1.687,1.687,0,0,1,.575-.909.339.339,0,0,0,.068-.491.363.363,0,0,0-.549-.031A2.017,2.017,0,0,0-1608.079,476.1Zm2,10.791c.357.053.536,0,.606-.2a.329.329,0,0,0-.234-.436c-.46-.134-.928-.24-1.4-.338a.318.318,0,0,0-.417.253.34.34,0,0,0,.267.418C-1606.816,486.714-1606.37,486.817-1606.079,486.89Zm-2.746-.686c.325.041.522-.009.57-.262a.345.345,0,0,0-.291-.4q-.66-.178-1.331-.316c-.189-.039-.375,0-.426.236a.339.339,0,0,0,.247.429C-1609.619,486.016-1609.173,486.117-1608.825,486.2Zm5.652,1.414c.244,0,.455-.008.495-.284a.347.347,0,0,0-.292-.4q-.663-.176-1.335-.317a.336.336,0,0,0-.43.245.335.335,0,0,0,.258.423C-1604.039,487.412-1603.592,487.512-1603.173,487.618Z" transform="translate(1622.325 -461.639)" fill="#fdf4ad"/>
      <path id="Path_22062" data-name="Path 22062" d="M-1536.072,495.129c.239-.186.18-.452.18-.7,0-1.439,0-2.879,0-4.318a1.305,1.305,0,0,0,.732-.04c.227-.08.443-.177.387-.467s-.271-.323-.523-.251a.8.8,0,0,1-.6-.025q-.012-5.754-.024-11.508c-.011-.014-.035-.031-.032-.042a.58.58,0,0,1,.038-.1q.011-3.7.022-7.4a9,9,0,0,1,2.635,4.263c.081.311.129.632.22.94a.7.7,0,0,0,.722.534.7.7,0,0,0,.727-.53c.107-.375.174-.763.275-1.14a8.449,8.449,0,0,1,1.63-3.019,6.725,6.725,0,0,0,1.676-3.129,2.646,2.646,0,0,1,1.618-.64.378.378,0,0,1,.094.243c.015.16.008.323.008.484q0,11.659.015,23.318a.844.844,0,0,1-.748.981q-3.857,1.081-7.687,2.256c-.546.166-.684.048-.658-.5.037-.806.012-1.614.007-2.421,0-.175.052-.443-.187-.452-.262-.01-.192.265-.193.433-.007.946,0,1.891-.009,2.837C-1535.752,494.933-1535.637,495.278-1536.072,495.129Zm.322-8.734c0,.6,0,1.192,0,1.787,0,.153-.017.362.217.343.164-.013.178-.186.178-.326q0-1.753,0-3.506c0-.16-.013-.365-.228-.341s-.168.24-.169.393C-1535.754,485.3-1535.751,485.846-1535.75,486.4Zm0-12.029c0,.6,0,1.192,0,1.787,0,.138,0,.306.176.323s.217-.143.217-.282q0-1.822,0-3.643c0-.126-.064-.248-.183-.256-.179-.013-.208.141-.209.284C-1535.75,473.175-1535.749,473.771-1535.75,474.366Zm3.745,14.461c-.01-.23-.175-.373-.358-.329-.512.123-1.014.292-1.513.463a.292.292,0,0,0-.185.337.318.318,0,0,0,.336.291,5.928,5.928,0,0,0,1.576-.47A.291.291,0,0,0-1532,488.827Zm3.713-5.115a2.529,2.529,0,0,0-1.12-1.494.322.322,0,0,0-.351.157.341.341,0,0,0,.046.445,3.708,3.708,0,0,1,.772,1.046.313.313,0,0,0,.413.151A.338.338,0,0,0-1528.292,483.712Zm.141,1.627c.027-.27.008-.5-.3-.54-.254-.03-.35.134-.41.364-.1.4-.245.785-.361,1.179a.344.344,0,0,0,.192.458.333.333,0,0,0,.458-.182A4.362,4.362,0,0,0-1528.15,485.339Zm-6.508-7.446c.367-.052.774-.1,1.177-.173.217-.039.395-.164.35-.42s-.252-.307-.472-.28c-.407.05-.812.117-1.218.174-.229.032-.4.133-.383.389C-1535.178,477.9-1534.939,477.907-1534.658,477.892Zm5.25,9.711c-.049-.2-.213-.394-.424-.284a9.843,9.843,0,0,0-1.382.875c-.19.143-.133.381.1.5C-1530.766,488.866-1529.408,488.017-1529.408,487.6Zm-5.41-4.451c.355-.083.779-.175,1.2-.283.216-.056.389-.188.328-.439s-.274-.292-.492-.247c-.425.087-.847.186-1.267.292a.349.349,0,0,0-.281.466C-1535.271,483.158-1535.082,483.182-1534.818,483.153Zm3.523-1.53c-.237.046-.577.1-.912.18-.217.052-.395.182-.34.438s.278.275.495.246c.3-.041.59-.1.887-.138.273-.038.69.116.676-.353C-1530.5,481.567-1530.9,481.656-1531.295,481.623Zm-4.057-1.166c0-.484,0-.967,0-1.451,0-.144-.039-.306-.207-.3s-.187.174-.187.315q0,1.416,0,2.832c0,.143.029.31.2.3s.195-.171.2-.316C-1535.351,481.378-1535.352,480.917-1535.352,480.457Zm3.617-2.983c.222-.086.715.08.763-.447a.352.352,0,0,0-.494-.326c-.315.1-.822-.077-.865.462C-1532.356,477.458-1532.088,477.507-1531.736,477.474Z" transform="translate(1557.196 -463.577)" fill="#f8bd81"/>
      <path id="Path_22063" data-name="Path 22063" d="M-1671.248,478.979q.007,2.862.014,5.724a2.391,2.391,0,0,0-1.082.144c-.213.059-.388.185-.337.441s.272.267.489.247c.313-.03.626-.188.941-.006q0,2.317.009,4.635c-.306-.13-.157-.4-.16-.6-.017-1.061,0-2.122-.012-3.183,0-.165.061-.428-.22-.4-.207.018-.159.25-.16.4,0,1.13-.019,2.261.006,3.391a.57.57,0,0,1-.49.672q-3.983,1.143-7.952,2.339c-.49.148-.655.067-.654-.471q.017-11.834,0-23.669a.665.665,0,0,1,.59-.756q3.951-1.129,7.883-2.324c.477-.145.658-.11.625.443-.041.69-.012,1.384-.008,2.076,0,.154-.039.385.168.395.275.013.211-.248.213-.415.008-.715-.008-1.43.011-2.145.005-.207-.131-.469.147-.618q-.013,4.313-.025,8.625c-.18-.176-.356-.358-.542-.528a4.342,4.342,0,0,0-7.007,1.786,4.16,4.16,0,0,0,.907,4.119,9.687,9.687,0,0,1,2.41,4.731.731.731,0,0,0,.816.679.758.758,0,0,0,.749-.76A9.9,9.9,0,0,1-1671.248,478.979Zm-.131-7.741c0-.438,0-.876,0-1.314,0-.124-.048-.254-.17-.267-.176-.019-.22.133-.221.275q-.006,1.279,0,2.558c0,.117.029.249.167.263.185.02.223-.129.225-.271C-1671.374,472.067-1671.378,471.652-1671.379,471.237Zm0,10.969c0-.415,0-.829,0-1.244,0-.143-.031-.307-.2-.3s-.193.17-.193.312q0,1.243,0,2.487c0,.119.034.249.168.263.181.018.222-.13.224-.272C-1671.374,483.036-1671.378,482.621-1671.377,482.207Zm-2.887,3.861c.26-.125.738.018.845-.467a.291.291,0,0,0-.374-.359c-.358.077-.853-.014-.948.5C-1674.786,485.987-1674.566,486.1-1674.264,486.068Z" transform="translate(1681.873 -461.639)" fill="#f7bc80"/>
      <path id="Path_22064" data-name="Path 22064" d="M-1531.378,454.992c-.218-2.127-1.511-3.689-2.712-5.313a3.265,3.265,0,0,1-.211-3.989,3.63,3.63,0,0,1,3.739-1.544,3.6,3.6,0,0,1,2.838,2.953,2.948,2.948,0,0,1-.485,2.174c-.373.581-.8,1.126-1.221,1.676a8.289,8.289,0,0,0-1.709,3.731A.319.319,0,0,1-1531.378,454.992Zm.042-5.609a2.169,2.169,0,0,0,2.136-2.161,2.223,2.223,0,0,0-2.144-2.107,2.2,2.2,0,0,0-2.13,2.115A2.153,2.153,0,0,0-1531.336,449.383Z" transform="translate(1556.172 -443.366)" fill="#ec4e64"/>
      <path id="Path_22065" data-name="Path 22065" d="M-1659.848,522.242a9.9,9.9,0,0,0-2.671,4.967.758.758,0,0,1-.749.76.731.731,0,0,1-.817-.679,9.684,9.684,0,0,0-2.41-4.731,4.161,4.161,0,0,1-.907-4.119,4.342,4.342,0,0,1,7.007-1.786c.186.17.361.352.542.528A4.23,4.23,0,0,1-1659.848,522.242Zm-3.46,4.931a10.872,10.872,0,0,1,2.7-5.164c.1-.125.184-.265.273-.4a3.177,3.177,0,0,0,.029-3.752,3.409,3.409,0,0,0-3.66-1.529,3.369,3.369,0,0,0-2.789,2.47,3.587,3.587,0,0,0,.959,3.5A10.368,10.368,0,0,1-1663.308,527.172Z" transform="translate(1670.473 -504.902)"/>
      <path id="Path_22066" data-name="Path 22066" d="M-1550.5,573.1c.421.115.844.226,1.263.348.2.057.335.194.282.406a.358.358,0,0,1-.478.276c-.423-.108-.844-.226-1.266-.339-.235-.063-.367-.2-.3-.453S-1550.725,573.051-1550.5,573.1Z" transform="translate(1570.064 -554.454)"/>
      <path id="Path_22067" data-name="Path 22067" d="M-1548.247,536.8a.56.56,0,0,0-.038.1c0,.011.021.028.032.042a2.5,2.5,0,0,1-2.034-.156.3.3,0,0,1-.064-.376c.075-.127.19-.245.329-.2C-1549.424,536.379-1548.724,536.263-1548.247,536.8Z" transform="translate(1569.529 -522.69)"/>
      <path id="Path_22068" data-name="Path 22068" d="M-1570.582,567.443c.509.158,1.015.3,1.51.475a.3.3,0,0,1,.167.4.312.312,0,0,1-.373.232,5.358,5.358,0,0,1-1.444-.431.342.342,0,0,1-.2-.395C-1570.891,567.528-1570.744,567.477-1570.582,567.443Z" transform="translate(1587.211 -549.601)"/>
      <path id="Path_22069" data-name="Path 22069" d="M-1569.984,531.9l1.153.27c.237.056.366.2.305.448a.333.333,0,0,1-.426.252c-.45-.089-.9-.186-1.341-.3a.343.343,0,0,1-.292-.405C-1570.531,531.905-1570.334,531.856-1569.984,531.9Z" transform="translate(1586.922 -518.981)"/>
      <path id="Path_22070" data-name="Path 22070" d="M-1620.409,605.737c-.315-.182-.628-.023-.941.006-.217.021-.435.023-.489-.247s.124-.383.337-.441a2.39,2.39,0,0,1,1.082-.144.432.432,0,0,0,.112.073c.264.071.585.116.515.492C-1619.857,605.817-1620.172,605.72-1620.409,605.737Z" transform="translate(1631.059 -581.848)"/>
      <path id="Path_22071" data-name="Path 22071" d="M-1540.5,623.744a.8.8,0,0,0,.6.025c.252-.072.467-.043.524.251s-.161.387-.387.467a1.307,1.307,0,0,1-.732.04,1.161,1.161,0,0,1-.193-.06c-.272-.14-.816-.052-.714-.527C-1541.289,623.409-1540.822,623.733-1540.5,623.744Z" transform="translate(1561.797 -597.99)"/>
      <path id="Path_22072" data-name="Path 22072" d="M-1583.144,553.863c-.008.193-.04.306-.152.362a.356.356,0,0,1-.442-.06,3.472,3.472,0,0,1-.8-1.347.315.315,0,0,1,.123-.365c.118-.092.287-.154.37-.03C-1583.715,552.91-1583.418,553.417-1583.144,553.863Z" transform="translate(1598.943 -536.608)"/>
      <path id="Path_22073" data-name="Path 22073" d="M-1585.667,535.009a2.016,2.016,0,0,1,.776-1.194.363.363,0,0,1,.549.031.339.339,0,0,1-.068.491,1.686,1.686,0,0,0-.575.909.349.349,0,0,1-.446.312C-1585.692,535.5-1585.7,535.279-1585.667,535.009Z" transform="translate(1599.913 -520.549)"/>
      <path id="Path_22074" data-name="Path 22074" d="M-1580.2,614.7c-.291-.073-.737-.176-1.176-.3a.34.34,0,0,1-.268-.418.318.318,0,0,1,.417-.253c.469.1.938.2,1.4.338a.329.329,0,0,1,.234.436C-1579.665,614.7-1579.844,614.753-1580.2,614.7Z" transform="translate(1596.447 -589.449)"/>
      <path id="Path_22075" data-name="Path 22075" d="M-1600.209,609.7c-.348-.088-.794-.188-1.231-.316a.339.339,0,0,1-.248-.429c.052-.231.237-.274.426-.236q.67.137,1.332.316a.345.345,0,0,1,.291.4C-1599.688,609.688-1599.884,609.738-1600.209,609.7Z" transform="translate(1613.709 -585.132)"/>
      <path id="Path_22076" data-name="Path 22076" d="M-1560.046,619.738c-.419-.106-.866-.206-1.3-.336a.335.335,0,0,1-.258-.423.336.336,0,0,1,.43-.245q.671.141,1.335.317a.347.347,0,0,1,.292.4C-1559.591,619.731-1559.8,619.738-1560.046,619.738Z" transform="translate(1579.197 -593.759)"/>
      <path id="Path_22077" data-name="Path 22077" d="M-1533.768,590.6c0-.55,0-1.1,0-1.65,0-.153-.044-.37.169-.393s.227.182.227.341q0,1.753,0,3.506c0,.14-.015.313-.179.326-.234.019-.216-.19-.217-.343C-1533.77,591.793-1533.767,591.2-1533.768,590.6Z" transform="translate(1555.213 -567.783)"/>
      <path id="Path_22078" data-name="Path 22078" d="M-1533.75,503.819c0-.6,0-1.192,0-1.787,0-.143.03-.3.209-.284.118.009.183.13.183.256q0,1.822,0,3.643c0,.139-.04.3-.217.282s-.176-.185-.176-.323C-1533.752,505.011-1533.751,504.415-1533.75,503.819Z" transform="translate(1555.197 -493.03)"/>
      <path id="Path_22079" data-name="Path 22079" d="M-1519.568,618.7a.292.292,0,0,1-.145.292,5.928,5.928,0,0,1-1.576.47.318.318,0,0,1-.336-.291.291.291,0,0,1,.185-.337c.5-.171,1-.34,1.513-.463C-1519.743,618.326-1519.578,618.469-1519.568,618.7Z" transform="translate(1544.759 -593.449)"/>
      <path id="Path_22080" data-name="Path 22080" d="M-1489.552,574.651a.339.339,0,0,1-.24.3.313.313,0,0,1-.413-.151,3.708,3.708,0,0,0-.772-1.046.341.341,0,0,1-.046-.445.322.322,0,0,1,.35-.157A2.529,2.529,0,0,1-1489.552,574.651Z" transform="translate(1518.456 -554.516)"/>
      <path id="Path_22081" data-name="Path 22081" d="M-1485.817,592.3a4.369,4.369,0,0,1-.421,1.278.333.333,0,0,1-.458.182.343.343,0,0,1-.192-.458c.116-.394.257-.782.361-1.179.06-.229.156-.394.41-.364C-1485.809,591.794-1485.79,592.027-1485.817,592.3Z" transform="translate(1514.863 -570.535)"/>
      <path id="Path_22082" data-name="Path 22082" d="M-1529.277,536.6c-.281.015-.52,0-.545-.31-.02-.255.153-.356.383-.389.406-.057.811-.124,1.218-.174.22-.027.427.024.472.28s-.133.381-.35.42C-1528.5,536.5-1528.91,536.547-1529.277,536.6Z" transform="translate(1551.815 -522.284)"/>
      <path id="Path_22083" data-name="Path 22083" d="M-1499.99,610.02c0,.414-1.358,1.263-1.7,1.091-.236-.118-.293-.356-.1-.5a9.841,9.841,0,0,1,1.382-.875C-1500.2,609.626-1500.039,609.82-1499.99,610.02Z" transform="translate(1527.778 -585.993)"/>
      <path id="Path_22084" data-name="Path 22084" d="M-1530.339,573.824c-.264.029-.453,0-.513-.212a.349.349,0,0,1,.281-.466c.42-.106.842-.2,1.267-.292.217-.044.432,0,.492.247s-.113.383-.328.439C-1529.56,573.65-1529.983,573.741-1530.339,573.824Z" transform="translate(1552.716 -554.248)"/>
      <path id="Path_22085" data-name="Path 22085" d="M-1509.5,568.914c.4.033.792-.056.8.373.015.469-.4.315-.676.353-.3.042-.59.1-.887.138-.216.03-.438.019-.495-.246s.124-.386.34-.438C-1510.076,569.014-1509.736,568.96-1509.5,568.914Z" transform="translate(1535.4 -550.868)"/>
      <path id="Path_22086" data-name="Path 22086" d="M-1533.351,549.654c0,.461,0,.921,0,1.382,0,.145-.034.309-.2.316s-.2-.16-.2-.3q0-1.416,0-2.832c0-.14.015-.31.188-.315s.206.158.207.3C-1533.349,548.687-1533.351,549.17-1533.351,549.654Z" transform="translate(1555.195 -532.774)"/>
      <path id="Path_22087" data-name="Path 22087" d="M-1508.558,534.128c-.352.032-.621-.016-.6-.31.043-.539.55-.367.865-.462a.353.353,0,0,1,.495.326C-1507.843,534.208-1508.336,534.043-1508.558,534.128Z" transform="translate(1534.018 -520.231)"/>
      <path id="Path_22088" data-name="Path 22088" d="M-1615.058,498.277c0,.415,0,.83,0,1.245,0,.142-.04.291-.225.271-.138-.015-.167-.146-.167-.263q0-1.279,0-2.559c0-.142.045-.294.221-.275.123.013.17.143.17.267C-1615.057,497.4-1615.058,497.839-1615.058,498.277Z" transform="translate(1625.552 -488.678)"/>
      <path id="Path_22089" data-name="Path 22089" d="M-1615.06,577.482c0,.414,0,.829,0,1.243,0,.142-.042.29-.224.272-.134-.014-.168-.144-.168-.263q0-1.243,0-2.487c0-.142.022-.309.193-.312s.2.16.2.3C-1615.058,576.652-1615.06,577.067-1615.06,577.482Z" transform="translate(1625.555 -556.914)"/>
      <path id="Path_22090" data-name="Path 22090" d="M-1636.379,609.694c-.3.028-.521-.081-.477-.322.1-.518.589-.427.948-.5a.291.291,0,0,1,.374.359C-1635.641,609.712-1636.119,609.569-1636.379,609.694Z" transform="translate(1643.988 -585.265)"/>
      <path id="Path_22091" data-name="Path 22091" d="M-1522.6,455.831a2.153,2.153,0,0,1-2.138-2.153,2.2,2.2,0,0,1,2.13-2.115,2.222,2.222,0,0,1,2.144,2.107A2.169,2.169,0,0,1-1522.6,455.831Zm0-3.525a1.43,1.43,0,0,0-1.431,1.379,1.452,1.452,0,0,0,1.446,1.443,1.447,1.447,0,0,0,1.4-1.422A1.429,1.429,0,0,0-1522.6,452.306Z" transform="translate(1547.439 -449.815)"/>
      <path id="Path_22092" data-name="Path 22092" d="M-1658.9,531.692a10.369,10.369,0,0,0-2.491-4.877,3.587,3.587,0,0,1-.959-3.5,3.369,3.369,0,0,1,2.789-2.47,3.409,3.409,0,0,1,3.66,1.529,3.177,3.177,0,0,1-.029,3.752c-.089.134-.172.274-.273.4A10.87,10.87,0,0,0-1658.9,531.692Zm2.082-7.737a2.193,2.193,0,0,0-2.1-2.141,2.184,2.184,0,0,0-2.174,2.134,2.182,2.182,0,0,0,2.1,2.14A2.187,2.187,0,0,0-1656.819,523.955Z" transform="translate(1666.066 -509.421)" fill="#769ed0"/>
      <path id="Path_22093" data-name="Path 22093" d="M-1518.194,456.914a1.429,1.429,0,0,1,1.412,1.4,1.447,1.447,0,0,1-1.4,1.422,1.452,1.452,0,0,1-1.446-1.443A1.43,1.43,0,0,1-1518.194,456.914Z" transform="translate(1543.033 -454.423)" fill="#f9f7ed"/>
      <path id="Path_22094" data-name="Path 22094" d="M-1648.094,530.346a2.187,2.187,0,0,1-2.177,2.133,2.182,2.182,0,0,1-2.1-2.14,2.184,2.184,0,0,1,2.174-2.134A2.193,2.193,0,0,1-1648.094,530.346Zm-2.129,1.42a1.468,1.468,0,0,0,1.409-1.419,1.467,1.467,0,0,0-1.4-1.426,1.464,1.464,0,0,0-1.443,1.452A1.47,1.47,0,0,0-1650.223,531.766Z" transform="translate(1657.341 -515.813)"/>
      <path id="Path_22095" data-name="Path 22095" d="M-1645.811,536.209a1.47,1.47,0,0,1-1.434-1.393,1.464,1.464,0,0,1,1.443-1.452,1.467,1.467,0,0,1,1.4,1.426A1.468,1.468,0,0,1-1645.811,536.209Z" transform="translate(1652.929 -520.255)" fill="#f9f7ed"/>
    </g>
  </g>
</svg>
