<svg xmlns="http://www.w3.org/2000/svg" xmlns:xlink="http://www.w3.org/1999/xlink" width="78.495" height="101.925" viewBox="0 0 78.495 101.925">
  <defs>
    <linearGradient id="linear-gradient" x1="3.72" y1="-6.883" x2="5.928" y2="-4.981" gradientUnits="objectBoundingBox">
      <stop offset="0" stop-color="#fccf61"/>
      <stop offset="0.081" stop-color="#fff"/>
      <stop offset="0.194" stop-color="#f4d271"/>
      <stop offset="0.264" stop-color="#d8a73b"/>
      <stop offset="0.322" stop-color="#bf8628"/>
      <stop offset="0.362" stop-color="#b2761f"/>
      <stop offset="0.378" stop-color="#b0741e"/>
      <stop offset="0.471" stop-color="#ad701d"/>
      <stop offset="0.513" stop-color="#b77d25"/>
      <stop offset="0.559" stop-color="#c69133"/>
      <stop offset="0.676" stop-color="#f4d15e"/>
      <stop offset="0.7" stop-color="#f1cd5c"/>
      <stop offset="0.719" stop-color="#e9c355"/>
      <stop offset="0.737" stop-color="#dbb24b"/>
      <stop offset="0.754" stop-color="#c79a3c"/>
      <stop offset="0.77" stop-color="#ae7b29"/>
      <stop offset="0.785" stop-color="#905613"/>
      <stop offset="0.806" stop-color="#965d17"/>
      <stop offset="0.839" stop-color="#a87325"/>
      <stop offset="0.878" stop-color="#c4973b"/>
      <stop offset="0.924" stop-color="#ecc859"/>
      <stop offset="0.938" stop-color="#fad964"/>
    </linearGradient>
    <linearGradient id="linear-gradient-2" x1="-0.147" y1="-0.377" x2="0.918" y2="0.982" gradientUnits="objectBoundingBox">
      <stop offset="0" stop-color="#d8a73b"/>
      <stop offset="0.084" stop-color="#bf8628"/>
      <stop offset="0.141" stop-color="#b2761f"/>
      <stop offset="0.153" stop-color="#b0741e"/>
      <stop offset="0.218" stop-color="#ad701d"/>
      <stop offset="0.301" stop-color="#b77d25"/>
      <stop offset="0.392" stop-color="#c69133"/>
      <stop offset="0.662" stop-color="#905613"/>
      <stop offset="0.882" stop-color="#905613"/>
      <stop offset="1" stop-color="#3f1400"/>
    </linearGradient>
    <linearGradient id="linear-gradient-3" x1="0.911" y1="-10.689" x2="0.72" y2="-10.038" gradientUnits="objectBoundingBox">
      <stop offset="0.022" stop-color="#fff"/>
      <stop offset="0.293" stop-color="#fad964"/>
      <stop offset="0.557" stop-color="#f4d15e"/>
      <stop offset="0.591" stop-color="#baa049"/>
      <stop offset="0.628" stop-color="#847235"/>
      <stop offset="0.665" stop-color="#574b24"/>
      <stop offset="0.699" stop-color="#342d17"/>
      <stop offset="0.732" stop-color="#1b180e"/>
      <stop offset="0.761" stop-color="#0c0b08"/>
      <stop offset="0.785" stop-color="#070707"/>
    </linearGradient>
    <linearGradient id="linear-gradient-4" x1="-0.578" y1="-0.004" x2="0.197" y2="0.365" gradientUnits="objectBoundingBox">
      <stop offset="0.022" stop-color="#fff"/>
      <stop offset="0.293" stop-color="#fad964"/>
      <stop offset="0.587" stop-color="#f4d15e"/>
      <stop offset="0.597" stop-color="#e8c759"/>
      <stop offset="0.657" stop-color="#ac9443"/>
      <stop offset="0.712" stop-color="#7c6b32"/>
      <stop offset="0.761" stop-color="#5a4e25"/>
      <stop offset="0.8" stop-color="#453c1d"/>
      <stop offset="0.827" stop-color="#3e361b"/>
      <stop offset="0.845" stop-color="#342d17"/>
      <stop offset="0.901" stop-color="#1b180e"/>
      <stop offset="0.953" stop-color="#0c0b08"/>
      <stop offset="0.995" stop-color="#070707"/>
    </linearGradient>
    <linearGradient id="linear-gradient-5" x1="4.522" y1="-7.763" x2="5.399" y2="-6.665" gradientUnits="objectBoundingBox">
      <stop offset="0" stop-color="#fccf61"/>
      <stop offset="0.065" stop-color="#fff"/>
      <stop offset="0.194" stop-color="#f4d271"/>
      <stop offset="0.374" stop-color="#fff"/>
      <stop offset="0.492" stop-color="#fad964"/>
      <stop offset="0.649" stop-color="#f4d15e"/>
      <stop offset="0.764" stop-color="#c5973a"/>
      <stop offset="0.871" stop-color="#9e681e"/>
      <stop offset="0.924" stop-color="#905613"/>
    </linearGradient>
    <linearGradient id="linear-gradient-6" x1="0.61" y1="1.211" x2="0.425" y2="-0.121" xlink:href="#linear-gradient-2"/>
    <linearGradient id="linear-gradient-7" x1="6.751" y1="-11.917" x2="6.432" y2="-11.458" gradientUnits="objectBoundingBox">
      <stop offset="0" stop-color="#fff"/>
      <stop offset="0.081" stop-color="#ead8b6"/>
      <stop offset="0.168" stop-color="#d7b270"/>
      <stop offset="0.23" stop-color="#ca9a43"/>
      <stop offset="0.262" stop-color="#c69133"/>
      <stop offset="0.662" stop-color="#905613"/>
      <stop offset="0.727" stop-color="#884f11"/>
      <stop offset="0.828" stop-color="#723d0c"/>
      <stop offset="0.952" stop-color="#4e2003"/>
      <stop offset="1" stop-color="#3f1400"/>
    </linearGradient>
    <linearGradient id="linear-gradient-8" x1="-0.149" y1="-0.294" x2="0.936" y2="0.932" gradientUnits="objectBoundingBox">
      <stop offset="0" stop-color="#fccf61"/>
      <stop offset="0.211" stop-color="#d8a73b"/>
      <stop offset="0.537" stop-color="#e8c04f"/>
      <stop offset="0.817" stop-color="#f4d15e"/>
      <stop offset="0.844" stop-color="#efcb5a"/>
      <stop offset="0.88" stop-color="#e1ba50"/>
      <stop offset="0.922" stop-color="#ca9e3f"/>
      <stop offset="0.966" stop-color="#ab7727"/>
      <stop offset="1" stop-color="#905613"/>
    </linearGradient>
  </defs>
  <g id="Group_6500" data-name="Group 6500" transform="translate(-393.313 -305.747)">
    <g id="Group_6493" data-name="Group 6493" transform="translate(393.313 305.747)">
      <g id="Group_6464" data-name="Group 6464">
        <rect id="Rectangle_1692" data-name="Rectangle 1692" width="12.351" height="24.229" transform="translate(28.731 12.349) rotate(-89.026)" fill="#460391"/>
        <path id="Path_15036" data-name="Path 15036" d="M437.342,306.372c-.5.7-1.706.881-2.41,1.454-.835.678-1.156,1.458-2.234,1.949-2.259,1.046-4.512,2.373-6.688,3.6a57.809,57.809,0,0,0-6.85,4.427c2.913.205,5.817.056,8.669.353,2.559.268,5.314.272,7.87.4a13.607,13.607,0,0,0,.319-3.587,25.872,25.872,0,0,1,.807-3.962,26.14,26.14,0,0,0,.857-4.973c-.123.188-.266.119-.449.248Z" transform="translate(-384.909 -305.655)" fill="#5000aa" opacity="0.5" style="mix-blend-mode: normal;isolation: isolate"/>
        <g id="Group_6462" data-name="Group 6462" transform="translate(0 0.648)">
          <g id="Group_6461" data-name="Group 6461">
            <path id="Path_15037" data-name="Path 15037" d="M446.049,306.236c-.133,1.417-52.736,92.775-52.736,92.775l16.286-6.687,6.312,14.867,45.2-82.7Z" transform="translate(-393.313 -306.236)" fill="#5f01cb"/>
            <path id="Path_15038" data-name="Path 15038" d="M448.613,311.289c2.8,4.329,1,11.575.212,16.209-1.124,6.671-4.18,13.359-7.532,19.509-6.1,11.183-15.208,21.946-23.932,31.873-3.148,3.582-7.969,5.658-12.19,8.3-1.741,1.088-3.288,2.315-5.083,3.4-.84.5-5.4,3.122-5.37,3.967-.107.032-.159.1-.137.182,2.711.364,6.293-2.318,8.766-3.164,1.973-.668,4.8-2.126,6.988-1.8,2.073,3.717,2.579,8.973,5.685,12.244.42-3.62,4.372-7.711,6.182-11.056,2.124-3.926,4.54-7.7,6.692-11.63,1.778-3.24,3.392-6.529,4.968-9.812,1.474-3.064,3.72-5.816,4.973-8.97,4.58-11.481,12.347-22.031,17.532-33.23,1.651-3.562.615-5.363-2.144-8.511-1.986-2.259-4.739-5.823-5.594-8.394Z" transform="translate(-392.902 -304.879)" fill="#5f01cb" opacity="0.3" style="mix-blend-mode: normal;isolation: isolate"/>
            <path id="Path_15039" data-name="Path 15039" d="M441.535,311.456c.113,2.812-3.113,6.1-4.309,8.716a74.6,74.6,0,0,1-5.384,8.906c-3.581,5.562-7.28,10.964-10.552,16.647-5.9,10.254-12.614,20.254-18.212,30.648a42.527,42.527,0,0,0-2.18,4.517c1.928-.343,3.561-3,4.626-4.162,1.418-1.568,2.771-3.665,4.8-4.775.056.7-.375,1.99.42,2.371,1.963.942,5.378-2.755,6.206-3.581,3.983-3.968,8.457-7.8,11.728-12.138,5.218-6.911,10.429-14.509,12.445-22.439,2.116-8.352,6.373-18.383,1.647-26.375-.314-.048-.321.087-.6.147Z" transform="translate(-390.847 -305.083)" fill="#6804d9"/>
            <path id="Path_15040" data-name="Path 15040" d="M433.68,320.077c-4.325,3.94-7.108,10.514-9.8,15.364-2.518,4.515-5.31,8.71-7.547,13.331-1.944,4.017-4.295,7.894-6.053,12-.794,1.851-1.353,4.182,1.695,2.314,2.82-1.725,4.137-5.1,7.084-6.663.262,1.227-.152,2.724,1.723,2.609,2.532-.151,5.522-5.69,6.473-7.271,3.214-5.328,4.809-11.318,7.222-16.941,1.435-3.346,3.127-7.78,2.653-11.425-.162-1.227-3.015-4.69-3.9-2.381Z" transform="translate(-388.001 -301.735)" fill="#720de3"/>
          </g>
          <path id="Path_15041" data-name="Path 15041" d="M449.9,312.532c1.108,3.123-1.936,7.9-3.023,10.877-2.4,6.566-6.412,13.013-10.381,19.052-3.074,4.676-8.413,12.523-16.054,9.427-1.878,3.962-4.9,7.5-7.177,11.317-2.771,4.637-5.355,9.377-7.886,14.108-3.163,5.931-7.072,11.683-10.151,17.474,2.853-.631,5.289-2.942,8.139-3.907,1.912-.645,5.085-1.927,7.185-1.6.258,4.047,3.453,8.5,5.3,12.165-.506-2.885,3.614-7.381,5.175-9.861a85.457,85.457,0,0,0,5.865-10.512c3.363-7.43,7.8-14.43,11.734-21.649,4.222-7.743,8.187-15.471,12.891-23.063a91.532,91.532,0,0,0,5.053-8.725c.726-1.523,2.314-3.561,1.85-5.26s-3.274-4.032-4.618-5.366c-1.048-1.053-3.545-4.813-4.768-5.02Z" transform="translate(-392.69 -304.366)" fill="#5f01cb" opacity="0.2" style="mix-blend-mode: normal;isolation: isolate"/>
        </g>
        <path id="Path_15042" data-name="Path 15042" d="M414.388,340.1c-.3,1.1-1.207,1.809-1.157,3.015a23.831,23.831,0,0,0,1.394,5.293c1.152,3.382,2.2,6.773,3.318,10.187a71.489,71.489,0,0,1,2.74,9.288c.355,1.952.268,4.05,1.434,5.832,1.434-3.308,3.709-6.475,5.025-9.9,1.018-2.645,1.6-5.489,2.748-8.1.779-1.774,4.007-5.1,3.145-7.1-.447-1.042-1.925-1.276-2.869-1.932a7.549,7.549,0,0,1-2.66-4.272c-.965-2.619-2.111-3.6-5.016-4.442a7,7,0,0,0-7.91,3.21c.013-.294.019-.588.023-.877Z" transform="translate(-386.837 -295.355)" fill="#5000aa" opacity="0.5" style="mix-blend-mode: normal;isolation: isolate"/>
        <path id="Path_15043" data-name="Path 15043" d="M414.729,339.727c-.994,1.063-1.487,1.7-1.088,2.784.076.208,1.006.709,1.194,1.007.445.7.338,1.6.611,2.34.9,2.4,1.9,4.779,2.718,7.239,1.793,5.367,3.324,11.191,5.462,16.281.851-2.187,3.587-3.889,2.889-6.126-.57-1.821-1.931-3.423-2.528-5.307-.655-2.057-1.255-4.13-2.025-6.153a42.562,42.562,0,0,0-4.291-8.223c-.879-1.328-2.188-3.881-3.374-4.229Z" transform="translate(-386.748 -294.823)" fill="#5000aa" opacity="0.5" style="mix-blend-mode: normal;isolation: isolate"/>
        <g id="Group_6463" data-name="Group 6463" transform="translate(13.266 0.002)">
          <path id="Path_15044" data-name="Path 15044" d="M419,305.748c.087,1.422,49.55,94.516,49.55,94.516L452.5,393.026l-6.815,14.646-42.364-84.183Z" transform="translate(-403.324 -305.748)" fill="#5f01cb"/>
          <path id="Path_15045" data-name="Path 15045" d="M414.952,310.722c-2.946,4.234-1.389,11.535-.762,16.195.9,6.707,3.726,13.494,6.868,19.752,5.711,11.386,14.447,22.451,22.835,32.671,3.023,3.688,7.765,5.923,11.893,8.706,1.7,1.149,3.211,2.429,4.965,3.573.82.538,5.29,3.306,5.232,4.149.109.038.152.1.129.189-2.723.269-6.216-2.534-8.651-3.461-1.952-.739-4.725-2.291-6.925-2.039-2.2,3.647-2.881,8.877-6.1,12.04-.3-3.63-4.108-7.853-5.8-11.263-1.984-3.99-4.272-7.849-6.295-11.848-1.667-3.3-3.163-6.639-4.63-9.972-1.365-3.111-3.516-5.941-4.663-9.133-4.178-11.627-11.585-22.432-16.391-33.8-1.531-3.618-.429-5.383,2.438-8.433,2.062-2.188,4.93-5.66,5.873-8.2Z" transform="translate(-402.465 -304.417)" fill="#5f01cb" opacity="0.3" style="mix-blend-mode: normal;isolation: isolate"/>
          <path id="Path_15046" data-name="Path 15046" d="M417.158,310.946c-.209,2.8,2.9,6.2,4.007,8.844a74.02,74.02,0,0,0,5.081,9.075c3.387,5.677,6.9,11.195,9.977,16.981,5.555,10.445,11.92,20.658,17.165,31.23a42.768,42.768,0,0,1,2.022,4.584c-1.912-.409-3.455-3.117-4.479-4.319-1.364-1.614-2.645-3.756-4.633-4.928-.079.7.306,2-.5,2.352-1.994.876-5.283-2.935-6.081-3.786-3.843-4.095-8.188-8.077-11.309-12.52-4.979-7.08-9.929-14.842-11.675-22.827-1.821-8.42-4.063-17.85.926-25.67-.755-.506-1.048.114-.767.179Z" transform="translate(-399.651 -304.442)" fill="#6804d9"/>
          <path id="Path_15047" data-name="Path 15047" d="M420.911,319.761c4.188,4.086,6.748,10.751,9.284,15.694,2.357,4.6,5.007,8.885,7.083,13.575,1.806,4.087,4.026,8.04,5.641,12.2.729,1.879,1.209,4.23-1.774,2.257-2.76-1.818-3.962-5.237-6.85-6.9-.3,1.218.06,2.723-1.814,2.55-2.523-.234-5.325-5.878-6.222-7.488-3.033-5.435-4.423-11.475-6.643-17.175-1.323-3.394-2.858-7.881-2.261-11.509.2-1.219,3.17-4.585,3.975-2.25Z" transform="translate(-398.805 -301.191)" fill="#720de3"/>
          <path id="Path_15048" data-name="Path 15048" d="M418.745,307.276c-.353,1.525-2.678,3.718-3.856,5-1.495,1.631-2.959,3.29-4.5,4.891-1.366,1.422-2.562,3.028-4,4.385-2.055,1.935-1.713,2.509-.413,5.03,3.139,6.081,6.022,12.25,11.052,17.437,2.8,2.885,3.29,6.7,4.8,10.074,1.966,4.394,4.36,8.6,6.467,12.943,3.358,6.9,5.593,14.088,8.83,21.016,1.474,3.154,2.894,6.33,4.32,9.484a21.415,21.415,0,0,0,2.854,5.636c1.3-1.36.777-4.879,1.548-6.76.53-1.305,1.034-4.983,2.931-5.531,1.545-.453,6.639,1.305,8.209,1.761a61.006,61.006,0,0,1,6.937,2.278c-.313-1.349-2.3-2.935-3.342-4.136-1.887-2.164-4.235-4.116-6.383-6.129-4.881-4.577-9.089-8.562-10.963-14.522a57.194,57.194,0,0,0-6.117-14.088c-3.05-4.859-6.732-9.43-9.043-14.557-1.931-4.275-2.638-8.926-3.737-13.4-.8-3.273-1.667-6.624-2.137-9.917-.26-1.845-.64-11.983-4.543-11.273Z" transform="translate(-402.802 -305.384)" fill="#5f01cb" opacity="0.2" style="mix-blend-mode: normal;isolation: isolate"/>
        </g>
        <path id="Path_15049" data-name="Path 15049" d="M423.888,322.281a4.477,4.477,0,0,1,1.255,1.63,9.712,9.712,0,0,0,2.066,2.1c1.488,1.292,1.58,2.942,2.518,4.5,1.817,3.012,3.7,6.015,5.224,9.129.754,1.536,2.141,3.415,2.425,5.045.147.853-.786,3.775-1.6,4.246a8.843,8.843,0,0,1-1.3-2.375c-1.064-2.033-2.246-4.015-3.345-6.04-1.72-3.176-3.024-6.465-4.54-9.688-.859-1.83-1.2-3.864-2.025-5.7-.353-.788-.953-2.4-.682-2.947Z" transform="translate(-383.393 -300.401)" fill="#5000aa" opacity="0.5" style="mix-blend-mode: normal;isolation: isolate"/>
      </g>
    </g>
    <g id="Group_6498" data-name="Group 6498" transform="translate(398.623 317.258)">
      <path id="Path_15101" data-name="Path 15101" d="M465.081,344.462a33.995,33.995,0,1,1-37.733-29.794A34,34,0,0,1,465.081,344.462Z" transform="translate(-397.32 -314.433)" fill="url(#linear-gradient)"/>
      <path id="Path_15102" data-name="Path 15102" d="M427.348,314.669a33.993,33.993,0,1,0,37.733,29.794A33.993,33.993,0,0,0,427.348,314.669Zm7.877,67.019a33.487,33.487,0,1,1,29.35-37.167A33.527,33.527,0,0,1,435.225,381.688Z" transform="translate(-397.32 -314.433)" fill="url(#linear-gradient-2)"/>
      <path id="Path_15103" data-name="Path 15103" d="M453.249,334.263c-5.991-8.321-13.984-13.161-24.867-11.883-15.963,1.875-24.807,15.377-22.931,31.343.212,1.8-5.135,3.9-5.461,3.978a33.3,33.3,0,0,1-1.193-5.729,32.838,32.838,0,0,1,58.946-23.451C459.6,331.207,454.388,335.379,453.249,334.263Z" transform="translate(-396.914 -314.151)" opacity="0.7" fill="url(#linear-gradient-3)" style="mix-blend-mode: screen;isolation: isolate"/>
      <path id="Path_15104" data-name="Path 15104" d="M440.525,325.181c8.114,6.269,12.682,14.422,11.039,25.254-2.414,15.891-16.205,24.276-32.1,21.864-1.8-.273-4.067,5-4.161,5.32A33.213,33.213,0,0,0,420.99,379a32.839,32.839,0,0,0,25.423-58.123C443.791,318.938,439.448,324.005,440.525,325.181Z" transform="translate(-391.472 -312.479)" opacity="0.9" fill="url(#linear-gradient-4)" style="mix-blend-mode: screen;isolation: isolate"/>
      <g id="Group_6497" data-name="Group 6497" transform="translate(4.009 4.01)">
        <path id="Path_15105" data-name="Path 15105" d="M460.11,343.946a29.983,29.983,0,1,1-33.277-26.279A29.986,29.986,0,0,1,460.11,343.946Z" transform="translate(-400.345 -317.459)" fill="url(#linear-gradient-5)" style="mix-blend-mode: screen;isolation: isolate"/>
        <path id="Path_15106" data-name="Path 15106" d="M426.832,317.667a29.984,29.984,0,1,0,33.277,26.279A29.985,29.985,0,0,0,426.832,317.667Zm6.929,58.967a29.389,29.389,0,1,1,25.759-32.618A29.427,29.427,0,0,1,433.762,376.634Z" transform="translate(-400.345 -317.459)" fill="url(#linear-gradient-6)"/>
        <path id="Path_15107" data-name="Path 15107" d="M453.06,359.608c-19.669,24.478-58.27,3.477-50.221-25.72C392.812,364.058,434.411,385.429,453.06,359.608Z" transform="translate(-400.034 -312.117)" opacity="0.8" fill="url(#linear-gradient-7)" style="mix-blend-mode: multiply;isolation: isolate"/>
        <path id="Path_15108" data-name="Path 15108" d="M458.637,343.793a28.794,28.794,0,1,1-31.958-25.236A28.8,28.8,0,0,1,458.637,343.793Z" transform="translate(-400.053 -317.167)" fill="url(#linear-gradient-8)"/>
      </g>
    </g>
    <g id="Group_6499" data-name="Group 6499" transform="translate(414.868 332.021)">
      <path id="Path_15109" data-name="Path 15109" d="M440.322,357.58a2.338,2.338,0,0,0-2.962-1.545,2.424,2.424,0,0,0-1.675,2.061,5.2,5.2,0,0,1-4.251-.708c-2.576-2.062-2.061-7.795-1.675-12.366a32.851,32.851,0,0,0,.193-5.991c-.516-3.929-2.576-6.891-5.926-8.179a11.61,11.61,0,0,0-9.854.9,2.324,2.324,0,0,0-2.9.065,2.379,2.379,0,1,0,3.027,3.671,2.235,2.235,0,0,0,.774-2.448,9.678,9.678,0,0,1,8.372-.709c2.77,1.1,4.508,3.544,4.96,6.892a29.852,29.852,0,0,1-.193,5.668c-.451,5.217-.966,11.207,2.254,13.784A6.05,6.05,0,0,0,434.2,359.9a8.169,8.169,0,0,0,1.8-.193,2.352,2.352,0,0,0,2.7.966A2.514,2.514,0,0,0,440.322,357.58Z" transform="translate(-409.311 -324.09)" fill="#aa4900"/>
      <g id="Group_3991" data-name="Group 3991" transform="translate(23.404)">
        <path id="Path_6476" data-name="Path 6476" d="M429.752,330.6a2.512,2.512,0,1,1,2.511-2.512h0A2.515,2.515,0,0,1,429.752,330.6Z" transform="translate(-427.24 -325.574)" fill="#aa4900"/>
      </g>
      <path id="Path_15110" data-name="Path 15110" d="M443.682,338.173a2.412,2.412,0,0,0-2.833,3.8c-5.154,9.532-12.109,15.329-18.872,15.458a10.114,10.114,0,0,1-9.4-5.474,9.49,9.49,0,0,1,.514-10.693,9.8,9.8,0,0,1,8.631-3.671,2.355,2.355,0,0,0,1.74,1.867,2.39,2.39,0,0,0,1.16-4.637,2.474,2.474,0,0,0-2.706,1.16,11.363,11.363,0,0,0-10.112,4.251,11.175,11.175,0,0,0-.644,12.43,11.782,11.782,0,0,0,10.5,6.248h.386c7.343-.193,14.814-6.248,20.225-16.36a2.427,2.427,0,0,0,2.448-1.288A2.241,2.241,0,0,0,443.682,338.173Z" transform="translate(-409.579 -322.588)" fill="#aa4900"/>
      <path id="Path_15111" data-name="Path 15111" d="M437.249,348.028a2.487,2.487,0,0,0-2.319,1.095c-4.638-1.61-4.38-6.377-4.123-11.464a3.373,3.373,0,0,1,.065-.837,2.374,2.374,0,1,0-3.092-2.254,2.457,2.457,0,0,0,1.545,2.254,4.013,4.013,0,0,1-.064.837c-.258,5.024-.58,11.207,5.346,13.074a2.4,2.4,0,0,0,4.765-.064A2.434,2.434,0,0,0,437.249,348.028Z" transform="translate(-403.66 -323.425)" fill="#aa4900"/>
    </g>
  </g>
</svg>
