<svg xmlns="http://www.w3.org/2000/svg" width="11.84" height="11.871" viewBox="0 0 11.84 11.871">
  <g id="NpNpn5.tif" transform="translate(-530.249 -231.521)">
    <g id="Group_20548" data-name="Group 20548" transform="translate(530.249 231.521)">
      <path id="Path_18086" data-name="Path 18086" d="M530.249,237.412c.492-.083.985-.161,1.476-.25,1.071-.194,2.14-.4,3.213-.586a.4.4,0,0,0,.374-.374q.244-1.372.493-2.743.165-.917.331-1.835a.571.571,0,0,1,.049-.1,2.542,2.542,0,0,1,.137.608q.374,2.041.737,4.085a.405.405,0,0,0,.384.362c1.486.26,2.969.534,4.452.807a.269.269,0,0,1,.194.083,6.608,6.608,0,0,1-.882.181c-1.28.236-2.562.464-3.843.693a.37.37,0,0,0-.305.35q-.185,1.036-.371,2.073-.223,1.243-.449,2.486a.943.943,0,0,1-.058.143,4.741,4.741,0,0,1-.17-.8c-.238-1.288-.465-2.578-.7-3.867-.052-.288-.1-.336-.417-.395q-2.286-.421-4.572-.838a.347.347,0,0,0-.076,0Z" transform="translate(-530.249 -231.521)" fill="#007ac6"/>
    </g>
  </g>
</svg>
