<svg xmlns="http://www.w3.org/2000/svg" width="30.219" height="35.296" viewBox="0 0 30.219 35.296">
  <g id="_3hywTK.tif" data-name="3hywTK.tif" transform="translate(0)">
    <g id="Group_52162" data-name="Group 52162">
      <path id="Path_35597" data-name="Path 35597" d="M500.728,228.426c0,2.193-.009,4.385,0,6.578a12.545,12.545,0,0,1-1.891,6.691,19.714,19.714,0,0,1-5,5.377,32.39,32.39,0,0,1-7.613,4.3c-.655.265-.654.257-1.289-.046a38.876,38.876,0,0,1-7.585-4.711,22.452,22.452,0,0,1-4.6-4.792,11.588,11.588,0,0,1-2.133-5.323,29.374,29.374,0,0,1-.1-3.015c-.012-2.7,0-5.4,0-8.1,0-1.507,0-3.013,0-4.52a.351.351,0,0,1,.161-.314,18.043,18.043,0,0,1,4.3-2.308,27.652,27.652,0,0,1,8.165-1.877,29,29,0,0,1,13.52,2.038,17.108,17.108,0,0,1,3.893,2.134.391.391,0,0,1,.176.351Q500.724,224.656,500.728,228.426Zm-13.85,19.9c.131-.057.219-.092.3-.132a28.158,28.158,0,0,0,5.272-3.231,17.006,17.006,0,0,0,4.18-4.5,10.054,10.054,0,0,0,1.572-5.515c-.014-.805,0-1.611,0-2.416q0-5.157,0-10.314a.29.29,0,0,0-.159-.287c-.485-.277-.954-.586-1.453-.835a21.4,21.4,0,0,0-6.7-2.013,29.074,29.074,0,0,0-11,.477,18.36,18.36,0,0,0-5.621,2.311.479.479,0,0,0-.246.468q.01,6.365,0,12.731a7.95,7.95,0,0,0,.483,2.738,13.394,13.394,0,0,0,3.062,4.684,30.54,30.54,0,0,0,7.6,5.612,1.659,1.659,0,0,0,.189.071v-4.2h2.508Z" transform="translate(-470.512 -216.262)"/>
      <path id="Path_35598" data-name="Path 35598" d="M503.665,265.042v-4.355h-2.509v4.2a1.65,1.65,0,0,1-.189-.071,30.537,30.537,0,0,1-7.6-5.612,13.4,13.4,0,0,1-3.062-4.684,7.951,7.951,0,0,1-.483-2.738q.008-6.366,0-12.731a.479.479,0,0,1,.246-.468,18.363,18.363,0,0,1,5.621-2.311,29.075,29.075,0,0,1,11-.477,21.409,21.409,0,0,1,6.7,2.013c.5.25.968.558,1.453.835a.29.29,0,0,1,.159.287q0,5.157,0,10.315c0,.805-.013,1.611,0,2.416a10.054,10.054,0,0,1-1.572,5.515,17,17,0,0,1-4.18,4.5,28.156,28.156,0,0,1-5.272,3.231C503.884,264.95,503.8,264.985,503.665,265.042Zm-11.226-13.108-.031.029c.012.026.023.054.037.079q1.8,2.991,3.587,5.984a.267.267,0,0,0,.275.134c1.253,0,2.505,0,3.758,0a2.958,2.958,0,0,0,1.081-.047c.313-.132.532-.485.792-.741l.477-.471c.38.383.741.739,1.093,1.1a.467.467,0,0,0,.369.159q2.293-.008,4.586,0a.371.371,0,0,0,.369-.21q1.748-2.929,3.507-5.85c.028-.047.049-.1.1-.206-.116.082-.176.122-.234.165-1.3.975-2.62,1.926-3.891,2.937a2.322,2.322,0,0,1-1.922.633.678.678,0,0,1-.346-.146c-.751-.735-1.488-1.485-2.239-2.221a.556.556,0,0,0-.346-.144q-1.051-.02-2.1,0a.555.555,0,0,0-.347.141c-.756.741-1.5,1.5-2.255,2.237a.512.512,0,0,1-.307.129c-.3.016-.611.012-.917,0a.537.537,0,0,1-.284-.092q-1.446-1.072-2.883-2.157Zm-1.273-8.946c.1-.071.206-.146.313-.212.773-.477,1.519-1.008,2.326-1.417a2.9,2.9,0,0,1,3.753.66,15.068,15.068,0,0,1,1.285,1.711,1.256,1.256,0,1,0,2-1.513c-.125-.148-.236-.308-.367-.451a15.191,15.191,0,0,0-1.207-1.283,4.537,4.537,0,0,0-3.743-1.158,4.792,4.792,0,0,0-2.132.929A6.944,6.944,0,0,0,491.165,242.988Zm22.539.024a1,1,0,0,0-.035-.159c-.276-.577-.511-1.178-.839-1.724a3.6,3.6,0,0,0-2.056-1.635,6.764,6.764,0,0,0-1.97-.222,4.607,4.607,0,0,0-3.3,1.264,15.955,15.955,0,0,0-1.612,1.82,1.219,1.219,0,0,0,.329,1.735,1.245,1.245,0,0,0,1.724-.315c.236-.335.46-.68.7-1.009a6.355,6.355,0,0,1,1.905-1.832,2.364,2.364,0,0,1,2.662.006c.633.429,1.214.935,1.808,1.419C513.251,242.546,513.451,242.767,513.7,243.012Zm-1.241,2.556a4.517,4.517,0,0,0-6.249-.006A4.508,4.508,0,0,0,512.464,245.568Zm-20.1,0a4.485,4.485,0,0,0,6.242-.011A4.516,4.516,0,0,0,492.361,245.566Z" transform="translate(-487.299 -232.978)" fill="#fff"/>
      <path id="Path_35599" data-name="Path 35599" d="M509.645,361.115l1.929,1.447q1.44,1.081,2.883,2.157a.537.537,0,0,0,.284.092c.305.012.612.017.917,0a.512.512,0,0,0,.307-.129c.755-.742,1.5-1.5,2.255-2.237a.555.555,0,0,1,.347-.141q1.051-.02,2.1,0a.555.555,0,0,1,.346.144c.751.736,1.488,1.486,2.239,2.221a.681.681,0,0,0,.346.145,2.321,2.321,0,0,0,1.922-.633c1.271-1.011,2.591-1.962,3.891-2.937.058-.043.118-.084.234-.166-.055.109-.076.159-.1.206q-1.754,2.924-3.506,5.85a.371.371,0,0,1-.369.21q-2.293-.012-4.586,0a.466.466,0,0,1-.369-.159c-.352-.365-.713-.721-1.093-1.1l-.477.471c-.26.256-.479.609-.792.741a2.958,2.958,0,0,1-1.081.047c-1.253,0-2.505,0-3.758,0a.267.267,0,0,1-.275-.134q-1.788-3-3.587-5.984a.872.872,0,0,1-.037-.079Z" transform="translate(-504.506 -342.159)"/>
      <path id="Path_35600" data-name="Path 35600" d="M500.1,268.175a6.945,6.945,0,0,1,2.224-2.733,4.791,4.791,0,0,1,2.132-.929,4.537,4.537,0,0,1,3.743,1.158,15.205,15.205,0,0,1,1.207,1.283c.13.143.242.3.367.451a1.256,1.256,0,1,1-2,1.513,15.065,15.065,0,0,0-1.285-1.711,2.9,2.9,0,0,0-3.753-.66c-.807.41-1.553.94-2.326,1.417C500.31,268.029,500.208,268.1,500.1,268.175Z" transform="translate(-496.238 -258.165)"/>
      <path id="Path_35601" data-name="Path 35601" d="M605.758,268.173c-.253-.244-.453-.466-.682-.652-.594-.484-1.176-.99-1.808-1.419a2.364,2.364,0,0,0-2.662-.006,6.354,6.354,0,0,0-1.905,1.832c-.244.329-.468.674-.7,1.009a1.245,1.245,0,0,1-1.724.315,1.219,1.219,0,0,1-.329-1.735,15.952,15.952,0,0,1,1.612-1.82,4.607,4.607,0,0,1,3.3-1.263,6.764,6.764,0,0,1,1.97.221,3.6,3.6,0,0,1,2.056,1.635c.328.546.564,1.147.839,1.724A.961.961,0,0,1,605.758,268.173Z" transform="translate(-579.353 -258.139)"/>
      <path id="Path_35602" data-name="Path 35602" d="M621.544,304.259a4.508,4.508,0,0,1-6.249-.006A4.517,4.517,0,0,1,621.544,304.259Z" transform="translate(-596.379 -291.669)"/>
      <path id="Path_35603" data-name="Path 35603" d="M509.257,304.25a4.516,4.516,0,0,1,6.242-.011A4.486,4.486,0,0,1,509.257,304.25Z" transform="translate(-504.195 -291.662)"/>
    </g>
  </g>
</svg>
