<svg id="performance_8387701" xmlns="http://www.w3.org/2000/svg" width="69.362" height="51" viewBox="0 0 69.362 51">
  <g id="Group_58765" data-name="Group 58765" transform="translate(1.016 1.016)">
    <g id="Group_58763" data-name="Group 58763">
      <path id="Path_42257" data-name="Path 42257" d="M13.812,169.073A27.161,27.161,0,0,0,18.529,184.4H11.2a33.573,33.573,0,0,1,6.615-39.54l3.635,5.283A27.229,27.229,0,0,0,13.812,169.073Z" transform="translate(-7.5 -135.432)" fill="#ffe470"/>
      <path id="Path_42258" data-name="Path 42258" d="M415.756,169.272a33.405,33.405,0,0,1-3.7,15.327h-7.326a27.266,27.266,0,0,0-2.877-34.209l3.62-5.3A33.527,33.527,0,0,1,415.756,169.272Z" transform="translate(-348.427 -135.631)" fill="#00dba8"/>
      <path id="Path_42259" data-name="Path 42259" d="M130.386,84.729l-3.62,5.3a27.323,27.323,0,0,0-39.471-.047L83.66,84.7a33.622,33.622,0,0,1,46.726.031Z" transform="translate(-73.342 -75.27)" fill="#f05475"/>
      <path id="Path_42260" data-name="Path 42260" d="M108.8,149.163a27.161,27.161,0,0,1-4.717,15.327H58.807A27.336,27.336,0,1,1,108.8,149.163Z" transform="translate(-47.778 -115.522)" fill="#e3edf6"/>
      <path id="Path_42261" data-name="Path 42261" d="M83.139,121.881A27.315,27.315,0,0,0,62.194,164.49H58.807a27.339,27.339,0,0,1,22.636-42.66Q82.3,121.83,83.139,121.881Z" transform="translate(-47.778 -115.522)" fill="#c5d9ec"/>
    </g>
    <g id="Group_58764" data-name="Group 58764" transform="translate(26.469 19.809)">
      <path id="Path_42262" data-name="Path 42262" d="M230.292,221.494l-27.41,11.868,10.963,13.065Z" transform="translate(-202.882 -221.494)" fill="#cda0e1"/>
    </g>
    <ellipse id="Ellipse_1733" data-name="Ellipse 1733" cx="14.225" cy="14.225" rx="14.225" ry="14.225" transform="translate(19.44 20.519)" fill="#79787d"/>
    <path id="Path_42263" data-name="Path 42263" d="M166.918,255.079a14.225,14.225,0,1,1,0-28.249,14.226,14.226,0,0,0,0,28.249Z" transform="translate(-131.56 -206.211)" fill="#58565b"/>
    <ellipse id="Ellipse_1734" data-name="Ellipse 1734" cx="3.048" cy="3.048" rx="3.048" ry="3.048" transform="translate(30.617 27.097)" fill="#eb975d"/>
    <path id="Path_42264" data-name="Path 42264" d="M224.024,328.674H212.14v-2.441a5.942,5.942,0,0,1,5.942-5.942h0a5.942,5.942,0,0,1,5.942,5.942Z" transform="translate(-184.417 -287.098)" fill="#66d8ff"/>
  </g>
  <g id="Group_58769" data-name="Group 58769" transform="translate(0 0)">
    <path id="Line_311" data-name="Line 311" d="M-4.564.683l-1.7-1.119L-3.824-4.13l1.7,1.119Z" transform="translate(53.534 30.97)"/>
    <path id="Path_42265" data-name="Path 42265" d="M333.228,212.4l-1.7-1.119,1.383-2.1-7.368,3.19-.807-1.865,13.628-5.9Z" transform="translate(-280.747 -186.067)"/>
    <path id="Ellipse_1735" data-name="Ellipse 1735" d="M-3.436-7.5A4.069,4.069,0,0,1,.628-3.436,4.069,4.069,0,0,1-3.436.628,4.069,4.069,0,0,1-7.5-3.436,4.069,4.069,0,0,1-3.436-7.5Zm0,6.1A2.034,2.034,0,0,0-1.4-3.436,2.034,2.034,0,0,0-3.436-5.468,2.034,2.034,0,0,0-5.468-3.436,2.034,2.034,0,0,0-3.436-1.4Z" transform="translate(38.117 34.597)"/>
    <path id="Path_42266" data-name="Path 42266" d="M218.556,323.206H204.64v-3.457a6.958,6.958,0,0,1,13.916,0Zm-11.884-2.032h9.852v-1.425a4.926,4.926,0,1,0-9.852,0Z" transform="translate(-176.917 -279.597)"/>
    <path id="Path_42267" data-name="Path 42267" d="M13.965,175.443H4.1l-.284-.551a34.589,34.589,0,0,1,6.814-40.737l.863-.831,4.783,6.953-.575.6a26.249,26.249,0,0,0-2.816,32.981Zm-8.62-2.032H10.2a28.284,28.284,0,0,1,3.469-33.338l-2.481-3.606a32.523,32.523,0,0,0-5.843,36.944Z" transform="translate(0 -124.443)"/>
    <path id="Path_42268" data-name="Path 42268" d="M404.353,175.616h-9.866l1.08-1.588a26.25,26.25,0,0,0-2.771-32.935l-.57-.6,4.763-6.974.866.836a34.587,34.587,0,0,1,6.782,40.705Zm-6.1-2.032h4.855a32.556,32.556,0,0,0-5.81-36.908l-2.471,3.617a28.284,28.284,0,0,1,3.426,33.291Z" transform="translate(-339.09 -124.616)"/>
    <path id="Path_42269" data-name="Path 42269" d="M158.741,249.711A15.263,15.263,0,0,1,144.4,239.63h0a15.243,15.243,0,1,1,14.345,10.082ZM146.275,238.85a13.218,13.218,0,1,0-.743-4.379,13.227,13.227,0,0,0,.743,4.379Z" transform="translate(-124.06 -198.711)"/>
    <path id="Path_42270" data-name="Path 42270" d="M118.44,85.151l-.866-.9a26.307,26.307,0,0,0-38-.046l-.863.9-4.829-7.019.62-.6a34.672,34.672,0,0,1,35.308-7.838,34.939,34.939,0,0,1,12.828,7.871l.617.6ZM98.549,74.077a28.1,28.1,0,0,1,19.611,7.882l2.438-3.57a32.9,32.9,0,0,0-11.454-6.824,32.64,32.64,0,0,0-32.611,6.792l2.449,3.56A28.1,28.1,0,0,1,98.549,74.077Z" transform="translate(-63.868 -67.769)"/>
    <path id="Path_42271" data-name="Path 42271" d="M98.133,159.022H51.786l-.3-.444a28.369,28.369,0,1,1,46.952,0ZM52.867,156.99H97.051a26.337,26.337,0,1,0-44.184,0Z" transform="translate(-40.278 -108.022)"/>
    <g id="Group_58768" data-name="Group 58768" transform="translate(49.646 44.618)">
      <g id="Group_58766" data-name="Group 58766" transform="translate(4.062)">
        <path id="Line_312" data-name="Line 312" d="M2-5.468H0V-7.5H2Z" transform="translate(0 7.5)"/>
      </g>
      <g id="Group_58767" data-name="Group 58767" transform="translate(0)">
        <path id="Line_313" data-name="Line 313" d="M2-5.468H0V-7.5H2Z" transform="translate(0 7.5)"/>
      </g>
    </g>
  </g>
</svg>
