<svg xmlns="http://www.w3.org/2000/svg" xmlns:xlink="http://www.w3.org/1999/xlink" width="79" height="79" viewBox="0 0 79 79">
  <defs>
    <clipPath id="clip-path">
      <rect id="Rectangle_4853" data-name="Rectangle 4853" width="48.041" height="59.441" transform="translate(0 0)" fill="#00ffe2"/>
    </clipPath>
  </defs>
  <g id="Group_57550" data-name="Group 57550" transform="translate(2622.137 -8611.896)">
    <circle id="Ellipse_1349" data-name="Ellipse 1349" cx="39.5" cy="39.5" r="39.5" transform="translate(-2622.137 8611.896)" fill="#2b2b2b"/>
    <g id="Group_57545" data-name="Group 57545" transform="translate(-2606.021 8619.533)">
      <g id="Group_57544" data-name="Group 57544" clip-path="url(#clip-path)">
        <path id="Path_39869" data-name="Path 39869" d="M47.784,26.107c-1.519-1.194-3.592-2.44-6.178-1.511.04-.078.083-.155.125-.233a5.741,5.741,0,0,0,.375-.788,1.453,1.453,0,0,1,.83-.865,4.008,4.008,0,0,0,2.44-4.235,8.131,8.131,0,0,0-1.73-4.015.534.534,0,0,0-.356-.235.668.668,0,0,0-.485.178,8.194,8.194,0,0,0-2.085,2.434,5.343,5.343,0,0,0-.712,2.547,5.182,5.182,0,0,0,1.156,3.267.328.328,0,0,1,.042.406,13.028,13.028,0,0,1-.8,1.468,9.845,9.845,0,0,1-.83,1.119V25.5a4,4,0,0,0-.591-1.97,6.054,6.054,0,0,0-4.2-2.589.489.489,0,0,0-.385.067.583.583,0,0,0-.223.413,7.516,7.516,0,0,0,.343,3.9,3.248,3.248,0,0,0,2.437,2.119,5.091,5.091,0,0,0,.576.084l.1.01a17.26,17.26,0,0,1-3.363,2.051c-.04.021-.065.027-.071.031a.336.336,0,0,1-.005-.084,6.066,6.066,0,0,0-.156-1.766,5.463,5.463,0,0,0-3.721-3.9,16.682,16.682,0,0,0-4.984-.765c-.206-.007-.239-.039-.252-.244-.091-1.293-.14-2.647-.144-4.024a.39.39,0,0,1,.186-.362A25.77,25.77,0,0,1,27.309,17.1c.279-.16.392-.19.689.067a6.214,6.214,0,0,0,6.676,1.219c2.9-1.137,4.137-3.689,4.893-5.786a.5.5,0,0,0-.279-.65.561.561,0,0,0-.058-.019,13.748,13.748,0,0,0-4.947-1.062c-.119,0-.238,0-.358.006a6.544,6.544,0,0,0-5.942,3.605l-.018.034a2.61,2.61,0,0,0-.393,1.146c0,.114-.029.139-.131.191a24.473,24.473,0,0,0-2.254,1.3c-.03.021-.06.043-.09.067a.552.552,0,0,1-.134.09v-.031c.022-1.544.127-3.105.228-4.427.017-.231.081-.311.284-.356a2.941,2.941,0,0,0,.517-.183l.084-.036a5.822,5.822,0,0,0,3.693-6.8A11.3,11.3,0,0,0,26.588.164a.5.5,0,0,0-.706-.035.566.566,0,0,0-.042.043,13.892,13.892,0,0,0-3.21,3.842,6.553,6.553,0,0,0,1.085,8.072l.046.047a.9.9,0,0,0,.3.227c.106.04.113.074.1.217-.064.853-.121,1.706-.177,2.559-.016.246-.028.493-.039.737l-.013.258-.014-.011a18.9,18.9,0,0,0-2.264-1.687c-.089-.055-.106-.127-.126-.248a7.308,7.308,0,0,0-.52-1.691,5.939,5.939,0,0,0-6.672-3.607,11.806,11.806,0,0,0-4.752,2.085.512.512,0,0,0-.212.692.534.534,0,0,0,.056.084,14.057,14.057,0,0,0,3.059,3.687,6.512,6.512,0,0,0,8.695.041c.072-.058.085-.051.16,0l.044.031a22.714,22.714,0,0,1,2.328,1.819.468.468,0,0,1,.182.408,51.83,51.83,0,0,0,.153,5.258c.008.081-.006.1-.007.1a.214.214,0,0,1-.1.021l-.109.007c-.375.023-.764.046-1.143.1l-.4.051a11.172,11.172,0,0,0-3.307.768,5.42,5.42,0,0,0-3.392,4.385,8.05,8.05,0,0,0-.036,1.162c0,.158.006.317.005.476,0,.091-.008.12,0,.12a.233.233,0,0,1-.1-.035,18.528,18.528,0,0,1-4.316-2.74.429.429,0,0,0-.048-.036l-.009-.006h.125a3.647,3.647,0,0,0,3.686-2.53,8.641,8.641,0,0,0,.353-3.993.589.589,0,0,0-.849-.607,8.308,8.308,0,0,0-2.216.817,4.9,4.9,0,0,0-2.778,3.763c-.028.215-.035.432-.042.659v.09A13.582,13.582,0,0,1,7.743,22.95.539.539,0,0,1,7.82,22.3a5.57,5.57,0,0,0,1.2-3.889,8.593,8.593,0,0,0-3.048-5.574.532.532,0,0,0-.441-.18.6.6,0,0,0-.417.29,10.585,10.585,0,0,0-1.839,4.281,4.647,4.647,0,0,0,.813,3.751,5.524,5.524,0,0,0,2.238,1.678l.021.01c.109.047.188.082.23.187.107.266.226.53.34.786L7,23.83a5.038,5.038,0,0,0-1.847-.359A7.8,7.8,0,0,0,.21,25.536a.531.531,0,0,0-.21.4.568.568,0,0,0,.208.425,9.007,9.007,0,0,0,3.651,2.123,4.009,4.009,0,0,0,4.11-.973A6.35,6.35,0,0,0,8.775,26.5a14.6,14.6,0,0,0,1.932,1.912,19.765,19.765,0,0,0,4.622,2.821q.039.016.081.03c.11.036.128.052.128.1-.008.351-.023.7-.038,1.052l-.009.229c0,.032-.025.055-.087.106a1.982,1.982,0,0,0-.643,1.222,5.2,5.2,0,0,0,1.006,4.291.8.8,0,0,1,.178.31,11.635,11.635,0,0,0,2.376,4.78.542.542,0,0,1,.142.361c.009.9.027,1.7.052,2.44.006.174-.03.226-.2.274-1.064.313-2.126.635-3.187.957l-1.33.4A4.817,4.817,0,0,0,11,49.969a4.4,4.4,0,0,0,.264,5.026,10.526,10.526,0,0,0,3.525,2.494,21.8,21.8,0,0,0,6.9,1.778,31.256,31.256,0,0,0,3.266.174,27.034,27.034,0,0,0,7.694-1.083,13.137,13.137,0,0,0,5.107-2.63,4.482,4.482,0,0,0,1.45-1.947,4.6,4.6,0,0,0-.313-3.569,4.816,4.816,0,0,0-2.874-2.406c-1.567-.484-3.124-.953-4.573-1.387-.135-.042-.179-.075-.193-.206a18.007,18.007,0,0,1-.084-2.391.555.555,0,0,1,.16-.357,11.514,11.514,0,0,0,2.464-4.8.815.815,0,0,1,.141-.33A5.111,5.111,0,0,0,35.068,34.5a2.345,2.345,0,0,0-.747-1.772c-.055-.044-.058-.1-.062-.21,0-.147-.01-.294-.014-.441-.011-.358-.022-.729-.046-1.093-.012-.172.033-.242.209-.321a16.876,16.876,0,0,0,5.15-3.436c.145-.144.27-.269.318-.269s.141.144.26.315A3.656,3.656,0,0,0,43.7,29.042a7.266,7.266,0,0,0,4.16-2.113.49.49,0,0,0,.182-.385.585.585,0,0,0-.257-.437m-6.72.64V26.73l-.012.011-.083-.03c-.151-.052-.242-.122-.256-.2s.04-.163.157-.267l.062-.063.014-.021s.008-.013.048-.017l.068-.006.016-.065c.06-.238.231-.29.5-.355l.094-.022.021-.039a.791.791,0,0,1,.615-.344l.077-.017a4.737,4.737,0,0,1,1.934,0l.157.027a1.342,1.342,0,0,1,.492.143l.041.024c.064.033.074.043.077.071l.007.08.08.007h.107c.155,0,.212.011.247.12l.02.06.064.005h.07c.145,0,.195.015.22.114l.018.07h.073a.283.283,0,0,1,.087.008.067.067,0,0,1,.006.028l.006.082.082.006c.042,0,.046.009.049.015l.1.1h.032c.219.027.326.071.347.235V26.6l-.117-.156-.015.258c-.008.137-.07.153-.258.167h-.054l-.12.082V27c-.017.178-.134.235-.322.313a1.315,1.315,0,0,0-.186.088,5,5,0,0,1-1.62.625,3.449,3.449,0,0,1-.773.04,4.816,4.816,0,0,0-.576.011.534.534,0,0,1-.451-.282L42.2,27.76l-.21-.113-.051.048-.021.023a1.65,1.65,0,0,1-.814-.842V26.87h.391Zm.564-5.3a3.973,3.973,0,0,1,.246-4.487,7.166,7.166,0,0,1,1.169-1.372.781.781,0,0,1,.065-.059c.007,0,.015.008.041.048a6.535,6.535,0,0,1,1.2,3.171A3.045,3.045,0,0,1,42.57,21.72c-.125.065-.225.123-.308.17a.767.767,0,0,1-.28.128c-.042-.011-.114-.141-.206-.305-.041-.078-.092-.166-.15-.268Zm-3.141,4.831c-.017.144-.059.182-.206.186h-.093a3.9,3.9,0,0,1-1.119-.081,2.491,2.491,0,0,1-1.8-2.168,4.722,4.722,0,0,1-.125-1.366V22.1a.186.186,0,0,1,.041.008,4.7,4.7,0,0,1,2.993,2.158,3.312,3.312,0,0,1,.306,2.009ZM25.474,10.4l.043-.266a12.481,12.481,0,0,1,.343-1.6.746.746,0,0,0,.011-.6c-.077-.13-.225-.212-.512-.279l-.028-.006-.027.01a.725.725,0,0,0-.438.52,19.883,19.883,0,0,0-.552,2.892.7.7,0,0,0,0,.079V11.2a.585.585,0,0,0-.038-.049,5.523,5.523,0,0,1-.737-6.6,12.763,12.763,0,0,1,2.588-3.221c.04-.038.061-.049.063-.055a.27.27,0,0,1,.035.059l.016.024a8.46,8.46,0,0,1,2.621,5.4,4.493,4.493,0,0,1-2.254,4.06,5.227,5.227,0,0,1-1.248.608,9.372,9.372,0,0,1,.117-1.031Zm4.654,33.181a17.29,17.29,0,0,0,.125,3.135.664.664,0,0,0,.517.6l.805.242c1.393.416,2.834.847,4.241,1.3a3.471,3.471,0,0,1,1.052,6.254,12.487,12.487,0,0,1-4.758,2.321,27.52,27.52,0,0,1-10.463.777,20.828,20.828,0,0,1-6.275-1.59,9.519,9.519,0,0,1-2.943-1.907,3.324,3.324,0,0,1-.361-4.468A3.664,3.664,0,0,1,14,48.828q1.753-.537,3.508-1.067l1.512-.458c.447-.135.543-.267.538-.74q0-.437-.011-.875t-.011-.877v-.073a.451.451,0,0,1,0-.09l.1.079c.16.13.319.258.482.38a7.753,7.753,0,0,0,4.6,1.623h.024c.523,0,.644-.272.653-.5.007-.194-.067-.522-.643-.549a1.415,1.415,0,0,1-.183-.017l-.1-.009A6.273,6.273,0,0,1,20.807,44.3a10.473,10.473,0,0,1-3.861-6.028,1.362,1.362,0,0,0-.278-.562,4.164,4.164,0,0,1-.859-3.643.859.859,0,0,1,.407-.617.625.625,0,0,0,.3-.545,30.941,30.941,0,0,0,.084-3.445,4.538,4.538,0,0,1,3.577-4.742,17.39,17.39,0,0,1,4.985-.566,16.276,16.276,0,0,1,4.748.675,4.723,4.723,0,0,1,2.315,1.593,4.1,4.1,0,0,1,.909,2.6v.083c.005,1.214.011,2.468.08,3.7a.756.756,0,0,0,.391.694.752.752,0,0,1,.342.583,4.143,4.143,0,0,1-.851,3.592,1.516,1.516,0,0,0-.315.648,10.454,10.454,0,0,1-2.384,4.6,1,1,0,0,0-.271.65ZM29.012,14.589c0-.115.028-.153.119-.169l.167.028-.077-.164-.006-.012a.111.111,0,0,1,.026-.007l.047-.008.021-.043a1.924,1.924,0,0,0,.085-.2c.079-.21.141-.352.308-.4v.061l.457-.3-.262.023a.144.144,0,0,1,.04-.077.18.18,0,0,1,.144-.029l.093.062.035-.125a.544.544,0,0,1,.477-.434l-.084.51.2-.4.036.328.123-.565c.018-.084.049-.132.149-.135l-.08.258.315-.315h.012a.126.126,0,0,0,.061,0l.054-.019.022-.036.013-.044c0-.046.013-.057.1-.1l.044-.021a1.732,1.732,0,0,1,.365-.119,1.232,1.232,0,0,0,.623-.289c.327.01.655-.011.974-.033a5.24,5.24,0,0,1,1.615.054c.2.049.41.081.612.11a5.427,5.427,0,0,1,.817.166,7.7,7.7,0,0,1,1.628.435.2.2,0,0,1,.077.036l-.109.155.16-.027.083.147a.2.2,0,0,1-.077.01h-.035l-.025.018a.116.116,0,0,0-.045.137.5.5,0,0,1-.062.294l-.036.09a7.092,7.092,0,0,1-1.11,1.9l-.089.114a4.992,4.992,0,0,1-.556.641l-.043.043c-.062.065-.076.074-.117.056l-.067-.019-.031-.082-.028.065H36.17l-.031.087h-.046l.011.086c-.012.03-.022.062-.032.093-.022.07-.046.143-.084.162a.2.2,0,0,1-.129-.01l-.037-.01-.119.048.034.087a.079.079,0,0,1,.005.048,2.629,2.629,0,0,0-.391.26,1.869,1.869,0,0,1-.544.321c-.492.163-.92.314-1.306.46a.654.654,0,0,1-.549.008l-.025-.012-.214.024-.018.059c-.014.045-.022.049-.115.041h-.085a5.97,5.97,0,0,1-2.453-.467,3.656,3.656,0,0,1-.894-.481.493.493,0,0,1-.049-.042l.137.013-.318-.318L28.9,16.7c-.185-.023-.247-.057-.238-.221l-.043-.173-.009-.007a1.95,1.95,0,0,0,.244-.094,1.07,1.07,0,0,1,.425-.116h.037l.121-.107v-.036a.452.452,0,0,1,.02-.09.366.366,0,0,1,.08.03.586.586,0,0,0,.115.042l.066.1.074-.144c.067-.129.178-.146.353-.163l.117-.013.025-.028a.811.811,0,0,1,.466-.226q.1-.022.189-.051l.032-.011c.169-.054.451-.144.384-.453-.076-.346-.429-.328-.6-.32a1.274,1.274,0,0,0-.42.115.873.873,0,0,1-.46.093H29.85a2.606,2.606,0,0,0-.661.219,3.323,3.323,0,0,1-.331.134.514.514,0,0,0-.092.043.207.207,0,0,1-.086.034A.349.349,0,0,1,28.7,15a.463.463,0,0,1,.248-.219l.445-.183Zm-8.74-.947-.044-.023a14.21,14.21,0,0,0-2.313-.889c-.441-.125-.6-.057-.814.341l-.014.024.021.232.024.081a.8.8,0,0,0,.541.351,11.813,11.813,0,0,1,2.615,1.09,5.655,5.655,0,0,1-1.56.862,5.329,5.329,0,0,1-5.538-1.055A11.256,11.256,0,0,1,10.652,11.7c-.014-.017-.032-.036-.049-.054s-.036-.037-.048-.053a.587.587,0,0,1,.081-.036l.125-.079a9.363,9.363,0,0,1,4.035-1.6,4.7,4.7,0,0,1,3.846,1.107,5.517,5.517,0,0,1,1.672,2.679.282.282,0,0,1-.044-.026Zm-9.2,9.578c.024-.206.111-.3.293-.312H11.4l.024-.027.049-.047.142-.132.008-.026c.083-.255.2-.374.377-.39v.7l.219-.875c.031-.023.117-.013.168-.01l.109-.011.005-.119a.174.174,0,0,1,.008-.068,4.317,4.317,0,0,0,.422-.176,2.344,2.344,0,0,1,.764-.251l.144-.007.025-.049a.311.311,0,0,1,.245-.174.148.148,0,0,1,.137.052.174.174,0,0,0,.024.062l.015.024.024.012c.063.03.068.074.066.207v.545a5.364,5.364,0,0,1-.139,1.646c-.029.1-.052.2-.077.3a1.559,1.559,0,0,1-.384.84l-.026.025V25c-.018.219-.085.319-.238.357l-.062.028-.011.061c-.016.091-.033.185-.076.214a.188.188,0,0,1-.128,0l-.029-.007-.156.06-.015.036L13,25.815l-.012.026v.027c.007.058,0,.069-.1.1a.571.571,0,0,0-.128.065,2.414,2.414,0,0,1-1.673.365c-.111,0-.223-.006-.335-.006h-.187a.07.07,0,0,1-.011-.037v-.036l-.124-.106H10.4c-.03,0-.084-.014-.09-.141a4.41,4.41,0,0,1,.561-2.681.07.07,0,0,1,.085-.04l.268.043ZM6.207,21.388l.049.143a1.252,1.252,0,0,1-.885-.652l-.181-.393v.2l-.041-.044-.027-.006a.147.147,0,0,0-.087-.108h.037l-.223-.223.095-.1-.21-.014a.2.2,0,0,1-.145-.049c-.042-.047-.034-.15-.027-.249v-.03a.123.123,0,0,0-.032-.127l-.044-.062-.069.049-.009-.089H4.355a.034.034,0,0,1-.027-.023,5.316,5.316,0,0,1-.179-1.1l-.011-.11h.005c.015-.01.031-.021.043-.031l.033-.029V18l-.043-.027c-.087-.056-.083-.1-.03-.234a.576.576,0,0,0,.049-.2,1.436,1.436,0,0,1,.232-.878l.027-.062-.014-.036A1.76,1.76,0,0,1,4.547,16c.031-.1.063-.21.085-.318a.113.113,0,0,1,.109-.091l.2-.017-.124-.123L4.816,15.4c-.009-.061-.019-.13,0-.155a.157.157,0,0,1,.1-.032v-.036l.072-.071H5v-.011l.321-.321-.09.03-.027-.131c-.019-.094.005-.14.091-.169l.036-.012.147-.279.012-.088c0-.146.017-.165.1-.172h.031l.023-.02c.064-.055.082-.061.089-.054s.053.029.144.211l.071.078.086.151.047,0c.028,0,.036.009.04.043l.008.074.074.01c.034,0,.042.006.04.117a.338.338,0,0,1,0,.045v.079l.078.011h.025l.05.035.078.083h.036c.062.007.1.021.1.157V15l.1.181.046.007c.057.01.1.027.1.162v.08l.08.012c.06.008.106.025.1.158v.025l.1.182.042.011c.117.026.132.1.154.237a.87.87,0,0,0,.026.135l.008.03.026.02a1.167,1.167,0,0,1,.356.649c.021.068.041.136.064.2A4.637,4.637,0,0,1,8.082,19.3a5.282,5.282,0,0,1-.895,2.28,1.321,1.321,0,0,0-.077.131,1.263,1.263,0,0,1-.07.118l-.01-.064-.249-.012c-.04.006-.07,0-.108.009ZM5.143,14.8l.08.013-.067.022ZM7.918,25.879a5.182,5.182,0,0,1-.817.991,2.937,2.937,0,0,1-2.832.636,7.9,7.9,0,0,1-2.876-1.5c-.036-.028-.047-.045-.051-.046a.258.258,0,0,1,.065-.058,6.236,6.236,0,0,1,3.316-1.384h.05a4.326,4.326,0,0,1,3.105,1.123c.106.088.112.129.04.236Z" fill="#00ffe2"/>
      </g>
    </g>
  </g>
</svg>
