<svg xmlns="http://www.w3.org/2000/svg" width="21.419" height="18.262" viewBox="0 0 21.419 18.262">
  <g id="Group_6275" data-name="Group 6275" transform="translate(39.824 -663.686)">
    <path id="Path_14626" data-name="Path 14626" d="M-32.087,670.066h0a3.138,3.138,0,0,0,3.134,3.142,3.137,3.137,0,0,0,3.142-3.134,3.139,3.139,0,0,0-3.134-3.142h-.008a3.125,3.125,0,0,0-3.134,3.116Z" fill="#fff"/>
    <path id="Path_14627" data-name="Path 14627" d="M-31.723,673.136a10,10,0,0,1-.763-1.237,10.93,10.93,0,0,1-.424-1.442h0c-.014,0-.076-.008-.138-.008h-2.925a3.151,3.151,0,0,0-.539.058,4.019,4.019,0,0,0-3.3,3.975c-.008,1.009,0,2.019-.007,3.028a.281.281,0,0,0,.224.328l.017,0a22.445,22.445,0,0,0,3.421.742c.362.046.726.067,1.121.1C-35.242,676.008-34.223,674.1-31.723,673.136Z" fill="#fff" opacity="0.6"/>
    <path id="Path_14628" data-name="Path 14628" d="M-34.725,669.946a3.125,3.125,0,0,0,1.779-.384.4.4,0,0,0,.184-.244,3.826,3.826,0,0,1,1.291-2.185.391.391,0,0,0,.148-.34,3.135,3.135,0,0,0-3.131-3.094,3.122,3.122,0,0,0-3.133,2.87A3.13,3.13,0,0,0-34.725,669.946Z" fill="#fff" opacity="0.6"/>
    <path id="Path_14629" data-name="Path 14629" d="M-25.113,669.52a.251.251,0,0,0,.181.217,3.134,3.134,0,0,0,4.082-1.73,3.133,3.133,0,0,0,.229-1.159,3.137,3.137,0,0,0-3.111-3.162,3.138,3.138,0,0,0-3.155,2.914.247.247,0,0,0,.1.266A3.813,3.813,0,0,1-25.113,669.52Z" fill="#fff" opacity="0.6"/>
    <path id="Path_14630" data-name="Path 14630" d="M-21.444,670.577a4.33,4.33,0,0,0-.949-.123c-.883-.017-1.768-.006-2.675-.006a3.936,3.936,0,0,1-1.187,2.686l.217.08a4.748,4.748,0,0,1,2.972,3.091,6.245,6.245,0,0,1,.219,2.067v.36c.609-.068,1.185-.113,1.755-.2a9.39,9.39,0,0,0,2.686-.81v-3.677a1.383,1.383,0,0,1-.044-.156A4,4,0,0,0-21.444,670.577Z" fill="#fff" opacity="0.6"/>
    <path id="Path_14631" data-name="Path 14631" d="M-23.6,680.741c-.01-.559,0-1.116,0-1.672h0v-.5a7.53,7.53,0,0,0-.158-1.969,4,4,0,0,0-3.476-2.882c-1.1-.047-2.2-.055-3.3-.007a3.944,3.944,0,0,0-2.091.723,3.957,3.957,0,0,0-1.669,3.155c-.021,1-.007,2.007-.007,3.007,0,.416,0,.415.4.535a16.865,16.865,0,0,0,7.588.644,9.56,9.56,0,0,0,2.518-.725A.288.288,0,0,0-23.6,680.741Z" fill="#fff"/>
  </g>
</svg>
