<svg id="Group_59483" data-name="Group 59483" xmlns="http://www.w3.org/2000/svg" xmlns:xlink="http://www.w3.org/1999/xlink" width="36.775" height="51.798" viewBox="0 0 36.775 51.798">
  <defs>
    <clipPath id="clip-path">
      <rect id="Rectangle_6740" data-name="Rectangle 6740" width="36.775" height="51.798" fill="none"/>
    </clipPath>
  </defs>
  <g id="Group_59482" data-name="Group 59482" transform="translate(0 0)" clip-path="url(#clip-path)">
    <path id="Path_44138" data-name="Path 44138" d="M31.987,3.1H27.349V.762A.762.762,0,0,0,26.587,0h-16.4a.763.763,0,0,0-.762.762V3.1H4.787A4.793,4.793,0,0,0,0,7.89V47.011A4.792,4.792,0,0,0,4.787,51.8h27.2a4.793,4.793,0,0,0,4.788-4.787V7.89A4.793,4.793,0,0,0,31.987,3.1M10.95,1.524H25.826V6.206H10.95Zm24.3,45.487a3.267,3.267,0,0,1-3.264,3.263H4.787a3.267,3.267,0,0,1-3.263-3.263V7.89A3.267,3.267,0,0,1,4.787,4.627H9.426V6.967a.763.763,0,0,0,.762.762h16.4a.762.762,0,0,0,.761-.762V4.627h4.639A3.267,3.267,0,0,1,35.251,7.89Z" transform="translate(0 0)" fill="#fff"/>
    <path id="Path_44139" data-name="Path 44139" d="M31.681,57.437H13.29a.707.707,0,0,1,0-1.415H31.681a.707.707,0,0,1,0,1.415" transform="translate(-3.682 -16.391)" fill="#fff"/>
    <path id="Path_44140" data-name="Path 44140" d="M31.681,63.748H13.29a.707.707,0,0,1,0-1.415H31.681a.707.707,0,0,1,0,1.415" transform="translate(-3.682 -18.237)" fill="#fff"/>
    <path id="Path_44141" data-name="Path 44141" d="M22.582,18.247A10.612,10.612,0,1,0,33.194,28.858,10.612,10.612,0,0,0,22.582,18.247m5.491,8.064-7.794,7.6-3.836-3.5a1.061,1.061,0,0,1,1.43-1.568l2.358,2.149,6.36-6.2a1.061,1.061,0,0,1,1.481,1.52" transform="translate(-3.502 -5.339)" fill="#ffba2f"/>
  </g>
</svg>
