<svg xmlns="http://www.w3.org/2000/svg" xmlns:xlink="http://www.w3.org/1999/xlink" width="52.76" height="52.877" viewBox="0 0 52.76 52.877">
  <defs>
    <clipPath id="clip-path">
      <rect id="Rectangle_6725" data-name="Rectangle 6725" width="52.76" height="52.877" fill="#fff"/>
    </clipPath>
    <clipPath id="clip-path-2">
      <rect id="Rectangle_6726" data-name="Rectangle 6726" width="28.215" height="23.399" fill="#ffba2f"/>
    </clipPath>
  </defs>
  <g id="Group_59466" data-name="Group 59466" transform="translate(-47.602 -307.795)">
    <g id="Group_59459" data-name="Group 59459" transform="translate(47.602 307.795)">
      <g id="Group_59458" data-name="Group 59458" clip-path="url(#clip-path)">
        <path id="Path_44094" data-name="Path 44094" d="M49.053,20.435H48.06A2.062,2.062,0,0,1,46.1,19c-.166-.507-.358-1.015-.566-1.517a2.051,2.051,0,0,1,.449-2.238l.668-.668a3.675,3.675,0,0,0,0-5.176l-3.29-3.3a3.688,3.688,0,0,0-5.192,0l-.3.3a2.051,2.051,0,0,1-2.361.39c-.6-.294-1.228-.561-1.848-.8a2.056,2.056,0,0,1-1.314-1.9V3.669A3.67,3.67,0,0,0,28.682,0H24.035a3.669,3.669,0,0,0-3.643,3.669V4.1a2.056,2.056,0,0,1-1.314,1.917,20.135,20.135,0,0,0-1.891.785,2.056,2.056,0,0,1-2.361-.4l-.3-.3a3.675,3.675,0,0,0-5.192,0L6.046,9.406a3.675,3.675,0,0,0,0,5.176l.668.668a2.051,2.051,0,0,1,.449,2.238c-.208.491-.4,1-.566,1.517a2.062,2.062,0,0,1-1.96,1.431H3.664A3.67,3.67,0,0,0,0,24.1v4.679a3.67,3.67,0,0,0,3.664,3.669h1.7a2.03,2.03,0,0,1,1.88,1.223c.15.342.3.684.465,1.015a2.046,2.046,0,0,1-.39,2.361L6.068,38.28a3.675,3.675,0,0,0,0,5.176l3.29,3.3a3.688,3.688,0,0,0,5.192,0l1.6-1.6a2.072,2.072,0,0,1,2.259-.443c.208.091.422.176.636.256a2.078,2.078,0,0,1,1.346,1.966v2.281a3.664,3.664,0,0,0,3.664,3.664H28.7a3.664,3.664,0,0,0,3.664-3.664V46.933A2.056,2.056,0,0,1,33.713,45c.214-.08.427-.166.636-.256a2.061,2.061,0,0,1,2.259.443l1.6,1.6a3.664,3.664,0,0,0,5.181.01l.01-.01,3.29-3.3a3.675,3.675,0,0,0,0-5.176l-1.25-1.255a2.056,2.056,0,0,1-.39-2.361c.16-.331.315-.668.465-1.015a2.03,2.03,0,0,1,1.88-1.223h1.7a3.67,3.67,0,0,0,3.664-3.669V24.1a3.669,3.669,0,0,0-3.675-3.664h-.032m2.062,8.343a2.067,2.067,0,0,1-2.062,2.067h-1.7A3.621,3.621,0,0,0,44,33.046c-.139.315-.278.63-.433.935a3.67,3.67,0,0,0,.694,4.2L45.5,39.434a2.061,2.061,0,0,1,0,2.911l-3.274,3.306a2.136,2.136,0,0,1-2.922,0l-1.6-1.6a3.658,3.658,0,0,0-4.006-.8c-.2.085-.39.16-.588.235a3.691,3.691,0,0,0-2.382,3.429V49.2a2.062,2.062,0,0,1-2.062,2.062H24.014a2.062,2.062,0,0,1-2.019-2.046V46.933A3.7,3.7,0,0,0,19.618,43.5c-.2-.075-.4-.15-.593-.235a3.685,3.685,0,0,0-1.421-.283,3.638,3.638,0,0,0-2.585,1.068l-1.6,1.6a2.067,2.067,0,0,1-2.922,0L7.2,42.345a2.072,2.072,0,0,1,0-2.911l1.255-1.255a3.669,3.669,0,0,0,.721-4.171c-.15-.3-.294-.62-.433-.935a3.621,3.621,0,0,0-3.354-2.2H3.664A2.067,2.067,0,0,1,1.6,28.8V24.1a2.062,2.062,0,0,1,2.062-2.062h.993A3.664,3.664,0,0,0,8.145,19.5a13.013,13.013,0,0,1,.534-1.4,3.642,3.642,0,0,0-.79-3.979L7.2,13.449a2.072,2.072,0,0,1,0-2.911l3.3-3.306a2.136,2.136,0,0,1,2.922,0l.3.3a3.654,3.654,0,0,0,4.2.705,18.314,18.314,0,0,1,1.7-.742,3.659,3.659,0,0,0,2.371-3.4V3.669A2.067,2.067,0,0,1,24.056,1.6H28.7a2.067,2.067,0,0,1,2.04,2.067V4.1a3.659,3.659,0,0,0,2.35,3.413,18.542,18.542,0,0,1,1.72.726,3.654,3.654,0,0,0,4.2-.705l.3-.3a2.067,2.067,0,0,1,2.922,0L45.5,10.538a2.061,2.061,0,0,1,0,2.911l-.673.673a3.642,3.642,0,0,0-.79,3.979c.192.465.369.935.534,1.4a3.669,3.669,0,0,0,3.488,2.537h.993A2.062,2.062,0,0,1,51.109,24.1Z" fill="#fff"/>
      </g>
    </g>
    <g id="Group_59461" data-name="Group 59461" transform="translate(59.874 322.533)">
      <g id="Group_59460" data-name="Group 59460" clip-path="url(#clip-path-2)">
        <path id="Path_44098" data-name="Path 44098" d="M10.212,0A3.153,3.153,0,0,0,7.161,2.329,3.987,3.987,0,0,0,2.564,7.5a4.748,4.748,0,0,0-.277,8.276,3.976,3.976,0,0,0,4.948,5.555,3.171,3.171,0,0,0,6.143-1.08V3.166A3.166,3.166,0,0,0,10.212,0M1.188,10.865q.04-.177.1-.35-.057.173-.1.35M7.073,3.429a2.268,2.268,0,0,0,.046.357,2.268,2.268,0,0,1-.046-.357q-.084-.024-.167-.043.084.019.167.043M7,9.467a.742.742,0,0,1-.135.075A.742.742,0,0,0,7,9.467m-.238.113a1.577,1.577,0,0,1-.17.042,1.593,1.593,0,0,0,.17-.042m-3.27,6.337a2.832,2.832,0,0,0-.568,1.429,2.832,2.832,0,0,1,.568-1.429,2.5,2.5,0,0,1,1.794-.625,2.5,2.5,0,0,0-1.794.625M7.072,9.4a.47.47,0,0,0,.085-.118.47.47,0,0,1-.085.118M8.945,4.663a1.775,1.775,0,0,1-.5-.5,2.211,2.211,0,0,1-.11-.209,2.024,2.024,0,0,0,.612.714M8.61,5.736q-.091-.05-.18-.109.09.059.18.109M8.35,2.258a2.325,2.325,0,0,0-.2.8c0,.029-.005.058-.007.087a1.938,1.938,0,0,1,.2-.887m-.872,2.4q-.063-.1-.118-.2t-.1-.214q.046.109.1.214t.118.2a3.161,3.161,0,0,0,.279.376,3.161,3.161,0,0,1-.279-.376m.774.844A3.251,3.251,0,0,1,8,5.282a3.251,3.251,0,0,0,.257.218M8.145,20.4c0,.025,0,.05.008.075a2.039,2.039,0,0,0,.622,1.267,2,2,0,0,1-.63-1.342m.406-1.36c.044-.064.09-.128.142-.191a1.986,1.986,0,0,1,.376-.316,2.074,2.074,0,0,0-.518.508M9.233,5.974q-.064-.012-.13-.031.066.018.13.031a.52.52,0,0,0,.053.012.52.52,0,0,1-.053-.012M9.9,5.589a.527.527,0,0,1-.017.053A.527.527,0,0,0,9.9,5.589a.549.549,0,0,0,.016-.109.549.549,0,0,1-.016.109M10.267,18a.554.554,0,0,1-.07.078.55.55,0,0,0,.125-.169.554.554,0,0,1-.054.09M9.519,1.218A2.057,2.057,0,0,1,11.3,1.4a2.206,2.206,0,0,0-1.786-.183m2.772,19.026h-.007V3.159a2.294,2.294,0,0,0-.19-.878,2.047,2.047,0,0,1,.2.878Z" transform="translate(0)" fill="#ffba2f"/>
        <path id="Path_44099" data-name="Path 44099" d="M230.393,7.681a3.991,3.991,0,0,0-4.6-5.171,3.168,3.168,0,0,0-6.217.837V20.432a3.167,3.167,0,0,0,6.136,1.08,3.977,3.977,0,0,0,4.948-5.555,4.73,4.73,0,0,0-.27-8.276m-.547.945h0a2,2,0,0,1-.349.365,2,2,0,0,0,.349-.365m-1.9,1.152c-.074.02-.147.037-.219.052.072-.014.145-.032.219-.052M227.5,3.642a2.693,2.693,0,0,0-.287-.079,2.693,2.693,0,0,1,.287.079m-.187,6.238a1.7,1.7,0,0,1-.191,0l-.193-.011.193.011a1.7,1.7,0,0,0,.191,0m-1.433-6.262a2.7,2.7,0,0,1,.847-.113,2.7,2.7,0,0,0-.847.113q0,.106-.02.21.015-.1.02-.21m.662,6.215c-.08-.01-.157-.022-.23-.038.073.016.15.029.23.038m-.285-1.165a.547.547,0,0,1,.163.02c.033.012.068.022.1.032-.035-.01-.069-.02-.1-.032a.547.547,0,0,0-.163-.02m-.015,1.11a1.066,1.066,0,0,1-.206-.076,1.066,1.066,0,0,0,.206.076m-.4-5.847q-.019.1-.048.2.028-.1.048-.2m-1.086-1a2.553,2.553,0,0,1,.043.32c0,.04,0,.08,0,.121,0-.041,0-.081,0-.121a2.553,2.553,0,0,0-.043-.32,2.313,2.313,0,0,0-.079-.291,2.313,2.313,0,0,1,.079.291m-.126-.416q-.037-.088-.08-.17.043.082.08.17m-.72-.875a1.924,1.924,0,0,1,.2.154,1.924,1.924,0,0,0-.2-.154,2,2,0,0,0-.3-.16,2,2,0,0,1,.3.16m-3.242,1.711h0a2.065,2.065,0,0,1,2.868-1.9,2.065,2.065,0,0,0-2.868,1.9m2.383,2.43a.538.538,0,0,1-.011-.054.538.538,0,0,0,.011.054.521.521,0,0,0,.039.105.521.521,0,0,1-.039-.105m.668.385a.5.5,0,0,1-.127.02.5.5,0,0,0,.127-.02l.075-.016q.075-.018.153-.045-.077.026-.153.045l-.075.016m.145,11.319q.128.049.252.11-.124-.061-.252-.11M224.7,5.689a3,3,0,0,1-.357.236,3,3,0,0,0,.357-.236,3.291,3.291,0,0,0,.257-.218,3.291,3.291,0,0,1-.257.218m.775-.844a3.177,3.177,0,0,1-.28.376,3.177,3.177,0,0,0,.28-.376,2.857,2.857,0,0,0,.219-.418,2.851,2.851,0,0,1-.219.418m.333,10.748a.534.534,0,0,0,.1.129.534.534,0,0,1-.1-.129m.475.275a.556.556,0,0,0,.274-.072,1.981,1.981,0,0,1,.791-.286,2.739,2.739,0,0,0-.791.286.556.556,0,0,1-.274.072m.548,4.81a2.919,2.919,0,0,0,2.059-.58,2.758,2.758,0,0,1-2.059.58m2-4.988a1.955,1.955,0,0,1,.636.416,3.105,3.105,0,0,1,.247.388,2.086,2.086,0,0,0-.883-.8m1.207,2.32c0-.063,0-.126,0-.19a2.828,2.828,0,0,0-.011-.329,2.686,2.686,0,0,1,.008.519m-.085-2.917h0a3.693,3.693,0,0,0-3.942-.243.54.54,0,0,0-.238.665.555.555,0,0,1,.231-.671,3.693,3.693,0,0,1,3.942.243,3.625,3.625,0,0,0,1.674-4.508,3.623,3.623,0,0,1-1.668,4.515" transform="translate(-204.757 -0.188)" fill="#ffba2f"/>
      </g>
    </g>
  </g>
</svg>
