<svg xmlns="http://www.w3.org/2000/svg" width="51.856" height="50.858" viewBox="0 0 51.856 50.858">
  <g id="Group_5290" data-name="Group 5290" transform="translate(-646.565 -459.223)">
    <g id="Group_5289" data-name="Group 5289" transform="translate(651.989 459.223)">
      <path id="Path_11115" data-name="Path 11115" d="M683.928,494.014H657.743V460.581h14.942l11.243,10.947Z" transform="translate(-649.978 -458.979)" fill="#ffdc6c"/>
      <g id="Group_5288" data-name="Group 5288">
        <path id="Path_11116" data-name="Path 11116" d="M684.528,470.82c-3.064-3.043-6.683-6.646-10.289-10.3a4.161,4.161,0,0,0-3.221-1.3c-2.355.027-4.711.024-7.07.017q-1.664,0-3.328,0c-2.652,0-3.889,1.227-3.892,3.855q-.009,6.49,0,12.982v2.164c0,.208-.037,2.379-.022,2.591h2.082V463.4c0-1.764.293-2.052,2.089-2.052h10.709v3.639q0,2.389,0,4.778a3.311,3.311,0,0,0,3.536,3.626c1.323.03,2.645.022,3.968.017.59,0,1.209,0,1.766-.006h2.7l.042.674c.016.236.031.437.031.636q0,8.465,0,16.928c0,1.568-.344,1.907-1.938,1.907H661.4c-2.468,0-2.616-.147-2.616-2.618V485.2h-2.043l0,.019-.006,2.961c-.008,1.271-.015,2.541,0,3.813a3.335,3.335,0,0,0,3.692,3.659q10.788.011,21.58,0c2.376,0,3.688-1.3,3.694-3.654q.009-4.246,0-8.491,0-4.911.008-9.824A3.787,3.787,0,0,0,684.528,470.82Zm-10.9-5.341c0-.531.006-1.07.006-1.619v-.781l8.177,8.211-2.312,0c-.5,0-1,.006-1.507.006-1.052,0-2.117-.012-3.166-.058-.508-.021-1.131-.811-1.154-1.308C673.61,468.468,673.618,467.016,673.627,465.479Z" transform="translate(-650.166 -459.223)"/>
        <path id="Path_11117" data-name="Path 11117" d="M672.247,470.654c1.049.046,2.113.058,3.166.058.506,0,1.009,0,1.507-.006l2.312,0-8.177-8.211v.781c0,.549,0,1.088-.006,1.619-.008,1.537-.016,2.99.045,4.455C671.115,469.844,671.738,470.633,672.247,470.654Zm-.871-7.382,7.078,7.107c-2.087,0-4.144.042-6.193-.047-.309-.013-.829-.639-.845-1C671.332,467.365,671.376,465.392,671.376,463.272Z" transform="translate(-647.587 -458.635)" fill="#fff"/>
        <path id="Path_11118" data-name="Path 11118" d="M664.309,484.9c1.351.008,2.7.007,4.054,0h3.37c1.375,0,2.748,0,4.122,0,.818,0,1.292-.374,1.3-1.011a.954.954,0,0,0-.26-.7,1.374,1.374,0,0,0-1-.348q-5.823-.027-11.645,0a1.367,1.367,0,0,0-1,.346.961.961,0,0,0-.256.708C663.016,484.53,663.493,484.9,664.309,484.9Z" transform="translate(-649.033 -454.978)"/>
        <path id="Path_11119" data-name="Path 11119" d="M677.157,475.241a.92.92,0,0,0-.25-.689,1.507,1.507,0,0,0-1.1-.37c-1.315-.007-2.626-.006-3.939,0h-5.187q-1.164,0-2.33,0a1.515,1.515,0,0,0-1.1.368.92.92,0,0,0-.251.687c.016.894.82,1.031,1.3,1.032q5.777.021,11.555,0C676.333,476.268,677.138,476.132,677.157,475.241Z" transform="translate(-649.033 -456.534)"/>
        <path id="Path_11120" data-name="Path 11120" d="M653.2,478.526c-.93,0-2.038.183-2.039,1.018s1.111,1.021,2.045,1.023c1.841,0,3.682,0,5.524,0l.011-2.045h-1.753Q655.094,478.521,653.2,478.526Z" transform="translate(-651.162 -455.752)"/>
        <path id="Path_11121" data-name="Path 11121" d="M670.562,480.567a1.493,1.493,0,0,0,.975-.293.906.906,0,0,0,.31-.732c0-.634-.484-1.013-1.29-1.017-1.35-.007-7.553,0-8.905,0h-4.065l-.007,2.045C660.289,480.57,667.852,480.575,670.562,480.567Z" transform="translate(-650.008 -455.752)"/>
        <path id="Path_11122" data-name="Path 11122" d="M672.184,469.772c1.53.066,3.105.059,4.633.051l.765,0-5.983-6.007c0,.283,0,.564,0,.842-.008,1.529-.017,2.974.045,4.423A1.208,1.208,0,0,0,672.184,469.772Z" transform="translate(-647.488 -458.397)" fill="#fefdfd"/>
        <path id="Path_11123" data-name="Path 11123" d="M672.212,470.213c2.049.09,4.106.047,6.193.047l-7.078-7.107c0,2.12-.044,4.093.04,6.06C671.382,469.574,671.9,470.2,672.212,470.213Zm-.568-5.438c0-.279,0-.559,0-.842l5.983,6.007-.765,0c-1.528.008-3.1.015-4.633-.051a1.208,1.208,0,0,1-.544-.693C671.628,467.75,671.636,466.3,671.644,464.775Z" transform="translate(-647.538 -458.516)" fill="#fefdfd"/>
      </g>
    </g>
    <ellipse id="Ellipse_537" data-name="Ellipse 537" cx="25.928" cy="3.551" rx="25.928" ry="3.551" transform="translate(646.565 502.978)" opacity="0.15" style="mix-blend-mode: normal;isolation: isolate"/>
    <path id="Path_11124" data-name="Path 11124" d="M654.347,483.329l-3.319-3.319,3.211-3.211" transform="translate(0.803 3.161)" fill="none" stroke="#000" stroke-linecap="round" stroke-linejoin="round" stroke-width="1.2"/>
  </g>
</svg>
