<svg id="focus_553188" xmlns="http://www.w3.org/2000/svg" width="73" height="73.163" viewBox="0 0 73 73.163">
  <path id="Path_42178" data-name="Path 42178" d="M29.649,107.823A20.154,20.154,0,0,0,8.958,127.97c0,.033,1.77,3.539,1.77,3.539l-1.77,16.222H15.84v10.028h11.8v7.814H49.266V128.184A20.29,20.29,0,0,0,29.649,107.823Z" transform="translate(-7.76 -92.409)" fill="#fdd8a8"/>
  <rect id="Rectangle_6304" data-name="Rectangle 6304" width="10.224" height="2.866" transform="translate(19.878 65.35)" fill="#ffc477"/>
  <path id="Path_42179" data-name="Path 42179" d="M37.077,144.087h-2.15a17.082,17.082,0,0,1,.138-2.165l2.132.274A14.923,14.923,0,0,0,37.077,144.087Zm.51-3.854-2.075-.561a16.908,16.908,0,0,1,15.337-12.484l.127,2.146A14.76,14.76,0,0,0,37.586,140.233Z" transform="translate(-30.018 -109.012)" fill="#fff"/>
  <path id="Path_42180" data-name="Path 42180" d="M195.888,117.5a22.217,22.217,0,0,0,12.838,26.738v-7.754A20.42,20.42,0,0,0,195.888,117.5Z" transform="translate(-167.219 -100.707)" fill="#ffc477"/>
  <path id="Path_42181" data-name="Path 42181" d="M234.409,64.27a19.348,19.348,0,1,1,19.348-19.348A19.37,19.37,0,0,1,234.409,64.27Z" transform="translate(-184.411 -21.92)" fill="#fe635f"/>
  <path id="Path_42182" data-name="Path 42182" d="M260.2,85.76a15.048,15.048,0,1,1,15.048-15.048A15.065,15.065,0,0,1,260.2,85.76Z" transform="translate(-210.2 -47.709)" fill="#fff"/>
  <path id="Path_42183" data-name="Path 42183" d="M285.987,107.249A10.749,10.749,0,1,1,296.735,96.5,10.761,10.761,0,0,1,285.987,107.249Z" transform="translate(-235.989 -73.498)" fill="#fe635f"/>
  <path id="Path_42184" data-name="Path 42184" d="M311.775,128.738a6.449,6.449,0,1,1,6.449-6.449A6.457,6.457,0,0,1,311.775,128.738Z" transform="translate(-261.777 -99.287)" fill="#fff"/>
  <path id="Path_42185" data-name="Path 42185" d="M337.564,150.227a2.15,2.15,0,1,1,2.15-2.15A2.152,2.152,0,0,1,337.564,150.227Z" transform="translate(-287.566 -125.075)" fill="#fe635f"/>
  <path id="Path_42186" data-name="Path 42186" d="M374.143,199.229l.4,2.113a20.476,20.476,0,0,0,16.289-16.289l-2.113-.4A18.385,18.385,0,0,1,374.143,199.229Z" transform="translate(-320.761 -158.269)"/>
  <path id="Path_42187" data-name="Path 42187" d="M212.119,184.655l-2.113.4a20.477,20.477,0,0,0,16.289,16.289l.4-2.113A18.385,18.385,0,0,1,212.119,184.655Z" transform="translate(-180.078 -158.268)"/>
  <path id="Path_42188" data-name="Path 42188" d="M388.715,37.2l2.113-.4a20.477,20.477,0,0,0-16.289-16.289l-.4,2.113A18.384,18.384,0,0,1,388.715,37.2Z" transform="translate(-320.76 -17.586)"/>
  <path id="Path_42189" data-name="Path 42189" d="M226.692,22.63l-.4-2.113a20.477,20.477,0,0,0-16.289,16.289l2.113.4A18.385,18.385,0,0,1,226.692,22.63Z" transform="translate(-180.078 -17.585)"/>
  <path id="Path_42190" data-name="Path 42190" d="M383.986,63.728l2.088-.512A16.174,16.174,0,0,0,374.253,51.4l-.512,2.088A14.115,14.115,0,0,1,383.986,63.728Z" transform="translate(-320.416 -44.053)"/>
  <path id="Path_42191" data-name="Path 42191" d="M245.135,55.662a16.11,16.11,0,0,0-4.265,7.555l2.088.512A14.115,14.115,0,0,1,253.2,53.486l-.512-2.088A16.122,16.122,0,0,0,245.135,55.662Z" transform="translate(-206.532 -44.053)"/>
  <path id="Path_42192" data-name="Path 42192" d="M381.809,192.32a16.11,16.11,0,0,0,4.265-7.555l-2.088-.512A14.115,14.115,0,0,1,373.741,194.5l.512,2.088A16.124,16.124,0,0,0,381.809,192.32Z" transform="translate(-320.416 -157.924)"/>
  <path id="Path_42193" data-name="Path 42193" d="M242.957,184.254l-2.088.512a16.174,16.174,0,0,0,11.821,11.819l.512-2.088A14.115,14.115,0,0,1,242.957,184.254Z" transform="translate(-206.531 -157.925)"/>
  <path id="Path_42194" data-name="Path 42194" d="M272.463,90.178l2.026.719a9.785,9.785,0,0,1,5.9-5.9l-.719-2.026A11.955,11.955,0,0,0,272.463,90.178Z" transform="translate(-233.61 -71.118)"/>
  <path id="Path_42195" data-name="Path 42195" d="M378.912,90.9l2.026-.719a11.954,11.954,0,0,0-7.2-7.2L373.016,85A9.785,9.785,0,0,1,378.912,90.9Z" transform="translate(-319.795 -71.118)"/>
  <path id="Path_42196" data-name="Path 42196" d="M380.938,184.249l-2.026-.719a9.785,9.785,0,0,1-5.9,5.9l.719,2.026A11.954,11.954,0,0,0,380.938,184.249Z" transform="translate(-319.795 -157.304)"/>
  <path id="Path_42197" data-name="Path 42197" d="M274.488,183.531l-2.026.719a11.954,11.954,0,0,0,7.2,7.2l.719-2.026A9.785,9.785,0,0,1,274.488,183.531Z" transform="translate(-233.61 -157.305)"/>
  <path id="Path_42198" data-name="Path 42198" d="M305.328,108.317a7.524,7.524,0,1,0,7.524,7.524A7.533,7.533,0,0,0,305.328,108.317Zm0,12.9a5.374,5.374,0,1,1,5.374-5.374A5.38,5.38,0,0,1,305.328,121.216Z" transform="translate(-255.33 -92.839)"/>
  <path id="Path_42199" data-name="Path 42199" d="M331.117,138.405a3.225,3.225,0,1,0,3.225,3.225A3.228,3.228,0,0,0,331.117,138.405Zm0,4.3a1.075,1.075,0,1,1,1.075-1.075A1.076,1.076,0,0,1,331.117,142.7Z" transform="translate(-281.119 -118.627)"/>
  <rect id="Rectangle_6305" data-name="Rectangle 6305" width="12.97" height="2.15" transform="translate(60.03 21.928)"/>
  <rect id="Rectangle_6306" data-name="Rectangle 6306" width="12.97" height="2.15" transform="translate(26.995 21.928)"/>
  <rect id="Rectangle_6307" data-name="Rectangle 6307" width="2.15" height="12.97" transform="translate(48.923 33.034)"/>
  <rect id="Rectangle_6308" data-name="Rectangle 6308" width="2.15" height="12.97" transform="translate(48.923)"/>
  <rect id="Rectangle_6309" data-name="Rectangle 6309" width="2.15" height="28.861" transform="translate(40.433 44.302)"/>
  <path id="Path_42200" data-name="Path 42200" d="M20.449,150.234H9.726V140.206H2.968l1.674-15.347-.143-.284c-.538-1.066-1.372-2.725-1.653-3.295a19.064,19.064,0,0,1,25.363-17.769l.716-2.027A21.224,21.224,0,0,0,.694,121.52c0,.275,0,.275,1,2.264.288.573.576,1.145.742,1.475l-1.865,17.1H7.577v10.028h11.8v6.739h2.15v-6.739h9.15v-2.15H20.449Z" transform="translate(-0.571 -85.959)"/>
  <rect id="Rectangle_6310" data-name="Rectangle 6310" width="2.15" height="2.15" transform="matrix(-0.707, -0.707, 0.707, -0.707, 14.404, 40.482)"/>
  <rect id="Rectangle_6311" data-name="Rectangle 6311" width="2.15" height="2.15" transform="translate(11.361 40.481) rotate(45)"/>
  <path id="Path_42201" data-name="Path 42201" d="M122.246,201.378V194.57h-6.807v2.15h3.138l-5.867,5.867,1.52,1.52,5.867-5.867v3.138Z" transform="translate(-96.685 -166.767)"/>
  <rect id="Rectangle_6312" data-name="Rectangle 6312" width="2.15" height="2.15" transform="translate(16.847 53.771) rotate(-45)"/>
  <rect id="Rectangle_6313" data-name="Rectangle 6313" width="2.15" height="2.15" transform="translate(19.886 50.733) rotate(-45)"/>
  <path id="Path_42202" data-name="Path 42202" d="M163.543,285.47h3.138l-4.955,4.955,1.52,1.52,4.955-4.955v3.138h2.15V283.32h-6.807Z" transform="translate(-138.697 -242.834)"/>
</svg>
