<svg id="Group_59468" data-name="Group 59468" xmlns="http://www.w3.org/2000/svg" xmlns:xlink="http://www.w3.org/1999/xlink" width="40.375" height="40" viewBox="0 0 40.375 40">
  <defs>
    <clipPath id="clip-path">
      <rect id="Rectangle_6727" data-name="Rectangle 6727" width="40.375" height="40" fill="none"/>
    </clipPath>
  </defs>
  <g id="Group_59467" data-name="Group 59467" clip-path="url(#clip-path)">
    <path id="Path_44104" data-name="Path 44104" d="M39.541,8.707,36.723,5.913a3.058,3.058,0,0,0-4.309,0L21.308,17.018l-6.275,6.275L4.8,33.522l-.118.189-2.6,9.045a.492.492,0,0,0,.474.616l4.736-1.35c.687-.284,4.381-1.137,4.641-1.4L22.137,30.42l6.3-6.3L39.541,13.016a3.058,3.058,0,0,0,0-4.309M15.707,23.969l6.277-6.277,7.825-7.825L32.366,12.4l-7.832,7.832-6.285,6.285L8.38,36.387,5.822,33.854ZM3.241,42.188l.852-2.912,2.06,2.084ZM7.2,41.052,4.378,38.234l.994-3.457,2.7,2.676,2.6,2.6Zm20.56-17.608-6.3,6.293-9.88,9.87L9.043,37.074l9.879-9.879,6.288-6.288,7.819-7.819,2.557,2.534Zm11.1-11.091-2.6,2.581L30.5,9.181l2.6-2.6a2.115,2.115,0,0,1,2.96,0l2.794,2.818a2.094,2.094,0,0,1,0,2.96" transform="translate(-1.388 -3.372)" fill="#fff"/>
    <path id="Path_44105" data-name="Path 44105" d="M17.505,11.006a8.619,8.619,0,0,0-2.3-8.446A9.035,9.035,0,0,0,6.4.355a.455.455,0,0,0-.189.766l4.073,4.014L5.24,10.077l-4.1-3.991a.472.472,0,0,0-.781.185A8.609,8.609,0,0,0,2.612,14.9a9.043,9.043,0,0,0,8.619,2.251l2.518,2.436,6.172-6.218Z" transform="translate(0.268 0)" fill="#ffba2f"/>
    <path id="Path_44106" data-name="Path 44106" d="M80.324,66.227a9.057,9.057,0,0,0-8.619-2.251l-2.074-2.025L63.4,68.19l2.006,1.959a8.592,8.592,0,0,0,2.32,8.447,9,9,0,0,0,6.3,2.552,9.192,9.192,0,0,0,2.486-.348.471.471,0,0,0,.213-.789L72.629,76,77.7,71.054l4.073,4.014a.486.486,0,0,0,.805-.209,8.674,8.674,0,0,0-2.249-8.632" transform="translate(-42.221 -41.577)" fill="#ffba2f"/>
  </g>
</svg>
