<svg xmlns="http://www.w3.org/2000/svg" width="83.833" height="95.872" viewBox="0 0 83.833 95.872">
  <g id="Group_5594" data-name="Group 5594" transform="translate(-283 -377.059)">
    <g id="Group_338" data-name="Group 338" transform="translate(-1186.053 1671.342)">
      <circle id="Ellipse_66" data-name="Ellipse 66" cx="33.808" cy="33.808" r="33.808" transform="translate(1477.052 -1294.283)" fill="#62af1e"/>
      <g id="NVVI0D" transform="translate(1491.855 -1279.07)">
        <g id="Group_337" data-name="Group 337">
          <path id="Path_179" data-name="Path 179" d="M1497.266-1258.476c2.8.392,7.688,4.214,9.6,5.233a.535.535,0,0,0,.812-.154c4.616-5.418,9.407-12.245,14.656-17.064a36.358,36.358,0,0,1,6.229-4.826,7.083,7.083,0,0,1,2.507-.959,2.655,2.655,0,0,1,1.692.266,1.49,1.49,0,0,1,.682,2.041,3.912,3.912,0,0,1-.849,1.153q-1.41,1.4-2.841,2.774a82.636,82.636,0,0,0-17.283,24.363q-1.6,3.338-2.96,6.779a1.145,1.145,0,0,1-1.012.83,1.183,1.183,0,0,1-1.18-.728c-1.387-2.47-2.835-4.9-4.4-7.264a47.529,47.529,0,0,0-7.689-9,1.827,1.827,0,0,1,.136-2.913A3.009,3.009,0,0,1,1497.266-1258.476Z" transform="translate(-1494.566 1276.283)" fill="#fff"/>
        </g>
      </g>
    </g>
    <ellipse id="Ellipse_959" data-name="Ellipse 959" cx="41.916" cy="5.741" rx="41.916" ry="5.741" transform="translate(283 461.45)" opacity="0.15"/>
  </g>
</svg>
