<svg xmlns="http://www.w3.org/2000/svg" width="35.695" height="49.363" viewBox="0 0 35.695 49.363">
  <g id="_1IkAFF.tif" data-name="1IkAFF.tif" transform="translate(288.775 742.075)">
    <g id="Group_44268" data-name="Group 44268" transform="translate(-288.775 -742.075)">
      <path id="Path_30635" data-name="Path 30635" d="M-279.694-402.816" transform="translate(281.015 452.179)" fill="#8aaf48"/>
      <path id="Path_30636" data-name="Path 30636" d="M-264.9-734.862a3.573,3.573,0,0,0,.128-2.124,4.072,4.072,0,0,1,2.923-4.941,4.139,4.139,0,0,1,5.053,2.77,4.043,4.043,0,0,1-2.586,5.117c-.727.22-.859.843-1.308,1.233-.223.194.184.317.32.419a18.2,18.2,0,0,1,5.07,5.789,17.845,17.845,0,0,1-12.476,26.137,17.838,17.838,0,0,1-20.793-14.9,17.855,17.855,0,0,1,16.181-20.4,18.542,18.542,0,0,1,6.936.781c.138.042.275.09.414.127A.449.449,0,0,0-264.9-734.862Zm10.723,16.857a16.663,16.663,0,0,0-16.77-16.745,16.774,16.774,0,0,0-16.771,16.719,16.861,16.861,0,0,0,16.78,16.819A16.756,16.756,0,0,0-254.178-718.005Zm-10.19-19.718c.014.085.049.3.082.511.084.531.257.679.915.7a3.844,3.844,0,0,1,3.134,1.644c.32.476.523.41.888.257a3.621,3.621,0,0,0,2.052-4.3,3.649,3.649,0,0,0-3.812-2.585A3.705,3.705,0,0,0-264.368-737.723Zm3.763,3.5a.9.9,0,0,0-.508-.82c-.58-.292-1.156-.59-1.743-.866a.933.933,0,0,0-1.275.485.9.9,0,0,0,.246,1.23,6.475,6.475,0,0,0,2.052,1.03A1.042,1.042,0,0,0-260.6-734.226Z" transform="translate(288.775 742.075)"/>
      <path id="Path_30637" data-name="Path 30637" d="M-247.978-674.99A16.756,16.756,0,0,1-264.739-658.2a16.861,16.861,0,0,1-16.78-16.819,16.774,16.774,0,0,1,16.771-16.719A16.663,16.663,0,0,1-247.978-674.99Zm-29.774,7.3a.744.744,0,0,0,.081.736,16.48,16.48,0,0,0,3.1,3.6.529.529,0,0,0,.711.087l1.327.879c-.088.335.063.528.351.691a20.579,20.579,0,0,0,2.41,1.1.873.873,0,0,0,.748-.068l1.7.292c.024.387.3.436.608.477a15.127,15.127,0,0,0,4.756-.107,15.255,15.255,0,0,0,12.382-13.382,14.712,14.712,0,0,0-4.624-12.585,14.967,14.967,0,0,0-18.011-2.258,15.224,15.224,0,0,0-7.184,17.314c.1.341.13.738.6.805Z" transform="translate(282.575 699.06)" fill="#ba947a"/>
      <path id="Path_30638" data-name="Path 30638" d="M-116.708-698.639a1.042,1.042,0,0,1-1.228,1.059,6.483,6.483,0,0,1-2.052-1.03.9.9,0,0,1-.246-1.23.933.933,0,0,1,1.275-.485c.587.276,1.163.575,1.743.866A.9.9,0,0,1-116.708-698.639Z" transform="translate(144.879 706.488)" fill="#816d60"/>
      <path id="Path_30639" data-name="Path 30639" d="M-253.766-646.862l-1.7-.292a.609.609,0,0,0-.451-.643,13.094,13.094,0,0,1-2.4-1.091.511.511,0,0,0-.655.011l-1.327-.879a.654.654,0,0,0-.3-.745c-.384-.327-.741-.687-1.128-1.049.143-.132.253-.225.352-.329.14-.147.487-.271.322-.481-.233-.3-.414.076-.557.208-.277.256-.464.265-.686-.058-.369-.537-.777-1.048-1.141-1.588-.191-.284-.374-.51-.756-.383l-1.051-2.419c.306-.226.282-.509.18-.835a16.865,16.865,0,0,1-.533-2.768c-.058-.426.055-.558.481-.548.966.023,1.934.011,2.9,0,.256,0,.594.058.616-.323.025-.421-.319-.413-.614-.414-.918,0-1.838-.029-2.755.009-.513.022-.718-.073-.679-.658a14.543,14.543,0,0,1,4.2-9.525c.257-.262.451-.42.72-.018.106.158.252.477.483.292.251-.2-.069-.378-.195-.506-.276-.281-.3-.463.041-.734a14.594,14.594,0,0,1,8.274-3.293c.439-.03.6.052.585.523-.035.844-.011,1.691-.009,2.537,0,.277.027.582.379.59.369.008.377-.311.379-.581.006-.822.031-1.645-.007-2.465-.025-.53.158-.641.665-.6a14.5,14.5,0,0,1,9.82,4.84c.4.429.343.647-.122.911-.156.088-.483.2-.274.457.164.2.358-.049.479-.166.415-.4.666-.309.982.158a14.914,14.914,0,0,1,2.567,7.658c.025.438-.067.6-.533.58-.99-.034-1.982-.011-2.973-.009-.286,0-.56.05-.536.421.023.346.313.315.549.316.943.006,1.887.032,2.827-.009.537-.023.644.164.592.664a14.4,14.4,0,0,1-4.868,9.5c-.267.24-.457.324-.682-.022-.077-.118-.209-.247-.355-.116s-.009.272.087.363c.285.269.157.431-.1.618a14.708,14.708,0,0,1-7.595,2.739c-.423.033-.54-.107-.527-.516.027-.869.011-1.74,0-2.61,0-.244-.01-.522-.344-.535-.368-.014-.411.268-.412.55,0,.725,0,1.45,0,2.175,0,1.021,0,1.007-1.037.883C-252.985-647.108-253.448-647.368-253.766-646.862Zm-.561-16.675c-.015-.389-.314-.291-.533-.3q-1.485-.041-2.971-.061c-.381-.006-.833-.083-.966.413-.139.514.315.643.651.811,1.308.656,2.622,1.3,3.889,1.927-.489.534-.965,1.042-1.426,1.563-.252.286-.756.5-.426,1.008.292.447.69.169,1.042.059.662-.207,1.319-.428,1.954-.635,0,1.517,0,2.987,0,4.456,0,.371-.007.773.45.876s.628-.278.763-.613c.415-1.027.812-2.062,1.219-3.093.055-.138.117-.27-.018-.4l.288-.686,3.02,3.792c.482.605.923.711,1.484.321a.971.971,0,0,0,.321-1.434c-.67-1.252-1.286-2.534-1.924-3.8l.891-.021,3.044.084c.387.011.829.077.954-.425s-.278-.659-.631-.834c-1.145-.568-2.278-1.161-3.438-1.7-.469-.217-.454-.366-.1-.677.454-.4.871-.837,1.306-1.257.243-.234.414-.487.2-.825s-.488-.322-.825-.2c-.721.253-1.452.479-2.146.7,0-1.534,0-3.006,0-4.478,0-.354-.025-.7-.445-.805s-.592.215-.747.53c-.415.844-.839,1.683-1.246,2.531-.084.175-.292.371-.02.569l-.31,1.106q-1.579-1.979-3.158-3.959c-.573-.72-.993-.852-1.571-.488-.6.379-.66.823-.223,1.681q1.081,2.126,2.158,4.255Z" transform="translate(269.012 685.546)" fill="#fbfaec"/>
      <path id="Path_30640" data-name="Path 30640" d="M-258.253-651.649c.318-.506.78-.246,1.181-.2,1.039.124,1.037.139,1.037-.883,0-.725,0-1.45,0-2.175,0-.282.044-.563.412-.55.334.013.343.291.345.535.006.87.022,1.741,0,2.61-.013.409.1.549.527.516a14.709,14.709,0,0,0,7.595-2.739c.26-.187.388-.35.1-.618-.1-.091-.241-.225-.087-.363s.278,0,.355.116c.225.345.416.262.682.022a14.4,14.4,0,0,0,4.868-9.5c.052-.5-.056-.687-.592-.664-.941.041-1.885.014-2.827.009-.237,0-.526.029-.549-.316-.025-.371.25-.42.536-.421.991,0,1.983-.025,2.973.009.466.016.557-.142.533-.58a14.914,14.914,0,0,0-2.567-7.658c-.316-.467-.567-.56-.982-.158-.12.117-.314.367-.479.166-.21-.257.118-.369.274-.457.465-.263.518-.482.122-.91a14.5,14.5,0,0,0-9.82-4.84c-.507-.04-.69.071-.665.6.039.82.013,1.643.007,2.465,0,.27-.01.589-.379.581-.351-.008-.378-.313-.379-.59,0-.846-.026-1.693.009-2.537.02-.471-.146-.554-.585-.523a14.593,14.593,0,0,0-8.274,3.293c-.34.271-.317.454-.041.734.126.128.445.305.195.506-.23.185-.377-.135-.482-.292-.269-.4-.463-.244-.72.018a14.542,14.542,0,0,0-4.2,9.525c-.039.585.165.679.679.658.917-.039,1.837-.013,2.755-.009.3,0,.639-.007.614.414-.022.381-.361.322-.616.323-.967.007-1.934.019-2.9,0-.425-.01-.538.122-.481.548a16.863,16.863,0,0,0,.533,2.768c.1.326.125.609-.18.835-.47-.067-.5-.464-.6-.805a15.224,15.224,0,0,1,7.184-17.314,14.967,14.967,0,0,1,18.01,2.258,14.712,14.712,0,0,1,4.624,12.585,15.256,15.256,0,0,1-12.382,13.382,15.13,15.13,0,0,1-4.756.107C-257.952-651.214-258.229-651.262-258.253-651.649Z" transform="translate(273.5 690.333)"/>
      <path id="Path_30641" data-name="Path 30641" d="M-256-526.711c.382-.127.564.1.755.383.364.54.772,1.051,1.141,1.588.222.323.409.314.686.058.143-.132.324-.507.557-.208.164.211-.183.335-.322.481-.1.1-.209.2-.352.329.386.362.743.722,1.128,1.049a.653.653,0,0,1,.3.744.529.529,0,0,1-.711-.087,16.475,16.475,0,0,1-3.1-3.6A.744.744,0,0,1-256-526.711Z" transform="translate(260.819 558.078)"/>
      <path id="Path_30642" data-name="Path 30642" d="M-219.909-490.782a.511.511,0,0,1,.655-.011,13.082,13.082,0,0,0,2.4,1.091.609.609,0,0,1,.451.643.875.875,0,0,1-.748.068,20.622,20.622,0,0,1-2.41-1.1C-219.845-490.254-220-490.447-219.909-490.782Z" transform="translate(229.95 527.452)"/>
      <path id="Path_30643" data-name="Path 30643" d="M-160.729-617.954l-.891.021a30.256,30.256,0,0,0-3.512-5.7l.31-1.106c.926-.735.724-2.281,2-2.738,0,1.407.027,2.846-.014,4.284-.017.581.146.681.655.479s1.047-.36,1.571-.541a.389.389,0,0,1,.513.121c.155.23-.035.352-.167.482-.394.391-.781.79-1.2,1.158-.4.353-.414.573.114.819,1.114.518,2.2,1.088,3.309,1.628.35.171.708.319.691.713-.965,0-1.929,0-2.894,0C-160.49-618.328-160.834-618.422-160.729-617.954Z" transform="translate(183.123 644.149)" fill="#c7c4b7"/>
      <path id="Path_30644" data-name="Path 30644" d="M-195.89-628.322a30.266,30.266,0,0,1,3.512,5.7c.638,1.27,1.253,2.552,1.924,3.8a.971.971,0,0,1-.321,1.433c-.561.389-1,.284-1.484-.321l-3.02-3.792a26.533,26.533,0,0,1-3.406-5.334q-1.079-2.128-2.158-4.255c-.437-.858-.38-1.3.223-1.681.578-.364,1-.231,1.571.488Q-197.471-630.3-195.89-628.322Zm5.064,10.038c-.04-.09-.083-.2-.139-.308q-.386-.737-.777-1.471c-1.431-2.671-2.561-5.51-4.578-7.849-1.133-1.314-2.151-2.726-3.219-4.1-.207-.265-.43-.481-.789-.269-.375.221-.258.5-.093.8q.537.984,1.041,1.986a35.081,35.081,0,0,0,4.684,7.782c1.023,1.152,1.914,2.421,2.873,3.631.142.179.279.435.584.29A.66.66,0,0,0-190.826-618.284Z" transform="translate(213.88 648.841)"/>
      <path id="Path_30645" data-name="Path 30645" d="M-208.946-590.827a26.528,26.528,0,0,0,3.406,5.334l-.288.686c-.33.008-.349.3-.434.505-.285.691-.539,1.4-.823,2.087-.081.2-.06.511-.437.5-.1-.309.269-.615-.009-.963l-.223.949c0-1.19,0-2.542,0-3.895,0-.987,0-1-.965-.677-.412.137-.819.293-1.24.393-.152.036-.4.12-.5-.132-.073-.193.08-.312.2-.429.4-.389.786-.787,1.2-1.16.349-.315.339-.514-.106-.727-1.154-.552-2.292-1.134-3.438-1.7-.469-.232-.47-.23-.532-.744.266,0,.532.014.8,0a15.864,15.864,0,0,0,2.883-.019Z" transform="translate(224.142 612.834)" fill="#c7c4b7"/>
      <path id="Path_30646" data-name="Path 30646" d="M-214.247-592.957a15.869,15.869,0,0,1-2.883.019c-.265.016-.531,0-.8,0,.062.515.063.512.532.744,1.146.568,2.285,1.15,3.438,1.7.445.213.456.411.106.727-.412.372-.8.77-1.2,1.16-.12.117-.273.236-.2.429.1.252.346.168.5.132.421-.1.828-.256,1.24-.393.962-.32.97-.31.965.677-.006,1.352,0,2.7,0,3.895l.223-.949c.277.348-.1.654.009.963.378.012.356-.3.437-.5.284-.691.539-1.4.823-2.087.085-.206.1-.5.434-.505.135.126.073.257.018.4-.407,1.031-.8,2.066-1.219,3.093-.136.336-.3.719-.763.613s-.45-.505-.45-.876c0-1.47,0-2.94,0-4.456-.635.207-1.293.428-1.954.635-.352.11-.749.388-1.042-.059-.33-.5.174-.722.426-1.008.461-.521.937-1.029,1.426-1.563-1.266-.626-2.58-1.271-3.889-1.927-.335-.168-.789-.3-.651-.811.134-.5.585-.419.966-.413q1.486.022,2.971.061C-214.56-593.248-214.262-593.346-214.247-592.957Z" transform="translate(228.933 614.967)"/>
      <path id="Path_30647" data-name="Path 30647" d="M-159.706-623.308c-.1-.468.24-.374.485-.376.964-.006,1.929,0,2.894,0,.017-.394-.341-.542-.691-.713-1.1-.539-2.194-1.11-3.309-1.628-.528-.246-.512-.466-.114-.819.415-.368.8-.767,1.2-1.158.131-.13.321-.252.167-.483a.389.389,0,0,0-.513-.121c-.524.18-1.057.336-1.571.541s-.672.1-.655-.479c.041-1.437.014-2.876.014-4.283-1.272.458-1.07,2-2,2.738-.272-.2-.064-.394.02-.569.408-.847.832-1.687,1.246-2.531.155-.315.318-.633.747-.53s.445.452.445.806c0,1.472,0,2.943,0,4.478.694-.226,1.425-.451,2.146-.7.337-.118.617-.12.825.2s.046.591-.2.825c-.435.419-.852.86-1.306,1.257-.355.311-.37.46.1.677,1.16.536,2.293,1.129,3.438,1.7.353.175.755.34.631.834s-.567.435-.954.425Z" transform="translate(182.099 649.504)"/>
      <path id="Path_30648" data-name="Path 30648" d="M-187.591-614.734a.66.66,0,0,1-.413.5c-.305.145-.442-.111-.584-.29-.959-1.21-1.85-2.479-2.873-3.631a35.082,35.082,0,0,1-4.684-7.782q-.507-1-1.041-1.987c-.165-.3-.282-.579.093-.8.359-.212.583,0,.789.269,1.068,1.369,2.086,2.782,3.219,4.1,2.016,2.339,3.147,5.178,4.578,7.849q.393.733.777,1.471C-187.674-614.936-187.631-614.824-187.591-614.734Zm-4.873-7.764a1.032,1.032,0,0,0-1.006.942,1.061,1.061,0,0,0,.94,1.016,1.048,1.048,0,0,0,1.04-.986A1.027,1.027,0,0,0-192.465-622.5Z" transform="translate(210.646 645.291)" fill="#e93d53"/>
      <path id="Path_30649" data-name="Path 30649" d="M-169.729-585.421a1.027,1.027,0,0,1,.975.973,1.048,1.048,0,0,1-1.04.986,1.061,1.061,0,0,1-.94-1.016A1.032,1.032,0,0,1-169.729-585.421Zm-.042.569c-.225.068-.4.208-.369.455a.376.376,0,0,0,.459.349.377.377,0,0,0,.341-.4C-169.349-584.7-169.527-584.816-169.771-584.852Z" transform="translate(187.91 608.214)"/>
      <path id="Path_30650" data-name="Path 30650" d="M-166.3-581.51c.244.036.422.148.43.4a.377.377,0,0,1-.341.4.376.376,0,0,1-.459-.349C-166.7-581.3-166.525-581.441-166.3-581.51Z" transform="translate(184.438 604.872)" fill="#c7c4b7"/>
    </g>
  </g>
</svg>
