<svg xmlns="http://www.w3.org/2000/svg" width="25.823" height="25.824" viewBox="0 0 25.823 25.824">
  <g id="uJxW14.tif" transform="translate(0 0)">
    <g id="Group_5731" data-name="Group 5731" transform="translate(0 0)">
      <path id="Path_13313" data-name="Path 13313" d="M313.3,356.258a1.722,1.722,0,0,1-.538-1.3q0-6.813,0-13.627a1.717,1.717,0,0,1,1.8-1.8q6.814-.006,13.627,0a1.709,1.709,0,0,1,1.3.538c-.08.072-.163.14-.239.214q-2.27,2.268-4.541,4.538c-.08.08-.141.191-.276.2-.034-.073-.072-.143-.1-.217-.42-1.095-.844-2.188-1.255-3.286a.337.337,0,0,0-.379-.27q-1.33.025-2.659,0a.368.368,0,0,0-.42.288q-2.153,5.687-4.323,11.368c-.245.643-.518,1.275-.716,1.936l.006.007c-.038.008-.044.036-.044.068l-.051.1c-.07.08-.135.162-.209.238C313.958,355.587,313.631,355.922,313.3,356.258Z" transform="translate(-312.766 -339.532)" fill="#feb001"/>
      <path id="Path_13314" data-name="Path 13314" d="M321.941,364.9a1.811,1.811,0,0,1-.539-1.38c.005-2.14,0-4.28,0-6.42,0-.108-.006-.215-.009-.322v-4.294q0-1.288,0-2.576a1.792,1.792,0,0,1,.992-1.574,2.446,2.446,0,0,1,.938-.163c.774.006,1.548,0,2.322,0h4.358l5.641.009c.4,0,.806,0,1.208,0a1.716,1.716,0,0,1,1.271.537c-.244.234-.492.464-.73.7q-1.036,1.042-2.065,2.089l-.156.04c-1.254-.047-2.508-.015-3.763-.018a.322.322,0,0,1-.36-.229,17.116,17.116,0,0,0-1.016-2.043c-.091-.163-.178-.212-.36-.147-.565.2-1.133.4-1.7.578-.186.059-.167.124-.08.256a12.87,12.87,0,0,1,.778,1.287c.149.3.152.295-.175.295-1.6,0-3.208,0-4.812,0-.206,0-.282.048-.276.268.015.564.009,1.129,0,1.693,0,.172.048.234.229.231.628-.011,1.254,0,1.882,0h.674c-.025.064-.053.089-.084.1-.264.056-.286.194-.181.425.151.334.265.684.406,1.023a14.812,14.812,0,0,0,1.85,3.354c0,.017,0,.035,0,.053a.263.263,0,0,0-.181.1l-1.506,1.507c-.051.051-.1.1-.088.183v-.008a.1.1,0,0,0-.112.069l-.218.147c-.963.42-1.949.786-2.965,1.135l.713,1.17-.006.057Q322.846,363.917,321.941,364.9Z" transform="translate(-312.799 -339.564)" fill="#28b4f4"/>
      <path id="Path_13315" data-name="Path 13315" d="M335.335,351.5q1.033-1.044,2.065-2.089c.238-.239.486-.469.73-.7a1.627,1.627,0,0,1,.486,1.259q0,4.326,0,8.653c0,1.649-.024,3.3.009,4.945a1.8,1.8,0,0,1-1.822,1.824c-4.533-.022-9.066-.011-13.6-.008a1.669,1.669,0,0,1-1.26-.485q.906-.977,1.884-1.884c.108.174.225.344.322.525a.206.206,0,0,0,.292.121,17.226,17.226,0,0,0,5.574-2.86.265.265,0,0,1,.4,0,21.117,21.117,0,0,0,5.435,2.977c.129.05.191.03.261-.081.341-.537.682-1.072,1.034-1.6.09-.136.068-.2-.079-.251-.467-.178-.933-.36-1.395-.551a17.433,17.433,0,0,1-3.662-2c-.179-.132-.171-.219-.045-.37a6.329,6.329,0,0,0,.384-.518,16.554,16.554,0,0,0,2.049-4.437c.06-.193.134-.267.345-.262.654.015,1.308,0,1.962.009.176,0,.252-.028.248-.229q-.021-.873,0-1.746c0-.2-.069-.236-.247-.232C336.249,351.514,335.792,351.5,335.335,351.5Z" transform="translate(-312.801 -339.566)" fill="#0299e2"/>
      <path id="Path_13316" data-name="Path 13316" d="M330.02,348.13h-4.358c-.383-1.006-.744-2.019-1.17-3.009l-.014-.1c.134-.005.2-.117.276-.2q2.271-2.267,4.541-4.538c.076-.075.159-.142.239-.214a1.541,1.541,0,0,1,.486,1.2Z" transform="translate(-312.81 -339.534)" fill="#fe9e00"/>
      <path id="Path_13317" data-name="Path 13317" d="M321.364,352.5v4.294H314.51a1.579,1.579,0,0,1-1.2-.484c.326-.336.653-.67.978-1.007.074-.076.139-.158.209-.238,1.18,0,2.359,0,3.539.012.163,0,.184-.095.22-.207.227-.713.463-1.424.681-2.139.053-.173.123-.239.312-.236C319.953,352.5,320.659,352.5,321.364,352.5Z" transform="translate(-312.768 -339.581)" fill="#fe9e00"/>
      <path id="Path_13318" data-name="Path 13318" d="M324.441,345.026l.014.1c-.074.064-.153.122-.222.189q-.929.926-1.857,1.856c-.081.08-.15.183-.288.165l-.729-2.209c-.141.439-.268.827-.391,1.215q-.5,1.572-.99,3.144l-.093.218c-.111.033-.17.128-.245.2q-2.386,2.382-4.772,4.767c-.077.076-.13.205-.28.168.2-.66.471-1.293.716-1.936q2.159-5.684,4.323-11.368a.368.368,0,0,1,.42-.288q1.328.024,2.659,0a.337.337,0,0,1,.379.27c.411,1.1.835,2.191,1.255,3.286C324.369,344.882,324.407,344.953,324.441,345.026Z" transform="translate(-312.773 -339.538)" fill="#fefefe"/>
      <path id="Path_13319" data-name="Path 13319" d="M314.588,354.878c.149.037.2-.093.28-.168q2.388-2.382,4.772-4.767c.075-.075.134-.17.245-.2-.044.158.045.174.172.173.437-.005.876,0,1.314,0l0,2.576c-.705,0-1.412.007-2.118-.006-.189,0-.259.063-.312.236-.218.715-.454,1.426-.681,2.139-.036.113-.057.208-.22.207-1.179-.01-2.359-.009-3.539-.012l.051-.1.044-.068Z" transform="translate(-312.773 -339.57)" fill="#e9ecee"/>
      <path id="Path_13320" data-name="Path 13320" d="M314.594,354.9l-.044.068C314.55,354.94,314.556,354.912,314.594,354.9Z" transform="translate(-312.773 -339.59)" fill="#fefefe"/>
      <path id="Path_13321" data-name="Path 13321" d="M335.342,351.512c.457,0,.914.013,1.371,0,.178,0,.251.033.247.232q-.021.873,0,1.746c0,.2-.072.232-.248.229-.654-.009-1.308.006-1.962-.009-.21,0-.285.069-.345.262a16.554,16.554,0,0,1-2.049,4.437,6.32,6.32,0,0,1-.384.518c-.126.15-.134.238.045.37a17.434,17.434,0,0,0,3.662,2c.461.191.927.373,1.395.551.146.056.168.115.079.251-.352.529-.693,1.064-1.034,1.6-.07.111-.132.131-.261.081a21.117,21.117,0,0,1-5.435-2.977.265.265,0,0,0-.4,0,17.225,17.225,0,0,1-5.574,2.86.206.206,0,0,1-.292-.121c-.1-.181-.214-.351-.322-.525l.006-.057q1.1-1.091,2.2-2.185a.35.35,0,0,0,.05-.12l.218-.147c.041-.017.095-.013.112-.069v.008a8.906,8.906,0,0,0,1.692-.963c.5-.346.494-.354.084-.827,0-.018,0-.036,0-.053.519-.492,1.035-.985,1.508-1.52.126.149.258.294.375.45.078.1.121.122.211.007a9.324,9.324,0,0,0,1.358-2.318l.178-.323c.125,0,.187-.095.262-.168q1.464-1.462,2.926-2.926c.075-.075.169-.138.17-.262Z" transform="translate(-312.808 -339.577)" fill="#e9ecee"/>
      <path id="Path_13322" data-name="Path 13322" d="M329.7,357.083c-.473.535-.989,1.028-1.508,1.52a14.811,14.811,0,0,1-1.85-3.354c-.141-.339-.255-.689-.406-1.023-.1-.231-.083-.37.181-.425.031-.007.059-.032.084-.1h-.674c-.628,0-1.254-.007-1.882,0-.181,0-.231-.059-.229-.231.007-.564.013-1.129,0-1.693-.006-.22.07-.269.276-.268,1.6.007,3.208,0,4.812,0,.328,0,.325,0,.175-.295a12.86,12.86,0,0,0-.778-1.287c-.088-.132-.107-.2.08-.256.572-.18,1.14-.377,1.7-.578.181-.065.269-.016.36.147a17.126,17.126,0,0,1,1.016,2.043.322.322,0,0,0,.36.229c1.254,0,2.509-.029,3.763.018,0,.124-.1.187-.17.262q-1.461,1.464-2.926,2.926c-.075.074-.138.17-.262.168.116-.329.224-.659.351-.984.065-.168.034-.214-.149-.213q-1.9.009-3.809,0c-.2,0-.2.07-.132.216.2.468.376.947.6,1.406a7.814,7.814,0,0,0,1,1.675Z" transform="translate(-312.806 -339.568)" fill="#fefefe"/>
      <path id="Path_13323" data-name="Path 13323" d="M322.116,347.353c.137.018.207-.086.288-.165q.928-.928,1.857-1.856c.069-.068.148-.126.222-.189.425.989.787,2,1.17,3.009-.774,0-1.548.011-2.322,0a2.446,2.446,0,0,0-.938.163l-.264-.816Z" transform="translate(-312.802 -339.553)" fill="#e9ecee"/>
      <path id="Path_13324" data-name="Path 13324" d="M322.12,347.512l.264.816a1.792,1.792,0,0,0-.992,1.574c-.438,0-.877,0-1.314,0-.127,0-.216-.015-.172-.173l.093-.218c.114,0,.169-.089.237-.156.322-.319.638-.645.964-.96A10.278,10.278,0,0,1,322.12,347.512Z" transform="translate(-312.793 -339.562)" fill="#fe9e00"/>
      <path id="Path_13325" data-name="Path 13325" d="M326.089,360.7a.35.35,0,0,1-.05.12q-1.1,1.1-2.2,2.185l-.713-1.17C324.14,361.484,325.125,361.118,326.089,360.7Z" transform="translate(-312.805 -339.612)" fill="#fefefe"/>
      <path id="Path_13326" data-name="Path 13326" d="M328.206,358.692c.41.473.416.481-.084.827a8.9,8.9,0,0,1-1.692.963c-.014-.082.037-.133.088-.183l1.506-1.507A.263.263,0,0,1,328.206,358.692Z" transform="translate(-312.818 -339.604)" fill="#0299e2"/>
      <path id="Path_13327" data-name="Path 13327" d="M326.431,360.481c-.017.056-.071.052-.112.069A.1.1,0,0,1,326.431,360.481Z" transform="translate(-312.817 -339.611)" fill="#0299e2"/>
      <path id="Path_13328" data-name="Path 13328" d="M322.12,347.5a10.3,10.3,0,0,0-.921.884c-.327.316-.643.642-.964.96-.068.068-.124.156-.237.156q.495-1.572.99-3.144c.123-.389.249-.776.391-1.215l.729,2.209Z" transform="translate(-312.793 -339.553)" fill="#feb001"/>
      <path id="Path_13329" data-name="Path 13329" d="M329.695,357.015a7.815,7.815,0,0,1-1-1.675c-.22-.458-.4-.937-.6-1.406-.063-.146-.072-.217.133-.216q1.905.012,3.809,0c.183,0,.214.045.149.213-.126.325-.235.656-.351.984l-.178.323c-.128-.013-.187.089-.26.161-.485.481-.966.966-1.451,1.448C329.881,356.922,329.819,357.02,329.695,357.015Z" transform="translate(-312.824 -339.585)" fill="#28b4f4"/>
      <path id="Path_13330" data-name="Path 13330" d="M329.7,357.02c.125.005.186-.093.26-.165.484-.482.965-.967,1.451-1.448.073-.073.132-.174.26-.161a9.326,9.326,0,0,1-1.358,2.318c-.091.115-.134.1-.211-.007-.117-.156-.249-.3-.375-.45Z" transform="translate(-312.83 -339.591)" fill="#0299e2"/>
    </g>
  </g>
</svg>
