<svg xmlns="http://www.w3.org/2000/svg" width="15.481" height="15.373" viewBox="0 0 15.481 15.373">
  <g id="SlRgs8.tif" transform="translate(110.566 -561.291)">
    <g id="Group_6090" data-name="Group 6090" transform="translate(-110.566 561.291)">
      <path id="Path_14404" data-name="Path 14404" d="M360.377,788.44a.661.661,0,0,1-.533.494.615.615,0,0,1-.705-.559c-.01-.166-.011-.333-.006-.5a.612.612,0,0,1,.545-.605.624.624,0,0,1,.664.435l.034.1Z" transform="translate(-344.896 -780.418)" fill="#fff"/>
      <path id="Path_14405" data-name="Path 14405" d="M-98.509,562.6l.419-.6a1.189,1.189,0,0,1,.1-.133c.118-.127.234-.1.3.057a1.44,1.44,0,0,1,.055.172q.255.916.509,1.832c.1.351-.032.525-.4.555-.633.052-1.264.112-1.9.169a.2.2,0,0,1-.06.005c-.093-.023-.228-.022-.265-.081s.011-.19.059-.266c.14-.226.3-.44.452-.665a6.255,6.255,0,0,0-1.39-.705,6.383,6.383,0,0,0-2.779-.36,6.368,6.368,0,0,0-3.289,1.249,6.4,6.4,0,0,0-2.474,3.788,6.236,6.236,0,0,0-.088,2.327,6.372,6.372,0,0,0,2.373,4.177,6.449,6.449,0,0,0,2.853,1.312.622.622,0,0,1,.522.824.627.627,0,0,1-.725.4,7.679,7.679,0,0,1-5.159-3.508,7.456,7.456,0,0,1-1.157-3.553,7.529,7.529,0,0,1,1.3-4.869,7.488,7.488,0,0,1,4.281-3.116,7.586,7.586,0,0,1,6.2.844c.073.044.145.091.218.136A.147.147,0,0,0-98.509,562.6Z" transform="translate(110.566 -561.291)" fill="#fff"/>
      <path id="Path_14406" data-name="Path 14406" d="M116.572,653.743c0,.7,0,1.4,0,2.1a.217.217,0,0,0,.138.23q1.922.985,3.837,1.981a.506.506,0,0,1,.329.592.5.5,0,0,1-.653.361,1.168,1.168,0,0,1-.151-.068q-2.186-1.13-4.374-2.258a.2.2,0,0,1-.13-.205q.006-2.4,0-4.808a.5.5,0,0,1,.471-.571.5.5,0,0,1,.532.527C116.573,652.332,116.572,653.038,116.572,653.743Z" transform="translate(-108.712 -648.377)" fill="#fff"/>
      <path id="Path_14407" data-name="Path 14407" d="M303.321,938.618c0-.005,0-.01,0-.015a1.155,1.155,0,0,1,.887-.937.611.611,0,0,1,.536.922,2.58,2.58,0,0,1-.4.493.562.562,0,0,1-.657.109A.591.591,0,0,1,303.321,938.618Z" transform="translate(-290.779 -926.26)" fill="#fff"/>
      <path id="Path_14408" data-name="Path 14408" d="M168.548,1025.185a.6.6,0,0,1-.429.591,3.79,3.79,0,0,1-.544.119.618.618,0,0,1-.271-1.2,3.22,3.22,0,0,1,.544-.12A.608.608,0,0,1,168.548,1025.185Z" transform="translate(-158.477 -1010.532)" fill="#fff"/>
      <path id="Path_14409" data-name="Path 14409" d="M345.22,867.206a4.716,4.716,0,0,1-.277.668.574.574,0,0,1-.724.195.587.587,0,0,1-.366-.657,3.015,3.015,0,0,1,.214-.625.6.6,0,0,1,.693-.3A.666.666,0,0,1,345.22,867.206Z" transform="translate(-330.069 -857.219)" fill="#fff"/>
      <path id="Path_14410" data-name="Path 14410" d="M343.2,710.842a.57.57,0,0,1-.508-.365,4.315,4.315,0,0,1-.179-.5.611.611,0,0,1,.364-.74.6.6,0,0,1,.773.285,2.921,2.921,0,0,1,.214.594A.618.618,0,0,1,343.2,710.842Z" transform="translate(-328.755 -704.714)" fill="#fff"/>
      <path id="Path_14411" data-name="Path 14411" d="M242.735,991.831a.657.657,0,0,1,.587.418.594.594,0,0,1-.178.682,2.971,2.971,0,0,1-.525.322.6.6,0,0,1-.79-.261.609.609,0,0,1,.2-.811,4.021,4.021,0,0,1,.424-.259A1.69,1.69,0,0,1,242.735,991.831Z" transform="translate(-231.073 -978.784)" fill="#fff"/>
    </g>
  </g>
</svg>
