<svg xmlns="http://www.w3.org/2000/svg" width="79" height="79" viewBox="0 0 79 79">
  <g id="Group_57549" data-name="Group 57549" transform="translate(2729 -8611.896)">
    <circle id="Ellipse_1348" data-name="Ellipse 1348" cx="39.5" cy="39.5" r="39.5" transform="translate(-2729 8611.896)" fill="#2b2b2b"/>
    <g id="Group_57539" data-name="Group 57539" transform="translate(-2769.479 8016.768)">
      <path id="Path_39864" data-name="Path 39864" d="M55.387,16.271h5.159c.131.512.244,1.028.4,1.531a.676.676,0,0,0,.339.358c.57.262,1.151.5,1.74.721a.719.719,0,0,0,.528-.024c.452-.24.877-.527,1.236-.748l3.721,3.719c-.242.392-.526.821-.773,1.271a.611.611,0,0,0-.024.456c.228.6.475,1.194.744,1.777a.683.683,0,0,0,.361.338c.5.158,1.019.271,1.53.4V58.92H55.778q-12.594,0-25.189,0A2.741,2.741,0,0,1,27.7,56.163q-.013-9.325,0-18.652a5.692,5.692,0,0,1,1.821-4.265,20.631,20.631,0,0,1,2.031-1.508,4.822,4.822,0,0,1,5.811-7.692A4.7,4.7,0,0,1,39.288,27,4.859,4.859,0,0,1,37.963,31.4c.427,0,.768-.028,1.1.006a1.9,1.9,0,0,0,1.416-.468c1.393-1.077,2.769-2.189,4.245-3.143.636-.412,1.008-.755.869-1.522-.014-.079.152-.249.262-.283.4-.12.8-.209,1.209-.291a.52.52,0,0,0,.432-.395c.207-.577.479-1.132.691-1.707a.73.73,0,0,0-.02-.528c-.24-.453-.527-.88-.755-1.252L51.132,18.1c.4.246.831.528,1.281.776a.612.612,0,0,0,.454.03c.6-.228,1.2-.473,1.777-.746a.74.74,0,0,0,.353-.4c.156-.488.263-.992.39-1.49M68.925,31.718l-.093-.079c-.113.1-.269.186-.33.313a5.277,5.277,0,0,1-.3.8,1.818,1.818,0,0,0,.223,2.509c.194.221.127.386-.069.579-.97.954-1.929,1.922-2.891,2.884-.583.583-.622.633-1.269.136a1.4,1.4,0,0,0-1.8-.117c-.4.251-1.028.255-1.3.581a3.324,3.324,0,0,0-.4,1.419.343.343,0,0,1-.4.326q-2.322-.014-4.643,0c-.249,0-.357-.083-.4-.326-.048-.269-.138-.531-.216-.824-.106.06-.157.084-.2.115q-6.559,4.562-13.113,9.135a.665.665,0,0,0-.221.453,13.046,13.046,0,0,1-.063,1.583,2.768,2.768,0,0,1-4.457,1.639.384.384,0,0,0-.551-.021c-.977.7-1.972,1.377-2.95,2.078a.64.64,0,0,0-.236.405c-.075.729-.119,1.461-.173,2.179H68.925ZM36.655,41.036c.5,0,.96-.016,1.417,0a3.266,3.266,0,0,1,2.993,1.9,4.476,4.476,0,0,1,.373,1.651c.058.977.016,1.96.016,3.021L53.963,38.9c-.4-.189-.743-.37-1.1-.5a.606.606,0,0,0-.454.026c-.46.254-.9.542-1.322.8l-3.7-3.7c.257-.418.533-.851.79-1.3a.519.519,0,0,0,.087-.378c-.223-.539-.479-1.064-.738-1.625-.121.089-.235.167-.344.252-1.108.861-2.223,1.715-3.323,2.587a5.1,5.1,0,0,1-3.339,1.152c-1.146-.015-2.292,0-3.439,0-.139,0-.276.012-.429.02ZM47.011,27.169c0,.035,0,.07,0,.1.129.049.259.1.387.146a2.485,2.485,0,0,1,1.517,3.142,1.674,1.674,0,0,0,.041,1.341,4.422,4.422,0,0,0,.446,1.017,1.486,1.486,0,0,1-.085,2.176c-.155.165-.12.319.049.478.335.313.647.65.977.968.307.3.6.762.947.814.32.048.7-.379,1.072-.552a.72.72,0,0,1,.526-.007,12.01,12.01,0,0,0,1.905.864c.985.227,1.609.65,1.648,1.726,0,.086.192.23.3.236.471.027.945.018,1.418.01.426-.008.963.119,1.244-.091.259-.193.261-.751.341-1.154.051-.252.182-.334.415-.409a8.513,8.513,0,0,0,2.076-.78,1.532,1.532,0,0,1,2.147.085c.206.192.369.118.543-.069.313-.334.65-.648.97-.976.28-.285.744-.561.773-.875.032-.337-.328-.725-.552-1.068a.529.529,0,0,1,0-.619,8.826,8.826,0,0,0,.916-2.021c.2-.919.627-1.391,1.555-1.428.27-.011.388-.15.369-.446-.029-.428,0-.859-.009-1.289s.14-.976-.071-1.251S68.1,27,67.7,26.856a.73.73,0,0,1-.378-.371,12.053,12.053,0,0,0-.812-2.109,1.53,1.53,0,0,1,.1-2.146c.167-.177.133-.339-.05-.513-.466-.445-.911-.913-1.372-1.363-.613-.6-.395-.574-1.108-.142a4.947,4.947,0,0,0-.473.295.472.472,0,0,1-.581.01,7.986,7.986,0,0,0-1.936-.9A1.672,1.672,0,0,1,59.5,17.943c-.006-.1-.209-.255-.325-.259q-1.2-.034-2.407,0a.466.466,0,0,0-.332.258,5.03,5.03,0,0,0-.241.954c-.043.274-.189.358-.438.438a8.6,8.6,0,0,0-2.037.765,1.552,1.552,0,0,1-2.183-.086c-.155-.149-.31-.142-.48.032-.557.576-1.139,1.13-1.69,1.713a.475.475,0,0,0-.052.427,5.269,5.269,0,0,0,.512.842c.15.208.1.364,0,.581-.419.951-.8,1.92-1.213,2.873a.736.736,0,0,1-.374.375c-.4.137-.818.213-1.229.313M35.244,34.825c1.792,0,3.51-.009,5.228,0a3.893,3.893,0,0,0,2.543-.872c1.108-.883,2.235-1.744,3.354-2.615.283-.22.576-.428.843-.666a1.061,1.061,0,0,0,.348-1.2,1.113,1.113,0,0,0-.97-.794,1.594,1.594,0,0,0-1.244.344c-1.39,1.058-2.8,2.091-4.186,3.155a2.851,2.851,0,0,1-1.863.624c-1.791-.028-3.582-.023-5.373-.005a4.671,4.671,0,0,0-4.695,3.817,36.236,36.236,0,0,0-.187,4.368h6.2V34.825m-1.495,7.618c-1.418,0-2.836.007-4.254-.005-.293,0-.4.074-.4.384a2.114,2.114,0,0,0,2.25,2.306c1.49,0,2.979,0,4.47,0a1.386,1.386,0,0,1,1.542,1.534c0,1.289-.007,2.578,0,3.867a1.335,1.335,0,0,0,1.648,1.411A1.369,1.369,0,0,0,40.044,50.5q.007-2.879,0-5.757a2.1,2.1,0,0,0-2.3-2.295q-2,0-4,0M38,27.976a3.428,3.428,0,1,0-3.428,3.417A3.447,3.447,0,0,0,38,27.976M29.1,45.932v9.417c0,.257-.01.515,0,.773A1.346,1.346,0,0,0,30.925,57.4a1.432,1.432,0,0,0,.863-1.449q0-4.467,0-8.934c0-.057.023-.133-.005-.168-.081-.1-.186-.269-.275-.265a3.853,3.853,0,0,1-2.407-.652m4.113,7.407c.934-.653,1.8-1.256,2.661-1.87a.377.377,0,0,0,.135-.275c-.011-.712-.05-1.426-.059-2.138-.011-.826,0-1.651,0-2.495H33.216Z" transform="translate(30.774 593.9)" fill="#00ffe2"/>
      <path id="Path_39865" data-name="Path 39865" d="M57.152,45.537l.829,1.2L48.56,53.295l-.836-1.188,9.428-6.57" transform="translate(28.209 590.153)" fill="#00ffe2"/>
      <path id="Path_39866" data-name="Path 39866" d="M44.865,54.946l1.183-.827.826,1.193c-.353.248-.674.485-1.011.7a.294.294,0,0,1-.282-.051c-.243-.315-.463-.648-.717-1.012" transform="translate(28.575 589.054)" fill="#00ffe2"/>
      <rect id="Rectangle_4847" data-name="Rectangle 4847" width="1.354" height="1.384" transform="translate(97.009 643.176)" fill="#00ffe2"/>
      <rect id="Rectangle_4848" data-name="Rectangle 4848" width="1.354" height="1.384" transform="translate(97.005 645.946)" fill="#00ffe2"/>
      <rect id="Rectangle_4849" data-name="Rectangle 4849" width="1.366" height="1.373" transform="translate(65.357 648.698)" fill="#00ffe2"/>
      <rect id="Rectangle_4850" data-name="Rectangle 4850" width="1.376" height="1.368" transform="translate(68.103 648.693)" fill="#00ffe2"/>
      <rect id="Rectangle_4851" data-name="Rectangle 4851" width="1.369" height="1.376" transform="translate(70.859 648.697)" fill="#00ffe2"/>
      <rect id="Rectangle_4852" data-name="Rectangle 4852" width="1.369" height="1.376" transform="translate(96.996 648.689)" fill="#00ffe2"/>
      <path id="Path_39867" data-name="Path 39867" d="M69.476,29.271a8.28,8.28,0,1,1-8.254-8.293,8.266,8.266,0,0,1,8.254,8.293M61.2,22.392a6.864,6.864,0,1,0,6.866,6.863A6.889,6.889,0,0,0,61.2,22.392" transform="translate(27.544 593.298)" fill="#00ffe2"/>
      <path id="Path_39868" data-name="Path 39868" d="M65.946,29.866A4.141,4.141,0,1,1,61.8,25.723a4.14,4.14,0,0,1,4.149,4.143M61.81,27.113a2.75,2.75,0,1,0,2.745,2.767,2.757,2.757,0,0,0-2.745-2.767" transform="translate(26.936 592.69)" fill="#00ffe2"/>
    </g>
  </g>
</svg>
