<svg xmlns="http://www.w3.org/2000/svg" width="18.742" height="17.161" viewBox="0 0 18.742 17.161">
  <g id="CFKKv4.tif" transform="translate(-50.642 -390)">
    <g id="Group_2966" data-name="Group 2966">
      <path id="Path_5333" data-name="Path 5333" d="M60.372,390a1.826,1.826,0,0,1,1,.941q3.834,6.9,7.693,13.789c.119.213.21.442.314.663v.718a1.79,1.79,0,0,1-1.922,1.05c-5.088-.026-10.176-.012-15.264-.013a1.365,1.365,0,0,1-1.554-1.292,1.756,1.756,0,0,1,.279-.98q1.823-3.21,3.646-6.421c1.432-2.519,2.873-5.033,4.293-7.559a1.724,1.724,0,0,1,1.031-.9Zm-.367,16.261c2.563,0,5.128-.022,7.691.015.662.009,1-.4.636-1.051q-3.906-6.969-7.8-13.946c-.1-.172-.174-.378-.414-.383-.261-.006-.343.215-.447.4l-3.185,5.6q-2.36,4.145-4.718,8.29c-.459.81-.3,1.082.62,1.082Z" fill="#030302"/>
      <path id="Path_5334" data-name="Path 5334" d="M60.005,406.261H52.392c-.916,0-1.079-.272-.62-1.082q2.352-4.149,4.718-8.29l3.185-5.6c.1-.182.186-.4.447-.4.24.005.318.211.414.383q3.9,6.974,7.8,13.946c.365.651.026,1.06-.636,1.051C65.133,406.239,62.568,406.261,60.005,406.261Zm1.416-10.125c.018-.316.069-.628-.211-.887a1.574,1.574,0,0,0-2.128.057.623.623,0,0,0-.214.493c.149,1.676.292,3.353.448,5.029a.835.835,0,0,0,.9.848.865.865,0,0,0,.866-.86C61.2,399.256,61.309,397.7,61.421,396.136Zm-1.234,8.7a1.246,1.246,0,1,0-1.241-1.282A1.248,1.248,0,0,0,60.187,404.839Z" fill="#fcd229"/>
      <path id="Path_5335" data-name="Path 5335" d="M61.421,396.136c-.112,1.56-.219,3.12-.336,4.68a.865.865,0,0,1-.866.86.835.835,0,0,1-.9-.848c-.156-1.676-.3-3.353-.448-5.029a.623.623,0,0,1,.214-.493,1.574,1.574,0,0,1,2.128-.057C61.49,395.508,61.439,395.82,61.421,396.136Z" fill="#030302"/>
      <path id="Path_5336" data-name="Path 5336" d="M60.187,404.839a1.246,1.246,0,1,1,.029-2.491,1.246,1.246,0,1,1-.029,2.491Z" fill="#030302"/>
    </g>
  </g>
</svg>
