<svg id="Group_47053" data-name="Group 47053" xmlns="http://www.w3.org/2000/svg" width="100.626" height="19.552" viewBox="0 0 100.626 19.552">
  <path id="Path_31947" data-name="Path 31947" d="M70.626,0H-22.961A7.039,7.039,0,0,0-30,7.039V19.552H54.984Z" transform="translate(30)" fill="#e7a5ff"/>
  <path id="Path_31952" data-name="Path 31952" d="M-10.136,0H-22.961A7.039,7.039,0,0,0-30,7.039V19.552h19.864Z" transform="translate(30)" fill="#e162ff"/>
  <g id="iL91zE.tif" transform="translate(4.094 3.814)">
    <g id="Group_46931" data-name="Group 46931">
      <path id="Path_31948" data-name="Path 31948" d="M545.694,239.327l0-.05a1.771,1.771,0,0,0-.171-.049c-1.495-.272-2.989-.548-4.485-.811a.4.4,0,0,1-.371-.353q-.347-1.927-.7-3.854a6.542,6.542,0,0,0-.177-.864.747.747,0,0,0-.055.125c-.138.757-.273,1.515-.411,2.273-.144.79-.293,1.58-.434,2.37a.329.329,0,0,1-.286.294q-1.908.347-3.816.69c-.3.055-.607.115-.91.173a.44.44,0,0,0,.225.1l4.408.8c.3.054.351.106.4.389q.35,1.937.7,3.874c.047.261.1.521.161.83a1.038,1.038,0,0,0,.069-.16q.248-1.364.492-2.728.167-.929.335-1.858a.359.359,0,0,1,.3-.335q1.818-.327,3.637-.653C544.965,239.469,545.329,239.4,545.694,239.327Z" transform="translate(-533.877 -233.346)" fill="#fff"/>
      <path id="Path_31949" data-name="Path 31949" d="M545.694,239.327c-.365.069-.729.142-1.094.208q-1.818.328-3.637.653a.359.359,0,0,0-.3.335q-.166.929-.335,1.858-.246,1.364-.492,2.728a1.038,1.038,0,0,1-.069.16c-.06-.309-.114-.569-.161-.83q-.35-1.937-.7-3.874c-.051-.283-.105-.335-.4-.389l-4.408-.8a.44.44,0,0,1-.225-.1c.3-.058.606-.118.91-.173q1.908-.346,3.816-.69a.329.329,0,0,0,.286-.294c.141-.791.29-1.58.434-2.37.138-.757.273-1.515.411-2.273a.747.747,0,0,1,.055-.125,6.542,6.542,0,0,1,.177.864q.353,1.926.7,3.854a.4.4,0,0,0,.371.353c1.5.262,2.99.538,4.485.811a1.771,1.771,0,0,1,.171.049Z" transform="translate(-533.877 -233.346)" fill="#fff"/>
    </g>
  </g>
</svg>
