<svg id="Group_47052" data-name="Group 47052" xmlns="http://www.w3.org/2000/svg" width="102.13" height="19.818" viewBox="0 0 102.13 19.818">
  <path id="Path_31947" data-name="Path 31947" d="M72.13,0h-95A7.135,7.135,0,0,0-30,7.135V19.818H56.275Z" transform="translate(30)" fill="#9eef9e"/>
  <path id="Path_31952" data-name="Path 31952" d="M-9.866,0h-13A7.135,7.135,0,0,0-30,7.135V19.818H-9.866Z" transform="translate(30)" fill="#66cc6a"/>
  <g id="iL91zE.tif" transform="translate(4.149 3.866)">
    <g id="Group_46931" data-name="Group 46931">
      <path id="Path_31948" data-name="Path 31948" d="M545.854,239.408l0-.051a1.8,1.8,0,0,0-.174-.049c-1.515-.276-3.029-.556-4.546-.822a.4.4,0,0,1-.376-.358q-.352-1.953-.707-3.906a6.633,6.633,0,0,0-.18-.876.763.763,0,0,0-.056.127c-.14.768-.277,1.536-.417,2.3-.146.8-.3,1.6-.44,2.4a.334.334,0,0,1-.29.3q-1.933.352-3.868.7c-.308.056-.615.117-.922.175a.446.446,0,0,0,.228.1l4.468.814c.3.055.355.107.407.394q.355,1.963.707,3.927c.048.265.1.528.163.841a1.046,1.046,0,0,0,.07-.162q.251-1.382.5-2.765.17-.942.339-1.883a.364.364,0,0,1,.3-.34q1.843-.331,3.686-.662C545.116,239.552,545.485,239.479,545.854,239.408Z" transform="translate(-533.877 -233.346)" fill="#fff"/>
      <path id="Path_31949" data-name="Path 31949" d="M545.854,239.408c-.37.07-.739.144-1.109.211q-1.843.333-3.686.662a.364.364,0,0,0-.3.34q-.168.942-.339,1.883-.249,1.382-.5,2.765a1.046,1.046,0,0,1-.07.162c-.061-.313-.115-.576-.163-.841q-.355-1.963-.707-3.927c-.052-.287-.106-.339-.407-.394l-4.468-.814a.446.446,0,0,1-.228-.1c.307-.058.615-.119.922-.175q1.934-.35,3.868-.7a.334.334,0,0,0,.29-.3c.143-.8.294-1.6.44-2.4.14-.768.277-1.536.417-2.3a.763.763,0,0,1,.056-.127,6.633,6.633,0,0,1,.18.876q.358,1.952.707,3.906a.4.4,0,0,0,.376.358c1.517.266,3.031.545,4.546.822a1.8,1.8,0,0,1,.174.049Z" transform="translate(-533.877 -233.346)" fill="#fff"/>
    </g>
  </g>
</svg>
