<svg id="Group_47051" data-name="Group 47051" xmlns="http://www.w3.org/2000/svg" width="101.623" height="19.729" viewBox="0 0 101.623 19.729">
  <path id="Path_31947" data-name="Path 31947" d="M71.623,0H-22.9A7.1,7.1,0,0,0-30,7.1V19.729H55.84Z" transform="translate(30)" fill="#ffd153"/>
  <path id="Path_31952" data-name="Path 31952" d="M-9.957,0H-22.9A7.1,7.1,0,0,0-30,7.1V19.729H-9.957Z" transform="translate(30)" fill="#fa8700"/>
  <g id="iL91zE.tif" transform="translate(4.131 3.849)">
    <g id="Group_46931" data-name="Group 46931">
      <path id="Path_31948" data-name="Path 31948" d="M545.8,239.381l0-.051a1.786,1.786,0,0,0-.173-.049c-1.508-.275-3.016-.553-4.525-.818a.4.4,0,0,1-.374-.356q-.35-1.945-.7-3.889a6.59,6.59,0,0,0-.179-.872.756.756,0,0,0-.056.126c-.139.764-.276,1.529-.415,2.293-.145.8-.3,1.594-.438,2.392a.332.332,0,0,1-.289.3q-1.925.35-3.85.7c-.307.056-.612.116-.918.174a.444.444,0,0,0,.227.1l4.448.811c.3.055.354.107.405.392q.354,1.954.7,3.909c.048.263.1.525.162.837a1.039,1.039,0,0,0,.069-.162q.25-1.376.5-2.752.169-.937.338-1.875a.363.363,0,0,1,.3-.339q1.835-.33,3.669-.659C545.065,239.524,545.432,239.451,545.8,239.381Z" transform="translate(-533.877 -233.346)" fill="#fff"/>
      <path id="Path_31949" data-name="Path 31949" d="M545.8,239.381c-.368.07-.736.143-1.1.21q-1.834.331-3.669.659a.363.363,0,0,0-.3.339q-.167.938-.338,1.875-.248,1.376-.5,2.752a1.039,1.039,0,0,1-.069.162c-.061-.312-.115-.574-.162-.837q-.353-1.954-.7-3.909c-.052-.286-.106-.338-.405-.392l-4.448-.811a.444.444,0,0,1-.227-.1c.306-.058.612-.119.918-.174q1.925-.349,3.85-.7a.332.332,0,0,0,.289-.3c.143-.8.293-1.594.438-2.392.139-.764.276-1.529.415-2.293a.756.756,0,0,1,.056-.126,6.59,6.59,0,0,1,.179.872q.356,1.944.7,3.889a.4.4,0,0,0,.374.356c1.51.265,3.017.543,4.525.818a1.786,1.786,0,0,1,.173.049Z" transform="translate(-533.877 -233.346)" fill="#fff"/>
    </g>
  </g>
</svg>
