<svg xmlns="http://www.w3.org/2000/svg" width="43.171" height="53.409" viewBox="0 0 43.171 53.409">
  <g id="nT75cR.tif" transform="translate(0 0)">
    <g id="Group_2556" data-name="Group 2556">
      <path id="Path_4607" data-name="Path 4607" d="M192.349,659.437c-1.365-1.073-3.228-2.192-5.552-1.358.036-.07.074-.139.112-.209a5.141,5.141,0,0,0,.337-.708,1.3,1.3,0,0,1,.745-.777,3.6,3.6,0,0,0,2.193-3.805,7.308,7.308,0,0,0-1.554-3.608.479.479,0,0,0-.319-.211.6.6,0,0,0-.436.16A7.367,7.367,0,0,0,186,651.109a4.8,4.8,0,0,0-.64,2.288,4.66,4.66,0,0,0,1.038,2.936.3.3,0,0,1,.038.365,11.723,11.723,0,0,1-.721,1.319,8.729,8.729,0,0,1-.746,1.006c0-.048,0-.089,0-.129a3.6,3.6,0,0,0-.531-1.77,5.438,5.438,0,0,0-3.77-2.327.44.44,0,0,0-.346.06.525.525,0,0,0-.2.371,6.759,6.759,0,0,0,.309,3.5,2.921,2.921,0,0,0,2.19,1.9,4.884,4.884,0,0,0,.517.075l.086.009a15.572,15.572,0,0,1-3.022,1.843c-.036.018-.058.024-.063.028a.28.28,0,0,1,0-.076,5.446,5.446,0,0,0-.14-1.586,4.908,4.908,0,0,0-3.343-3.5,14.957,14.957,0,0,0-4.478-.687c-.185-.006-.214-.035-.227-.219-.082-1.162-.126-2.378-.13-3.615a.349.349,0,0,1,.167-.325,23.015,23.015,0,0,1,1.964-1.235c.251-.144.352-.171.619.06a5.585,5.585,0,0,0,6,1.1c2.6-1.021,3.717-3.315,4.4-5.2a.451.451,0,0,0-.3-.6,12.348,12.348,0,0,0-4.445-.954c-.107,0-.214,0-.322.006a5.881,5.881,0,0,0-5.339,3.239l-.016.031a2.344,2.344,0,0,0-.353,1.03c0,.1-.026.125-.118.171a21.836,21.836,0,0,0-2.026,1.168c-.027.018-.054.039-.081.06a.517.517,0,0,1-.121.081V651.5c.02-1.388.114-2.79.2-3.978.016-.208.073-.279.255-.32a2.679,2.679,0,0,0,.465-.164l.076-.032a5.232,5.232,0,0,0,3.319-6.109,10.148,10.148,0,0,0-2.858-4.77.452.452,0,0,0-.672.007,12.473,12.473,0,0,0-2.884,3.452,5.889,5.889,0,0,0,.975,7.253l.041.042a.813.813,0,0,0,.27.2c.095.036.1.067.091.2-.057.767-.109,1.533-.159,2.3-.014.221-.025.443-.035.662l-.012.231-.012-.01a17.055,17.055,0,0,0-2.034-1.516c-.08-.049-.095-.114-.113-.223a6.54,6.54,0,0,0-.467-1.519,5.337,5.337,0,0,0-6-3.241,10.613,10.613,0,0,0-4.265,1.876.46.46,0,0,0-.141.7,12.626,12.626,0,0,0,2.748,3.313,5.851,5.851,0,0,0,7.813.037c.065-.052.076-.046.143,0l.04.028a20.44,20.44,0,0,1,2.092,1.634.421.421,0,0,1,.163.367,46.793,46.793,0,0,0,.138,4.724c.007.072-.005.087-.006.087s-.016.014-.089.018l-.1.006c-.337.021-.686.041-1.027.086l-.356.046a10.039,10.039,0,0,0-2.972.69,4.868,4.868,0,0,0-3.047,3.94,7.237,7.237,0,0,0-.033,1.044c0,.142.005.285,0,.427,0,.082-.007.108,0,.108s-.027,0-.094-.031a16.647,16.647,0,0,1-3.878-2.462.469.469,0,0,0-.043-.032l-.008-.005h.112a3.278,3.278,0,0,0,3.312-2.273,7.775,7.775,0,0,0,.317-3.588.529.529,0,0,0-.763-.545,7.473,7.473,0,0,0-1.991.734,4.4,4.4,0,0,0-2.5,3.381,5.935,5.935,0,0,0-.038.593c0,.027,0,.054,0,.081a12.179,12.179,0,0,1-1.458-2.348.484.484,0,0,1,.069-.585,5,5,0,0,0,1.077-3.495,7.721,7.721,0,0,0-2.739-5.009.475.475,0,0,0-.4-.162.543.543,0,0,0-.375.261,9.511,9.511,0,0,0-1.652,3.846,4.175,4.175,0,0,0,.73,3.37,4.966,4.966,0,0,0,2.011,1.508l.019.009c.1.042.169.074.207.168.1.239.2.477.306.707l.077.172a4.526,4.526,0,0,0-1.66-.322,7.009,7.009,0,0,0-4.444,1.856.475.475,0,0,0-.188.355.511.511,0,0,0,.187.382,8.092,8.092,0,0,0,3.281,1.907,3.6,3.6,0,0,0,3.693-.874,5.764,5.764,0,0,0,.724-.9,13.163,13.163,0,0,0,1.736,1.718,17.733,17.733,0,0,0,4.153,2.535.714.714,0,0,0,.072.027c.1.033.115.047.115.093-.008.315-.02.63-.034.945l-.008.205c0,.029-.023.049-.078.1a1.786,1.786,0,0,0-.578,1.1,4.674,4.674,0,0,0,.9,3.856.724.724,0,0,1,.16.279,10.453,10.453,0,0,0,2.135,4.3.486.486,0,0,1,.128.324c.008.807.024,1.524.046,2.193.005.156-.027.2-.176.246-.956.281-1.91.571-2.864.86l-1.2.361a4.329,4.329,0,0,0-2.515,1.958,3.951,3.951,0,0,0,.238,4.516,9.461,9.461,0,0,0,3.168,2.24,19.59,19.59,0,0,0,6.2,1.6,28,28,0,0,0,2.935.156,24.3,24.3,0,0,0,6.913-.973,11.809,11.809,0,0,0,4.589-2.364,4.024,4.024,0,0,0,1.3-1.749,4.138,4.138,0,0,0-.281-3.207,4.327,4.327,0,0,0-2.583-2.162c-1.408-.435-2.807-.856-4.109-1.247-.122-.038-.161-.068-.173-.185a16.2,16.2,0,0,1-.075-2.148.5.5,0,0,1,.144-.321,10.353,10.353,0,0,0,2.214-4.317.742.742,0,0,1,.127-.3,4.6,4.6,0,0,0,1.021-3.443,2.1,2.1,0,0,0-.671-1.592c-.049-.04-.053-.087-.056-.188,0-.132-.009-.264-.013-.4-.01-.322-.02-.655-.042-.982-.011-.155.03-.217.188-.288a15.166,15.166,0,0,0,4.628-3.087c.13-.13.243-.242.286-.242h0c.04,0,.127.129.233.283a3.285,3.285,0,0,0,3.2,1.587,6.53,6.53,0,0,0,3.738-1.9.443.443,0,0,0,.163-.346A.526.526,0,0,0,192.349,659.437Zm-6.038.575,0-.015-.011.01-.074-.027c-.136-.047-.218-.11-.23-.175s.036-.146.141-.24l.055-.057.013-.019s.007-.012.043-.015l.061-.005.014-.059c.054-.214.208-.261.453-.319l.085-.02.018-.035a.713.713,0,0,1,.553-.309l.069-.015a4.251,4.251,0,0,1,1.738,0l.141.024a1.223,1.223,0,0,1,.442.128l.037.021c.057.03.067.039.069.063l.006.072.072.006c.031,0,.064,0,.1,0,.139,0,.19.01.222.108l.018.054.057,0,.063,0c.13,0,.175.014.2.1l.016.063h.066a.253.253,0,0,1,.078.007.059.059,0,0,1,.005.025l.005.074.074.005c.038,0,.041.008.044.014l.092.094.029,0c.2.025.293.064.312.212v.1l-.105-.14-.014.232c-.008.123-.063.138-.231.15l-.048,0-.108.074,0,.04c-.016.16-.12.211-.289.281a1.251,1.251,0,0,0-.167.079,4.485,4.485,0,0,1-1.455.562,3.1,3.1,0,0,1-.694.036,4.523,4.523,0,0,0-.517.01.479.479,0,0,1-.406-.253l-.011-.031-.189-.1-.046.043-.019.021a1.479,1.479,0,0,1-.732-.756v-.005h.352Zm.507-4.764a3.57,3.57,0,0,1,.221-4.032,6.454,6.454,0,0,1,1.051-1.233c.019-.018.052-.049.058-.053s.014.007.037.043a5.87,5.87,0,0,1,1.08,2.849,2.735,2.735,0,0,1-1.6,2.671c-.112.059-.2.111-.276.152a.69.69,0,0,1-.251.115c-.038-.01-.1-.127-.185-.274C186.916,655.419,186.872,655.34,186.818,655.248ZM184,659.589c-.015.13-.053.164-.185.167l-.084,0a3.5,3.5,0,0,1-1.006-.073,2.239,2.239,0,0,1-1.615-1.948,4.232,4.232,0,0,1-.112-1.227v-.623c0-.03,0-.045,0-.049a.148.148,0,0,1,.037.007,4.227,4.227,0,0,1,2.69,1.939A2.975,2.975,0,0,1,184,659.589ZM172.3,645.318l.038-.239a11.208,11.208,0,0,1,.309-1.441.669.669,0,0,0,.01-.535c-.069-.117-.2-.19-.46-.25l-.025-.005-.025.009a.65.65,0,0,0-.393.467,17.846,17.846,0,0,0-.5,2.6.616.616,0,0,0,0,.071c0,.019,0,.036,0,.05l0-.006a.45.45,0,0,0-.034-.044,4.962,4.962,0,0,1-.662-5.932,11.454,11.454,0,0,1,2.325-2.895c.036-.034.055-.044.057-.049a.239.239,0,0,1,.031.053l.014.021a7.6,7.6,0,0,1,2.355,4.855,4.038,4.038,0,0,1-2.026,3.648,4.711,4.711,0,0,1-1.121.546A8.375,8.375,0,0,1,172.3,645.318Zm4.182,29.815a15.533,15.533,0,0,0,.112,2.817.6.6,0,0,0,.465.541l.724.217c1.251.374,2.546.761,3.811,1.167a3.119,3.119,0,0,1,.946,5.62,11.223,11.223,0,0,1-4.276,2.086,24.727,24.727,0,0,1-9.4.7,18.717,18.717,0,0,1-5.638-1.429,8.551,8.551,0,0,1-2.645-1.714,2.987,2.987,0,0,1-.324-4.015,3.3,3.3,0,0,1,1.737-1.269q1.576-.482,3.152-.958l1.359-.412c.4-.122.488-.24.483-.665q0-.393-.01-.786t-.01-.788c0-.021,0-.043,0-.065a.47.47,0,0,1,0-.081l.089.071c.144.117.287.231.433.341a6.965,6.965,0,0,0,4.135,1.458h.022c.47,0,.579-.244.587-.451.006-.174-.06-.469-.578-.493-.055,0-.11-.008-.165-.015L171.4,677a5.635,5.635,0,0,1-3.291-1.214,9.408,9.408,0,0,1-3.469-5.416,1.219,1.219,0,0,0-.25-.5,3.741,3.741,0,0,1-.771-3.273.772.772,0,0,1,.366-.554.562.562,0,0,0,.271-.49,27.827,27.827,0,0,0,.076-3.1,4.077,4.077,0,0,1,3.214-4.261,15.632,15.632,0,0,1,4.479-.509,14.627,14.627,0,0,1,4.266.607,4.247,4.247,0,0,1,2.08,1.432,3.682,3.682,0,0,1,.816,2.34v.075c0,1.09.01,2.217.072,3.327a.68.68,0,0,0,.351.624.678.678,0,0,1,.307.524,3.724,3.724,0,0,1-.765,3.228,1.364,1.364,0,0,0-.283.582,9.388,9.388,0,0,1-2.142,4.13A.9.9,0,0,0,176.485,675.133Zm-1-26.046c0-.1.025-.138.107-.152l.15.025-.069-.147-.005-.011.023-.006.042-.007.018-.038a1.781,1.781,0,0,0,.076-.184c.071-.188.126-.316.277-.363v.055l.41-.272-.236.021a.131.131,0,0,1,.036-.069.162.162,0,0,1,.13-.026l.084.056.031-.113a.489.489,0,0,1,.429-.39l-.076.458.181-.361.033.295.111-.508c.016-.076.044-.119.134-.121l-.072.232.283-.283h.011a.1.1,0,0,0,.055,0l.048-.017.02-.033.012-.04c0-.042.012-.051.09-.087l.04-.018a1.591,1.591,0,0,1,.328-.107,1.107,1.107,0,0,0,.56-.26c.294.009.588-.01.875-.029a4.719,4.719,0,0,1,1.451.048c.181.044.369.072.55.1a4.884,4.884,0,0,1,.734.149,6.99,6.99,0,0,1,1.463.391c.044.015.061.023.069.033l-.1.139.144-.025.074.132a.176.176,0,0,1-.069.009h-.028l-.023.016a.1.1,0,0,0-.04.123.454.454,0,0,1-.055.264c-.011.027-.022.053-.032.081a6.353,6.353,0,0,1-1,1.706l-.08.1a4.432,4.432,0,0,1-.5.576c-.013.012-.026.025-.039.038-.056.059-.068.067-.105.051l-.06-.017-.028-.074-.025.059h0l-.028.079-.042,0,.01.077c-.011.027-.02.055-.029.083-.02.063-.041.128-.075.145a.183.183,0,0,1-.116-.009l-.033-.009-.107.043.031.079a.07.07,0,0,1,0,.043,2.416,2.416,0,0,0-.351.234,1.671,1.671,0,0,1-.489.289c-.442.147-.827.282-1.174.414a.586.586,0,0,1-.493.008l-.023-.011-.193.022-.016.053c-.013.04-.02.044-.1.037-.023,0-.046,0-.067,0h-.01a5.359,5.359,0,0,1-2.2-.42,3.281,3.281,0,0,1-.8-.432.421.421,0,0,1-.044-.038l.123.012-.286-.285-.015.083c-.167-.021-.222-.051-.214-.2l-.038-.156-.008-.006a1.823,1.823,0,0,0,.219-.085.957.957,0,0,1,.382-.1h.033l.109-.1,0-.033a.4.4,0,0,1,.018-.081.35.35,0,0,1,.072.027.518.518,0,0,0,.1.038l.059.089.066-.129c.06-.116.16-.131.317-.146l.105-.012.023-.025a.73.73,0,0,1,.419-.2c.057-.014.114-.029.17-.046l.029-.01c.152-.049.406-.13.345-.407-.068-.311-.385-.295-.535-.287a1.154,1.154,0,0,0-.378.1.784.784,0,0,1-.413.084l-.013,0-.014,0a2.33,2.33,0,0,0-.594.2c-.1.042-.2.086-.3.121a.475.475,0,0,0-.083.039.187.187,0,0,1-.077.031.312.312,0,0,1,.018-.231.418.418,0,0,1,.223-.2l.4-.165Zm-7.854-.851a.383.383,0,0,0-.04-.021,12.772,12.772,0,0,0-2.079-.8c-.4-.112-.539-.051-.731.307l-.012.022.019.208.022.072a.716.716,0,0,0,.486.315,10.568,10.568,0,0,1,2.35.98,5.066,5.066,0,0,1-1.4.774,4.788,4.788,0,0,1-4.976-.948,10.113,10.113,0,0,1-2.28-2.654c-.013-.016-.029-.032-.044-.049s-.032-.033-.043-.048a.484.484,0,0,1,.072-.033l.112-.071a8.426,8.426,0,0,1,3.626-1.439,4.22,4.22,0,0,1,3.456.995,4.958,4.958,0,0,1,1.5,2.407A.316.316,0,0,1,167.628,648.236Zm-8.265,8.606c.022-.185.1-.267.264-.281l.033,0,.022-.024.044-.042.128-.119.008-.023c.074-.229.175-.336.339-.35l0,.629.2-.786c.028-.02.105-.012.151-.009l.1-.01,0-.106a.168.168,0,0,1,.008-.061,3.952,3.952,0,0,0,.379-.158,2.12,2.12,0,0,1,.686-.225l.129-.006.023-.044a.28.28,0,0,1,.221-.156.134.134,0,0,1,.124.047.156.156,0,0,0,.022.055l.014.021.022.011c.057.027.061.067.059.186,0,.163,0,.326,0,.489a4.808,4.808,0,0,1-.125,1.479c-.026.087-.047.177-.069.268a1.4,1.4,0,0,1-.345.754l-.023.023,0,.032c-.016.2-.076.287-.214.321l-.056.025-.01.055c-.014.082-.029.166-.068.192a.172.172,0,0,1-.115,0l-.026-.006-.14.054-.014.032c-.01.022-.02.043-.03.063l-.011.023,0,.025c.006.053,0,.062-.087.094a.491.491,0,0,0-.115.059,2.165,2.165,0,0,1-1.5.328c-.1,0-.2-.005-.3-.005l-.168,0a.067.067,0,0,1-.01-.033l0-.033-.111-.095-.024,0c-.027,0-.076-.012-.081-.126a3.964,3.964,0,0,1,.5-2.409.063.063,0,0,1,.076-.036l.241.039Zm-4.371-1.646.044.128a1.125,1.125,0,0,1-.8-.586l-.162-.353v.179l-.037-.04-.025-.005a.133.133,0,0,0-.078-.1h.033l-.2-.2.085-.086-.189-.012a.184.184,0,0,1-.13-.044c-.038-.042-.031-.134-.025-.224v-.027a.11.11,0,0,0-.029-.114l-.04-.056-.062.044-.008-.08h-.048a.029.029,0,0,1-.024-.02,4.825,4.825,0,0,1-.161-.984l-.01-.1,0,0c.014-.009.028-.019.039-.028l.029-.026v-.308l-.038-.024c-.078-.051-.074-.087-.027-.21a.523.523,0,0,0,.044-.175,1.292,1.292,0,0,1,.208-.789l.025-.056-.013-.033a1.6,1.6,0,0,1,.1-.5c.028-.094.057-.189.076-.286a.1.1,0,0,1,.1-.082l.184-.016-.111-.111-.005-.048c-.008-.055-.017-.117,0-.139a.143.143,0,0,1,.091-.029l0-.032.065-.064.012,0v-.009l.289-.289-.081.027-.025-.117c-.017-.085,0-.126.082-.152l.033-.011.132-.251.011-.079c0-.131.015-.148.091-.155l.028,0,.02-.018c.057-.05.074-.055.08-.048s.048.026.129.189l.063.07.077.136.042,0c.025,0,.032.008.036.038l.007.067.067.009c.031,0,.038.005.036.105a.4.4,0,0,1,0,.04l0,.071.07.01.023,0,.045.031.07.074.032,0c.056.006.093.019.093.141v.023l.093.163.041.006c.051.009.091.024.094.145v.072l.072.011c.054.008.095.023.091.142v.023l.087.164.038.01c.105.024.119.087.139.213a.843.843,0,0,0,.023.121l.007.027.023.018a1.042,1.042,0,0,1,.32.583c.019.062.037.122.057.18a4.176,4.176,0,0,1,.241,1.988,4.754,4.754,0,0,1-.8,2.049,1.136,1.136,0,0,0-.069.118,1.173,1.173,0,0,1-.063.106l-.009-.057-.224-.011c-.036.005-.063,0-.1.008Zm-.956-5.922.072.012-.06.02Zm2.494,9.957a4.673,4.673,0,0,1-.734.891,2.64,2.64,0,0,1-2.545.571,7.094,7.094,0,0,1-2.584-1.351c-.032-.025-.042-.04-.046-.041a.228.228,0,0,1,.059-.052,5.605,5.605,0,0,1,2.979-1.244h.045a3.884,3.884,0,0,1,2.79,1.009C156.589,659.1,156.594,659.135,156.529,659.231Z" transform="translate(-149.407 -635.978)"/>
      <g id="Group_2408" data-name="Group 2408" transform="translate(30.55 4.311)">
        <path id="Path_4608" data-name="Path 4608" d="M195.782,642.3a.163.163,0,0,1,.194.118c.071.173.145.344.208.52a1.008,1.008,0,0,0,.64.652,3.451,3.451,0,0,1,.412.173c.1.051.268.049.265.2,0,.134-.152.147-.249.2a1.193,1.193,0,0,1-.21.079,1.305,1.305,0,0,0-.948.941c-.048.157-.049.4-.266.414-.235.012-.236-.248-.276-.4a1.451,1.451,0,0,0-1.146-1.029c-.119-.035-.253-.073-.251-.221s.14-.167.246-.191a1.525,1.525,0,0,0,1.208-1.216C195.638,642.43,195.673,642.315,195.782,642.3Z" transform="translate(-194.157 -642.293)" fill="#d4d5e1"/>
      </g>
      <g id="Group_2409" data-name="Group 2409" transform="translate(15.095 16.517)">
        <path id="Path_4609" data-name="Path 4609" d="M174.369,661.619a.394.394,0,0,1-.072.09.4.4,0,0,1-.149.077,1.245,1.245,0,0,0-1.031,1.043c-.02.087-.059.194-.178.187s-.164-.126-.183-.221a1.26,1.26,0,0,0-.974-1,.639.639,0,0,1-.127-.055c-.172-.1-.2-.193.009-.281a.68.68,0,0,1,.1-.047,1.272,1.272,0,0,0,.993-.986c.024-.1.052-.246.189-.251s.156.156.179.25a1.344,1.344,0,0,0,1.047,1.01C174.261,661.457,174.365,661.47,174.369,661.619Z" transform="translate(-171.518 -660.172)" fill="#d4d5e1"/>
      </g>
      <g id="Group_2410" data-name="Group 2410" transform="translate(10.137 21.621)">
        <path id="Path_4610" data-name="Path 4610" d="M176.735,667.649a14.8,14.8,0,0,1,4.291.612,4.335,4.335,0,0,1,2.121,1.46,3.748,3.748,0,0,1,.836,2.392c.005,1.133.01,2.266.072,3.4a.6.6,0,0,0,.308.554.77.77,0,0,1,.35.583,3.83,3.83,0,0,1-.783,3.3,1.281,1.281,0,0,0-.265.547,9.43,9.43,0,0,1-2.163,4.166.813.813,0,0,0-.219.528,15.322,15.322,0,0,0,.111,2.8.512.512,0,0,0,.4.471c1.514.454,3.031.9,4.536,1.384a3.2,3.2,0,0,1,.974,5.767,11.389,11.389,0,0,1-4.306,2.1,24.671,24.671,0,0,1-9.434.7,18.88,18.88,0,0,1-5.664-1.436,8.713,8.713,0,0,1-2.67-1.731,3.065,3.065,0,0,1-.334-4.125,3.365,3.365,0,0,1,1.781-1.3c1.5-.461,3.007-.915,4.51-1.372.365-.111.427-.193.423-.582-.005-.524-.015-1.049-.02-1.573a.4.4,0,0,1,.042-.286c.205.163.4.328.61.483a6.847,6.847,0,0,0,4.085,1.441c.341,0,.513-.12.522-.369s-.162-.389-.5-.4c-.083,0-.167-.016-.25-.024,0-.119.044-.246-.047-.349a4.222,4.222,0,0,1-.513-.918c-.462-.887-.915-1.778-1.324-2.693a29,29,0,0,1-1.379-3.85c-.1-.349-.164-.7-.247-1.056a10.024,10.024,0,0,1-.253-1.445c-.03-.344-.007-.693-.065-1.03a6.474,6.474,0,0,1,.052-1.864,6.989,6.989,0,0,1,.639-2.286,7.916,7.916,0,0,1,1.208-1.864,9.621,9.621,0,0,1,2.508-1.931C176.753,667.812,176.866,667.751,176.735,667.649Zm5.659,3.857c-.081-.181-.279-.21-.436-.248a1.059,1.059,0,0,1-.789-.791,1.422,1.422,0,0,0-.116-.255c-.043-.076-.056-.2-.178-.184-.1.017-.137.115-.161.211a1.436,1.436,0,0,1-1.1,1.1.519.519,0,0,0-.055.015c-.081.032-.165.075-.16.171s.089.132.171.163c.157.059.311.126.467.188a1.2,1.2,0,0,1,.649.893c.033.1.076.238.2.244s.171-.13.195-.238a1.383,1.383,0,0,1,1.066-1.066.655.655,0,0,0,.155-.062A.166.166,0,0,0,182.394,671.506ZM171.5,690.127c-.2.006-.216.124-.242.218a1.239,1.239,0,0,1-.869.965c-.138.04-.382.046-.374.231.009.208.261.2.418.255a1.081,1.081,0,0,1,.75.763.653.653,0,0,0,.1.228c.053.065.027.213.167.188.109-.018.139-.124.161-.21a1.353,1.353,0,0,1,1.019-1.039c.094-.025.213-.039.225-.175.012-.152-.13-.135-.209-.184a4.449,4.449,0,0,1-.647-.325c-.233-.2-.262-.485-.38-.734C171.58,690.226,171.563,690.126,171.5,690.127Zm8.867,3.368a.55.55,0,0,0-.6.581.608.608,0,0,0,.606.6.616.616,0,0,0,.612-.6A.6.6,0,0,0,180.369,693.5Zm1.646,0a.56.56,0,0,0-.616.565.6.6,0,0,0,.583.619.558.558,0,0,0,.6-.614A.525.525,0,0,0,182.015,693.495Zm1.625,0a.575.575,0,0,0-.612.573.607.607,0,0,0,.567.61.591.591,0,0,0,.616-.614A.524.524,0,0,0,183.64,693.5Z" transform="translate(-164.256 -667.649)" fill="#d2d4e1"/>
      </g>
      <g id="Group_2411" data-name="Group 2411" transform="translate(14.031 21.613)">
        <path id="Path_4611" data-name="Path 4611" d="M178.545,667.645c.13.1.018.163-.049.2a9.62,9.62,0,0,0-2.508,1.931,7.92,7.92,0,0,0-1.208,1.864,6.989,6.989,0,0,0-.639,2.286,6.475,6.475,0,0,0-.052,1.864c.058.337.035.686.065,1.03a10.023,10.023,0,0,0,.253,1.445c.083.352.147.707.247,1.056a28.993,28.993,0,0,0,1.379,3.85c.409.915.862,1.806,1.324,2.693a4.224,4.224,0,0,0,.513.917c.091.1.051.23.047.35a5.7,5.7,0,0,1-3.341-1.23,9.466,9.466,0,0,1-3.5-5.465,1.132,1.132,0,0,0-.233-.469,3.8,3.8,0,0,1-.788-3.346.853.853,0,0,1,.406-.612.468.468,0,0,0,.229-.421,27.909,27.909,0,0,0,.076-3.086,4.165,4.165,0,0,1,3.278-4.348A15.718,15.718,0,0,1,178.545,667.645Z" transform="translate(-169.959 -667.637)" fill="#dbdbe7"/>
      </g>
      <g id="Group_2412" data-name="Group 2412" transform="translate(22.624 1.156)">
        <path id="Path_4612" data-name="Path 4612" d="M183.559,637.671a7.6,7.6,0,0,1,2.378,4.909,4.134,4.134,0,0,1-2.064,3.723,4.85,4.85,0,0,1-1.258.593,9.5,9.5,0,0,1,.157-1.294,11.352,11.352,0,0,1,.311-1.452c.129-.44.051-.575-.387-.677-.016-.089-.171-.054-.147-.2.143-.887.268-1.777.409-2.665.134-.833.287-1.662.416-2.5C183.4,637.942,183.4,637.779,183.559,637.671Z" transform="translate(-182.546 -637.671)" fill="#cad83a"/>
      </g>
      <g id="Group_2413" data-name="Group 2413" transform="translate(25.864 11.612)">
        <path id="Path_4613" data-name="Path 4613" d="M191.013,657.434l-.113.013a7.107,7.107,0,0,1-1.472-.113,5.764,5.764,0,0,1-1.95-.868l0,0-.173-.171c-.072-.212.158-.255.22-.393l0,0c.066,0,.138.022.165-.068h0a.3.3,0,0,0,.348-.158l.09-.043.022-.007h0c.029.044.043.031.049-.013v0c.12.015.237.023.294-.117l.016,0a.358.358,0,0,0,.358-.124l0,0c.263-.038.574.049.726-.278l0,0c.061-.01.071-.055.07-.107h0c.115,0,.13-.1.171-.167.418-.1.809-.281,1.217-.41,1.178-.374,2.355-.754,3.542-1.1a5.247,5.247,0,0,1,1.2-.343c.044.2-.171.362-.1.571l0,0c-.063.021-.067.072-.061.127a.028.028,0,0,1-.012.032c-.121.02-.108.108-.1.194-.04.084-.076.169-.12.251A9.429,9.429,0,0,1,194.026,656v0l-.057.052,0,.015-.005-.014a.8.8,0,0,0-.332.282h0A5.715,5.715,0,0,1,191.013,657.434Z" transform="translate(-187.293 -652.988)" fill="#cad83a"/>
      </g>
      <g id="Group_2414" data-name="Group 2414" transform="translate(9.513 10.244)">
        <path id="Path_4614" data-name="Path 4614" d="M169.3,652.745a.631.631,0,0,0,.436.275,10.755,10.755,0,0,1,2.477,1.049,5.11,5.11,0,0,1-1.522.866,4.9,4.9,0,0,1-5.059-.961,10.269,10.269,0,0,1-2.293-2.667l.008-.255.109-.07c0,.182.153.208.273.227.569.087,1.127.231,1.69.344a28.887,28.887,0,0,1,3.05.767c.264.084.537.136.806.2l.015.167c-.005.007-.016.016-.014.019A.327.327,0,0,0,169.3,652.745Z" transform="translate(-163.341 -650.984)" fill="#cad83a"/>
      </g>
      <g id="Group_2415" data-name="Group 2415" transform="translate(9.629 8.746)">
        <path id="Path_4615" data-name="Path 4615" d="M169.329,651.829c-.269-.067-.542-.119-.806-.2a28.857,28.857,0,0,0-3.05-.767c-.563-.113-1.121-.257-1.69-.344-.12-.018-.271-.045-.273-.227a8.547,8.547,0,0,1,3.663-1.453,4.285,4.285,0,0,1,3.521,1.016,5.094,5.094,0,0,1,1.557,2.546c-.105.048-.164-.01-.225-.04a12.841,12.841,0,0,0-2.065-.793C169.6,651.463,169.5,651.5,169.329,651.829Z" transform="translate(-163.511 -648.79)" fill="#b0ce40"/>
      </g>
      <g id="Group_2416" data-name="Group 2416" transform="translate(3.804 12.746)">
        <path id="Path_4616" data-name="Path 4616" d="M156.884,655.031l.04,0,.008.056c.041.254.087.5.408.55h0c0,.063-.016.144.016.188a3.821,3.821,0,0,1,.608,1.235c.022.085.1.1.18.1l.036.115c-.141.142-.033.285.01.417a3.428,3.428,0,0,1-.055,2.269,3.841,3.841,0,0,0-.348,1.036h0c-.042.013-.109.013-.124.041-.137.248-.3.41-.6.239-.047-.026-.126.005-.191.01l0,0c0-.172-.13-.112-.221-.12v0c-.012-.269-.227-.242-.4-.276v0c.016-.134-.073-.128-.162-.122l0,0a.2.2,0,0,0-.075-.194c-.124-.121-.337-.192-.283-.436,0-.02-.059-.072-.1-.082-.156-.041-.213-.175-.266-.3a2.843,2.843,0,0,1-.293-2.028.5.5,0,0,0-.044-.457l.047-.225c.048,0,.1-.014.109-.068a4.645,4.645,0,0,1,.431-1.074c.107-.312.352-.582.3-.946h0c.117.015.147-.062.19-.153.069-.148.149-.251.321-.067a.533.533,0,0,0,.362.167l.041.051Z" transform="translate(-154.979 -654.649)" fill="#cbda38"/>
      </g>
      <g id="Group_2417" data-name="Group 2417" transform="translate(20.372 1.053)">
        <path id="Path_4617" data-name="Path 4617" d="M182.513,637.623c-.157.108-.158.271-.185.442-.129.834-.283,1.663-.416,2.5-.141.887-.266,1.778-.409,2.664-.024.146.132.111.147.2a.555.555,0,0,0-.342.411,17.81,17.81,0,0,0-.494,2.586c-.01.072.01.151-.046.217-.084.021-.107-.057-.146-.1a5.029,5.029,0,0,1-.675-6.029,11.61,11.61,0,0,1,2.342-2.917C182.4,637.488,182.453,637.5,182.513,637.623Z" transform="translate(-179.248 -637.521)" fill="#dfe688"/>
      </g>
      <g id="Group_2418" data-name="Group 2418" transform="translate(36.807 13.868)">
        <path id="Path_4618" data-name="Path 4618" d="M206.458,659.266a2.816,2.816,0,0,1-1.644,2.748c-.71.373-.534.453-.962-.277a3.68,3.68,0,0,1,.223-4.121,6.618,6.618,0,0,1,1.051-1.237c.078-.072.147-.151.239-.006A6.089,6.089,0,0,1,206.458,659.266Z" transform="translate(-203.322 -656.292)" fill="#c9d73b"/>
      </g>
      <g id="Group_2419" data-name="Group 2419" transform="translate(1.128 21.942)">
        <path id="Path_4619" data-name="Path 4619" d="M154.182,668.119a4,4,0,0,1,2.893,1.03c.123.109.141.192.049.328a4.74,4.74,0,0,1-.747.907,2.74,2.74,0,0,1-2.622.59,7.1,7.1,0,0,1-2.616-1.366c-.127-.1-.087-.156.015-.23A5.733,5.733,0,0,1,154.182,668.119Z" transform="translate(-151.06 -668.119)" fill="#c9d73b"/>
      </g>
      <g id="Group_2420" data-name="Group 2420" transform="translate(31.494 19.774)">
        <path id="Path_4620" data-name="Path 4620" d="M195.547,665.7v-.616c0-.1.03-.162.15-.124a4.283,4.283,0,0,1,2.739,1.98,3.092,3.092,0,0,1,.283,1.855.234.234,0,0,1-.268.243,3.887,3.887,0,0,1-1.113-.074,2.351,2.351,0,0,1-1.676-2.012A4.357,4.357,0,0,1,195.547,665.7Z" transform="translate(-195.54 -664.944)" fill="#c9d73b"/>
      </g>
      <g id="Group_2421" data-name="Group 2421" transform="translate(28.343 10.618)">
        <path id="Path_4621" data-name="Path 4621" d="M196.844,653.1c-.072-.208.143-.367.1-.571.134-.246-.094-.241-.21-.274a17.653,17.653,0,0,0-2.363-.555,6.92,6.92,0,0,0-2.327.067,4.42,4.42,0,0,1-1.11.263l-.01-.011a5.717,5.717,0,0,1,2.757-.477,12.51,12.51,0,0,1,1.856.257l1.614.472.011-.018-.012.017c.07.117-.051.21-.04.32a.019.019,0,0,0-.006.027Z" transform="translate(-190.924 -651.531)" fill="#bcc254"/>
      </g>
      <g id="Group_2422" data-name="Group 2422" transform="translate(36.769 23.683)">
        <path id="Path_4622" data-name="Path 4622" d="M208.1,671.241l-.055.038a10.33,10.33,0,0,1-1.179.638,3,3,0,0,1-2.516.1l-.106-.057a6.049,6.049,0,0,1-.894-.782l0,0a.1.1,0,0,0-.063-.109h0l-.017-.1a.225.225,0,0,1,.221.087,2.651,2.651,0,0,0,.963.846,2.129,2.129,0,0,0,1.419.21,5.528,5.528,0,0,0,1.851-.767c.245-.154.539-.315.573-.672l.259.136v.095a.192.192,0,0,0-.118.111v0A.848.848,0,0,0,208.1,671.241Z" transform="translate(-203.266 -670.67)" fill="#89aa5a"/>
      </g>
      <g id="Group_2423" data-name="Group 2423" transform="translate(6.264 14.532)">
        <path id="Path_4623" data-name="Path 4623" d="M159.32,658.105l-.036-.115a6.534,6.534,0,0,0-.272-.705l.024-.02a1.512,1.512,0,0,1,.406.8,4.286,4.286,0,0,1,.244,2.028,4.866,4.866,0,0,1-.819,2.086c-.053.076-.087.166-.143.239s-.124.077-.142-.04a2.854,2.854,0,0,0,.347-.554h0A4.1,4.1,0,0,0,159.32,658.105Z" transform="translate(-158.582 -657.265)" fill="#383212"/>
      </g>
      <g id="Group_2424" data-name="Group 2424" transform="translate(11.251 19.099)">
        <path id="Path_4624" data-name="Path 4624" d="M166.945,664.065l.079,0c.175.005.322-.133.5-.1a.072.072,0,0,0,.012.042c0,.485.016.971-.015,1.455a4.136,4.136,0,0,1-.45,1.745.235.235,0,0,1,0-.286,3.337,3.337,0,0,0,.291-1.206,8.638,8.638,0,0,0,.081-1.268c0-.264-.072-.279-.269-.275a1.265,1.265,0,0,0-.317.089c-.329.091-.586.365-.948.367l-.018-.02c.087-.052.173-.106.261-.156A7.744,7.744,0,0,0,166.945,664.065Z" transform="translate(-165.888 -663.955)" fill="#89aa5a"/>
      </g>
      <g id="Group_2425" data-name="Group 2425" transform="translate(9.286 21.268)">
        <path id="Path_4625" data-name="Path 4625" d="M163.135,669.561l-.068-.058c-.008-.064-.016-.128-.023-.192a3.415,3.415,0,0,1,.358-2.179l.017.016a.929.929,0,0,1-.06.412,3.08,3.08,0,0,0-.221,1.527c.007.2.082.374.353.369a3.353,3.353,0,0,0,1.447-.18.625.625,0,0,1,.271-.055l.016.018a1.823,1.823,0,0,1-.481.223A4.053,4.053,0,0,1,163.135,669.561Z" transform="translate(-163.009 -667.132)" fill="#89aa5a"/>
      </g>
      <g id="Group_2426" data-name="Group 2426" transform="translate(25.721 12.841)">
        <path id="Path_4626" data-name="Path 4626" d="M189.766,655.415c-.042.071-.057.17-.171.167.072-.362-.084-.609-.389-.56a2.614,2.614,0,0,0-.991.325,4.826,4.826,0,0,0-.877.313c-.082.028-.153.115-.255.054q.139-.286.277-.572h0a.637.637,0,0,0,.186-.324h0l.076-.029a.312.312,0,0,1-.1.3c-.086.1-.04.242-.018.343s.17.018.216-.023c.228-.2.539-.19.788-.324a1.846,1.846,0,0,1,.7-.17A.49.49,0,0,1,189.766,655.415Z" transform="translate(-187.083 -654.788)" fill="#bcc254"/>
      </g>
      <g id="Group_2427" data-name="Group 2427" transform="translate(28.235 10.494)">
        <path id="Path_4627" data-name="Path 4627" d="M195.487,651.738a12.51,12.51,0,0,0-1.856-.257,5.718,5.718,0,0,0-2.757.477l-.108.009c0-.115.086-.135.177-.179.284-.141.636-.117.877-.359a.075.075,0,0,1,.052-.017,11.446,11.446,0,0,1,2.343.023c.416.1.858.114,1.274.246Z" transform="translate(-190.766 -651.35)" fill="#2b331a"/>
      </g>
      <g id="Group_2428" data-name="Group 2428" transform="translate(32.597 11.7)">
        <path id="Path_4628" data-name="Path 4628" d="M198.822,653.6l.259-.483a.7.7,0,0,1-.09.4,6.5,6.5,0,0,1-1.01,1.728,5.469,5.469,0,0,1-.59.69c-.066.06-.119.154-.235.1a9.425,9.425,0,0,0,1.369-1.838c.044-.082.08-.167.12-.251a.25.25,0,0,0,.1-.194.028.028,0,0,0,.012-.032.135.135,0,0,0,.061-.127Z" transform="translate(-197.156 -653.116)" fill="#383212"/>
      </g>
      <g id="Group_2429" data-name="Group 2429" transform="translate(26.045 15.09)">
        <path id="Path_4629" data-name="Path 4629" d="M187.562,658.082a5.766,5.766,0,0,0,1.95.868,7.1,7.1,0,0,0,1.472.113c-.044.145-.167.089-.259.092a5.53,5.53,0,0,1-2.239-.425,3.466,3.466,0,0,1-.823-.443A.193.193,0,0,1,187.562,658.082Z" transform="translate(-187.558 -658.082)" fill="#383212"/>
      </g>
      <g id="Group_2430" data-name="Group 2430" transform="translate(3.713 15.377)">
        <path id="Path_4630" data-name="Path 4630" d="M154.98,658.5a.5.5,0,0,1,.044.457,2.844,2.844,0,0,0,.293,2.028c.053.122.11.255.266.3.04.01.1.062.1.082-.053.244.159.315.283.436a.2.2,0,0,1,.075.194l-.151-.075v0l-.06-.059,0,0-.061-.072-.04-.04-.073-.076a.044.044,0,0,0-.035-.037.336.336,0,0,0-.137-.166h0a.156.156,0,0,0-.1-.124h0q-.117-.2-.232-.406a.023.023,0,0,0-.011-.029l-.046-.067h.006a5,5,0,0,1-.261-1.285v-.222A4.263,4.263,0,0,1,154.98,658.5Z" transform="translate(-154.845 -658.503)" fill="#bcc254"/>
      </g>
      <g id="Group_2431" data-name="Group 2431" transform="translate(37.85 24.293)">
        <path id="Path_4631" data-name="Path 4631" d="M204.85,672.3a3,3,0,0,0,2.516-.1,10.321,10.321,0,0,0,1.179-.638c-.029.3-.32.316-.5.425a4.558,4.558,0,0,1-1.483.572,11.076,11.076,0,0,1-1.221.047A.544.544,0,0,1,204.85,672.3Z" transform="translate(-204.85 -671.563)" fill="#2b331a"/>
      </g>
      <g id="Group_2432" data-name="Group 2432" transform="translate(12.414 19.146)">
        <path id="Path_4632" data-name="Path 4632" d="M167.612,667.223a4.136,4.136,0,0,0,.45-1.745c.031-.483.012-.97.015-1.455.116.055.109.161.108.264a7.157,7.157,0,0,1-.124,1.992,2.144,2.144,0,0,1-.436,1.06l-.033-.032Z" transform="translate(-167.591 -664.023)" fill="#2b331a"/>
      </g>
      <g id="Group_2433" data-name="Group 2433" transform="translate(37.393 22.558)">
        <path id="Path_4633" data-name="Path 4633" d="M204.18,669.482c.142-.275.438-.314.679-.369a4.322,4.322,0,0,1,1.773,0,1.8,1.8,0,0,1,.61.163c.064.038.139.06.147.151l-.008.01a.88.88,0,0,1-.135-.029,3.584,3.584,0,0,0-3.045.1Z" transform="translate(-204.18 -669.021)" fill="#2b331a"/>
      </g>
      <g id="Group_2434" data-name="Group 2434" transform="translate(29.585 14.964)">
        <path id="Path_4634" data-name="Path 4634" d="M192.743,658.991a5.715,5.715,0,0,0,2.618-1.094.113.113,0,0,1-.035.149,5.811,5.811,0,0,1-.852.529c-.389.129-.784.265-1.17.412A.675.675,0,0,1,192.743,658.991Z" transform="translate(-192.743 -657.897)" fill="#383212"/>
      </g>
      <g id="Group_2435" data-name="Group 2435" transform="translate(26.852 13.068)">
        <path id="Path_4635" data-name="Path 4635" d="M188.74,655.451a2.614,2.614,0,0,1,.991-.325c.305-.048.461.2.389.56h0l-.07.107,0,0c-.226.135-.508.123-.726.278l0,0-.253.04-.02-.025c.165-.194.41-.2.629-.275.164-.053.364-.1.317-.316s-.244-.23-.449-.22C189.265,655.28,189.034,655.5,188.74,655.451Z" transform="translate(-188.74 -655.12)" fill="#383212"/>
      </g>
      <g id="Group_2436" data-name="Group 2436" transform="translate(26.427 11.102)">
        <path id="Path_4636" data-name="Path 4636" d="M189.926,652.249l.108-.009.01.011a.16.16,0,0,1-.106.151,4.76,4.76,0,0,0-1.01.624,1.559,1.559,0,0,0-.241.227c-.186.169-.3.426-.568.5.072-.2.271-.3.352-.492l0,0,.289-.273,0,0,.612-.455h0a.056.056,0,0,0,.063-.053v.005a.552.552,0,0,0,.332-.177l0,0a.156.156,0,0,0,.135-.063A.016.016,0,0,0,189.926,652.249Z" transform="translate(-188.118 -652.24)" fill="#bcc254"/>
      </g>
      <g id="Group_2437" data-name="Group 2437" transform="translate(9.183 20.896)">
        <path id="Path_4637" data-name="Path 4637" d="M163.354,666.959a3.415,3.415,0,0,0-.358,2.179c.007.064.015.128.023.192-.117-.019-.148-.115-.152-.206a4.02,4.02,0,0,1,.517-2.459.147.147,0,0,1,.165-.074Z" transform="translate(-162.858 -666.587)" fill="#2b331a"/>
      </g>
      <g id="Group_2438" data-name="Group 2438" transform="translate(3.895 13.064)">
        <path id="Path_4638" data-name="Path 4638" d="M155.948,655.114c.057.363-.188.634-.3.946a4.645,4.645,0,0,0-.431,1.074c0,.054-.061.064-.109.068l.024-.229-.006-.017a6.676,6.676,0,0,0,.348-.974l0,0a.672.672,0,0,0,.164-.34h0a.13.13,0,0,0,.058-.117l0,0a.176.176,0,0,0,.072-.161v0a.1.1,0,0,0,.057-.109h-.02l.02,0Z" transform="translate(-155.112 -655.114)" fill="#bcc254"/>
      </g>
      <g id="Group_2439" data-name="Group 2439" transform="translate(9.412 23.231)">
        <path id="Path_4639" data-name="Path 4639" d="M163.194,670.474a4.054,4.054,0,0,0,1.61-.1,1.823,1.823,0,0,0,.481-.223l.264-.142c.021.178-.146.162-.233.231a3.114,3.114,0,0,1-2.016.343C163.231,670.583,163.2,670.535,163.194,670.474Z" transform="translate(-163.194 -670.008)" fill="#2b331a"/>
      </g>
      <g id="Group_2440" data-name="Group 2440" transform="translate(32.956 10.824)">
        <path id="Path_4640" data-name="Path 4640" d="M197.681,651.891v-.058a7.044,7.044,0,0,1,1.467.39c.073.025.144.044.145.14Z" transform="translate(-197.681 -651.833)" fill="#383212"/>
      </g>
      <g id="Group_2441" data-name="Group 2441" transform="translate(9.679 20.202)">
        <path id="Path_4641" data-name="Path 4641" d="M163.585,666.636l.195-.369-.006-.007a2.119,2.119,0,0,0,.345-.4l.044-.044.069-.069.046-.04.209-.143.014.015c.013.111-.071.156-.139.22a1.183,1.183,0,0,0-.329.37,1.318,1.318,0,0,1-.431.477Z" transform="translate(-163.585 -665.57)" fill="#89aa5a"/>
      </g>
      <g id="Group_2442" data-name="Group 2442" transform="translate(5.691 19.094)">
        <path id="Path_4642" data-name="Path 4642" d="M158.663,663.948a2.851,2.851,0,0,1-.347.554l-.137-.007a.745.745,0,0,0-.364-.171l0,0-.076-.088c.065,0,.144-.036.191-.01.306.171.467.01.6-.239C158.554,663.961,158.62,663.961,158.663,663.948Z" transform="translate(-157.743 -663.948)" fill="#bcc254"/>
      </g>
      <g id="Group_2443" data-name="Group 2443" transform="translate(3.636 16.444)">
        <path id="Path_4643" data-name="Path 4643" d="M154.809,660.066a5,5,0,0,0,.261,1.285c-.071.009-.137-.009-.159-.079a5.621,5.621,0,0,1-.178-1.138C154.731,660.114,154.783,660.089,154.809,660.066Z" transform="translate(-154.733 -660.066)" fill="#383212"/>
      </g>
      <g id="Group_2444" data-name="Group 2444" transform="translate(36.85 24.189)">
        <path id="Path_4644" data-name="Path 4644" d="M203.385,671.411a6.049,6.049,0,0,0,.894.782c-.02.018-.042.055-.058.052A1.5,1.5,0,0,1,203.385,671.411Z" transform="translate(-203.385 -671.411)" fill="#2b331a"/>
      </g>
      <g id="Group_2445" data-name="Group 2445" transform="translate(4.756 18.795)">
        <path id="Path_4645" data-name="Path 4645" d="M157.309,664.1l.076.088a1.346,1.346,0,0,1-1.011-.677l.152.075,0,0a.214.214,0,0,0,.162.122v0a.871.871,0,0,0,.4.276v0a.332.332,0,0,0,.221.12Z" transform="translate(-156.374 -663.51)" fill="#383212"/>
      </g>
      <g id="Group_2446" data-name="Group 2446" transform="translate(11.152 19.209)">
        <path id="Path_4646" data-name="Path 4646" d="M166.9,664.116a7.757,7.757,0,0,1-.8.382c-.088.05-.174.1-.261.156l-.1.022c0-.064-.009-.145.066-.171A4.7,4.7,0,0,1,166.9,664.116Z" transform="translate(-165.742 -664.116)" fill="#2b331a"/>
      </g>
      <g id="Group_2447" data-name="Group 2447" transform="translate(3.613 14.923)">
        <path id="Path_4647" data-name="Path 4647" d="M155.005,657.837l-.024.229-.047.225a4.262,4.262,0,0,0-.135.845c-.206-.134-.028-.3-.022-.446A1.384,1.384,0,0,1,155.005,657.837Z" transform="translate(-154.7 -657.837)" fill="#383212"/>
      </g>
      <g id="Group_2448" data-name="Group 2448" transform="translate(3.912 13.931)">
        <path id="Path_4648" data-name="Path 4648" d="M155.486,656.385a6.669,6.669,0,0,1-.348.974,3.4,3.4,0,0,1,.173-.823A.187.187,0,0,1,155.486,656.385Z" transform="translate(-155.137 -656.385)" fill="#383212"/>
      </g>
      <g id="Group_2449" data-name="Group 2449" transform="translate(10.582 19.746)">
        <path id="Path_4649" data-name="Path 4649" d="M165.477,664.925l.1-.022.018.02a1.05,1.05,0,0,1-.673.451l-.014-.015.3-.265v0a.481.481,0,0,0,.249-.169Z" transform="translate(-164.907 -664.903)" fill="#89aa5a"/>
      </g>
      <g id="Group_2450" data-name="Group 2450" transform="translate(27.07 11.398)">
        <path id="Path_4650" data-name="Path 4650" d="M189.671,652.675l-.612.455A.579.579,0,0,1,189.671,652.675Z" transform="translate(-189.059 -652.674)" fill="#2b331a"/>
      </g>
      <g id="Group_2451" data-name="Group 2451" transform="translate(26.265 12.122)">
        <path id="Path_4651" data-name="Path 4651" d="M188.395,653.734c-.081.19-.28.3-.352.492l0,0-.148.132-.018-.016C188,654.1,188.021,653.768,188.395,653.734Z" transform="translate(-187.88 -653.734)" fill="#2b331a"/>
      </g>
      <g id="Group_2452" data-name="Group 2452" transform="translate(25.609 14.363)">
        <path id="Path_4652" data-name="Path 4652" d="M186.97,657.359c-.086-.057-.05-.125.014-.142a2.274,2.274,0,0,1,.648-.2l.017.019-.083.081h0a.176.176,0,0,0-.165.068l0,0A1.578,1.578,0,0,0,186.97,657.359Z" transform="translate(-186.92 -657.018)" fill="#383212"/>
      </g>
      <g id="Group_2453" data-name="Group 2453" transform="translate(36.498 23.527)">
        <path id="Path_4653" data-name="Path 4653" d="M203.14,670.893l.017.1c-.336-.119-.38-.324-.122-.556l.03.027c-.07.087-.157.174-.017.274Z" transform="translate(-202.869 -670.441)" fill="#2b331a"/>
      </g>
      <g id="Group_2454" data-name="Group 2454" transform="translate(25.689 13.194)">
        <path id="Path_4654" data-name="Path 4654" d="M187.345,655.305q-.138.286-.277.572A.436.436,0,0,1,187.345,655.305Z" transform="translate(-187.036 -655.305)" fill="#2b331a"/>
      </g>
      <g id="Group_2455" data-name="Group 2455" transform="translate(36.829 23.019)">
        <path id="Path_4655" data-name="Path 4655" d="M203.355,670.09c.074-.294.324-.335.563-.393l.02.024-.569.383Z" transform="translate(-203.355 -669.697)" fill="#2b331a"/>
      </g>
      <g id="Group_2456" data-name="Group 2456" transform="translate(25.66 14.529)">
        <path id="Path_4656" data-name="Path 4656" d="M186.994,657.435a1.581,1.581,0,0,1,.438-.175c-.062.137-.292.18-.22.393l-.2-.126,0-.009a.019.019,0,0,0-.012-.024Z" transform="translate(-186.994 -657.26)" fill="#bcc254"/>
      </g>
      <g id="Group_2457" data-name="Group 2457" transform="translate(10.372 19.934)">
        <path id="Path_4657" data-name="Path 4657" d="M165.107,665.18l-.3.266-.21.143C164.68,665.343,164.81,665.158,165.107,665.18Z" transform="translate(-164.6 -665.179)" fill="#2b331a"/>
      </g>
      <g id="Group_2458" data-name="Group 2458" transform="translate(12.387 19.002)">
        <path id="Path_4658" data-name="Path 4658" d="M168.053,663.914c-.18-.031-.326.108-.5.1C167.666,663.8,167.935,663.743,168.053,663.914Z" transform="translate(-167.551 -663.813)" fill="#2b331a"/>
      </g>
      <g id="Group_2459" data-name="Group 2459" transform="translate(32.206 14.68)">
        <path id="Path_4659" data-name="Path 4659" d="M196.582,657.764a.8.8,0,0,1,.332-.282C196.851,657.631,196.849,657.853,196.582,657.764Z" transform="translate(-196.582 -657.482)" fill="#383212"/>
      </g>
      <g id="Group_2460" data-name="Group 2460" transform="translate(25.68 14.795)">
        <path id="Path_4660" data-name="Path 4660" d="M187.025,657.65l.2.126.173.171C187.208,657.927,187.01,657.921,187.025,657.65Z" transform="translate(-187.024 -657.65)" fill="#383212"/>
      </g>
      <g id="Group_2461" data-name="Group 2461" transform="translate(12.15 22.43)">
        <path id="Path_4661" data-name="Path 4661" d="M167.5,668.866c-.016.186-.072.344-.279.4l-.018-.018.223-.384a.19.19,0,0,0,.04-.025Z" transform="translate(-167.205 -668.834)" fill="#2b331a"/>
      </g>
      <g id="Group_2462" data-name="Group 2462" transform="translate(9.868 20.497)">
        <path id="Path_4662" data-name="Path 4662" d="M164.206,666a2.117,2.117,0,0,1-.345.4C163.877,666.181,163.963,666.023,164.206,666Z" transform="translate(-163.861 -666.003)" fill="#2b331a"/>
      </g>
      <g id="Group_2463" data-name="Group 2463" transform="translate(41.656 23.525)">
        <path id="Path_4663" data-name="Path 4663" d="M210.824,670.732l-.259-.136-.009.006-.061-.056h0l-.073-.1.012-.013C210.623,670.461,210.8,670.5,210.824,670.732Z" transform="translate(-210.425 -670.438)" fill="#2b331a"/>
      </g>
      <g id="Group_2464" data-name="Group 2464" transform="translate(4.016 17.825)">
        <path id="Path_4664" data-name="Path 4664" d="M155.3,662.088q.116.2.232.406C155.247,662.477,155.287,662.274,155.3,662.088Z" transform="translate(-155.29 -662.088)" fill="#383212"/>
      </g>
      <g id="Group_2465" data-name="Group 2465" transform="translate(11.879 22.84)">
        <path id="Path_4665" data-name="Path 4665" d="M167.1,669.452c-.029.163-.053.331-.289.276a.435.435,0,0,0,.009-.052h0a.3.3,0,0,0,.181-.212l0,0,.081-.029Z" transform="translate(-166.808 -669.434)" fill="#2b331a"/>
      </g>
      <g id="Group_2466" data-name="Group 2466" transform="translate(6.473 14.138)">
        <path id="Path_4666" data-name="Path 4666" d="M158.909,656.688c.216.051.182.244.224.394l-.024.02-.22-.4Z" transform="translate(-158.889 -656.688)" fill="#383212"/>
      </g>
      <g id="Group_2467" data-name="Group 2467" transform="translate(26.709 14.025)">
        <path id="Path_4667" data-name="Path 4667" d="M188.9,656.629l-.016,0a.482.482,0,0,0-.294.117v0a.043.043,0,0,0-.049.013h0l-.008-.031c.1-.189.283-.179.455-.2l.02.025Z" transform="translate(-188.53 -656.522)" fill="#383212"/>
      </g>
      <g id="Group_2468" data-name="Group 2468" transform="translate(5.027 12.386)">
        <path id="Path_4668" data-name="Path 4668" d="M156.77,654.19c.142-.124.214-.089.341.168l-.035.04c-.108-.047-.141-.209-.29-.193Z" transform="translate(-156.77 -654.121)" fill="#383212"/>
      </g>
      <g id="Group_2469" data-name="Group 2469" transform="translate(11.487 23.132)">
        <path id="Path_4669" data-name="Path 4669" d="M166.512,669.962l-.264.142-.016-.018c-.008-.206.123-.233.283-.222l.028.031Z" transform="translate(-166.232 -669.862)" fill="#89aa5a"/>
      </g>
      <g id="Group_2470" data-name="Group 2470" transform="translate(34.527 11.349)">
        <path id="Path_4670" data-name="Path 4670" d="M199.984,652.926c-.01-.11.11-.2.04-.32.151-.025.122.087.128.171C200.161,652.9,200.085,652.928,199.984,652.926Z" transform="translate(-199.983 -652.602)" fill="#383212"/>
      </g>
      <g id="Group_2471" data-name="Group 2471" transform="translate(26.381 14.154)">
        <path id="Path_4671" data-name="Path 4671" d="M188.364,656.82l-.09.043-.19.046-.034-.041c.037-.3.212-.081.326-.089A.061.061,0,0,0,188.364,656.82Z" transform="translate(-188.05 -656.711)" fill="#383212"/>
      </g>
      <g id="Group_2472" data-name="Group 2472" transform="translate(26.777 11.846)">
        <path id="Path_4672" data-name="Path 4672" d="M188.92,653.335l-.289.273C188.628,653.411,188.711,653.307,188.92,653.335Z" transform="translate(-188.631 -653.33)" fill="#2b331a"/>
      </g>
      <g id="Group_2473" data-name="Group 2473" transform="translate(4.24 13.589)">
        <path id="Path_4673" data-name="Path 4673" d="M155.8,655.883a.672.672,0,0,1-.164.34C155.626,656.079,155.55,655.9,155.8,655.883Z" transform="translate(-155.617 -655.883)" fill="#383212"/>
      </g>
      <g id="Group_2474" data-name="Group 2474" transform="translate(41.601 24.022)">
        <path id="Path_4674" data-name="Path 4674" d="M210.344,671.4a.848.848,0,0,1,.336-.233C210.666,671.386,210.5,671.386,210.344,671.4Z" transform="translate(-210.344 -671.166)" fill="#2b331a"/>
      </g>
      <g id="Group_2475" data-name="Group 2475" transform="translate(40.593 22.963)">
        <path id="Path_4675" data-name="Path 4675" d="M208.876,669.614c.15.013.326-.036.393.169l-.016.02-.384-.18Z" transform="translate(-208.868 -669.614)" fill="#2b331a"/>
      </g>
      <g id="Group_2476" data-name="Group 2476" transform="translate(5.763 19.471)">
        <path id="Path_4676" data-name="Path 4676" d="M157.849,664.5a.746.746,0,0,1,.364.171C158.054,664.692,157.912,664.679,157.849,664.5Z" transform="translate(-157.849 -664.499)" fill="#383212"/>
      </g>
      <g id="Group_2477" data-name="Group 2477" transform="translate(27.745 11.165)">
        <path id="Path_4677" data-name="Path 4677" d="M190.38,652.343a.552.552,0,0,1-.332.177C190.09,652.331,190.224,652.316,190.38,652.343Z" transform="translate(-190.048 -652.333)" fill="#2b331a"/>
      </g>
      <g id="Group_2478" data-name="Group 2478" transform="translate(4.855 12.455)">
        <path id="Path_4678" data-name="Path 4678" d="M156.519,654.5c.007-.124-.012-.263.171-.279l.015.015-.169.279Z" transform="translate(-156.519 -654.222)" fill="#383212"/>
      </g>
      <g id="Group_2479" data-name="Group 2479" transform="translate(40.977 23.132)">
        <path id="Path_4679" data-name="Path 4679" d="M209.447,669.862c.135.011.288-.014.337.169l-.02.021-.333-.17Z" transform="translate(-209.431 -669.862)" fill="#2b331a"/>
      </g>
      <g id="Group_2480" data-name="Group 2480" transform="translate(25.99 12.87)">
        <path id="Path_4680" data-name="Path 4680" d="M187.668,654.831a.637.637,0,0,1-.186.324C187.468,655,187.469,654.86,187.668,654.831Z" transform="translate(-187.477 -654.831)" fill="#2b331a"/>
      </g>
      <g id="Group_2481" data-name="Group 2481" transform="translate(10.877 19.766)">
        <path id="Path_4681" data-name="Path 4681" d="M165.589,664.936a.481.481,0,0,1-.249.169C165.342,664.928,165.459,664.924,165.589,664.936Z" transform="translate(-165.34 -664.932)" fill="#2b331a"/>
      </g>
      <g id="Group_2482" data-name="Group 2482" transform="translate(5.854 13.238)">
        <path id="Path_4682" data-name="Path 4682" d="M158,655.37c.137.014.169.109.169.226l-.018.015-.171-.222Z" transform="translate(-157.982 -655.37)" fill="#383212"/>
      </g>
      <g id="Group_2483" data-name="Group 2483" transform="translate(4.594 12.954)">
        <path id="Path_4683" data-name="Path 4683" d="M156.273,655.063l-.13.141a.193.193,0,0,1,.138-.25l.01.009-.014.1Z" transform="translate(-156.137 -654.954)" fill="#383212"/>
      </g>
      <g id="Group_2484" data-name="Group 2484" transform="translate(6.258 13.798)">
        <path id="Path_4684" data-name="Path 4684" d="M158.587,656.19c.134.02.168.111.164.23l-.027.022-.15-.24Z" transform="translate(-158.574 -656.19)" fill="#383212"/>
      </g>
      <g id="Group_2485" data-name="Group 2485" transform="translate(6.095 13.571)">
        <path id="Path_4685" data-name="Path 4685" d="M158.345,655.857c.13.021.163.113.166.227l-.013.012-.1-.072h0l-.07-.158Z" transform="translate(-158.335 -655.857)" fill="#383212"/>
      </g>
      <g id="Group_2486" data-name="Group 2486" transform="translate(9.401 10.314)">
        <path id="Path_4686" data-name="Path 4686" d="M163.3,651.086l-.008.255C163.218,651.254,163.073,651.164,163.3,651.086Z" transform="translate(-163.177 -651.086)" fill="#b0ce40"/>
      </g>
      <g id="Group_2487" data-name="Group 2487" transform="translate(41.31 23.301)">
        <path id="Path_4687" data-name="Path 4687" d="M209.939,670.11c.081,0,.16,0,.169.112l-.014.017-.16-.064,0,0a.122.122,0,0,0-.01-.041Z" transform="translate(-209.919 -670.11)" fill="#2b331a"/>
      </g>
      <g id="Group_2488" data-name="Group 2488" transform="translate(5.571 12.901)">
        <path id="Path_4688" data-name="Path 4688" d="M157.645,655.038l-.041-.051-.036-.09.023-.021c.108.014.111.093.109.175Z" transform="translate(-157.568 -654.876)" fill="#383212"/>
      </g>
      <g id="Group_2489" data-name="Group 2489" transform="translate(4.353 18.354)">
        <path id="Path_4689" data-name="Path 4689" d="M155.785,662.864a.336.336,0,0,1,.137.166C155.8,663.04,155.778,662.962,155.785,662.864Z" transform="translate(-155.784 -662.864)" fill="#383212"/>
      </g>
      <g id="Group_2490" data-name="Group 2490" transform="translate(26.17 12.733)">
        <path id="Path_4690" data-name="Path 4690" d="M187.832,654.738l-.076.029c-.04-.085,0-.122.08-.137l.018.016-.022.1Z" transform="translate(-187.74 -654.63)" fill="#2b331a"/>
      </g>
      <g id="Group_2491" data-name="Group 2491" transform="translate(5.468 12.786)">
        <path id="Path_4691" data-name="Path 4691" d="M157.432,654.708a.117.117,0,0,1,.111.115l-.023.021-.1-.12Z" transform="translate(-157.416 -654.708)" fill="#383212"/>
      </g>
      <g id="Group_2492" data-name="Group 2492" transform="translate(4.468 13.314)">
        <path id="Path_4692" data-name="Path 4692" d="M156.028,655.481a.176.176,0,0,1-.072.16C155.955,655.577,155.927,655.5,156.028,655.481Z" transform="translate(-155.952 -655.481)" fill="#383212"/>
      </g>
      <g id="Group_2493" data-name="Group 2493" transform="translate(41.938 23.914)">
        <path id="Path_4693" data-name="Path 4693" d="M210.838,671.119a.192.192,0,0,1,.118-.111C210.957,671.088,210.921,671.129,210.838,671.119Z" transform="translate(-210.838 -671.008)" fill="#2b331a"/>
      </g>
      <g id="Group_2494" data-name="Group 2494" transform="translate(4.251 18.232)">
        <path id="Path_4694" data-name="Path 4694" d="M155.637,662.685a.157.157,0,0,1,.1.124C155.658,662.807,155.62,662.768,155.637,662.685Z" transform="translate(-155.633 -662.685)" fill="#383212"/>
      </g>
      <g id="Group_2495" data-name="Group 2495" transform="translate(5.382 12.679)">
        <path id="Path_4695" data-name="Path 4695" d="M157.331,654.55l.061.108-.016.016-.085-.088Z" transform="translate(-157.291 -654.55)" fill="#383212"/>
      </g>
      <g id="Group_2496" data-name="Group 2496" transform="translate(36.719 23.412)">
        <path id="Path_4696" data-name="Path 4696" d="M203.194,670.331a.124.124,0,0,1,.11-.059l.014.014-.1.076Z" transform="translate(-203.194 -670.272)" fill="#2b331a"/>
      </g>
      <g id="Group_2497" data-name="Group 2497" transform="translate(41.485 23.413)">
        <path id="Path_4697" data-name="Path 4697" d="M210.189,670.274a.123.123,0,0,1,.111.057l-.021.025-.105-.065Z" transform="translate(-210.175 -670.274)" fill="#2b331a"/>
      </g>
      <g id="Group_2498" data-name="Group 2498" transform="translate(4.739 12.844)">
        <path id="Path_4698" data-name="Path 4698" d="M156.349,654.9l.058-.111.012.011-.06.109Z" transform="translate(-156.349 -654.792)" fill="#383212"/>
      </g>
      <g id="Group_2499" data-name="Group 2499" transform="translate(11.77 23.081)">
        <path id="Path_4699" data-name="Path 4699" d="M166.766,669.789a.433.433,0,0,1-.009.052l-.081.031-.028-.031A.112.112,0,0,1,166.766,669.789Z" transform="translate(-166.648 -669.788)" fill="#89aa5a"/>
      </g>
      <g id="Group_2500" data-name="Group 2500" transform="translate(4.534 13.203)">
        <path id="Path_4700" data-name="Path 4700" d="M156.116,655.318a.1.1,0,0,1-.057.109C156.038,655.37,156.043,655.326,156.116,655.318Z" transform="translate(-156.048 -655.318)" fill="#383212"/>
      </g>
      <g id="Group_2501" data-name="Group 2501" transform="translate(4.415 13.471)">
        <path id="Path_4701" data-name="Path 4701" d="M155.935,655.711a.13.13,0,0,1-.058.117C155.869,655.776,155.876,655.731,155.935,655.711Z" transform="translate(-155.874 -655.711)" fill="#383212"/>
      </g>
      <g id="Group_2502" data-name="Group 2502" transform="translate(6.025 13.464)">
        <path id="Path_4702" data-name="Path 4702" d="M158.251,655.7l.061.107-.01.009-.07-.1Z" transform="translate(-158.233 -655.701)" fill="#383212"/>
      </g>
      <g id="Group_2503" data-name="Group 2503" transform="translate(36.782 24.083)">
        <path id="Path_4703" data-name="Path 4703" d="M203.286,671.256a.1.1,0,0,1,.063.109C203.287,671.353,203.282,671.307,203.286,671.256Z" transform="translate(-203.285 -671.256)" fill="#2b331a"/>
      </g>
      <g id="Group_2504" data-name="Group 2504" transform="translate(4.797 12.734)">
        <path id="Path_4704" data-name="Path 4704" d="M156.434,654.741l.058-.11.017.014-.063.107Z" transform="translate(-156.434 -654.631)" fill="#383212"/>
      </g>
      <g id="Group_2505" data-name="Group 2505" transform="translate(28.074 11.113)">
        <path id="Path_4705" data-name="Path 4705" d="M190.665,652.259a.155.155,0,0,1-.135.063C190.552,652.252,190.607,652.254,190.665,652.259Z" transform="translate(-190.53 -652.257)" fill="#2b331a"/>
      </g>
      <g id="Group_2506" data-name="Group 2506" transform="translate(6.408 14.028)">
        <path id="Path_4706" data-name="Path 4706" d="M158.82,656.527l.058.11-.02.016-.066-.1Z" transform="translate(-158.793 -656.527)" fill="#383212"/>
      </g>
      <g id="Group_2507" data-name="Group 2507" transform="translate(27.681 11.347)">
        <path id="Path_4707" data-name="Path 4707" d="M190.019,652.6a.056.056,0,0,1-.063.053A.056.056,0,0,1,190.019,652.6Z" transform="translate(-189.955 -652.599)" fill="#2b331a"/>
      </g>
      <g id="Group_2508" data-name="Group 2508" transform="translate(32.541 14.627)">
        <path id="Path_4708" data-name="Path 4708" d="M197.074,657.456l.057-.052C197.135,657.446,197.117,657.465,197.074,657.456Z" transform="translate(-197.074 -657.404)" fill="#383212"/>
      </g>
      <g id="Group_2509" data-name="Group 2509" transform="translate(25.632 14.762)">
        <path id="Path_4709" data-name="Path 4709" d="M186.985,657.6a.019.019,0,0,1,.012.024l-.044.005Z" transform="translate(-186.953 -657.602)" fill="#383212"/>
      </g>
      <g id="Group_2510" data-name="Group 2510" transform="translate(26.322 14.311)">
        <path id="Path_4710" data-name="Path 4710" d="M187.964,656.994l.059-.053.034.041-.076.031Z" transform="translate(-187.964 -656.941)" fill="#383212"/>
      </g>
      <g id="Group_2511" data-name="Group 2511" transform="translate(26.695 14.222)">
        <path id="Path_4711" data-name="Path 4711" d="M188.51,656.851a.061.061,0,0,1,.012-.04v0l.008.031Z" transform="translate(-188.51 -656.811)" fill="#bcc254"/>
      </g>
      <g id="Group_2512" data-name="Group 2512" transform="translate(37.225 22.16)">
        <path id="Path_4712" data-name="Path 4712" d="M204.021,668.5c-.023.009-.06.033-.068.025-.037-.034-.012-.063.02-.086Z" transform="translate(-203.935 -668.439)" fill="#fefdfe"/>
      </g>
      <g id="Group_2513" data-name="Group 2513" transform="translate(3.967 17.729)">
        <path id="Path_4713" data-name="Path 4713" d="M155.218,661.948l.046.067Z" transform="translate(-155.218 -661.948)" fill="#383212"/>
      </g>
      <g id="Group_2514" data-name="Group 2514" transform="translate(4.526 18.557)">
        <path id="Path_4714" data-name="Path 4714" d="M156.037,663.161l.073.076A.084.084,0,0,1,156.037,663.161Z" transform="translate(-156.037 -663.161)" fill="#383212"/>
      </g>
      <g id="Group_2515" data-name="Group 2515" transform="translate(4.639 18.674)">
        <path id="Path_4715" data-name="Path 4715" d="M156.2,663.332l.061.072Z" transform="translate(-156.202 -663.332)" fill="#383212"/>
      </g>
      <g id="Group_2516" data-name="Group 2516" transform="translate(15.448 11.952)">
        <path id="Path_4716" data-name="Path 4716" d="M172.062,653.539a.334.334,0,0,1-.027-.034s.009-.012.014-.019Z" transform="translate(-172.035 -653.486)" fill="#b0ce40"/>
      </g>
      <g id="Group_2517" data-name="Group 2517" transform="translate(5.803 13.181)">
        <path id="Path_4717" data-name="Path 4717" d="M157.923,655.286l.055.057-.02.019-.051-.058Z" transform="translate(-157.907 -655.286)" fill="#383212"/>
      </g>
      <g id="Group_2518" data-name="Group 2518" transform="translate(4.697 18.741)">
        <path id="Path_4718" data-name="Path 4718" d="M156.287,663.43l.06.059Z" transform="translate(-156.287 -663.43)" fill="#383212"/>
      </g>
      <g id="Group_2519" data-name="Group 2519" transform="translate(5.748 13.133)">
        <path id="Path_4719" data-name="Path 4719" d="M157.835,655.271l-.008-.056.071.048-.016.018Z" transform="translate(-157.827 -655.215)" fill="#383212"/>
      </g>
      <g id="Group_2520" data-name="Group 2520" transform="translate(5.649 13.063)">
        <path id="Path_4720" data-name="Path 4720" d="M157.681,655.113l.055.014c0,.017,0,.034,0,.051Z" transform="translate(-157.681 -655.113)" fill="#bcc254"/>
      </g>
      <g id="Group_2521" data-name="Group 2521" transform="translate(41.59 23.47)">
        <path id="Path_4721" data-name="Path 4721" d="M210.349,670.358l.057.055-.012.013-.066-.043Z" transform="translate(-210.328 -670.358)" fill="#2b331a"/>
      </g>
      <g id="Group_2522" data-name="Group 2522" transform="translate(36.664 23.47)">
        <path id="Path_4722" data-name="Path 4722" d="M203.113,670.415l.055-.057.028.031-.053.052Z" transform="translate(-203.113 -670.358)" fill="#2b331a"/>
      </g>
      <g id="Group_2523" data-name="Group 2523" transform="translate(10.257 20.384)">
        <path id="Path_4723" data-name="Path 4723" d="M164.5,665.837l-.069.069Z" transform="translate(-164.432 -665.837)" fill="#2b331a"/>
      </g>
      <g id="Group_2524" data-name="Group 2524" transform="translate(6.357 21.476)">
        <path id="Path_4724" data-name="Path 4724" d="M158.777,667.436l.007.068-.066-.019Z" transform="translate(-158.718 -667.436)" fill="#fefdfe"/>
      </g>
      <g id="Group_2525" data-name="Group 2525" transform="translate(5.332 12.623)">
        <path id="Path_4725" data-name="Path 4725" d="M157.253,654.468l.055.056-.04.035-.051-.051Z" transform="translate(-157.217 -654.468)" fill="#383212"/>
      </g>
      <g id="Group_2526" data-name="Group 2526" transform="translate(25.277 23.998)">
        <path id="Path_4726" data-name="Path 4726" d="M189.432,672.611a.166.166,0,0,1-.093.145.652.652,0,0,1-.155.062,1.383,1.383,0,0,0-1.066,1.066c-.023.108-.056.244-.195.238s-.17-.139-.2-.244a1.2,1.2,0,0,0-.649-.893c-.156-.062-.31-.129-.467-.188-.083-.031-.166-.071-.171-.163s.079-.139.16-.171a.5.5,0,0,1,.055-.015,1.436,1.436,0,0,0,1.1-1.1c.024-.1.061-.194.161-.211.122-.02.135.107.178.184a1.424,1.424,0,0,1,.116.255,1.059,1.059,0,0,0,.789.791C189.152,672.4,189.351,672.43,189.432,672.611Z" transform="translate(-186.434 -671.131)" fill="#fefdfe"/>
      </g>
      <g id="Group_2527" data-name="Group 2527" transform="translate(15.898 44.099)">
        <path id="Path_4727" data-name="Path 4727" d="M174.18,700.575c.061,0,.078.1.117.183.118.248.147.538.38.734a4.448,4.448,0,0,0,.647.325c.079.048.221.031.209.184-.012.137-.131.15-.225.175a1.353,1.353,0,0,0-1.019,1.039c-.023.087-.052.192-.161.21-.14.024-.114-.124-.167-.188a.654.654,0,0,1-.1-.228,1.081,1.081,0,0,0-.75-.763c-.157-.052-.41-.047-.418-.255-.008-.186.236-.191.374-.232a1.238,1.238,0,0,0,.869-.965C173.964,700.7,173.976,700.581,174.18,700.575Z" transform="translate(-172.695 -700.575)" fill="#fefdfe"/>
      </g>
      <g id="Group_2528" data-name="Group 2528" transform="translate(25.65 47.467)">
        <path id="Path_4728" data-name="Path 4728" d="M187.579,705.509a.6.6,0,0,1,.618.583.616.616,0,0,1-.612.6.608.608,0,0,1-.606-.6A.55.55,0,0,1,187.579,705.509Z" transform="translate(-186.98 -705.509)" fill="#fefdfe"/>
      </g>
      <g id="Group_2529" data-name="Group 2529" transform="translate(27.28 47.467)">
        <path id="Path_4729" data-name="Path 4729" d="M189.983,705.508a.525.525,0,0,1,.567.569.558.558,0,0,1-.6.614.6.6,0,0,1-.583-.619A.56.56,0,0,1,189.983,705.508Z" transform="translate(-189.367 -705.508)" fill="#fefdfe"/>
      </g>
      <g id="Group_2530" data-name="Group 2530" transform="translate(28.91 47.467)">
        <path id="Path_4730" data-name="Path 4730" d="M192.366,705.509a.524.524,0,0,1,.571.568.591.591,0,0,1-.616.615.607.607,0,0,1-.567-.61A.575.575,0,0,1,192.366,705.509Z" transform="translate(-191.754 -705.509)" fill="#fefdfe"/>
      </g>
      <g id="Group_2531" data-name="Group 2531" transform="translate(26.108 10.715)">
        <path id="Path_4731" data-name="Path 4731" d="M187.97,653.572c.27-.073.382-.33.568-.5a1.56,1.56,0,0,1,.241-.227,4.763,4.763,0,0,1,1.01-.624.16.16,0,0,0,.107-.151,4.421,4.421,0,0,0,1.11-.263,6.922,6.922,0,0,1,2.327-.067,17.654,17.654,0,0,1,2.363.555c.116.033.344.029.21.274a5.247,5.247,0,0,0-1.2.343c-1.187.348-2.363.728-3.542,1.1-.408.129-.8.312-1.217.41a.49.49,0,0,0-.563-.5,1.849,1.849,0,0,0-.7.17c-.249.133-.56.121-.788.324-.046.041-.2.112-.216.023s-.068-.24.018-.343a.312.312,0,0,0,.1-.3v0c.145-.01.162-.116.17-.228Z" transform="translate(-187.65 -651.674)" fill="#b1d03e"/>
      </g>
      <g id="Group_2532" data-name="Group 2532" transform="translate(27.44 13.735)">
        <path id="Path_4732" data-name="Path 4732" d="M189.6,656.375c.218-.155.5-.143.726-.278C190.175,656.424,189.864,656.337,189.6,656.375Z" transform="translate(-189.601 -656.097)" fill="#bcc254"/>
      </g>
      <g id="Group_2533" data-name="Group 2533" transform="translate(26.257 14.305)">
        <path id="Path_4733" data-name="Path 4733" d="M187.951,657.01l.076-.031.19-.046a.3.3,0,0,1-.348.158Z" transform="translate(-187.868 -656.933)" fill="#bcc254"/>
      </g>
      <g id="Group_2534" data-name="Group 2534" transform="translate(27.079 14.009)">
        <path id="Path_4734" data-name="Path 4734" d="M189.072,656.622l.105-.083.253-.04A.359.359,0,0,1,189.072,656.622Z" transform="translate(-189.072 -656.499)" fill="#bcc254"/>
      </g>
      <g id="Group_2535" data-name="Group 2535" transform="translate(26.768 14.129)">
        <path id="Path_4735" data-name="Path 4735" d="M188.617,656.792a.482.482,0,0,1,.294-.117C188.854,656.816,188.737,656.807,188.617,656.792Z" transform="translate(-188.617 -656.675)" fill="#bcc254"/>
      </g>
      <g id="Group_2536" data-name="Group 2536" transform="translate(34.081 12.339)">
        <path id="Path_4736" data-name="Path 4736" d="M199.434,654.052a.25.25,0,0,1-.1.194C199.327,654.16,199.314,654.072,199.434,654.052Z" transform="translate(-199.33 -654.052)" fill="#bcc254"/>
      </g>
      <g id="Group_2537" data-name="Group 2537" transform="translate(26.096 14.462)">
        <path id="Path_4737" data-name="Path 4737" d="M187.632,657.231a.176.176,0,0,1,.165-.068C187.77,657.253,187.7,657.234,187.632,657.231Z" transform="translate(-187.632 -657.163)" fill="#bcc254"/>
      </g>
      <g id="Group_2538" data-name="Group 2538" transform="translate(34.196 12.18)">
        <path id="Path_4738" data-name="Path 4738" d="M199.561,653.819a.135.135,0,0,1-.061.127C199.494,653.891,199.5,653.84,199.561,653.819Z" transform="translate(-199.497 -653.819)" fill="#bcc254"/>
      </g>
      <g id="Group_2539" data-name="Group 2539" transform="translate(28.164 13.633)">
        <path id="Path_4739" data-name="Path 4739" d="M190.662,656.055l.07-.107C190.733,656,190.723,656.044,190.662,656.055Z" transform="translate(-190.662 -655.948)" fill="#bcc254"/>
      </g>
      <g id="Group_2540" data-name="Group 2540" transform="translate(26.718 14.24)">
        <path id="Path_4740" data-name="Path 4740" d="M188.544,656.853a.044.044,0,0,1,.049-.013C188.587,656.883,188.573,656.9,188.544,656.853Z" transform="translate(-188.544 -656.837)" fill="#bcc254"/>
      </g>
      <g id="Group_2541" data-name="Group 2541" transform="translate(6.608 15.372)">
        <path id="Path_4741" data-name="Path 4741" d="M159.48,658.5a4.1,4.1,0,0,1-.394,3.723,3.84,3.84,0,0,1,.348-1.036,3.428,3.428,0,0,0,.055-2.269C159.446,658.781,159.339,658.638,159.48,658.5Z" transform="translate(-159.086 -658.496)" fill="#bcc254"/>
      </g>
      <g id="Group_2542" data-name="Group 2542" transform="translate(6.16 13.738)">
        <path id="Path_4742" data-name="Path 4742" d="M158.678,656.414l.066.1.22.4a6.537,6.537,0,0,1,.272.705c-.082.009-.158-.011-.18-.1a3.819,3.819,0,0,0-.608-1.235c-.031-.044-.012-.125-.016-.188l.1.072Z" transform="translate(-158.429 -656.102)" fill="#bcc254"/>
      </g>
      <g id="Group_2543" data-name="Group 2543" transform="translate(4.735 12.469)">
        <path id="Path_4743" data-name="Path 4743" d="M156.94,654.437l.051.051.085.088.1.12.036.09a.534.534,0,0,1-.362-.167c-.172-.184-.252-.081-.321.067-.042.091-.072.168-.19.153l.014-.1.06-.109.063-.107.169-.279C156.8,654.228,156.832,654.39,156.94,654.437Z" transform="translate(-156.343 -654.242)" fill="#bcc254"/>
      </g>
      <g id="Group_2544" data-name="Group 2544" transform="translate(5.756 13.189)">
        <path id="Path_4744" data-name="Path 4744" d="M157.839,655.3l.046.011.051.058.171.222.07.1.07.158C157.926,655.8,157.88,655.551,157.839,655.3Z" transform="translate(-157.839 -655.297)" fill="#bcc254"/>
      </g>
      <g id="Group_2545" data-name="Group 2545" transform="translate(5.073 18.987)">
        <path id="Path_4745" data-name="Path 4745" d="M157.238,664.066a.87.87,0,0,1-.4-.276C157.011,663.825,157.226,663.8,157.238,664.066Z" transform="translate(-156.838 -663.79)" fill="#bcc254"/>
      </g>
      <g id="Group_2546" data-name="Group 2546" transform="translate(5.472 19.257)">
        <path id="Path_4746" data-name="Path 4746" d="M157.643,664.31a.333.333,0,0,1-.221-.12C157.513,664.2,157.641,664.138,157.643,664.31Z" transform="translate(-157.422 -664.187)" fill="#bcc254"/>
      </g>
      <g id="Group_2547" data-name="Group 2547" transform="translate(4.91 18.866)">
        <path id="Path_4747" data-name="Path 4747" d="M156.761,663.737a.214.214,0,0,1-.162-.122C156.688,663.609,156.777,663.6,156.761,663.737Z" transform="translate(-156.599 -663.613)" fill="#bcc254"/>
      </g>
      <g id="Group_2548" data-name="Group 2548" transform="translate(36.677 22.765)">
        <path id="Path_4748" data-name="Path 4748" d="M203.223,670.539l-.091-.151c.16-.133.253-.329.432-.445a3.457,3.457,0,0,1,3.437-.295,1.689,1.689,0,0,0,.775.275l0,0c.061.2.143.37.4.268h0l.061.056.009-.006c-.033.357-.328.518-.573.672a5.529,5.529,0,0,1-1.851.767,2.13,2.13,0,0,1-1.419-.21,2.651,2.651,0,0,1-.963-.846A.225.225,0,0,0,203.223,670.539Z" transform="translate(-203.132 -669.324)" fill="#88c045"/>
      </g>
      <g id="Group_2549" data-name="Group 2549" transform="translate(9.409 19.31)">
        <path id="Path_4749" data-name="Path 4749" d="M165.669,668.036a.112.112,0,0,0-.118.052c-.16-.011-.292.016-.283.222a.624.624,0,0,0-.271.055,3.353,3.353,0,0,1-1.447.18c-.271.005-.346-.164-.353-.369a3.08,3.08,0,0,1,.221-1.527.929.929,0,0,0,.06-.412,1.318,1.318,0,0,0,.431-.477,1.186,1.186,0,0,1,.329-.37c.068-.064.152-.109.139-.22a1.05,1.05,0,0,0,.674-.451c.361,0,.619-.277.948-.367a1.267,1.267,0,0,1,.317-.089c.2,0,.274.011.269.275a8.639,8.639,0,0,1-.081,1.268,3.338,3.338,0,0,1-.291,1.206.235.235,0,0,0,0,.286l-.021.085a.188.188,0,0,1-.04.025c-.24.036-.309.2-.3.413l0,0c-.168-.021-.231.046-.181.212Z" transform="translate(-163.189 -664.263)" fill="#88c045"/>
      </g>
      <g id="Group_2550" data-name="Group 2550" transform="translate(36.603 22.652)">
        <path id="Path_4750" data-name="Path 4750" d="M207.741,669.87a1.689,1.689,0,0,1-.775-.275,3.457,3.457,0,0,0-3.437.295c-.18.116-.272.312-.432.445-.14-.1-.053-.187.017-.274l.053-.052.1-.076.569-.383a3.584,3.584,0,0,1,3.045-.1.9.9,0,0,0,.135.029l.384.18.333.17A.121.121,0,0,1,207.741,669.87Z" transform="translate(-203.023 -669.159)" fill="#89aa5a"/>
      </g>
      <g id="Group_2551" data-name="Group 2551" transform="translate(26.261 12.617)">
        <path id="Path_4751" data-name="Path 4751" d="M188.045,654.46c-.008.112-.025.218-.17.228l.022-.1Z" transform="translate(-187.875 -654.46)" fill="#bcc254"/>
      </g>
      <g id="Group_2552" data-name="Group 2552" transform="translate(12.07 22.455)">
        <path id="Path_4752" data-name="Path 4752" d="M167.087,669.284c0-.216.064-.377.3-.413l-.223.384Z" transform="translate(-167.087 -668.871)" fill="#89aa5a"/>
      </g>
      <g id="Group_2553" data-name="Group 2553" transform="translate(41.325 23.366)">
        <path id="Path_4753" data-name="Path 4753" d="M210.344,670.473c-.261.1-.343-.068-.4-.268l.16.064.105.065.066.043Z" transform="translate(-209.94 -670.205)" fill="#89aa5a"/>
      </g>
      <g id="Group_2554" data-name="Group 2554" transform="translate(41.726 23.633)">
        <path id="Path_4754" data-name="Path 4754" d="M210.588,670.652l-.061-.056Z" transform="translate(-210.527 -670.596)" fill="#89aa5a"/>
      </g>
      <g id="Group_2555" data-name="Group 2555" transform="translate(11.869 22.867)">
        <path id="Path_4755" data-name="Path 4755" d="M166.81,669.69c-.051-.165.013-.233.181-.212A.3.3,0,0,1,166.81,669.69Z" transform="translate(-166.793 -669.474)" fill="#89aa5a"/>
      </g>
    </g>
  </g>
</svg>
