<svg xmlns="http://www.w3.org/2000/svg" width="49.841" height="49.076" viewBox="0 0 49.841 49.076">
  <g id="_05veAn.tif" data-name="05veAn.tif" transform="translate(0 0)">
    <g id="Group_2285" data-name="Group 2285">
      <path id="Path_4357" data-name="Path 4357" d="M56.4,342.691c.522-.177.737-.725,1.186-.988,0,.356,0,.713,0,1.07,0,.214.035.393.3.413-.459.44-.753,1.086-1.483,1.187Z" transform="translate(-56.402 -311.626)" fill="#fff"/>
      <path id="Path_4358" data-name="Path 4358" d="M85.144,346.723h-8.9c-.337-.005-.675-.033-1.01-.01-.257.019-.295-.108-.294-.3a4.144,4.144,0,0,1,1.488-3.542.3.3,0,0,0,.112-.257c0-1.344,0-2.688,0-4.1-1.088.794-2.116,1.548-3.148,2.3a.294.294,0,0,0-.126.375,3.16,3.16,0,0,1-3.9,3.828.471.471,0,0,0-.1-.006,4,4,0,0,1-1.093-.644c-.16-.158-.285-.1-.422.014a23.1,23.1,0,0,1-5.041,2.084,5.135,5.135,0,0,1-3.755-.2,4.622,4.622,0,0,1-.895-.84,5.524,5.524,0,0,1-.148-4.3,23,23,0,0,1,1.7-4.125c.863-1.615,1.847-3.157,2.824-4.7,1.578-2.222,3.179-4.429,4.918-6.528q1.369-1.652,2.776-3.271c.205-.236.21-.373,0-.605-.7-.778-1.383-1.579-2.072-2.372l-.9-1.094q-1-1.3-2-2.6a.25.25,0,0,0-.33-.113,3.326,3.326,0,0,1-1.886.042,5.04,5.04,0,0,1-1.313-.8,3.108,3.108,0,0,1-.238-4.145.3.3,0,0,0,0-.389c-.284-.44-.56-.885-.839-1.327a6,6,0,0,0-.589-1.04,33.837,33.837,0,0,1-2.008-4.586c-.037-.113-.013-.251-.1-.349l-.3-1.582c.037-.425-.015-.851.063-1.278a2.933,2.933,0,0,1,2.909-2.57c.295-.016.591-.011.887-.016l1.582.294a29.892,29.892,0,0,1,4.938,2.107,7.424,7.424,0,0,0,1.189.68l4.124,2.676c.364.271.736.532,1.088.817.261.212.363.085.448-.158a.63.63,0,0,0-.093-.556,2.859,2.859,0,0,1-.341-1.009,3.357,3.357,0,0,1,3.081-3.082,3.413,3.413,0,0,1,1.013.337c.489.253.825.126.975-.393A2.312,2.312,0,0,1,81,297.724a6.336,6.336,0,0,1,2.148.029,2.05,2.05,0,0,1,1.5,1.359c.333.877.476.94,1.313.53.088-.043.179-.08.268-.12a2.59,2.59,0,0,1,1.673.143,7.975,7.975,0,0,1,1.331,1.238,2.159,2.159,0,0,1,.33,2.436,2.711,2.711,0,0,0-.2.447.453.453,0,0,0,.179.524c.174.116.262-.08.369-.152,1.048-.711,2.085-1.438,3.134-2.147a.4.4,0,0,0,.207-.477,3.143,3.143,0,0,1,3.74-3.807,4.843,4.843,0,0,1,1.2.539c.352.541.764.564,1.342.294a10.288,10.288,0,0,1,3.015-.839,4.452,4.452,0,0,1,2.761.451,4.591,4.591,0,0,1,.9.971,6.074,6.074,0,0,1-.046,4.379,27.421,27.421,0,0,1-1.865,4.33c-.921,1.621-1.921,3.193-2.93,4.76-.071.088-.138.18-.213.265a1.514,1.514,0,0,0-.318,1.959,2.707,2.707,0,0,1-.636,3.176,2.988,2.988,0,0,1-3.146.882.53.53,0,0,0-.657.205q-1.162,1.4-2.364,2.776c-.2.229-.224.367-.006.607.737.814,1.447,1.653,2.168,2.483a8.078,8.078,0,0,0,.9,1.1l3.056,3.978c.154.231.322.455.457.7a.412.412,0,0,0,.638.2c1.893-.274,3.158.635,3.774,2.712l.008.2a3.25,3.25,0,0,1-.761,2.224.282.282,0,0,0,.034.455,28.054,28.054,0,0,1,1.834,4.257c.068.234.144.466.217.7l.256,1.465c-.04.391,0,.784-.07,1.178a2.92,2.92,0,0,1-2.959,2.567c-.246.012-.492.012-.738.018l-1.459-.266a26.06,26.06,0,0,1-4.954-2.058l-1.2-.661-4.144-2.663a7.847,7.847,0,0,0-1.135-.8l-2.324-1.77v3.863c-.009.19-.066.373.119.538.266.236.5.506.75.761a4.646,4.646,0,0,1,.707,2.716c-.012.289-.1.344-.365.343C87.61,346.7,86.377,346.717,85.144,346.723Zm.874-18.406,0-1.881c.006-1.282.014-2.565.017-3.847,0-1.232,0-1.223,1.234-1.2.281,0,.359.081.356.36-.012.937,0,1.874.009,2.811l0,1.881c-.006.328,0,.658-.021.986-.016.242.076.307.309.3.674-.014,1.349.006,2.023-.009a.777.777,0,0,0,.83-.84c.008-1.1-.005-2.2-.01-3.306a12.978,12.978,0,0,0-.029-1.893,8.415,8.415,0,0,0-2.026-5.032,7.333,7.333,0,0,0-1.344-1.365c-.2-.167-.3-.2-.378.119-.3,1.244-.62,2.481-.933,3.721l-.393,1.392-.4-.315-.857-.9c-.025.089-.044.118-.039.143.066.354.135.707.2,1.06.212,1.248.421,2.5.637,3.743a.952.952,0,0,1-.145.831q-1.388,1.8-2.728,3.633c-.2.272-.3.294-.511.005-.749-1.021-1.525-2.023-2.29-3.032-.178-.372-.542-.624-.666-1.031l.939-5.285-.193-.15-1.094,1.365-.585-2.062a7.851,7.851,0,0,0-.381-1.486c-.12-.511-.255-1.02-.356-1.535-.074-.38-.19-.409-.485-.16a8.924,8.924,0,0,0-3.2,5.557,7.68,7.68,0,0,0-.113,1.981c-.005,1.334-.019,2.669-.012,4a.774.774,0,0,0,.836.836c.543.012,1.087-.008,1.63-.013.806.026.7.13.675-.676.005-1.5.014-2.993.017-4.489,0-1.164,0-1.15,1.185-1.154.325,0,.41.09.406.41-.014,1.118,0,2.236.008,3.355l0,1.782c-.006.691,0,1.382-.023,2.072-.007.24.074.306.308.3,1.579-.014,3.159-.016,4.738-.022l1.881,0C86.067,329.338,86.067,329.338,86.018,328.316Zm-7.878,5.732,0,1.881c-.006,1.812,0,3.624-.028,5.435-.008.474.031.75.606.608a3.046,3.046,0,0,1,.689-.014,4.835,4.835,0,0,1,1.86.8V340.08q.009-2.987.018-5.974a.648.648,0,0,1,.148-.545c.5-.478.986-.969,1.468-1.464.153-.158.246-.132.4,0,.984.859.988.855.083,1.761-.1.1-.2.216-.315.313a.565.565,0,0,0-.207.471c.014,1.185.014,2.37.02,3.555v4.545a3.964,3.964,0,0,1,2.865-.753c.289.039.283-.1.282-.3q-.011-2.24-.016-4.479l0-1.881c.005-1.381.007-2.762.022-4.143,0-.233-.068-.313-.306-.309-.854.017-1.709.016-2.564.021H81.286c-.953,0-1.906,0-2.859-.02-.236,0-.311.071-.307.307C78.135,332.143,78.135,333.1,78.139,334.049Zm12.655-3.757-.036,1.877a2.631,2.631,0,0,1-1.86,1.86c-.409.015-.958-.125-1.19.085-.27.244-.081.8-.075,1.222-.006.229-.025.459-.013.688.01.184-.085.391.117.543,1.135.862,2.232,1.774,3.428,2.553a6.676,6.676,0,0,0,1.092.773,35.514,35.514,0,0,0,4.25,2.677,5.345,5.345,0,0,0,1.111.606,8.262,8.262,0,0,0,1.353.688,12.059,12.059,0,0,0,3.965,1.231c.179.01.358.032.537.025a1.384,1.384,0,0,0,1.518-1.394,4.972,4.972,0,0,0-.012-.683,14.094,14.094,0,0,0-1.91-5.337c-.122-.469-.353-.728-.887-.517a1.745,1.745,0,0,1-.528.037,3.2,3.2,0,0,1-2.927-3.775,2.517,2.517,0,0,1,.408-.979c.462-.479.284-.838-.122-1.2a46.781,46.781,0,0,0-3.085-4.048,7.193,7.193,0,0,0-.894-1.094c-.81-1.066-1.714-2.052-2.674-3.156v.588c0,1.117.006,2.234,0,3.352a2.05,2.05,0,0,1-1.013,1.909A1.017,1.017,0,0,0,90.779,330C90.787,330.1,90.789,330.194,90.794,330.292ZM74.588,312.98a2.712,2.712,0,0,1-.18-1.555c.048-.12.092-.242.145-.36.41-.9.373-1-.539-1.341a2.179,2.179,0,0,1-1.424-1.989c-.011-.523.012-1.047.019-1.569.129-.308.421-.668.344-.91-.082-.257-.514-.4-.793-.6a37.077,37.077,0,0,0-4.3-2.753,7.289,7.289,0,0,0-1.294-.711,15.1,15.1,0,0,0-5.153-1.907c-1.479-.216-2.538.252-2.193,2.239a4.562,4.562,0,0,0,.058.582,17.134,17.134,0,0,0,1.808,4.566,7.034,7.034,0,0,0,.711,1.289,15.628,15.628,0,0,0,.9,1.562c.066.115.117.2.3.146a3.183,3.183,0,0,1,3.129.761,5.076,5.076,0,0,1,.8,1.311,3.219,3.219,0,0,1-.5,2.795c-.115.156-.081.25.024.381.623.776,1.189,1.6,1.867,2.329a6.777,6.777,0,0,0,.9,1.1c.809,1.055,1.7,2.037,2.631,3.093a10.641,10.641,0,0,1,3.123-6.666c.209-.208.6-.429.585-.615-.022-.242-.373-.45-.573-.68C74.843,313.317,74.718,313.146,74.588,312.98Zm29.567-13.569a1.651,1.651,0,0,0-.86-.163,10.139,10.139,0,0,0-3.151.739c-.485.165-.813.364-.672.947a.892.892,0,0,1-.023.343,3.154,3.154,0,0,1-4.992,2.1c-.141-.1-.24-.252-.464-.1-.888.624-1.792,1.225-2.688,1.836-.106.072-.235.142-.112.309a3.186,3.186,0,0,1,.377,2.045,2.216,2.216,0,0,1-1.658,2.336c-.568.192-.694.481-.438,1a2.2,2.2,0,0,1-.485,2.859c-.151.151-.314.288-.5.46l.517.432.877.922a11.443,11.443,0,0,1,2.22,4.556,1.09,1.09,0,0,0,.276.605c.25.351.408.311.666-.012.621-.779,1.259-1.549,1.941-2.274.378-.4.475-.724.051-1.119a.4.4,0,0,0-.014-.1,3.151,3.151,0,0,1,3.863-4.274c.249.079.356-.016.476-.2.511-.765,1.046-1.515,1.544-2.289a31.35,31.35,0,0,0,3.664-7.118,5.134,5.134,0,0,0,.37-2.839A1.062,1.062,0,0,0,104.155,299.411ZM73.381,332.072l-.022-1.879a3.108,3.108,0,0,1,.02-.392.78.78,0,0,0-.49-.912,2.155,2.155,0,0,1-1.091-1.918c-.02-.738-.014-1.476-.018-2.214,0-.279.005-.559.016-.838a.5.5,0,0,0-.311-.467c-.147-.071-.225.14-.313.242-.72.836-1.449,1.665-2.147,2.519-1.166,1.425-2.345,2.842-3.38,4.369a50.894,50.894,0,0,0-3.966,5.984,22.441,22.441,0,0,0-2.284,5.1,4.172,4.172,0,0,0-.167,2.368,1.155,1.155,0,0,0,1.187,1.011,2.233,2.233,0,0,0,1.07.025,16.3,16.3,0,0,0,4.792-1.712c.571-.274.923-.489.818-1.306a2.786,2.786,0,0,1,1.615-2.866,3.02,3.02,0,0,1,3.3.184c.162.108.279.317.54.109.627-.5,1.281-.967,1.924-1.448.6-.368,1.107-.858,1.685-1.249a.731.731,0,0,0,.362-.857c.005-.492-.007-.986.023-1.477.019-.314-.066-.409-.4-.409A2.442,2.442,0,0,1,73.381,332.072Zm14.827-29.741a.587.587,0,0,0-.2-.435c-.208-.211-.421-.417-.626-.631a.675.675,0,0,0-.89-.121,2.164,2.164,0,0,1-3.279-1.354.684.684,0,0,0-.761-.545,3.655,3.655,0,0,1-.593,0c-.533-.059-.8.169-.963.686a2.118,2.118,0,0,1-3.048,1.3.864.864,0,0,0-1.246.221,3.453,3.453,0,0,1-.383.384.693.693,0,0,0-.143.928,2.161,2.161,0,0,1-1.332,3.254.705.705,0,0,0-.576.791,4.2,4.2,0,0,1,0,.642.748.748,0,0,0,.61.868A2.143,2.143,0,0,1,76.1,311.5a.746.746,0,0,0,.166,1.045,4.332,4.332,0,0,1,.419.418.751.751,0,0,0,1.045.175,2.149,2.149,0,0,1,3.189,1.318.747.747,0,0,0,.863.616,2.824,2.824,0,0,1,.543,0,.79.79,0,0,0,.928-.667,2.133,2.133,0,0,1,3.127-1.286.793.793,0,0,0,1.124-.2,3.575,3.575,0,0,1,.384-.384.75.75,0,0,0,.158-1.048,2.14,2.14,0,0,1,1.292-3.161c.467-.147.7-.393.649-.89a2.834,2.834,0,0,1,0-.543.768.768,0,0,0-.634-.9,2.162,2.162,0,0,1-1.323-3.16A.9.9,0,0,0,88.208,302.331Zm-4.63,21.874c-.01-.089-.015-.171-.029-.253q-.4-2.334-.809-4.668c-.107-.616-.221-1.23-.33-1.845-.035-.193-.145-.378-.323-.386s-.3.177-.336.368c-.014.064-.035.127-.046.192q-.55,3.186-1.1,6.371a.7.7,0,0,0,.105.6q.609.777,1.183,1.582c.169.238.255.152.386-.029.378-.519.769-1.028,1.154-1.542C83.522,324.48,83.627,324.366,83.578,324.205Zm-18.114-11.47a1.58,1.58,0,1,0-1.609,1.537A1.6,1.6,0,0,0,65.464,312.735Zm36.38,22.9a1.582,1.582,0,1,0-1.573-1.577A1.6,1.6,0,0,0,101.844,335.631Zm-30.052,6.313a1.58,1.58,0,1,0-1.552,1.593A1.593,1.593,0,0,0,71.792,341.945ZM96.313,299.25a1.58,1.58,0,1,0,1.584,1.563A1.591,1.591,0,0,0,96.313,299.25Zm0,16.555a1.581,1.581,0,1,0,1.638-1.527A1.6,1.6,0,0,0,96.317,315.805ZM85.231,345.123c.641,0,1.282,0,1.924,0,.2,0,.317-.008.207-.268a2.415,2.415,0,0,0-2.11-1.31,2.328,2.328,0,0,0-2.116,1.292c-.113.2-.079.291.172.288C83.948,345.117,84.59,345.123,85.231,345.123Zm-6.331,0v0c.641,0,1.281-.007,1.922,0,.27,0,.321-.076.189-.309a2.368,2.368,0,0,0-4.2.014c-.154.274-.007.293.216.291C77.652,345.116,78.276,345.12,78.9,345.12Zm-2.359-14.233v-.395c0-1.318,0-1.318-1.332-1.186a.294.294,0,0,1-.049,0c-.148-.012-.2.059-.2.2,0,.756-.028,1.514.017,2.267.032.541.515.773,1.312.687.524-.056.182-.46.235-.692A4.058,4.058,0,0,0,76.541,330.888Zm11.074,0c0,.428,0,.855,0,1.283,0,.1-.051.225.1.294a1.061,1.061,0,0,0,1.473-.784c.027-.707,0-1.415.011-2.121,0-.188-.057-.242-.249-.259-1.335-.121-1.335-.126-1.335,1.193Zm-2.824-13.319c.27-1.032.495-1.9.726-2.773.093-.348-.061-.414-.358-.333a.579.579,0,0,0-.412.446,4.726,4.726,0,0,1-.375.849c-.142.282-.662.343-.529.7.1.28.441.471.666.709A4.225,4.225,0,0,1,84.791,317.567Zm-5.434-.042c.349-.376.622-.681.907-.974.126-.128.176-.214-.009-.341a2.118,2.118,0,0,1-.842-1.289.587.587,0,0,0-.355-.441.393.393,0,0,0-.379-.011c-.149.1-.055.242-.026.357C78.871,315.683,79.1,316.537,79.357,317.524Z" transform="translate(-56.767 -297.646)" fill="#3a3a3a"/>
      <path id="Path_4359" data-name="Path 4359" d="M95.928,303.069a.9.9,0,0,1-.174.5,2.162,2.162,0,0,0,1.323,3.16.768.768,0,0,1,.634.9,2.834,2.834,0,0,0,0,.543c.05.5-.182.742-.649.89a2.14,2.14,0,0,0-1.292,3.161.75.75,0,0,1-.158,1.048,3.578,3.578,0,0,0-.384.384.793.793,0,0,1-1.124.2,2.133,2.133,0,0,0-3.127,1.286.79.79,0,0,1-.928.667,2.824,2.824,0,0,0-.543,0,.747.747,0,0,1-.863-.616,2.149,2.149,0,0,0-3.189-1.318.751.751,0,0,1-1.045-.175,4.333,4.333,0,0,0-.419-.418.746.746,0,0,1-.166-1.045,2.143,2.143,0,0,0-1.329-3.182.748.748,0,0,1-.61-.868,4.2,4.2,0,0,0,0-.642.705.705,0,0,1,.576-.791,2.161,2.161,0,0,0,1.332-3.254.693.693,0,0,1,.143-.928,3.451,3.451,0,0,0,.383-.384.864.864,0,0,1,1.246-.221,2.118,2.118,0,0,0,3.048-1.3c.16-.517.429-.745.963-.686a3.655,3.655,0,0,0,.593,0,.684.684,0,0,1,.761.545,2.164,2.164,0,0,0,3.279,1.354.675.675,0,0,1,.89.121c.205.214.418.42.626.631A.586.586,0,0,1,95.928,303.069Zm-6.146-.709a5.537,5.537,0,1,0,5.554,5.556A5.554,5.554,0,0,0,89.782,302.36Z" transform="translate(-64.487 -298.384)" fill="#f9c328"/>
      <path id="Path_4360" data-name="Path 4360" d="M97.191,333.389c-.005-.937-.021-1.875-.009-2.811,0-.279-.074-.355-.356-.36-1.234-.02-1.231-.03-1.234,1.2,0,1.282-.011,2.565-.017,3.847a.488.488,0,0,0-.326.2l-2.327,2.327a.482.482,0,0,0-.2.326c-1.579.005-3.159.008-4.738.022-.233,0-.315-.064-.308-.3.019-.69.016-1.381.023-2.072a3.435,3.435,0,0,0,1.393-1.247c.765,1.01,1.541,2.011,2.29,3.033.212.289.311.266.511-.005q1.346-1.83,2.728-3.633a.952.952,0,0,0,.145-.831c-.216-1.247-.425-2.5-.637-3.743.264-.027.385-.378.692-.307l.4.315.393-1.392c.225-.019.326-.21.466-.342.74-.7,1.41-1.474,2.19-2.134a8.415,8.415,0,0,1,2.026,5.032.975.975,0,0,0-.418.329c-.754.749-1.5,1.5-2.257,2.251C97.5,333.212,97.4,333.382,97.191,333.389Z" transform="translate(-66.327 -306.477)" fill="#b2db7e"/>
      <path id="Path_4361" data-name="Path 4361" d="M92.724,346.352c.855-.005,1.71,0,2.564-.021.238,0,.308.075.306.309-.015,1.381-.016,2.762-.022,4.143-.206.012-.306.18-.431.3-.757.752-1.509,1.51-2.267,2.262-.125.124-.223.294-.431.3-.005-1.185-.006-2.37-.02-3.555a.565.565,0,0,1,.207-.471c.111-.1.211-.208.315-.313.905-.907.9-.9-.083-1.761-.156-.137-.249-.162-.4,0-.481.5-.968.986-1.468,1.464a.648.648,0,0,0-.148.545q-.01,2.987-.018,5.974a5.281,5.281,0,0,0-1.254,1.138c-.229.216-.539.385-.606.74a3.048,3.048,0,0,0-.689.014c-.575.142-.614-.134-.606-.608.032-1.811.022-3.623.028-5.435.168,0,.259-.13.362-.233q2.216-2.214,4.43-4.43C92.593,346.611,92.72,346.52,92.724,346.352Z" transform="translate(-66.324 -313.095)" fill="#959ea9"/>
      <path id="Path_4362" data-name="Path 4362" d="M85.5,334.854c-.005-1.118-.023-2.237-.008-3.355,0-.32-.081-.412-.406-.41-1.184,0-1.182-.01-1.185,1.154,0,1.5-.012,2.993-.017,4.489a1.118,1.118,0,0,0-.675.676c-.543.005-1.088.025-1.63.013a.774.774,0,0,1-.836-.836c-.007-1.335.007-2.669.012-4a4.859,4.859,0,0,0,1.2-1.075c1.132-1.075,2.177-2.239,3.343-3.281l.585,2.062,1.094-1.365.193.149-.939,5.285C85.911,334.418,85.832,334.823,85.5,334.854Z" transform="translate(-64.124 -307.35)" fill="#b2db7e"/>
      <path id="Path_4363" data-name="Path 4363" d="M97.793,355.607q.008,2.24.016,4.479c0,.2.007.339-.282.3a3.964,3.964,0,0,0-2.865.753v-2.664c.207-.012.306-.18.431-.3.758-.752,1.51-1.51,2.268-2.262C97.487,355.784,97.585,355.615,97.793,355.607Z" transform="translate(-68.543 -316.038)" fill="#959ea9"/>
      <path id="Path_4364" data-name="Path 4364" d="M104.735,335.621c0,1.1.018,2.2.01,3.306a.777.777,0,0,1-.83.84c-.674.015-1.35,0-2.023.009-.233,0-.325-.061-.309-.3.022-.328.015-.657.021-.986.206-.012.305-.18.43-.3.758-.752,1.511-1.51,2.269-2.263C104.428,335.8,104.526,335.627,104.735,335.621Z" transform="translate(-70.738 -309.696)" fill="#b2db7e"/>
      <path id="Path_4365" data-name="Path 4365" d="M80.924,329.047a8.924,8.924,0,0,1,3.2-5.557c.295-.249.411-.219.485.16.1.515.236,1.024.356,1.535-.137.115-.283.221-.41.347q-1.608,1.6-3.209,3.2C81.226,328.861,81.129,329.03,80.924,329.047Z" transform="translate(-64.183 -305.796)" fill="#b2db7e"/>
      <path id="Path_4366" data-name="Path 4366" d="M80.863,329.91c.2-.017.3-.186.427-.311Q82.9,328,84.5,326.4c.126-.126.272-.232.41-.347a7.851,7.851,0,0,1,.381,1.486c-1.166,1.042-2.211,2.206-3.343,3.281a4.857,4.857,0,0,1-1.2,1.075A7.68,7.68,0,0,1,80.863,329.91Z" transform="translate(-64.122 -306.659)" fill="#a9d077"/>
      <path id="Path_4367" data-name="Path 4367" d="M92.736,346.361c0,.168-.13.259-.233.363q-2.214,2.216-4.43,4.43c-.1.1-.194.229-.362.233l0-1.881a21.424,21.424,0,0,0,3.146-3.146Z" transform="translate(-66.336 -313.104)" fill="#8e96a1"/>
      <path id="Path_4368" data-name="Path 4368" d="M67.673,318.994a1.58,1.58,0,1,1-1.526-1.622A1.589,1.589,0,0,1,67.673,318.994Z" transform="translate(-58.976 -303.905)" fill="#f97f6b"/>
      <path id="Path_4369" data-name="Path 4369" d="M121.7,351.817a1.582,1.582,0,1,1,1.589-1.561A1.595,1.595,0,0,1,121.7,351.817Z" transform="translate(-76.623 -313.832)" fill="#f97f6b"/>
      <path id="Path_4370" data-name="Path 4370" d="M76.942,361.807a1.58,1.58,0,1,1-1.582-1.567A1.589,1.589,0,0,1,76.942,361.807Z" transform="translate(-61.917 -317.508)" fill="#f97f6b"/>
      <path id="Path_4371" data-name="Path 4371" d="M113.6,300a1.58,1.58,0,1,1-1.576,1.572A1.59,1.59,0,0,1,113.6,300Z" transform="translate(-74.051 -298.392)" fill="#f97f6b"/>
      <path id="Path_4372" data-name="Path 4372" d="M114.336,323.536a1.581,1.581,0,1,1,1.609,1.634A1.592,1.592,0,0,1,114.336,323.536Z" transform="translate(-74.786 -305.377)" fill="#f97f6b"/>
      <path id="Path_4373" data-name="Path 4373" d="M97.792,354.733c-.208.008-.307.177-.431.3-.758.752-1.51,1.51-2.268,2.262-.125.124-.224.292-.431.3v-1.881c.208-.008.307-.177.431-.3.758-.752,1.51-1.51,2.267-2.262.125-.124.225-.292.431-.3Z" transform="translate(-68.542 -315.164)" fill="#8e96a1"/>
      <path id="Path_4374" data-name="Path 4374" d="M104.745,334.741c-.209.006-.307.176-.432.3-.758.753-1.51,1.511-2.269,2.263-.125.124-.224.292-.43.3l0-1.881c.208-.007.306-.176.429-.3.754-.749,1.5-1.5,2.257-2.251a.975.975,0,0,1,.418-.329A12.978,12.978,0,0,1,104.745,334.741Z" transform="translate(-70.748 -308.816)" fill="#a9d077"/>
      <path id="Path_4375" data-name="Path 4375" d="M90.846,346.351A21.422,21.422,0,0,1,87.7,349.5c0-.953,0-1.906-.02-2.859,0-.236.071-.311.307-.307C88.94,346.347,89.893,346.346,90.846,346.351Z" transform="translate(-66.327 -313.095)" fill="#959ea9"/>
      <path id="Path_4376" data-name="Path 4376" d="M97.094,366.458c-.641,0-1.283-.006-1.924,0-.251,0-.285-.083-.172-.288a2.328,2.328,0,0,1,2.116-1.292,2.415,2.415,0,0,1,2.11,1.31c.111.26-.008.27-.207.268C98.376,366.455,97.735,366.458,97.094,366.458Z" transform="translate(-68.63 -318.981)" fill="#cf9d6a"/>
      <path id="Path_4377" data-name="Path 4377" d="M87.823,366.458c-.624,0-1.248,0-1.872,0-.223,0-.369-.017-.216-.291a2.368,2.368,0,0,1,4.2-.014c.132.233.081.313-.189.309-.64-.012-1.281,0-1.922,0Z" transform="translate(-65.69 -318.984)" fill="#cf9d6a"/>
      <path id="Path_4378" data-name="Path 4378" d="M84.63,345.578a4.057,4.057,0,0,1-.016.884c-.053.232.289.636-.235.692-.8.087-1.28-.146-1.312-.687-.045-.753-.012-1.511-.017-2.267,0-.143.051-.215.2-.2a.287.287,0,0,0,.049,0c1.332-.132,1.332-.132,1.332,1.186Z" transform="translate(-64.856 -312.337)" fill="#eeceb2"/>
      <path id="Path_4379" data-name="Path 4379" d="M101.587,345.575v-.395c0-1.319,0-1.313,1.335-1.193.192.017.252.07.249.259-.009.707.016,1.415-.011,2.121a1.061,1.061,0,0,1-1.473.784c-.149-.069-.1-.192-.1-.294C101.583,346.43,101.587,346,101.587,345.575Z" transform="translate(-70.738 -312.335)" fill="#eeceb2"/>
      <path id="Path_4380" data-name="Path 4380" d="M101.957,324.785c-.78.66-1.45,1.433-2.19,2.134-.14.132-.241.323-.466.342.313-1.24.637-2.477.933-3.721.076-.321.182-.287.378-.119A7.332,7.332,0,0,1,101.957,324.785Z" transform="translate(-70.015 -305.785)" fill="#a9d077"/>
      <path id="Path_4381" data-name="Path 4381" d="M95.07,342.668a.482.482,0,0,1,.2-.326l2.327-2.327a.488.488,0,0,1,.326-.2l0,1.881a2.168,2.168,0,0,0-.972.972Z" transform="translate(-68.672 -311.028)" fill="#a9d077"/>
      <path id="Path_4382" data-name="Path 4382" d="M89.568,361.682c.068-.355.378-.524.606-.74a5.281,5.281,0,0,1,1.254-1.138v2.677A4.835,4.835,0,0,0,89.568,361.682Z" transform="translate(-66.926 -317.37)" fill="#8e96a1"/>
      <path id="Path_4383" data-name="Path 4383" d="M97,325.368a4.229,4.229,0,0,0-.282-.4c-.225-.238-.563-.429-.666-.709-.133-.359.387-.421.529-.7a4.726,4.726,0,0,0,.375-.849.579.579,0,0,1,.412-.446c.3-.081.451-.015.358.333C97.5,323.464,97.271,324.336,97,325.368Z" transform="translate(-68.977 -305.447)" fill="#a9d077"/>
      <path id="Path_4384" data-name="Path 4384" d="M89.139,325.323c-.259-.987-.486-1.841-.7-2.7-.029-.115-.123-.256.026-.357a.394.394,0,0,1,.379.011.587.587,0,0,1,.355.441,2.119,2.119,0,0,0,.842,1.289c.185.127.134.212.009.341C89.761,324.642,89.488,324.947,89.139,325.323Z" transform="translate(-66.549 -305.445)" fill="#a9d077"/>
      <path id="Path_4385" data-name="Path 4385" d="M87.709,337.7c.335-.031.414-.436.729-.5.124.407.487.659.666,1.031a3.435,3.435,0,0,1-1.393,1.247Z" transform="translate(-66.336 -310.2)" fill="#a9d077"/>
      <path id="Path_4386" data-name="Path 4386" d="M97.825,343.544a2.168,2.168,0,0,1,.972-.972C98.846,343.594,98.846,343.594,97.825,343.544Z" transform="translate(-69.546 -311.902)" fill="#b2db7e"/>
      <path id="Path_4387" data-name="Path 4387" d="M97.727,330.265c-.307-.07-.428.281-.692.307-.068-.353-.137-.706-.2-1.06,0-.025.014-.055.039-.143Z" transform="translate(-69.231 -307.712)" fill="#a9d077"/>
      <path id="Path_4388" data-name="Path 4388" d="M84.353,341.362a1.118,1.118,0,0,1,.675-.676C85.055,341.492,85.159,341.388,84.353,341.362Z" transform="translate(-65.271 -311.304)" fill="#a9d077"/>
      <path id="Path_4389" data-name="Path 4389" d="M90.889,303.469a5.537,5.537,0,1,1-5.519,5.539A5.556,5.556,0,0,1,90.889,303.469Zm.005,9.49a3.954,3.954,0,1,0-3.943-3.977A3.976,3.976,0,0,0,90.895,312.959Z" transform="translate(-65.594 -299.494)" fill="#030202"/>
      <path id="Path_4390" data-name="Path 4390" d="M91.63,313.694a3.954,3.954,0,1,1,3.964-3.958A3.967,3.967,0,0,1,91.63,313.694Zm2.382-3.941a2.373,2.373,0,1,0-2.363,2.359A2.388,2.388,0,0,0,94.012,309.753Z" transform="translate(-66.329 -300.229)" fill="#f7d36e"/>
      <path id="Path_4391" data-name="Path 4391" d="M94.746,310.487a2.373,2.373,0,1,1-2.334-2.388A2.385,2.385,0,0,1,94.746,310.487Zm-1.581-.02a.791.791,0,1,0-.771.8A.8.8,0,0,0,93.165,310.466Z" transform="translate(-67.063 -300.963)" fill="#030202"/>
    </g>
  </g>
</svg>
