<svg xmlns="http://www.w3.org/2000/svg" width="44.232" height="43.215" viewBox="0 0 44.232 43.215">
  <g id="jkgfmF.tif" transform="translate(0 0)">
    <g id="Group_2289" data-name="Group 2289">
      <path id="Path_4392" data-name="Path 4392" d="M269.248,315.533c-1.062,1.063-2.12,2.13-3.19,3.185a.748.748,0,0,1-1.034.04,5.936,5.936,0,0,0-1.232,2.012,1.038,1.038,0,0,0,0,.539,3.354,3.354,0,0,1-.821,3.22c-1.284,1.391-2.566,2.782-3.86,4.164a3.613,3.613,0,0,1-2.03,1.142c-.33.058-.371.2-.37.484.008,2.615-.01,5.231.01,7.846A4.618,4.618,0,0,1,254.986,342c-.279.226-.515.505-.8.715a.94.94,0,0,0-.358,1.126c.2,0,.41-.01.621,0a.74.74,0,0,1,.8.778q.026,1.779,0,3.558a.741.741,0,0,1-.749.784,3.513,3.513,0,0,1-.388.007H240.892c-.915,0-1.119-.2-1.12-1.1,0-1.014,0-2.029,0-3.044,0-.741.239-.976.977-.982.155,0,.31,0,.479,0a2.029,2.029,0,0,0-1.133-1.916,3.518,3.518,0,0,1-1.35-1.352,3.782,3.782,0,0,1-.451-1.936c.006-1.686.014-3.373-.011-5.059a1.129,1.129,0,0,0-.291-.7q-2.854-2.955-5.744-5.876a4.569,4.569,0,0,1-1.288-4.745,2.9,2.9,0,0,0,.267-1.358c-.113-.4-.612-.69-.937-1.031-.227-.238-.447-.483-.685-.742-.162.145-.271.253-.389.348a.719.719,0,0,1-1.016,0q-1.5-1.45-2.961-2.94a.692.692,0,0,1,.021-1.039c.084-.1.18-.184.272-.275q4.5-4.472,9.011-8.941a6.655,6.655,0,0,1,.67-.517h.259a3.448,3.448,0,0,1,.484.34q1.384,1.354,2.751,2.725a.742.742,0,0,1,0,1.227c-.281.278-.6.519-.967.831l.461.363.127.1a3.471,3.471,0,0,1,4.146.476c.875.762,1.671,1.612,2.5,2.427.468.461.931.927,1.412,1.407.975-1.128,1.923-2.221,2.867-3.318a4.31,4.31,0,0,1,3.852-1.6c.709.069,1.4.292,2.107.429a.594.594,0,0,0,.424-.051c.348-.27.668-.578.983-.857-.572-.8-.562-.958.04-1.6.743-.8,1.481-1.6,2.238-2.382a5.165,5.165,0,0,1,.676-.507h.173a5.116,5.116,0,0,1,.689.49q4.172,4.124,8.327,8.265a7.155,7.155,0,0,1,.485.594ZM252.3,331.387v-.544q0-4.652,0-9.3c0-.858-.476-1.451-1.139-1.449s-1.082.563-1.082,1.432q0,4.674,0,9.347v.5h-1.473v-.545q0-5.681,0-11.363a2.932,2.932,0,0,0-.044-.639,1.09,1.09,0,0,0-1.806-.617,1.383,1.383,0,0,0-.357,1.1q.007,5.767,0,11.534v.535h-1.479v-.53q0-5,0-9.99a4.084,4.084,0,0,0-.023-.556,1.047,1.047,0,0,0-1.445-.838,1.227,1.227,0,0,0-.737,1.32q.008,6.5,0,12.992v.522H241.23v-4.507a2.082,2.082,0,0,0-1.454,2.1c-.01,2.172.026,4.345-.016,6.517a2.5,2.5,0,0,0,1.341,2.436,3.146,3.146,0,0,1,1.565,2.348c.033.208.053.417.077.618H252.3a5.433,5.433,0,0,0,0-.591,1.319,1.319,0,0,1,.552-1.266c.446-.359.842-.78,1.278-1.152a3.159,3.159,0,0,0,1.12-2.539q0-5.317,0-10.634a2.888,2.888,0,0,0-.1-.8,2.112,2.112,0,0,0-1.4-1.455v6.026Zm-11.057-3.182v-.563c0-2.314.007-4.629,0-6.944a2.628,2.628,0,0,1,1.392-2.484,2.521,2.521,0,0,1,2.378-.037l.683-1.055c-1.395-1.409-2.76-2.841-4.188-4.208a1.982,1.982,0,0,0-2.654-.063.789.789,0,0,1-1.185-.074c-.282-.276-.542-.574-.763-.81l-6.247,6.2c.6.593,1.225,1.223,1.864,1.838a.892.892,0,0,1,.281.964c-.162.577-.287,1.164-.442,1.743a3.084,3.084,0,0,0,.864,3.177c1.595,1.609,3.171,3.237,4.756,4.855.107.109.221.21.369.351A3.79,3.79,0,0,1,241.246,328.205Zm22.685-10.567-6.317-6.449c-.45.46-.86.881-1.271,1.3a.847.847,0,0,1-.9.241c-.65-.18-1.307-.339-1.965-.483a2.958,2.958,0,0,0-3.065.993q-1.209,1.4-2.419,2.795c-.1.114-.193.233-.319.386a2.71,2.71,0,0,1,2.405,2.348,6.531,6.531,0,0,1,1.43-.1,2.614,2.614,0,0,1,2.268,2.7c.014.812,0,1.625,0,2.429,2.326.7,3.112,2.349,2.99,4.648a3.6,3.6,0,0,0,1.146-.653c1.377-1.439,2.72-2.91,4.061-4.381a1.7,1.7,0,0,0,.4-1.638,2.707,2.707,0,0,1,.263-2.071C263.026,319.016,263.478,318.357,263.931,317.639Zm-26.795-8.189-1.824-1.815-8.407,8.351,1.829,1.813Zm30.245,5.833-7.733-7.679-1.7,1.821,7.582,7.742Zm-13.615,30.045H241.28v2.139h12.487Z" transform="translate(-225.016 -305.756)"/>
      <path id="Path_4393" data-name="Path 4393" d="M259.156,337.037h1.45v-6.026a2.112,2.112,0,0,1,1.4,1.455,2.887,2.887,0,0,1,.1.8q.009,5.317,0,10.634a3.159,3.159,0,0,1-1.12,2.539c-.436.372-.832.793-1.278,1.152a1.319,1.319,0,0,0-.552,1.266,5.433,5.433,0,0,1,0,.591H249.6c-.025-.2-.044-.41-.077-.618a3.146,3.146,0,0,0-1.565-2.348,2.5,2.5,0,0,1-1.341-2.436c.042-2.172.006-4.345.016-6.517a2.082,2.082,0,0,1,1.454-2.1v4.507h1.489v-.522q0-6.5,0-12.992a1.227,1.227,0,0,1,.737-1.32,1.047,1.047,0,0,1,1.445.838,4.086,4.086,0,0,1,.023.556q0,5,0,9.99v.53h1.479v-.535q0-5.767,0-11.534a1.383,1.383,0,0,1,.357-1.1,1.09,1.09,0,0,1,1.806.617,2.932,2.932,0,0,1,.044.639q0,5.681,0,11.363v.545h1.473v-.5q0-4.674,0-9.347c0-.869.424-1.429,1.082-1.432s1.139.591,1.139,1.449q.006,4.652,0,9.3Z" transform="translate(-231.869 -311.406)" fill="#efd5bb"/>
      <path id="Path_4394" data-name="Path 4394" d="M243.869,331.093a3.79,3.79,0,0,0-2.9,2.893c-.149-.141-.263-.242-.369-.351-1.584-1.619-3.161-3.246-4.756-4.855a3.085,3.085,0,0,1-.864-3.177c.156-.579.28-1.166.442-1.743a.892.892,0,0,0-.281-.964c-.638-.615-1.264-1.245-1.864-1.838l6.247-6.2c.221.236.481.534.763.81a.789.789,0,0,0,1.185.074,1.982,1.982,0,0,1,2.654.063c1.428,1.367,2.794,2.8,4.188,4.208l-.683,1.055a2.52,2.52,0,0,0-2.378.037,2.628,2.628,0,0,0-1.392,2.484c.01,2.314,0,4.629,0,6.944Z" transform="translate(-227.639 -308.643)" fill="#dbbe9e"/>
      <path id="Path_4395" data-name="Path 4395" d="M274.462,320.165c-.453.718-.9,1.378-1.3,2.071a2.707,2.707,0,0,0-.263,2.071,1.7,1.7,0,0,1-.4,1.638c-1.341,1.472-2.684,2.942-4.061,4.381a3.605,3.605,0,0,1-1.146.653c.122-2.3-.664-3.948-2.99-4.648,0-.8.012-1.617,0-2.429a2.614,2.614,0,0,0-2.268-2.7,6.535,6.535,0,0,0-1.43.1,2.71,2.71,0,0,0-2.405-2.348c.126-.153.22-.272.319-.386q1.208-1.4,2.419-2.795a2.958,2.958,0,0,1,3.065-.993c.659.144,1.316.3,1.965.483a.847.847,0,0,0,.9-.241c.412-.418.821-.838,1.271-1.3Z" transform="translate(-235.547 -308.282)" fill="#c6a283"/>
      <path id="Path_4396" data-name="Path 4396" d="M238.014,310.323l-8.4,8.35-1.829-1.813,8.407-8.351Z" transform="translate(-225.894 -306.629)" fill="#31c988"/>
      <path id="Path_4397" data-name="Path 4397" d="M282.687,316.142l-1.856,1.884-7.582-7.742,1.7-1.821Z" transform="translate(-240.321 -306.615)" fill="#4ea3ce"/>
      <path id="Path_4398" data-name="Path 4398" d="M261.326,363.722v2.139H248.839v-2.139Z" transform="translate(-232.576 -324.15)" fill="#feb756"/>
    </g>
  </g>
</svg>
