<svg xmlns="http://www.w3.org/2000/svg" width="42.871" height="34.311" viewBox="0 0 42.871 34.311">
  <g id="Group_2297" data-name="Group 2297" transform="translate(0 0)">
    <g id="Path_4548" data-name="Path 4548" transform="translate(-68.112 -493.332)" fill="#e2c0a1" stroke-linejoin="round">
      <path d="M 84.70880889892578 524.6305541992188 C 83.99655151367188 524.6305541992188 83.34319305419922 524.2130737304688 82.91625213623047 523.485107421875 C 82.47432708740234 522.7329711914062 82.48419952392578 521.8899536132812 82.94351959228516 521.172607421875 C 83.32489776611328 520.5739135742188 83.70233154296875 520.0387573242188 84.09673309326172 519.5375366210938 C 84.49658966064453 519.0309448242188 85.13417053222656 518.7288208007812 85.80271148681641 518.7288208007812 C 86.23377990722656 518.7288208007812 86.64647674560547 518.8517456054688 86.99620056152344 519.0843505859375 C 87.93624114990234 519.7109985351562 88.27385711669922 521.0200805664062 87.73390197753906 521.9431762695312 C 87.32028961181641 522.650390625 86.85781860351562 523.303466796875 86.35935211181641 523.8841552734375 C 86.04186248779297 524.2567749023438 85.52735900878906 524.5286865234375 84.98428344726562 524.610107421875 C 84.89434814453125 524.6236572265625 84.80152130126953 524.6305541992188 84.70880889892578 524.6305541992188 Z" stroke="none"/>
      <path d="M 85.80271148681641 519.2288208007812 C 85.30361938476562 519.228759765625 84.8076171875 519.4439086914062 84.48966217041016 519.8467407226562 C 84.10873413085938 520.330810546875 83.74076843261719 520.8516845703125 83.36460113525391 521.4421997070312 C 83.00482940673828 522.0040893554688 82.99936676025391 522.6395874023438 83.34754180908203 523.232177734375 C 83.72978973388672 523.8839111328125 84.29926300048828 524.2077026367188 84.91018676757812 524.1156005859375 C 85.32936859130859 524.0527954101562 85.74034118652344 523.8397216796875 85.97995758056641 523.5584716796875 C 86.45987701416016 522.9993896484375 86.90431213378906 522.3712768554688 87.30230712890625 521.6907348632812 C 87.70645904541016 520.9998168945312 87.43406677246094 519.9771728515625 86.71929931640625 519.5006713867188 C 86.44320678710938 519.3170166015625 86.12230682373047 519.2288208007812 85.80271148681641 519.2288208007812 M 85.80264282226562 518.2288208007812 C 85.80265045166016 518.2288208007812 85.80265808105469 518.2288208007812 85.80267333984375 518.2288208007812 C 86.33264923095703 518.2288208007812 86.84111785888672 518.3806762695312 87.27310943603516 518.6680297851562 C 88.42623138427734 519.436767578125 88.83448791503906 521.0519409179688 88.16548156738281 522.1956176757812 C 87.73677062988281 522.9287109375 87.25672912597656 523.6063842773438 86.73873901367188 524.2098388671875 C 86.34645080566406 524.6702880859375 85.71736907958984 525.0057983398438 85.05838012695312 525.1045532226562 C 84.94431304931641 525.1217651367188 84.82639312744141 525.1305541992188 84.70880889892578 525.1305541992188 C 83.81453704833984 525.1305541992188 83.00398254394531 524.623046875 82.48496246337891 523.7380981445312 C 81.94445037841797 522.818115234375 81.95796966552734 521.7845458984375 82.52243804931641 520.9029541015625 C 82.91220092773438 520.2911376953125 83.29904174804688 519.74267578125 83.70381164550781 519.2283325195312 C 84.19812774658203 518.60205078125 84.98239898681641 518.2288208007812 85.80264282226562 518.2288208007812 Z" stroke="none" fill="#000"/>
    </g>
    <g id="Path_4549" data-name="Path 4549" transform="translate(-66.308 -491.392)" fill="#e2c0a1" stroke-linejoin="round">
      <path d="M 79.10085296630859 520.0748291015625 C 78.70294952392578 520.0748291015625 78.31731414794922 519.967041015625 77.98562622070312 519.7630615234375 C 77.45013427734375 519.431396484375 77.08524322509766 518.9420776367188 76.95674896240234 518.3844604492188 C 76.83232116699219 517.8486938476562 76.93121337890625 517.3037109375 77.24293518066406 516.8093872070312 C 77.97855377197266 515.6402587890625 78.77526092529297 514.4989013671875 79.52659606933594 513.439697265625 C 79.89430999755859 512.9235229492188 80.52548980712891 512.6157836914062 81.21558380126953 512.6157836914062 C 81.49027252197266 512.6157836914062 81.75989532470703 512.664306640625 82.01692962646484 512.760009765625 C 82.85352325439453 513.0704956054688 83.39874267578125 513.8417358398438 83.47494506835938 514.8228149414062 L 83.47968292236328 514.8831787109375 L 83.48916625976562 515.0040283203125 L 83.44225311279297 515.1157836914062 L 83.41904449462891 515.1710815429688 C 83.39175415039062 515.2364501953125 83.36696624755859 515.30859375 83.34429168701172 515.3765869140625 L 83.34270477294922 515.3814086914062 L 83.34102630615234 515.3861083984375 L 83.33436584472656 515.4048461914062 C 83.26070404052734 515.6121215820312 83.17722320556641 515.8471069335938 83.02210998535156 516.0767211914062 C 82.41304016113281 516.9899291992188 81.74171447753906 517.9651489257812 80.91103363037109 519.143310546875 C 80.50186920166016 519.7262573242188 79.82494354248047 520.0748291015625 79.10085296630859 520.0748291015625 Z" stroke="none"/>
      <path d="M 81.215576171875 513.1157836914062 C 80.70245361328125 513.1157836914062 80.21433258056641 513.3360595703125 79.93441009521484 513.72900390625 C 79.18960571289062 514.7789916992188 78.39905548095703 515.9108276367188 77.66586303710938 517.0761108398438 C 77.42692565917969 517.4550170898438 77.35045623779297 517.8694458007812 77.44398498535156 518.272216796875 C 77.54228973388672 518.6988525390625 77.82765960693359 519.0770874023438 78.24748992919922 519.337158203125 C 78.98677062988281 519.7916870117188 79.99677276611328 519.5756225585938 80.50239562988281 518.855224609375 C 81.32160949707031 517.6932983398438 81.99132537841797 516.7211303710938 82.60778045654297 515.7968139648438 C 82.73135375976562 515.6138916015625 82.80097961425781 515.4124145507812 82.86993408203125 515.2185668945312 C 82.89723968505859 515.1365966796875 82.92523956298828 515.0560913085938 82.95800018310547 514.9776000976562 L 82.98120880126953 514.9223022460938 L 82.9764404296875 514.8615112304688 C 82.91567993164062 514.0791625976562 82.49172973632812 513.4695434570312 81.84249114990234 513.2285766601562 C 81.63763427734375 513.15234375 81.42452239990234 513.1157836914062 81.215576171875 513.1157836914062 M 81.21555328369141 512.1157836914062 C 81.55002593994141 512.1157836914062 81.87833404541016 512.1748657226562 82.19137573242188 512.2913818359375 C 83.19991302490234 512.6657104492188 83.88311004638672 513.6209716796875 83.97344207763672 514.7840576171875 L 83.9781494140625 514.8440551757812 C 83.99061584472656 515.0028686523438 83.96494293212891 515.1624145507812 83.90328979492188 515.309326171875 L 83.88008117675781 515.3646240234375 C 83.85942077636719 515.4141235351562 83.83830261230469 515.4757080078125 83.81866455078125 515.53466796875 C 83.81654357910156 515.541015625 83.81435394287109 515.54736328125 83.81211090087891 515.5537109375 L 83.80550384521484 515.572265625 C 83.72647094726562 515.794677734375 83.62823486328125 516.0711059570312 83.43973541259766 516.3516845703125 L 83.43973541259766 516.3516845703125 C 82.82656097412109 517.2710571289062 82.15290069580078 518.2496948242188 81.31967926025391 519.4314575195312 C 80.81761932373047 520.146728515625 79.98770141601562 520.5748291015625 79.10085296630859 520.5748291015625 C 78.61044311523438 520.5748291015625 78.13423919677734 520.44140625 77.72373962402344 520.1890258789062 C 77.07259368896484 519.78564453125 76.62818145751953 519.185302734375 76.46952056884766 518.4967651367188 C 76.31661987304688 517.8383178710938 76.44095611572266 517.143798828125 76.81999969482422 516.542724609375 C 77.56183624267578 515.3637084960938 78.36328125 514.2154541015625 79.11878204345703 513.1504516601562 C 79.58069610595703 512.501953125 80.36410522460938 512.1157836914062 81.21555328369141 512.1157836914062 Z" stroke="none" fill="#000"/>
    </g>
    <g id="Path_4550" data-name="Path 4550" transform="translate(-64.542 -489.524)" fill="#e2c0a1" stroke-linejoin="round">
      <path d="M 73.4508056640625 515.7117919921875 C 72.69646453857422 515.7117919921875 72.05168151855469 515.2926635742188 71.63522338867188 514.5316772460938 C 71.21482086181641 513.7636108398438 71.23945617675781 512.9346923828125 71.70281982421875 512.2574462890625 C 72.93472290039062 510.4608764648438 73.98001098632812 508.9754943847656 74.99269866943359 507.5824279785156 C 75.31818389892578 507.1343383789062 75.80194091796875 506.8408203125 76.35511016845703 506.7558288574219 C 76.46882629394531 506.7369995117188 76.58515167236328 506.7274780273438 76.70096588134766 506.7274780273438 C 77.16959381103516 506.7274780273438 77.64021301269531 506.8849487304688 78.02613067626953 507.1708679199219 C 78.97981262207031 507.8742370605469 79.19596862792969 509.1600036621094 78.52806091308594 510.1610107421875 C 78.13303375244141 510.7542114257812 77.71512603759766 511.3430786132812 77.31097412109375 511.9125671386719 L 77.26173400878906 511.98193359375 C 77.06049346923828 512.2647705078125 76.86423492431641 512.5409545898438 76.67134094238281 512.8171997070312 C 76.55167388916016 512.9872436523438 76.43331909179688 513.1638793945312 76.31887054443359 513.334716796875 L 76.28623962402344 513.3834228515625 C 75.98184967041016 513.838623046875 75.66678619384766 514.309814453125 75.29244995117188 514.7532958984375 C 74.9527587890625 515.1575317382812 74.45001220703125 515.5083618164062 74.04212951660156 515.6255493164062 C 73.84574127197266 515.6826171875 73.64627075195312 515.7117919921875 73.4508056640625 515.7117919921875 Z" stroke="none"/>
      <path d="M 73.4508056640625 515.2117919921875 C 73.59690093994141 515.2117919921875 73.74913024902344 515.1900024414062 73.90410614013672 515.1449584960938 C 74.17034149169922 515.0684814453125 74.60113525390625 514.7987670898438 74.91036987304688 514.4307861328125 C 75.26467895507812 514.0110473632812 75.57326507568359 513.5501708984375 75.87090301513672 513.1050415039062 C 75.99993133544922 512.9125366210938 76.12827301025391 512.7200927734375 76.26140594482422 512.5309448242188 C 76.45732879638672 512.2503662109375 76.65530395507812 511.9717712402344 76.85396575927734 511.6925964355469 C 77.27927398681641 511.0932312011719 77.70526885986328 510.4944763183594 78.11214447021484 509.8835144042969 C 78.62962341308594 509.1079406738281 78.46440887451172 508.1153869628906 77.72848510742188 507.5726013183594 C 77.35708618164062 507.2974548339844 76.88945007324219 507.173095703125 76.43343353271484 507.2496643066406 C 76.01153564453125 507.3138732910156 75.64358520507812 507.5371398925781 75.39713287353516 507.8764343261719 C 74.38674926757812 509.2663269042969 73.34429931640625 510.7477111816406 72.11548614501953 512.539794921875 C 71.76185607910156 513.056640625 71.74683380126953 513.6942138671875 72.07384490966797 514.2916259765625 C 72.40219879150391 514.8916625976562 72.88964080810547 515.2117919921875 73.4508056640625 515.2117919921875 M 73.4508056640625 516.2117919921875 C 72.51906585693359 516.2117919921875 71.69743347167969 515.6868896484375 71.19660186767578 514.7716674804688 C 70.69015502929688 513.846435546875 70.72511291503906 512.8009643554688 71.29016876220703 511.9751281738281 C 72.52500915527344 510.1742553710938 73.57282257080078 508.685302734375 74.58827209472656 507.2884216308594 C 74.99205017089844 506.7325439453125 75.59125518798828 506.3681640625 76.2760009765625 506.2621154785156 C 76.41579437255859 506.2391357421875 76.55873107910156 506.2274780273438 76.70096588134766 506.2274780273438 C 77.2760009765625 506.2274780273438 77.85233306884766 506.4198303222656 78.32376098632812 506.7690734863281 C 79.49544525146484 507.6332397460938 79.76280975341797 509.2113037109375 78.94398498535156 510.4385375976562 C 78.54507446289062 511.0375366210938 78.12498474121094 511.6294860839844 77.71871948242188 512.2019653320312 L 77.66949462890625 512.2713012695312 C 77.46855926513672 512.5537109375 77.27300262451172 512.8289184570312 77.08128356933594 513.1034545898438 C 76.96385955810547 513.2703247070312 76.85234069824219 513.436767578125 76.73427581787109 513.613037109375 L 76.70157623291016 513.6618041992188 C 76.40440368652344 514.1062622070312 76.06689453125 514.6110229492188 75.67452239990234 515.0758056640625 C 75.27059936523438 515.5564575195312 74.68347930908203 515.9615478515625 74.18016052246094 516.1060791015625 C 73.93994140625 516.1759643554688 73.69351196289062 516.2117919921875 73.4508056640625 516.2117919921875 Z" stroke="none" fill="#000"/>
    </g>
    <path id="Path_4551" data-name="Path 4551" d="M76.158,486.117a.936.936,0,0,0,.225-.7.961.961,0,0,0-.431-.6c-.444-.322-.883-.653-1.322-.984-.276-.208-.552-.416-.829-.622a2.308,2.308,0,0,0-.285-.174l-.335-.192-.139.126c-.051.046-.1.09-.156.134a2.149,2.149,0,0,0-.365.358q-4.669,6.377-9.326,12.763a.977.977,0,0,0-.266.72.99.99,0,0,0,.492.6q.612.427,1.227.846l.855.587a1.388,1.388,0,0,0,.718.323c.244,0,.443-.178.715-.55l2.852-3.914Q72.972,490.479,76.158,486.117Z" transform="translate(-61.713 -481.788)" fill="#e76e61"/>
    <g id="Path_4552" data-name="Path 4552" transform="translate(-69.934 -494.895)" fill="#e2c0a1" stroke-linejoin="round">
      <path d="M 90.49808502197266 528.5974731445312 C 89.81124114990234 528.5974731445312 89.22724151611328 528.3111572265625 88.80923461914062 527.7694702148438 C 88.25501251220703 527.0516357421875 88.18150329589844 526.1851196289062 88.60764312744141 525.3922119140625 C 88.8057861328125 525.0225219726562 89.07901000976562 524.6536865234375 89.39750671386719 524.3260498046875 C 89.82974243164062 523.8863525390625 90.34642028808594 523.6549682617188 90.89363098144531 523.6549682617188 C 91.18465423583984 523.6549682617188 91.47740936279297 523.720703125 91.76378631591797 523.850341796875 C 92.57038116455078 524.213134765625 93.05476379394531 524.907958984375 93.05840301513672 525.7086181640625 L 93.05841064453125 525.7105102539062 L 93.05841064453125 525.7145385742188 C 93.05422973632812 527.027099609375 92.08212280273438 528.3533935546875 90.97810363769531 528.552734375 C 90.82027435302734 528.5822143554688 90.65774536132812 528.5974731445312 90.49808502197266 528.5974731445312 Z" stroke="none"/>
      <path d="M 90.89363098144531 524.1549682617188 C 90.48436737060547 524.1549682617188 90.09376525878906 524.3309936523438 89.75601196289062 524.674560546875 C 89.47133636474609 524.9674072265625 89.22624969482422 525.2964477539062 89.04806518554688 525.62890625 C 88.71492004394531 526.248779296875 88.77021026611328 526.9007568359375 89.20508575439453 527.4639892578125 C 89.52799224853516 527.8824462890625 89.96969604492188 528.0974731445312 90.49808502197266 528.0974731445312 C 90.62301635742188 528.0974731445312 90.75408935546875 528.0859375 90.88925933837891 528.0606689453125 C 91.75899505615234 527.9036254882812 92.55500030517578 526.7840576171875 92.55841064453125 525.7129516601562 L 92.55841064453125 525.7108764648438 C 92.55567932128906 525.1114501953125 92.18157196044922 524.5864868164062 91.55760192871094 524.3058471679688 C 91.33450317382812 524.204833984375 91.11139678955078 524.155029296875 90.89363098144531 524.1549682617188 M 90.89353179931641 523.1549682617188 C 90.89353942871094 523.1549682617188 90.89366149902344 523.1549682617188 90.89368438720703 523.1549682617188 C 91.25629425048828 523.155029296875 91.61840057373047 523.2357177734375 91.96995544433594 523.3948364257812 C 92.94441986083984 523.8330688476562 93.55390167236328 524.7191772460938 93.55840301513672 525.706298828125 C 93.55841064453125 525.7078247070312 93.55841064453125 525.71142578125 93.55841064453125 525.7129516601562 C 93.55343627929688 527.2764282226562 92.41392517089844 528.7997436523438 91.06956481933594 529.0442504882812 C 90.87958526611328 529.07958984375 90.68733978271484 529.0974731445312 90.49808502197266 529.0974731445312 C 89.66259002685547 529.0974731445312 88.92223358154297 528.7343139648438 88.41339111328125 528.0748901367188 C 87.73331451416016 527.194091796875 87.64352416992188 526.1299438476562 88.16721343994141 525.155517578125 C 88.38681030273438 524.7457885742188 88.68845367431641 524.338134765625 89.03898620605469 523.9775390625 C 89.040283203125 523.9761962890625 89.04158020019531 523.974853515625 89.04289245605469 523.9735107421875 C 89.56930541992188 523.4380493164062 90.20924377441406 523.1549682617188 90.89353179931641 523.1549682617188 Z" stroke="none" fill="#000"/>
    </g>
    <g id="Path_4553" data-name="Path 4553" transform="translate(-75.103 -482.791)" fill="#31c988" stroke-linejoin="round">
      <path d="M 113.5196304321289 501.1446838378906 C 113.1609725952148 501.1446838378906 112.6418914794922 501.0072631835938 112.2057952880859 500.3525390625 C 109.7995529174805 496.7275695800781 107.3634719848633 493.0476379394531 104.9648056030273 489.4142456054688 C 104.3787460327148 488.5282897949219 104.5498428344727 487.6414794921875 105.4227447509766 487.0423889160156 C 106.0904235839844 486.585205078125 106.6809005737305 486.1911010742188 107.2283401489258 485.8372802734375 C 107.4055557250977 485.7224426269531 107.7363815307617 485.5080261230469 108.2178421020508 485.5080261230469 C 108.2897033691406 485.5080261230469 108.3632431030273 485.5128479003906 108.43701171875 485.5223388671875 L 108.4425354003906 485.5223388671875 L 108.4829406738281 485.5287780761719 C 109.1638793945312 485.63916015625 109.5267715454102 486.1715393066406 109.6817321777344 486.3988647460938 C 111.3274688720703 488.8358459472656 112.9930114746094 491.3266296386719 114.557991027832 493.6691284179688 L 115.9149627685547 495.6971130371094 L 115.9463729858398 495.7438049316406 C 116.2401733398438 496.1806030273438 116.5439758300781 496.6322631835938 116.8398284912109 497.0810241699219 C 117.4231185913086 497.9656372070312 117.2419586181641 498.9641723632812 116.389030456543 499.5657348632812 C 115.7946548461914 499.9869995117188 115.1691055297852 500.4037475585938 114.4775848388672 500.839111328125 C 114.1526260375977 501.0421752929688 113.8308029174805 501.1446838378906 113.5196304321289 501.1446838378906 Z" stroke="none"/>
      <path d="M 113.5196304321289 500.6446838378906 C 113.7360534667969 500.6446838378906 113.9674835205078 500.5682678222656 114.2111892700195 500.4159851074219 C 114.8986511230469 499.9831848144531 115.5171585083008 499.5708312988281 116.1008529663086 499.1571350097656 C 116.726188659668 498.7160949707031 116.8531723022461 498.0095520019531 116.4223937988281 497.3562316894531 C 116.1172332763672 496.8933715820312 115.8079833984375 496.4339294433594 115.4994125366211 495.9751586914062 L 114.1422424316406 493.9468994140625 C 112.5222320556641 491.5220336914062 110.9015502929688 489.0985412597656 109.2685852050781 486.6804809570312 C 109.0624084472656 486.3780212402344 108.8159713745117 486.0892944335938 108.4029388427734 486.0223388671875 L 108.4022750854492 486.0223388671875 C 107.9715194702148 485.9568786621094 107.695686340332 486.1302490234375 107.499755859375 486.2572021484375 C 106.8955841064453 486.647705078125 106.2989196777344 487.0484313964844 105.7056732177734 487.4546508789062 C 105.0591659545898 487.8983459472656 104.9472045898438 488.4813842773438 105.3820724487305 489.1387939453125 C 107.7905731201172 492.7870483398438 110.2038650512695 496.4325866699219 112.6219253540039 500.0753479003906 C 112.8738250732422 500.4535217285156 113.1769332885742 500.6446838378906 113.5196304321289 500.6446838378906 M 113.5196304321289 501.6446838378906 C 113.1260299682617 501.6446838378906 112.3778915405273 501.5128173828125 111.7896499633789 500.6297302246094 C 109.3827438354492 497.0037536621094 106.9464340209961 493.3234558105469 104.5475311279297 489.6897277832031 C 103.8144836425781 488.5815734863281 104.0467758178711 487.3803100585938 105.1398086547852 486.6301574707031 C 105.8116302490234 486.1701354980469 106.4057235717773 485.7736206054688 106.9569244384766 485.4173583984375 C 107.161262512207 485.2849426269531 107.5885543823242 485.0080261230469 108.2178421020508 485.0080261230469 C 108.3223495483398 485.0080261230469 108.4291763305664 485.0158081054688 108.5356216430664 485.0311889648438 C 108.5447616577148 485.0324096679688 108.5538711547852 485.0337524414062 108.5629501342773 485.0352172851562 C 109.4560012817383 485.1799926757812 109.9201431274414 485.8609008789062 110.0948715209961 486.1172485351562 C 111.7424850463867 488.5569458007812 113.4084091186523 491.04833984375 114.9737548828125 493.3913879394531 L 116.3612518310547 495.4647216796875 C 116.6556854248047 495.9024658203125 116.9601440429688 496.3551330566406 117.2572708129883 496.8057861328125 C 117.9884948730469 497.9147644042969 117.7499694824219 499.2177429199219 116.6772003173828 499.9743347167969 C 116.0762710571289 500.4002685546875 115.4432830810547 500.8219909667969 114.7439651489258 501.2622375488281 C 114.3368988037109 501.5166015625 113.9259414672852 501.6446838378906 113.5196304321289 501.6446838378906 Z" stroke="none" fill="#000"/>
    </g>
    <g id="Path_4554" data-name="Path 4554" transform="translate(-64.281 -483.996)" fill="#efd5bb" stroke-linejoin="round">
      <path d="M 90.12387847900391 515.6693115234375 C 89.71955871582031 515.6693115234375 89.29231262207031 515.5286865234375 88.88832855224609 515.2625732421875 C 88.30419921875 514.879638671875 87.57614135742188 514.4022827148438 87.12599945068359 513.513916015625 C 86.87207794189453 513.015380859375 86.33495330810547 512.7023315429688 85.53001403808594 512.5844116210938 C 85.46794128417969 512.5758666992188 85.40145111083984 512.5674438476562 85.33277893066406 512.5587158203125 C 85.28471374511719 512.5526123046875 85.23563385009766 512.54638671875 85.18498229980469 512.5397338867188 L 84.83412933349609 512.49658203125 L 84.41448974609375 512.4448852539062 L 84.39571380615234 512.0225219726562 L 84.38615417480469 511.8074340820312 C 84.31818389892578 510.2737121582031 83.60758972167969 509.4546508789062 82.08212280273438 509.1517028808594 L 81.83019256591797 509.1020202636719 L 81.33189392089844 509.0037841796875 L 81.43794250488281 508.507080078125 L 81.49188232421875 508.2544555664062 C 81.69738006591797 507.2806701660156 81.61544799804688 506.6306457519531 81.21768188476562 506.0821533203125 C 80.75443267822266 505.4421997070312 80.15042877197266 505.1028747558594 79.31658935546875 505.0139465332031 L 79.05661010742188 504.9859313964844 L 78.54771423339844 504.9310607910156 L 78.61446380615234 504.423583984375 L 78.64859008789062 504.1641235351562 C 78.88233947753906 502.4052429199219 78.37482452392578 501.4470520019531 77.00307464599609 501.0565490722656 C 76.71952819824219 500.976806640625 76.4515380859375 500.9361877441406 76.20811462402344 500.9361877441406 C 75.52294921875 500.9361877441406 74.62126922607422 501.1981201171875 73.72274780273438 503.2407836914062 L 73.55791473388672 503.617431640625 L 73.23235321044922 504.361328125 L 72.71465301513672 503.7357177734375 L 70.63179016113281 501.2186889648438 L 70.38504028320312 500.9205017089844 L 70.61186981201172 500.6069030761719 L 70.72792816162109 500.4464416503906 L 78.71462249755859 489.5120849609375 L 78.95943450927734 489.1769104003906 L 79.33393859863281 489.3558654785156 L 83.34877777099609 491.274169921875 L 84.10333251953125 491.6346740722656 L 83.42861175537109 492.1287231445312 L 83.08454132080078 492.3806457519531 C 82.93173980712891 492.4918823242188 82.79328155517578 492.5889282226562 82.65937805175781 492.6827697753906 L 82.62699890136719 492.7054748535156 C 82.38021087646484 492.8761596679688 82.14960479736328 493.0356750488281 81.96694183349609 493.2035522460938 L 81.80342102050781 493.3540954589844 C 81.39920806884766 493.7209777832031 80.98396301269531 494.097900390625 80.68505096435547 494.510009765625 C 80.15451812744141 495.2416076660156 80.00533294677734 496.0104064941406 80.27577209472656 496.6192626953125 C 80.54569244384766 497.2282104492188 81.216064453125 497.6329650878906 82.11512756347656 497.7301025390625 C 82.38821411132812 497.7594299316406 82.65457153320312 497.7743225097656 82.90650177001953 497.7742919921875 C 84.26519775390625 497.7742614746094 85.33409118652344 497.3469543457031 86.17424774169922 496.4679260253906 L 86.17654418945312 496.4655151367188 L 86.17887115478516 496.463134765625 C 86.22829437255859 496.4128112792969 86.27737426757812 496.3709106445312 86.31680297851562 496.3372497558594 L 86.32363128662109 496.3314208984375 C 86.92970275878906 495.8092651367188 87.35540008544922 495.5255737304688 87.86386871337891 495.5255737304688 C 88.35427856445312 495.5255737304688 88.77896118164062 495.79833984375 89.34679412841797 496.26953125 L 98.66249084472656 503.9932250976562 C 98.78893280029297 504.098388671875 98.92702484130859 504.2032775878906 99.08527374267578 504.3143310546875 C 99.85645294189453 504.8585205078125 100.0820922851562 505.6454162597656 99.68990325927734 506.4199829101562 C 99.38133239746094 507.0281982421875 98.74809265136719 507.4210510253906 98.07657623291016 507.4210510253906 C 98.0765380859375 507.4210510253906 98.07659149169922 507.4210510253906 98.07655334472656 507.4210510253906 C 97.89185333251953 507.4210510253906 97.71221923828125 507.3904113769531 97.54264831542969 507.3299560546875 C 97.25047302246094 507.2254638671875 97.00778961181641 507.061767578125 96.80320739746094 506.91650390625 C 95.69683837890625 506.1388244628906 94.57185363769531 505.343994140625 93.48390960693359 504.5753173828125 L 93.37506103515625 504.4984130859375 L 92.32411956787109 503.7547302246094 C 92.23815155029297 503.6939086914062 92.17570495605469 503.6606750488281 92.13417816162109 503.6425476074219 C 92.125732421875 503.6609191894531 92.12261199951172 503.6744689941406 92.12379455566406 503.6819458007812 C 92.12802124023438 503.7104797363281 92.16423797607422 503.7766723632812 92.27648162841797 503.8581237792969 C 92.71974182128906 504.1784362792969 93.17551422119141 504.5019836425781 93.61627197265625 504.8148498535156 L 93.63078308105469 504.8251647949219 C 94.43704986572266 505.3992004394531 95.27017974853516 505.9923400878906 96.08102416992188 506.5975646972656 C 96.47299957275391 506.8906555175781 96.78566741943359 507.3340148925781 96.91774749755859 507.7838439941406 C 97.12583923339844 508.4963073730469 96.83197021484375 509.2449035644531 96.16930389404297 509.691650390625 C 95.85205841064453 509.9024353027344 95.51708984375 510.0083312988281 95.17089080810547 510.0083312988281 C 94.79174041748047 510.0083312988281 94.41788482666016 509.8813171386719 94.05970764160156 509.6308288574219 C 93.34214782714844 509.1325988769531 92.61515808105469 508.6200256347656 91.912109375 508.1243286132812 L 91.64694976806641 507.9373779296875 L 90.71803283691406 507.2809753417969 L 90.71498870849609 507.2788391113281 L 90.71198272705078 507.2766418457031 L 90.69808197021484 507.2665100097656 C 90.62660980224609 507.21435546875 90.55908966064453 507.1650695800781 90.4957275390625 507.1272583007812 C 90.43974304199219 507.0936279296875 90.37944030761719 507.0747985839844 90.32901000976562 507.0747985839844 C 90.31558227539062 507.0747985839844 90.30535125732422 507.076171875 90.29847717285156 507.0776672363281 C 90.28399658203125 507.107421875 90.27817535400391 507.1614990234375 90.39488220214844 507.2428894042969 C 91.437744140625 507.972412109375 92.56040954589844 508.7473449707031 93.92857360839844 509.6820983886719 C 94.65296936035156 510.1753540039062 94.94804382324219 510.8818969726562 94.75875091552734 511.671142578125 C 94.61469268798828 512.271484375 94.22110748291016 512.7398681640625 93.67892456054688 512.9562377929688 C 93.46987152099609 513.03955078125 93.24877166748047 513.081787109375 93.02153778076172 513.081787109375 C 92.64095306396484 513.081787109375 92.25717926025391 512.9622192382812 91.91171264648438 512.736083984375 C 91.26947784423828 512.3145141601562 90.657470703125 511.8983764648438 89.92406463623047 511.3981628417969 L 89.889892578125 511.3748474121094 C 89.54254913330078 511.137939453125 89.18338775634766 510.8929748535156 88.83009338378906 510.655029296875 L 88.7750244140625 510.6178588867188 L 88.75954437255859 510.6073913574219 C 88.60346984863281 510.5018615722656 88.46868133544922 510.4107055664062 88.33908081054688 510.3507690429688 C 88.31117248535156 510.3377380371094 88.29080200195312 510.3304138183594 88.27703094482422 510.3263244628906 C 88.26779937744141 510.3362426757812 88.25501251220703 510.3515014648438 88.23915100097656 510.3743286132812 C 88.22093963623047 510.4001770019531 88.22018432617188 510.4234619140625 88.2298583984375 510.430419921875 C 88.85593414306641 510.8798828125 89.48500823974609 511.3132019042969 90.07566070556641 511.7184448242188 L 90.91123962402344 512.2937622070312 C 91.92385101318359 512.9949340820312 92.17923736572266 513.9804077148438 91.57884979248047 514.8662109375 C 91.22604370117188 515.3843994140625 90.70953369140625 515.6693115234375 90.12387847900391 515.6693115234375 Z" stroke="none"/>
      <path d="M 90.12387847900391 515.1693115234375 C 90.53622436523438 515.1693115234375 90.90145111083984 514.9727172851562 91.16496276855469 514.585693359375 C 91.60733795166016 513.9329833984375 91.41142272949219 513.248291015625 90.62770080566406 512.70556640625 L 89.79277801513672 512.1307373046875 C 89.17085266113281 511.7040100097656 88.55029296875 511.2759704589844 87.93793487548828 510.8363342285156 C 87.70240783691406 510.6669616699219 87.65325164794922 510.3379211425781 87.82870483398438 510.0887756347656 C 88.02053833007812 509.81298828125 88.24034118652344 509.7528381347656 88.54893493652344 509.8969421386719 C 88.72028350830078 509.9761657714844 88.88208770751953 510.0867004394531 89.05480194091797 510.2034606933594 L 89.10941314697266 510.2403259277344 C 89.47533416748047 510.4867858886719 89.84056854248047 510.7359924316406 90.20580291748047 510.9850769042969 C 90.86254119873047 511.4330139160156 91.51997375488281 511.8808288574219 92.18557739257812 512.3177490234375 C 92.60474395751953 512.5921630859375 93.07920074462891 512.656982421875 93.49359130859375 512.4918823242188 C 93.88204193115234 512.3368530273438 94.16671752929688 511.9955139160156 94.27254486083984 511.5545349121094 C 94.41384124755859 510.9653625488281 94.20290374755859 510.4737854003906 93.64651489257812 510.0949401855469 C 92.46342468261719 509.2866516113281 91.28375244140625 508.4748840332031 90.10886383056641 507.6529846191406 C 89.78391265869141 507.4263610839844 89.69651794433594 507.0782165527344 89.89040374755859 506.7866516113281 C 90.051513671875 506.5422973632812 90.43040466308594 506.5047607421875 90.751953125 506.6979064941406 C 90.84001159667969 506.7504577636719 90.92330169677734 506.8119201660156 91.00658416748047 506.8726501464844 L 91.93502807617188 507.5287170410156 C 92.73786163330078 508.0946350097656 93.54002380371094 508.6612854003906 94.34626007080078 509.2210998535156 C 94.86850738525391 509.58642578125 95.40168762207031 509.6014099121094 95.88980102539062 509.2770690917969 C 96.37587738037109 508.9493713378906 96.58614349365234 508.4319152832031 96.43800354003906 507.9247131347656 C 96.33695983886719 507.5805969238281 96.08504486083984 507.2248840332031 95.78194427490234 506.9982604980469 C 94.97705841064453 506.3974914550781 94.15921020507812 505.8151550292969 93.34136199951172 505.2328796386719 C 92.88737487792969 504.9106140136719 92.43338775634766 504.5884094238281 91.98281860351562 504.2627868652344 C 91.77869415283203 504.1146545410156 91.656494140625 503.9405822753906 91.62986755371094 503.7596740722656 C 91.60462188720703 503.5992126464844 91.65444946289062 503.4360046386719 91.77597045898438 503.2749328613281 C 91.94526672363281 503.046875 92.22788238525391 503.07421875 92.61293792724609 503.3465881347656 L 93.66358184814453 504.0900573730469 C 94.80570983886719 504.8970031738281 95.94852447509766 505.7045593261719 97.09268188476562 506.5088195800781 C 97.26950073242188 506.6343688964844 97.47772216796875 506.7757263183594 97.71051025390625 506.8589782714844 C 98.27168273925781 507.0590209960938 98.95709228515625 506.75927734375 99.24382019042969 506.1941223144531 C 99.40492248535156 505.8759460449219 99.56126403808594 505.2621765136719 98.79803466796875 504.7236022949219 C 98.64237213134766 504.6143493652344 98.48946380615234 504.4996643066406 98.34336090087891 504.3781433105469 L 89.02750396728516 496.654296875 C 88.00074005126953 495.8022766113281 87.69353485107422 495.8111572265625 86.64835357666016 496.7116394042969 C 86.61080169677734 496.7437133789062 86.57189178466797 496.7765197753906 86.53569793701172 496.8133850097656 C 85.42977142333984 497.9704895019531 83.96817016601562 498.4321594238281 82.06142425537109 498.2272033691406 C 80.98072814941406 498.1104431152344 80.16287994384766 497.5984191894531 79.81882476806641 496.8222351074219 C 79.47405242919922 496.0460510253906 79.64268493652344 495.0957336425781 80.28030395507812 494.2164611816406 C 80.60662078857422 493.7665405273438 81.04285430908203 493.3692016601562 81.46475219726562 492.9862670898438 L 81.62859344482422 492.8354187011719 C 81.83135986328125 492.6490478515625 82.06755828857422 492.4844665527344 82.33995056152344 492.2960815429688 C 82.47921752929688 492.1984252929688 82.62872314453125 492.093994140625 82.78915405273438 491.9772338867188 L 83.13322448730469 491.7253112792969 L 79.11837768554688 489.8070068359375 L 71.01699829101562 500.8999328613281 L 73.09986114501953 503.4169616699219 L 73.26506805419922 503.0394592285156 C 74.22901916503906 500.8480224609375 75.42577362060547 500.0935668945312 77.13996887207031 500.5756530761719 C 78.75382995605469 501.0350646972656 79.40988159179688 502.2311096191406 79.14431762695312 504.2293395996094 L 79.11019134521484 504.4888000488281 L 79.36961364746094 504.5167541503906 C 80.34243011474609 504.6205139160156 81.07835388183594 505.0369567871094 81.62245178222656 505.7886047363281 C 82.10511016845703 506.4541931152344 82.2156982421875 507.2460632324219 81.98085784912109 508.3588562011719 L 81.92691802978516 508.6114807128906 L 82.17951965332031 508.6612854003906 C 83.92240142822266 509.0074157714844 84.80783843994141 510.0293884277344 84.88565826416016 511.7852478027344 L 84.89521789550781 512.0003051757812 L 85.25021362304688 512.0440063476562 C 85.37445831298828 512.0603637695312 85.48917388916016 512.0740356445312 85.60247802734375 512.0897216796875 C 86.57666778564453 512.232421875 87.23954772949219 512.6351928710938 87.57201385498047 513.2879028320312 C 87.96183013916016 514.0572509765625 88.60012817382812 514.4757690429688 89.16335296630859 514.8450317382812 C 89.49308013916016 515.0621948242188 89.82077026367188 515.1693115234375 90.12387847900391 515.1693115234375 M 90.12387847900391 516.1693115234375 C 89.62151336669922 516.1693115234375 89.09915924072266 516.0001831054688 88.61331176757812 515.68017578125 C 88.01383209228516 515.287109375 87.1904296875 514.747314453125 86.67997741699219 513.7398681640625 C 86.61521911621094 513.6127319335938 86.41539001464844 513.220458984375 85.46154022216797 513.0797729492188 C 85.39864349365234 513.071044921875 85.33527374267578 513.0630493164062 85.26984405517578 513.0547485351562 C 85.22256469726562 513.0487670898438 85.17431640625 513.0426025390625 85.12460327148438 513.0360717773438 L 84.77304077148438 512.9927978515625 C 84.28852081298828 512.9331665039062 83.91789245605469 512.5324096679688 83.89620971679688 512.0447387695312 L 83.88665008544922 511.8296508789062 C 83.82917022705078 510.53271484375 83.27815246582031 509.8989868164062 81.98473358154297 509.6421203613281 L 81.73345947265625 509.5925903320312 C 81.47058868408203 509.5407409667969 81.23950958251953 509.3855895996094 81.09203338623047 509.1618957519531 C 80.94456481933594 508.9382019042969 80.89302062988281 508.6647033691406 80.94895935058594 508.4026489257812 L 81.00289916992188 508.1500244140625 C 81.22068786621094 507.1180419921875 81.02911376953125 506.6737976074219 80.81291198730469 506.3756713867188 C 80.43337249755859 505.8513488769531 79.9556884765625 505.5849304199219 79.26355743408203 505.5111083984375 L 79.00302886962891 505.4830322265625 C 78.73529815673828 505.4541931152344 78.49053192138672 505.3185729980469 78.32408905029297 505.1069030761719 C 78.15765380859375 504.8952331542969 78.08361053466797 504.6253662109375 78.11872863769531 504.3583679199219 L 78.15286254882812 504.0989074707031 C 78.39993286132812 502.2398376464844 77.68045043945312 501.7692260742188 76.86618041992188 501.5374450683594 C 76.62825012207031 501.4705505371094 76.40579223632812 501.4361877441406 76.20811462402344 501.4361877441406 C 75.67485809326172 501.4361877441406 74.96249389648438 501.6641845703125 74.18042755126953 503.4421081542969 L 74.01596832275391 503.8179016113281 C 73.87677764892578 504.1359252929688 73.58258819580078 504.3590393066406 73.23879241943359 504.4072570800781 C 72.89499664306641 504.4557495117188 72.55076599121094 504.3219604492188 72.32944488525391 504.0545043945312 L 70.24658203125 501.5374450683594 C 69.95600891113281 501.1863403320312 69.93962860107422 500.6831665039062 70.20673370361328 500.3138732910156 L 70.32279205322266 500.1534118652344 L 78.31085968017578 489.2171936035156 C 78.59474182128906 488.8284912109375 79.11521148681641 488.697265625 79.54949951171875 488.9047241210938 L 83.56433868408203 490.822998046875 C 83.88178253173828 490.9747009277344 84.09616088867188 491.2820129394531 84.12889099121094 491.6322937011719 C 84.16161346435547 491.9825744628906 84.00785064697266 492.3243103027344 83.72399139404297 492.5321350097656 L 83.37992095947266 492.7840881347656 C 83.22237396240234 492.8987426757812 83.07574462890625 493.0015258789062 82.94637298583984 493.0922241210938 L 82.91405487060547 493.1148681640625 C 82.91229248046875 493.1160888671875 82.91053771972656 493.1173095703125 82.90878295898438 493.1185302734375 C 82.67926025390625 493.2772827148438 82.46247100830078 493.4272155761719 82.3052978515625 493.5716552734375 L 82.14208984375 493.7219543457031 C 82.14034271240234 493.7235412597656 82.13858795166016 493.7251586914062 82.13683319091797 493.7267456054688 C 81.75408935546875 494.0741271972656 81.35832977294922 494.433349609375 81.08979797363281 494.8035888671875 C 80.66677093505859 495.3869323730469 80.53659820556641 495.9747619628906 80.73271942138672 496.4162902832031 C 80.92855834960938 496.8581237792969 81.45188903808594 497.155517578125 82.16883850097656 497.2330017089844 C 82.42398071289062 497.2603759765625 82.67237091064453 497.2743225097656 82.90647888183594 497.2742919921875 C 84.13822937011719 497.2742614746094 85.06172180175781 496.9082641601562 85.81278991699219 496.1224365234375 C 85.81586456298828 496.1192321777344 85.81893920898438 496.1160583496094 85.82204437255859 496.1128845214844 C 85.88693237304688 496.0467834472656 85.94779205322266 495.9948425292969 85.99223327636719 495.9569091796875 L 85.99890899658203 495.9512329101562 C 86.56356811523438 495.4647521972656 87.13381195068359 495.0255737304688 87.86386871337891 495.0255737304688 C 88.57144165039062 495.0255737304688 89.14215087890625 495.4500122070312 89.66606140136719 495.8847351074219 L 98.98162078857422 503.6083068847656 C 99.09808349609375 503.7052001953125 99.22554016113281 503.8019409179688 99.37251281738281 503.9050903320312 C 100.541618347168 504.7300720214844 100.533088684082 505.8615417480469 100.1359786987305 506.6458435058594 C 99.74284362792969 507.4207763671875 98.93460845947266 507.9210510253906 98.07656097412109 507.9210510253906 C 97.85859680175781 507.9210205078125 97.64551544189453 507.8882751464844 97.44206237792969 507.8236083984375 C 97.61765289306641 508.6928100585938 97.24051666259766 509.5724792480469 96.44879913330078 510.1062316894531 C 96.44692230224609 510.1075134277344 96.44505310058594 510.1087646484375 96.44316101074219 510.1100158691406 C 96.05354309082031 510.3688354492188 95.63496398925781 510.5027465820312 95.19857788085938 510.5081787109375 C 95.33411407470703 510.9051513671875 95.35260009765625 511.3389587402344 95.24497222900391 511.7877502441406 C 95.0625 512.5481567382812 94.55925750732422 513.1432495117188 93.8642578125 513.420654296875 C 93.59583282470703 513.5276489257812 93.31243896484375 513.581787109375 93.02153778076172 513.581787109375 C 92.80001831054688 513.581787109375 92.57838439941406 513.550048828125 92.36185455322266 513.4882202148438 C 92.47490692138672 514.0352783203125 92.35697174072266 514.6093139648438 91.99275207519531 515.146728515625 C 91.54335784912109 515.8067626953125 90.88007354736328 516.1693115234375 90.12387847900391 516.1693115234375 Z" stroke="none" fill="#000"/>
    </g>
    <g id="Path_4555" data-name="Path 4555" transform="translate(-68.804 -484.878)" fill="#e2c0a1" stroke-linejoin="round">
      <path d="M 103.8148193359375 505.0074157714844 L 103.2885665893555 504.5694274902344 L 98.20463562011719 500.3381652832031 L 97.68948364257812 499.9091186523438 C 96.34247589111328 498.7872619628906 94.94960784912109 497.6272277832031 93.58496856689453 496.4793395996094 C 93.27405548095703 496.2164611816406 92.96872711181641 496.0890502929688 92.65056610107422 496.0890502929688 C 92.42228698730469 496.0890502929688 92.17921447753906 496.1569213867188 91.92811584472656 496.2908020019531 C 91.33819580078125 496.6037292480469 90.80453491210938 497.0356750488281 90.40542602539062 497.3771057128906 C 89.53125762939453 498.1193542480469 88.52901458740234 498.4951171875 87.42515563964844 498.4951171875 C 87.09525299072266 498.4951171875 86.75290679931641 498.4607849121094 86.40761566162109 498.3930358886719 C 85.41580963134766 498.2048034667969 85.02469635009766 497.696044921875 84.87177276611328 497.302490234375 C 84.71796417236328 496.9088745117188 84.66136932373047 496.2669067382812 85.26711273193359 495.4489440917969 C 86.09348297119141 494.3346862792969 87.26396942138672 493.4887084960938 88.95089721679688 492.7862854003906 C 89.73328399658203 492.4607849121094 90.78129577636719 492.0872192382812 91.95166778564453 492.0872192382812 C 92.28925323486328 492.0872192382812 92.62345886230469 492.1189880371094 92.94499969482422 492.181640625 C 93.39414978027344 492.2686157226562 93.81372833251953 492.4135437011719 94.21950531005859 492.5536804199219 L 94.25227355957031 492.5650024414062 C 94.44437408447266 492.6320190429688 94.63074493408203 492.6965026855469 94.81543731689453 492.754638671875 C 96.04637908935547 493.1380004882812 97.05141448974609 493.3167419433594 97.97686767578125 493.3167114257812 C 98.24765014648438 493.3167114257812 98.51934814453125 493.3009033203125 98.78448486328125 493.269775390625 C 98.82579803466797 493.2645874023438 98.86858367919922 493.261962890625 98.91172790527344 493.261962890625 C 99.32766723632812 493.261962890625 99.79277801513672 493.5052490234375 100.0176467895508 493.8404235839844 L 100.5450744628906 494.6206359863281 C 101.8086700439453 496.484619140625 103.2412643432617 498.5979309082031 104.5432434082031 500.6725769042969 C 104.8998260498047 501.240966796875 104.8016891479492 501.9625244140625 104.7228393554688 502.5423278808594 L 104.7000274658203 502.7137145996094 C 104.6529769897461 503.0815124511719 104.5056686401367 503.3935852050781 104.3632049560547 503.6954040527344 L 104.3609466552734 503.7001953125 C 104.309684753418 503.8082885742188 104.2520141601562 503.929931640625 104.2018585205078 504.0517883300781 L 104.0718460083008 504.3728332519531 L 103.8148193359375 505.0074157714844 Z" stroke="none"/>
      <path d="M 91.95166778564453 492.5872192382812 C 90.89059448242188 492.5872192382812 89.91700744628906 492.9259033203125 89.14308929443359 493.2478942871094 C 87.54288482666016 493.9141845703125 86.43898773193359 494.7081909179688 85.66893005371094 495.7465209960938 C 85.19923400878906 496.3807373046875 85.22927856445312 496.8435974121094 85.33782958984375 497.1213989257812 C 85.44500732421875 497.397216796875 85.73445892333984 497.75634765625 86.50384521484375 497.9024047851562 C 87.86506652832031 498.1694030761719 89.06730651855469 497.8573303222656 90.08040618896484 496.9971618652344 C 90.50093841552734 496.6374206542969 91.06483459472656 496.1827392578125 91.69289398193359 495.8495788574219 C 92.47525024414062 495.4324340820312 93.22141265869141 495.5171508789062 93.90682983398438 496.0967102050781 C 95.44150543212891 497.3876342773438 96.98367309570312 498.67041015625 98.52448272705078 499.953857421875 L 103.6084136962891 504.1851196289062 L 103.7394866943359 503.8615112304688 C 103.7934188842773 503.73046875 103.8521270751953 503.6062622070312 103.9087829589844 503.4867553710938 C 104.0412292480469 503.2061767578125 104.1668472290039 502.9412841796875 104.2043838500977 502.6477661132812 L 104.2269287109375 502.4783935546875 C 104.2985992431641 501.951416015625 104.3805236816406 501.3540649414062 104.1197357177734 500.9383544921875 C 102.8369827270508 498.8943481445312 101.4613800048828 496.8634033203125 100.1308441162109 494.9006652832031 L 99.60243988037109 494.1189880371094 C 99.45635986328125 493.9012451171875 99.09989929199219 493.7332153320312 98.84535980224609 493.7660522460938 C 97.61105346679688 493.9115295410156 96.32010650634766 493.7469482421875 94.665283203125 493.2315673828125 C 94.47209930419922 493.1707458496094 94.28094482421875 493.1045532226562 94.08910369873047 493.0376281738281 C 93.68974304199219 492.8997497558594 93.27603912353516 492.7550354003906 92.849365234375 492.6724243164062 C 92.54512023925781 492.6131286621094 92.24495697021484 492.5872192382812 91.95166778564453 492.5872192382812 M 91.95166778564453 491.5872192382812 C 92.32131958007812 491.5872192382812 92.68769836425781 491.6221008300781 93.04063415527344 491.6908874511719 C 93.52386474609375 491.7844543457031 93.98006439208984 491.9420166015625 94.382568359375 492.0810241699219 L 94.41545867919922 492.0923767089844 C 94.60525512695312 492.1585693359375 94.78764343261719 492.2217102050781 94.965576171875 492.2777099609375 C 96.14543914794922 492.6451416015625 97.10324859619141 492.8167114257812 97.97688293457031 492.8167114257812 C 98.22768402099609 492.8167114257812 98.47923278808594 492.8021240234375 98.72465515136719 492.7733459472656 C 98.78582000732422 492.7657775878906 98.84872436523438 492.761962890625 98.91173553466797 492.761962890625 C 99.49144744873047 492.7619934082031 100.1169281005859 493.0909423828125 100.4328689575195 493.5618591308594 L 100.9593200683594 494.3406372070312 C 102.224853515625 496.2074890136719 103.6600875854492 498.3246765136719 104.9667587280273 500.4067993164062 C 105.4196853637695 501.1287841796875 105.3032760620117 501.9847412109375 105.2182693481445 502.6097412109375 L 105.1960067749023 502.7769775390625 C 105.1383056640625 503.2246704101562 104.9667510986328 503.588134765625 104.8153686523438 503.9088439941406 L 104.813102722168 503.9136352539062 C 104.7620162963867 504.0213623046875 104.7099533081055 504.1311645507812 104.6649475097656 504.2403564453125 L 104.5352783203125 504.5605163574219 C 104.4154357910156 504.8564147949219 104.161506652832 505.0773010253906 103.8518676757812 505.155029296875 C 103.5422439575195 505.2327270507812 103.2140960693359 505.157958984375 102.9687042236328 504.9537353515625 L 97.3695068359375 500.2933349609375 C 96.02203369140625 499.1710815429688 94.62868499755859 498.0106506347656 93.26311492919922 496.8619689941406 C 93.04526519775391 496.6777648925781 92.84554290771484 496.5890502929688 92.65057373046875 496.5890502929688 C 92.50519561767578 496.5890502929688 92.34126281738281 496.6371459960938 92.16334533691406 496.7320251464844 C 91.61573028564453 497.0224914550781 91.11003875732422 497.4323425292969 90.73045349121094 497.7570495605469 C 89.76198577880859 498.5793762207031 88.65086364746094 498.9951171875 87.42515563964844 498.9951171875 C 87.06396484375 498.9951171875 86.69021606445312 498.9578247070312 86.31427001953125 498.88427734375 C 85.03235626220703 498.639892578125 84.56829833984375 497.9019470214844 84.40572357177734 497.4836120605469 C 84.24263763427734 497.0662536621094 84.08448791503906 496.2057189941406 84.86530303955078 495.1513671875 C 85.74791717529297 493.9613037109375 86.98493957519531 493.0632934570312 88.75869750976562 492.32470703125 C 89.58415985107422 491.9812927246094 90.69278717041016 491.5872192382812 91.95166778564453 491.5872192382812 Z" stroke="none" fill="#000"/>
    </g>
    <path id="Path_4556" data-name="Path 4556" d="M96.1,484.463a2.267,2.267,0,0,0-3.271-.674c-.564.359-1.12.736-1.674,1.113l-.2.135a2.273,2.273,0,0,0-.669,3.236c.056.089.11.181.185.309l.431.726-.541-.089c-.353-.059-.692-.1-1.021-.135a9.476,9.476,0,0,1-1.857-.341c-.21-.068-.545-.214-.9-.367-.381-.165-.774-.336-.985-.4a6.684,6.684,0,0,0-4.136.368.854.854,0,0,1-.659-.05c-1.036-.568-2.064-1.145-3.114-1.733l-.915-.512.029-.177c.012-.061.025-.132.042-.211a4.114,4.114,0,0,0,.092-.631,1.786,1.786,0,0,0-.741-1.562l-.083-.063c-.753-.58-1.532-1.179-2.318-1.737a1.943,1.943,0,0,0-2.746.461q-4.715,6.445-9.418,12.9a1.9,1.9,0,0,0,.427,2.888q1.009.76,2.023,1.513a2.068,2.068,0,0,0,2.779.057l.165-.111,2.318,2.1-.267.378a18.96,18.96,0,0,0-1.623,2.562,2.336,2.336,0,0,0,.061,1.943,2.969,2.969,0,0,0,3.43,1.7l.221-.034.063.215a2.965,2.965,0,0,0,3.586,2.339l.214-.027.061.206a2.914,2.914,0,0,0,3.55,2.321l.2-.027.071.191c.595,1.6,1.3,2.242,2.617,2.349,1.85.155,2.684-1.094,3.31-2.462l.123-.269.248.162a2.81,2.81,0,0,0,2.747.292,2.592,2.592,0,0,0,1.492-2.033l.026-.2.2-.022c1.9-.209,2.605-.994,2.716-3l.011-.183.177-.048a2.434,2.434,0,0,0,1.991-2.231l.022-.2.206-.021a2.971,2.971,0,0,0,2.376-1.175,3.032,3.032,0,0,0-.056-2.7.711.711,0,0,1,.016-.542c.145-.313.3-.622.47-.943l.318-.622.246.214c1.032.9,2.093.881,3.343-.06.266-.2.546-.381.827-.561.13-.085.261-.168.39-.255a2.313,2.313,0,0,0,.7-3.641Zm-29.725,13.8c-.272.373-.471.55-.715.55a1.387,1.387,0,0,1-.718-.323l-.855-.587q-.614-.421-1.227-.846a.99.99,0,0,1-.492-.6.976.976,0,0,1,.266-.72q4.659-6.384,9.326-12.763a2.148,2.148,0,0,1,.365-.358c.053-.044.105-.087.156-.134l.139-.126.335.192a2.307,2.307,0,0,1,.285.174c.278.206.553.414.829.622.439.33.878.662,1.322.984a.961.961,0,0,1,.431.6.936.936,0,0,1-.225.7q-3.19,4.359-6.367,8.728Zm5.143,7.936a2.389,2.389,0,0,1-1.006.714,1.622,1.622,0,0,1-.453.067,1.568,1.568,0,0,1-1.377-.92,1.627,1.627,0,0,1,.042-1.752c1.229-1.792,2.271-3.273,3.282-4.663a1.56,1.56,0,0,1,1.036-.627,1.71,1.71,0,0,1,1.3.323,1.674,1.674,0,0,1,.384,2.311c-.407.611-.833,1.21-1.258,1.809-.2.279-.4.558-.593.838-.133.189-.261.382-.39.574A14.726,14.726,0,0,1,71.519,506.2Zm3.826,2.556a1.717,1.717,0,0,1-1.4.72,1.624,1.624,0,0,1-.853-.238,1.727,1.727,0,0,1-.8-1.065,1.551,1.551,0,0,1,.222-1.2c.733-1.165,1.524-2.3,2.269-3.347a1.653,1.653,0,0,1,1.908-.5,1.809,1.809,0,0,1,1.134,1.633l0,.061-.023.055c-.033.078-.061.159-.088.241a2.488,2.488,0,0,1-.262.578C76.833,506.624,76.163,507.6,75.344,508.758Zm3.674,2.763a1.8,1.8,0,0,1-1.07.557,1.353,1.353,0,0,1-.2.015,1.607,1.607,0,0,1-1.361-.9,1.641,1.641,0,0,1,.017-1.79,19.461,19.461,0,0,1,1.125-1.6,1.7,1.7,0,0,1,2.23-.346,1.719,1.719,0,0,1,.583,2.19A12.756,12.756,0,0,1,79.018,511.521Zm4.756.591A2.463,2.463,0,0,1,82.1,514.46a2.13,2.13,0,0,1-.391.037,1.57,1.57,0,0,1-1.293-.633,1.613,1.613,0,0,1-.157-1.835,4.332,4.332,0,0,1,.708-.954,1.52,1.52,0,0,1,1.8-.369,1.563,1.563,0,0,1,1,1.4Zm12.339-8.62a1.3,1.3,0,0,1-1.533.665,2.618,2.618,0,0,1-.618-.35q-1.716-1.206-3.429-2.419l-1.051-.743c-.385-.272-.668-.3-.837-.072a.633.633,0,0,0-.146.485.792.792,0,0,0,.353.5q.676.488,1.359.97c.818.582,1.636,1.165,2.441,1.765a1.888,1.888,0,0,1,.656.926,1.205,1.205,0,0,1-.548,1.352,1.284,1.284,0,0,1-1.544-.056c-.806-.56-1.608-1.126-2.411-1.692l-.928-.656c-.083-.061-.167-.122-.255-.175a.634.634,0,0,0-.862.089.609.609,0,0,0,.218.866q1.762,1.233,3.538,2.442a1.3,1.3,0,0,1,.626,1.46,1.312,1.312,0,0,1-.779.937,1.414,1.414,0,0,1-1.308-.174c-.666-.437-1.323-.885-1.98-1.333q-.548-.374-1.1-.745l-.055-.037a3.725,3.725,0,0,0-.506-.307.507.507,0,0,0-.72.192.533.533,0,0,0,.109.748c.612.44,1.233.868,1.855,1.294L87.5,510c.784.543.98,1.227.537,1.88a1.233,1.233,0,0,1-1.041.584,1.766,1.766,0,0,1-.961-.324,4.123,4.123,0,0,1-1.591-1.557,2.43,2.43,0,0,0-1.97-1.2c-.113-.016-.228-.029-.352-.046l-.355-.044-.01-.215a3.019,3.019,0,0,0-2.706-3.124l-.253-.05.054-.253a2.923,2.923,0,0,0-2.611-3.842l-.259-.028.034-.259c.266-2-.39-3.194-2-3.654-1.714-.482-2.911.272-3.875,2.464l-.165.378L67.886,498.2l.116-.16,7.985-10.932L80,489.024l-.344.252c-.16.117-.31.221-.449.319a6.562,6.562,0,0,0-.711.539l-.164.151a8.454,8.454,0,0,0-1.184,1.23,2.367,2.367,0,0,0,1.781,4.011,5.041,5.041,0,0,0,4.474-1.414c.036-.037.075-.07.113-.1,1.045-.9,1.352-.909,2.379-.057l9.316,7.724c.146.122.3.236.455.345A1.076,1.076,0,0,1,96.113,503.493Zm.46-4.6-.023.169a2.829,2.829,0,0,1-.3.839c-.057.119-.115.244-.169.375l-.131.324-5.084-4.231q-2.311-1.925-4.618-3.857a1.84,1.84,0,0,0-2.214-.247,9.19,9.19,0,0,0-1.612,1.148,4.071,4.071,0,0,1-3.577.905,1.232,1.232,0,0,1-.835-2.156,7.859,7.859,0,0,1,3.474-2.5,6.448,6.448,0,0,1,3.706-.575,9.175,9.175,0,0,1,1.24.365c.192.067.383.133.576.194a9.867,9.867,0,0,0,4.18.535.9.9,0,0,1,.757.353l.528.782c1.331,1.963,2.706,3.994,3.989,6.038A2.4,2.4,0,0,1,96.573,498.9Zm5.575-1.234c-.584.414-1.2.826-1.89,1.259a1.319,1.319,0,0,1-.692.229,1.086,1.086,0,0,1-.9-.569q-3.627-5.464-7.24-10.937a1.1,1.1,0,0,1,.324-1.684q.89-.609,1.794-1.2a1.2,1.2,0,0,1,.9-.235h0a1.319,1.319,0,0,1,.866.658q2.449,3.627,4.874,7.266l1.357,2.028c.309.459.618.918.923,1.381A1.238,1.238,0,0,1,102.148,497.662Z" transform="translate(-61.15 -481.295)"/>
  </g>
</svg>
