<svg xmlns="http://www.w3.org/2000/svg" xmlns:xlink="http://www.w3.org/1999/xlink" width="134.412" height="80.585" viewBox="0 0 134.412 80.585">
  <defs>
    <radialGradient id="radial-gradient" cx="29.374" cy="6.051" r="0.895" gradientUnits="objectBoundingBox">
      <stop offset="0" stop-color="#ffdb8b"/>
      <stop offset="1" stop-color="#ffc340"/>
    </radialGradient>
    <radialGradient id="radial-gradient-2" cx="0.5" cy="0.5" r="0.902" xlink:href="#radial-gradient"/>
    <radialGradient id="radial-gradient-3" cx="0.546" cy="0.152" r="0.863" xlink:href="#radial-gradient"/>
    <radialGradient id="radial-gradient-4" cx="34.057" cy="24.934" r="1.87" xlink:href="#radial-gradient"/>
    <radialGradient id="radial-gradient-5" cx="-35.339" cy="-13.829" r="0.56" xlink:href="#radial-gradient"/>
    <radialGradient id="radial-gradient-6" cx="-145.731" cy="-25.538" r="0.732" xlink:href="#radial-gradient"/>
    <radialGradient id="radial-gradient-7" cx="23.179" cy="24.666" r="0.545" xlink:href="#radial-gradient"/>
    <radialGradient id="radial-gradient-8" cx="0.5" cy="0.5" r="0.384" xlink:href="#radial-gradient"/>
    <radialGradient id="radial-gradient-9" cx="0.681" cy="0.457" r="0.229" xlink:href="#radial-gradient"/>
    <radialGradient id="radial-gradient-10" cx="20.761" cy="56.785" r="1.193" xlink:href="#radial-gradient"/>
    <radialGradient id="radial-gradient-11" cx="34.997" cy="24.571" r="0.527" xlink:href="#radial-gradient"/>
    <radialGradient id="radial-gradient-12" cx="62.016" cy="38.363" r="0.749" xlink:href="#radial-gradient"/>
    <radialGradient id="radial-gradient-13" cx="-69.728" cy="-77.213" r="2.953" xlink:href="#radial-gradient"/>
    <radialGradient id="radial-gradient-14" cx="-39.04" cy="-12.885" r="0.875" xlink:href="#radial-gradient"/>
    <radialGradient id="radial-gradient-15" cx="-25.71" cy="180.776" r="3.262" xlink:href="#radial-gradient"/>
    <radialGradient id="radial-gradient-16" cx="-47.231" cy="780.973" r="16.19" xlink:href="#radial-gradient"/>
    <radialGradient id="radial-gradient-17" cx="-138.397" cy="-72.856" r="2.871" xlink:href="#radial-gradient"/>
  </defs>
  <g id="Group_50090" data-name="Group 50090" transform="translate(-122.287 -161.341)">
    <g id="Group_50078" data-name="Group 50078" transform="translate(122.287 207.219)">
      <g id="Group_50077" data-name="Group 50077" transform="translate(0)">
        <g id="Group_50076" data-name="Group 50076">
          <path id="Path_34433" data-name="Path 34433" d="M669.325,341.144a.822.822,0,0,1-.266.675,28.064,28.064,0,0,1-5.639,4.418,28.846,28.846,0,0,1-18.434,3.769,29.42,29.42,0,0,1-4.285-.924c-.267-.076-.529-.162-.788-.25-.9-.3-1.756-.652-2.51-.88h0l-1.224-.445-1.144-.416-.622-.226a.818.818,0,0,1-.27-.155.8.8,0,0,1-.248-.831,26.739,26.739,0,0,0,.734-5.655,36.558,36.558,0,0,0-1.246-10.267l-3.538-1.8a33.563,33.563,0,0,1,1.919,12.581,22.359,22.359,0,0,1-.9,5.5,10.12,10.12,0,0,1-.364,1.177,1,1,0,0,0,.091,1.073l9.391,3.418a10.865,10.865,0,0,1,1.569.366,32.069,32.069,0,0,0,7.433.844,31.244,31.244,0,0,0,13.511-3.157,30.261,30.261,0,0,0,8.6-6.178c.843-.87,1.113-.988,1.162-1.346l-2.988-1.888C669.283,340.738,669.311,340.94,669.325,341.144Z" transform="translate(-629.845 -328.152)" fill="#d67c00"/>
          <path id="Path_34434" data-name="Path 34434" d="M649.747,352.414a28.885,28.885,0,0,0,18.432-3.775,28.087,28.087,0,0,0,5.639-4.418.825.825,0,0,0,.268-.668c-.014-.2-.042-.406-.061-.609l-6.26-3.955-7.745.56c.2,1.414.4,2.829.6,4.243a.857.857,0,0,1-.234.889.736.736,0,0,1-.8.081h0l-.543-.313-1.546-.889-2.353-1.361a.352.352,0,0,0-.1-.037.381.381,0,0,0-.3.059c-1.507.77-3.088,1.386-4.575,2.2a.749.749,0,0,1-.219.059.759.759,0,0,1-.613-.2.651.651,0,0,1-.208-.683c.332-1.612.659-3.232,1.02-4.846a.586.586,0,0,0-.183-.617q-1.616-1.66-3.217-3.337a.865.865,0,0,1-.33-.856.817.817,0,0,1,.055-.124L643.311,335l-5.164-2.634a36.591,36.591,0,0,1,1.245,10.266,26.766,26.766,0,0,1-.734,5.655.8.8,0,0,0,.51.982l.627.228,1.143.416,1.224.445h0c.752.229,1.6.578,2.506.881.26.087.516.17.786.247A29.388,29.388,0,0,0,649.747,352.414Z" transform="translate(-634.609 -330.568)" fill="url(#radial-gradient)"/>
          <path id="Path_34435" data-name="Path 34435" d="M639.921,371.669a.814.814,0,0,0,.269.155l.622.226-.626-.228A.791.791,0,0,1,639.921,371.669Z" transform="translate(-635.627 -353.122)" fill="#d67c00"/>
          <path id="Path_34436" data-name="Path 34436" d="M639.921,371.669a.814.814,0,0,0,.269.155l.622.226-.626-.228A.791.791,0,0,1,639.921,371.669Z" transform="translate(-635.627 -353.122)" fill="url(#radial-gradient-2)"/>
          <path id="Path_34437" data-name="Path 34437" d="M644.7,373.54l1.224.445h0C645.485,373.826,645.084,373.681,644.7,373.54Z" transform="translate(-638.366 -354.195)" fill="#d67c00"/>
          <path id="Path_34438" data-name="Path 34438" d="M644.7,373.54l1.224.445h0C645.485,373.826,645.084,373.681,644.7,373.54Z" transform="translate(-638.366 -354.195)" fill="url(#radial-gradient-3)"/>
          <path id="Path_34439" data-name="Path 34439" d="M682.876,357.813a.827.827,0,0,1-.267.669,28.089,28.089,0,0,1-5.639,4.417,28.844,28.844,0,0,1-18.433,3.769,29.36,29.36,0,0,1-4.285-.924c-.266-.075-.528-.16-.786-.247.26.087.522.173.788.25a29.412,29.412,0,0,0,4.285.924,28.85,28.85,0,0,0,18.434-3.77,28.066,28.066,0,0,0,5.639-4.417.823.823,0,0,0,.268-.669c-.014-.2-.043-.407-.061-.61h0C682.834,357.408,682.862,357.61,682.876,357.813Z" transform="translate(-643.398 -344.823)" fill="#d67c00"/>
          <path id="Path_34440" data-name="Path 34440" d="M682.876,357.813a.827.827,0,0,1-.267.669,28.089,28.089,0,0,1-5.639,4.417,28.844,28.844,0,0,1-18.433,3.769,29.36,29.36,0,0,1-4.285-.924c-.266-.075-.528-.16-.786-.247.26.087.522.173.788.25a29.412,29.412,0,0,0,4.285.924,28.85,28.85,0,0,0,18.434-3.77,28.066,28.066,0,0,0,5.639-4.417.823.823,0,0,0,.268-.669c-.014-.2-.043-.407-.061-.61h0C682.834,357.408,682.862,357.61,682.876,357.813Z" transform="translate(-643.398 -344.823)" fill="url(#radial-gradient-4)"/>
          <path id="Path_34441" data-name="Path 34441" d="M671.493,345.742a.856.856,0,0,0,.234-.887c-.2-1.414-.4-2.828-.6-4.241l-3.016.218-8.029-6.626c-.331.035-.663.068-.992.1l-1.505.563a.76.76,0,0,0-.056.125.863.863,0,0,0,.33.856q1.6,1.675,3.217,3.337a.584.584,0,0,1,.184.618c-.356,1.613-.687,3.229-1.019,4.846a.651.651,0,0,0,.207.684.758.758,0,0,0,.61.2.744.744,0,0,0,.216-.058c1.488-.814,3.062-1.428,4.575-2.2a.382.382,0,0,1,.307-.059.378.378,0,0,1,.1.037q1.175.681,2.353,1.36l1.544.889.544.314h0A.733.733,0,0,0,671.493,345.742Z" transform="translate(-645.715 -331.625)" fill="#f7a226"/>
          <path id="Path_34442" data-name="Path 34442" d="M689.483,353.476a.857.857,0,0,1-.234.888.734.734,0,0,1-.795.083h0a.736.736,0,0,0,.8-.081.857.857,0,0,0,.234-.889c-.2-1.415-.4-2.83-.6-4.244h0C689.086,350.649,689.282,352.063,689.483,353.476Z" transform="translate(-663.474 -340.249)" fill="#f7a226"/>
          <path id="Path_34443" data-name="Path 34443" d="M687.173,360.73l.543.313h0Z" transform="translate(-662.739 -346.845)" fill="#f7a226"/>
          <path id="Path_34444" data-name="Path 34444" d="M670.613,355.4c-1.507.77-3.089,1.386-4.575,2.2a.753.753,0,0,1-.216.059.764.764,0,0,0,.219-.059c1.487-.814,3.062-1.428,4.575-2.2a.381.381,0,0,1,.3-.059A.384.384,0,0,0,670.613,355.4Z" transform="translate(-650.488 -343.749)" fill="#f7a226"/>
        </g>
      </g>
    </g>
    <g id="Group_50081" data-name="Group 50081" transform="translate(225.326 191.244)">
      <g id="Group_50080" data-name="Group 50080" transform="translate(0 0)">
        <g id="Group_50079" data-name="Group 50079">
          <path id="Path_34445" data-name="Path 34445" d="M886.779,329.777a.557.557,0,0,0,.067.06.669.669,0,0,0,.943-.084q.526-.518,1.068-1.024a22.853,22.853,0,0,1,4.742-3.36,33.324,33.324,0,0,1,9.376-3.344l-1.747-2.491a37.707,37.707,0,0,0-4.724,1.427,31.269,31.269,0,0,0-8.012,4.39c-.23.176-.442.371-.662.559a.777.777,0,0,1-1.071,0c-1.46-1.374-2.968-2.707-4.363-4.153a28.071,28.071,0,0,1-5.971-9.247,29.5,29.5,0,0,1-1.827-7.321,27.917,27.917,0,0,1,.51-9.328c.127-.6.287-1.182.462-1.764l-1.777-3.428a9.634,9.634,0,0,0-.522,1.464,30.079,30.079,0,0,0-1.615,11.709,30.965,30.965,0,0,0,1.609,8.273,30.12,30.12,0,0,0,7.041,11.488C882.392,325.731,884.611,327.729,886.779,329.777Z" transform="translate(-871.601 -290.671)" fill="#d67c00"/>
          <path id="Path_34446" data-name="Path 34446" d="M890.555,330.524a.775.775,0,0,0,1.069,0c.22-.188.433-.384.663-.559a31.246,31.246,0,0,1,8.013-4.389,37.692,37.692,0,0,1,4.724-1.426l-2.689-3.836-5.045.023-2.283-4.168a.612.612,0,0,0-.088.066c-1.142.928-2.317,1.813-3.478,2.712a.888.888,0,0,0-.134.112.7.7,0,0,1-.709.3.718.718,0,0,1-.185-.047.9.9,0,0,1-.47-.912c.073-1.6-.065-3.2-.076-4.793a.4.4,0,0,0-.2-.36q-1.993-1.3-3.979-2.616a.776.776,0,0,1,.23-1.493q1.327-.433,2.654-.881l-5.8-3-3.4-6.542c-.176.583-.336,1.17-.462,1.765a27.933,27.933,0,0,0-.511,9.328,29.464,29.464,0,0,0,1.826,7.323,28.05,28.05,0,0,0,5.969,9.244C887.587,327.816,889.092,329.148,890.555,330.524Z" transform="translate(-875.4 -295.285)" fill="url(#radial-gradient-5)"/>
          <path id="Path_34447" data-name="Path 34447" d="M878.393,309.821a27.94,27.94,0,0,1,.511-9.328c.127-.6.286-1.182.462-1.765h0c-.175.582-.335,1.169-.462,1.764a27.916,27.916,0,0,0-.511,9.328,29.508,29.508,0,0,0,1.827,7.315,28.029,28.029,0,0,0,3.307,6.062,28.013,28.013,0,0,1-3.307-6.062A29.475,29.475,0,0,1,878.393,309.821Z" transform="translate(-875.396 -295.293)" fill="#d67c00"/>
          <path id="Path_34448" data-name="Path 34448" d="M878.393,309.821a27.94,27.94,0,0,1,.511-9.328c.127-.6.286-1.182.462-1.765h0c-.175.582-.335,1.169-.462,1.764a27.916,27.916,0,0,0-.511,9.328,29.508,29.508,0,0,0,1.827,7.315,28.029,28.029,0,0,0,3.307,6.062,28.013,28.013,0,0,1-3.307-6.062A29.475,29.475,0,0,1,878.393,309.821Z" transform="translate(-875.396 -295.293)" fill="url(#radial-gradient-6)"/>
          <path id="Path_34449" data-name="Path 34449" d="M900.71,331.9a.9.9,0,0,1,.133-.111c1.163-.9,2.338-1.785,3.478-2.712a.6.6,0,0,1,.089-.068l-3.5-6.393-2.925-1.513q-1.329.445-2.659.887a.77.77,0,0,0-.224,1.487q1.981,1.316,3.978,2.616a.4.4,0,0,1,.2.359c.009,1.595.151,3.192.077,4.791a.9.9,0,0,0,.469.912.665.665,0,0,0,.182.046A.7.7,0,0,0,900.71,331.9Z" transform="translate(-884.805 -308.134)" fill="#f7a226"/>
          <path id="Path_34450" data-name="Path 34450" d="M899.351,331.249c.073-1.6-.066-3.194-.077-4.792a.4.4,0,0,0-.2-.362q-2-1.3-3.979-2.616a.771.771,0,0,1,.225-1.487q1.329-.44,2.657-.886h0l-2.66.887a.768.768,0,0,0-.224,1.483q1.985,1.314,3.98,2.62a.4.4,0,0,1,.2.359c.008,1.6.147,3.192.072,4.791a.9.9,0,0,0,.471.911.718.718,0,0,0,.185.047.674.674,0,0,1-.182-.046A.9.9,0,0,1,899.351,331.249Z" transform="translate(-884.803 -308.134)" fill="#f7a226"/>
        </g>
      </g>
    </g>
    <g id="Group_50084" data-name="Group 50084" transform="translate(150.307 167.475)">
      <g id="Group_50078-2" data-name="Group 50078-2">
        <g id="Group_50077-2" data-name="Group 50077-2">
          <g id="Group_50076-2" data-name="Group 50076-2">
            <path id="Path_34433-2" data-name="Path 34433-2" d="M742.708,287.518a1.179,1.179,0,0,1-.94.422,40.148,40.148,0,0,1-10.192-1.062,41.259,41.259,0,0,1-22.7-14.448,41.978,41.978,0,0,1-3.49-5.215c-.2-.343-.383-.693-.562-1.04-.627-1.21-1.158-2.416-1.7-3.4h0L702.3,261.1l-.761-1.562-.415-.852a1.157,1.157,0,0,1,.449-1.526,38.214,38.214,0,0,0,6.377-5.086,52.311,52.311,0,0,0,8.924-11.8l-1.846-5.373a48.013,48.013,0,0,1-10.534,14.847,32,32,0,0,1-6.388,4.765,14.509,14.509,0,0,1-1.543.848,1.425,1.425,0,0,0-.974,1.2l6.255,12.839a15.585,15.585,0,0,1,1.251,1.935,45.837,45.837,0,0,0,6.8,8.254,44.682,44.682,0,0,0,17.041,10.187,43.293,43.293,0,0,0,14.982,2.192c1.733-.057,2.128.09,2.534-.228l-1.2-4.912C743.069,287.056,742.9,287.293,742.708,287.518Z" transform="translate(-695.586 -234.903)" fill="#d67c00"/>
            <path id="Path_34434-2" data-name="Path 34434-2" d="M716.153,279.661a41.257,41.257,0,0,0,22.705,14.449,40.159,40.159,0,0,0,10.192,1.062,1.179,1.179,0,0,0,.94-.422c.188-.223.36-.459.543-.687l-2.507-10.292-8.522-7.122c-1.2,1.657-2.4,3.306-3.6,4.96a1.226,1.226,0,0,1-1.124.679,1.052,1.052,0,0,1-.9-.71h0q-.123-.432-.248-.862l-.71-2.449q-.534-1.871-1.067-3.74a.524.524,0,0,0-.067-.139.545.545,0,0,0-.372-.241c-2.316-.707-4.556-1.646-6.893-2.286a1.067,1.067,0,0,1-.283-.157,1.084,1.084,0,0,1-.429-.819.935.935,0,0,1,.466-.91c1.951-1.331,3.893-2.671,5.866-3.97a.837.837,0,0,0,.427-.812q-.011-3.314.009-6.63a1.237,1.237,0,0,1,.512-1.207,1.118,1.118,0,0,1,.181-.072l-4.423-1.919-2.695-7.846a52.317,52.317,0,0,1-8.924,11.8,38.272,38.272,0,0,1-6.376,5.086,1.15,1.15,0,0,0-.572,1.1,1.132,1.132,0,0,0,.123.423l.418.858.761,1.562.817,1.678h0c.547.984,1.077,2.188,1.7,3.4.18.347.364.693.562,1.035A42.035,42.035,0,0,0,716.153,279.661Z" transform="translate(-702.865 -242.142)" fill="url(#radial-gradient-7)"/>
            <path id="Path_34435-2" data-name="Path 34435-2" d="M708.283,289.687a1.16,1.16,0,0,0,.122.424l.415.852-.418-.858A1.138,1.138,0,0,1,708.283,289.687Z" transform="translate(-702.871 -266.338)" fill="#d67c00"/>
            <path id="Path_34436-2" data-name="Path 34436-2" d="M708.283,289.687a1.16,1.16,0,0,0,.122.424l.415.852-.418-.858A1.138,1.138,0,0,1,708.283,289.687Z" transform="translate(-702.871 -266.338)" fill="url(#radial-gradient-8)"/>
            <path id="Path_34437-2" data-name="Path 34437-2" d="M711.334,296.357l.818,1.678h0C711.86,297.435,711.593,296.888,711.334,296.357Z" transform="translate(-704.622 -270.165)" fill="#d67c00"/>
            <path id="Path_34438-2" data-name="Path 34438-2" d="M711.334,296.357l.818,1.678h0C711.86,297.435,711.593,296.888,711.334,296.357Z" transform="translate(-704.622 -270.165)" fill="url(#radial-gradient-9)"/>
            <path id="Path_34439-2" data-name="Path 34439-2" d="M755.137,329.61a1.181,1.181,0,0,1-.94.422,40.162,40.162,0,0,1-10.192-1.062A41.257,41.257,0,0,1,721.3,314.518a42,42,0,0,1-3.489-5.215c-.2-.341-.383-.689-.563-1.035.179.348.364.7.563,1.04a42,42,0,0,0,3.489,5.214A41.259,41.259,0,0,0,744,328.971a40.164,40.164,0,0,0,10.192,1.062,1.176,1.176,0,0,0,.939-.422c.189-.224.362-.46.544-.689h0C755.5,329.15,755.326,329.386,755.137,329.61Z" transform="translate(-708.015 -276.999)" fill="#d67c00"/>
            <path id="Path_34440-2" data-name="Path 34440-2" d="M755.137,329.61a1.181,1.181,0,0,1-.94.422,40.162,40.162,0,0,1-10.192-1.062A41.257,41.257,0,0,1,721.3,314.518a42,42,0,0,1-3.489-5.215c-.2-.341-.383-.689-.563-1.035.179.348.364.7.563,1.04a42,42,0,0,0,3.489,5.214A41.259,41.259,0,0,0,744,328.971a40.164,40.164,0,0,0,10.192,1.062,1.176,1.176,0,0,0,.939-.422c.189-.224.362-.46.544-.689h0C755.5,329.15,755.326,329.386,755.137,329.61Z" transform="translate(-708.015 -276.999)" fill="url(#radial-gradient-10)"/>
            <path id="Path_34441-2" data-name="Path 34441-2" d="M755.682,295.431a1.226,1.226,0,0,0,1.12-.677c1.2-1.654,2.4-3.3,3.6-4.959l-3.32-2.774-1.671-14.8c-.377-.292-.75-.588-1.126-.881l-2.109-.916a1.053,1.053,0,0,0-.182.073,1.232,1.232,0,0,0-.512,1.207q-.019,3.315-.009,6.63a.837.837,0,0,1-.424.818c-1.971,1.3-3.916,2.638-5.866,3.97a.937.937,0,0,0-.467.91,1.085,1.085,0,0,0,.426.815,1.071,1.071,0,0,0,.28.154c2.338.641,4.577,1.578,6.893,2.286a.54.54,0,0,1,.375.244.529.529,0,0,1,.069.142q.531,1.869,1.068,3.738l.709,2.447q.126.432.249.863h0A1.05,1.05,0,0,0,755.682,295.431Z" transform="translate(-723.774 -255.287)" fill="#f7a226"/>
            <path id="Path_34442-2" data-name="Path 34442-2" d="M770.371,320.821a1.225,1.225,0,0,1-1.12.677,1.05,1.05,0,0,1-.9-.706h0a1.053,1.053,0,0,0,.9.71,1.227,1.227,0,0,0,1.124-.679q1.8-2.482,3.6-4.96h0Q772.172,318.346,770.371,320.821Z" transform="translate(-737.338 -281.357)" fill="#f7a226"/>
            <path id="Path_34443-2" data-name="Path 34443-2" d="M767.75,325.413q.125.43.248.862h0Q767.877,325.843,767.75,325.413Z" transform="translate(-736.993 -286.837)" fill="#f7a226"/>
            <path id="Path_34444-2" data-name="Path 34444-2" d="M752.905,306.7c-2.315-.707-4.555-1.646-6.893-2.286a1.07,1.07,0,0,1-.28-.154,1.087,1.087,0,0,0,.283.157c2.338.642,4.577,1.578,6.893,2.286a.544.544,0,0,1,.372.241A.541.541,0,0,0,752.905,306.7Z" transform="translate(-724.359 -274.699)" fill="#f7a226"/>
          </g>
        </g>
      </g>
      <g id="Group_50081-2" data-name="Group 50081-2" transform="translate(32.254 -6.134)">
        <g id="Group_50080-2" data-name="Group 50080-2">
          <g id="Group_50079-2" data-name="Group 50079-2">
            <path id="Path_34445-2" data-name="Path 34445-2" d="M807.035,239.96a.84.84,0,0,0-.051-.12.971.971,0,0,0-1.29-.468q-1.008.359-2.029.689a33.148,33.148,0,0,1-8.285,1.507,48.294,48.294,0,0,1-14.366-1.356l.767,4.341a54.67,54.67,0,0,0,7.077,1.024,45.31,45.31,0,0,0,13.211-.852c.409-.089.809-.216,1.211-.327a1.125,1.125,0,0,1,1.408.652c1.077,2.7,2.24,5.378,3.182,8.128a40.652,40.652,0,0,1,2.172,15.8,42.737,42.737,0,0,1-2.088,10.732,40.459,40.459,0,0,1-6.394,11.942c-.529.7-1.1,1.376-1.688,2.033l.237,5.588a13.911,13.911,0,0,0,1.583-1.6,43.6,43.6,0,0,0,9.3-14.395,44.884,44.884,0,0,0,2.959-11.851,43.647,43.647,0,0,0-2.2-19.4C810.316,247.961,808.62,243.98,807.035,239.96Z" transform="translate(-781.014 -239.281)" fill="#d67c00"/>
            <path id="Path_34446-2" data-name="Path 34446-2" d="M805.728,251.865a1.124,1.124,0,0,0-1.406-.652c-.4.112-.8.238-1.213.328a45.285,45.285,0,0,1-13.212.852,54.6,54.6,0,0,1-7.079-1.024L784,258.054l6.64,3.061.438,6.875a.858.858,0,0,0,.153-.033c2.066-.522,4.155-.959,6.233-1.431a1.3,1.3,0,0,0,.244-.065,1.015,1.015,0,0,1,1.114.037,1.039,1.039,0,0,1,.214.176,1.3,1.3,0,0,1,.059,1.486c-1.077,2.054-1.872,4.236-2.838,6.339a.575.575,0,0,0,.039.593q1.817,2.934,3.619,5.874a1.117,1.117,0,0,1-1.2,1.818q-2.016-.238-4.034-.464l5.781,7.5.452,10.674c.587-.657,1.158-1.331,1.689-2.035A40.479,40.479,0,0,0,809,286.516a42.721,42.721,0,0,0,2.085-10.731,40.572,40.572,0,0,0-2.168-15.79C807.967,257.24,806.806,254.57,805.728,251.865Z" transform="translate(-782.05 -246.093)" fill="url(#radial-gradient-11)"/>
            <path id="Path_34447-2" data-name="Path 34447-2" d="M833.348,306.229a40.482,40.482,0,0,1-6.393,11.942c-.528.7-1.1,1.378-1.689,2.035h0c.587-.657,1.155-1.33,1.688-2.033a40.459,40.459,0,0,0,6.394-11.941,42.743,42.743,0,0,0,2.088-10.732,40.6,40.6,0,0,0-.625-9.986,40.591,40.591,0,0,1,.622,9.98A42.683,42.683,0,0,1,833.348,306.229Z" transform="translate(-806.405 -265.809)" fill="#d67c00"/>
            <path id="Path_34448-2" data-name="Path 34448-2" d="M833.348,306.229a40.482,40.482,0,0,1-6.393,11.942c-.528.7-1.1,1.378-1.689,2.035h0c.587-.657,1.155-1.33,1.688-2.033a40.459,40.459,0,0,0,6.394-11.941,42.743,42.743,0,0,0,2.088-10.732,40.6,40.6,0,0,0-.625-9.986,40.591,40.591,0,0,1,.622,9.98A42.683,42.683,0,0,1,833.348,306.229Z" transform="translate(-806.405 -265.809)" fill="url(#radial-gradient-12)"/>
            <path id="Path_34449-2" data-name="Path 34449-2" d="M808.832,286.88a1.329,1.329,0,0,1-.243.063c-2.078.469-4.164.913-6.233,1.431a.855.855,0,0,1-.157.033l.679,10.541,2.915,3.78q2.017.228,4.036.464a1.117,1.117,0,0,0,1.2-1.817q-1.795-2.942-3.62-5.874a.576.576,0,0,1-.039-.593c.966-2.1,1.761-4.285,2.838-6.34a1.3,1.3,0,0,0-.06-1.485,1,1,0,0,0-.209-.172A1.018,1.018,0,0,0,808.832,286.88Z" transform="translate(-793.17 -266.508)" fill="#f7a226"/>
            <path id="Path_34450-2" data-name="Path 34450-2" d="M815.051,288.816c-1.076,2.056-1.871,4.236-2.838,6.339a.576.576,0,0,0,.039.593q1.826,2.931,3.62,5.874a1.117,1.117,0,0,1-1.2,1.817q-2.018-.237-4.035-.464l0,.006q2.017.228,4.034.463a1.117,1.117,0,0,0,1.2-1.818q-1.8-2.94-3.619-5.874a.575.575,0,0,1-.039-.593c.965-2.1,1.762-4.285,2.838-6.339a1.3,1.3,0,0,0-.059-1.486,1.047,1.047,0,0,0-.214-.176,1,1,0,0,1,.208.172A1.3,1.3,0,0,1,815.051,288.816Z" transform="translate(-798.01 -266.753)" fill="#f7a226"/>
          </g>
        </g>
      </g>
    </g>
    <path id="Path_34451" data-name="Path 34451" d="M930.642,392.209l-1.747-2.491a37.7,37.7,0,0,0-4.723,1.427c-.659.244-1.308.512-1.947.8l6.213.777C929.165,392.527,929.9,392.354,930.642,392.209Z" transform="translate(-675.322 -156.259)" fill="#d67c00"/>
    <path id="Path_34452" data-name="Path 34452" d="M683.964,397.529l2.663,1.47a37.667,37.667,0,0,0,3.617-3.356q.727-.763,1.4-1.574l-5.923,2.03C685.151,396.6,684.567,397.073,683.964,397.529Z" transform="translate(-538.611 -158.756)" fill="#d67c00"/>
    <path id="Path_34453" data-name="Path 34453" d="M818,398.9l-3.448,2.865a15.737,15.737,0,0,0,3.463,1.315c.553.148,1.142.272,1.758.375l-.4-3.82A10.772,10.772,0,0,1,818,398.9Z" transform="translate(-613.538 -161.526)" fill="#d67c00"/>
    <path id="Path_34454" data-name="Path 34454" d="M760.328,385.6l2.908-3.413a15.748,15.748,0,0,0-3.637-.7c-.57-.051-1.172-.072-1.8-.069l1.045,3.7A10.686,10.686,0,0,1,760.328,385.6Z" transform="translate(-580.979 -151.496)" fill="#f7a226"/>
    <path id="Path_34455" data-name="Path 34455" d="M836.833,395.388l.746-2.7a40.431,40.431,0,0,0-3.8-2.995q-.842-.591-1.715-1.123l3.1,5.34Q836.022,394.622,836.833,395.388Z" transform="translate(-623.592 -155.599)" fill="#f7a226"/>
    <g id="Group_50085" data-name="Group 50085" transform="translate(210.106 219.471) rotate(17)">
      <path id="Path_34456" data-name="Path 34456" d="M856.576,388.733a.775.775,0,0,1-1.069,0c-1.463-1.376-2.969-2.708-4.36-4.151-.532-.548-1.039-1.119-1.524-1.708h0q.728.885,1.525,1.71c1.395,1.446,2.9,2.78,4.363,4.153a.776.776,0,0,0,1.071,0c.22-.188.433-.383.663-.559a31.287,31.287,0,0,1,6.065-3.59H863.3a31.237,31.237,0,0,0-6.061,3.587C857.009,388.349,856.795,388.545,856.576,388.733Z" transform="translate(-845.737 -382.392)" fill="none"/>
      <path id="Path_34457" data-name="Path 34457" d="M858.078,383.934a31.283,31.283,0,0,0-6.065,3.59c-.23.176-.443.372-.663.559a.776.776,0,0,1-1.071,0c-1.46-1.373-2.968-2.707-4.363-4.153q-.8-.823-1.526-1.71l-3.884-.485a30.115,30.115,0,0,0,3.32,4.04c2.086,2.127,4.305,4.124,6.472,6.172a.6.6,0,0,0,.067.061.671.671,0,0,0,.944-.084q.526-.519,1.068-1.024a22.888,22.888,0,0,1,4.742-3.361,33.335,33.335,0,0,1,7.171-2.832Z" transform="translate(-840.507 -381.738)" fill="#d67c00"/>
      <path id="Path_34458" data-name="Path 34458" d="M851.148,384.585c1.391,1.443,2.9,2.775,4.36,4.151a.775.775,0,0,0,1.069,0c.219-.188.433-.384.662-.559a31.235,31.235,0,0,1,6.061-3.587l-13.677-1.71C850.109,383.466,850.616,384.038,851.148,384.585Z" transform="translate(-845.738 -382.392)" fill="url(#radial-gradient-13)"/>
    </g>
    <path id="Path_34459" data-name="Path 34459" d="M801.486,390.365c.641-.288,1.292-.557,1.952-.8a37.709,37.709,0,0,1,4.724-1.426l-2.689-3.836-5.044.023Z" transform="translate(-605.438 -153.152)" fill="url(#radial-gradient-14)"/>
    <g id="Group_50086" data-name="Group 50086" transform="translate(156.583 227.934)">
      <path id="Path_34460" data-name="Path 34460" d="M716.6,391.16c-.79.007-1.577-.028-2.362-.081l-3.928,3.027a13.127,13.127,0,0,0,2,.233,41.684,41.684,0,0,0,15.321-1.186c.649-.171,1.293-.362,1.932-.563l-2.534-2.827A38.783,38.783,0,0,1,716.6,391.16Z" transform="translate(-710.311 -384.218)" fill="#d67c00"/>
      <path id="Path_34461" data-name="Path 34461" d="M727.013,377.825l-7.492,5.786c.786.054,1.574.089,2.364.081a38.8,38.8,0,0,0,10.422-1.4l-4.964-5.539Z" transform="translate(-715.596 -376.755)" fill="url(#radial-gradient-15)"/>
      <path id="Path_34462" data-name="Path 34462" d="M721.905,391.156c-.791.007-1.578-.027-2.364-.081.785.053,1.572.088,2.362.081a38.8,38.8,0,0,0,10.419-1.4h0A38.822,38.822,0,0,1,721.905,391.156Z" transform="translate(-715.607 -384.217)" fill="#d67c00"/>
      <path id="Path_34463" data-name="Path 34463" d="M721.905,391.156c-.791.007-1.578-.027-2.364-.081.785.053,1.572.088,2.362.081a38.8,38.8,0,0,0,10.419-1.4h0A38.822,38.822,0,0,1,721.905,391.156Z" transform="translate(-715.607 -384.217)" fill="url(#radial-gradient-16)"/>
    </g>
    <g id="Group_50087" data-name="Group 50087" transform="translate(180.287 232.344)">
      <path id="Path_34464" data-name="Path 34464" d="M772.529,395.653q-1.785-1.169-3.564-2.344l-3.038,6.246,6.879-.724c-.026-.939-.073-1.878-.079-2.818A.4.4,0,0,0,772.529,395.653Z" transform="translate(-765.927 -390.664)" fill="url(#radial-gradient-17)"/>
      <path id="Path_34465" data-name="Path 34465" d="M775.533,387.1l-1.418.473-1.055,2.168q.974.644,1.952,1.285c.539.354,1.076.711,1.617,1.063a.43.43,0,0,1,.2.36c.005.938.053,1.877.079,2.816l4.914-.517-3.361-6.136Z" transform="translate(-770.02 -387.103)" fill="#f7a226"/>
    </g>
  </g>
</svg>
