<svg xmlns="http://www.w3.org/2000/svg" xmlns:xlink="http://www.w3.org/1999/xlink" width="59.388" height="59.422" viewBox="0 0 59.388 59.422">
  <defs>
    <radialGradient id="radial-gradient" cx="0.874" cy="0.488" r="0.482" gradientUnits="objectBoundingBox">
      <stop offset="0" stop-color="#ffdb8b"/>
      <stop offset="1" stop-color="#ffc340"/>
    </radialGradient>
    <radialGradient id="radial-gradient-2" cx="318.666" cy="12.347" r="18.764" xlink:href="#radial-gradient"/>
    <radialGradient id="radial-gradient-3" cx="0.152" cy="0.5" r="0.354" xlink:href="#radial-gradient"/>
    <radialGradient id="radial-gradient-4" cx="0.951" cy="0.232" r="0.724" xlink:href="#radial-gradient"/>
    <radialGradient id="radial-gradient-5" cx="-0.054" cy="0.488" r="0.497" xlink:href="#radial-gradient"/>
    <radialGradient id="radial-gradient-6" cx="-0.056" cy="0.05" r="0.921" xlink:href="#radial-gradient"/>
  </defs>
  <g id="Group_50132" data-name="Group 50132" transform="translate(-148.485 -295.307)">
    <g id="Group_50131" data-name="Group 50131">
      <path id="Path_34433" data-name="Path 34433" d="M415.647-309.517a1.084,1.084,0,0,1-.948-.03,36.985,36.985,0,0,1-8.01-4.99,37.607,37.607,0,0,1-7.162-7.793,37.881,37.881,0,0,1-5.809-13.328,38.712,38.712,0,0,1-.786-5.725c-.026-.364-.038-.728-.046-1.088-.031-1.254.016-2.467-.041-3.5h0v-1.719c0-.553,0-1.087,0-1.6v-.873a1.067,1.067,0,0,1,.07-.4,1.059,1.059,0,0,1,.917-.682,35.209,35.209,0,0,0,7.331-1.639,48.165,48.165,0,0,0,12.147-6.168l.639-5.193a44.217,44.217,0,0,1-14.71,8.043,29.469,29.469,0,0,1-7.211,1.369,13.389,13.389,0,0,1-1.62.08,1.312,1.312,0,0,0-1.29.6V-341a14.317,14.317,0,0,1,.255,2.107,42.22,42.22,0,0,0,2.3,9.576,41.157,41.157,0,0,0,10,15.308,39.874,39.874,0,0,0,11.521,7.858c1.457.652,1.725.933,2.19.833l.991-4.55C416.132-309.753,415.894-309.626,415.647-309.517Z" transform="matrix(1, -0.017, 0.017, 1, -234.219, 666.771)" fill="#d67c00"/>
      <path id="Path_34434" data-name="Path 34434" d="M395-333.88a37.88,37.88,0,0,0,5.809,13.328,37.593,37.593,0,0,0,7.162,7.793,36.987,36.987,0,0,0,8.01,4.99,1.086,1.086,0,0,0,.948.03c.246-.109.483-.235.727-.35l2.076-9.533-4.183-9.334c-1.659.889-3.323,1.768-4.983,2.654a1.13,1.13,0,0,1-1.205.109.969.969,0,0,1-.46-.951h0q.072-.407.142-.814.2-1.157.4-2.314.312-1.764.625-3.527a.48.48,0,0,0,0-.142.5.5,0,0,0-.211-.35c-1.632-1.519-3.108-3.2-4.785-4.673a.992.992,0,0,1-.171-.244,1,1,0,0,1-.025-.851.861.861,0,0,1,.753-.565c2.152-.315,4.3-.641,6.458-.921a.771.771,0,0,0,.681-.5q1.327-2.749,2.681-5.486c.188-.381.4-.743.911-.793a1.051,1.051,0,0,1,.179.013l-2.888-3.373.934-7.583a48.2,48.2,0,0,1-12.147,6.168,35.266,35.266,0,0,1-7.331,1.639,1.059,1.059,0,0,0-.916.676,1.051,1.051,0,0,0-.069.4c0,.292,0,.584,0,.879v1.6c0,.544,0,1.105,0,1.719h0v0c.056,1.035.009,2.246.038,3.5.009.36.022.721.048,1.084A38.725,38.725,0,0,0,395-333.88Z" transform="matrix(1, -0.017, 0.017, 1, -235.526, 665.012)" fill="url(#radial-gradient)"/>
      <path id="Path_34435" data-name="Path 34435" d="M394.194-345.883a1.067,1.067,0,0,0-.07.4v.873c0-.295,0-.587,0-.879A1.051,1.051,0,0,1,394.194-345.883Z" transform="matrix(1, -0.017, 0.017, 1, -235.577, 662.106)" fill="#d67c00"/>
      <path id="Path_34436" data-name="Path 34436" d="M394.194-345.883a1.067,1.067,0,0,0-.07.4v.873c0-.295,0-.587,0-.879A1.051,1.051,0,0,1,394.194-345.883Z" transform="matrix(1, -0.017, 0.017, 1, -235.577, 662.106)" fill="url(#radial-gradient-2)"/>
      <path id="Path_34437" data-name="Path 34437" d="M394.124-342.018v1.719h0C394.125-340.913,394.124-341.474,394.124-342.018Z" transform="matrix(1, -0.017, 0.017, 1, -235.595, 661.119)" fill="#d67c00"/>
      <path id="Path_34438" data-name="Path 34438" d="M394.124-342.018v1.719h0C394.125-340.913,394.124-341.474,394.124-342.018Z" transform="matrix(1, -0.017, 0.017, 1, -235.595, 661.119)" fill="url(#radial-gradient-3)"/>
      <path id="Path_34439" data-name="Path 34439" d="M416.939-302.056a1.086,1.086,0,0,1-.948-.03,36.986,36.986,0,0,1-8.01-4.99,37.592,37.592,0,0,1-7.162-7.793A37.88,37.88,0,0,1,395.01-328.2a38.724,38.724,0,0,1-.786-5.725c-.027-.363-.039-.725-.048-1.084.008.36.02.724.046,1.088a38.711,38.711,0,0,0,.786,5.725,37.881,37.881,0,0,0,5.809,13.328,37.607,37.607,0,0,0,7.162,7.793,36.985,36.985,0,0,0,8.01,4.99,1.084,1.084,0,0,0,.948.03c.247-.109.485-.235.728-.351v0C417.423-302.291,417.185-302.165,416.939-302.056Z" transform="matrix(1, -0.017, 0.017, 1, -235.639, 659.331)" fill="#d67c00"/>
      <path id="Path_34440" data-name="Path 34440" d="M416.939-302.056a1.086,1.086,0,0,1-.948-.03,36.986,36.986,0,0,1-8.01-4.99,37.592,37.592,0,0,1-7.162-7.793A37.88,37.88,0,0,1,395.01-328.2a38.724,38.724,0,0,1-.786-5.725c-.027-.363-.039-.725-.048-1.084.008.36.02.724.046,1.088a38.711,38.711,0,0,0,.786,5.725,37.881,37.881,0,0,0,5.809,13.328,37.607,37.607,0,0,0,7.162,7.793,36.985,36.985,0,0,0,8.01,4.99,1.084,1.084,0,0,0,.948.03c.247-.109.485-.235.728-.351v0C417.423-302.291,417.185-302.165,416.939-302.056Z" transform="matrix(1, -0.017, 0.017, 1, -235.639, 659.331)" fill="url(#radial-gradient-4)"/>
      <path id="Path_34441" data-name="Path 34441" d="M413.016-320.446a1.129,1.129,0,0,0,1.2-.109c1.659-.886,3.322-1.765,4.98-2.654l-1.63-3.636,4.585-12.925c-.194-.394-.384-.789-.577-1.183l-1.376-1.609a.989.989,0,0,0-.18-.013c-.512.048-.722.412-.911.793q-1.352,2.737-2.681,5.486a.771.771,0,0,1-.681.506c-2.156.28-4.306.605-6.458.921a.862.862,0,0,0-.754.565,1,1,0,0,0,.024.847.991.991,0,0,0,.17.241c1.677,1.474,3.153,3.153,4.785,4.673a.5.5,0,0,1,.212.353.5.5,0,0,1,0,.145q-.315,1.762-.624,3.526l-.4,2.312q-.07.408-.142.815h0A.967.967,0,0,0,413.016-320.446Z" transform="matrix(1, -0.017, 0.017, 1, -239.249, 661.326)" fill="#f7a226"/>
      <path id="Path_34442" data-name="Path 34442" d="M415.623-313.919a1.129,1.129,0,0,1-1.2.109.967.967,0,0,1-.46-.947h0a.969.969,0,0,0,.46.951,1.13,1.13,0,0,0,1.205-.109c1.66-.886,3.323-1.766,4.983-2.654l0,0C418.945-315.684,417.282-314.806,415.623-313.919Z" transform="matrix(1, -0.017, 0.017, 1, -240.768, 654.715)" fill="#f7a226"/>
      <path id="Path_34443" data-name="Path 34443" d="M414.1-315.229q-.07.407-.142.814h0Q414.032-314.822,414.1-315.229Z" transform="matrix(1, -0.017, 0.017, 1, -240.776, 654.372)" fill="#f7a226"/>
      <path id="Path_34444" data-name="Path 34444" d="M413.553-325.42c-1.632-1.519-3.108-3.2-4.785-4.673a.991.991,0,0,1-.17-.241.992.992,0,0,0,.171.244c1.677,1.475,3.153,3.153,4.785,4.673a.5.5,0,0,1,.211.35A.5.5,0,0,0,413.553-325.42Z" transform="matrix(1, -0.017, 0.017, 1, -239.34, 658.202)" fill="#f7a226"/>
      <path id="Path_34445" data-name="Path 34445" d="M454.214-354.554a.809.809,0,0,0,0-.12.894.894,0,0,0-.926-.86q-.984-.058-1.968-.145a30.522,30.522,0,0,1-7.567-1.7,44.484,44.484,0,0,1-11.694-6.314l-.91,3.956a50.329,50.329,0,0,0,5.633,3.412,41.723,41.723,0,0,0,11.508,4.026c.379.072.763.108,1.145.158a1.036,1.036,0,0,1,.959,1.059c-.057,2.675-.034,5.365-.223,8.036a37.377,37.377,0,0,1-.779,5.487,37.411,37.411,0,0,1-3.06,8.692,39.358,39.358,0,0,1-5.628,8.35,37.259,37.259,0,0,1-9.714,7.827c-.7.405-1.428.771-2.162,1.117l-1.808,4.824a12.8,12.8,0,0,0,1.918-.789A40.148,40.148,0,0,0,442-316.4a41.333,41.333,0,0,0,6.769-8.985,40.2,40.2,0,0,0,5.106-17.24C454.12-346.59,454.113-350.576,454.214-354.554Z" transform="matrix(0.999, 0.035, -0.035, 0.999, -258.762, 644.665)" fill="#d67c00"/>
      <path id="Path_34446" data-name="Path 34446" d="M451.017-349.721a1.035,1.035,0,0,0-.958-1.058c-.383-.05-.768-.087-1.146-.158a41.707,41.707,0,0,1-11.509-4.026,50.344,50.344,0,0,1-5.634-3.413l-1.4,6.093L434.9-347.3l-2.1,5.987a.817.817,0,0,0,.142.027c1.94.3,3.868.68,5.8,1.027a1.2,1.2,0,0,0,.23.033.935.935,0,0,1,.931.432.958.958,0,0,1,.118.226,1.2,1.2,0,0,1-.484,1.281c-1.651,1.355-3.11,2.919-4.685,4.355a.529.529,0,0,0-.18.517q.486,3.141.957,6.282a1.121,1.121,0,0,1-.372,1.21,1.123,1.123,0,0,1-1.3-.1q-1.624-.926-3.254-1.843l2.207,8.435-3.454,9.213c.734-.346,1.46-.712,2.164-1.118a37.279,37.279,0,0,0,9.714-7.828,39.326,39.326,0,0,0,5.626-8.35,37.4,37.4,0,0,0,3.06-8.686,37.523,37.523,0,0,0,.778-5.482C450.983-344.358,450.959-347.04,451.017-349.721Z" transform="matrix(0.999, 0.035, -0.035, 0.999, -259.334, 643.287)" fill="url(#radial-gradient-5)"/>
      <path id="Path_34447" data-name="Path 34447" d="M441.33-311.57a37.279,37.279,0,0,1-9.714,7.828c-.7.406-1.429.772-2.164,1.118v0c.734-.346,1.458-.712,2.162-1.117a37.259,37.259,0,0,0,9.714-7.827,39.359,39.359,0,0,0,5.628-8.35,37.412,37.412,0,0,0,3.06-8.692,37.405,37.405,0,0,1-3.06,8.686A39.326,39.326,0,0,1,441.33-311.57Z" transform="matrix(0.999, 0.035, -0.035, 0.999, -259.068, 635.693)" fill="#d67c00"/>
      <path id="Path_34448" data-name="Path 34448" d="M441.33-311.57a37.279,37.279,0,0,1-9.714,7.828c-.7.406-1.429.772-2.164,1.118v0c.734-.346,1.458-.712,2.162-1.117a37.259,37.259,0,0,0,9.714-7.827,39.359,39.359,0,0,0,5.628-8.35,37.412,37.412,0,0,0,3.06-8.692,37.405,37.405,0,0,1-3.06,8.686A39.326,39.326,0,0,1,441.33-311.57Z" transform="matrix(0.999, 0.035, -0.035, 0.999, -259.068, 635.693)" fill="url(#radial-gradient-6)"/>
      <path id="Path_34449" data-name="Path 34449" d="M439.017-334.374a1.2,1.2,0,0,1-.229-.034c-1.931-.349-3.859-.722-5.8-1.027a.805.805,0,0,1-.145-.028l-3.214,9.182,1.113,4.253q1.628.919,3.255,1.844a1.123,1.123,0,0,0,1.3.1,1.123,1.123,0,0,0,.372-1.209q-.464-3.14-.958-6.282a.531.531,0,0,1,.18-.517c1.575-1.437,3.034-3,4.685-4.356a1.2,1.2,0,0,0,.483-1.281.906.906,0,0,0-.115-.221A.938.938,0,0,0,439.017-334.374Z" transform="matrix(0.999, 0.035, -0.035, 0.999, -259.176, 637.441)" fill="#f7a226"/>
      <path id="Path_34450" data-name="Path 34450" d="M439.959-331.925c-1.651,1.356-3.109,2.919-4.685,4.355a.531.531,0,0,0-.18.517q.495,3.142.958,6.282a1.123,1.123,0,0,1-.372,1.209,1.123,1.123,0,0,1-1.3-.1q-1.626-.926-3.255-1.844v.006q1.628.919,3.254,1.843a1.123,1.123,0,0,0,1.3.1,1.121,1.121,0,0,0,.372-1.21q-.471-3.14-.957-6.282a.529.529,0,0,1,.18-.517c1.575-1.437,3.034-3,4.685-4.355a1.2,1.2,0,0,0,.484-1.281.957.957,0,0,0-.118-.226.906.906,0,0,1,.115.221A1.2,1.2,0,0,1,439.959-331.925Z" transform="matrix(0.999, 0.035, -0.035, 0.999, -259.538, 636.908)" fill="#f7a226"/>
    </g>
  </g>
</svg>
