<svg xmlns="http://www.w3.org/2000/svg" width="15.586" height="19.93" viewBox="0 0 15.586 19.93">
  <g id="Group_6485" data-name="Group 6485" transform="translate(0 -0.047)">
    <g id="Group_6464" data-name="Group 6464" transform="matrix(1, 0.017, -0.017, 1, 0.345, 0)">
      <rect id="Rectangle_1692" data-name="Rectangle 1692" width="4.705" height="2.399" transform="translate(5.311 0.006)" fill="#460391"/>
      <path id="Path_15036" data-name="Path 15036" d="M3.492.068c-.1.138-.328.177-.463.29-.16.135-.22.287-.427.387-.435.21-.868.476-1.288.721A11.219,11.219,0,0,0,0,2.346c.567.03,1.13-.008,1.684.04.5.044,1.033.035,1.53.052a2.641,2.641,0,0,0,.05-.7A5.012,5.012,0,0,1,3.408.969,5.078,5.078,0,0,0,3.558,0c-.023.037-.052.024-.086.049Z" transform="translate(6.382 0)" fill="#5000aa" opacity="0.5" style="mix-blend-mode: multiply;isolation: isolate"/>
      <g id="Group_6462" data-name="Group 6462" transform="translate(0 0.053)">
        <g id="Group_6461" data-name="Group 6461" transform="translate(0 0)">
          <path id="Path_15037" data-name="Path 15037" d="M9.933,0C9.912.275,0,18.187,0,18.187l3.141-1.352L4.415,19.7,12.918,3.5Z" fill="#5f01cb"/>
          <path id="Path_15038" data-name="Path 15038" d="M10.217.171c.558.831.231,2.244.095,3.147a12.571,12.571,0,0,1-1.4,3.813A36.1,36.1,0,0,1,4.372,13.4,10.239,10.239,0,0,1,2.034,15.05c-.334.217-.631.46-.976.677-.161.1-1.038.624-1.031.788-.02.007-.03.02-.027.036.528.062,1.214-.471,1.691-.643a3.359,3.359,0,0,1,1.351-.373c.415.715.53,1.734,1.144,2.359.07-.7.824-1.512,1.164-2.167.4-.77.856-1.511,1.262-2.28.335-.635.637-1.279.932-1.921.276-.6.7-1.142.936-1.758.851-2.244,2.324-4.318,3.295-6.51.31-.7.1-1.043-.445-1.645A5.976,5.976,0,0,1,10.217,0Z" transform="translate(0.314 1.063)" fill="#5f01cb" opacity="0.3" style="mix-blend-mode: multiply;isolation: isolate"/>
          <path id="Path_15039" data-name="Path 15039" d="M7.661.33c.031.546-.584,1.2-.808,1.706A14.479,14.479,0,0,1,5.837,3.782C5.16,4.874,4.46,5.935,3.843,7.05,2.731,9.061,1.461,11.024.408,13.061A8.22,8.22,0,0,0,0,13.946c.373-.073.682-.594.884-.824a3.974,3.974,0,0,1,.916-.943c.013.137-.066.388.089.459.384.177,1.035-.553,1.193-.716a23.949,23.949,0,0,0,2.237-2.4,13.033,13.033,0,0,0,2.341-4.4C8.044,3.5,8.838,1.538,7.894,0c-.061-.008-.062.018-.117.031Z" transform="translate(1.895 0.914)" fill="#6804d9"/>
          <path id="Path_15040" data-name="Path 15040" d="M4.524,0A11.63,11.63,0,0,0,2.671,3.016c-.474.885-1,1.709-1.421,2.613C.886,6.415.442,7.176.114,7.98c-.148.362-.249.816.337.444.542-.344.787-1,1.353-1.317.055.237-.021.529.343.5C2.639,7.569,3.2,6.484,3.38,6.174A25.858,25.858,0,0,0,4.727,2.86,4.691,4.691,0,0,0,5.2.634c-.036-.238-.6-.9-.765-.45Z" transform="translate(4.099 3.584)" fill="#720de3"/>
        </g>
        <path id="Path_15041" data-name="Path 15041" d="M10.344.1c.225.6-.35,1.541-.551,2.122A18.755,18.755,0,0,1,7.84,5.958c-.582.918-1.592,2.459-3.086,1.883C4.4,8.617,3.828,9.313,3.4,10.063c-.523.909-1.009,1.838-1.485,2.765C1.318,13.99.579,15.119,0,16.254a17.427,17.427,0,0,0,1.567-.786,3.6,3.6,0,0,1,1.391-.335,7.138,7.138,0,0,0,1.069,2.344c-.108-.559.677-1.445.972-1.932a16.555,16.555,0,0,0,1.1-2.061c.628-1.454,1.466-2.828,2.207-4.242.794-1.517,1.538-3.031,2.427-4.52a17.785,17.785,0,0,0,.953-1.711c.136-.3.438-.7.342-1.027s-.649-.772-.914-1.026c-.208-.2-.7-.922-.943-.958Z" transform="translate(0.485 1.468)" fill="#5f01cb" opacity="0.2" style="mix-blend-mode: multiply;isolation: isolate"/>
      </g>
      <path id="Path_15042" data-name="Path 15042" d="M.215.487C.16.7-.014.842,0,1.076A4.633,4.633,0,0,0,.289,2.1c.235.653.449,1.308.678,1.967A13.9,13.9,0,0,1,1.53,5.861a2.849,2.849,0,0,0,.3,1.128c.267-.647.7-1.269.943-1.938.189-.517.292-1.071.507-1.582.145-.347.761-1,.587-1.39-.09-.2-.378-.241-.563-.365A1.467,1.467,0,0,1,2.77.892,1.2,1.2,0,0,0,1.781.045,1.359,1.359,0,0,0,.256.694c0-.057,0-.113,0-.17Z" transform="translate(4.974 8.211)" fill="#5000aa" opacity="0.5" style="mix-blend-mode: multiply;isolation: isolate"/>
      <path id="Path_15043" data-name="Path 15043" d="M.232.074c-.19.21-.285.334-.2.543.015.04.2.134.235.192.089.134.071.31.126.452.183.465.384.922.551,1.4C1.308,3.695,1.625,4.82,2.057,5.8c.158-.427.683-.767.539-1.2-.117-.351-.387-.658-.508-1.022-.134-.4-.258-.8-.413-1.188A8.268,8.268,0,0,0,.816.81C.641.555.377.063.148,0Z" transform="translate(5.041 8.654)" fill="#5000aa" opacity="0.5" style="mix-blend-mode: multiply;isolation: isolate"/>
      <g id="Group_6463" data-name="Group 6463" transform="translate(2.326 0.006)">
        <path id="Path_15044" data-name="Path 15044" d="M2.985,0c.022.276,9.933,18.188,9.933,18.188l-3.14-1.352L8.5,19.7,0,3.5Z" transform="translate(0 0)" fill="#5f01cb"/>
        <path id="Path_15045" data-name="Path 15045" d="M1.7.171C1.144,1,1.471,2.416,1.608,3.318a12.569,12.569,0,0,0,1.4,3.812A36.053,36.053,0,0,0,7.548,13.4a10.214,10.214,0,0,0,2.338,1.651c.334.217.632.461.976.677.161.1,1.038.624,1.03.788.021.007.03.019.027.036-.528.061-1.215-.471-1.691-.642a3.34,3.34,0,0,0-1.351-.373c-.415.715-.53,1.733-1.145,2.358-.069-.7-.823-1.511-1.164-2.168-.4-.768-.855-1.51-1.262-2.279-.335-.635-.636-1.279-.932-1.921-.275-.6-.7-1.142-.936-1.758C2.588,7.523,1.114,5.45.144,3.257c-.309-.7-.1-1.043.445-1.646A5.949,5.949,0,0,0,1.7,0Z" transform="translate(0.684 1.064)" fill="#5f01cb" opacity="0.3" style="mix-blend-mode: multiply;isolation: isolate"/>
        <path id="Path_15046" data-name="Path 15046" d="M.46.229c-.031.545.584,1.194.807,1.7A14.365,14.365,0,0,0,2.283,3.679C2.96,4.77,3.661,5.829,4.277,6.943c1.113,2.01,2.382,3.972,3.436,6.007a8.314,8.314,0,0,1,.408.883c-.373-.073-.681-.594-.884-.824a3.951,3.951,0,0,0-.916-.942c-.013.137.066.388-.09.458-.384.177-1.035-.552-1.193-.715A23.982,23.982,0,0,1,2.8,9.417,13.022,13.022,0,0,1,.46,5.023C.076,3.4-.389,1.571.553.037.405-.059.35.061.405.074Z" transform="translate(2.902 1.027)" fill="#6804d9"/>
        <path id="Path_15047" data-name="Path 15047" d="M.7,0A11.657,11.657,0,0,1,2.555,3.016c.473.885,1,1.709,1.42,2.612.364.787.808,1.548,1.136,2.35.148.363.249.817-.337.444-.542-.344-.786-1-1.353-1.317-.055.237.021.529-.344.5-.49-.037-1.053-1.124-1.233-1.433A25.8,25.8,0,0,1,.5,2.861,4.683,4.683,0,0,1,.02.634c.035-.237.6-.9.764-.45Z" transform="translate(3.595 3.584)" fill="#720de3"/>
        <path id="Path_15048" data-name="Path 15048" d="M2.628.078a3.261,3.261,0,0,1-.732.983c-.285.322-.564.648-.858.964-.261.281-.487.6-.761.865-.393.382-.324.493-.064.979a13.337,13.337,0,0,0,2.2,3.349,5.909,5.909,0,0,1,.965,1.94c.4.847.874,1.656,1.3,2.491.675,1.329,1.132,2.717,1.783,4.051.3.607.583,1.22.87,1.828a4.162,4.162,0,0,0,.573,1.085c.248-.268.135-.95.278-1.318.1-.255.184-.971.551-1.084a5.233,5.233,0,0,1,1.6.315,11.892,11.892,0,0,1,1.354.42c-.065-.261-.456-.562-.663-.792-.374-.414-.836-.785-1.259-1.169A6.74,6.74,0,0,1,7.591,12.2,11.1,11.1,0,0,0,6.358,9.486a24.862,24.862,0,0,1-1.8-2.8A14.739,14.739,0,0,1,3.784,4.1c-.167-.633-.345-1.281-.448-1.919-.057-.358-.164-2.325-.92-2.174Z" transform="translate(0.415 0.289)" fill="#5f01cb" opacity="0.2" style="mix-blend-mode: multiply;isolation: isolate"/>
      </g>
      <path id="Path_15049" data-name="Path 15049" d="M.012.018A.868.868,0,0,1,.261.331a1.887,1.887,0,0,0,.408.4c.293.245.316.566.5.866.363.579.737,1.156,1.044,1.755a4.38,4.38,0,0,1,.488.971,1.327,1.327,0,0,1-.3.83A1.72,1.72,0,0,1,2.149,4.7c-.213-.391-.449-.773-.67-1.162C1.135,2.925.871,2.291.567,1.67.395,1.317.322.924.155.57.083.418-.039.107.012,0Z" transform="translate(7.614 4.198)" fill="#5000aa" opacity="0.5" style="mix-blend-mode: multiply;isolation: isolate"/>
    </g>
    <g id="Group_6466" data-name="Group 6466" transform="translate(1.105 2.617)">
      <g id="Group_6465" data-name="Group 6465" transform="translate(0 0)">
        <path id="Path_15050" data-name="Path 15050" d="M704.457,326.5a6.679,6.679,0,1,1-6.04-7.2A6.63,6.63,0,0,1,704.457,326.5Z" transform="translate(-691.13 -319.269)" fill="#f8b310"/>
        <path id="Path_15051" data-name="Path 15051" d="M704.674,322.41c.478.52.2,1.243.564,1.8a3.519,3.519,0,0,1,.244,2.6,5.336,5.336,0,0,1-3.339,4.257,4.668,4.668,0,0,1-2,.193,3,3,0,0,1-1.8-.458,5.972,5.972,0,0,1-1.163-1.042c-.16-.222-.247-.9-.541-.926a3.972,3.972,0,0,0,1.483,4.022,7.019,7.019,0,0,0,7.505.011,5.929,5.929,0,0,0,1.183-1.578,5.024,5.024,0,0,0,.834-1.775,6.957,6.957,0,0,0,.212-3.014,6.541,6.541,0,0,0-.915-2.247,6.1,6.1,0,0,0-1.211-1.337,3.941,3.941,0,0,0-.579-.423c-.178-.1-.44-.109-.554-.28Z" transform="translate(-695.153 -321.469)" fill="#f8b310" opacity="0.2" style="mix-blend-mode: multiply;isolation: isolate"/>
        <path id="Path_15052" data-name="Path 15052" d="M696.389,322.369a5.469,5.469,0,0,0-1.352,1.164,7.677,7.677,0,0,0-1.259,1.653,5.494,5.494,0,0,0-.495,2.038,5.572,5.572,0,0,0,.361,2.386,6.337,6.337,0,0,0,1.9,2.859,6.619,6.619,0,0,0,2.783,1.328,8.188,8.188,0,0,0,2.921-.068,2.62,2.62,0,0,0,1.1-.549c.34-.26.7-.4,1.041-.683a6.28,6.28,0,0,0,1.846-2.863,5.763,5.763,0,0,0,.44-3.217,6,6,0,0,0-.52-1.3,7.672,7.672,0,0,0-.582-1.221,6.062,6.062,0,0,0-2.271-1.834,3.062,3.062,0,0,0-1.282-.412c-.714.11.066,1.2.18,1.528a3.152,3.152,0,0,1-.328,2.744,4.206,4.206,0,0,1-1.928,2.023,2.554,2.554,0,0,1-2.5-.935,2.619,2.619,0,0,1-.562-1.861,7.14,7.14,0,0,1,.539-2.836Z" transform="translate(-692.731 -321.039)" fill="#f8b310" opacity="0.2" style="mix-blend-mode: multiply;isolation: isolate"/>
        <path id="Path_15053" data-name="Path 15053" d="M698.495,320.312a1.323,1.323,0,0,1,1.033.07c.353.226.21.661.493.89s.755.144,1.076.287a2.8,2.8,0,0,1,1.022.755c1.284,1.515-.16,3.758-1.324,4.821a3.431,3.431,0,0,1-5.071-.6,4.474,4.474,0,0,1-.193-3.518c.046-.149.3-.673.2-.836-.174-.279-.582.21-.713.342a5.051,5.051,0,0,0-1.383,2.416,4.84,4.84,0,0,0-.171,2.6,6.571,6.571,0,0,0,1,2.02,11.279,11.279,0,0,0,1.7,1.839,3.836,3.836,0,0,0,2.145.8,5.544,5.544,0,0,0,2.2-.081c.305-.1.559-.3.866-.383a2.325,2.325,0,0,0,.879-.345,7.2,7.2,0,0,0,1.631-1.711,7.364,7.364,0,0,0,1.006-4.594,5.561,5.561,0,0,0-1.792-3.819,5.809,5.809,0,0,0-2.664-1.215,2.9,2.9,0,0,0-1.209-.146c-.277.062-.448.331-.7.4,0-.059-.024-.135-.018-.19Z" transform="translate(-692.785 -319.73)" fill="#f8b310" opacity="0.2" style="mix-blend-mode: multiply;isolation: isolate"/>
        <path id="Path_15054" data-name="Path 15054" d="M707.171,329.834s-.018.131-.052.377c-.01.062-.014.131-.032.205s-.037.156-.059.244-.04.185-.072.283-.068.2-.105.313a5.537,5.537,0,0,1-.789,1.478c-.1.13-.211.254-.321.389s-.248.247-.377.378-.286.234-.434.357c-.159.107-.322.218-.495.318a5.221,5.221,0,0,1-2.468.662c-.114,0-.229-.01-.344-.015l-.173-.009-.087-.006-.019,0-.01,0-.021,0-.043-.007a5.5,5.5,0,0,1-.685-.141,5.292,5.292,0,0,1-1.347-.562,6.142,6.142,0,0,1-1.179-.934,6.424,6.424,0,0,1-.915-1.245,6.185,6.185,0,0,1-.554-1.483,5.534,5.534,0,0,1,.229-3.184,5.4,5.4,0,0,1,1.947-2.474,5.882,5.882,0,0,1,1.364-.693,5.258,5.258,0,0,1,1.448-.275,5.4,5.4,0,0,1,.715.007l.043,0h.034l.019,0,.085.013.167.026c.111.019.219.028.332.056a5.327,5.327,0,0,1,2.312,1.135,5.437,5.437,0,0,1,1.332,1.724,5.634,5.634,0,0,1,.5,1.6c.015.116.031.225.045.327s.01.2.018.291.009.174.012.251,0,.146-.006.208l-.019.383Zm-.036,0s0-.133.013-.381c0-.061.009-.13,0-.206s-.01-.159-.017-.248-.008-.187-.024-.287-.038-.208-.059-.322c-.01-.056-.018-.115-.033-.173s-.033-.118-.05-.18-.037-.122-.055-.186a1.4,1.4,0,0,0-.067-.19c-.052-.128-.106-.259-.162-.4l-.214-.406a5.293,5.293,0,0,0-1.378-1.558,5.5,5.5,0,0,0-1.006-.6c-.093-.041-.183-.086-.279-.126l-.293-.1-.147-.052c-.051-.015-.1-.025-.151-.037l-.3-.074c-.1-.026-.219-.034-.329-.052l-.168-.023-.083-.012-.073,0a5.118,5.118,0,0,0-.665-.007,5.278,5.278,0,0,0-1.35.244,5.561,5.561,0,0,0-1.284.623,5.841,5.841,0,0,0-1.1.991,5.633,5.633,0,0,0-.794,1.291,5.8,5.8,0,0,0-.4,1.5,5.86,5.86,0,0,0,.055,1.551,5.043,5.043,0,0,0,1.428,2.661,5.339,5.339,0,0,0,1.182.853c.1.061.216.1.322.151a2.5,2.5,0,0,0,.325.131l.33.11c.11.033.221.051.33.077a5.052,5.052,0,0,0,.673.1l.042.005.022,0,.011,0s-.008,0,0,0l.083,0,.164,0c.109,0,.217.012.325,0a5.644,5.644,0,0,0,2.338-.595,5.3,5.3,0,0,0,1.639-1.279c.1-.124.192-.243.284-.361l.232-.359a1.215,1.215,0,0,0,.1-.175l.089-.173c.027-.056.055-.112.082-.167s.044-.111.064-.164l.116-.306a2.713,2.713,0,0,0,.077-.277c.022-.087.042-.167.061-.241a1.981,1.981,0,0,0,.035-.2c.036-.245.056-.377.056-.377Z" transform="translate(-695.11 -322.647)" fill="#d26911" opacity="0.5" style="mix-blend-mode: multiply;isolation: isolate"/>
        <path id="Path_15055" data-name="Path 15055" d="M706.405,325.479a1.153,1.153,0,0,1,.6.4c.29.295.237.482.386.823s.567.442.835.67a2.4,2.4,0,0,1,.614,1.088,4.506,4.506,0,0,1-1.527,4.716,5.6,5.6,0,0,1-3.926,1.2c-1.036-.054-2.291-.135-2.986-1.049.073.682.82,1.3,1.313,1.681a4.081,4.081,0,0,0,1.364.747,4.369,4.369,0,0,0,2.872-.076,8.233,8.233,0,0,0,1.491-.508,7.664,7.664,0,0,0,1.017-.854,4.724,4.724,0,0,0,1.323-2.094,5.525,5.525,0,0,0-.341-4.582,3.692,3.692,0,0,0-1.423-1.679c-.306-.159-.647-.226-.947-.37-.162-.079-.266-.221-.443-.254-.136-.027-.253.044-.391.025Z" transform="translate(-698.052 -323.801)" fill="#f8b310" opacity="0.4" style="mix-blend-mode: multiply;isolation: isolate"/>
        <path id="Path_15056" data-name="Path 15056" d="M699.281,328.008a2.532,2.532,0,0,0-1.05,1.782,1.625,1.625,0,0,1-.252.768,2.308,2.308,0,0,0-.285,1.061,5.37,5.37,0,0,0,.357,2.349,4.663,4.663,0,0,0,.64,1.1c.25.371.33.651.775.762a2.165,2.165,0,0,1,.81.234c.222.155.332.336.6.4a3.782,3.782,0,0,0,1.764.033,7.224,7.224,0,0,0,2.318-.774,4.847,4.847,0,0,0,1.31-1.5,4.3,4.3,0,0,0,.572-3.439c-.146-.488-.389-.958-.57-1.425a3.89,3.89,0,0,1-.443-1.135c.369.017.644.767.82,1.04a7.206,7.206,0,0,1,.685,1.253,3.815,3.815,0,0,1,.053,2.058,6.674,6.674,0,0,1-1.186,2.913,4.978,4.978,0,0,1-1.386,1.377,7.349,7.349,0,0,1-1.25.319,5.964,5.964,0,0,1-2.358.1,5.441,5.441,0,0,1-2.357-.913,3.008,3.008,0,0,1-.993-.867,6.14,6.14,0,0,1-.484-1.221,5.837,5.837,0,0,1,.984-5.762,3.075,3.075,0,0,1,.7-.689c.152-.079.385-.023.483-.2Z" transform="translate(-695.519 -325.509)" fill="#f8b310" opacity="0.4" style="mix-blend-mode: multiply;isolation: isolate"/>
        <path id="Path_15057" data-name="Path 15057" d="M696.337,320.722a11.349,11.349,0,0,1-1.37.69,5.52,5.52,0,0,0-1.664,1.553,6.375,6.375,0,0,0-1.309,3.852,10.212,10.212,0,0,0,.284,1.939,4.353,4.353,0,0,0,.52,1.2,4.585,4.585,0,0,0,.625.914,12.571,12.571,0,0,1-.574-1.456,4.653,4.653,0,0,1-.481-1.625c-.013-.464-.082-.947-.053-1.41a3.983,3.983,0,0,1,.331-1.6c.092-.158.219-.277.3-.441s.144-.365.223-.543a4.381,4.381,0,0,1,.823-1.01,4.967,4.967,0,0,1,1.2-.912,4.413,4.413,0,0,1,1.23-.536c.2-.052,1.033-.331.549-.6a.9.9,0,0,0-.734.02Z" transform="translate(-691.772 -320.31)" fill="#ffbf17"/>
        <path id="Path_15058" data-name="Path 15058" d="M706.485,326.695c-.156-.01-.238.237-.317.349a2.387,2.387,0,0,0-.415.777,1.877,1.877,0,0,0,.219,1.6,1.786,1.786,0,0,0,.7.467c.378.159.572.048.861-.236.25-.246.355-.4.7-.41a1.307,1.307,0,0,0,.867-.3c.656-.594,1.2-2.076.183-2.59a2.643,2.643,0,0,0-2.067.009c-.221.1-.672.2-.823.383Z" transform="translate(-701.991 -324.408)" fill="#ffbf17"/>
        <path id="Path_15059" data-name="Path 15059" d="M709.007,327.644c-.206-.04-.367.25-.463.394a1.211,1.211,0,0,0-.315,1.013c.315.921,1.591.106,1.887-.4.263-.452.279-.894-.249-1.068-.276-.093-.832-.057-1,.215Z" transform="translate(-703.874 -325.444)" fill="#ffc948"/>
      </g>
    </g>
  </g>
</svg>
