<svg xmlns="http://www.w3.org/2000/svg" xmlns:xlink="http://www.w3.org/1999/xlink" width="38.777" height="43.48" viewBox="0 0 38.777 43.48">
  <defs>
    <filter id="Path_33974" x="0" y="0" width="38.777" height="43.48" filterUnits="userSpaceOnUse">
      <feOffset dy="2" input="SourceAlpha"/>
      <feGaussianBlur stdDeviation="1" result="blur"/>
      <feFlood flood-opacity="0.161"/>
      <feComposite operator="in" in2="blur"/>
      <feComposite in="SourceGraphic"/>
    </filter>
    <radialGradient id="radial-gradient" cx="0.5" cy="0.5" r="0.471" gradientUnits="objectBoundingBox">
      <stop offset="0" stop-color="#ffdb8b"/>
      <stop offset="1" stop-color="#ffc340"/>
    </radialGradient>
  </defs>
  <g id="J0DRzd.tif" transform="translate(3 1)">
    <g id="Group_49693" data-name="Group 49693">
      <g transform="matrix(1, 0, 0, 1, -3, -1)" filter="url(#Path_33974)">
        <path id="Path_33974-2" data-name="Path 33974" d="M-1570.492,535.206a27.912,27.912,0,0,0,9.546,5.433,19.169,19.169,0,0,0,4.776.947c.413.026.825.045,1.238.059a.56.56,0,0,1,.595.6c0,2.5.068,5-.023,7.495a25.234,25.234,0,0,1-2.928,10.9,25.944,25.944,0,0,1-4.1,5.747,25.191,25.191,0,0,1-8.052,5.765c-1.6.721-.955.7-2.531,0a25.03,25.03,0,0,1-7.232-4.932,25.848,25.848,0,0,1-6.275-9.609,26.535,26.535,0,0,1-1.446-6.011,8.965,8.965,0,0,0-.16-1.323v-8.265a.825.825,0,0,1,.81-.372,8.46,8.46,0,0,0,1.017-.051,18.483,18.483,0,0,0,4.527-.859,27.77,27.77,0,0,0,9.8-5.52Zm-14.257,11.944c.045.836-.019,1.856.056,2.88a24.4,24.4,0,0,0,.494,3.594,23.793,23.793,0,0,0,3.646,8.366,23.631,23.631,0,0,0,4.5,4.892,23.231,23.231,0,0,0,5.028,3.131.681.681,0,0,0,.6.019,18.7,18.7,0,0,0,2.2-1.149,23.39,23.39,0,0,0,5.97-5.067,24.718,24.718,0,0,0,3.4-5.328,23.488,23.488,0,0,0,2.182-8.956c.076-1.679.018-3.364.011-5.046a.65.65,0,0,0-.618-.649c-.24-.025-.483-.042-.721-.081a26.188,26.188,0,0,1-7.287-2.342,31.59,31.59,0,0,1-4.922-2.977c-.43-.316-.578-.292-.978,0a30.247,30.247,0,0,1-8.325,4.372,22.114,22.114,0,0,1-4.6,1.026.665.665,0,0,0-.619.678C-1584.751,545.332-1584.75,546.149-1584.75,547.15Z" transform="translate(1590.09 -534.21)" fill="#d67c00"/>
      </g>
      <path id="Path_33975" data-name="Path 33975" d="M-1555.184,585.118c0-1,0-1.818,0-2.635a.665.665,0,0,1,.619-.677,22.124,22.124,0,0,0,4.6-1.026,30.244,30.244,0,0,0,8.325-4.372c.4-.294.547-.318.978,0a31.612,31.612,0,0,0,4.922,2.977,26.181,26.181,0,0,0,7.287,2.342c.238.038.48.055.721.081a.65.65,0,0,1,.618.649c.007,1.682.064,3.367-.011,5.046a23.489,23.489,0,0,1-2.182,8.956,24.706,24.706,0,0,1-3.4,5.328,23.392,23.392,0,0,1-5.971,5.067,18.657,18.657,0,0,1-2.2,1.149.681.681,0,0,1-.6-.019,23.221,23.221,0,0,1-5.029-3.132,23.62,23.62,0,0,1-4.5-4.892,23.79,23.79,0,0,1-3.646-8.366,24.373,24.373,0,0,1-.493-3.594C-1555.2,586.974-1555.139,585.954-1555.184,585.118Zm9.275,11.955a.61.61,0,0,0,.289.6.708.708,0,0,0,.756-.069c1.158-.619,2.32-1.23,3.476-1.852a.442.442,0,0,1,.472-.008c1.156.623,2.318,1.233,3.475,1.853a.7.7,0,0,0,.818.044.7.7,0,0,0,.214-.765q-.341-1.965-.7-3.926a.333.333,0,0,1,.1-.328c.966-.927,1.856-1.931,2.871-2.808a.753.753,0,0,0,.283-.812.594.594,0,0,0-.668-.393.753.753,0,0,1-.145-.017c-1.217-.188-2.433-.391-3.654-.552a.566.566,0,0,1-.517-.354c-.546-1.142-1.106-2.277-1.665-3.413-.146-.3-.33-.533-.722-.495-.321.031-.453.259-.572.5q-.85,1.718-1.685,3.444a.483.483,0,0,1-.427.317c-1.354.176-2.7.38-4.054.578a.541.541,0,0,0-.473.354.63.63,0,0,0,.122.685c1.053.925,1.979,1.979,3,2.933a.316.316,0,0,1,.131.311q-.2,1.107-.392,2.214Q-1545.739,596.091-1545.91,597.074Z" transform="translate(1557.524 -573.174)" fill="url(#radial-gradient)"/>
      <path id="Path_33976" data-name="Path 33976" d="M-1461.136,693.048q.171-.982.343-1.965.195-1.107.392-2.214a.315.315,0,0,0-.131-.311c-1.024-.954-1.951-2.008-3-2.933a.63.63,0,0,1-.122-.685.54.54,0,0,1,.473-.355c1.351-.2,2.7-.4,4.054-.578a.484.484,0,0,0,.428-.317q.835-1.726,1.685-3.444c.118-.239.25-.467.572-.5.391-.038.575.2.722.495.558,1.136,1.118,2.271,1.665,3.413a.565.565,0,0,0,.517.354c1.221.16,2.437.364,3.654.552a.74.74,0,0,0,.145.017.594.594,0,0,1,.668.393.752.752,0,0,1-.284.812c-1.014.877-1.9,1.881-2.87,2.808a.333.333,0,0,0-.1.328q.355,1.962.7,3.926a.7.7,0,0,1-.214.765.7.7,0,0,1-.818-.044c-1.157-.62-2.32-1.23-3.475-1.853a.442.442,0,0,0-.472.008c-1.156.622-2.318,1.233-3.476,1.852a.709.709,0,0,1-.756.068A.61.61,0,0,1-1461.136,693.048Z" transform="translate(1472.75 -669.149)" fill="#f7a226"/>
    </g>
  </g>
</svg>
