<svg xmlns="http://www.w3.org/2000/svg" width="22.44" height="24.698" viewBox="0 0 22.44 24.698">
  <g id="Group_50123" data-name="Group 50123" transform="translate(-504.161 546.67)">
    <g id="Group_50108" data-name="Group 50108">
      <circle id="Ellipse_1373" data-name="Ellipse 1373" cx="10.5" cy="10.5" r="10.5" transform="translate(505.162 -543.566)" fill="#fff"/>
      <path id="Path_34399" data-name="Path 34399" d="M524.4-542.127a.312.312,0,0,0-.038-.438l-1.306-1.1a.312.312,0,0,0-.438.038l-.95,1.133a11.2,11.2,0,0,0-2.95-1.419v-1.862a.9.9,0,0,0-.9-.895h-4.876a.9.9,0,0,0-.9.895v1.862a11.186,11.186,0,0,0-2.95,1.419l-.95-1.133a.312.312,0,0,0-.438-.038l-1.306,1.1a.312.312,0,0,0-.038.438l.952,1.134a11.221,11.221,0,0,0,.263,15.866,11.221,11.221,0,0,0,15.865-.263,11.22,11.22,0,0,0,0-15.6Zm-9.015,17.845a8.911,8.911,0,0,1-8.911-8.911,8.911,8.911,0,0,1,8.911-8.911,8.912,8.912,0,0,1,8.911,8.911,8.912,8.912,0,0,1-8.911,8.911Z"/>
      <g id="Group_50122" data-name="Group 50122">
        <path id="Path_34479" data-name="Path 34479" d="M507.811-533.193a7.46,7.46,0,0,0,7.455,7.46v-14.92A7.46,7.46,0,0,0,507.811-533.193Z" fill="#ffb100"/>
      </g>
    </g>
  </g>
</svg>
