<svg xmlns="http://www.w3.org/2000/svg" width="22.44" height="24.694" viewBox="0 0 22.44 24.694">
  <g id="Group_50108" data-name="Group 50108" transform="translate(-1285.718 -1129.65)">
    <circle id="Ellipse_1373" data-name="Ellipse 1373" cx="10.5" cy="10.5" r="10.5" transform="translate(1286.72 1132.751)" fill="#fff"/>
    <path id="Path_34399" data-name="Path 34399" d="M1305.844,1134.19a.311.311,0,0,0-.038-.438l-1.306-1.1a.311.311,0,0,0-.438.038l-.95,1.133a11.172,11.172,0,0,0-2.95-1.419v-1.862a.9.9,0,0,0-.895-.895h-4.876a.9.9,0,0,0-.895.895v1.862a11.173,11.173,0,0,0-2.95,1.419l-.95-1.133a.311.311,0,0,0-.438-.038l-1.306,1.1a.311.311,0,0,0-.038.438l.952,1.134a11.22,11.22,0,1,0,16.128,0Zm-9.015,17.845a8.911,8.911,0,1,1,8.911-8.911A8.911,8.911,0,0,1,1296.829,1152.035Z" transform="translate(0.109)"/>
    <path id="Path_34398" data-name="Path 34398" d="M1390.045,1284.756a7.46,7.46,0,1,0,7.46,7.46h-7.46Z" transform="translate(-93.216 -149.092)" fill="#00d189"/>
  </g>
</svg>
