<svg xmlns="http://www.w3.org/2000/svg" width="24.395" height="25.494" viewBox="0 0 24.395 25.494">
  <g id="Group_50125" data-name="Group 50125" transform="translate(-537.348 547.466)">
    <g id="Group_50108" data-name="Group 50108">
      <circle id="Ellipse_1373" data-name="Ellipse 1373" cx="10.5" cy="10.5" r="10.5" transform="translate(540.303 -543.566)" fill="#fff"/>
      <path id="Path_34399" data-name="Path 34399" d="M559.536-542.127a.31.31,0,0,0-.038-.438l-1.306-1.1a.312.312,0,0,0-.438.038l-.95,1.133a11.186,11.186,0,0,0-2.95-1.419v-1.862a.9.9,0,0,0-.9-.895h-4.876a.9.9,0,0,0-.9.895v1.862a11.216,11.216,0,0,0-2.95,1.419l-.95-1.133a.31.31,0,0,0-.437-.038l-1.307,1.1a.311.311,0,0,0-.037.438l.952,1.134a11.221,11.221,0,0,0,.262,15.866,11.222,11.222,0,0,0,15.866-.263,11.22,11.22,0,0,0,0-15.6Zm-9.015,17.845a8.912,8.912,0,0,1-8.911-8.911,8.912,8.912,0,0,1,8.911-8.911,8.911,8.911,0,0,1,8.911,8.911,8.911,8.911,0,0,1-8.911,8.911Z"/>
    </g>
    <g id="Group_50124" data-name="Group 50124">
      <path id="Path_34480" data-name="Path 34480" d="M553.526-547.466H537.348v14.258h5.6a7.461,7.461,0,0,1,7.454-7.445v7.445h3.119Z" fill="none"/>
      <path id="Path_34481" data-name="Path 34481" d="M542.953-533.208h7.454v-7.445A7.461,7.461,0,0,0,542.953-533.208Z" fill="red"/>
    </g>
  </g>
</svg>
