<svg id="Group_52165" data-name="Group 52165" xmlns="http://www.w3.org/2000/svg" width="71.456" height="61.206" viewBox="0 0 71.456 61.206">
  <g id="EGwEt9.tif">
    <g id="Group_2929" data-name="Group 2929">
      <path id="Path_5332" data-name="Path 5332" d="M96.107,634.887c1.262.035,2.534-.016,3.782.133a6.594,6.594,0,0,1,2.136,1.034,10.029,10.029,0,0,1-1.318.7c-1.529.766-3.038,1.573-4.608,2.256a.743.743,0,0,0-.362.327,3.03,3.03,0,0,0-.844-.08H70.035c-.2,0-.4.014-.6.021l-15.154-.011-10.323.007c-.65-.128-1.3-.261-1.95-.383q-2-.376-4.01-.742c-1.189-.218-2.389-.387-3.555-.718-.516-.458-1.023-.927-1.551-1.37-.276-.232-.469-.448-.168-.788.395-.372.888-.273,1.358-.277.312,0,.624.009.936.015l1.1-.088.462-.018,2.57.015c.25-.03.513.076.751-.073l.648-.011a.546.546,0,0,0,0,.094c-.975.274-1.95.547-2.924.827-.122.035-.281.071-.274.244.006.127.128.129.229.137.811.067,1.621.163,2.433.2,1.414.056,2.827.15,4.238.187,1.516.038,3.025.174,4.538.241.563.025,1.133.031,1.693.093,1.769.194,3.548.213,5.32.37,1.571.139,3.151.218,4.727.3,1.877.1,3.747.3,5.629.335a12.148,12.148,0,0,1,1.69.111,18.2,18.2,0,0,0,3.838-.048c1.541-.074,3.078-.248,4.617-.377.878-.074,1.756-.135,2.633-.217,1.3-.121,2.607-.273,3.913-.379,1.508-.122,3.019-.191,4.526-.316,1.969-.163,3.932-.41,5.907-.485A4.343,4.343,0,0,0,96.107,634.887Z" transform="translate(-30.687 -583.457)" fill="#698234"/>
      <path id="Path_5333" data-name="Path 5333" d="M97.547,634.826a4.342,4.342,0,0,1-2.826,1.256c-1.976.075-3.938.322-5.907.485-1.507.125-3.018.194-4.526.316-1.306.106-2.609.257-3.913.379-.877.081-1.755.143-2.633.217-1.538.129-3.075.3-4.617.377a18.2,18.2,0,0,1-3.838.048,12.148,12.148,0,0,0-1.69-.111c-1.882-.035-3.752-.238-5.629-.335-1.576-.081-3.156-.16-4.727-.3-1.771-.157-3.551-.175-5.32-.37-.56-.062-1.13-.068-1.693-.093-1.513-.067-3.022-.2-4.538-.241-1.412-.037-2.825-.131-4.238-.187-.812-.032-1.622-.128-2.433-.2-.1-.008-.223-.009-.229-.137-.008-.173.151-.209.274-.244.974-.28,1.949-.552,2.924-.827a2.359,2.359,0,0,1,.738-.1c2.066.009,4.129.121,6.193.188,2.181.071,4.364.093,6.544.212,1.131.061,2.265.038,3.4.078,2.331.08,4.663.142,7,.207,1.831.051,3.667.065,5.5-.055,1.642-.107,3.292-.146,4.938-.209,1.664-.063,3.327-.159,4.99-.194,1.966-.042,3.927-.18,5.892-.212,1.233-.021,2.463-.177,3.7-.116a.723.723,0,0,0,.231-.069c.514-.1,1.017.116,1.529.053l1.507.059a1.167,1.167,0,0,0,1.211.043A18.767,18.767,0,0,1,97.547,634.826Z" transform="translate(-32.127 -583.396)" fill="#7d9c3a"/>
      <path id="Path_5334" data-name="Path 5334" d="M95.541,642.927c-.038.033-.077.065-.113.1a4.223,4.223,0,0,1-2.882,1.007c-5.268.336-10.534.714-15.8,1.078-1.017.07-2.033.146-3.05.214a21.2,21.2,0,0,1-2.991-.242,1.3,1.3,0,0,0-.544-.017,2.548,2.548,0,0,1-1.94-.139,1.532,1.532,0,0,0-.592-.067q-7.664.3-15.327.6-4.633.182-9.266.372c-.212.008-.45.062-.582-.178-.671-1.224-1.895-1.518-3.1-1.885-2.154-.659-4.3-1.355-6.445-2.032a.844.844,0,0,1-.521-.359,13.791,13.791,0,0,1-.967-1.451c.572.16.841.717,1.318,1,.345.386.844.328,1.282.438,1.507.378,3.011.772,4.53,1.1,1.213.264,2.425.525,3.619.866a3.364,3.364,0,0,1,.214.444.843.843,0,0,0,1.033.664c1.79-.2,3.593-.063,5.39-.179,1.628-.105,3.267.03,4.9-.127,4.923.015,9.839-.3,14.762-.316a3.272,3.272,0,0,1,.642.08,5.355,5.355,0,0,0,1.46.293c1.826-.075,3.649-.253,5.476-.337q2.843-.13,5.683-.313,2.516-.163,5.033-.3c2.078-.112,4.157-.208,6.235-.32.814-.044,1.626-.11,2.438-.167Z" transform="translate(-30.422 -584.637)" fill="#b1683f"/>
      <path id="Path_5335" data-name="Path 5335" d="M30.732,619.935a.582.582,0,0,1-.363-.439,3.92,3.92,0,0,1,.679-2.44,1.318,1.318,0,0,1,1.707-.6,1.8,1.8,0,0,0,.921.165c.108-.018.251-.044.27-.181s-.121-.139-.2-.188a2.276,2.276,0,0,0-.941-.31c-.347-.041-.38-.168-.162-.4a3.474,3.474,0,0,1,1.438-.935,8.54,8.54,0,0,1,2.664-.3,1.085,1.085,0,0,1,.533,1,.543.543,0,0,0,.539.563c.018.122.1.163.211.154l-.007-.006c.161.562-.018,1.162.268,1.728.154.3-.085.634-.416.817-.264.147-.458.318-.287.676a.434.434,0,0,1-.164.49,2.108,2.108,0,0,1-.941.516c-.445.124-.541.006-.371-.4.024-.035.048-.071.071-.108l-.035-.024-.04.129c-.324.122-.363.411-.406.7-.317.052-.4-.1-.395-.4.014-.833.008-1.666,0-2.5,0-.151.077-.333-.089-.448-.194,1.155.168,2.407-.624,3.455l-.449,0c-.818,0-.821,0-1.046-.8-.031-.109-.073-.211-.189-.174A7.865,7.865,0,0,1,30.732,619.935Zm5.521-.449.021-.068-.038.011Z" transform="translate(-30.177 -578.704)" fill="#8e9a38"/>
      <path id="Path_5336" data-name="Path 5336" d="M112.093,614.5a1.719,1.719,0,0,1,.3.878.473.473,0,0,0,.4.479.316.316,0,0,0,.438.227l.007.008c-.008.457-.181.891.108,1.372a.725.725,0,0,1-.319,1.031c-.165.087-.443.19-.408.446.038.28.158.547-.075.8a1.931,1.931,0,0,1-.771.449c-.191.072-.446.237-.6.1s.138-.339.116-.539l.073-.107-.038-.025-.038.13c-.314.128-.374.436-.5.7-.1-.022-.287.15-.3-.1a19.622,19.622,0,0,1-.055-2.134,2.43,2.43,0,0,0-.1-.991c-.3.09-.355.286-.351.547.012.807,0,1.614,0,2.463-.6-.337-.6-.337-.6.274,0,.017,0,.034,0,.05-.721.259-1.077.068-1.206-.665-.035-.2-.118-.271-.3-.187a5.182,5.182,0,0,1-2.138.158l-.081-.076-.1-.131-.007.013a3.058,3.058,0,0,1,.526-2.5c.614-.886.841-.989,1.882-.643a1.976,1.976,0,0,0,.784.115c.122-.01.252-.027.288-.154.048-.171-.1-.232-.224-.277a2.794,2.794,0,0,0-.9-.267c-.384-.006-.35-.168-.156-.38a3.57,3.57,0,0,1,1.518-.985,9.293,9.293,0,0,1,2.567-.268l.269.211Z" transform="translate(-47.572 -578.703)" fill="#8e9a38"/>
      <path id="Path_5337" data-name="Path 5337" d="M78.849,568.413l9.857,2.9a4.1,4.1,0,0,1,1.158.489l-11.025,4.034C78.809,573.361,78.792,570.886,78.849,568.413Z" transform="translate(-41.396 -568.074)" fill="#d93f28"/>
      <path id="Path_5338" data-name="Path 5338" d="M114.835,642.115l-.1-.167q.017-1.125.034-2.249a.743.743,0,0,1,.362-.327c1.57-.683,3.079-1.49,4.608-2.256a10.029,10.029,0,0,0,1.318-.7c.217.657.148.994-.314,1.335Q117.79,639.941,114.835,642.115Z" transform="translate(-49.716 -583.825)" fill="#bf8e42"/>
      <path id="Path_5339" data-name="Path 5339" d="M112.318,620.982c.126-.263.186-.572.5-.7l0,0c.022.2-.278.393-.116.539s.412-.024.6-.1a1.931,1.931,0,0,0,.771-.449c.233-.251.112-.518.075-.8-.035-.257.243-.36.408-.446a.725.725,0,0,0,.319-1.031c-.289-.482-.116-.915-.108-1.372.032.009.086.013.09.029.143.611.672.731,1.145.973a1.746,1.746,0,0,1,.048,2.854,2.409,2.409,0,0,1-.466.291c-.3.141-.566.264-.628.67-.048.311-.378.443-.661.558a5.937,5.937,0,0,1-2.167.325A2.18,2.18,0,0,1,112.318,620.982Z" transform="translate(-49.108 -579.241)" fill="#798136"/>
      <path id="Path_5340" data-name="Path 5340" d="M37.633,620.364c-.17.407-.074.525.371.4a2.107,2.107,0,0,0,.941-.516.434.434,0,0,0,.164-.49c-.171-.358.022-.529.287-.676.331-.183.569-.513.416-.817-.287-.566-.108-1.166-.268-1.728a.373.373,0,0,1,.357.3c.064.415.329.516.691.624a1.684,1.684,0,0,1,.573,2.789,2.008,2.008,0,0,1-.509.4c-.375.2-.745.34-.85.857-.068.332-.478.436-.793.543a5.869,5.869,0,0,1-1.973.251.583.583,0,0,1,.05-.735.68.68,0,0,0,.133-.51c.043-.286.081-.575.406-.7Z" transform="translate(-31.697 -579.22)" fill="#798136"/>
      <path id="Path_5341" data-name="Path 5341" d="M111.96,621.32a2.18,2.18,0,0,0-.184,1.349q.045,3.974.089,7.948a.377.377,0,0,0,.114.317,1.167,1.167,0,0,1-1.211-.043c.19-.094.169-.279.171-.438q.046-3.76.079-7.519a1.318,1.318,0,0,0-.065-.29,1.071,1.071,0,0,0-.393-1.219c0-.016,0-.033,0-.05,0-.61,0-.61.6-.274,0-.848.008-1.656,0-2.463,0-.261.048-.457.351-.547a2.43,2.43,0,0,1,.1.991,19.622,19.622,0,0,0,.055,2.134C111.673,621.47,111.856,621.3,111.96,621.32Z" transform="translate(-48.75 -579.58)" fill="#b1683f"/>
      <path id="Path_5342" data-name="Path 5342" d="M36.949,621.412a.68.68,0,0,1-.133.51.582.582,0,0,0-.05.735c-.055,1.963.024,3.924.054,5.886q.018,1.248.034,2.495l-1.1.088c.13-.088.131-.221.132-.356q.055-3.943.108-7.885a1.175,1.175,0,0,0-.049-.243c.194-.395-.144-.74-.1-1.12.791-1.048.43-2.3.624-3.455.166.115.088.3.089.448.009.834.015,1.667,0,2.5C36.55,621.311,36.632,621.464,36.949,621.412Z" transform="translate(-31.424 -579.574)" fill="#b1683f"/>
      <path id="Path_5343" data-name="Path 5343" d="M32.6,639.88c-.476-.284-.746-.841-1.318-1l.009,0a.161.161,0,0,0-.1-.205l.006.006-.155-.107a.509.509,0,0,1-.188-.645,12.6,12.6,0,0,0,.592-2.037c.057-.413.523-.42.871-.492-.3.34-.108.556.168.788.528.443,1.035.912,1.55,1.37Z" transform="translate(-30.279 -583.589)" fill="#dab16f"/>
      <path id="Path_5344" data-name="Path 5344" d="M78.7,568.311c-.052,1.729-.036,3.457-.009,5.186-.012.138-.025.275-.036.413a.28.28,0,0,0,0,.394v.206c-.012.009-.033.022-.032.027a.368.368,0,0,0,.03.069v3.011c-.393.174.011.629-.286.857-.159-.171-.09-.361-.09-.531q-.007-4.648,0-9.3a1.068,1.068,0,0,0-.09-.632C78.455,567.944,78.7,567.914,78.7,568.311Z" transform="translate(-41.252 -567.972)" fill="#24435b"/>
      <path id="Path_5345" data-name="Path 5345" d="M109.463,622.163a1.071,1.071,0,0,1,.393,1.219,5.92,5.92,0,0,1-1.436-.1c-.553-.128-1.013-.361-1.038-1.019-.009-.224-.171-.2-.306-.245a2.852,2.852,0,0,1-1.255-.549,5.182,5.182,0,0,0,2.138-.158c.181-.084.264-.015.3.187C108.386,622.231,108.742,622.422,109.463,622.163Z" transform="translate(-47.652 -580.317)" fill="#798136"/>
      <path id="Path_5346" data-name="Path 5346" d="M34.7,622.266c-.04.38.3.725.1,1.12a5.452,5.452,0,0,1-1.537-.121c-.5-.141-.957-.35-.951-.98,0-.257-.194-.236-.337-.277a3.145,3.145,0,0,1-1.141-.459,7.865,7.865,0,0,0,2.178-.263c.116-.037.158.065.189.174.225.8.227.8,1.046.8Z" transform="translate(-30.287 -580.317)" fill="#798136"/>
      <path id="Path_5347" data-name="Path 5347" d="M111.773,614.22a9.3,9.3,0,0,0-2.567.268,3.571,3.571,0,0,0-1.518.985c-.194.213-.228.374.156.38a2.8,2.8,0,0,1,.9.267c.122.045.273.105.224.277-.036.127-.166.144-.288.154a1.976,1.976,0,0,1-.784-.115c-1.04-.346-1.268-.243-1.882.643a3.058,3.058,0,0,0-.526,2.5c-.216-.108-.217-.317-.246-.514a3.709,3.709,0,0,1,.831-2.7.458.458,0,0,1,.224-.194,2.257,2.257,0,0,0,1.259-1.018,4.489,4.489,0,0,1,4.027-1.085C111.659,614.089,111.712,614.167,111.773,614.22Z" transform="translate(-47.512 -578.617)" fill="#97b546"/>
      <path id="Path_5348" data-name="Path 5348" d="M36.689,614.232a8.54,8.54,0,0,0-2.664.3,3.473,3.473,0,0,0-1.438.935c-.218.232-.185.36.162.4a2.276,2.276,0,0,1,.941.31c.079.049.217.065.2.188s-.162.162-.27.181a1.8,1.8,0,0,1-.921-.165,1.318,1.318,0,0,0-1.707.6,3.92,3.92,0,0,0-.679,2.44,2.455,2.455,0,0,1,.185-2.232c.305-.583.584-1.216,1.392-1.265.074,0,.169-.113.207-.2a3.154,3.154,0,0,1,2.576-1.652,3.882,3.882,0,0,1,1.833.005C36.576,614.1,36.628,614.178,36.689,614.232Z" transform="translate(-30.119 -578.623)" fill="#97b546"/>
      <path id="Path_5349" data-name="Path 5349" d="M78.156,568.026a1.068,1.068,0,0,1,.09.632q0,4.647,0,9.3c0,.17-.069.36.09.531.3-.228-.108-.682.286-.857a8.95,8.95,0,0,1,0,1.478l-.037.009c-.1-.347-.267-.406-.513-.118q0-5.229.008-10.459C78.078,568.37,77.986,568.174,78.156,568.026Z" transform="translate(-41.221 -567.984)" fill="#34516f"/>
      <path id="Path_5350" data-name="Path 5350" d="M115.436,616.553a.316.316,0,0,1-.438-.227C115.182,616.328,115.358,616.345,115.436,616.553Z" transform="translate(-49.777 -579.171)" fill="#798136"/>
      <path id="Path_5351" data-name="Path 5351" d="M40.275,616.5c-.114.009-.193-.032-.211-.154A.192.192,0,0,1,40.275,616.5Z" transform="translate(-32.423 -579.174)" fill="#798136"/>
      <path id="Path_5352" data-name="Path 5352" d="M78.775,576.093a.28.28,0,0,1,0-.394Z" transform="translate(-41.369 -569.761)" fill="#34516f"/>
      <path id="Path_5353" data-name="Path 5353" d="M31.3,639.663a.161.161,0,0,1,.1.205C31.3,639.835,31.243,639.777,31.3,639.663Z" transform="translate(-30.387 -584.576)" fill="#b1683f"/>
      <path id="Path_5354" data-name="Path 5354" d="M105.585,621.258l.1.131Z" transform="translate(-47.597 -580.313)" fill="#798136"/>
      <path id="Path_5355" data-name="Path 5355" d="M31.109,639.532l.155.107C31.167,639.67,31.141,639.6,31.109,639.532Z" transform="translate(-30.349 -584.545)" fill="#b1683f"/>
      <path id="Path_5356" data-name="Path 5356" d="M114.087,614.561l.01.014Z" transform="translate(-49.566 -578.762)" fill="#97b546"/>
      <path id="Path_5357" data-name="Path 5357" d="M78.789,576.576a.369.369,0,0,1-.03-.069c0-.005.02-.018.032-.027Z" transform="translate(-41.384 -569.942)" fill="#34516f"/>
      <path id="Path_5358" data-name="Path 5358" d="M42.95,634.52a13.057,13.057,0,0,1,2.147-.187,4.423,4.423,0,0,0,1.327-.078c.3.151.589,0,.883-.007q2.876-.111,5.752-.222c2.517-.1,5.035-.179,7.551-.3,1.833-.091,3.668-.128,5.5-.212,2.138-.1,4.267.086,6.4.138,1.984.049,3.967.154,5.953.191,1.466.028,2.931.1,4.4.148q3.511.125,7.022.251c.73.027,1.46.07,2.19.106a.723.723,0,0,1-.231.069c-1.236-.061-2.465.1-3.7.116-1.965.032-3.927.171-5.892.212-1.663.035-3.326.131-4.99.194-1.647.063-3.3.1-4.938.209-1.837.12-3.673.105-5.5.055-2.332-.065-4.664-.127-7-.207-1.133-.039-2.267-.016-3.4-.078-2.181-.119-4.363-.141-6.544-.212-2.064-.067-4.127-.179-6.193-.188a2.357,2.357,0,0,0-.738.1A.546.546,0,0,1,42.95,634.52Z" transform="translate(-33.09 -583.144)" fill="#97b546"/>
      <path id="Path_5359" data-name="Path 5359" d="M106.637,640.663q-.017,1.125-.034,2.249c-.812.057-1.624.123-2.438.167-2.078.111-4.157.208-6.235.32q-2.517.136-5.033.3-2.84.184-5.683.314c-1.827.084-3.65.261-5.476.337a5.357,5.357,0,0,1-1.46-.293,3.217,3.217,0,0,0-.643-.079c.154-1.139.483-2.241.7-3.367.2-.008.4-.021.6-.021l24.858,0A3.028,3.028,0,0,1,106.637,640.663Z" transform="translate(-41.587 -584.789)" fill="#dab16f"/>
      <path id="Path_5360" data-name="Path 5360" d="M75.885,640.61c-.216,1.126-.546,2.228-.7,3.367-4.922.013-9.838.33-14.761.315,0-.818.2-1.616.25-2.427.028-.42.245-.836.056-1.266Z" transform="translate(-37.138 -584.792)" fill="#bf8e42"/>
      <path id="Path_5361" data-name="Path 5361" d="M57.254,640.6c.189.43-.028.846-.056,1.266-.054.811-.254,1.608-.25,2.427-1.63.157-3.269.021-4.9.127-1.8.116-3.6-.024-5.39.179a.843.843,0,0,1-1.033-.664,3.364,3.364,0,0,0-.214-.444c.376-.834.9-1.584,1.349-2.376a1,1,0,0,0,.168-.508Z" transform="translate(-33.662 -584.792)" fill="#dab16f"/>
      <path id="Path_5362" data-name="Path 5362" d="M44.088,640.053a1,1,0,0,1-.168.508c-.449.792-.973,1.542-1.349,2.376-1.194-.341-2.406-.6-3.619-.866-1.518-.33-3.023-.724-4.53-1.1-.438-.11-.937-.052-1.282-.438l1.432-2.321c1.166.331,2.366.5,3.555.718q2.006.368,4.01.742C42.789,639.791,43.438,639.924,44.088,640.053Z" transform="translate(-30.819 -584.239)" fill="#bf8e42"/>
      <path id="Path_5363" data-name="Path 5363" d="M41.131,634.888c.225-.284.489-.169.751-.073C41.644,634.964,41.381,634.858,41.131,634.888Z" transform="translate(-32.67 -583.428)" fill="#97b546"/>
      <path id="Path_5364" data-name="Path 5364" d="M37.838,621.474l.04-.129.035.024c-.022.037-.047.073-.071.108Z" transform="translate(-31.907 -580.333)" fill="#798136"/>
      <path id="Path_5365" data-name="Path 5365" d="M38.022,621.025l-.017-.057.038-.011Z" transform="translate(-31.946 -580.243)" fill="#798136"/>
      <path id="Path_5366" data-name="Path 5366" d="M113.033,621.344l.038-.13.038.025-.073.107Z" transform="translate(-49.322 -580.303)" fill="#798136"/>
    </g>
  </g>
  <path id="Path_5367" data-name="Path 5367" d="M41.755,629.9l-.647.011c-.262-.1-.526-.211-.751.073l-2.57-.015c.718-1.3,1.571-2.513,2.37-3.761q3.945-6.171,7.921-12.323c.078-.121.121-.278.279-.338a16.357,16.357,0,0,1,1.833,2.475c.172.234.051.486-.035.718q-1.047,2.805-2.1,5.607c-.855,2.269-1.718,4.535-2.566,6.806a4.15,4.15,0,0,1-.257.481,4.421,4.421,0,0,1-1.327.078A13.057,13.057,0,0,0,41.755,629.9Z" transform="translate(-31.895 -578.528)" fill="#43769b"/>
  <path id="Path_5368" data-name="Path 5368" d="M70.671,597.034c-.215.088-.251.3-.314.482q-.266.8-.536,1.594c-.387,1.15-.775,2.3-1.145,3.455-.293.916-.572,1.835-.916,2.733a5.132,5.132,0,0,0-.107,1.536c-.012.166.081.39-.2.436v-.9c-.08.152-.225.266-.262.409-.055.211-.136.5.264.489-.659.225-.581.9-.781,1.375a17.129,17.129,0,0,0-.577,1.681c-.082.275-.164.55-.251.824-.1.31-.235.426-.525.175-.639-.555-1.281-1.107-1.933-1.647-.83-.687-1.616-1.429-2.5-2.052a1.216,1.216,0,0,0,.364-.747c1.919-2.865,3.625-5.8,5.416-8.743.529-.87,1.561-2.706,1.783-3.045.677.613,1.375,1.2,2.1,1.751Z" transform="translate(-37.246 -574.253)" fill="#43769b"/>
  <path id="Path_5369" data-name="Path 5369" d="M84.723,594.68l-3.129-.685q-.42-1.639-.839-3.278-1.053-4.122-2.1-8.246a.1.1,0,0,1,.072-.015l.037-.009q1.841,3.726,3.681,7.453,1.127,2.289,2.241,4.587A.834.834,0,0,1,84.723,594.68Z" transform="translate(-41.359 -571.324)" fill="#b2bcc7"/>
  <path id="Path_5370" data-name="Path 5370" d="M72.838,593.825c-.73-.549-1.428-1.138-2.1-1.751-.014-.19,4.776-8.3,5.642-9.826.247-.287.413-.229.513.118a.094.094,0,0,0-.071.015c-.194.058-.214.229-.263.389-.15.487-.3.974-.466,1.456a14.492,14.492,0,0,0-.611,1.718c-.217,1.036-.729,1.966-.961,3-.147.653-.479,1.262-.659,1.909C73.577,591.864,73.168,592.83,72.838,593.825Z" transform="translate(-39.526 -571.236)" fill="#e7ebf2"/>
  <path id="Path_5371" data-name="Path 5371" d="M73.472,593.921c.33-1,.739-1.961,1.02-2.974.18-.648.513-1.256.659-1.909.231-1.03.744-1.96.96-3a14.486,14.486,0,0,1,.611-1.718c.168-.482.317-.969.466-1.456.049-.16.069-.33.263-.389q1.051,4.123,2.1,8.246.418,1.639.839,3.278l-.1.115c-1.183.951-2.377,1.889-3.543,2.859-.338.281-.525.3-.819-.065-.758-.954-1.564-1.869-2.351-2.8Z" transform="translate(-40.16 -571.331)" fill="#dbe3eb"/>
  <path id="Path_5372" data-name="Path 5372" d="M85.858,624.946c-.242-.911-.536-1.813-.7-2.738-.264-1.514-.786-2.972-.953-4.5-.112-1.03-.851-1.449-1.642-1.876-1.251-.676-2.467-1.42-3.724-2.083a.888.888,0,0,1-.333-.293l-.828-3.108c-.05-.22-.1-.44-.154-.659-.145-.6-.3-1.19-.443-1.784-.018,0-.035,0-.052.005l-.494-1.852c.013-.051.028-.1.045-.154a3.808,3.808,0,0,1-.285-.961.61.61,0,0,0-.134-.29l-.66-2.477a6.793,6.793,0,0,0-.378-1.865,16.058,16.058,0,0,1-.465-1.9,1.247,1.247,0,0,0-.382-.834h0c-1.183.951-2.377,1.889-3.543,2.859-.338.281-.525.3-.819-.065-.758-.954-1.654-2.026-2.441-2.957-.131.344-.161.453-.224.64-.562,1.682-1.14,3.36-1.681,5.049-.293.916-.572,1.835-.916,2.733a1.561,1.561,0,0,0-.079.291l-2.05,5.866c-.079.021-.179-.016-.31-.131-.639-.555-1.281-1.107-1.933-1.647-.83-.687-1.616-1.429-2.5-2.052l-.545.074c-.8.192-1.61.382-2.414.577-1.406.341-2.837.576-4.224,1a16.351,16.351,0,0,1,1.833,2.475c.172.234.051.486-.035.718q-1.047,2.805-2.1,5.607c-.855,2.269-1.718,4.535-2.566,6.806a4.226,4.226,0,0,1-.257.482c.3.151.589,0,.883-.008q2.876-.111,5.752-.222c2.517-.1,5.035-.179,7.551-.3,1.833-.091,3.668-.128,5.5-.212,2.138-.1,4.267.086,6.4.138,1.984.049,3.967.154,5.953.191,1.466.028,2.931.1,4.4.148a6.348,6.348,0,0,1,1.536-.065C85.931,625.546,85.993,625.455,85.858,624.946Z" transform="translate(-34.138 -574.791)" fill="#34516f"/>
  <path id="Path_5373" data-name="Path 5373" d="M97.678,613.576a1.061,1.061,0,0,0-.476-.546c-1.737-1.031-3.451-2.1-5.207-3.1a2.629,2.629,0,0,1-1.321-1.594l-.151-.2-1.293-2.606-.085-.284h0l-.069-.131c-.566-1.131-1.123-2.266-1.7-3.392-.6-1.185-1.12-2.414-1.8-3.562l-3.129-.685-.1.115,1.22,4.629c0,.027-.007.053-.012.079.012.008.025.013.037.019l.121.456c-.023.015-.007.078.024.091l.442,1.677c-.012.023-.024.046-.035.069a.319.319,0,0,1,.062.034s.789,3.033.8,3.031l1.042,3.951c.025.1.051.2.078.3l.251.954a2.132,2.132,0,0,0,.112.426l.121.46.326.013c1.249.659,2.457,1.4,3.7,2.07.791.427,1.53.847,1.642,1.876.167,1.531.688,2.989.953,4.5.162.925.456,1.827.7,2.738.135.509.073.6-.414.622a6.345,6.345,0,0,0-1.536.065q3.511.125,7.022.25c.73.027,1.46.07,2.19.106.514-.1,1.017.116,1.529.053Q100.2,619.817,97.678,613.576Z" transform="translate(-42.217 -574.805)" fill="#24435b"/>
</svg>
