<svg xmlns="http://www.w3.org/2000/svg" width="92.022" height="91.113" viewBox="0 0 92.022 91.113">
  <g id="Group_52306" data-name="Group 52306" transform="translate(-726.708 -481.406)">
    <g id="Group_52296" data-name="Group 52296" transform="translate(727.244 493.53)">
      <rect id="Rectangle_5112" data-name="Rectangle 5112" width="48.455" height="7.576" transform="translate(0 0)" fill="#00a8df"/>
      <g id="Group_52295" data-name="Group 52295" transform="translate(73.89 1.882)">
        <g id="Group_52294" data-name="Group 52294">
          <path id="Path_36081" data-name="Path 36081" d="M1040.271,541.59a1.049,1.049,0,0,1,.754.266.954.954,0,0,1,.28.728,1.058,1.058,0,0,1-.337.842,1.421,1.421,0,0,1-.965.295,1.889,1.889,0,0,1-.88-.177v-.6a1.982,1.982,0,0,0,.855.212q.632,0,.632-.518,0-.493-.654-.493a1.609,1.609,0,0,0-.261.023,1.937,1.937,0,0,0-.232.05l-.275-.147.123-1.664h1.771V541h-1.166l-.06.641.078-.016A1.54,1.54,0,0,1,1040.271,541.59Z" transform="translate(-1039.123 -540.36)" fill="#6d6e71"/>
          <path id="Path_36082" data-name="Path 36082" d="M1052.121,541.879a2.278,2.278,0,0,1-.28,1.266.973.973,0,0,1-.863.411.961.961,0,0,1-.852-.424,2.244,2.244,0,0,1-.287-1.253,2.3,2.3,0,0,1,.279-1.274,1.086,1.086,0,0,1,1.714.019A2.245,2.245,0,0,1,1052.121,541.879Zm-1.6,0a2.538,2.538,0,0,0,.1.861.364.364,0,0,0,.7,0,3.485,3.485,0,0,0,0-1.721.362.362,0,0,0-.7,0A2.53,2.53,0,0,0,1050.524,541.879Z" transform="translate(-1047.285 -540.195)" fill="#6d6e71"/>
          <path id="Path_36083" data-name="Path 36083" d="M1062.246,541.235a1.251,1.251,0,0,1-.2.772.691.691,0,0,1-.583.258.672.672,0,0,1-.57-.265,1.246,1.246,0,0,1-.2-.765q0-1.02.771-1.021a.685.685,0,0,1,.579.265A1.223,1.223,0,0,1,1062.246,541.235Zm-.99,0a1.323,1.323,0,0,0,.05.423c.033.093.087.14.162.14q.215,0,.215-.563t-.215-.558c-.074,0-.128.046-.162.137A1.3,1.3,0,0,0,1061.257,541.239Zm2.526-.978-1.811,3.265h-.536l1.811-3.265Zm.751,2.278a1.248,1.248,0,0,1-.2.769.691.691,0,0,1-.583.258.673.673,0,0,1-.569-.265,1.243,1.243,0,0,1-.2-.763q0-1.021.77-1.021a.685.685,0,0,1,.58.265A1.226,1.226,0,0,1,1064.534,542.539Zm-.99,0a1.336,1.336,0,0,0,.05.423c.034.093.087.14.162.14q.214,0,.214-.563t-.214-.558c-.075,0-.128.045-.162.137A1.314,1.314,0,0,0,1063.544,542.543Z" transform="translate(-1055.555 -540.21)" fill="#6d6e71"/>
        </g>
      </g>
    </g>
    <g id="Group_52299" data-name="Group 52299" transform="translate(727.244 514.134)">
      <rect id="Rectangle_5114" data-name="Rectangle 5114" width="60.481" height="7.576" transform="translate(0 0)" fill="#00d5df"/>
      <g id="Group_52298" data-name="Group 52298" transform="translate(73.827 1.882)">
        <g id="Group_52297" data-name="Group 52297">
          <path id="Path_36084" data-name="Path 36084" d="M1040.008,626.721a1.239,1.239,0,0,1,.756.213.68.68,0,0,1,.287.575.752.752,0,0,1-.138.446,1.178,1.178,0,0,1-.446.349,1.582,1.582,0,0,1,.526.41.764.764,0,0,1,.16.468.778.778,0,0,1-.315.647,1.311,1.311,0,0,1-.828.245,1.383,1.383,0,0,1-.842-.228.757.757,0,0,1-.306-.645.855.855,0,0,1,.148-.5,1.237,1.237,0,0,1,.477-.382,1.22,1.22,0,0,1-.4-.377.828.828,0,0,1-.123-.44.675.675,0,0,1,.29-.567A1.233,1.233,0,0,1,1040.008,626.721Zm-.51,2.439a.362.362,0,0,0,.134.3.7.7,0,0,0,.75,0,.367.367,0,0,0,.127-.292.4.4,0,0,0-.126-.28,1.626,1.626,0,0,0-.41-.278Q1039.5,628.825,1039.5,629.16Zm.5-1.934a.431.431,0,0,0-.285.09.3.3,0,0,0-.108.242.372.372,0,0,0,.086.24.942.942,0,0,0,.312.218.868.868,0,0,0,.306-.21.382.382,0,0,0,.087-.248.3.3,0,0,0-.112-.243A.444.444,0,0,0,1040,627.226Z" transform="translate(-1038.86 -626.712)" fill="#6d6e71"/>
          <path id="Path_36085" data-name="Path 36085" d="M1052.121,628.368a2.277,2.277,0,0,1-.28,1.266.973.973,0,0,1-.863.411.962.962,0,0,1-.852-.424,2.243,2.243,0,0,1-.287-1.253,2.3,2.3,0,0,1,.279-1.274,1.086,1.086,0,0,1,1.714.019A2.244,2.244,0,0,1,1052.121,628.368Zm-1.6,0a2.537,2.537,0,0,0,.1.861.363.363,0,0,0,.7,0,3.486,3.486,0,0,0,0-1.721.362.362,0,0,0-.7,0A2.532,2.532,0,0,0,1050.524,628.368Z" transform="translate(-1047.223 -626.684)" fill="#6d6e71"/>
          <path id="Path_36086" data-name="Path 36086" d="M1062.246,627.723a1.252,1.252,0,0,1-.2.772.691.691,0,0,1-.583.258.673.673,0,0,1-.57-.265,1.247,1.247,0,0,1-.2-.765q0-1.021.771-1.021a.686.686,0,0,1,.579.265A1.224,1.224,0,0,1,1062.246,627.723Zm-.99,0a1.321,1.321,0,0,0,.05.423c.033.093.087.14.162.14q.215,0,.215-.563t-.215-.558c-.074,0-.128.046-.162.137A1.3,1.3,0,0,0,1061.257,627.727Zm2.526-.978-1.811,3.265h-.536l1.811-3.265Zm.751,2.278a1.249,1.249,0,0,1-.2.77.692.692,0,0,1-.583.258.673.673,0,0,1-.569-.265,1.242,1.242,0,0,1-.2-.763q0-1.021.77-1.021a.686.686,0,0,1,.58.265A1.226,1.226,0,0,1,1064.534,629.027Zm-.99,0a1.334,1.334,0,0,0,.05.423c.034.093.087.14.162.14q.214,0,.214-.563t-.214-.558c-.075,0-.128.046-.162.137A1.314,1.314,0,0,0,1063.544,629.032Z" transform="translate(-1055.493 -626.698)" fill="#6d6e71"/>
        </g>
      </g>
    </g>
    <g id="Group_52302" data-name="Group 52302" transform="translate(727.244 534.738)">
      <rect id="Rectangle_5116" data-name="Rectangle 5116" width="48.015" height="7.576" transform="translate(0 0)" fill="#00d0a8"/>
      <g id="Group_52301" data-name="Group 52301" transform="translate(73.789 1.886)">
        <g id="Group_52300" data-name="Group 52300">
          <path id="Path_36087" data-name="Path 36087" d="M1039.085,716.667l1.226-2.68h-1.61v-.581h2.343v.433l-1.235,2.828Z" transform="translate(-1038.701 -713.355)" fill="#6d6e71"/>
          <path id="Path_36088" data-name="Path 36088" d="M1051.23,714.568a1.049,1.049,0,0,1,.754.266.955.955,0,0,1,.28.728,1.059,1.059,0,0,1-.337.842,1.422,1.422,0,0,1-.965.294,1.889,1.889,0,0,1-.88-.176v-.6a1.834,1.834,0,0,0,.411.153,1.813,1.813,0,0,0,.445.06q.632,0,.632-.518,0-.494-.654-.494a1.665,1.665,0,0,0-.261.023,2.032,2.032,0,0,0-.232.05l-.275-.147.123-1.664h1.771v.585h-1.166l-.06.641.078-.015A1.536,1.536,0,0,1,1051.23,714.568Z" transform="translate(-1047.371 -713.341)" fill="#6d6e71"/>
          <path id="Path_36089" data-name="Path 36089" d="M1062.246,714.211a1.253,1.253,0,0,1-.2.772.692.692,0,0,1-.583.258.672.672,0,0,1-.57-.265,1.247,1.247,0,0,1-.2-.765q0-1.02.771-1.021a.685.685,0,0,1,.579.265A1.223,1.223,0,0,1,1062.246,714.211Zm-.99.005a1.319,1.319,0,0,0,.05.423c.033.093.087.14.162.14q.215,0,.215-.562t-.215-.559c-.074,0-.128.046-.162.137A1.3,1.3,0,0,0,1061.257,714.216Zm2.526-.978-1.811,3.265h-.536l1.811-3.265Zm.751,2.278a1.247,1.247,0,0,1-.2.77.692.692,0,0,1-.583.258.673.673,0,0,1-.569-.265,1.242,1.242,0,0,1-.2-.763q0-1.021.77-1.021a.686.686,0,0,1,.58.264A1.227,1.227,0,0,1,1064.534,715.515Zm-.99,0a1.333,1.333,0,0,0,.05.423c.034.093.087.14.162.14q.214,0,.214-.562t-.214-.559c-.075,0-.128.046-.162.137A1.317,1.317,0,0,0,1063.544,715.52Z" transform="translate(-1055.455 -713.19)" fill="#6d6e71"/>
        </g>
      </g>
    </g>
    <g id="Group_52305" data-name="Group 52305" transform="translate(727.244 555.342)">
      <rect id="Rectangle_5118" data-name="Rectangle 5118" width="33.59" height="7.576" transform="translate(0)" fill="#8ad06e"/>
      <g id="Group_52304" data-name="Group 52304" transform="translate(73.84 1.886)">
        <g id="Group_52303" data-name="Group 52303">
          <path id="Path_36090" data-name="Path 36090" d="M1041.08,800.459a.77.77,0,0,1-.185.521.963.963,0,0,1-.521.294v.014a1.04,1.04,0,0,1,.6.24.673.673,0,0,1,.2.515.872.872,0,0,1-.342.734,1.573,1.573,0,0,1-.976.263,2.375,2.375,0,0,1-.943-.176v-.588a2.117,2.117,0,0,0,.418.156,1.763,1.763,0,0,0,.451.06.877.877,0,0,0,.5-.116.427.427,0,0,0,.163-.373.337.337,0,0,0-.187-.326,1.386,1.386,0,0,0-.6-.1h-.248v-.529h.253a1.172,1.172,0,0,0,.555-.1.358.358,0,0,0,.175-.34q0-.371-.464-.371a1.058,1.058,0,0,0-.327.054,1.594,1.594,0,0,0-.37.186l-.319-.476a1.772,1.772,0,0,1,1.065-.322,1.376,1.376,0,0,1,.8.205A.659.659,0,0,1,1041.08,800.459Z" transform="translate(-1038.916 -799.682)" fill="#6d6e71"/>
          <path id="Path_36091" data-name="Path 36091" d="M1051.23,801.058a1.05,1.05,0,0,1,.754.265.957.957,0,0,1,.28.728,1.058,1.058,0,0,1-.337.842,1.422,1.422,0,0,1-.965.295,1.892,1.892,0,0,1-.88-.176v-.6a1.831,1.831,0,0,0,.411.153,1.8,1.8,0,0,0,.445.059q.632,0,.632-.518,0-.493-.654-.493a1.6,1.6,0,0,0-.261.023,1.963,1.963,0,0,0-.232.05l-.275-.147.123-1.664h1.771v.585h-1.166l-.06.641.078-.015A1.54,1.54,0,0,1,1051.23,801.058Z" transform="translate(-1047.422 -799.832)" fill="#6d6e71"/>
          <path id="Path_36092" data-name="Path 36092" d="M1062.246,800.7a1.252,1.252,0,0,1-.2.772.69.69,0,0,1-.583.258.672.672,0,0,1-.57-.265,1.247,1.247,0,0,1-.2-.765q0-1.021.771-1.02a.685.685,0,0,1,.579.265A1.222,1.222,0,0,1,1062.246,800.7Zm-.99,0a1.323,1.323,0,0,0,.05.423c.033.093.087.14.162.14q.215,0,.215-.563t-.215-.558c-.074,0-.128.046-.162.137A1.3,1.3,0,0,0,1061.257,800.707Zm2.526-.978-1.811,3.265h-.536l1.811-3.265Zm.751,2.278a1.248,1.248,0,0,1-.2.77.69.69,0,0,1-.583.258.673.673,0,0,1-.569-.265,1.243,1.243,0,0,1-.2-.763q0-1.02.77-1.02a.686.686,0,0,1,.58.265A1.225,1.225,0,0,1,1064.534,802.007Zm-.99,0a1.339,1.339,0,0,0,.05.423c.034.093.087.14.162.14q.214,0,.214-.563t-.214-.558c-.075,0-.128.046-.162.138A1.313,1.313,0,0,0,1063.544,802.011Z" transform="translate(-1055.506 -799.682)" fill="#6d6e71"/>
        </g>
      </g>
    </g>
    <rect id="Rectangle_5119" data-name="Rectangle 5119" width="0.627" height="90.955" transform="translate(726.975 481.406) rotate(0.168)" fill="#d6d6d6"/>
    <rect id="Rectangle_5120" data-name="Rectangle 5120" width="0.627" height="91.758" transform="translate(818.73 571.892) rotate(90)" fill="#d6d6d6"/>
  </g>
</svg>
