<svg id="Group_52164" data-name="Group 52164" xmlns="http://www.w3.org/2000/svg" width="71.766" height="74.76" viewBox="0 0 71.766 74.76">
  <path id="Path_5222" data-name="Path 5222" d="M60.027,393.819a3.894,3.894,0,0,0,4.3,2.564l-.1-.844A4.737,4.737,0,0,1,60.027,393.819Z" transform="translate(-39.812 -392.044)" fill="#894a1a"/>
  <path id="Path_5223" data-name="Path 5223" d="M60.9,393.079s-.425,2.257,3.1,2.784l.3-.582S61.4,394.816,60.9,393.079Z" transform="translate(-39.994 -391.887)" fill="#894a1a"/>
  <path id="Path_5224" data-name="Path 5224" d="M63.423,392.636s-2.268.359-1.577,3.86l.649.083S61.954,393.685,63.423,392.636Z" transform="translate(-40.17 -391.793)" fill="#894a1a"/>
  <path id="Path_5225" data-name="Path 5225" d="M78.184,391.567s.788,4.021-3.823,5.454l-.45-1.012S77.706,394.772,78.184,391.567Z" transform="translate(-42.751 -391.567)" fill="#723a15"/>
  <path id="Path_5226" data-name="Path 5226" d="M77.421,391.995a3.886,3.886,0,0,1-2.63,4.274l-.309-.793A4.754,4.754,0,0,0,77.421,391.995Z" transform="translate(-42.872 -391.658)" fill="#723a15"/>
  <path id="Path_5227" data-name="Path 5227" d="M76.53,391.852a3.887,3.887,0,0,1-1.944,4.626l-.427-.736A4.756,4.756,0,0,0,76.53,391.852Z" transform="translate(-42.803 -391.627)" fill="#723a15"/>
  <path id="Path_5228" data-name="Path 5228" d="M75.709,391.958a3.887,3.887,0,0,1-1.944,4.627l-.427-.736A4.757,4.757,0,0,0,75.709,391.958Z" transform="translate(-42.63 -391.65)" fill="#723a15"/>
  <path id="Path_5229" data-name="Path 5229" d="M59.254,397.288c0-1.584,2.416-2.868,5.4-2.868s5.4,1.284,5.4,2.868-2.416,2.867-5.4,2.867S59.254,398.872,59.254,397.288Z" transform="translate(-39.649 -392.171)" fill="#894a1a"/>
  <path id="Path_5230" data-name="Path 5230" d="M56.946,401.763c.609-3.63,2.341-6.363,3.868-6.107s2.272,3.406,1.663,7.035-2.341,6.363-3.868,6.107S56.337,405.392,56.946,401.763Z" transform="translate(-39.115 -392.429)" fill="#894a1a"/>
  <path id="Path_5231" data-name="Path 5231" d="M62.527,404.156c-.017.113-.03.224-.049.337-.609,3.629-2.341,6.363-3.868,6.107-1.444-.242-2.187-3.071-1.749-6.445Z" transform="translate(-39.116 -394.232)" fill="#723a15"/>
  <path id="Path_5232" data-name="Path 5232" d="M66.572,402.252c.747-3.6,2.641-6.559,4.244-5.631,1.34.776,2,3.164,1.25,6.767s-2.58,6.27-4.1,5.957S65.827,405.855,66.572,402.252Z" transform="translate(-41.131 -392.6)" fill="#723a15"/>
  <rect id="Rectangle_511" data-name="Rectangle 511" width="15.406" height="0.672" transform="translate(62.244 73.089) rotate(-84.729)" fill="#3f304c"/>
  <rect id="Rectangle_512" data-name="Rectangle 512" width="0.672" height="15.407" transform="translate(4.52 57.915) rotate(-9.766)" fill="#3f304c"/>
  <path id="Path_5233" data-name="Path 5233" d="M89.982,438.747s2.992,6.653-5.413,6.513Z" transform="translate(-45.007 -401.553)" fill="#a57f77"/>
  <path id="Path_5234" data-name="Path 5234" d="M104.348,446.276c0-.687.023-1.251.233-1.251s.379.557.379,1.245-.233,1.1-.443,1.1S104.348,446.964,104.348,446.276Z" transform="translate(-49.193 -402.882)" fill="#ffa364"/>
  <path id="Path_5235" data-name="Path 5235" d="M98.394,442.852c.164-1.387.059-.461,1.447.723,1.507,1.284,3.4-.128,3.753,1.223C103.805,445.6,99.568,447.243,98.394,442.852Z" transform="translate(-47.933 -402.275)" fill="#ffcb8d"/>
  <path id="Path_5236" data-name="Path 5236" d="M103.725,445.409c-.11.732-3.236,1.874-4.725-.83C100.425,445.826,102.8,445.216,103.725,445.409Z" transform="translate(-48.061 -402.788)" fill="#ffa364"/>
  <path id="Path_5237" data-name="Path 5237" d="M35.021,465.438l58.281-.084,12.693.886-.619,1.026-69.836.225Z" transform="translate(-34.52 -407.185)" fill="#3f304c"/>
  <path id="Path_5238" data-name="Path 5238" d="M34.385,463.9l71.766.632-.341,1.484-70.609.235Z" transform="translate(-34.385 -406.877)" fill="#645172"/>
  <path id="Path_5239" data-name="Path 5239" d="M98.145,442.478s-5.5-18.15-10.167-14.732C84.428,430.345,88.373,436.56,98.145,442.478Z" transform="translate(-45.457 -399.134)" fill="#ffcb8d"/>
  <g id="Group_2925" data-name="Group 2925" transform="translate(41.241 28.316)">
    <path id="Path_5240" data-name="Path 5240" d="M90.775,427.486c2.909,1.042,5.806,8.076,7.265,12.14.284.792.219.888-.07.226C96.256,435.942,93.235,429.618,90.775,427.486Z" transform="translate(-87.562 -427.486)" fill="#ffa364"/>
    <path id="Path_5241" data-name="Path 5241" d="M87.125,429.019c.053.782,1.38.888,1.639,2.033a18.93,18.93,0,0,0,5.91,9.5C88.332,435.992,85.566,431.556,87.125,429.019Z" transform="translate(-86.699 -427.81)" fill="#ffa364"/>
  </g>
  <path id="Path_5242" data-name="Path 5242" d="M88.515,427.125s-4.463-20.772-14.5-16.175C74.012,410.95,72.473,427.384,88.515,427.125Z" transform="translate(-42.764 -395.529)" fill="#ffcb8d"/>
  <path id="Path_5243" data-name="Path 5243" d="M89.061,427.125s-2.106-9.8-6.679-14.448c4.943,4.394,7.213,14.954,7.213,14.954-5.05.081-8.357-1.492-10.519-3.686C81.238,425.87,84.408,427.2,89.061,427.125Z" transform="translate(-43.844 -396.035)" fill="#ffa364"/>
  <path id="Path_5244" data-name="Path 5244" d="M74.012,410.95c6.777-3.1,11.014,5.355,13.051,11.179A5.258,5.258,0,0,0,83.2,419.2a12.312,12.312,0,0,1-1.277,6.834C72.942,422.4,74.012,410.95,74.012,410.95Z" transform="translate(-42.764 -395.529)" fill="#ffa364"/>
  <path id="Path_5245" data-name="Path 5245" d="M52.96,420.16c3.947-5.024,7.956-8.057,13.216-9.839a6.708,6.708,0,0,1,8.842,5.852c.825,10.931-4.195,17.7.375,27.8l-14.247,1.7C59.02,436.214,43.412,432.966,52.96,420.16Z" transform="translate(-37.668 -395.461)" fill="#5592ff"/>
  <path id="Path_5246" data-name="Path 5246" d="M75.76,433.444c-.207,1.366-.815,4.631-1.153,6.487-3.553,1.491-5.9,6.017-6.3,8.546-.257,1.649-5.262-.032-5.742,1.414-.922-3.13-3.005-5.5-5.026-7.837C63.077,440.914,71.038,436.336,75.76,433.444Z" transform="translate(-39.286 -400.431)" fill="#840069" opacity="0.2" style="mix-blend-mode: multiply;isolation: isolate"/>
  <path id="Path_5247" data-name="Path 5247" d="M77.294,449.162,61.47,451.156l1.6,1.967L77.471,450.2Z" transform="translate(-40.118 -403.758)" fill="#ce471d"/>
  <path id="Path_5248" data-name="Path 5248" d="M75.515,415.121c-15.15,2.836-25.932,15.115-18.118,23.567C57.684,439,83.309,437.82,75.515,415.121Z" transform="translate(-38.702 -396.552)" fill="#5592ff"/>
  <path id="Path_5249" data-name="Path 5249" d="M53.032,426.73c2.361.422,6.946,4.93,8.1,10.037.675,2.994,5.735.59,11.367-1.525-5.656,5.714-15.557,6.1-15.735,5.9C53.074,437.158,49.935,431.028,53.032,426.73Z" transform="translate(-38.065 -399.01)" fill="#840069" opacity="0.4" style="mix-blend-mode: multiply;isolation: isolate"/>
  <path id="Path_5250" data-name="Path 5250" d="M70.207,411.353c1.607,3.235,2.162,12.368-1.834,14.353s-10.5-.751-13.238-3.109C51.176,419.183,67.672,406.25,70.207,411.353Z" transform="translate(-38.648 -395.506)" fill="#3271cc"/>
  <path id="Path_5251" data-name="Path 5251" d="M69.551,411.738c1.47,2.959,1.98,11.315-1.678,13.132s-9.607-.688-12.11-2.845C52.139,418.9,67.232,407.069,69.551,411.738Z" transform="translate(-38.791 -395.608)" fill="#ffcb8d"/>
  <path id="Path_5252" data-name="Path 5252" d="M93,445.96l-22.088,3.827L61.578,451.3l-9.648-.638s-1.914,5.1,9.25,10.845l21.051-.16S96.106,459.6,93,445.96Z" transform="translate(-38.072 -403.08)" fill="#ff632c"/>
  <g id="Group_2926" data-name="Group 2926" transform="translate(19.242 44.727)">
    <path id="Path_5253" data-name="Path 5253" d="M72.386,450.283l11.427-1.98c-11.134,8.774-15.786,7.465-25.02,3.213l4.264.281Z" transform="translate(-58.793 -448.303)" fill="#840069" opacity="0.2" style="mix-blend-mode: multiply;isolation: isolate"/>
  </g>
  <path id="Path_5254" data-name="Path 5254" d="M51.963,451.927l9.026.6c.459.662-1.523,1.511-2.182,1.5C56.22,453.965,55.883,452.9,51.963,451.927Z" transform="translate(-38.105 -404.343)" fill="#840069" opacity="0.4" style="mix-blend-mode: multiply;isolation: isolate"/>
  <path id="Path_5255" data-name="Path 5255" d="M60.291,461.409l3.2-1.294-.244-1.538c5.558,2.944,11.209-1.358,12.052-3.129l8.941,1.856-2.184,5.5-20.882.158c-8.68-4.464-9.454-8.542-9.369-10.136C52.784,455.135,54.19,458.271,60.291,461.409Z" transform="translate(-38.072 -404.534)" fill="#840069" opacity="0.2" style="mix-blend-mode: multiply;isolation: isolate"/>
  <path id="Path_5256" data-name="Path 5256" d="M58.939,411.066l6.938-1.116,2.312,5.263L57.425,419.6Z" transform="translate(-39.261 -395.458)" fill="#ffcb8d"/>
  <path id="Path_5257" data-name="Path 5257" d="M101.027,445.96S86.912,451.7,90.261,461.349C90.261,461.349,104.695,460.153,101.027,445.96Z" transform="translate(-46.103 -403.08)" fill="#ce471d"/>
  <path id="Path_5258" data-name="Path 5258" d="M61.173,462.772a34.669,34.669,0,0,0-9.25-10.845S49.85,458.387,61.173,462.772Z" transform="translate(-38.065 -404.343)" fill="#ce471d"/>
  <path id="Path_5259" data-name="Path 5259" d="M69.967,451.176l3.03-.159.159,1.116-3.189.478Z" transform="translate(-41.916 -404.15)" fill="#ce471d"/>
  <path id="Path_5260" data-name="Path 5260" d="M48.744,437.795c-1.078-3.86-.088-8.654,2.206-11.33,1.436-1.674,6.471,4.747,7.548,8.606s1.536,12.3-1.249,12.047C54.618,446.879,49.822,441.654,48.744,437.795Z" transform="translate(-37.332 -398.896)" fill="#ffcb8d"/>
  <path id="Path_5261" data-name="Path 5261" d="M48.664,436.96c1.078,3.86,5.55,9.174,7.933,9.483,2.522.326,1.88-8.062.8-11.923a17.834,17.834,0,0,0-1.84-4.029,18.57,18.57,0,0,1,2.94,5.49c1.078,3.86,1.536,12.3-1.249,12.047-2.631-.239-7.428-5.463-8.505-9.323a12.522,12.522,0,0,1-.43-3.461A13,13,0,0,0,48.664,436.96Z" transform="translate(-37.333 -399.806)" fill="#ffa364"/>
  <path id="Path_5262" data-name="Path 5262" d="M54.235,457.992c-2.023,1.991,3.384.937,10.375,15.064,0,0-.752.836-1.045.493C56.205,464.9,42.935,458.38,48.39,455.231c1.093-.572,4.162-.7,4.978-.189C53.368,455.042,57.924,458.171,54.235,457.992Z" transform="translate(-37.078 -404.934)" fill="#ffcb8d"/>
  <path id="Path_5263" data-name="Path 5263" d="M52.974,457.427a6.252,6.252,0,0,0,3.042-.592c.81.823,1.238,1.7-.765,1.6-2.023,1.991,3.384.937,10.375,15.064l-.656.309C58.064,463.494,48.73,460.457,52.974,457.427Z" transform="translate(-38.094 -405.382)" fill="#ffa364"/>
  <path id="Path_5264" data-name="Path 5264" d="M88.931,436.2s2.81,7.649-7.134,8.951l-1.851-1.041s-3.12-9.488,7.3-8.982Z" transform="translate(-43.936 -400.782)" fill="#825a54"/>
  <path id="Path_5265" data-name="Path 5265" d="M87.77,435.682s2.81,7.649-7.134,8.951l-.858-.646s-3.71-9.9,7.131-8.911Z" transform="translate(-43.863 -400.761)" fill="#f7d3cd"/>
  <path id="Path_5266" data-name="Path 5266" d="M83.514,435.214v8.8a14.263,14.263,0,0,1-2.878.661l-.858-.646S76.931,436.432,83.514,435.214Z" transform="translate(-43.863 -400.805)" fill="#f7d3cd" style="mix-blend-mode: overlay;isolation: isolate"/>
  <path id="Path_5267" data-name="Path 5267" d="M84.958,440.318s2.811,3.823,2.642,3.767a18.044,18.044,0,0,0-2.305.843l-1.434-3.682Z" transform="translate(-44.857 -401.886)" fill="#825a54"/>
  <path id="Path_5268" data-name="Path 5268" d="M75.128,442.145c-5.5,1.9-12.625-2.158-18.3,6.979.161.937,1.208,6.408,19.027-5.9C75.854,443.227,75.608,442.3,75.128,442.145Z" transform="translate(-39.135 -402.273)" fill="#ffcb8d"/>
  <path id="Path_5269" data-name="Path 5269" d="M74.636,442.3q.248-.069.493-.153c.479.156.726,1.082.726,1.082-17.82,12.305-18.867,6.834-19.027,5.9l0,0C59.032,450.03,65.834,450.422,74.636,442.3Z" transform="translate(-39.135 -402.273)" fill="#ffa364"/>
  <path id="Path_5270" data-name="Path 5270" d="M100.887,446.106c-.372-.334-.359-1.118.337-1.055.226.02.5.211.755.652s1.205.309,1.033.7A3.138,3.138,0,0,1,100.887,446.106Z" transform="translate(-48.409 -402.887)" fill="#ffcb8d"/>
  <path id="Path_5271" data-name="Path 5271" d="M77.861,439.19c-.124-.5.131-1.145.38-1.207a.971.971,0,0,1,.906.743,5.8,5.8,0,0,1-.864,2.762C78.035,441.549,77.985,439.686,77.861,439.19Z" transform="translate(-43.58 -401.39)" fill="#ffcb8d"/>
  <path id="Path_5272" data-name="Path 5272" d="M82.373,437.533c-.076-.226-.424-.315-.777-.2s-.579.4-.5.623.423.315.777.2S82.448,437.759,82.373,437.533Z" transform="translate(-44.268 -401.244)" fill="#ffcb8d"/>
  <path id="Path_5273" data-name="Path 5273" d="M81.236,436.945c-.076-.227-.423-.315-.777-.2s-.579.4-.5.624.423.315.777.2S81.311,437.171,81.236,436.945Z" transform="translate(-44.027 -401.119)" fill="#ffcb8d"/>
  <path id="Path_5274" data-name="Path 5274" d="M80.219,436.5c-.075-.226-.423-.315-.777-.2s-.579.4-.5.623.423.315.777.2S80.3,436.729,80.219,436.5Z" transform="translate(-43.812 -401.026)" fill="#ffcb8d"/>
  <path id="Path_5275" data-name="Path 5275" d="M77.934,436.217l5.433,3.212a1.328,1.328,0,0,1-.97,1.391l-6.15-3.029Z" transform="translate(-43.245 -401.018)" fill="#a57f77"/>
  <path id="Path_5276" data-name="Path 5276" d="M77.085,443.8c.02-1.361,1.521-3.679,1.905-5.243.235-.949,1.988-.729,2.549-.148s1.141,1.789.438,2.468S77.072,444.683,77.085,443.8Z" transform="translate(-43.423 -401.376)" fill="#ffcb8d"/>
  <path id="Path_5277" data-name="Path 5277" d="M76.889,428.95s2.7,7.565-7.155,9.427A3.012,3.012,0,0,1,67.966,437s-2.279-8.91,6.651-9.332A4.82,4.82,0,0,1,76.889,428.95Z" transform="translate(-41.438 -399.208)" fill="#825a54"/>
  <path id="Path_5278" data-name="Path 5278" d="M75.366,428.293s3.238,7.477-6.616,9.34l-.893-.6s-4.264-9.676,6.614-9.3Z" transform="translate(-41.295 -399.22)" fill="#f7d3cd"/>
  <path id="Path_5279" data-name="Path 5279" d="M74.478,428.646s2.245,6.292-5.952,7.842a2.511,2.511,0,0,1-1.471-1.146s-1.9-7.412,5.533-7.763A4.018,4.018,0,0,1,74.478,428.646Z" transform="translate(-41.254 -399.189)" fill="#825a54"/>
  <path id="Path_5280" data-name="Path 5280" d="M73.21,428.1s2.695,6.22-5.5,7.77l-.742-.5s-3.548-8.049,5.5-7.737Z" transform="translate(-41.136 -399.2)" fill="#a57f77"/>
  <path id="Path_5281" data-name="Path 5281" d="M73.265,428.329s2.453,6.2-5.4,7.715l-.675-.534s-3.6-7.9,5.285-7.675Z" transform="translate(-41.176 -399.243)" fill="#f7d3cd"/>
  <path id="Path_5282" data-name="Path 5282" d="M70.57,427.955l.231,7.13a10.223,10.223,0,0,1-2.918.986l-.675-.534S64.336,428.944,70.57,427.955Z" transform="translate(-41.192 -399.269)" fill="#f7d3cd" style="mix-blend-mode: overlay;isolation: isolate"/>
  <path id="Path_5283" data-name="Path 5283" d="M80.222,416.167c-.78,8.223-15.518,8.108-22.714.64q.255-.285.531-.569l.918-5.172,6.937-1.116.307.7a7.762,7.762,0,0,1,2.237-.514,6.7,6.7,0,0,1,3.719.206c3.332-.674,5.972,1.5,7.974,4.486A4.249,4.249,0,0,1,80.222,416.167Z" transform="translate(-39.279 -395.458)" fill="#840069" opacity="0.4" style="mix-blend-mode: multiply;isolation: isolate"/>
  <path id="Path_5284" data-name="Path 5284" d="M61.561,397.023c3.743-1.29,6.263-.759,7.814,1.754,1.309,4.629-2.471,9.489-1.2,14.434.736,3.674-6.144,4.158-9.8.605a4.547,4.547,0,0,1-1.3-4.108C57.863,405.581,58.676,396.954,61.561,397.023Z" transform="translate(-39.172 -392.578)" fill="#ffa364"/>
  <path id="Path_5285" data-name="Path 5285" d="M61.982,399.235c5.1,1.939,6.326,1.56,6.79,1.349,1.309,4.629-2.456,7.666-1.181,12.609.735,3.675-5.537,4.438-9.193.885a3.925,3.925,0,0,1-1.317-3.759C57.863,406.193,59.1,399.165,61.982,399.235Z" transform="translate(-39.172 -393.19)" fill="#ffcb8d"/>
  <path id="Path_5286" data-name="Path 5286" d="M61.325,460.446l1.729,3.752-.378-.034a30.088,30.088,0,0,0-3.8-5.659Z" transform="translate(-39.569 -405.736)" fill="#ff632c"/>
  <path id="Path_5287" data-name="Path 5287" d="M91.374,454.782a8.741,8.741,0,0,0-1.245,8.329l-.717.084s-2.214-6.178,1.581-8.835Z" transform="translate(-45.896 -404.858)" fill="#ff632c"/>
  <path id="Path_5288" data-name="Path 5288" d="M96.216,451.463c.027,2.765-2.226-.436-13.246,19.47l1.546.393s23.077-20.394,16.8-23.584a4.815,4.815,0,0,0-4.252.212S90.9,451.676,96.216,451.463Z" transform="translate(-44.668 -403.374)" fill="#ffcb8d"/>
  <g id="Group_2927" data-name="Group 2927" transform="translate(38.582 44.491)">
    <path id="Path_5289" data-name="Path 5289" d="M101.6,448c5.516,3.55-17.012,23.461-17.012,23.461l-1.265-.45C91.422,458.7,103.6,452.62,101.6,448Z" transform="translate(-83.326 -448.004)" fill="#ffa364"/>
    <path id="Path_5290" data-name="Path 5290" d="M100.454,451c.011,1.174-.337,1.771-1.659,2.98a5.193,5.193,0,0,1-1.574.928c1.224-1.155,1.984-1.656,1.973-2.8-2.7.108-2.437-.8-1.524-1.719C97.75,450.945,98.585,451.07,100.454,451Z" transform="translate(-86.227 -448.508)" fill="#ffa364"/>
  </g>
  <path id="Path_5291" data-name="Path 5291" d="M71.456,432.179l-1.392-1.223a1.93,1.93,0,0,0-1.518,2.277l1.771.675S71.835,433.571,71.456,432.179Z" transform="translate(-41.603 -399.904)" fill="#a57f77"/>
  <path id="Path_5292" data-name="Path 5292" d="M70.08,430.956a1.993,1.993,0,0,1-1.518,2.277l1.771.675s1.729-.59,1.138-1.729Z" transform="translate(-41.619 -399.904)" fill="#825a54"/>
  <path id="Path_5293" data-name="Path 5293" d="M69.778,423.289c-.11-.228.582-.789,1.544-1.254s1.831-.657,1.941-.43-.58.789-1.543,1.254S69.888,423.517,69.778,423.289Z" transform="translate(-41.874 -397.905)" fill="#ffcb8d" opacity="0.5"/>
  <path id="Path_5294" data-name="Path 5294" d="M61.917,426.613c-.2-.138.967-.329,1.993-1.041,1.752-1.216,2.134-.753,2.239-.523C66.4,425.6,62.854,427.252,61.917,426.613Z" transform="translate(-40.207 -398.594)" fill="#840069" opacity="0.2" style="mix-blend-mode: multiply;isolation: isolate"/>
  <path id="Path_5295" data-name="Path 5295" d="M61.642,426.638c-.1-.23.727-.836,1.859-1.355s2.134-.753,2.239-.523-.726.837-1.858,1.355S61.748,426.867,61.642,426.638Z" transform="translate(-40.152 -398.574)" fill="#ffcb8d"/>
  <path id="Path_5296" data-name="Path 5296" d="M92.574,432.942s-3.2.225-4.076-3.767C88.5,429.175,91.449,427.685,92.574,432.942Z" transform="translate(-45.838 -399.486)" fill="#ffcb8d"/>
  <path id="Path_5297" data-name="Path 5297" d="M79.025,441.5c.626-.6.237-1.623-.252-2.251a6.3,6.3,0,0,0,.218-.687c.235-.949,1.988-.729,2.549-.148s1.141,1.789.438,2.468-4.905,3.807-4.892,2.924a4.763,4.763,0,0,1,.391-1.548A4.989,4.989,0,0,0,79.025,441.5Z" transform="translate(-43.423 -401.376)" fill="#ffa364"/>
  <path id="Path_5298" data-name="Path 5298" d="M82.05,438.37c-.18-.48-.13-.941.11-1.031s.58.227.759.707.312,1.57.072,1.659S82.23,438.85,82.05,438.37Z" transform="translate(-44.451 -401.252)" fill="#ffa364"/>
  <path id="Path_5299" data-name="Path 5299" d="M80.927,437.782c-.18-.48-.131-.942.11-1.031s.58.227.76.706.311,1.57.071,1.659S81.106,438.262,80.927,437.782Z" transform="translate(-44.213 -401.128)" fill="#ffa364"/>
  <path id="Path_5300" data-name="Path 5300" d="M79.883,437.327c-.179-.48-.13-.942.11-1.031s.58.227.76.707.311,1.57.071,1.659S80.063,437.807,79.883,437.327Z" transform="translate(-43.992 -401.031)" fill="#ffa364"/>
  <path id="Path_5301" data-name="Path 5301" d="M84.195,478.4l-1.868-1.69a4.87,4.87,0,0,0,.42,5.4c.56.788,1.417,2.24,1.417,2.24s6.006.006,7.235-.114c0,0,.933-1.256-4.814-1.256a4.124,4.124,0,0,1-2.544-2.206S83.417,478.772,84.195,478.4Z" transform="translate(-44.401 -409.589)" fill="#316793"/>
  <path id="Path_5302" data-name="Path 5302" d="M84.724,477.64l-1.867-1.689a4.868,4.868,0,0,0,.419,5.4c.561.788,1.417,2.24,1.417,2.24s5.456.006,6.685-.114a4.511,4.511,0,0,0-4.265-1.257,4.12,4.12,0,0,1-2.544-2.2S83.946,478.011,84.724,477.64Z" transform="translate(-44.514 -409.428)" fill="#5c94cc"/>
  <path id="Path_5303" data-name="Path 5303" d="M84.957,478.917,84.927,480l2.442,2.694-.47.28-2.423-1.487-1.03-1.893.587-1.4Z" transform="translate(-44.769 -409.903)" fill="#9cd2ff"/>
  <path id="Path_5304" data-name="Path 5304" d="M83.814,472.7l3.542,2.53-2.667,2.523-2.511-1.533Z" transform="translate(-44.501 -408.74)" fill="#316793"/>
  <path id="Path_5305" data-name="Path 5305" d="M65.16,478.4l1.767-1.69a5.1,5.1,0,0,1-.4,5.4c-.53.788-1.34,2.24-1.34,2.24s-5.682.006-6.845-.114c0,0-.883-1.256,4.554-1.256a3.979,3.979,0,0,0,2.407-2.206S65.894,478.772,65.16,478.4Z" transform="translate(-39.445 -409.589)" fill="#316793"/>
  <path id="Path_5306" data-name="Path 5306" d="M64.813,477.64l1.767-1.689a5.1,5.1,0,0,1-.4,5.4c-.53.788-1.34,2.24-1.34,2.24s-5.162.006-6.325-.114a4.14,4.14,0,0,1,4.035-1.257,3.98,3.98,0,0,0,2.407-2.2S65.548,478.011,64.813,477.64Z" transform="translate(-39.493 -409.428)" fill="#5c94cc"/>
  <path id="Path_5307" data-name="Path 5307" d="M65.917,478.917,65.945,480l-2.311,2.694.445.28,2.293-1.487.975-1.893-.555-1.4Z" transform="translate(-40.576 -409.903)" fill="#9cd2ff"/>
  <path id="Path_5308" data-name="Path 5308" d="M66.68,472.7l-3.351,2.53,2.523,2.523,2.376-1.533Z" transform="translate(-40.511 -408.74)" fill="#316793"/>
  <path id="Path_5309" data-name="Path 5309" d="M49.946,434.493c0-1.786.667-3.233,1.49-3.233s1.49,1.447,1.49,3.233-.667,3.233-1.49,3.233S49.946,436.279,49.946,434.493Z" transform="translate(-37.679 -399.969)" fill="#ffe3a6"/>
  <path id="Path_5310" data-name="Path 5310" d="M63.707,451a5.135,5.135,0,0,0-.548-2.868S64.213,448.677,63.707,451Z" transform="translate(-40.475 -403.539)" fill="#bc7b50"/>
  <path id="Path_5311" data-name="Path 5311" d="M65.526,450.514a5.132,5.132,0,0,0-.548-2.867S66.032,448.195,65.526,450.514Z" transform="translate(-40.86 -403.437)" fill="#bc7b50"/>
  <path id="Path_5312" data-name="Path 5312" d="M67.452,449.712a5.131,5.131,0,0,0-.549-2.868S67.958,447.393,67.452,449.712Z" transform="translate(-41.268 -403.267)" fill="#bc7b50"/>
  <path id="Path_5313" data-name="Path 5313" d="M69.378,448.977a4.329,4.329,0,0,0-.462-2.417S69.8,447.022,69.378,448.977Z" transform="translate(-41.694 -403.207)" fill="#bc7b50"/>
  <path id="Path_5314" data-name="Path 5314" d="M68.581,420.408s.38-1.012-.126-1.434c0,0,1.307.169,1.1.8Z" transform="translate(-41.596 -397.368)" fill="#ffa364"/>
  <path id="Path_5315" data-name="Path 5315" d="M62.123,412.477s-2.825-2.361-1.117,1.1Z" transform="translate(-39.903 -395.826)" fill="#ffa364"/>
  <path id="Path_5316" data-name="Path 5316" d="M67.869,413.483l-6.733-1.124s-.876,7.421,6.635,3.2A18.069,18.069,0,0,0,67.869,413.483Z" transform="translate(-40.04 -395.968)" fill="#603116"/>
  <path id="Path_5317" data-name="Path 5317" d="M67.735,413.727l-.057.928-6.157-.393-.056-1.546Z" transform="translate(-40.117 -396.043)" fill="#efd76f"/>
  <path id="Path_5318" data-name="Path 5318" d="M57.628,399.572c.539-2.164,2.281-3.737,3.227-3.5s1.274,2.181.735,4.345-3.186,7.447-4.13,7.212S57.09,401.737,57.628,399.572Z" transform="translate(-39.162 -392.515)" fill="#894a1a"/>
  <path id="Path_5319" data-name="Path 5319" d="M60.843,404.1c-1.012,2.4-2.711,5.408-3.428,5.229-.646-.161-.825-2.851-.549-5.229Z" transform="translate(-39.117 -394.22)" fill="#723a15"/>
  <path id="Path_5320" data-name="Path 5320" d="M61.108,395.388c0-1.8,13.425-2.247,13.425-.337,0,1.257-3.864,3.416-6.81,3.416S61.108,396.645,61.108,395.388Z" transform="translate(-40.041 -392.042)" fill="#894a1a"/>
  <path id="Path_5321" data-name="Path 5321" d="M65.973,397.52c2.87,0,6.591-2.119,6.782-3.387,1.434-.084,2.475.5,2.475,1.041,0,1.257-4.076,3.359-7.022,3.359a7.774,7.774,0,0,1-4.807-1.294A11.324,11.324,0,0,0,65.973,397.52Z" transform="translate(-40.526 -392.108)" fill="#723a15"/>
  <path id="Path_5322" data-name="Path 5322" d="M66.815,409.185s2.446,2.488-.928,2.319A1.568,1.568,0,0,0,66.815,409.185Z" transform="translate(-41.053 -395.296)" fill="#ffa364"/>
  <path id="Path_5323" data-name="Path 5323" d="M63.906,406.551c.078-.634.329-1.125.56-1.1s.355.566.278,1.2-.33,1.125-.561,1.1S63.828,407.184,63.906,406.551Z" transform="translate(-40.628 -394.506)" fill="#60422e"/>
  <path id="Path_5324" data-name="Path 5324" d="M69.155,407.483c.074-.587.324-1.04.558-1.011s.363.528.289,1.115-.324,1.04-.559,1.011S69.08,408.07,69.155,407.483Z" transform="translate(-41.74 -394.722)" fill="#60422e"/>
  <rect id="Rectangle_513" data-name="Rectangle 513" width="2.446" height="1.054" transform="translate(22.557 9.503)" fill="#894a1a"/>
  <path id="Path_5325" data-name="Path 5325" d="M69.566,403.1l1.8,1.346-.322.567L69.1,403.942Z" transform="translate(-41.734 -394.009)" fill="#894a1a"/>
  <path id="Path_5326" data-name="Path 5326" d="M57.06,408.227c.158-1.1.689-1.925,1.184-1.853s.769,1.018.61,2.113-.688,1.924-1.184,1.853S56.9,409.322,57.06,408.227Z" transform="translate(-39.175 -394.7)" fill="#ffcb8d"/>
  <path id="Path_5327" data-name="Path 5327" d="M57.386,408.561c.1-.7.438-1.228.753-1.183s.488.649.387,1.347-.438,1.229-.753,1.183S57.285,409.26,57.386,408.561Z" transform="translate(-39.247 -394.913)" fill="#ffa364"/>
  <path id="Path_5328" data-name="Path 5328" d="M69.133,401a15.919,15.919,0,0,1-3.852-.2s3.233,1.406,5.257.281C71.484,400.56,69.133,401,69.133,401Z" transform="translate(-40.924 -393.522)" fill="#ffa364"/>
  <path id="Path_5329" data-name="Path 5329" d="M75,391.958a3.887,3.887,0,0,1-1.944,4.627l-.427-.736A4.757,4.757,0,0,0,75,391.958Z" transform="translate(-42.479 -391.65)" fill="#723a15"/>
  <path id="Path_5330" data-name="Path 5330" d="M42.457,483.684h2.024l.337,2.024H42.794Z" transform="translate(-36.093 -411.065)" fill="#3f304c"/>
  <path id="Path_5331" data-name="Path 5331" d="M114.454,483.648h-1.745l-.068,2.151h1.745Z" transform="translate(-50.949 -411.057)" fill="#3f304c"/>
</svg>
