<svg xmlns="http://www.w3.org/2000/svg" width="35.457" height="27.033" viewBox="0 0 35.457 27.033">
  <g id="Group_52903" data-name="Group 52903" transform="translate(-1090.153 257.382)">
    <g id="CupcSq.tif" transform="translate(1092.705 -257.382)">
      <g id="Group_52893" data-name="Group 52893">
        <path id="Path_37155" data-name="Path 37155" d="M1095.162-235.419a3.1,3.1,0,0,1-1.776-1,3.668,3.668,0,0,1-.739-2.283q.006-7.478,0-14.964a3.568,3.568,0,0,1,3.422-3.709c.1,0,.2,0,.3,0h23.218a3.568,3.568,0,0,1,3.732,3.4c.005.114.005.227,0,.34,0,4.713-.01,9.425.008,14.138.147,1.186-.088,4.261-2.321,4.173Zm12.792-1.946h11.538c1.075,0,1.471-.4,1.471-1.484v-14.759c0-.981-.426-1.411-1.409-1.411H1096.4c-.979,0-1.4.429-1.4,1.417v14.931a1.147,1.147,0,0,0,.668,1.18,2.035,2.035,0,0,0,.774.121q5.76.009,11.513,0Z" transform="translate(-1092.644 257.382)" fill="#959595"/>
        <path id="Path_37156" data-name="Path 37156" d="M1107.819-250.478h6.976a1.179,1.179,0,0,1,1.292,1.052,1.177,1.177,0,0,1-1.052,1.291h0a2.063,2.063,0,0,1-.276.01h-13.882a1.219,1.219,0,0,1-1.269-.809,1.162,1.162,0,0,1,.724-1.474,1.166,1.166,0,0,1,.34-.062c.748-.022,1.5-.007,2.245-.007Z" transform="translate(-1092.475 257.551)" fill="#959595"/>
        <path id="Path_37157" data-name="Path 37157" d="M1105.455-242.387c-1.519,0-3.038-.025-4.557.009a1.229,1.229,0,0,1-1.35-1.094c0-.033-.006-.066-.007-.1a1.21,1.21,0,0,1,1.243-1.175c.034,0,.068,0,.1.007h9.22a1.18,1.18,0,0,1,1.262,1.092,1.165,1.165,0,0,1-.067.485,1.165,1.165,0,0,1-1.182.773Q1107.785-242.383,1105.455-242.387Z" transform="translate(-1092.475 257.691)" fill="#959595"/>
      </g>
    </g>
    <path id="Path_37165" data-name="Path 37165" d="M1122.275-234.359h3.334a5.341,5.341,0,0,1-.242.807,3.691,3.691,0,0,1-3.5,1.709h-27.985c-1.687.052-3.191-.75-3.593-1.915a5.439,5.439,0,0,1-.138-.588h3.29Z" transform="translate(0 1.491)" fill="#959595"/>
  </g>
</svg>
