<svg xmlns="http://www.w3.org/2000/svg" width="29.258" height="31.324" viewBox="0 0 29.258 31.324">
  <g id="Group_52895" data-name="Group 52895" transform="translate(-855.747 -14.059)">
    <path id="Path_37160" data-name="Path 37160" d="M885,17.92a3.653,3.653,0,0,0-3.855-3.86q-10.764,0-21.529,0a3.669,3.669,0,0,0-3.872,3.877q0,8.56,0,17.12v6.42c0,.848.316,1.163,1.166,1.163h2.1c2.559,0,5.2,0,7.808-.008h.008a.88.88,0,0,1,.73.294c.459.49.943.968,1.411,1.43q.288.285.576.571a1.229,1.229,0,0,0,.825.456,1.257,1.257,0,0,0,.84-.466l.526-.524c.52-.518,1.058-1.053,1.579-1.589a.512.512,0,0,1,.421-.168h0c2.926.006,5.9.005,8.778,0h1.367c.781,0,1.114-.333,1.114-1.114V26.19Q885.005,22.055,885,17.92Zm-1.82,22.886H880.73c-2.406,0-4.894,0-7.341-.006h-.006a1.438,1.438,0,0,0-1.1.467c-.47.49-.943.961-1.443,1.46l-.453.452c-.028-.026-.056-.051-.081-.077l-.49-.486c-.431-.426-.878-.867-1.3-1.313a1.52,1.52,0,0,0-1.188-.5h-.01c-2.427.01-4.9.009-7.282.008h-2.465V34.521q0-8.3,0-16.59a1.841,1.841,0,0,1,2.034-2.047h21.529a1.829,1.829,0,0,1,1.979,1.354,2.847,2.847,0,0,1,.07.707q.005,9.837,0,19.675Z" fill="#959595"/>
    <path id="Path_37161" data-name="Path 37161" d="M939.587,81.52a12.34,12.34,0,0,0-1.774-1.037l-.13-.067c-.333-.171-.679-.321-1.014-.467-.279-.121-.567-.247-.842-.381a.682.682,0,0,1-.448-.714,3.511,3.511,0,0,0,0-.4c0-.109-.007-.212,0-.312a.676.676,0,0,1,.076-.2l.006-.012c.062-.128.127-.255.192-.381.122-.237.248-.483.352-.738.035-.085.063-.168.09-.248a1.077,1.077,0,0,1,.36-.6,2.069,2.069,0,0,0,.556-1.3,1.893,1.893,0,0,0-.221-1.251v0a3.992,3.992,0,0,0,.086-2.731,3.013,3.013,0,0,0-2.271-2.443.481.481,0,0,1-.41-.335.965.965,0,0,0-1.069-.663c-.12.011-.241.019-.361.027-.213.014-.433.028-.651.062a5.107,5.107,0,0,0-2.678,1.192,4.343,4.343,0,0,0-1.286,4.675.643.643,0,0,1-.033.381,2.467,2.467,0,0,0-.134,1.243,1.761,1.761,0,0,0,.519,1.132,1.248,1.248,0,0,1,.4.689c.019.059.039.119.06.18l.035.1a2.268,2.268,0,0,0,.37.753,1.222,1.222,0,0,1,.238.958,1.568,1.568,0,0,0,0,.235.674.674,0,0,1-.377.675,7.745,7.745,0,0,1-.743.4c-.223.106-.453.209-.675.309-.349.157-.71.318-1.058.5a4.364,4.364,0,0,0-2.528,3.489.987.987,0,0,0,1.138,1.283h12.582q1.075,0,2.15,0a1.04,1.04,0,0,0,.781-.308.925.925,0,0,0,.225-.724A3.93,3.93,0,0,0,939.587,81.52Zm-8.558-1.228a2.511,2.511,0,0,0,.365-1.012,3.994,3.994,0,0,0,.045-.72c0-.108,0-.211,0-.313a1.937,1.937,0,0,0-.453-1.443,2.609,2.609,0,0,1-.41-.956c-.023-.082-.047-.163-.071-.242a1.151,1.151,0,0,0-.6-.814.417.417,0,0,1-.119-.243.384.384,0,0,1,.01-.253,1.071,1.071,0,0,0,.15-1.224,2.729,2.729,0,0,1,.64-3.12,3.673,3.673,0,0,1,2.159-.789.226.226,0,0,1,.059.058,1.052,1.052,0,0,0,1.008.668,1.19,1.19,0,0,1,1.117.79,2.873,2.873,0,0,1,.047,2.524.9.9,0,0,0,.1.99.429.429,0,0,1,.085.329.527.527,0,0,1-.213.345,1.233,1.233,0,0,0-.451.644,3.277,3.277,0,0,1-.733,1.6.947.947,0,0,0-.208.612c-.009.211-.006.423,0,.629s.006.409,0,.61a2.132,2.132,0,0,0,1.046,1.975,11.63,11.63,0,0,0,1.313.69c.134.063.267.126.4.191.224.109.453.213.675.313.335.152.682.308,1.007.483a2.155,2.155,0,0,1,1.014,1.067H926.266a1.353,1.353,0,0,1,.492-.713,19.664,19.664,0,0,1,1.731-1.014c.219-.118.452-.227.678-.331a9.906,9.906,0,0,0,.943-.481A3.159,3.159,0,0,0,931.028,80.292Z" transform="translate(-62.272 -48.372)" fill="#959595"/>
  </g>
</svg>
