<svg xmlns="http://www.w3.org/2000/svg" width="24.548" height="27.099" viewBox="0 0 24.548 27.099">
  <g id="ji7jaU.tif" transform="translate(-522.253 -177.546)">
    <g id="Group_52892" data-name="Group 52892" transform="translate(522.253 177.546)">
      <path id="Path_37154" data-name="Path 37154" d="M482.883,213.514a3.546,3.546,0,0,1-.019,5.628,3.639,3.639,0,0,0,2.5.993q3.99.016,7.979,0a6.238,6.238,0,0,1,5.1,2.439.939.939,0,0,0,.5.269,3.615,3.615,0,0,1,2.853,3.465,3.558,3.558,0,0,1-2.673,3.555,1.737,1.737,0,0,0-.94.605,6.184,6.184,0,0,1-4.885,2.158c-2.924,0-5.849,0-8.773-.006a.559.559,0,0,0-.6.362,3.5,3.5,0,0,1-4.1,1.84,3.555,3.555,0,0,1,.469-6.939,3.5,3.5,0,0,1,3.642,1.96.552.552,0,0,0,.6.362q4.368-.015,8.735,0a3.859,3.859,0,0,0,2.676-.93c-1.855-2.273-1.853-3.839.024-5.77a3.732,3.732,0,0,0-2.548-.938c-2.6,0-5.193-.008-7.79,0a6.257,6.257,0,0,1-5.307-2.623.723.723,0,0,0-.36-.237,3.489,3.489,0,0,1,0-6.783.713.713,0,0,0,.354-.244,6.16,6.16,0,0,1,5.2-2.591c3.013,0,6.025,0,9.038.005a.533.533,0,0,0,.575-.342,3.406,3.406,0,0,1,4.125-1.723,3.443,3.443,0,0,1-1.166,6.711,3.324,3.324,0,0,1-2.967-1.9.491.491,0,0,0-.505-.329c-3.051.01-6.1,0-9.151.008A3.487,3.487,0,0,0,482.883,213.514Zm15.324,14.061a1.186,1.186,0,1,0-1.2-1.194A1.181,1.181,0,0,0,498.206,227.575Zm-17.4,2.717a1.114,1.114,0,1,0,1.087,1.157A1.108,1.108,0,0,0,480.806,230.292Zm1.031-13.961a1.055,1.055,0,0,0-2.11-.023,1.055,1.055,0,1,0,2.11.023Zm16.355-6.042a1.016,1.016,0,1,0,1.01,1.012A1.011,1.011,0,0,0,498.193,210.288Z" transform="translate(-477.253 -207.858)" fill="#959595"/>
    </g>
  </g>
</svg>
