<svg xmlns="http://www.w3.org/2000/svg" width="25.989" height="29.696" viewBox="0 0 25.989 29.696">
  <g id="ZKJtJl.tif" transform="translate(-1505.811 246.464)">
    <g id="Group_52902" data-name="Group 52902" transform="translate(1505.811 -246.464)">
      <path id="Path_37164" data-name="Path 37164" d="M1510.333-243.5a3.564,3.564,0,0,1,.877-1.89,3.328,3.328,0,0,1,2.58-1.074c3.352.012,6.7,0,10.056.007a3.48,3.48,0,0,1,.727.05,3.277,3.277,0,0,1,2.63,2.564c.026.1.047.2.079.344.613,0,1.224-.007,1.836,0a2.6,2.6,0,0,1,2.559,1.87,3.209,3.209,0,0,1,.114.856c.011,1.438.01,2.877,0,4.316a4.829,4.829,0,0,1-4.709,4.836.344.344,0,0,0-.368.263,8.268,8.268,0,0,1-6.464,5.4c-.1.02-.2.046-.322.073v2.433c.337,0,.658-.01.978,0a18.6,18.6,0,0,1,2.6.131,4.771,4.771,0,0,1,3.833,4.629c0,.232,0,.464,0,.7a1.114,1.114,0,0,1-1.234,1.224q-4.019.005-8.038,0h-6.438c-.978,0-1.334-.386-1.365-1.374a5.03,5.03,0,0,1,.995-3.4,4.794,4.794,0,0,1,3.916-1.912c.821-.008,1.642,0,2.485,0v-2.413c-.485-.127-.972-.226-1.441-.381a8.2,8.2,0,0,1-5.317-5.069.385.385,0,0,0-.412-.308,4.807,4.807,0,0,1-4.669-4.724c-.021-1.5-.015-2.993,0-4.49a2.6,2.6,0,0,1,2.665-2.661C1509.1-243.508,1509.713-243.5,1510.333-243.5Zm8.492-.73c-1.716,0-3.432,0-5.148,0a1.077,1.077,0,0,0-1.175,1.163c0,.278,0,.556,0,.835,0,2.771-.038,5.544.015,8.314a6.238,6.238,0,0,0,5.815,5.987,6.288,6.288,0,0,0,6.781-6.364q.007-4.331,0-8.662a1.119,1.119,0,0,0-1.281-1.274Q1521.329-244.234,1518.825-244.23Zm6.2,25.217a2.513,2.513,0,0,0-2.551-2.206c-2.447-.014-4.895-.006-7.342,0a2.486,2.486,0,0,0-1.5.471,2.554,2.554,0,0,0-1.047,1.737Zm-14.755-22.257c-.642,0-1.231-.005-1.82,0a.367.367,0,0,0-.4.418c0,1.552-.021,3.105.02,4.656a2.438,2.438,0,0,0,2.2,2.255Zm17.072,7.323a2.417,2.417,0,0,0,2.209-2.262c.055-1.553.018-3.108.02-4.663a.349.349,0,0,0-.356-.391c-.611-.014-1.223,0-1.873,0Z" transform="translate(-1505.811 246.464)" fill="#959595"/>
    </g>
  </g>
</svg>
