<svg id="LWXTTP.tif" xmlns="http://www.w3.org/2000/svg" width="39.37" height="50.958" viewBox="0 0 39.37 50.958">
  <g id="Group_53076" data-name="Group 53076" transform="translate(0 0)">
    <path id="Path_37241" data-name="Path 37241" d="M75.771,256.572c0-6.458.085-12.917-.034-19.372a5.944,5.944,0,0,1,6.206-6.141c6.391.106,12.785.037,19.178.019a1.94,1.94,0,0,1,1.531.6q5.953,6,11.96,11.954a1.5,1.5,0,0,1,.494,1.16c-.012,10.432,0,20.863-.016,31.295a5.643,5.643,0,0,1-6.037,5.922q-13.657.005-27.315,0a5.631,5.631,0,0,1-5.964-5.9Q75.76,266.341,75.771,256.572Zm1.488-.018q0,9.644,0,19.288c0,3.035,1.666,4.683,4.737,4.685q6.807,0,13.615,0c4.538,0,9.076.013,13.614-.006a4.112,4.112,0,0,0,4.359-4.135c.022-10.265.007-20.53.023-30.8,0-.55-.177-.7-.71-.693-1.8.028-3.6.014-5.4.01a5.827,5.827,0,0,1-6.215-6.148c-.016-1.738-.034-3.478.011-5.215.019-.735-.162-.995-.96-.99-6.143.035-12.286.015-18.429.021-2.959,0-4.647,1.682-4.648,4.607Q77.256,246.868,77.259,256.553Zm25.1-22.789c0,1.778-.017,3.528,0,5.278a4.688,4.688,0,0,0,4.78,4.768c1.465.018,2.931.01,4.4,0,.261,0,.632.143.759-.131.137-.3-.241-.449-.421-.629q-4.385-4.4-8.789-8.781C102.9,234.086,102.768,233.823,102.359,233.764Z" transform="translate(-75.736 -231.057)" fill="#4f3433"/>
    <path id="Path_37242" data-name="Path 37242" d="M84.893,264.063q0-9.685,0-19.371c0-2.925,1.69-4.6,4.648-4.607,6.143-.006,12.287.014,18.429-.021.8,0,.979.256.96.99-.045,1.737-.027,3.477-.011,5.215a5.827,5.827,0,0,0,6.215,6.148c1.8,0,3.6.018,5.4-.01.533-.008.711.143.71.693-.016,10.265,0,20.53-.023,30.8a4.112,4.112,0,0,1-4.359,4.135c-4.538.019-9.076.006-13.615.006s-9.076,0-13.615,0c-3.071,0-4.736-1.65-4.737-4.685Q84.892,273.707,84.893,264.063Zm1.678-.037q0,9.357,0,18.715a3.257,3.257,0,0,0,3.522,3.6q12.954.02,25.909,0a3.252,3.252,0,0,0,3.549-3.568q.01-7.494,0-14.988a4.461,4.461,0,0,0-.028-.661.517.517,0,0,0-1.032.057c-.012.248-.013.5-.013.745q0,7.246,0,14.492c0,2.136-.7,2.838-2.821,2.838q-12.581,0-25.162,0c-2.172,0-2.861-.7-2.861-2.89q0-18.3,0-36.6c0-.221-.008-.442,0-.662a2.144,2.144,0,0,1,2.271-2.224c.636-.021,1.274,0,1.909-.023.288-.012.55-.131.57-.482.022-.393-.241-.55-.571-.569-.524-.031-1.051-.023-1.577-.02-2.411.015-3.673,1.282-3.674,3.7Q86.568,254.751,86.572,264.025Zm5.844-3.127a2.613,2.613,0,0,0-2.623,2.8,2.486,2.486,0,0,0,3.023,2.39,1.868,1.868,0,0,1,2.218.784c.353.388.724.761,1.113,1.114a.723.723,0,0,1,.217.929,2.585,2.585,0,0,0,.932,3.151,2.651,2.651,0,0,0,3.168-.106,2.573,2.573,0,0,0,.725-3.2.735.735,0,0,1,.15-.941c.982-1.086,1.957-2.178,2.894-3.3.424-.509.8-.85,1.521-.517a1.183,1.183,0,0,0,.968,0c1.182-.763,1.851.077,2.6.733.436.383.866.776,1.329,1.124a1.085,1.085,0,0,1,.462,1.387,2.514,2.514,0,0,0,1.334,2.85,2.642,2.642,0,0,0,3.572-3.6c-.547-1-1.827-1.753-2.779-1.291-1.208.586-1.82-.053-2.553-.716q-.767-.695-1.579-1.341a.8.8,0,0,1-.335-.979,2.584,2.584,0,0,0-1.125-3.017,2.674,2.674,0,0,0-3.1.236,2.566,2.566,0,0,0-.679,3.143.745.745,0,0,1-.139.948c-.964,1.064-1.922,2.135-2.837,3.241-.449.542-.841,1-1.627.587a.9.9,0,0,0-.725-.033c-1.131.615-1.766-.1-2.42-.825a9,9,0,0,0-.941-.932.865.865,0,0,1-.258-1.135A2.6,2.6,0,0,0,92.416,260.9Zm26.069,1.461q0,1.033,0,2.066c0,.379.131.673.557.657.377-.014.5-.3.5-.636q.01-1.983,0-3.966c0-.338-.145-.61-.525-.613-.437,0-.539.3-.538.675C118.486,261.148,118.485,261.754,118.485,262.36Zm1.053-5.727h.009c0-.44.014-.88,0-1.319-.014-.339-.173-.588-.557-.574a.485.485,0,0,0-.494.544q-.012,1.319,0,2.638a.519.519,0,1,0,1.038.029C119.559,257.512,119.539,257.072,119.539,256.632Z" transform="translate(-83.371 -238.566)" fill="#faf8eb"/>
    <path id="Path_37243" data-name="Path 37243" d="M235.847,247.34c.408.058.545.322.729.505q4.4,4.382,8.789,8.781c.18.18.558.334.421.629-.127.273-.5.129-.759.131-1.465.011-2.931.018-4.4,0a4.688,4.688,0,0,1-4.78-4.768C235.829,250.868,235.847,249.117,235.847,247.34Z" transform="translate(-209.223 -244.633)" fill="#faf1a7"/>
    <path id="Path_37244" data-name="Path 37244" d="M94.986,272.611q0-9.275,0-18.549c0-2.415,1.262-3.682,3.674-3.7.526,0,1.053-.011,1.577.02.33.019.593.176.571.569-.02.351-.282.47-.57.482-.636.026-1.273,0-1.909.023a2.144,2.144,0,0,0-2.271,2.224c-.012.22,0,.442,0,.662q0,18.3,0,36.6c0,2.192.689,2.889,2.861,2.89q12.581,0,25.162,0c2.124,0,2.821-.7,2.821-2.838q0-7.246,0-14.492c0-.248,0-.5.013-.745a.517.517,0,0,1,1.032-.057,4.461,4.461,0,0,1,.028.661q0,7.494,0,14.988a3.252,3.252,0,0,1-3.549,3.568q-12.954.019-25.909,0a3.257,3.257,0,0,1-3.522-3.6Q94.981,281.968,94.986,272.611Z" transform="translate(-91.785 -247.152)" fill="#513735"/>
    <path id="Path_37245" data-name="Path 37245" d="M116.961,354.7a2.6,2.6,0,0,1,2.5,3.484.865.865,0,0,0,.258,1.135,9,9,0,0,1,.941.932c.655.727,1.289,1.44,2.42.825a.9.9,0,0,1,.725.033c.786.411,1.179-.045,1.627-.587.915-1.106,1.874-2.177,2.837-3.241a.745.745,0,0,0,.139-.948,2.566,2.566,0,0,1,.679-3.143,2.674,2.674,0,0,1,3.1-.236,2.584,2.584,0,0,1,1.125,3.017.8.8,0,0,0,.335.979q.81.645,1.579,1.341c.732.663,1.345,1.3,2.553.716.952-.462,2.232.3,2.779,1.291a2.642,2.642,0,0,1-3.572,3.6,2.514,2.514,0,0,1-1.334-2.85,1.085,1.085,0,0,0-.462-1.387c-.463-.348-.893-.741-1.329-1.124-.748-.656-1.417-1.5-2.6-.733a1.183,1.183,0,0,1-.968,0c-.718-.332-1.1.008-1.521.517-.936,1.124-1.912,2.217-2.893,3.3a.735.735,0,0,0-.15.941,2.573,2.573,0,0,1-.725,3.2,2.651,2.651,0,0,1-3.168.106,2.585,2.585,0,0,1-.932-3.151.723.723,0,0,0-.217-.929c-.388-.352-.76-.726-1.113-1.113a1.868,1.868,0,0,0-2.218-.784,2.486,2.486,0,0,1-3.023-2.39A2.613,2.613,0,0,1,116.961,354.7Zm-1.537,2.641a1.5,1.5,0,0,0,1.566,1.549,1.571,1.571,0,0,0,1.577-1.567,1.619,1.619,0,0,0-1.593-1.567A1.551,1.551,0,0,0,115.424,357.34Zm7.917,4.8a1.556,1.556,0,0,0-1.564,1.572,1.578,1.578,0,1,0,3.155-.028A1.562,1.562,0,0,0,123.341,362.138Zm7.493-8.469a1.519,1.519,0,0,0-1.611,1.51,1.578,1.578,0,1,0,3.155.072A1.545,1.545,0,0,0,130.835,353.669ZM138.259,360a1.572,1.572,0,0,0-.034,3.143,1.572,1.572,0,1,0,.034-3.143Z" transform="translate(-107.916 -332.368)" fill="#513735"/>
    <path id="Path_37246" data-name="Path 37246" d="M286.951,361.677c0-.606,0-1.212,0-1.818,0-.37.1-.678.538-.675.38,0,.523.275.525.613q.01,1.983,0,3.966c0,.332-.127.623-.5.636-.426.015-.558-.279-.557-.657Q286.952,362.71,286.951,361.677Z" transform="translate(-251.837 -337.884)" fill="#513735"/>
    <path id="Path_37247" data-name="Path 37247" d="M288.019,330.228c0,.44.02.88-.007,1.318a.519.519,0,1,1-1.038-.029q-.013-1.319,0-2.638a.485.485,0,0,1,.494-.544c.384-.014.542.235.557.574.018.439,0,.879,0,1.319Z" transform="translate(-251.851 -312.162)" fill="#513735"/>
    <path id="Path_37248" data-name="Path 37248" d="M120.9,373.322a1.551,1.551,0,0,1,1.55-1.585,1.619,1.619,0,0,1,1.593,1.567,1.571,1.571,0,0,1-1.577,1.567A1.5,1.5,0,0,1,120.9,373.322Z" transform="translate(-113.39 -348.35)" fill="#f0c140"/>
    <path id="Path_37249" data-name="Path 37249" d="M160.678,410.131a1.562,1.562,0,0,1,1.591,1.544,1.578,1.578,0,1,1-3.155.028A1.556,1.556,0,0,1,160.678,410.131Z" transform="translate(-145.253 -380.361)" fill="#f0c140"/>
    <path id="Path_37250" data-name="Path 37250" d="M205.514,359.187a1.545,1.545,0,0,1,1.544,1.582,1.578,1.578,0,1,1-3.155-.072A1.519,1.519,0,0,1,205.514,359.187Z" transform="translate(-182.596 -337.886)" fill="#f0c140"/>
    <path id="Path_37251" data-name="Path 37251" d="M250.3,397.281a1.572,1.572,0,1,1-1.585,1.552A1.571,1.571,0,0,1,250.3,397.281Z" transform="translate(-219.96 -369.647)" fill="#f0c140"/>
  </g>
</svg>
