<svg id="_9VHpHE.tif" data-name="9VHpHE.tif" xmlns="http://www.w3.org/2000/svg" width="56.939" height="56.839" viewBox="0 0 56.939 56.839">
  <g id="Group_53086" data-name="Group 53086">
    <g id="Group_53079" data-name="Group 53079" transform="translate(5.764 5.792)">
      <path id="Path_37276" data-name="Path 37276" d="M1061.172,260.373a15.6,15.6,0,1,1-16.133-15.591,15.562,15.562,0,0,1,16.133,15.591Zm-9.824,10.251a1.271,1.271,0,0,0,1.339-1.467c-.26-1.659-.539-3.315-.825-4.969a1.528,1.528,0,0,1,.473-1.485c1.2-1.143,2.378-2.309,3.559-3.471a1.269,1.269,0,0,0,.35-1.4,1.285,1.285,0,0,0-1.094-.9q-2.435-.359-4.872-.7a1.5,1.5,0,0,1-1.252-.818c-.706-1.441-1.407-2.884-2.117-4.323a1.519,1.519,0,0,0-.87-.912,1.31,1.31,0,0,0-1.685.731q-1.091,2.188-2.157,4.388a1.568,1.568,0,0,1-1.294.934c-1.575.217-3.146.463-4.721.678a1.371,1.371,0,0,0-1.262.948,1.353,1.353,0,0,0,.463,1.475c1.173,1.134,2.337,2.278,3.506,3.416a1.352,1.352,0,0,1,.452,1.24c-.279,1.643-.559,3.286-.861,4.925a1.358,1.358,0,0,0,.518,1.455,1.29,1.29,0,0,0,1.473.068c1.431-.754,2.868-1.494,4.29-2.262a1.588,1.588,0,0,1,1.629,0c1.426.762,2.864,1.5,4.3,2.253A1.134,1.134,0,0,0,1051.348,270.624Z" transform="translate(-1029.976 -244.775)" fill="#f7f7f8"/>
    </g>
    <g id="Group_53080" data-name="Group 53080">
      <path id="Path_37277" data-name="Path 37277" d="M1033.037,251.518c-.46.09-.736.475-1.113.7a24.914,24.914,0,0,1-2.925,1.615,23.466,23.466,0,0,1-2.665,1,29.882,29.882,0,0,1-3.224.7,17.921,17.921,0,0,1-2.425.176,17.242,17.242,0,0,1-3.369-.251,22.884,22.884,0,0,1-4.292-1.123,21.415,21.415,0,0,1-2.738-1.3,21.014,21.014,0,0,1-5.293-4.249,15.444,15.444,0,0,1-1.315-1.676,20.385,20.385,0,0,1-2.823-5.536,22.255,22.255,0,0,1-.909-4.106,22.488,22.488,0,0,1-.143-2.661,20.891,20.891,0,0,1,9.117-16.86,24.62,24.62,0,0,1,2.881-1.6,18.49,18.49,0,0,1,3.5-1.247,20.06,20.06,0,0,1,3.331-.562c.465-.034.942-.1,1.4-.1a15.312,15.312,0,0,1,1.788.055c.727.094,1.459.129,2.185.272a26.388,26.388,0,0,1,3.019.77,18.95,18.95,0,0,1,3.172,1.359,20.435,20.435,0,0,1,3.355,2.269,19.827,19.827,0,0,1,1.9,1.762,21.563,21.563,0,0,1,2.828,3.817,20.4,20.4,0,0,1,2.008,4.751,21.915,21.915,0,0,1,.632,3.2,19.064,19.064,0,0,1,.022,4.519,25.5,25.5,0,0,1-.584,3.213,14.768,14.768,0,0,1-.667,2.045,25.763,25.763,0,0,1-1.071,2.346,23.043,23.043,0,0,1-1.553,2.469,1.7,1.7,0,0,0-.189.411c-.122-.027-.178.056-.243.137a21.193,21.193,0,0,1-3.44,3.444A.328.328,0,0,0,1033.037,251.518Zm2.978-16.444a15.562,15.562,0,0,0-16.133-15.591,15.6,15.6,0,1,0,16.133,15.591Z" transform="translate(-999.054 -213.684)" fill="#d2e5ec"/>
      <path id="Path_37278" data-name="Path 37278" d="M1016.453,252.712a18.858,18.858,0,0,1-3.007-.269,23.8,23.8,0,0,1-4.432-1.16,22,22,0,0,1-2.835-1.345,21.547,21.547,0,0,1-5.483-4.4,16.194,16.194,0,0,1-1.38-1.756,20.977,20.977,0,0,1-2.924-5.738,21.726,21.726,0,0,1-1.089-6.993,20.436,20.436,0,0,1,.577-4.689,21.292,21.292,0,0,1,6.671-11.079,20.306,20.306,0,0,1,2.21-1.724,25.576,25.576,0,0,1,2.969-1.652,19.36,19.36,0,0,1,3.641-1.3,20.8,20.8,0,0,1,3.455-.582c.14-.01.282-.024.424-.038a9.82,9.82,0,0,1,1.038-.062c.145,0,.291,0,.437,0a10.771,10.771,0,0,1,1.439.06c.25.032.5.058.753.083.48.048.977.1,1.481.2a26.918,26.918,0,0,1,3.1.792,19.755,19.755,0,0,1,3.3,1.412,21.3,21.3,0,0,1,3.478,2.352,20.2,20.2,0,0,1,1.974,1.829,22.411,22.411,0,0,1,2.925,3.949,21.227,21.227,0,0,1,2.082,4.924,22.541,22.541,0,0,1,.654,3.313,19.69,19.69,0,0,1,.024,4.7,26.154,26.154,0,0,1-.6,3.308,15.588,15.588,0,0,1-.7,2.149,26.133,26.133,0,0,1-1.1,2.413,24,24,0,0,1-1.6,2.55.987.987,0,0,0-.081.189l-.245.663-.3-.065a22.046,22.046,0,0,1-3.283,3.27l-.016.371-.579.114a1.184,1.184,0,0,0-.407.265,3.7,3.7,0,0,1-.467.343l-.5.3a20.279,20.279,0,0,1-2.514,1.36,24.14,24.14,0,0,1-2.75,1.031,30.863,30.863,0,0,1-3.3.716,15.294,15.294,0,0,1-2.156.174l-.369.012Q1016.71,252.712,1016.453,252.712Zm-.223-41.283c-.261,0-.541.027-.837.056-.153.015-.306.029-.458.041a19.324,19.324,0,0,0-3.207.542,17.86,17.86,0,0,0-3.359,1.2,24.051,24.051,0,0,0-2.794,1.555,19.871,19.871,0,0,0-8.777,16.228,21.9,21.9,0,0,0,.138,2.573,21.365,21.365,0,0,0,.878,3.969,19.518,19.518,0,0,0,2.721,5.333,14.731,14.731,0,0,0,1.25,1.6,20.121,20.121,0,0,0,5.1,4.1,20.805,20.805,0,0,0,2.642,1.258,22.288,22.288,0,0,0,4.152,1.086,16.29,16.29,0,0,0,3.223.242l.377-.013a13.963,13.963,0,0,0,1.949-.152,29.592,29.592,0,0,0,3.143-.679,22.885,22.885,0,0,0,2.579-.97,18.864,18.864,0,0,0,2.328-1.264c.169-.1.338-.2.508-.305a2.519,2.519,0,0,0,.281-.212,2.945,2.945,0,0,1,.685-.456,1.312,1.312,0,0,1,.223-.218,20.542,20.542,0,0,0,3.318-3.322,1.3,1.3,0,0,1,.254-.25,1.774,1.774,0,0,1,.152-.264,22.6,22.6,0,0,0,1.5-2.388,24.709,24.709,0,0,0,1.039-2.277,14.044,14.044,0,0,0,.634-1.941,24.694,24.694,0,0,0,.568-3.119,18.194,18.194,0,0,0-.021-4.342,21.038,21.038,0,0,0-.61-3.1,19.731,19.731,0,0,0-1.934-4.577,20.908,20.908,0,0,0-2.73-3.685,18.8,18.8,0,0,0-1.832-1.695,19.79,19.79,0,0,0-3.232-2.186,18.252,18.252,0,0,0-3.047-1.305,25.453,25.453,0,0,0-2.933-.748c-.434-.085-.875-.13-1.342-.176-.259-.026-.527-.053-.795-.087a9.569,9.569,0,0,0-1.242-.048c-.153,0-.306,0-.459,0Zm.471,36.242-.276,0a16.346,16.346,0,0,1-.316-32.683,16.364,16.364,0,0,1,12.079,27.956A16.2,16.2,0,0,1,1016.7,247.67Zm-.051-31.2c-.166,0-.331,0-.5.007a14.852,14.852,0,1,0,10.983,25.4,14.6,14.6,0,0,0,4.381-10.55v-.018a14.809,14.809,0,0,0-14.865-14.837Z" transform="translate(-995.302 -209.933)"/>
    </g>
    <g id="Group_53081" data-name="Group 53081" transform="translate(34.817 34.741)">
      <path id="Path_37279" data-name="Path 37279" d="M1216.235,423.511l8.052,6.337c1.111.875,2.23,1.741,3.33,2.63a6.6,6.6,0,0,1,1.99,7.108,6.512,6.512,0,0,1-6.153,4.509,6.3,6.3,0,0,1-5.209-2.451c-2.841-3.57-5.648-7.166-8.47-10.751-.142-.18-.287-.358-.431-.536.01-.143.12-.219.208-.308q3.151-3.153,6.3-6.3A.6.6,0,0,1,1216.235,423.511Z" transform="translate(-1208.577 -422.745)" fill="#c17e49"/>
      <path id="Path_37280" data-name="Path 37280" d="M1219.519,441a7.055,7.055,0,0,1-5.7-2.733c-2-2.517-4.021-5.088-5.974-7.575q-1.249-1.59-2.5-3.18c-.092-.117-.187-.234-.28-.35l-.329-.409.02-.292a1.129,1.129,0,0,1,.4-.757l.029-.028,2.193-2.193,4.11-4.112.016-.016a1.278,1.278,0,0,1,.844-.435l.287-.019,2.583,2.033,5.695,4.482.941.738c.788.617,1.6,1.256,2.4,1.9a7.334,7.334,0,0,1,2.224,7.94,7.259,7.259,0,0,1-6.85,5.007Zm-13.06-14.488.059.075q1.251,1.59,2.5,3.181c1.951,2.485,3.968,5.054,5.968,7.567a5.535,5.535,0,0,0,4.532,2.169h.083a5.8,5.8,0,0,0,5.457-4.011,5.875,5.875,0,0,0-1.755-6.276c-.785-.634-1.6-1.269-2.379-1.883l-.943-.74-5.694-4.482-1.918-1.509-3.939,3.94Z" transform="translate(-1204.732 -418.905)"/>
    </g>
    <g id="Group_53082" data-name="Group 53082" transform="translate(33.437 33.464)">
      <path id="Path_37281" data-name="Path 37281" d="M1205.472,413.267a.6.6,0,0,0-.38.233q-3.151,3.153-6.3,6.3c-.089.089-.2.165-.208.308-.263.078-.443.3-.75.335a1.188,1.188,0,0,1-1.251-.582,1.22,1.22,0,0,1,.184-1.415c.41-.419.826-.832,1.243-1.244a.476.476,0,0,0,.194-.393c.184.083.28-.051.386-.157l3.312-3.312c.1-.1.22-.183.149-.352.179.021.275-.1.383-.212q.594-.6,1.19-1.189a1.275,1.275,0,0,1,1.5-.207,1.207,1.207,0,0,1,.434,1.635A.506.506,0,0,0,1205.472,413.267Z" transform="translate(-1196.435 -411.224)"/>
    </g>
    <g id="Group_53083" data-name="Group 53083" transform="translate(33.983 34.003)">
      <path id="Path_37282" data-name="Path 37282" d="M1204.782,415.7c.071.168-.052.255-.149.352l-3.312,3.312c-.106.106-.2.241-.386.157l-1.221-1.219a.327.327,0,0,1,.159-.245,21.2,21.2,0,0,0,3.44-3.444c.065-.082.121-.164.243-.137Z" transform="translate(-1199.715 -414.469)"/>
    </g>
    <g id="Group_53084" data-name="Group 53084" transform="translate(9.891 10.375)">
      <path id="Path_37283" data-name="Path 37283" d="M1075.806,297.352a1.134,1.134,0,0,1-.658-.19c-1.433-.75-2.87-1.491-4.3-2.253a1.588,1.588,0,0,0-1.629,0c-1.422.769-2.86,1.509-4.291,2.262a1.29,1.29,0,0,1-1.473-.068,1.358,1.358,0,0,1-.518-1.455c.3-1.639.582-3.282.861-4.925a1.352,1.352,0,0,0-.452-1.24c-1.169-1.138-2.333-2.282-3.506-3.416a1.354,1.354,0,0,1-.463-1.475,1.371,1.371,0,0,1,1.262-.948c1.575-.215,3.146-.461,4.721-.678a1.568,1.568,0,0,0,1.294-.934q1.063-2.2,2.157-4.388a1.31,1.31,0,0,1,1.685-.731,1.519,1.519,0,0,1,.87.912c.709,1.439,1.411,2.883,2.117,4.323a1.5,1.5,0,0,0,1.252.818q2.438.338,4.872.7a1.285,1.285,0,0,1,1.094.9,1.269,1.269,0,0,1-.35,1.4c-1.182,1.162-2.36,2.327-3.559,3.471a1.527,1.527,0,0,0-.473,1.485c.286,1.654.566,3.31.825,4.969A1.271,1.271,0,0,1,1075.806,297.352Z" transform="translate(-1058.56 -276.086)" fill="#fcba51"/>
      <path id="Path_37284" data-name="Path 37284" d="M1060.447,294.37a1.979,1.979,0,0,1-1.2-.414,2.09,2.09,0,0,1-.805-2.19c.3-1.623.577-3.251.859-4.914a.606.606,0,0,0-.236-.579q-.62-.6-1.239-1.209-1.131-1.1-2.266-2.206a2.069,2.069,0,0,1-.655-2.243,2.1,2.1,0,0,1,1.873-1.458c.81-.111,1.634-.232,2.431-.349.763-.112,1.526-.224,2.289-.329a.824.824,0,0,0,.722-.518c.635-1.317,1.322-2.714,2.161-4.4a2.061,2.061,0,0,1,2.575-1.112,2.244,2.244,0,0,1,1.32,1.3q.671,1.361,1.336,2.726.391.8.782,1.6c.1.2.252.346.683.406,1.4.195,2.908.411,4.879.7a2.081,2.081,0,0,1,1.159,3.567l-.485.477c-1,.988-2.043,2.011-3.083,3a.786.786,0,0,0-.252.816c.347,2.007.6,3.543.827,4.981a1.969,1.969,0,0,1-.449,1.615,2.119,2.119,0,0,1-1.586.716,1.854,1.854,0,0,1-1.048-.276l-1.281-.668c-.991-.517-2.017-1.051-3.021-1.588a.852.852,0,0,0-.921,0c-.975.527-1.972,1.049-2.936,1.553q-.681.356-1.361.714A2.291,2.291,0,0,1,1060.447,294.37Zm5.792-20.536c-.227,0-.383.125-.519.4-.836,1.677-1.52,3.068-2.153,4.379a2.312,2.312,0,0,1-1.866,1.35c-.759.1-1.518.216-2.276.327-.8.118-1.629.239-2.446.351-.492.067-.589.246-.652.438s-.08.365.272.706q1.139,1.1,2.271,2.211l1.237,1.207a2.079,2.079,0,0,1,.668,1.9c-.283,1.669-.562,3.3-.863,4.935a.621.621,0,0,0,.231.721c.137.1.313.2.676,0q.682-.359,1.365-.716c.96-.5,1.952-1.02,2.918-1.543a2.343,2.343,0,0,1,2.338,0c1,.533,2.019,1.065,3.007,1.58l1.284.67a1.767,1.767,0,0,0,.234.109l.028,0h.059a.623.623,0,0,0,.485-.2.489.489,0,0,0,.1-.407c-.224-1.43-.478-2.958-.823-4.957a2.281,2.281,0,0,1,.694-2.154c1.031-.983,2.065-2,3.066-2.985l.485-.477a.525.525,0,0,0,.167-.62.543.543,0,0,0-.5-.4c-1.966-.29-3.467-.506-4.866-.7a2.228,2.228,0,0,1-1.821-1.23q-.392-.8-.783-1.6-.665-1.361-1.333-2.721c-.176-.356-.277-.484-.419-.528A.943.943,0,0,0,1066.239,273.834Z" transform="translate(-1054.796 -272.341)"/>
    </g>
    <g id="Group_53085" data-name="Group 53085" transform="translate(17.212 19.001)">
      <path id="Path_37285" data-name="Path 37285" d="M1098.839,327.48a.909.909,0,0,1,.5-.84.85.85,0,0,1,1,.082,15.989,15.989,0,0,1,1.177,1.144c.244.264.4.285.664.01,1.074-1.106,2.172-2.189,3.266-3.276a.956.956,0,0,1,1.336-.169.922.922,0,0,1,.1,1.411c-.343.376-.714.727-1.075,1.087q-1.567,1.569-3.135,3.136a1,1,0,0,1-1.62.016c-.616-.608-1.227-1.222-1.838-1.836A1.015,1.015,0,0,1,1098.839,327.48Z" transform="translate(-1098.839 -324.23)"/>
    </g>
  </g>
</svg>
