<svg id="NQYSVf.tif" xmlns="http://www.w3.org/2000/svg" width="34.838" height="34.836" viewBox="0 0 34.838 34.836">
  <g id="Group_49691" data-name="Group 49691" transform="translate(0)">
    <path id="Path_33943" data-name="Path 33943" d="M-1150.75,31.723a.692.692,0,0,1,.312.965c-.826,2.436-1.627,4.88-2.456,7.315a1.738,1.738,0,0,1-.462.685q-4.523,4.151-9.064,8.282c-.135.124-.268.25-.432.4l2.975,3.263c.425-.295.842-.581,1.256-.871.742-.519,1.489-1.033,2.222-1.565a.633.633,0,0,1,.938.056c.5.5,1.023.979,1.53,1.474.387.377.391.622.009,1.007-.927.935-1.861,1.864-2.792,2.8-.1.1-.192.2-.313.331.334.419.66.826.984,1.233.838,1.052,1.667,2.111,2.522,3.149a1.027,1.027,0,0,0,.585.331,2.956,2.956,0,0,1,2.456,3.888,2.9,2.9,0,0,1-3.037,2.086,2.819,2.819,0,0,1-2.763-2.464,1.178,1.178,0,0,0-.488-.831c-1.328-1.037-2.64-2.095-3.957-3.144-.1-.078-.2-.148-.334-.246-.91.914-1.807,1.815-2.705,2.715s-.906.906-1.781-.013q-.425-.446-.853-.889c-.648-.671-.648-.674-.1-1.456l2.242-3.2-3.49-3.186-3.5,3.185,2.325,3.317c.435.621.426.708-.106,1.26-.432.449-.86.9-1.294,1.349-.4.407-.636.411-1.037.012-1.024-1.018-2.043-2.041-3.1-3.094-.318.249-.627.489-.933.733-1.163.926-2.331,1.846-3.481,2.787a.988.988,0,0,0-.319.549,3.036,3.036,0,0,1-2.9,2.62,3.027,3.027,0,0,1-3.014-2.431,1.216,1.216,0,0,0-.077-.19v-.765a.746.746,0,0,0,.07-.149,3.009,3.009,0,0,1,2.6-2.449.994.994,0,0,0,.54-.336c.923-1.129,1.826-2.274,2.734-3.415.253-.318.5-.64.764-.975-1.038-1.038-2.05-2.047-3.059-3.059-.446-.447-.446-.665,0-1.1s.92-.882,1.379-1.323c.484-.465.609-.474,1.164-.085l3.359,2.355,2.978-3.265c-.143-.135-.243-.233-.347-.328q-4.581-4.181-9.157-8.367a1.792,1.792,0,0,1-.456-.689c-.34-.944-.638-1.9-.958-2.853q-.8-2.369-1.607-4.735v-.68h.68c.077.033.152.072.231.1,2.426.811,4.856,1.613,7.276,2.441a2.009,2.009,0,0,1,.8.514q3.682,4,7.336,8.026c.359.394.722.785,1.125,1.222.108-.133.182-.235.266-.328q4.064-4.457,8.138-8.9a2,2,0,0,1,.793-.518c2.353-.806,4.714-1.586,7.072-2.377a3.376,3.376,0,0,0,.368-.174Zm-23.969,21.55c.313.221.6.428.891.627.19.129.344.3.64.183.232-.09.5.254.5.54a.83.83,0,0,0,.077.428c.224.359.48.7.739,1.065.132-.116.249-.216.362-.32q8.663-7.9,17.32-15.813a1.3,1.3,0,0,0,.334-.521c.673-1.982,1.331-3.968,1.992-5.954.033-.1.048-.2.082-.347-2.115.7-4.181,1.387-6.241,2.086a1.466,1.466,0,0,0-.588.378q-7.844,8.574-15.673,17.161C-1174.428,52.942-1174.565,53.1-1174.719,53.273Zm-9.031-20.126c.736,2.209,1.438,4.329,2.155,6.445a1.143,1.143,0,0,0,.327.427q4.546,4.16,9.1,8.31c.081.074.168.141.268.224l3.413-3.738c-2.47-2.707-4.944-5.34-7.319-8.059A6.352,6.352,0,0,0-1179,34.7C-1180.577,34.264-1182.114,33.69-1183.75,33.147Zm12.888,28.691,1.011-.912c-.064-.1-.1-.161-.138-.218q-1.851-2.642-3.708-5.281a1.767,1.767,0,0,0-.427-.4q-2.532-1.786-5.073-3.56c-.1-.07-.208-.128-.338-.208l-.927.982Zm14.889-10.6c-1.215.852-2.338,1.721-3.538,2.463a11.218,11.218,0,0,0-3.7,3.7c-.744,1.2-1.608,2.323-2.422,3.484l.964.968,9.615-9.616Zm-7.683-1.132c-.273.248-.509.469-.753.681a1.162,1.162,0,0,0-.522.853c-.014.34-.316.376-.6.389a.518.518,0,0,0-.289.057c-.374.322-.733.661-1.122,1.016l3.314,3.021c.184-.261.339-.479.493-.7a1.217,1.217,0,0,0,.343-.858c-.034-.366.269-.48.6-.493a.724.724,0,0,0,.344-.056c.356-.229.7-.48,1.074-.745Zm-15.608,12.2,3.979-3.173-2.439-2.455-3.179,3.988Zm21.515-5.6-2.439,2.444,4.066,3.243a2.679,2.679,0,0,1,1.624-1.608Zm4.43,4.936a1.813,1.813,0,0,0-1.937,1.9,1.819,1.819,0,0,0,1.908,1.929,1.82,1.82,0,0,0,1.918-1.879A1.817,1.817,0,0,0-1153.32,61.639Zm-26.922,1.9a1.9,1.9,0,0,0-1.919-1.9,1.905,1.905,0,0,0-1.906,1.919,1.914,1.914,0,0,0,1.922,1.907A1.908,1.908,0,0,0-1180.241,63.542Z" transform="translate(1185.173 -31.723)"/>
    <path id="Path_33944" data-name="Path 33944" d="M-1062.474,68.724c.153-.173.291-.331.432-.486q7.833-8.583,15.673-17.161a1.466,1.466,0,0,1,.588-.378c2.06-.7,4.126-1.382,6.241-2.086-.033.144-.049.248-.082.347-.661,1.986-1.32,3.972-1.992,5.954a1.293,1.293,0,0,1-.334.521q-8.654,7.913-17.32,15.813c-.114.1-.23.2-.362.32-.258-.367-.515-.706-.739-1.065a.825.825,0,0,1-.077-.428c0-.286-.266-.631-.5-.54-.3.115-.45-.054-.64-.183C-1061.875,69.152-1062.161,68.945-1062.474,68.724Zm17.418-14.209c-.092-.082-.245-.328-.434-.36a.433.433,0,0,0-.543.472.722.722,0,0,0,.408.519C-1045.344,55.206-1045.088,55.028-1045.056,54.515Zm-3.43,2.651c-.388.109-.7.214-.624.564a.733.733,0,0,0,.437.5.438.438,0,0,0,.519-.5C-1048.184,57.518-1048.379,57.336-1048.486,57.166Zm-4.2,5.086c-.174-.147-.34-.4-.523-.416-.268-.019-.6.145-.514.5.046.2.261.489.427.508C-1053.03,62.879-1052.739,62.724-1052.682,62.252Zm-4.7,4.525c-.091-.07-.266-.31-.455-.322a.446.446,0,0,0-.505.522.716.716,0,0,0,.454.482C-1057.619,67.489-1057.355,67.307-1057.387,66.778ZM-1042,51.39c-.088-.067-.265-.31-.454-.321a.447.447,0,0,0-.5.525.716.716,0,0,0,.455.48C-1042.232,52.1-1041.966,51.922-1042,51.39Zm-7.6,7.8c-.171-.15-.328-.4-.515-.425a.464.464,0,0,0-.547.449.477.477,0,0,0,.433.565C-1049.947,59.8-1049.679,59.646-1049.6,59.189Zm2.658-3.554c-.4.1-.7.218-.632.56a.728.728,0,0,0,.441.493.438.438,0,0,0,.519-.5C-1046.642,55.979-1046.84,55.8-1046.942,55.634Zm-8.921,9.586c-.086-.062-.267-.3-.457-.3a.449.449,0,0,0-.489.539.714.714,0,0,0,.469.468C-1056.067,65.943-1055.8,65.759-1055.863,65.22Zm4.722-4.493c-.169-.151-.326-.406-.511-.429a.466.466,0,0,0-.546.45.479.479,0,0,0,.429.568C-1051.5,61.337-1051.211,61.2-1051.141,60.727Zm-3.084,3.038c-.182-.139-.361-.387-.547-.392-.274-.008-.582.189-.494.532.05.2.285.47.454.482C-1054.544,64.407-1054.264,64.236-1054.224,63.766Zm-4.686,4.581c-.089-.075-.249-.317-.44-.345a.435.435,0,0,0-.531.487.717.717,0,0,0,.422.507C-1059.184,69.044-1058.922,68.868-1058.911,68.346Zm15.38-15.4c-.093-.073-.26-.31-.451-.331a.441.441,0,0,0-.517.506.713.713,0,0,0,.44.492C-1043.781,53.649-1043.521,53.468-1043.53,52.944Z" transform="translate(1072.928 -47.174)" fill="#bcd2d3"/>
    <path id="Path_33945" data-name="Path 33945" d="M-1168.474,48.431c1.636.543,3.173,1.117,4.747,1.557a6.352,6.352,0,0,1,3.2,2.052c2.376,2.719,4.849,5.353,7.319,8.059l-3.413,3.738c-.1-.083-.187-.15-.268-.224q-4.552-4.153-9.1-8.31a1.14,1.14,0,0,1-.327-.427C-1167.036,52.76-1167.738,50.64-1168.474,48.431Zm12.758,12.1a1.3,1.3,0,0,0-.448-.327c-.248-.066-.6.316-.51.567.065.188.29.438.457.449C-1155.943,61.237-1155.669,61.073-1155.716,60.53Zm-10.171-8.85c.083.063.261.305.448.314a.445.445,0,0,0,.5-.529c-.046-.194-.286-.465-.457-.479C-1165.668,50.963-1165.942,51.137-1165.887,51.68Zm5.578,4.262c-.091-.075-.254-.315-.445-.34a.436.436,0,0,0-.526.494.719.719,0,0,0,.43.5C-1160.57,56.644-1160.314,56.461-1160.309,55.942Zm.551,1.861c.092.074.257.314.448.337a.432.432,0,0,0,.522-.5.724.724,0,0,0-.434-.5C-1159.5,57.1-1159.756,57.284-1159.758,57.8Zm-2.09-3.393c-.087-.074-.244-.313-.435-.344a.46.46,0,0,0-.549.445.471.471,0,0,0,.433.559C-1162.11,55.094-1161.861,54.929-1161.848,54.409Zm-1.55-1.546c-.076-.065-.232-.307-.421-.337a.459.459,0,0,0-.55.443.473.473,0,0,0,.429.563C-1163.659,53.554-1163.391,53.4-1163.4,52.863Zm6.157,6.147a1.366,1.366,0,0,0-.447-.343c-.248-.075-.6.289-.525.549.056.189.273.439.443.459C-1157.489,59.709-1157.226,59.541-1157.24,59.01Z" transform="translate(1169.897 -47.007)" fill="#96b1b2"/>
    <path id="Path_33946" data-name="Path 33946" d="M-1120.289,271.551l-9.6-9.6.927-.982c.13.08.238.138.338.208q2.539,1.777,5.074,3.56a1.772,1.772,0,0,1,.427.4q1.862,2.635,3.707,5.281c.04.057.075.117.138.218Z" transform="translate(1134.599 -241.437)" fill="#dbad4f"/>
    <path id="Path_33947" data-name="Path 33947" d="M-946.185,260.756l.919,1-9.614,9.616-.964-.968c.814-1.161,1.678-2.285,2.422-3.483a11.217,11.217,0,0,1,3.7-3.7C-948.523,262.477-947.4,261.608-946.185,260.756Z" transform="translate(975.384 -241.242)" fill="#dbad4f"/>
    <path id="Path_33948" data-name="Path 33948" d="M-967.886,247.468l2.886,3.166c-.377.264-.718.516-1.074.745a.724.724,0,0,1-.344.056c-.33.013-.633.128-.6.493a1.216,1.216,0,0,1-.343.858c-.154.22-.309.438-.493.7l-3.314-3.021c.389-.355.748-.694,1.122-1.016a.519.519,0,0,1,.29-.057c.28-.013.581-.049.6-.389a1.16,1.16,0,0,1,.522-.853C-968.395,247.937-968.159,247.716-967.886,247.468Zm-.687,3.1c.092.078.253.321.445.349a.434.434,0,0,0,.528-.489.718.718,0,0,0-.423-.505C-968.3,249.867-968.562,250.046-968.573,250.563Z" transform="translate(989.402 -229.086)" fill="#96b1b2"/>
    <path id="Path_33949" data-name="Path 33949" d="M-1133.421,330.2l-1.638-1.64,3.179-3.988,2.439,2.455Z" transform="translate(1139.329 -299.624)" fill="#8e6f49"/>
    <path id="Path_33950" data-name="Path 33950" d="M-889.5,324.9l3.251,4.079a2.68,2.68,0,0,0-1.624,1.608l-4.066-3.243Z" transform="translate(916.927 -299.924)" fill="#8e6f49"/>
    <path id="Path_33951" data-name="Path 33951" d="M-832.118,382.841a1.817,1.817,0,0,1,1.889,1.947,1.82,1.82,0,0,1-1.918,1.879,1.819,1.819,0,0,1-1.908-1.929A1.813,1.813,0,0,1-832.118,382.841Z" transform="translate(863.971 -352.925)" fill="#8e6f49"/>
    <path id="Path_33952" data-name="Path 33952" d="M-1168.369,384.746a1.908,1.908,0,0,1-1.9,1.923,1.914,1.914,0,0,1-1.922-1.907,1.906,1.906,0,0,1,1.906-1.919A1.9,1.9,0,0,1-1168.369,384.746Z" transform="translate(1173.301 -352.927)" fill="#8e6f49"/>
    <path id="Path_33953" data-name="Path 33953" d="M-868.581,113.926c-.032.513-.289.691-.569.63a.722.722,0,0,1-.408-.519.433.433,0,0,1,.543-.472C-868.825,113.6-868.673,113.845-868.581,113.926Z" transform="translate(896.453 -106.586)"/>
    <path id="Path_33954" data-name="Path 33954" d="M-905.118,149c.106.17.3.352.332.559a.438.438,0,0,1-.519.5.733.733,0,0,1-.437-.5C-905.817,149.21-905.506,149.1-905.118,149Z" transform="translate(929.561 -139.004)"/>
    <path id="Path_33955" data-name="Path 33955" d="M-958.824,204.212c-.057.471-.348.627-.611.6-.165-.019-.38-.307-.426-.508-.082-.359.246-.523.514-.5C-959.164,203.809-959,204.065-958.824,204.212Z" transform="translate(979.07 -189.134)"/>
    <path id="Path_33956" data-name="Path 33956" d="M-1013.2,258.337c.032.529-.232.711-.507.682a.717.717,0,0,1-.454-.482.446.446,0,0,1,.505-.522C-1013.471,258.026-1013.3,258.267-1013.2,258.337Z" transform="translate(1028.746 -238.733)"/>
    <path id="Path_33957" data-name="Path 33957" d="M-832.627,77.75c.037.532-.229.712-.5.684a.717.717,0,0,1-.455-.48.447.447,0,0,1,.5-.525C-832.891,77.44-832.715,77.683-832.627,77.75Z" transform="translate(863.551 -73.534)"/>
    <path id="Path_33958" data-name="Path 33958" d="M-922.808,168.118c-.079.457-.347.612-.629.588a.477.477,0,0,1-.433-.565.464.464,0,0,1,.547-.449C-923.136,167.717-922.979,167.968-922.808,168.118Z" transform="translate(946.137 -156.103)"/>
    <path id="Path_33959" data-name="Path 33959" d="M-887.072,131.02c.1.162.3.344.328.55a.438.438,0,0,1-.519.5.727.727,0,0,1-.441-.493C-887.774,131.238-887.476,131.117-887.072,131.02Z" transform="translate(913.058 -122.56)"/>
    <path id="Path_33960" data-name="Path 33960" d="M-995.188,240.254c.062.539-.2.722-.478.7a.715.715,0,0,1-.469-.468.449.449,0,0,1,.49-.539C-995.455,239.957-995.274,240.193-995.188,240.254Z" transform="translate(1012.253 -222.208)"/>
    <path id="Path_33961" data-name="Path 33961" d="M-940.838,186.151c-.07.469-.358.609-.629.589a.479.479,0,0,1-.429-.568.465.465,0,0,1,.546-.45C-941.164,185.745-941.007,186-940.838,186.151Z" transform="translate(962.626 -172.597)"/>
    <path id="Path_33962" data-name="Path 33962" d="M-976.987,222.242c-.039.47-.319.641-.587.622-.168-.012-.4-.286-.454-.482-.088-.343.22-.54.494-.532C-977.348,221.856-977.169,222.1-976.987,222.242Z" transform="translate(995.691 -205.651)"/>
    <path id="Path_33963" data-name="Path 33963" d="M-1031.148,276.447c-.011.522-.273.7-.55.649a.717.717,0,0,1-.422-.507.435.435,0,0,1,.531-.487C-1031.4,276.13-1031.237,276.372-1031.148,276.447Z" transform="translate(1045.166 -255.274)"/>
    <path id="Path_33964" data-name="Path 33964" d="M-850.613,95.852c.009.524-.251.705-.528.667a.713.713,0,0,1-.44-.492.441.441,0,0,1,.517-.506C-850.873,95.542-850.705,95.779-850.613,95.852Z" transform="translate(880.011 -90.082)"/>
    <path id="Path_33965" data-name="Path 33965" d="M-1029.165,186.837c.047.543-.227.708-.5.689-.167-.011-.392-.26-.457-.449-.086-.251.262-.634.51-.567A1.3,1.3,0,0,1-1029.165,186.837Z" transform="translate(1043.346 -173.314)"/>
    <path id="Path_33966" data-name="Path 33966" d="M-1138.184,79.083c-.056-.542.218-.717.489-.694.171.014.411.285.457.479a.445.445,0,0,1-.5.529C-1137.923,79.388-1138.1,79.146-1138.184,79.083Z" transform="translate(1142.194 -74.411)"/>
    <path id="Path_33967" data-name="Path 33967" d="M-1083.151,132.879c-.005.52-.261.7-.541.655a.719.719,0,0,1-.43-.5.436.436,0,0,1,.526-.494C-1083.405,132.564-1083.242,132.8-1083.151,132.879Z" transform="translate(1092.739 -123.945)"/>
    <path id="Path_33968" data-name="Path 33968" d="M-1066.18,151.271c0-.518.256-.7.537-.66a.724.724,0,0,1,.434.5.432.432,0,0,1-.522.5C-1065.923,151.585-1066.088,151.345-1066.18,151.271Z" transform="translate(1076.319 -140.476)"/>
    <path id="Path_33969" data-name="Path 33969" d="M-1101.308,114.824c-.013.52-.262.685-.551.66a.471.471,0,0,1-.433-.559.46.46,0,0,1,.548-.445C-1101.552,114.512-1101.4,114.75-1101.308,114.824Z" transform="translate(1109.357 -107.422)"/>
    <path id="Path_33970" data-name="Path 33970" d="M-1119.354,96.759c.006.541-.261.691-.541.67a.473.473,0,0,1-.43-.563.459.459,0,0,1,.55-.443C-1119.586,96.451-1119.429,96.694-1119.354,96.759Z" transform="translate(1125.853 -90.903)"/>
    <path id="Path_33971" data-name="Path 33971" d="M-1047.18,168.809c.015.531-.249.7-.529.666-.169-.02-.387-.271-.443-.459-.078-.261.277-.625.525-.549A1.362,1.362,0,0,1-1047.18,168.809Z" transform="translate(1059.836 -156.806)"/>
    <path id="Path_33972" data-name="Path 33972" d="M-940.712,276.776c.011-.517.269-.7.549-.645a.718.718,0,0,1,.423.505.435.435,0,0,1-.528.489C-940.459,277.1-940.62,276.854-940.712,276.776Z" transform="translate(961.541 -255.299)"/>
  </g>
</svg>
