<svg xmlns="http://www.w3.org/2000/svg" width="56.71" height="56.679" viewBox="0 0 56.71 56.679">
  <g id="Group_53091" data-name="Group 53091" transform="translate(-189.987 -331.817)">
    <path id="Path_8839" data-name="Path 8839" d="M223.31,336.1l-.123-.02-.439-.089-.127-.018a1.1,1.1,0,0,0-.261-.1c-1.016-.108-2.031-.256-3.05-.3-.952-.041-1.91.021-2.864.055a7.4,7.4,0,0,0-.834.123l-.136.011-.737.1-.133.016-.507.091-.189.025-.435.089-.125.019c-.41.082-.822.15-1.228.249-.255.062-.5.169-.749.256l-.127.027-.208.075-.122.03a.573.573,0,0,0-.165.006,24.421,24.421,0,0,0-4.408,1.931c-.421.239-.817.523-1.224.786l-.07.038-1.205.832-.065.044-.5.383-.022.016-.173.13-.057.054-.17.13a.156.156,0,0,1-.023.018l-.2.169-.023.017-.172.135a.082.082,0,0,1-.02.022l-.319.277a.164.164,0,0,1-.022.02l-.192.172-.025.017a.816.816,0,0,1-.924-.121l-.02-.02-1.141-1.14-.018-.019-.1-.1-.018-.019a3.022,3.022,0,0,0-.222-.282c-.434-.436-.459-.576-.177-1.089l.118-.108.1-.087.023-.018.346-.3.121-.1.225-.191.118-.1.171-.135a.166.166,0,0,1,.024-.017l.618-.495.065-.042.2-.158.023-.018.345-.247.06-.052.621-.431.134-.089.526-.343.073-.038.613-.386.071-.035c.137-.062.281-.114.412-.189a27.47,27.47,0,0,1,7.177-2.888c.35-.087.695-.2,1.041-.3l.132-.019.4-.085.185-.025.494-.092.124-.018a1.147,1.147,0,0,0,.2.016c1.082-.1,2.163-.232,3.246-.3a24.2,24.2,0,0,1,4.5.17c.389.048.78.077,1.17.115l.183.024.495.09.127.019a1.3,1.3,0,0,0,.229.1c.494.111.989.217,1.485.322.145.031.293.053.439.08l.121.026a.649.649,0,0,0,.161.1,26.887,26.887,0,0,1,4.86,1.875c.488.242.973.49,1.459.735l.113.06.972.6.073.037.587.393.072.04.209.15.065.042.747.537.126.095.1.084.065.042.618.5.023.016.17.13.056.056.291.241.022.018.193.172a.213.213,0,0,1,.023.018l.92.836.02.019.1.092.233.225.091.088.513.524.093.094.018.021.425.458.108.119.088.1.017.022.3.346.048.062.483.57.044.065.187.226.1.126L241,343l.015.025.082.107.039.066.476.633.04.067.077.106.04.067.609.91.035.07a.517.517,0,0,0,.039.131,27.872,27.872,0,0,1,3.659,9.079c.1.466.2.931.305,1.4l.017.131.086.552.024.24.092.8.02.242c-.006.1-.02.209-.018.314.019,1.176.047,2.353.059,3.53,0,.421-.026.844-.041,1.266l-.021.242-.09.783-.021.188-.091.624-.018.132c-.1.464-.208.927-.3,1.392-.072.341-.132.685-.2,1.027l-.026.127a1.16,1.16,0,0,0-.105.2c-.22.716-.411,1.443-.657,2.151a27.047,27.047,0,0,1-3.561,6.9c-.1.137-.17.291-.254.438l-.051.061-.127.17-.043.065-.305.4-.1.125-.132.168-.1.122-.19.224-.1.123-.087.1-.07.091-.083.1-.1.116-.306.341-.107.119-.091.1-.017.023-.315.34-.018.021-.1.1-.02.02-.092.1-.02.021-.094.1-.194.2-.1.094-.022.02-.1.094-.02.019-.1.1-.022.018-.34.314-.023.02-.1.093-.02.02-.1.091-.117.106-.556.5-.023.018-.227.192-.061.048-.225.189-.125.1-.459.358-.058.054-.173.126-.023.017-.948.691-.072.042-1.084.717-.136.087a1.406,1.406,0,0,0-.234.089,27.946,27.946,0,0,1-7.534,3.155c-.332.085-.659.189-.988.285l-.129.022-.379.085-.124.022a1.116,1.116,0,0,0-.225-.009c-.5.079-1,.163-1.5.246l-1,.163-.135.009c-.274,0-.549-.006-.822.016a1.523,1.523,0,0,1-.948-.108.231.231,0,0,1-.022-.022,1.508,1.508,0,0,1-.122-.41c0-.962.02-1.924.032-2.887l.041-.072.091-.1.022-.019.221-.113.239-.022,1.151-.092.128-.013c.435-.042.874-.065,1.3-.133.4-.063.793-.177,1.19-.268l.13-.018a.4.4,0,0,0,.135.013c.578-.151,1.155-.3,1.731-.462a3.107,3.107,0,0,0,.384-.163l.125-.032c.025.007.056.028.075.02.917-.366,1.837-.721,2.745-1.107.381-.162.734-.39,1.1-.588l.071-.033.521-.293.109-.07.761-.453.07-.038.5-.322.06-.053.7-.474.02-.019.312-.225.093-.068,1.255-1.018.061-.047.346-.3.022-.017.1-.09.055-.057.808-.767a.164.164,0,0,1,.021-.021l.1-.1a.165.165,0,0,1,.021-.021l.431-.455.018-.022.091-.1.165-.173.25-.288.018-.022.174-.193.018-.022.091-.1c.005-.008.011-.016.016-.023l.13-.168.056-.057.135-.169.016-.022.167-.2.1-.128.473-.633.1-.127.238-.345.051-.061a2.566,2.566,0,0,0,.239-.274,24.814,24.814,0,0,0,2.673-5.31c.154-.429.263-.875.392-1.313l.025-.123.084-.265.027-.125c.086-.269.193-.533.251-.808.1-.482.174-.971.259-1.457l.016-.128.087-.515.026-.239.092-.726.015-.188.1-1.376.006-.194a.742.742,0,0,0,.061-.2q.009-.662,0-1.325a.741.741,0,0,0-.061-.2l-.005-.194q-.051-.716-.1-1.433l-.015-.19-.091-.683-.029-.243-.084-.5-.017-.125a.938.938,0,0,0,.007-.226c-.11-.518-.221-1.035-.343-1.549a4.257,4.257,0,0,0-.172-.475l-.026-.121a.427.427,0,0,0,.007-.138,24.353,24.353,0,0,0-1.945-4.807c-.107-.2-.241-.381-.362-.571l-.056-.116-.6-.975-.039-.068-.831-1.207-.093-.129-.307-.4-.043-.065-.267-.326-.016-.023-.136-.171-.1-.122a3.153,3.153,0,0,0-.286-.369c-.024-.024-.141.044-.214.069l-.019.02-.1.1-.02.02-.269.271a.154.154,0,0,1-.021.02l-.1.1-.02.02-.1.1-.02.02-.094.1a.126.126,0,0,1-.02.022l-.269.269a.225.225,0,0,1-.022.021l-.094.094a.173.173,0,0,1-.022.021l-.1.094a.158.158,0,0,1-.021.021l-.094.1a.163.163,0,0,1-.021.022l-.269.269a.16.16,0,0,1-.021.02l-.1.094-.02.02-.1.1-.02.021-.1.1-.02.02-.27.269-.02.02-.1.1a.154.154,0,0,1-.02.02c-.25.174-.042.237.077.321l.017.023.215.267.016.022.161.205.02.022.126.175.312.409.1.137a.041.041,0,0,0,.02.036l.1.137a.042.042,0,0,0,.021.036l.1.136.133.213.092.141a.035.035,0,0,0,.022.034l.163.246a.049.049,0,0,0,.018.041l.091.141.251.441.084.146.111.194.079.143.134.27.086.145.032.086.082.147.034.085.076.15.035.084.153.314.032.087.074.151.048.137.075.147.027.09.057.117.058.173.056.117.058.174.266.721.037.143.065.153.048.2.063.176.042.177.062.173.035.163.075.243.028.164.092.357.018.109.062.212.015.084.017.118.016.11.07.267.015.143.082.464.034.28.081.59.027.281.084,1v2.2l-.083.938-.027.339-.084.589-.034.28-.058.292-.043.312-.067.27c-.016.1-.033.206-.049.31l-.061.213-.02.109-.091.357-.02.108-.084.3-.024.106-.061.177-.056.229-.068.173-.029.146-.077.207-.037.143-.068.151-.027.107-.289.753-.056.175-.058.116-.028.087-.073.15-.049.136-.256.554-.037.084-.08.148-.032.085-.083.147-.029.087-.085.146-.134.269-.085.142-.1.2-.086.146-.145.26-.088.145-.128.215-.276.424a.039.039,0,0,0-.018.037l-.1.138a.039.039,0,0,0-.019.036l-.1.137a.04.04,0,0,0-.019.035l-.1.139-.191.269-.1.136-.243.333-.1.132-.074.1-.154.2-.079.093-.107.131-.232.283-.113.124h0l-.131.1a.043.043,0,0,0-.039.016l-.115.06-.349,0-.117-.058q-.755-.734-1.511-1.468c-.173-.168-.343-.338-.514-.508l-.091-.142-.03-.087.041-.474.436-.561.1-.129.2-.263.105-.134.117-.166.1-.135.548-.844.093-.14a.045.045,0,0,0,.018-.039l.085-.139.111-.193.088-.144a.037.037,0,0,0,.016-.037l.082-.146.035-.085.086-.145.032-.085.141-.263.041-.081.073-.152.175-.4.061-.117.028-.088.073-.149.045-.139.289-.734.027-.106.087-.241.027-.106.065-.174.032-.143.185-.616.02-.11.091-.356.017-.108.19-.918.1-.647.1-1.282.006-1.726-.058-.62-.059-.6-.07-.5c-.233-.974-.4-1.969-.712-2.916a16.66,16.66,0,0,0-4.836-7.295,17.14,17.14,0,0,0-21.7-.87c-.184.139-.168.231-.016.381.866.853,1.7,1.741,2.592,2.565a3.006,3.006,0,0,1,.167,4.229,9.7,9.7,0,0,0-2.357,7.628c.021.22.065.439.1.658l.361,1.387.167.464.058.116.037.1.877,1.651a.043.043,0,0,0,.029.035l.615.827.187.219.866.867.091.082.127.109.42.329.1.078.482.33a.044.044,0,0,0,.039.018,1.237,1.237,0,0,0,.24.192c.706.324,1.4.68,2.129.944a10.806,10.806,0,0,0,1.541.328l.109.012,1.226.093h.326l1.167-.092.11-.011c.633-.147,1.282-.25,1.9-.455a13.328,13.328,0,0,0,1.5-.705l.08-.046.948-.612.165-.119.132-.106a.041.041,0,0,0,.032-.029l.4-.339.067-.05.12-.113h0l.119-.113h0l.175-.172.117-.119.13-.125.09-.1.018-.022.2-.224.046-.063.186-.225.1-.126.241-.344.051-.058.228-.353.131-.222c.024-.015.057-.023.07-.045a11.781,11.781,0,0,0,1.18-3.011c0-.011-.077-.047-.118-.071l-.595-.032a.563.563,0,0,0-.184-.066c-.477.012-.953.044-1.43.046-.381,0-.763-.043-1.144-.044-.1,0-.2.084-.305.13l-.029.072-.4.927-.305.549c-.371.416-.712.865-1.12,1.24a6.324,6.324,0,0,1-7.572.71.658.658,0,0,1-.152-1.157c.22-.227.436-.461.654-.692l.692-.671.359-.362a.94.94,0,0,1,.97-.137,2.326,2.326,0,0,0,1.634-.017,5.228,5.228,0,0,0,.8-.5,2.353,2.353,0,0,0,.913-2.037l-.01-.218-.048-.18-.065-.285-.051-.12-.06-.17-.1-.178h0l-.085-.147-.205-.259-.111-.12h0l-.118-.114-.44-.31-.381-.183-.106-.028c-.2-.08-.162.08-.164.172-.008.278-.007.557,0,.835.008.438.023.876.035,1.314l-.005.17c-.17.464-.261.517-.86.509l-.11-.033a.833.833,0,0,1-.3-.714l0-2.19c-.007-.146-.064-.155-.16-.059l-.106.028a2.071,2.071,0,0,0-1.4,1.243l-.044.118c-.427.557-.2,1.155-.113,1.746l.048.161,0,.414-.029.09-.1.138-.492.493c-.143.139-.288.277-.429.418-.158.158-.313.321-.469.481h0l-.113.117-.181.167-.352.347a.063.063,0,0,0-.047.015l-.155.057a.749.749,0,0,1-.76-.371,4.749,4.749,0,0,1-.706-1.852,6.372,6.372,0,0,1,3.957-7.34,7.5,7.5,0,0,1,1.365-.364c.232-.043.3-.113.3-.343q-.011-4.317-.005-8.634c0-.106,0-.213,0-.319a.608.608,0,0,1,.608-.608.6.6,0,0,1,.635.578c0,.257.123.346.33.431,1.746.72,3.488,1.451,5.232,2.175a1.168,1.168,0,0,1,.844,1.123,1.154,1.154,0,0,1-.839,1.124q-2.668,1.113-5.337,2.223a.3.3,0,0,0-.221.324c.009.551.008,1.1,0,1.651,0,.16.041.233.218.262a6.33,6.33,0,0,1,5.14,4.11.384.384,0,0,0,.421.291q1.55-.022,3.1,0c.276,0,.3-.1.245-.329a10.14,10.14,0,0,0-1.85-3.856.658.658,0,0,1,.073-1.019q.888-.891,1.781-1.777a.823.823,0,0,1,.8,0l.113.114.11.128.077.095.176.222.047.073.1.134.424.616.094.141.258.437.154.253.137.269.084.146.032.086.08.148.034.085.379.838.027.089.181.464.051.174.171.523.025.107.089.3.019.109.063.212.017.083.02.118.016.109.063.212.025.2.082.462.027.281.079.648.019.8,0,.83-.084.976-.011.127-.038.338-.058.292-.042.4-.3,1.111-.025.108-.175.524-.023.084c-.02.021-.047.038-.058.063q-.4.86-.785,1.722a.974.974,0,0,0-.041.222l-.082.154-.085.138-.109.193-.2.321a.036.036,0,0,0-.018.036l-.093.139a.045.045,0,0,0-.019.038l-.094.137a.046.046,0,0,0-.02.038l-.1.137-.2.267-.1.135-.246.33-.16.192-.134.152-.108.128h0l-.106.125-.419.447-.116.12-.119.117-.511.469-.125.113-.22.182-.129.107-.1.08-.2.149-.1.077-.134.1-.167.116-.137.1-.14.1-.314.207a.041.041,0,0,0-.037.018l-.14.094a.041.041,0,0,0-.037.016l-.144.089-.26.146-.146.082-.08.044-.493.257-.089.029-.146.082-.087.03-1.19.487-.141.039-.206.076-.085.02-.232.08-.107.025-.3.087-.108.02-.413.1-.109.015-.267.069-.087.012-.117.015-.11.015-.132.094q0,1.572,0,3.144c.1.217.232.084.359.041l.222-.028.417-.082.166-.02.414-.094.11-.015.675-.182.084-.016.29-.087.107-.023.242-.084.107-.025.241-.089.107-.027.736-.286.137-.046.353-.165.169-.067.153-.068.082-.043.311-.152a.042.042,0,0,0,.039-.015l.147-.083.085-.033.146-.084.083-.039.326-.185.194-.112.14-.087a.043.043,0,0,0,.038-.018l.141-.092a.041.041,0,0,0,.037-.016l.141-.094.317-.206.137-.1a.045.045,0,0,0,.038-.019l.136-.1a.042.042,0,0,0,.037-.02l.135-.1.165-.118.326-.25.07-.053.131-.1.506-.419.255-.21.087-.035.154-.063.17,0,.207.077,1.6,1.55c.145.141.289.284.433.426a.829.829,0,0,1,0,.816l-.706.626-.131.108-.094.077-.2.151-.261.206-.13.1-.158.1-.174.118-.127.1-.452.31-.069.039a1.823,1.823,0,0,0-.229.105,20.259,20.259,0,0,1-5.2,2.4,5.546,5.546,0,0,0-.524.21l-.124.027c-.355.07-.712.137-1.067.212-.458.1-.915.2-1.372.3l-.189.018-.667.087-.3.023c-.114-.007-.228-.02-.343-.02q-1.49,0-2.979,0c-.134,0-.267.011-.4.018l-.3-.023-.727-.091-.186-.021a1.973,1.973,0,0,0-.287-.1c-.422-.082-.845-.156-1.268-.236-.277-.053-.554-.111-.83-.167l-.122-.027a1.385,1.385,0,0,0-.224-.11,20.6,20.6,0,0,1-4.44-1.862c-.433-.245-.862-.495-1.294-.743l-.068-.04-.623-.43-.127-.1-.571-.429-.023-.016-.327-.267-.061-.044-.227-.193-.023-.016-.557-.5-.117-.106-.1-.091-.02-.02-.1-.1-.021-.018-.506-.5-.02-.022-.092-.1a.159.159,0,0,1-.022-.02l-.1-.1-.022-.018-.09-.1-.163-.175-.412-.462-.047-.062-.193-.226-.017-.023-.5-.617-.042-.063-.083-.1-.1-.127-.243-.342-.051-.061a3.234,3.234,0,0,0-.17-.321,20.676,20.676,0,0,1-3.07-7.148c-.094-.429-.194-.857-.292-1.285l-.022-.187-.091-.668-.018-.182c.078-.239-.008-.338-.26-.337q-1.477.01-2.954,0c-.211,0-.3.066-.274.288.092.678.17,1.358.267,2.035a5.356,5.356,0,0,0,.155.6l.017.124.091.4.023.123a4.532,4.532,0,0,0,.094.557c.127.438.272.871.41,1.306l.031.126c-.008.025-.029.055-.021.075.219.6.423,1.217.666,1.812a24.41,24.41,0,0,0,2.157,4.1,5.105,5.105,0,0,0,.331.412l.135.2.077.106.04.068.081.1.041.067.177.231.042.068.163.2.016.022.31.4.1.12.133.169.1.125.193.222.1.118.137.167a.169.169,0,0,1,.019.023l.092.1.018.021.087.1.109.118a1.138,1.138,0,0,0,.132.207q.614.623,1.239,1.236a1.445,1.445,0,0,0,.227.152l.12.108.1.09.022.018.224.194.062.047.443.381.023.016.173.135.12.1.169.13.059.052.269.207.023.017a2.123,2.123,0,0,0,.267.246c.389.257.784.5,1.178.754l.137.086a2.925,2.925,0,0,0,.348.263c.469.262.945.512,1.419.766l.075.03a.507.507,0,0,0,.118.1c.866.387,1.729.78,2.6,1.15.31.131.644.2.967.3l.124.031c.416.137.829.29,1.25.407.327.091.667.139,1,.206l.129.019a1.039,1.039,0,0,0,.229.1c.607.105,1.212.226,1.824.3.571.066,1.147.075,1.722.109l.238.023.22.115.022.016a1.747,1.747,0,0,1,.157.481q.025,1.285.006,2.57a.554.554,0,0,1-.594.574c-.172,0-.345-.029-.518-.034-.265-.008-.531-.006-.8-.008l-.132-.011-.854-.1-.136-.013-1.736-.292-.126-.02-.379-.084-.129-.024c-.31-.089-.619-.183-.931-.265-.457-.12-.917-.233-1.376-.348l-.126-.029a1.778,1.778,0,0,0-.247-.126,27.114,27.114,0,0,1-4.425-1.879c-.624-.338-1.244-.682-1.866-1.023l-.071-.041-.633-.413-.068-.039-.236-.169-.173-.118-.278-.2-.067-.041-.5-.379-.1-.066-.328-.26-.2-.143-.2-.168a.106.106,0,0,1-.023-.017l-.169-.132-.058-.053-.167-.136-.023-.017-.1-.09-.023-.018-.194-.172-.02-.02-.285-.248-.055-.056-.1-.088-.02-.02-.461-.428-.022-.018-.1-.093-.022-.02-.1-.094-.021-.021-.1-.1-.021-.021-.181-.178-.111-.115-.093-.092-.021-.021-.094-.1-.019-.022-.094-.1-.018-.021-.316-.34-.018-.022-.091-.1-.161-.176-.25-.287-.018-.023-.172-.194-.018-.022-.14-.168a.162.162,0,0,1-.02-.021l-.347-.423-.018-.022-.087-.1-.143-.193-.306-.4-.1-.124c-.231-.35-.458-.7-.694-1.049-.181-.265-.374-.521-.562-.78l-.039-.073a.611.611,0,0,0-.035-.129c-.63-1.211-1.3-2.4-1.882-3.637a24.133,24.133,0,0,1-1.672-5.154c-.06-.278-.144-.552-.217-.828l-.018-.129-.094-.493-.015-.127c-.028-.266-.051-.533-.083-.8a30.286,30.286,0,0,1-.194-5.144c.03-.626.108-1.249.165-1.874q.053-.587.108-1.174l.023-.183.087-.457.025-.181.084-.379.02-.131c.079-.282.164-.564.234-.849.063-.257.108-.519.161-.779l.027-.122a.661.661,0,0,0,.089-.141c.22-.676.419-1.359.657-2.029a26.614,26.614,0,0,1,2.507-5.182c.191-.306.369-.62.552-.929l.038-.072.732-1.024.016-.023.157-.205.044-.065.494-.618a.133.133,0,0,1,.017-.023l.134-.172.021-.02.272-.32.1-.122.087-.1a.216.216,0,0,1,.018-.024l.2-.222.048-.06.09-.1.019-.018a.8.8,0,0,1,.967-.2l.266.251.091.09.022.024.093.091,1.038,1.041.119.118.255.264a.877.877,0,0,1,0,.874l-.021.024-.175.189-.018.022-.243.287-.057.056-.132.17-.018.022-.172.2-.017.02-.131.177-.02.021-.162.205-.015.022-.386.5-.043.065-.835,1.2-.037.069a2.128,2.128,0,0,0-.2.232,23.859,23.859,0,0,0-2.936,6.849c-.1.378-.149.768-.221,1.152l-.02.124-.1.494-.015.131a.8.8,0,0,0-.084.2c-.079.62-.147,1.242-.227,1.862-.03.229.049.3.282.3.963-.011,1.928,0,2.891,0,.347,0,.366-.025.319-.39l.018-.184.094-.686.016-.125a1.221,1.221,0,0,0,.1-.231c.113-.553.217-1.108.33-1.661.056-.277.126-.551.189-.825l.027-.122a1,1,0,0,0,.11-.191,20.32,20.32,0,0,1,2.1-4.6c.338-.545.7-1.078,1.044-1.616a.172.172,0,0,1,.018-.024l.436-.568.014-.022.376-.448.048-.061.2-.223.016-.023.09-.1.021-.024c.124-.111.253-.216.369-.335.364-.372.722-.749,1.083-1.124l.059-.049.345-.3.023-.018c.317-.243.637-.483.952-.729.251-.2.5-.4.745-.6l.1-.061.208-.153.069-.038a1.171,1.171,0,0,0,.2-.086,20.5,20.5,0,0,1,5.942-2.672c.19-.051.373-.129.56-.195l.123-.025a.711.711,0,0,0,.167.009c.643-.113,1.285-.234,1.928-.342.4-.068.81-.117,1.214-.174l.422-.019h2.173l.421.018.971.1.134.013a.423.423,0,0,0,.117.064c.473.082.946.158,1.419.241.353.062.705.131,1.057.2l.128.025a1.285,1.285,0,0,0,.224.11,20.743,20.743,0,0,1,5.1,2.166c.327.194.658.383.987.574l.067.04.106.076.2.136,1.064.8a.176.176,0,0,1,.025.017c.091.124.165.326.337.073l.054-.058.092-.09.022-.023.091-.094.024-.024.091-.093.025-.022.093-.093.2-.2.093-.094.022-.023.093-.093.023-.023.092-.094.023-.02.092-.093.2-.2.094-.094.021-.023.092-.093.024-.024.092-.092.025-.022.092-.093.2-.2.092-.093.022-.024.093-.092.024-.023.094-.093.023-.02.09-.1.025-.02c.207-.153.186-.2-.153-.371l-.094-.068-.5-.388-.024-.015-.269-.207-.127-.1-.1-.079-.067-.041-.172-.121-.133-.092c-.033-.041-.058-.1-.1-.122-.924-.554-1.831-1.138-2.778-1.648a22.591,22.591,0,0,0-4.309-1.714c-.448-.132-.913-.209-1.37-.312l-.127-.02Zm-7.174,28.7.012.137a9.119,9.119,0,0,0,1.354.329,5.017,5.017,0,0,0,4.586-1.849,6.586,6.586,0,0,0,1.061-2.014c.17-.46.249-.566.73-.581.374-.011.749.032,1.123.03.3,0,.594-.048.891-.047.4,0,.806.036,1.21.044.517.01,1.035-.008,1.551.015.435.019.668.144.637.646a8.6,8.6,0,0,1-.575,2.562,11.306,11.306,0,0,1-13.527,6.957,10.8,10.8,0,0,1-6.975-5.543,21.777,21.777,0,0,1-.967-2.258,2.884,2.884,0,0,1-.1-.626c-.1-.654-.246-1.306-.287-1.963a9.868,9.868,0,0,1,.1-1.607,10.955,10.955,0,0,1,2.707-6.238,1.654,1.654,0,0,0-.084-2.365q-1.611-1.607-3.218-3.216c-.464-.464-.448-.761.049-1.176a17.928,17.928,0,0,1,5.745-3.226,18.406,18.406,0,0,1,22.72,9.789,18.832,18.832,0,0,1,1.585,5.925,23.01,23.01,0,0,1-.071,4.173c-.022.29-.148.571-.2.861a18.371,18.371,0,0,1-3.52,7.871.219.219,0,0,0,.021.347c.189.18.378.361.552.555s.274.17.428-.028a19.78,19.78,0,0,0,2.873-5.1,19.7,19.7,0,0,0-3.586-20.02.619.619,0,0,1,.034-1.007q1.707-1.712,3.418-3.417a.643.643,0,0,1,1.066.029,25.651,25.651,0,0,1,6.435,13.544,26.553,26.553,0,0,1,.219,5.685,25.656,25.656,0,0,1-6.769,15.656,25.583,25.583,0,0,1-9.271,6.431,25.14,25.14,0,0,1-7.593,1.8c-.163.012-.219.07-.215.228.008.289.011.58,0,.869-.008.193.061.262.253.238.784-.1,1.573-.165,2.351-.3A27.1,27.1,0,0,0,245.513,360.5a27.677,27.677,0,0,0-.451-5.3,26.847,26.847,0,0,0-6.711-13.4,27.39,27.39,0,0,0-6.46-5.173,27.275,27.275,0,0,0-22.492-2.09,24.79,24.79,0,0,0-5.73,2.81c-.99.666-1.923,1.418-2.883,2.13-.168.125-.192.24-.021.391.2.173.378.36.554.552.137.148.241.123.392.006.779-.6,1.541-1.227,2.356-1.774a25.212,25.212,0,0,1,7.611-3.439A25.908,25.908,0,0,1,218,334.35a19.362,19.362,0,0,1,2.6.108,36.649,36.649,0,0,1,3.824.618,24.664,24.664,0,0,1,7.008,2.821,24.956,24.956,0,0,1,4,2.9.641.641,0,0,1,.015,1.068q-.306.309-.614.616-1.363,1.364-2.726,2.725c-.4.4-.657.414-1.077.063a20.95,20.95,0,0,0-4.169-2.747,19.692,19.692,0,0,0-8.571-2.034,19.734,19.734,0,0,0-10.74,3.1,19.564,19.564,0,0,0-6.286,6.453,19.286,19.286,0,0,0-2.763,8.774.668.668,0,0,1-.684.708q-2.289.02-4.579,0a.632.632,0,0,1-.685-.746c.026-.53.058-1.06.125-1.586a27.5,27.5,0,0,1,1.128-5.132,24.566,24.566,0,0,1,3.264-6.522c.478-.677,1-1.326,1.513-1.974.16-.2.169-.331-.034-.5a6.308,6.308,0,0,1-.537-.529c-.112-.117-.193-.125-.3.014-.172.22-.37.42-.543.639a27.444,27.444,0,0,0-4.432,7.982,26.1,26.1,0,0,0-1.508,8.011,33.82,33.82,0,0,0,.177,4.3,24.638,24.638,0,0,0,1.4,5.925A27.262,27.262,0,0,0,210.935,386.3a28.493,28.493,0,0,0,5.286.948c.148.013.214-.037.211-.191-.006-.309-.006-.618,0-.927,0-.165-.074-.208-.228-.219a24.335,24.335,0,0,1-4.972-.894,25.036,25.036,0,0,1-5.387-2.232,25.843,25.843,0,0,1-8.185-7.138,25.135,25.135,0,0,1-4.677-10.6c-.215-1.153-.31-2.329-.432-3.5a.606.606,0,0,1,.622-.714q2.334-.012,4.667,0a.622.622,0,0,1,.652.635,19.091,19.091,0,0,0,1.036,5.144,19.479,19.479,0,0,0,4.39,7.176A19.712,19.712,0,0,0,208.8,377.5a18.169,18.169,0,0,0,4.631,1.784,24.764,24.764,0,0,0,3.109.492,19.388,19.388,0,0,0,11.674-2.7c.825-.513,1.6-1.112,2.4-1.667.146-.1.139-.181.019-.294-.169-.158-.33-.326-.493-.491-.288-.292-.293-.3-.606-.045a17.75,17.75,0,0,1-5.126,2.869,18.8,18.8,0,0,1-4.589,1.021c-.53.053-.8-.207-.8-.738q0-2.174,0-4.347a.673.673,0,0,1,.7-.748A12.178,12.178,0,0,0,224.2,371.2a12.51,12.51,0,0,0,4.166-3.694,11.282,11.282,0,0,0,1.521-2.807c.284-.8.461-1.647.665-2.477a5.555,5.555,0,0,0,.162-1.039,13.008,13.008,0,0,0-2.306-8.261c-.127-.186-.229-.2-.379-.031a5.658,5.658,0,0,1-.513.511c-.187.162-.17.3-.039.494a11.089,11.089,0,0,1,1.828,4.825.627.627,0,0,1-.668.767q-.334,0-.667,0c-.931-.011-1.861-.03-2.792-.034-.462,0-.925.029-1.387.03a.635.635,0,0,1-.652-.507,6.587,6.587,0,0,0-.228-.685,5.122,5.122,0,0,0-3.768-3.152c-.357-.082-.362-.068-.363.288,0,.241.014.484-.005.724-.016.2.066.276.245.317a3.7,3.7,0,0,1,2.032,1.25,3.8,3.8,0,0,1,.341,4.448,3.873,3.873,0,0,1-3.791,1.786c-.193-.029-.453-.092-.578,0A8.911,8.911,0,0,0,216.135,364.8Zm7.517-16.5v-.076l-4.834-2.015v4.108Zm-10.294,13.767.11.019c.265-.277.545-.543.788-.839a.6.6,0,0,0,.1-.419,3.842,3.842,0,0,1,2.932-4.368.256.256,0,0,0,.234-.3c-.015-.279-.011-.56,0-.84.005-.2-.076-.262-.265-.2a10.638,10.638,0,0,0-1.208.386,5.174,5.174,0,0,0-2.836,3.212A5.629,5.629,0,0,0,213,359.9a3.651,3.651,0,0,0,.062.657,3.158,3.158,0,0,0,.3,1.511Z" fill="#272624"/>
    <path id="Path_8840" data-name="Path 8840" d="M216.844,365.5a8.919,8.919,0,0,1,.893-.853c.125-.093.386-.03.578,0a3.873,3.873,0,0,0,3.791-1.786,3.8,3.8,0,0,0-.341-4.448,3.7,3.7,0,0,0-2.032-1.25c-.179-.041-.261-.12-.245-.317.019-.24,0-.483.005-.724,0-.356.006-.37.363-.288a5.122,5.122,0,0,1,3.768,3.152,6.581,6.581,0,0,1,.228.685.635.635,0,0,0,.652.507c.462,0,.925-.032,1.387-.03.931,0,1.861.023,2.792.034q.334,0,.667,0a.627.627,0,0,0,.668-.767,11.089,11.089,0,0,0-1.828-4.825c-.132-.2-.148-.333.039-.494a5.656,5.656,0,0,0,.513-.511c.151-.168.252-.155.379.031a13.008,13.008,0,0,1,2.306,8.261,5.557,5.557,0,0,1-.162,1.039c-.2.83-.381,1.674-.665,2.477a11.282,11.282,0,0,1-1.521,2.807,12.51,12.51,0,0,1-4.166,3.694,12.179,12.179,0,0,1-4.489,1.445.673.673,0,0,0-.7.748q0,2.173,0,4.347c0,.531.269.791.8.738a18.794,18.794,0,0,0,4.589-1.021,17.75,17.75,0,0,0,5.126-2.869c.314-.253.318-.247.606.045.163.165.324.333.493.491.12.113.127.193-.019.294-.8.555-1.571,1.154-2.4,1.667a19.388,19.388,0,0,1-11.674,2.7,24.764,24.764,0,0,1-3.109-.492,18.171,18.171,0,0,1-4.631-1.784,19.713,19.713,0,0,1-4.886-3.717,19.479,19.479,0,0,1-4.39-7.176,19.091,19.091,0,0,1-1.036-5.144.622.622,0,0,0-.652-.635q-2.334-.013-4.667,0a.606.606,0,0,0-.622.714c.122,1.169.217,2.345.432,3.5a25.136,25.136,0,0,0,4.677,10.6,25.843,25.843,0,0,0,8.185,7.138,25.036,25.036,0,0,0,5.387,2.232,24.337,24.337,0,0,0,4.972.894c.154.011.231.054.228.219-.006.309-.006.618,0,.927,0,.155-.063.2-.211.191a28.5,28.5,0,0,1-5.286-.948,27.276,27.276,0,0,1-18.136-16.887,24.638,24.638,0,0,1-1.4-5.925,33.82,33.82,0,0,1-.177-4.3,26.1,26.1,0,0,1,1.508-8.011,27.443,27.443,0,0,1,4.432-7.982c.174-.219.372-.419.543-.639.108-.139.189-.131.3-.014a6.308,6.308,0,0,0,.537.529c.2.167.194.3.034.5-.517.648-1.034,1.3-1.513,1.974a24.566,24.566,0,0,0-3.264,6.522,27.5,27.5,0,0,0-1.128,5.132c-.068.526-.1,1.057-.125,1.586a.632.632,0,0,0,.685.746q2.29.021,4.579,0a.668.668,0,0,0,.684-.708,19.286,19.286,0,0,1,2.763-8.774,19.745,19.745,0,0,1,12.1-8.961,19.276,19.276,0,0,1,4.925-.594,19.691,19.691,0,0,1,8.571,2.034,20.95,20.95,0,0,1,4.169,2.747c.421.351.678.333,1.077-.063q1.367-1.358,2.726-2.725.307-.307.614-.616a.641.641,0,0,0-.015-1.068,24.951,24.951,0,0,0-4-2.9,24.663,24.663,0,0,0-7.008-2.821,36.658,36.658,0,0,0-3.824-.618,19.362,19.362,0,0,0-2.6-.108,25.908,25.908,0,0,0-6.317.866,25.214,25.214,0,0,0-7.611,3.439c-.816.547-1.578,1.173-2.356,1.774-.151.117-.255.142-.392-.006-.177-.191-.359-.379-.554-.552-.171-.151-.148-.266.021-.391.96-.712,1.893-1.464,2.883-2.13a24.792,24.792,0,0,1,5.73-2.81,27.242,27.242,0,0,1,22.492,2.09,27.388,27.388,0,0,1,6.46,5.173,26.847,26.847,0,0,1,6.711,13.4,27.674,27.674,0,0,1,.451,5.3A26.881,26.881,0,0,1,239.283,379a27.077,27.077,0,0,1-15.689,8.649c-.778.133-1.567.2-2.351.3-.192.024-.261-.046-.253-.238.011-.289.009-.58,0-.869,0-.158.051-.216.215-.228a25.141,25.141,0,0,0,7.593-1.8,25.9,25.9,0,0,0,15.062-16.632,25.292,25.292,0,0,0,.978-5.455,26.553,26.553,0,0,0-.219-5.685,25.65,25.65,0,0,0-6.435-13.544.643.643,0,0,0-1.066-.029q-1.711,1.706-3.418,3.417a.619.619,0,0,0-.034,1.007,19.729,19.729,0,0,1,.713,25.118c-.154.2-.263.213-.428.028s-.362-.375-.552-.555a.219.219,0,0,1-.021-.347,18.37,18.37,0,0,0,3.52-7.871c.051-.29.177-.571.2-.861a23.01,23.01,0,0,0,.071-4.173,18.832,18.832,0,0,0-1.585-5.925,18.4,18.4,0,0,0-22.72-9.789,17.927,17.927,0,0,0-5.745,3.226c-.5.416-.513.712-.049,1.176q1.608,1.61,3.218,3.216a1.654,1.654,0,0,1,.084,2.365,10.955,10.955,0,0,0-2.707,6.238,9.868,9.868,0,0,0-.1,1.607c.041.658.186,1.309.287,1.963a2.886,2.886,0,0,0,.1.626,21.785,21.785,0,0,0,.967,2.258,10.8,10.8,0,0,0,6.975,5.543,11.306,11.306,0,0,0,13.527-6.957,8.6,8.6,0,0,0,.575-2.562c.031-.5-.2-.627-.637-.646-.516-.023-1.034,0-1.551-.015-.4-.008-.806-.042-1.21-.044-.3,0-.594.046-.891.048-.374,0-.749-.042-1.123-.03-.481.015-.56.121-.73.581a6.587,6.587,0,0,1-1.061,2.014,5.017,5.017,0,0,1-4.586,1.849,9.119,9.119,0,0,1-1.354-.329Zm.556,13.686c.714.023,1-.156,1-.6q.015-2.276,0-4.55a.638.638,0,0,0-.616-.64,22.169,22.169,0,0,1-2.465-.471,12.679,12.679,0,0,1-8.825-9.723,12.831,12.831,0,0,1-.078-4.241,12.308,12.308,0,0,1,2.765-6.116.634.634,0,0,0-.039-.972c-.4-.406-.8-.806-1.207-1.208-.642-.642-1.281-1.287-1.926-1.926a.619.619,0,0,0-.965.009c-.1.1-.187.2-.273.3a18.359,18.359,0,0,0-4.009,8.575,18.816,18.816,0,0,0-.215,4.9,17.662,17.662,0,0,0,1.1,4.8,18.265,18.265,0,0,0,6.207,8.261,17.952,17.952,0,0,0,4.881,2.613A18.162,18.162,0,0,0,217.4,379.188Z" transform="translate(-0.709 -0.699)" fill="#72c472"/>
    <path id="Path_8841" data-name="Path 8841" d="M240.336,356.628l-4.834,2.017v-4.108l4.834,2.015Z" transform="translate(-16.683 -8.328)" fill="#f9cd49"/>
    <path id="Path_8842" data-name="Path 8842" d="M226.67,375.538a3.158,3.158,0,0,1-.3-1.511,3.652,3.652,0,0,1-.062-.657,5.63,5.63,0,0,1,.212-1.185,5.174,5.174,0,0,1,2.836-3.212,10.632,10.632,0,0,1,1.208-.386c.189-.06.27,0,.265.2-.008.28-.012.561,0,.84a.256.256,0,0,1-.234.3,3.841,3.841,0,0,0-2.932,4.368.6.6,0,0,1-.1.419c-.243.3-.523.561-.788.839Z" transform="translate(-13.311 -13.47)" fill="#72c472"/>
    <path id="Path_8843" data-name="Path 8843" d="M222.351,387.747a18.16,18.16,0,0,1-4.669-.984,17.952,17.952,0,0,1-4.881-2.613,18.265,18.265,0,0,1-6.207-8.261,17.662,17.662,0,0,1-1.1-4.8,18.817,18.817,0,0,1,.215-4.9,18.359,18.359,0,0,1,4.009-8.575c.086-.1.178-.2.273-.3a.619.619,0,0,1,.965-.009c.645.639,1.284,1.283,1.926,1.926.4.4.808.8,1.207,1.208a.634.634,0,0,1,.039.972,12.309,12.309,0,0,0-2.765,6.116,12.83,12.83,0,0,0,.078,4.241,12.679,12.679,0,0,0,8.825,9.723,22.163,22.163,0,0,0,2.465.471.638.638,0,0,1,.616.64q.012,2.275,0,4.55C223.346,387.591,223.065,387.771,222.351,387.747Zm-8.519-8.737-.108-.116-.052-.066-.17-.181-.194-.218-.258-.317-.08-.093-.1-.13-.079-.1-.266-.369-.075-.1-.1-.136a.045.045,0,0,0-.019-.038l-.16-.246-.066-.105-.094-.141-.154-.258-.149-.25a.05.05,0,0,0-.018-.042l-.084-.145-.034-.086-.085-.143-.033-.088-.082-.144-.037-.086-.477-1.078-.042-.14-.058-.119-.029-.107-.31-1-.02-.108-.054-.156-.044-.255a.443.443,0,0,0,.01-.111q-.106-.64-.219-1.28a.467.467,0,0,0-.061-.122l-.056-.762-.011-.858.053-1.277.046-.3.063-.518.052-.236.056-.366.06-.214.073-.342.042-.122.057-.25.053-.158.023-.108.084-.242.023-.107.053-.12.069-.227.054-.118.042-.139.072-.151.144-.379.075-.147.113-.251.077-.149.033-.086.083-.146.033-.085.084-.146.6-1.022.452-.654.12-.165c.144-.086.152-.166-.011-.238l-.063-.058-1.272-1.272-.41-.409-.343-.346,0,0c-.1-.159-.146-.16-.229-.009h0l-.1.126-.08.1-.229.3-.117.167-.1.132-.139.211-.094.137-.254.385-.155.251a.047.047,0,0,0-.018.04l-.26.428-.042.084-.714,1.423-.031.091-.092.2-.028.09-.515,1.414-.018.086-.289,1.024-.019.108-.094.415-.018.108-.084.416-.029.223-.084.52-.018.261-.069.5-.008.168-.023.464v1.561l.1,1.188.018.262.084.519.028.224.086.414.017.109.1.414.018.108.292,1.022.018.087.091.264.022.084.63,1.589.035.087.367.727.034.086.084.144.036.085.189.325.048.079.259.428a.045.045,0,0,0,.02.04l.578.86.05.072.222.3.49.615.153.188h0l.112.124.084.1.1.12h0l.22.243h0l.112.12.013-.011-.013.011.137.141.381.379.12.117.12.112h0l.12.113h0l.184.161.094.08.372.317.1.086.194.15.1.077.127.1.172.123.229.177.078.048.161.111a.04.04,0,0,0,.034.028l.661.436.443.257.659.378.087.035.144.082.089.034.781.372.17.062,1.286.491.105.029.243.084.107.023.288.091.088.016,1.834.405.109.013.647.087.15.008c.039-.065.111-.129.111-.194q.01-1.441,0-2.884c0-.065-.062-.13-.1-.2l-.1-.015-.961-.184-.108-.015-.822-.206-.107-.023-.231-.08-.087-.019-.206-.078-.142-.037c-.279-.122-.562-.234-.835-.367-.586-.283-1.167-.576-1.75-.866a.049.049,0,0,0-.044-.021l-.133-.087-.326-.207-.134-.1a.039.039,0,0,0-.037-.024l-.136-.1a.042.042,0,0,0-.036-.022l-.431-.317-.172-.129-.346-.288-.215-.189-.125-.112-.065-.05-.117-.112,0,0-.116-.11-.3-.293-.11-.11Z" transform="translate(-5.66 -9.259)" fill="#272624"/>
  </g>
</svg>
