<svg id="lhGkLL.tif" xmlns="http://www.w3.org/2000/svg" width="39.216" height="50.926" viewBox="0 0 39.216 50.926">
  <g id="Group_53077" data-name="Group 53077" transform="translate(0 0)">
    <path id="Path_37252" data-name="Path 37252" d="M365.981,249.9c0-6.426.093-12.854-.036-19.277a5.945,5.945,0,0,1,6.187-6.218c6.393.107,12.79.037,19.185.02a1.752,1.752,0,0,1,1.38.55q5.966,6.022,11.974,12a1.5,1.5,0,0,1,.488,1.159c-.012,10.425,0,20.85-.016,31.274a5.625,5.625,0,0,1-5.932,5.915q-13.645.009-27.29,0a5.619,5.619,0,0,1-5.938-5.9Q365.968,259.665,365.981,249.9Zm1.482-.029q0,9.679,0,19.358c0,2.925,1.685,4.609,4.622,4.613q5.871.008,11.742,0c5.154,0,10.308.012,15.463-.006a4.113,4.113,0,0,0,4.358-4.2c.017-10.231,0-20.461.019-30.692,0-.531-.141-.717-.693-.708-1.791.031-3.583.014-5.375.011a5.815,5.815,0,0,1-6.2-6.131c-.017-1.765-.039-3.531.012-5.294.022-.746-.231-.92-.944-.917-6.146.026-12.293.009-18.439.018-2.878,0-4.559,1.706-4.56,4.59Q367.46,240.194,367.463,249.873Zm25-22.742c0,1.758-.017,3.507,0,5.256a4.677,4.677,0,0,0,4.761,4.763c1.487.017,2.973.009,4.46,0,.232,0,.559.128.677-.129.126-.274-.206-.411-.367-.572q-4.456-4.482-8.928-8.948C392.927,227.356,392.821,227.136,392.465,227.132Z" transform="translate(-365.943 -224.406)"/>
    <path id="Path_37253" data-name="Path 37253" d="M375.082,257.4q0-9.679,0-19.358c0-2.885,1.682-4.586,4.56-4.59,6.147-.008,12.293.009,18.439-.018.713,0,.966.171.944.917-.051,1.763-.03,3.529-.012,5.294a5.815,5.815,0,0,0,6.2,6.131c1.792,0,3.584.02,5.375-.011.552-.01.693.176.693.708-.014,10.231,0,20.461-.019,30.692a4.113,4.113,0,0,1-4.358,4.2c-5.154.018-10.309.006-15.463.006q-5.871,0-11.742,0c-2.937,0-4.621-1.688-4.622-4.613Q375.079,267.077,375.082,257.4Zm1.674-.029q0,9.351,0,18.7a3.248,3.248,0,0,0,3.5,3.6q12.9.021,25.8,0a3.245,3.245,0,0,0,3.539-3.561q.01-7.489,0-14.977a4.137,4.137,0,0,0-.028-.66.5.5,0,0,0-.5-.462.491.491,0,0,0-.522.521c-.011.248-.012.5-.012.744q0,7.24,0,14.481c0,2.13-.7,2.833-2.813,2.834q-12.53,0-25.06,0c-2.163,0-2.853-.7-2.853-2.886q0-18.287,0-36.575c0-.193-.005-.386,0-.579a2.162,2.162,0,0,1,2.338-2.318c.606-.015,1.213,0,1.819-.019.287-.011.552-.121.578-.471.029-.392-.23-.555-.559-.576-.522-.032-1.047-.024-1.57-.021-2.4.015-3.663,1.278-3.664,3.689Q376.752,248.1,376.755,257.369Zm16.3,12.747a10.068,10.068,0,1,0-9.929-10.329A10.059,10.059,0,0,0,393.058,270.116Zm15.484-14.408c0,.687,0,1.375,0,2.062,0,.377.127.673.551.659.376-.012.5-.3.5-.634q.01-1.979,0-3.959c0-.335-.137-.612-.518-.615-.435,0-.537.3-.536.672C408.544,254.5,408.542,255.1,408.543,255.708Zm1.045-5.724h.01c0-.439.014-.878,0-1.316-.015-.338-.174-.587-.555-.572a.484.484,0,0,0-.488.546q-.011,1.316,0,2.632a.515.515,0,1,0,1.029.024C409.608,250.862,409.588,250.422,409.588,249.984Z" transform="translate(-373.562 -231.931)" fill="#f9f8ea"/>
    <path id="Path_37254" data-name="Path 37254" d="M525.446,240.8c.356,0,.462.224.607.369q4.47,4.467,8.928,8.948c.161.161.493.3.367.572-.118.256-.445.127-.677.129-1.487.01-2.974.018-4.46,0a4.677,4.677,0,0,1-4.761-4.763C525.43,244.306,525.446,242.557,525.446,240.8Z" transform="translate(-498.924 -238.074)" fill="#fbf2a8"/>
    <path id="Path_37255" data-name="Path 37255" d="M385.147,265.94q0-9.268,0-18.536c0-2.411,1.259-3.674,3.664-3.689.523,0,1.049-.011,1.57.021.33.02.588.184.559.576-.026.35-.291.46-.578.471-.606.024-1.213,0-1.819.019a2.162,2.162,0,0,0-2.338,2.318c-.007.193,0,.386,0,.579q0,18.287,0,36.575c0,2.186.69,2.885,2.853,2.886q12.53,0,25.06,0c2.116,0,2.813-.7,2.813-2.834q0-7.24,0-14.481c0-.248,0-.5.012-.744a.491.491,0,0,1,.522-.521.5.5,0,0,1,.5.462,4.137,4.137,0,0,1,.028.66q0,7.489,0,14.977a3.245,3.245,0,0,1-3.539,3.561q-12.9.019-25.8,0a3.248,3.248,0,0,1-3.5-3.6Q385.143,275.291,385.147,265.94Z" transform="translate(-381.954 -240.503)"/>
    <path id="Path_37256" data-name="Path 37256" d="M433.408,353.114a10.068,10.068,0,1,1,10.166-9.754A10.062,10.062,0,0,1,433.408,353.114Zm-.191-14.688c0-1.4-.018-2.81.009-4.215.01-.534-.212-.688-.691-.612a10.534,10.534,0,0,0-2.315.574,9.076,9.076,0,0,0-6.124,8.176,8.888,8.888,0,0,0,4.851,8.981,9.122,9.122,0,0,0,10.326-.72c.763-.544.758-.646.1-1.31-1.887-1.891-3.769-3.787-5.67-5.664a1.466,1.466,0,0,1-.489-1.16C433.235,341.126,433.218,339.775,433.217,338.426Zm.6-.237c0,1.323.014,2.647-.008,3.97-.008.461.144.628.615.625,2.645-.016,5.291-.021,7.936,0,.6,0,.676-.255.624-.761a9.013,9.013,0,0,0-1.535-4.227,9.3,9.3,0,0,0-6.714-4.168c-.672-.089-.992.035-.939.84C433.874,335.7,433.814,336.948,433.814,338.189Zm9.149,5.938c.073-.489-.006-.794-.617-.789-2.452.022-4.9.007-7.356.011-.154,0-.355-.056-.44.129s.092.3.2.407q2.655,2.665,5.313,5.326c.263.264.446.33.724-.007A9.416,9.416,0,0,0,442.964,344.126Z" transform="translate(-413.912 -314.929)"/>
    <path id="Path_37257" data-name="Path 37257" d="M576.354,354.954c0-.6,0-1.21,0-1.815,0-.37.1-.676.536-.672.381,0,.516.281.518.615q.011,1.98,0,3.959c0,.331-.127.622-.5.634-.425.014-.552-.282-.551-.659Q576.356,355.985,576.354,354.954Z" transform="translate(-541.373 -331.177)"/>
    <path id="Path_37258" data-name="Path 37258" d="M577.413,323.525c0,.438.02.878-.007,1.315a.515.515,0,1,1-1.029-.024q-.013-1.316,0-2.632a.484.484,0,0,1,.488-.546c.381-.015.541.234.555.572.019.438,0,.877,0,1.316Z" transform="translate(-541.388 -305.472)"/>
    <path id="Path_37259" data-name="Path 37259" d="M436.15,341.442c0,1.35.018,2.7-.009,4.05a1.466,1.466,0,0,0,.489,1.16c1.9,1.877,3.783,3.773,5.67,5.664.663.664.668.766-.1,1.31a9.122,9.122,0,0,1-10.326.72,8.888,8.888,0,0,1-4.851-8.981,9.076,9.076,0,0,1,6.124-8.176,10.534,10.534,0,0,1,2.315-.574c.479-.075.7.078.691.612C436.131,338.632,436.149,340.037,436.15,341.442Z" transform="translate(-416.844 -317.946)" fill="#779ecd"/>
    <path id="Path_37260" data-name="Path 37260" d="M485.523,341.325c0-1.241.059-2.485-.021-3.72-.053-.8.267-.929.939-.84a9.3,9.3,0,0,1,6.714,4.168,9.012,9.012,0,0,1,1.535,4.227c.052.506-.029.765-.624.761-2.645-.022-5.29-.018-7.936,0-.47,0-.622-.164-.615-.625C485.538,343.972,485.524,342.649,485.523,341.325Z" transform="translate(-465.621 -318.066)" fill="#fbf2a8"/>
    <path id="Path_37261" data-name="Path 37261" d="M498.382,396.079a9.416,9.416,0,0,1-2.176,5.078c-.278.337-.462.272-.724.007q-2.651-2.669-5.313-5.326c-.109-.11-.287-.217-.2-.407s.286-.129.44-.129c2.452,0,4.9.01,7.356-.011C498.377,395.285,498.455,395.59,498.382,396.079Z" transform="translate(-469.331 -366.882)" fill="#ed6977"/>
  </g>
</svg>
