<svg id="lh5hyP.tif" xmlns="http://www.w3.org/2000/svg" width="37.163" height="22.126" viewBox="0 0 37.163 22.126">
  <g id="Group_516" data-name="Group 516">
    <path id="Path_626" data-name="Path 626" d="M266.737,134.17c0,1.121,0,2.142,0,3.164,0,1.472-.354,1.826-1.81,1.827h-1.211c-.024.356-.05.615-.057.875-.037,1.465-.388,1.816-1.849,1.831-1.818.02-2.129-.292-2.129-2.137v-6.168H242.912q0,2.624,0,5.254c0,.565.026,1.133-.013,1.7a1.309,1.309,0,0,1-1.329,1.342,9.981,9.981,0,0,1-1.1.01c-1.14-.043-1.521-.446-1.54-1.607-.005-.327,0-.654,0-1.093-.541,0-1,0-1.45,0-1.23-.007-1.671-.431-1.693-1.677-.018-1.061,0-2.122,0-3.319-.614,0-1.167,0-1.72,0a1.2,1.2,0,0,1-1.331-1.285c-.029-1.4-.021-2.794,0-4.191.013-.863.579-1.228,1.357-1.293.523-.044,1.052-.009,1.7-.009,0-1.013,0-1.969,0-2.924.007-1.7.359-2.053,2.041-2.058.328,0,.657,0,1.011,0a3.2,3.2,0,0,0,.079-.425c.079-2.129.239-2.278,2.41-2.225,1.092.027,1.563.476,1.576,1.6.021,1.862.006,3.726.006,5.589v1.144h16.77c0-.756,0-1.537,0-2.318,0-1.53-.011-3.06.011-4.59.015-.976.433-1.377,1.4-1.417.332-.014.665-.011,1,0,1.075.021,1.506.431,1.56,1.5.018.36,0,.72,0,1.045.14.061.2.107.254.107,2.8,0,2.815.015,2.826,2.846,0,.69,0,1.379,0,2.129.549,0,.977-.006,1.4,0,1.234.024,1.707.472,1.724,1.675q.026,1.746,0,3.492c-.017,1.17-.475,1.607-1.645,1.617C267.764,134.173,267.308,134.17,266.737,134.17Zm-7.142-1.663v-3.456H243v3.456Zm-17.606-1.645c0-3.055-.021-6.111.014-9.166.009-.792-.185-1.14-1.051-1.116-.786.022-1.21.128-1.2,1.084q.058,9.117,0,18.233c-.006.93.345,1.091,1.168,1.088.8,0,1.1-.2,1.089-1.056C241.96,136.908,241.989,133.885,241.989,130.862Zm20.786,0c0-3.057-.019-6.114.013-9.17.009-.8-.205-1.141-1.068-1.112-.778.025-1.215.115-1.208,1.077q.058,9.12,0,18.24c0,.819.231,1.107,1.07,1.084.767-.021,1.23-.065,1.21-1.05C262.737,136.911,262.774,133.886,262.775,130.863Zm-26.087-.1c0,2.194.028,4.388-.014,6.582-.016.827.334,1.012,1.077.995.716-.016,1.2-.065,1.194-1q-.048-6.532,0-13.063c.008-.946-.491-.969-1.2-.984-.732-.015-1.1.15-1.077.986C236.719,126.438,236.688,128.6,236.688,130.761Zm26.972-.013c0,2.194.036,4.39-.017,6.582-.023.927.436,1,1.167,1s1.1-.137,1.089-.983q-.049-6.533,0-13.066c.007-.835-.335-1.007-1.07-.992-.7.014-1.215.016-1.189.972C263.7,126.425,263.658,128.587,263.66,130.748Zm-27.874.075c0-.6-.02-1.2.006-1.793.032-.767-.478-.764-1-.724s-1.222-.243-1.218.706c.006,1.195-.027,2.391.024,3.584a.923.923,0,0,0,.487.7c1.26.365,1.695.013,1.7-1.276C235.787,131.619,235.786,131.221,235.786,130.823Zm30.95-.061h.006c0,.6.017,1.2,0,1.794-.028.811.51.786,1.073.778s1.181.109,1.17-.78c-.014-1.163-.008-2.325,0-3.488,0-.533-.218-.752-.775-.776-1.4-.058-1.467-.017-1.471,1.377C266.735,130.032,266.736,130.4,266.736,130.762Z" transform="translate(-232.716 -119.748)"/>
    <path id="Path_627" data-name="Path 627" d="M262.349,135h-16.6v-3.456h16.6Z" transform="translate(-235.471 -122.24)" fill="#fff"/>
    <path id="Path_628" data-name="Path 628" d="M243.873,131.085c0,3.022-.029,6.045.018,9.067.013.854-.288,1.054-1.089,1.056-.823,0-1.174-.159-1.168-1.088q.058-9.117,0-18.233c-.006-.956.417-1.062,1.2-1.084.865-.024,1.06.324,1.051,1.116C243.852,124.974,243.873,128.03,243.873,131.085Z" transform="translate(-234.6 -119.97)" fill="#5a82db"/>
    <path id="Path_629" data-name="Path 629" d="M270.222,131.086c0,3.023-.038,6.048.021,9.07.02.984-.443,1.028-1.21,1.05-.838.023-1.073-.265-1.07-1.084q.043-9.12,0-18.24c-.006-.962.43-1.052,1.208-1.077.863-.029,1.077.315,1.068,1.112C270.2,124.972,270.222,128.029,270.222,131.086Z" transform="translate(-240.163 -119.97)" fill="#5a82db"/>
    <path id="Path_630" data-name="Path 630" d="M237.748,131.71c0-2.161.031-4.322-.015-6.482-.018-.836.345-1,1.077-.986.707.014,1.205.037,1.2.984q-.054,6.53,0,13.063c.007.932-.478.981-1.194,1-.743.017-1.092-.168-1.077-.995C237.776,136.1,237.748,133.9,237.748,131.71Z" transform="translate(-233.776 -120.697)" fill="#facd5c"/>
    <path id="Path_631" data-name="Path 631" d="M271.944,131.7c0-2.161.037-4.323-.018-6.482-.025-.957.49-.958,1.189-.972.735-.015,1.077.157,1.07.992q-.053,6.533,0,13.066c.006.846-.364.987-1.089.983s-1.189-.076-1.166-1C271.981,136.087,271.945,133.892,271.944,131.7Z" transform="translate(-241.001 -120.697)" fill="#facd5c"/>
    <path id="Path_632" data-name="Path 632" d="M236.015,133.112c0,.4,0,.8,0,1.195,0,1.29-.438,1.641-1.7,1.276a.923.923,0,0,1-.487-.7c-.05-1.193-.018-2.389-.024-3.584,0-.949.71-.666,1.218-.706s1.029-.043,1,.724C235.994,131.916,236.015,132.514,236.015,133.112Z" transform="translate(-232.945 -122.037)" fill="#ed3e54"/>
    <path id="Path_633" data-name="Path 633" d="M275.85,133.047c0-.365,0-.73,0-1.1,0-1.394.073-1.435,1.471-1.377.557.024.779.243.775.776-.009,1.163-.015,2.325,0,3.488.011.889-.6.772-1.17.78s-1.1.033-1.073-.778c.021-.6,0-1.2,0-1.793Z" transform="translate(-241.831 -122.032)" fill="#ed3e54"/>
  </g>
</svg>
