<svg xmlns="http://www.w3.org/2000/svg" width="38.06" height="38.279" viewBox="0 0 38.06 38.279">
  <g id="Group_53092" data-name="Group 53092" transform="translate(-193.499 -489.219)">
    <path id="Path_8726" data-name="Path 8726" d="M231.275,504.277a40.05,40.05,0,0,0-.138,5.558c.021,1.921.2,3.842.349,5.76a11.286,11.286,0,0,1-.8,5.971,9.963,9.963,0,0,1-10.14,5.881c-2.613-.248-5.231-.456-7.851-.6a29.318,29.318,0,0,0-3.333.172c-1.907.118-3.812.273-5.719.357a9.78,9.78,0,0,1-9.741-7.356,12.968,12.968,0,0,1-.295-4.457c.145-1.96.314-3.921.358-5.884.054-2.417-.1-4.832-.26-7.245a26.294,26.294,0,0,1-.152-4.443,9.815,9.815,0,0,1,8.072-8.631,15.183,15.183,0,0,1,3.861-.044c2.288.181,4.574.4,6.865.517a31.309,31.309,0,0,0,3.374-.167c1.838-.11,3.674-.275,5.514-.333a9.825,9.825,0,0,1,10.2,8.523,22.466,22.466,0,0,1-.042,4.483C231.372,502.989,231.318,503.633,231.275,504.277Zm-14.45-11.024c.087-.359.156-.724.267-1.076.083-.263.008-.354-.249-.425a16,16,0,0,0-3.12-.52,16.32,16.32,0,0,0-5.5.53c-.246.068-.28.169-.228.4.189.857.349,1.719.524,2.58.218,1.075.443,2.149.654,3.225.05.255.127.346.407.245a11.047,11.047,0,0,1,1.074-.277,10.886,10.886,0,0,1,4.8.256c.163.048.275.052.323-.169C216.118,496.434,216.474,494.844,216.825,493.254Zm6.127,13.2a10.324,10.324,0,0,1-.3,5c-.081.222.08.228.2.256q2.39.529,4.781,1.051c.373.092.747.177,1.117.278.231.063.313-.037.367-.248a16.63,16.63,0,0,0,.025-8.557c-.075-.284-.159-.368-.472-.293-1.629.385-3.268.736-4.9,1.111-.357.082-.9.026-1.018.3S222.87,506.079,222.952,506.452Zm-8.512,12.3a10.9,10.9,0,0,1-4.8-.259c-.165-.049-.274-.049-.321.17-.343,1.593-.7,3.183-1.051,4.773-.085.346-.153.7-.26,1.036-.091.29-.008.4.285.474a16.945,16.945,0,0,0,8.673-.016c.3-.076.316-.218.253-.472-.166-.68-.313-1.364-.465-2.047-.276-1.231-.557-2.462-.824-3.7-.055-.257-.135-.341-.411-.242A11.064,11.064,0,0,1,214.44,518.755Zm-16.985-14.75c-.376-.074-.758-.129-1.127-.23-.251-.069-.316.041-.357.245-.129.645-.285,1.285-.391,1.934a16.317,16.317,0,0,0,.39,6.729c.046.178.087.282.327.227,1.977-.455,3.958-.895,5.938-1.333.165-.037.24-.073.176-.265-.106-.324-.183-.659-.272-.989a11.177,11.177,0,0,1,.307-5.213c.076-.226-.075-.215-.21-.239Zm.817,9.861c-.471.095-.937.219-1.412.276-.431.052-.407.227-.271.555a17.055,17.055,0,0,0,9.571,9.582c.478.2.479.194.543-.334.064-.252.134-.5.19-.755q.55-2.473,1.092-4.948c.036-.162.117-.324-.127-.447a10.578,10.578,0,0,1-4.778-4.785c-.071-.14-.132-.2-.312-.162C201.271,513.2,199.771,513.529,198.272,513.866Zm0-11.039c1.311.3,2.621.6,3.934.892.739.165.739.159,1.122-.511a10.7,10.7,0,0,1,4.417-4.26c.153-.081.328-.117.269-.377-.444-1.939-.875-3.882-1.311-5.823-.064-.529-.063-.529-.542-.337a17.146,17.146,0,0,0-9.614,9.7c-.069.177-.189.345.153.4C197.228,502.589,197.748,502.719,198.272,502.827Zm25.416,10.34c-.427-.1-.86-.18-1.28-.3-.239-.07-.334,0-.438.21a10.564,10.564,0,0,1-4.579,4.645c-.108.058-.294.078-.192.285.445,2.039.9,4.076,1.328,6.118.065.307.192.244.391.164a17.144,17.144,0,0,0,9.619-9.7c.064-.164.212-.33-.139-.4C226.825,513.861,225.257,513.509,223.688,513.167Zm-6.6-14.392c.005.013.007.032.016.037a10.806,10.806,0,0,1,4.924,4.912c.072.144.157.153.3.118.452-.113.907-.213,1.361-.317,1.542-.335,3.083-.678,4.628-1,.3-.061.342-.146.23-.422a17.12,17.12,0,0,0-9.73-9.748c-.263-.108-.361-.088-.425.224-.276,1.344-.6,2.679-.876,4.023A14.565,14.565,0,0,0,217.089,498.775Zm4.693,9.56a9.237,9.237,0,1,0-9.236,9.245A9.167,9.167,0,0,0,221.782,508.335ZM206.945,525.98A18.924,18.924,0,0,1,195.027,514.3c-.041.641-.079,1.157-.107,1.673a13.057,13.057,0,0,0,.01,2.754,8.593,8.593,0,0,0,9.021,7.431C204.911,526.125,205.87,526.046,206.945,525.98Zm23.131-23.712c.052-.913.113-1.826.153-2.739a8.564,8.564,0,0,0-5.773-8.519,10.808,10.808,0,0,0-4.886-.358,6.313,6.313,0,0,0-1.251.14,18.685,18.685,0,0,1,7.189,4.42A19.794,19.794,0,0,1,230.075,502.267Zm-.033,12.143a19.072,19.072,0,0,1-11.555,11.469c.929.072,1.845.114,2.761.151a8.583,8.583,0,0,0,8.72-6.494A16.3,16.3,0,0,0,230.042,514.41Zm-34.984-12.094a18.926,18.926,0,0,1,11.427-11.477c-.972-.083-1.927-.18-2.882-.181a8.414,8.414,0,0,0-6.942,3.325C194.707,496.465,194.648,499.33,195.058,502.316Z"/>
    <path id="Path_8727" data-name="Path 8727" d="M238.556,501.577a14.567,14.567,0,0,1,.425-2.171c.278-1.344.6-2.679.876-4.023.064-.312.162-.332.425-.224a17.12,17.12,0,0,1,9.73,9.748c.113.276.066.361-.23.422-1.545.32-3.086.663-4.628,1a.685.685,0,0,0-.119-.382,8.068,8.068,0,0,0-1.274-1.653,9.823,9.823,0,0,0-4.026-2.538C239.362,501.636,238.988,501.363,238.556,501.577Z" transform="translate(-21.467 -2.802)" fill="#ecf0f8"/>
    <path id="Path_8728" data-name="Path 8728" d="M245.255,534.96c1.57.342,3.137.693,4.711,1.017.351.072.2.238.139.4a17.144,17.144,0,0,1-9.619,9.7c-.2.08-.326.143-.391-.164-.432-2.042-.883-4.08-1.328-6.118a6.764,6.764,0,0,0,2.211-.727,9.433,9.433,0,0,0,3.42-2.694A3.088,3.088,0,0,0,245.255,534.96Z" transform="translate(-21.567 -21.793)" fill="#ecf0f8"/>
    <path id="Path_8729" data-name="Path 8729" d="M211.046,495.959c.436,1.941.867,3.884,1.311,5.823.059.26-.116.3-.269.377a10.7,10.7,0,0,0-4.417,4.26c-.383.67-.383.676-1.122.511-1.313-.293-2.623-.594-3.934-.892a1.356,1.356,0,0,1,.041-.241,17.918,17.918,0,0,1,8.391-9.838Z" transform="translate(-4.343 -3.211)" fill="#ecf0f8"/>
    <path id="Path_8730" data-name="Path 8730" d="M202.615,535.358c1.5-.338,3-.671,4.5-1.017.18-.041.241.022.312.162a10.578,10.578,0,0,0,4.778,4.785c.243.123.162.284.127.447q-.541,2.475-1.092,4.948c-.057.253-.126.5-.19.755a17.1,17.1,0,0,1-3.693-2.648,17.885,17.885,0,0,1-3.562-4.593A13.027,13.027,0,0,1,202.615,535.358Z" transform="translate(-4.343 -21.491)" fill="#ecf0f8"/>
    <path id="Path_8731" data-name="Path 8731" d="M200.964,517.46l4.782.865c.136.025.287.013.21.239a11.177,11.177,0,0,0-.307,5.213,3.9,3.9,0,0,0-1.04.2,2.684,2.684,0,0,1-3.444-1.96,16.574,16.574,0,0,1-.295-2.47C200.838,518.846,200.96,518.156,200.964,517.46Z" transform="translate(-3.509 -13.455)" fill="#e94b50"/>
    <path id="Path_8732" data-name="Path 8732" d="M227.607,545.342a11.083,11.083,0,0,0,1.074-.278c.276-.1.356-.014.412.242.267,1.234.548,2.464.824,3.7.153.683.3,1.367.465,2.047.062.255.046.4-.253.472a16.946,16.946,0,0,1-8.673.016c-.293-.078-.376-.184-.285-.474.106-.339.175-.69.26-1.036a8.418,8.418,0,0,1,1.186.087c.988.022,1.961-.171,2.94-.224a2.713,2.713,0,0,0,2.337-3.437A11.15,11.15,0,0,1,227.607,545.342Z" transform="translate(-13.167 -26.587)" fill="#da3343"/>
    <path id="Path_8733" data-name="Path 8733" d="M254.14,528.076q-2.391-.525-4.781-1.051c-.124-.027-.284-.033-.2-.255a10.323,10.323,0,0,0,.3-5c.449-.113.9-.229,1.347-.337a2.645,2.645,0,0,1,3.02,1.657,12.351,12.351,0,0,1,.4,2.738A21.247,21.247,0,0,1,254.14,528.076Z" transform="translate(-26.506 -15.317)" fill="#e94b50"/>
    <path id="Path_8734" data-name="Path 8734" d="M223.817,499.733a11.064,11.064,0,0,0-1.074.278c-.28.1-.357.01-.407-.245-.211-1.076-.437-2.15-.654-3.225-.174-.86-.335-1.723-.524-2.58-.052-.236-.017-.337.228-.4a16.322,16.322,0,0,1,5.5-.53,16,16,0,0,1,3.12.52c.257.07.332.162.249.425-.11.352-.18.717-.266,1.076a8.234,8.234,0,0,1-1.185-.087,29.321,29.321,0,0,0-2.939.227,2.7,2.7,0,0,0-2.337,3.436C223.661,498.98,223.724,499.362,223.817,499.733Z" transform="translate(-13.168 -1.794)" fill="#da3343"/>
    <path id="Path_8735" data-name="Path 8735" d="M225.881,501.529c-.094-.371-.156-.753-.285-1.11a2.7,2.7,0,0,1,2.337-3.436,29.322,29.322,0,0,1,2.939-.227,8.251,8.251,0,0,0,1.185.087c-.351,1.591-.707,3.181-1.05,4.773-.048.221-.16.217-.323.169A10.887,10.887,0,0,0,225.881,501.529Z" transform="translate(-15.232 -3.589)" fill="#e94b50"/>
    <path id="Path_8736" data-name="Path 8736" d="M227.875,545.373a11.144,11.144,0,0,0,.286,1.111,2.713,2.713,0,0,1-2.337,3.437c-.979.053-1.951.246-2.94.224a8.41,8.41,0,0,0-1.186-.087c.352-1.591.707-3.181,1.051-4.773.047-.219.156-.219.321-.17A10.9,10.9,0,0,0,227.875,545.373Z" transform="translate(-13.436 -26.618)" fill="#e94b50"/>
    <path id="Path_8737" data-name="Path 8737" d="M199.176,517.232c0,.7-.126,1.386-.094,2.087a16.575,16.575,0,0,0,.295,2.47,2.684,2.684,0,0,0,3.444,1.96,3.9,3.9,0,0,1,1.04-.2c.089.33.166.665.272.989.063.193-.011.229-.176.265-1.981.438-3.961.878-5.938,1.333-.24.055-.282-.049-.327-.227a16.318,16.318,0,0,1-.39-6.729c.105-.649.262-1.289.391-1.934.041-.2.105-.314.357-.245C198.419,517.1,198.8,517.158,199.176,517.232Z" transform="translate(-1.722 -13.227)" fill="#da3343"/>
    <path id="Path_8738" data-name="Path 8738" d="M254.222,526.13a21.24,21.24,0,0,0,.086-2.249,12.351,12.351,0,0,0-.4-2.738,2.645,2.645,0,0,0-3.02-1.656c-.45.108-.9.224-1.347.337-.082-.373-.323-.815-.2-1.1s.661-.222,1.018-.3c1.632-.375,3.27-.726,4.9-1.111.314-.074.4.009.472.293a16.629,16.629,0,0,1-.025,8.557c-.054.211-.136.31-.367.248C254.969,526.307,254.6,526.222,254.222,526.13Z" transform="translate(-26.589 -13.371)" fill="#da3343"/>
    <path id="Path_8739" data-name="Path 8739" d="M209.406,495.546a17.918,17.918,0,0,0-8.391,9.838,1.361,1.361,0,0,0-.041.241c-.524-.108-1.044-.238-1.572-.318-.342-.052-.222-.22-.153-.4a17.146,17.146,0,0,1,9.614-9.7C209.342,495.017,209.342,495.016,209.406,495.546Z" transform="translate(-2.702 -2.798)" fill="#d3e3ef"/>
    <path id="Path_8740" data-name="Path 8740" d="M201,536.295a13.033,13.033,0,0,0,1.176,2.839,17.886,17.886,0,0,0,3.562,4.593,17.1,17.1,0,0,0,3.693,2.648c-.064.528-.065.533-.543.335a17.055,17.055,0,0,1-9.571-9.582c-.136-.328-.16-.5.271-.556C200.067,536.514,200.533,536.39,201,536.295Z" transform="translate(-2.732 -22.429)" fill="#d3e3ef"/>
    <path id="Path_8741" data-name="Path 8741" d="M245.228,534.661a3.088,3.088,0,0,1-.857,1.416,9.433,9.433,0,0,1-3.42,2.694,6.765,6.765,0,0,1-2.211.727c-.1-.206.083-.227.192-.285a10.565,10.565,0,0,0,4.579-4.645c.1-.205.2-.28.438-.21C244.368,534.482,244.8,534.563,245.228,534.661Z" transform="translate(-21.54 -21.494)" fill="#d3e3ef"/>
    <path id="Path_8742" data-name="Path 8742" d="M238.556,507.4c.432-.214.806.059,1.179.177a9.822,9.822,0,0,1,4.026,2.538,8.068,8.068,0,0,1,1.274,1.653.685.685,0,0,1,.119.382c-.454.1-.909.2-1.361.317-.139.035-.225.026-.3-.118a10.806,10.806,0,0,0-4.924-4.912C238.563,507.431,238.561,507.411,238.556,507.4Z" transform="translate(-21.467 -8.623)" fill="#d3e3ef"/>
  </g>
</svg>
