<svg id="Group_57435" data-name="Group 57435" xmlns="http://www.w3.org/2000/svg" width="56.212" height="49.084" viewBox="0 0 56.212 49.084">
  <path id="Path_39588" data-name="Path 39588" d="M303.849,2402.887a15.01,15.01,0,0,1-1.525,6.25.99.99,0,0,0,.122,1.192c2.468,3.314,4.909,6.649,7.36,9.976.217.3.5.574.31.984-.2.448-.62.408-1.014.413-2.275.031-4.551.081-6.826.084a.843.843,0,0,0-.94.7c-.668,2.146-1.369,4.281-2.065,6.417-.128.393-.216.856-.735.913-.478.052-.656-.366-.883-.674q-3.75-5.082-7.483-10.177a1.18,1.18,0,0,0-1.171-.556,25.118,25.118,0,0,1-2.821-.005,1,1,0,0,0-.974.467q-3.749,5.132-7.537,10.235c-.24.325-.434.786-.947.7-.544-.087-.591-.6-.727-1.013-.679-2.087-1.383-4.167-2.026-6.266a.923.923,0,0,0-1.062-.75c-2.223,0-4.446-.05-6.669-.084-.385-.006-.822.07-1.034-.375-.2-.426.07-.745.306-1.064,2.438-3.3,4.866-6.615,7.322-9.906a1.119,1.119,0,0,0,.15-1.327,16.174,16.174,0,0,1,12.6-22.779C295.3,2385.019,303.861,2392.542,303.849,2402.887Zm-1.372-.548a14.8,14.8,0,1,0-14.905,14.738A14.848,14.848,0,0,0,302.476,2402.339Zm-31.724,18.1v.033c.967,0,1.935-.005,2.9,0a.884.884,0,0,0,.826-.329q1.593-2.184,3.207-4.352c.244-.328.258-.587-.1-.86a14.693,14.693,0,0,1-3.205-3.413c-.307-.451-.53-.4-.814-.007-.532.743-1.073,1.48-1.615,2.216q-2.208,3-4.416,5.99c-.132.18-.39.369-.261.6s.429.105.651.108C268.871,2420.446,269.812,2420.439,270.753,2420.439Zm37.471.033c-.219-.363-.322-.568-.455-.75q-1.6-2.177-3.211-4.345-1.422-1.92-2.846-3.838c-.193-.26-.356-.568-.681-.1a16.143,16.143,0,0,1-3.367,3.582c-.26.2-.368.381-.121.707,1.1,1.456,2.187,2.928,3.269,4.4a.731.731,0,0,0,.647.348C303.65,2420.468,305.844,2420.472,308.224,2420.472Zm-32.279-1.049a2.152,2.152,0,0,0-.723,2.928c.485,1.091.757,2.275,1.156,3.406.206.583.255,1.613.663,1.647.642.054.819-.948,1.307-1.392,1.478-1.343,1.465-2.824.635-4.526-.546-1.118-.851-2.353-1.29-3.525-.068-.182-.056-.632-.486-.368a1.876,1.876,0,0,0-.689,2.173c.4,1.035.81,2.067,1.21,3.1.082.21.262.512-.013.623-.36.144-.379-.247-.462-.473C276.814,2421.827,276.383,2420.633,275.944,2419.423Zm23-.5c.038-.524-.43-.722-.638-1.065-.1-.171-.2-.408-.455-.353-.215.045-.2.287-.26.449-.658,1.842-1.3,3.689-1.966,5.526a.883.883,0,0,0,.152.931c.675.9,1.33,1.805,1.991,2.711.121.166.212.415.447.389.258-.029.239-.319.3-.5.548-1.658,1.014-3.347,1.646-4.971a1.875,1.875,0,0,0-.414-2.242c-.118-.12-.139-.371-.384-.319-.264.055-.225.294-.288.49-.343,1.066-.707,2.126-1.073,3.184-.057.165-.131.409-.346.356-.293-.073-.176-.347-.12-.523.189-.6.412-1.182.618-1.772C298.417,2420.445,298.679,2419.682,298.943,2418.919Zm-3.817,4.581c.8-2.238,1.557-4.319,2.285-6.411.188-.541-.277-.877-.575-1.2-.258-.279-.5.114-.741.219a1.911,1.911,0,0,0-.95,1.361c-.3.909-.584,1.815-.953,2.7-.214.515-.7,1.167-.2,1.828C294.33,2422.459,294.679,2422.913,295.125,2423.5Zm-13.591-2.027c-.618-1.689-1.186-3.368-1.868-5-.148-.354-.681-.824-1.133-.6a1.058,1.058,0,0,0-.636,1.224c.662,1.976,1.37,3.936,2.066,5.9.062.177.212.4.388.2A5.707,5.707,0,0,0,281.534,2421.473Zm-1.144-4.515q.656,1.824,1.312,3.648c.166.463.376.324.585.042.6-.814,1.2-1.632,1.84-2.507C282.874,2417.738,281.683,2417.376,280.39,2416.958Zm10.849,1.164a7.6,7.6,0,0,0,1.139,1.655c.318.388.474,1.153.99,1.071.406-.064.381-.831.55-1.283.323-.861.614-1.734.992-2.81A21.779,21.779,0,0,1,291.24,2418.123Z" transform="translate(-256.682 -2386.119)" fill="#4f312e"/>
  <path id="Path_39589" data-name="Path 39589" d="M255.734,2407.333c.858-1.572.1-2.827-1.34-3.9-.4-.3-.281-.731.253-.719a3.156,3.156,0,0,0,3.481-2.494c.171-.589.625-.578.819.03a3.045,3.045,0,0,0,3.349,2.432c.225-.012.5.017.578.3s-.14.452-.321.574a2.986,2.986,0,0,0-1.255,3.873.525.525,0,0,1-.1.65c-.235.175-.477.015-.644-.123a2.965,2.965,0,0,0-4.071,0C255.954,2408.345,255.673,2408.144,255.734,2407.333Zm5.989-3.972c-.731-.338-1.546-.08-2.109-.533-.537-.433-.568-1.26-1.106-1.8a7.239,7.239,0,0,1-1.106,1.826c-.513.457-1.394.164-2.223.595.295.22.5.386.712.53a1.777,1.777,0,0,1,.727,2.294c-.081.232-.21.571.016.732s.506-.078.7-.225a1.727,1.727,0,0,1,2.344-.035,1.865,1.865,0,0,0,.345.183c.137.068.281.195.433.1s.092-.29.039-.427a2.3,2.3,0,0,1,1-2.953A1.491,1.491,0,0,0,261.723,2403.361Z" transform="translate(-249.162 -2395.483)" fill="#4f312e"/>
  <path id="Path_39590" data-name="Path 39590" d="M240.734,2433.364a2.2,2.2,0,0,1,2.21,2.266,2.4,2.4,0,0,1-2.321,2.293,2.5,2.5,0,0,1-2.339-2.3A2.269,2.269,0,0,1,240.734,2433.364Z" transform="translate(-238.284 -2418.499)" fill="#fbfbfa"/>
  <path id="Path_39591" data-name="Path 39591" d="M314.2,2526.652a.3.3,0,0,1,.011-.077,2.413,2.413,0,0,0-1.005-3.14c-.467-.343-.337-.661.237-.765a.7.7,0,0,1,.153-.029,2.235,2.235,0,0,0,2.49-1.828c.06-.22.182-.453.479-.438.26.013.312.243.4.425a1.881,1.881,0,0,1,.137.281,1.945,1.945,0,0,0,2.119,1.533c.3-.011.753-.035.873.366.109.363-.265.559-.5.725a2,2,0,0,0-.807,2.554c.1.269.251.63-.068.869-.3.221-.571-.03-.773-.187a2.287,2.287,0,0,0-2.969.069C314.41,2527.391,314.177,2527.236,314.2,2526.652Zm2.262-5.2a2.122,2.122,0,0,1-2.408,1.828c.845.745,1.346,1.453,1,2.572-.144.464.351.219.508.11a1.512,1.512,0,0,1,1.926,0c.415.294.666.132.506-.36a1.61,1.61,0,0,1,.707-1.938,1.67,1.67,0,0,0,.248-.325c-.5-.3-1.1-.08-1.532-.392S316.946,2522.031,316.465,2521.448Z" transform="translate(-289.441 -2478.134)" fill="#4f312e"/>
  <path id="Path_39592" data-name="Path 39592" d="M399.235,2442.9a2.723,2.723,0,0,1,.075-.394,1.469,1.469,0,0,0-.563-1.844c-.231-.171-.591-.362-.481-.734s.508-.351.8-.338c.924.041,1.34-.5,1.626-1.271.083-.224.152-.54.5-.525.331.014.43.311.489.544a1.612,1.612,0,0,0,1.79,1.265c.252,0,.555.015.643.334.075.275-.137.449-.325.576a1.736,1.736,0,0,0-.693,2.231.5.5,0,0,1-.078.585c-.226.2-.465.079-.642-.064a1.774,1.774,0,0,0-2.4-.006C399.593,2443.542,399.221,2443.546,399.235,2442.9Zm.027-2.687c.6.61,1.112,1.078.8,1.863a.2.2,0,0,0,.317.233c.645-.545,1.248-.223,2.072.227a1.72,1.72,0,0,1,.712-2.3c-.913-.062-1.542-.225-1.778-1.012-.069-.229-.321-.226-.4.008C400.748,2439.983,400.156,2440.167,399.263,2440.213Z" transform="translate(-347.919 -2421.536)" fill="#4f312e"/>
  <path id="Path_39593" data-name="Path 39593" d="M319.348,2405.357a14.8,14.8,0,1,1-14.668-14.835A14.809,14.809,0,0,1,319.348,2405.357Zm-18.509,4.857c-.023.734.182.889.735.615.819-.406,1.632-.826,2.424-1.281a1.109,1.109,0,0,1,1.237,0c.744.434,1.516.82,2.281,1.218.227.118.468.288.73.1s.172-.475.133-.724c-.126-.8-.244-1.6-.419-2.39a1.253,1.253,0,0,1,.413-1.386c.653-.56,1.243-1.2,1.856-1.8.164-.163.382-.324.291-.595-.1-.287-.361-.346-.631-.382-.88-.117-1.756-.273-2.639-.349a1.026,1.026,0,0,1-.943-.676c-.383-.83-.784-1.653-1.215-2.458-.332-.619-.653-.61-.982.017q-.654,1.249-1.251,2.528a.922.922,0,0,1-.836.584c-.882.089-1.759.233-2.638.349-.265.035-.538.068-.659.344-.137.312.121.477.3.656.63.626,1.245,1.271,1.908,1.862a1.085,1.085,0,0,1,.355,1.177C301.1,2408.512,300.973,2409.419,300.838,2410.214Zm17.177-4.5a13.554,13.554,0,0,0-11.3-13.668c-.642-.1-1.3-.127-1.948-.177-.166-.013-.32.053-.334.249s.131.261.3.269.314,0,.47.013a12.954,12.954,0,0,1,11.691,16.833c-.064.219-.325.553.049.669.34.106.379-.292.45-.519A12.56,12.56,0,0,0,318.015,2405.717Zm-26.8-1.05a13.653,13.653,0,0,0,4.4,10.578c.213.193.44.37.666.548.126.1.272.189.415.042s.036-.29-.075-.4-.237-.205-.355-.308a12.407,12.407,0,0,1-3.906-5.858,12.825,12.825,0,0,1,4.6-14.338c.2-.159.637-.3.369-.634-.221-.278-.46.072-.648.215A13.019,13.019,0,0,0,291.217,2404.667Zm12.836,14.055c.24-.089.733.2.73-.271,0-.441-.491-.241-.764-.266a18.371,18.371,0,0,1-2.924-.478c-.2-.052-.522-.187-.582.15-.041.229.237.3.44.36A15.74,15.74,0,0,0,304.053,2418.722Zm-6.195-2.39c-.126.014-.244.03-.259.155-.043.357.276.415.49.513.26.119.482.466.83.219a.288.288,0,0,0-.008-.274A2.9,2.9,0,0,0,297.858,2416.333Z" transform="translate(-273.553 -2389.136)" fill="#f6c961"/>
  <path id="Path_39594" data-name="Path 39594" d="M275.362,2475.076c-.941,0-1.882.008-2.823-.006-.221,0-.523.124-.651-.108s.128-.424.261-.6q2.2-3,4.416-5.99c.542-.735,1.083-1.472,1.615-2.216.284-.4.507-.443.814.008a14.7,14.7,0,0,0,3.205,3.413c.355.273.341.532.1.86q-1.612,2.17-3.208,4.351a.885.885,0,0,1-.826.329c-.967-.009-1.934,0-2.9,0Z" transform="translate(-261.291 -2440.757)" fill="#e63f56"/>
  <path id="Path_39595" data-name="Path 39595" d="M378.532,2475.1c-2.38,0-4.574,0-6.767,0a.731.731,0,0,1-.647-.349c-1.081-1.473-2.164-2.946-3.269-4.4-.247-.326-.139-.5.121-.707a16.134,16.134,0,0,0,3.367-3.582c.325-.467.489-.159.681.1q1.423,1.919,2.846,3.837,1.608,2.171,3.211,4.345C378.211,2474.534,378.313,2474.739,378.532,2475.1Z" transform="translate(-326.991 -2440.749)" fill="#e63f56"/>
  <path id="Path_39596" data-name="Path 39596" d="M297.3,2487.811c.439,1.21.87,2.4,1.308,3.6.083.226.1.617.462.473.275-.11.094-.412.013-.623-.4-1.035-.81-2.067-1.21-3.1a1.877,1.877,0,0,1,.689-2.173c.43-.263.418.187.486.369.439,1.173.744,2.407,1.29,3.525.83,1.7.844,3.182-.635,4.525-.488.443-.665,1.446-1.307,1.392-.409-.034-.457-1.064-.663-1.647-.4-1.131-.67-2.315-1.156-3.406A2.151,2.151,0,0,1,297.3,2487.811Z" transform="translate(-278.041 -2454.507)" fill="#e63f56"/>
  <path id="Path_39597" data-name="Path 39597" d="M365.223,2487.265c-.264.762-.525,1.526-.791,2.287-.206.591-.429,1.177-.618,1.772-.056.176-.173.451.12.523.215.053.289-.191.346-.356.366-1.059.73-2.118,1.073-3.184.063-.2.024-.434.288-.49.245-.052.266.2.384.319a1.875,1.875,0,0,1,.414,2.242c-.632,1.625-1.1,3.314-1.646,4.972-.06.183-.041.473-.3.5-.236.025-.326-.223-.447-.389-.661-.906-1.316-1.817-1.991-2.711a.882.882,0,0,1-.152-.931c.669-1.837,1.308-3.685,1.966-5.527.058-.162.046-.4.26-.449.257-.055.351.182.455.354C364.793,2486.543,365.261,2486.741,365.223,2487.265Z" transform="translate(-322.962 -2454.464)" fill="#e63f56"/>
  <path id="Path_39598" data-name="Path 39598" d="M357.526,2488.144c-.447-.588-.8-1.041-1.138-1.5-.5-.66-.01-1.312.2-1.827.369-.889.657-1.794.953-2.7a1.91,1.91,0,0,1,.95-1.36c.244-.106.483-.5.741-.219.3.321.763.657.575,1.2C359.083,2483.824,358.327,2485.906,357.526,2488.144Z" transform="translate(-319.083 -2450.762)" fill="#e63f56"/>
  <path id="Path_39599" data-name="Path 39599" d="M309.256,2486.163a5.707,5.707,0,0,1-1.183,1.725c-.176.2-.325-.025-.388-.2-.7-1.964-1.4-3.925-2.066-5.9a1.058,1.058,0,0,1,.635-1.224c.452-.221.986.249,1.133.6C308.07,2482.8,308.638,2484.474,309.256,2486.163Z" transform="translate(-284.404 -2450.808)" fill="#e63f56"/>
  <path id="Path_39600" data-name="Path 39600" d="M313.64,2484.14c1.292.417,2.483.78,3.736,1.182-.642.875-1.238,1.694-1.84,2.508-.209.282-.419.421-.585-.042Q314.3,2485.963,313.64,2484.14Z" transform="translate(-289.931 -2453.301)" fill="#e63f56"/>
  <path id="Path_39601" data-name="Path 39601" d="M348.123,2484.862a21.8,21.8,0,0,0,3.672-1.366c-.378,1.076-.669,1.949-.992,2.81-.17.452-.144,1.218-.55,1.283-.516.082-.672-.683-.99-1.071A7.587,7.587,0,0,1,348.123,2484.862Z" transform="translate(-313.565 -2452.859)" fill="#e63f56"/>
  <path id="Path_39602" data-name="Path 39602" d="M263.955,2406.078a1.49,1.49,0,0,1-.224.286,2.3,2.3,0,0,0-1,2.953c.052.137.125.321-.039.427s-.3-.029-.433-.1a1.9,1.9,0,0,1-.345-.183,1.727,1.727,0,0,0-2.344.034c-.2.147-.474.388-.7.225s-.1-.5-.016-.731a1.777,1.777,0,0,0-.727-2.294c-.216-.144-.417-.309-.712-.53.828-.431,1.71-.138,2.223-.6a7.233,7.233,0,0,0,1.106-1.826c.539.538.569,1.365,1.106,1.8C262.409,2406,263.225,2405.74,263.955,2406.078Z" transform="translate(-251.394 -2398.2)" fill="#e7b431"/>
  <path id="Path_39603" data-name="Path 39603" d="M318.932,2523.79c.481.583.515,1.175.954,1.491s1.029.09,1.532.392a1.662,1.662,0,0,1-.248.325,1.61,1.61,0,0,0-.707,1.938c.16.492-.091.655-.506.361a1.511,1.511,0,0,0-1.926,0c-.157.109-.652.354-.508-.11.347-1.119-.155-1.827-1-2.572A2.122,2.122,0,0,0,318.932,2523.79Z" transform="translate(-291.908 -2480.476)" fill="#e7b431"/>
  <path id="Path_39604" data-name="Path 39604" d="M401.476,2442.958c.894-.047,1.485-.23,1.726-.982.075-.233.327-.237.4-.008.236.788.865.95,1.778,1.012a1.719,1.719,0,0,0-.712,2.3c-.824-.449-1.428-.772-2.072-.227a.2.2,0,0,1-.317-.233C402.588,2444.036,402.074,2443.568,401.476,2442.958Z" transform="translate(-350.132 -2424.281)" fill="#e7b431"/>
  <path id="Path_39605" data-name="Path 39605" d="M320.323,2430.084c.135-.8.261-1.7.451-2.594a1.086,1.086,0,0,0-.355-1.177c-.662-.591-1.277-1.235-1.908-1.862-.18-.179-.438-.344-.3-.656.121-.276.394-.309.659-.344.879-.116,1.756-.26,2.638-.349a.922.922,0,0,0,.836-.584q.6-1.277,1.251-2.528c.328-.627.649-.637.982-.017.432.805.833,1.628,1.215,2.458a1.025,1.025,0,0,0,.943.676c.883.076,1.76.231,2.639.349.27.036.535.094.631.382.091.271-.127.432-.291.595-.613.607-1.2,1.242-1.856,1.8a1.253,1.253,0,0,0-.413,1.386c.174.789.293,1.591.419,2.39.039.249.132.536-.133.724s-.5.015-.73-.1c-.765-.4-1.536-.785-2.281-1.218a1.107,1.107,0,0,0-1.237,0c-.792.455-1.606.874-2.424,1.281C320.506,2430.973,320.3,2430.818,320.323,2430.084Zm.946-.441c.782-.412,1.44-.712,2.048-1.091a1.383,1.383,0,0,1,1.6.008,7.152,7.152,0,0,0,2,.956c-.141-.83-.241-1.577-.4-2.311a1.134,1.134,0,0,1,.369-1.188c.585-.546,1.13-1.136,1.766-1.782-.882-.133-1.668-.285-2.461-.357a1.061,1.061,0,0,1-.945-.689c-.342-.718-.713-1.422-1.144-2.274-.414.819-.775,1.476-1.082,2.158a1.249,1.249,0,0,1-1.106.824,10.284,10.284,0,0,0-2.3.383c.6.616,1.153,1.206,1.734,1.763a1.064,1.064,0,0,1,.332,1.12C321.512,2427.92,321.423,2428.692,321.27,2429.644Z" transform="translate(-293.038 -2409.007)" fill="#4f312e"/>
  <path id="Path_39606" data-name="Path 39606" d="M350.011,2408.654a12.559,12.559,0,0,1-.621,3.67c-.07.227-.109.624-.45.519-.375-.116-.113-.45-.049-.669a12.953,12.953,0,0,0-11.691-16.832c-.156-.011-.313-.006-.47-.013s-.317-.066-.3-.27.168-.262.334-.249c.65.05,1.306.074,1.948.177A13.554,13.554,0,0,1,350.011,2408.654Z" transform="translate(-305.549 -2392.074)" fill="#4f312e"/>
  <path id="Path_39607" data-name="Path 39607" d="M294.426,2412.658a13.019,13.019,0,0,1,5.462-10.157c.188-.143.427-.493.648-.215.268.338-.167.474-.369.634a12.826,12.826,0,0,0-4.6,14.338,12.408,12.408,0,0,0,3.906,5.858c.119.1.245.2.355.308s.226.247.075.4-.289.058-.415-.041c-.226-.178-.453-.355-.666-.548A13.654,13.654,0,0,1,294.426,2412.658Z" transform="translate(-276.762 -2397.128)" fill="#4f312e"/>
  <path id="Path_39608" data-name="Path 39608" d="M327.5,2477.787a15.7,15.7,0,0,1-3.1-.505c-.2-.058-.481-.131-.44-.36.06-.338.383-.2.582-.15a18.343,18.343,0,0,0,2.924.478c.273.026.762-.175.765.267C328.237,2477.988,327.745,2477.7,327.5,2477.787Z" transform="translate(-297.005 -2448.201)" fill="#4f312e"/>
  <path id="Path_39609" data-name="Path 39609" d="M314.962,2472.559a2.9,2.9,0,0,1,1.053.613.288.288,0,0,1,.008.274c-.348.247-.57-.1-.83-.219-.215-.1-.533-.156-.49-.514C314.718,2472.589,314.836,2472.573,314.962,2472.559Z" transform="translate(-290.657 -2445.363)" fill="#4f312e"/>
  <path id="Path_39610" data-name="Path 39610" d="M324.412,2432.7c.153-.951.243-1.724.412-2.479a1.064,1.064,0,0,0-.332-1.12c-.581-.557-1.132-1.147-1.735-1.763a10.3,10.3,0,0,1,2.3-.383,1.25,1.25,0,0,0,1.106-.824c.307-.682.668-1.34,1.082-2.158.431.852.8,1.556,1.144,2.274a1.06,1.06,0,0,0,.945.689c.793.072,1.579.225,2.461.357-.635.646-1.18,1.236-1.766,1.782a1.134,1.134,0,0,0-.369,1.188c.16.734.26,1.481.4,2.311a7.164,7.164,0,0,1-2-.956,1.384,1.384,0,0,0-1.6-.009C325.851,2431.985,325.193,2432.285,324.412,2432.7Z" transform="translate(-296.18 -2412.06)" fill="#e7b431"/>
</svg>
