<svg id="Group_53087" data-name="Group 53087" xmlns="http://www.w3.org/2000/svg" width="51.57" height="55.111" viewBox="0 0 51.57 55.111">
  <path id="Path_37286" data-name="Path 37286" d="M2036.917,226.89a4.266,4.266,0,0,1,1.469,3.729c-.092,3.544-.023,7.092-.032,10.639-.005,2.038-.865,2.914-2.9,2.925-3.1.017-6.2.024-9.294-.01a1.4,1.4,0,0,0-1.457.821c-.561,1.083-1.176,2.142-1.819,3.178-.51.822-1.065.821-1.577,0-.644-1.037-1.255-2.1-1.817-3.18a1.4,1.4,0,0,0-1.46-.816c-3.057.035-6.115.022-9.172.012-2.186-.007-3.016-.852-3.019-3.051,0-3.506.054-7.013-.027-10.517a4.124,4.124,0,0,1,1.465-3.727ZM2022.1,246.509c.592-1.012,1.153-1.824,1.561-2.706a1.979,1.979,0,0,1,2.14-1.2c3.142.056,6.286.024,9.429.019,1.429,0,1.641-.2,1.646-1.611.011-3.674-.016-7.348.016-11.021.01-1.128-.392-1.623-1.575-1.619q-13.225.04-26.45,0c-1.1,0-1.556.421-1.549,1.518.025,3.714,0,7.429.014,11.144,0,1.395.221,1.586,1.669,1.588,3.225,0,6.45.023,9.674-.013a1.694,1.694,0,0,1,1.76,1.005C2020.9,244.553,2021.477,245.445,2022.1,246.509Z" transform="translate(-1996.297 -226.89)"/>
  <path id="Path_37287" data-name="Path 37287" d="M1967.354,356.8a2.968,2.968,0,0,1,.449.022,4.053,4.053,0,0,0,4.49-1.6,3.324,3.324,0,0,1,3.536-1c2.564.525,5.166.867,7.744,1.328a8.417,8.417,0,0,0,3.368-.391c.354-.078.585-.171.437-.645-.3-.954.229-1.443,1.079-1.714,1.629-.52,3.253-1.054,4.881-1.577a1.411,1.411,0,0,1,1.953,1.064c1.6,4.961,3.16,9.932,4.757,14.893a1.269,1.269,0,0,1-.931,1.795c-1.7.571-3.409,1.1-5.12,1.633-.261.081-.666.188-.817.06-.983-.834-1.585-.051-2.256.464-.971.745-1.925,1.513-2.91,2.239-.546.4-.8.687-.146,1.289a2.36,2.36,0,0,1,.417,2.832,2.4,2.4,0,0,1-2.442,1.512,1.074,1.074,0,0,0-1.2.661,2.391,2.391,0,0,1-2.469,1.246c-.493-.04-.793.015-.894.53-.007.037-.043.069-.062.1-.571,1.068-1.833.975-2.6,1.539-.727.535-.993,1.723-2.1,2.022a2.56,2.56,0,0,1-2.2-.418,9.37,9.37,0,0,1-.845-.706,6.743,6.743,0,0,0-1.672-1.406c-.753-.29-1.037.722-1.627,1.039a2.585,2.585,0,0,1-3.762-1.265c-.246-.627-.468-1.062-1.212-1.245-1.223-.3-1.23-1.9-1.982-2.362-.956-.584-1.978-.918-2.3-2.094a1,1,0,0,0-.857-.809,2.569,2.569,0,0,1-1.816-3.144,3.494,3.494,0,0,0-1.976-3.178c-.158-.049-.3-.132-.442.006-.919.928-1.7.276-2.51-.2-1.229-.725-2.476-1.42-3.7-2.157-1.151-.7-1.284-1.159-.625-2.292,2.582-4.44,5.187-8.866,7.77-13.305a1.364,1.364,0,0,1,2.127-.618c1.508.892,3.046,1.738,4.514,2.691.457.3,1.07.749.747,1.483-.3.677.21.9.6,1.063C1965.629,356.556,1966.5,357.134,1967.354,356.8Zm1.234,1.561c-1.725-.1-3.242.063-4.472-.911-.776-.615-1.157-.253-1.569.468-1.7,2.974-3.409,5.941-5.184,8.869-.55.908-.638,1.5.473,1.943a1.849,1.849,0,0,1,.971,1.063c.419,1.008.83,1.042,1.6.232,1.392-1.467,2.949-1.385,4.27.128.264.3.4.462.87.328,2.2-.628,3.607.449,3.6,2.694,0,.412-.064.771.411,1.032a2.608,2.608,0,0,1,1.252,3.042c-.052.291-.158.528.178.725a2.842,2.842,0,0,1,1.488,2.747c-.016.375.244.589.486.806q.955.86,1.92,1.707c.55.486,1.16.7,1.728.1.6-.639.392-1.256-.218-1.8-1.31-1.165-2.611-2.341-3.922-3.506-.465-.413-1.075-.874-.5-1.5.505-.548,1.025-.061,1.464.336q2.27,2.049,4.559,4.077a1.168,1.168,0,0,0,1.748.044c.591-.6.323-1.2-.2-1.7s-1.086-.988-1.632-1.479q-1.729-1.553-3.461-3.1c-.4-.361-.676-.782-.236-1.255s.885-.2,1.274.156c.151.137.294.283.446.419,1.821,1.635,3.637,3.275,5.468,4.9.574.509,1.245.726,1.847.095.649-.681.238-1.265-.323-1.774q-1.042-.945-2.087-1.886c-1.152-1.037-2.309-2.068-3.457-3.109-.375-.34-.541-.733-.127-1.16.362-.373.746-.247,1.094.024.289.225.549.487.822.732q2.826,2.529,5.654,5.055c.591.525,1.282.9,1.922.178.621-.705.217-1.335-.372-1.9q-2.736-2.629-5.438-5.292c-2.27-2.23-4.527-4.475-6.8-6.705-.249-.245-.466-.648-.9-.486a1.044,1.044,0,0,0-.671,1.063,4.2,4.2,0,0,1-.042.61c-.349,2.172-1.208,4.018-3.453,4.774-1.8.6-3.046-.358-3.067-2.239-.011-1.02.077-2.05-.034-3.058-.222-2,.1-3.718,2.012-4.808C1968.138,358.941,1968.242,358.745,1968.587,358.358Zm-1,5.645c0,1.146-.015,1.921,0,2.7.025,1.085.5,1.35,1.477.815a4.076,4.076,0,0,0,1.958-3.6,2.812,2.812,0,0,1,1.954-2.784c1.181-.412,1.761.534,2.418,1.174,3.269,3.187,6.529,6.384,9.739,9.63.734.743,1.244.924,2.094.176A42.172,42.172,0,0,1,1991,369.2a1.293,1.293,0,0,0,.511-1.753c-1.118-3.358-2.208-6.726-3.239-10.111-.23-.755-.521-.8-1.219-.667a8,8,0,0,1-2.979.471c-2.963-.523-5.934-1-8.9-1.512a1.653,1.653,0,0,0-1.559.418c-1.255,1.163-2.492,2.36-3.852,3.389C1968.077,360.706,1966.938,362.121,1967.586,364Zm25.9-11.245c-1.389.448-2.825.9-4.254,1.377-.388.129-.266.449-.18.719q2.169,6.806,4.338,13.612c.156.491.413.648.909.484,1.2-.4,2.4-.792,3.608-1.147.583-.171.645-.461.47-1-1.453-4.493-2.88-9-4.327-13.491C1993.973,353.074,1993.943,352.721,1993.485,352.758Zm-38.97,15.51c.449-.077.511-.443.667-.709q3.164-5.377,6.315-10.761c1.115-1.9,1.12-1.9-.828-3.05-.562-.332-1.157-.616-1.685-.995-.632-.455-.972-.433-1.4.323-1.866,3.3-3.813,6.555-5.722,9.832-.532.913-1.567,1.953-1.407,2.74.186.918,1.7,1.2,2.619,1.779C1953.557,367.727,1954.057,368,1954.515,368.268Zm13.156,4.532a1.016,1.016,0,0,0-.623-.954,1.118,1.118,0,0,0-1.339.291c-1,.961-1.973,1.942-2.941,2.932-.518.53-.693,1.147-.089,1.712a1.11,1.11,0,0,0,1.716-.145q1.415-1.435,2.849-2.851A1.2,1.2,0,0,0,1967.671,372.8Zm-1.482,6.994c.061-.011.208.007.295-.057a12.487,12.487,0,0,0,2.812-2.821.937.937,0,0,0-.253-1.217.988.988,0,0,0-1.337-.131,12.855,12.855,0,0,0-2.54,2.6A1.088,1.088,0,0,0,1966.189,379.794Zm-2.535-8.217a1.147,1.147,0,0,0-1.811-.843,11.547,11.547,0,0,0-1.977,1.964,1.064,1.064,0,0,0,.761,1.721C1961.465,374.5,1963.695,372.41,1963.654,371.576Zm7.224,8.712a.965.965,0,0,0-1.1-1.02c-.728.005-2.156,1.4-2.1,2.088a1.1,1.1,0,0,0,1.193,1.116C1969.58,382.477,1970.9,381,1970.878,380.288Z" transform="translate(-1948.584 -330.082)"/>
  <path id="Path_37288" data-name="Path 37288" d="M2029.625,253.908c-.618-1.063-1.194-1.956-1.667-2.9A1.694,1.694,0,0,0,2026.2,250c-3.224.036-6.449.018-9.674.013-1.448,0-1.664-.193-1.669-1.588-.012-3.715.011-7.429-.014-11.144-.007-1.1.453-1.521,1.549-1.518q13.225.033,26.45,0c1.183,0,1.585.491,1.575,1.619-.032,3.673,0,7.347-.016,11.021,0,1.414-.216,1.609-1.646,1.611-3.143,0-6.286.037-9.429-.019a1.979,1.979,0,0,0-2.14,1.2C2030.778,252.084,2030.217,252.9,2029.625,253.908Zm.054-8.554h-9.41c-.464,0-.923.029-1.072.585a.684.684,0,0,0,.217.776,1.907,1.907,0,0,0,1.178.23q9.043,0,18.087-.007c.587,0,1.366.118,1.386-.777s-.741-.8-1.344-.8Q2034.2,245.347,2029.679,245.353Zm-.054-6.4q-4.585,0-9.169,0c-.562,0-1.259-.095-1.26.752,0,.864.711.732,1.263.733q9.17.008,18.339,0c.556,0,1.264.122,1.261-.738s-.7-.746-1.264-.747Q2034.209,238.947,2029.625,238.953Zm-.13,4.686c3.1,0,6.194.005,9.291-.005.544,0,1.269.148,1.274-.72,0-.837-.683-.765-1.254-.766q-9.168,0-18.337,0c-.565,0-1.26-.09-1.274.744-.015.865.7.74,1.255.742C2023.464,243.644,2026.479,243.64,2029.494,243.64Z" transform="translate(-2003.826 -234.289)" fill="#fff"/>
  <path id="Path_37289" data-name="Path 37289" d="M2010.636,390.833c-.345.388-.449.583-.612.676-1.909,1.091-2.234,2.806-2.012,4.808.112,1.008.023,2.038.034,3.058.021,1.881,1.269,2.844,3.067,2.239,2.245-.756,3.1-2.6,3.453-4.774a4.187,4.187,0,0,0,.042-.61,1.044,1.044,0,0,1,.671-1.063c.438-.162.655.242.9.486,2.27,2.231,4.527,4.475,6.8,6.705q2.707,2.659,5.438,5.292c.589.566.993,1.2.372,1.9-.64.726-1.332.347-1.922-.178q-2.834-2.52-5.654-5.055c-.274-.245-.533-.507-.822-.732-.348-.271-.731-.4-1.094-.024-.415.427-.249.819.127,1.16,1.148,1.041,2.3,2.072,3.457,3.109q1.046.941,2.087,1.886c.561.509.972,1.093.323,1.774-.6.632-1.273.415-1.847-.095-1.831-1.624-3.647-3.264-5.467-4.9-.152-.136-.3-.282-.446-.419-.389-.354-.826-.638-1.274-.156s-.167.895.236,1.255q1.732,1.551,3.461,3.1c.546.491,1.1.972,1.632,1.479s.8,1.1.2,1.7a1.168,1.168,0,0,1-1.748-.044q-2.291-2.025-4.559-4.077c-.44-.4-.959-.884-1.464-.336-.575.623.035,1.084.5,1.5,1.311,1.165,2.612,2.341,3.922,3.506.609.542.819,1.159.218,1.8-.568.6-1.177.388-1.728-.1q-.963-.851-1.92-1.707c-.241-.217-.5-.432-.486-.806a2.842,2.842,0,0,0-1.488-2.747c-.336-.2-.229-.434-.178-.725a2.609,2.609,0,0,0-1.252-3.042c-.475-.261-.412-.621-.411-1.032,0-2.246-1.41-3.322-3.6-2.694-.469.134-.606-.025-.87-.328-1.32-1.514-2.878-1.6-4.27-.129-.768.809-1.179.776-1.6-.232a1.849,1.849,0,0,0-.972-1.063c-1.111-.44-1.023-1.036-.473-1.943,1.775-2.928,3.486-5.9,5.184-8.869.412-.721.792-1.083,1.569-.468C2007.393,390.9,2008.911,390.731,2010.636,390.833Z" transform="translate(-1990.633 -362.558)" fill="#e0bc90"/>
  <path id="Path_37290" data-name="Path 37290" d="M2061.959,388.7c-.647-1.882.492-3.3,2.175-4.57,1.361-1.03,2.6-2.227,3.852-3.389a1.653,1.653,0,0,1,1.559-.418c2.964.516,5.936.989,8.9,1.512a8,8,0,0,0,2.979-.471c.7-.134.99-.089,1.219.667,1.032,3.385,2.122,6.753,3.239,10.111a1.292,1.292,0,0,1-.511,1.753,42.2,42.2,0,0,0-3.768,2.914c-.85.748-1.359.567-2.094-.176-3.209-3.247-6.47-6.443-9.739-9.63-.657-.64-1.237-1.585-2.418-1.174a2.812,2.812,0,0,0-1.954,2.784,4.075,4.075,0,0,1-1.958,3.6c-.979.535-1.452.27-1.477-.815C2061.944,390.624,2061.959,389.849,2061.959,388.7Z" transform="translate(-2042.957 -354.783)" fill="#f9dcbb"/>
  <path id="Path_37291" data-name="Path 37291" d="M2195.989,363.273c.458-.036.488.316.564.555,1.447,4.5,2.874,9,4.327,13.491.174.539.113.828-.47,1-1.211.355-2.41.751-3.608,1.147-.5.164-.753.007-.909-.484q-2.16-6.809-4.338-13.612c-.086-.27-.208-.59.18-.719C2193.164,364.175,2194.6,363.72,2195.989,363.273Z" transform="translate(-2151.088 -340.598)" fill="#5cc67a"/>
  <path id="Path_37292" data-name="Path 37292" d="M1963.82,377.257c-.458-.266-.958-.54-1.44-.842-.923-.577-2.432-.861-2.619-1.779-.16-.786.875-1.827,1.407-2.74,1.908-3.277,3.855-6.531,5.722-9.832.427-.755.767-.777,1.4-.323.527.379,1.123.662,1.685.995,1.948,1.153,1.943,1.151.828,3.05q-3.16,5.379-6.315,10.761C1964.33,376.814,1964.269,377.181,1963.82,377.257Z" transform="translate(-1957.889 -339.072)" fill="#4c82e0"/>
  <path id="Path_37293" data-name="Path 37293" d="M2036.446,478.47a1.2,1.2,0,0,1-.426.984q-1.43,1.42-2.849,2.851a1.11,1.11,0,0,1-1.716.145c-.6-.565-.43-1.182.089-1.712.967-.99,1.944-1.971,2.941-2.932a1.118,1.118,0,0,1,1.339-.291A1.016,1.016,0,0,1,2036.446,478.47Z" transform="translate(-2017.359 -435.753)" fill="#f9dcbb"/>
  <path id="Path_37294" data-name="Path 37294" d="M2048.512,503.685a1.088,1.088,0,0,1-1.023-1.627,12.856,12.856,0,0,1,2.541-2.6.988.988,0,0,1,1.337.131.937.937,0,0,1,.253,1.217,12.484,12.484,0,0,1-2.812,2.821A.638.638,0,0,1,2048.512,503.685Z" transform="translate(-2030.907 -453.974)" fill="#f9dcbb"/>
  <path id="Path_37295" data-name="Path 37295" d="M2019.054,471.138c.041.834-2.189,2.928-3.027,2.842a1.064,1.064,0,0,1-.761-1.721,11.548,11.548,0,0,1,1.977-1.964A1.147,1.147,0,0,1,2019.054,471.138Z" transform="translate(-2003.984 -429.644)" fill="#f9dcbb"/>
  <path id="Path_37296" data-name="Path 37296" d="M2066.627,523.771c.027.714-1.3,2.188-2.007,2.182a1.1,1.1,0,0,1-1.193-1.116c-.051-.688,1.376-2.082,2.1-2.088A.964.964,0,0,1,2066.627,523.771Z" transform="translate(-2044.333 -473.565)" fill="#f9dcbb"/>
  <path id="Path_37297" data-name="Path 37297" d="M2051.342,293.439q4.522,0,9.043,0c.6,0,1.364-.1,1.344.8s-.8.776-1.386.777q-9.044.016-18.087.007a1.907,1.907,0,0,1-1.178-.23.683.683,0,0,1-.217-.776c.149-.556.608-.585,1.072-.585Z" transform="translate(-2025.49 -282.375)"/>
  <path id="Path_37298" data-name="Path 37298" d="M2051.461,254.944q4.585,0,9.169,0c.561,0,1.261-.1,1.264.747s-.7.738-1.26.738q-9.17.007-18.339,0c-.553,0-1.264.131-1.263-.733,0-.847.7-.751,1.26-.752Q2046.876,254.938,2051.461,254.944Z" transform="translate(-2025.663 -250.279)"/>
  <path id="Path_37299" data-name="Path 37299" d="M2051.32,275.652c-3.016,0-6.031,0-9.046,0-.552,0-1.269.123-1.254-.742.014-.834.709-.744,1.274-.744q9.168-.005,18.337,0c.571,0,1.257-.071,1.254.766,0,.868-.729.718-1.273.72C2057.514,275.657,2054.417,275.652,2051.32,275.652Z" transform="translate(-2025.652 -266.301)"/>
</svg>
