<svg id="DMXBLP" xmlns="http://www.w3.org/2000/svg" width="42.42" height="54.191" viewBox="0 0 42.42 54.191">
  <g id="Group_4580" data-name="Group 4580" transform="translate(0 0)">
    <path id="Path_8717" data-name="Path 8717" d="M4301.24,1046.031l-1.6-3.83c-.89,0-1.859-.016-2.828,0a.948.948,0,0,1-1.1-1.082c0-1.626.008-3.252,0-4.878-.006-.8.39-1.323,1.158-1.152,2.319.516,3.417-.589,3.9-2.687a5.931,5.931,0,0,1,.563-1.132c-.647-.637-1.3-1.3-1.979-1.942a1.054,1.054,0,0,1-.061-1.747c1.155-1.143,2.3-2.3,3.446-3.451a1.017,1.017,0,0,1,1.656.056c.644.682,1.3,1.349,1.893,1.956,1.18-.462,2.267-.824,3.286-1.323a1.414,1.414,0,0,0,.6-1.041c.138-3.2.119-3.2,3.38-3.2.728,0,1.46.056,2.182-.013,1.264-.119,1.637.437,1.6,1.648-.061,2.288,0,2.284,2.135,3.191a8.179,8.179,0,0,1,1.773,1.05c.623-.75,1.238-1.506,1.869-2.249.571-.672,1.152-.6,1.744-.006,1.111,1.126,2.221,2.255,3.354,3.36a1.037,1.037,0,0,1-.019,1.738c-.694.629-1.391,1.253-1.979,1.781.5,1.266.849,2.319,1.351,3.292a1.517,1.517,0,0,0,1.122.661c3.451.056,3.111-.355,3.119,3.228,0,.9-.018,1.8,0,2.7.021.846-.326,1.382-1.2,1.223-2.08-.375-3.367.314-3.754,2.487a6.147,6.147,0,0,1-.683,1.4c.628.594,1.264,1.22,1.926,1.816a1.125,1.125,0,0,1,.028,1.929c-1,.935-1.942,1.93-2.913,2.9-1.144,1.138-1.335,1.149-2.459,0a3.013,3.013,0,0,1-.435-.829c-.774,2.708-1.5,5.085-2.115,7.492a16.537,16.537,0,0,0-.205,2.827c1.818-.427,1.915.6,1.873,1.883-.062,1.923-.038,3.851-.006,5.777.016.929-.371,1.311-1.295,1.307q-6.8-.025-13.608,0c-.915,0-1.325-.354-1.31-1.292.031-2.011.069-4.025-.012-6.033-.051-1.258.3-1.922,1.651-1.677.384-1.772.179-2.236-1.258-3.234a13.752,13.752,0,0,1-2.82-2.177,4.627,4.627,0,0,1-1.079-2.763,3.44,3.44,0,0,0-1.261-2.714c-2.4-2.34-2.38-2.359-.013-4.813C4301,1046.309,4301.136,1046.147,4301.24,1046.031Zm10.65-23.61c0,.908-.046,1.676.012,2.437.067.873-.261,1.265-1.123,1.535a25.783,25.783,0,0,0-3.748,1.589c-.643.32-1.118.339-1.576-.216-.565-.683-1.124-1.371-1.574-1.921l-2.905,2.681c.653.624,1.26,1.222,1.887,1.8a1.146,1.146,0,0,1,.224,1.579,32.57,32.57,0,0,0-1.633,3.87c-.25.721-.563,1.072-1.349,1.024-.839-.052-1.685-.011-2.536-.011v3.731c.862,0,1.629.044,2.39-.011.869-.063,1.28.258,1.547,1.124a21.816,21.816,0,0,0,1.519,3.64c.385.738.394,1.26-.247,1.786s-1.293,1.08-1.7,1.422l1.879,2.158c.736-.49,1.451-.946,2.142-1.436.219-.156.544-.413.531-.6-.124-1.83.361-3.656-.658-5.478a9.732,9.732,0,0,1,2.414-12.074,9.936,9.936,0,0,1,12.337-.307,9.675,9.675,0,0,1,3.095,11.8,13.2,13.2,0,0,0-1.013,4.767c-.191,1.987.86,3.028,2.051,3.919l2.664-2.65c-.515-.443-1.082-.96-1.681-1.438-.738-.588-.743-1.155-.277-1.984a15.53,15.53,0,0,0,1.414-3.405,1.417,1.417,0,0,1,1.718-1.242c.75.064,1.51.013,2.25.013v-3.731c-.872,0-1.644-.055-2.4.014-.9.082-1.252-.323-1.519-1.148a23.411,23.411,0,0,0-1.532-3.635,1.252,1.252,0,0,1,.253-1.789c.63-.548,1.23-1.132,1.734-1.6l-2.741-2.758c-.478.551-.993,1.121-1.481,1.712-.59.713-1.152.74-1.989.268a16.753,16.753,0,0,0-3.522-1.463c-.875-.256-1.189-.658-1.127-1.53.058-.795.013-1.6.013-2.437Zm5.941,39.681c.563-2.028,1.1-3.916,1.612-5.808a7.37,7.37,0,0,0,.355-1.623c.116-3.071.181-6.144.278-9.216.021-.709-.094-1.4-.937-1.367-.827.031-.9.742-.892,1.437.021,1.271.006,2.542.006,3.844h-1.8c0-1.731.056-3.4-.042-5.054-.023-.4-.561-.762-.861-1.142-.3.387-.808.749-.857,1.167-.125,1.045-.041,3-.041,4.125h-1.793c0-1.764.05-4.355-.041-6.052-.02-.361-.571-.363-.866-.709-.3.332-.668.292-.867.679-.139.27-.029.671-.029,1.013v5.954h-1.8c0-1.756.059-3.427-.045-5.086-.023-.379-.511-.58-.9-.685-.457.14-.609.156-.774.563a3.972,3.972,0,0,0-.1,1.275c0,2.51,0,5.02,0,7.58h-1.734l-.109-1.949c-1.744.99-2.311,2.726-1.333,4.162a5.732,5.732,0,0,0,1.8,1.578c2.018,1.205,3.634,2.609,3.136,5.316Zm2.969-19.4a8.471,8.471,0,0,0-1.88-10.335,8.148,8.148,0,0,0-10.561.191c-2.77,2.47-3.6,6.794-1.951,9.286l3.022-.618c1.463-2.322,3.6-2.322,5.144.169a3.076,3.076,0,0,1,3.343,1.307A3.3,3.3,0,0,1,4320.8,1042.7Zm-13.316,26.588h12.522v-5.264h-12.522Z" transform="translate(-4292.078 -1016.971)" fill="#040505"/>
    <path id="Path_8718" data-name="Path 8718" d="M4340.819,1014.418c8.027,2.206,13.233,7.07,15.957,14.8l-1.7.514a20.254,20.254,0,0,0-14.674-13.589Z" transform="translate(-4314.355 -1013.912)" fill="#040505"/>
    <path id="Path_8719" data-name="Path 8719" d="M4290.218,1053.085c.679,8.76.847,9.21,6.052,16.079l-1.157,1.094c-4.546-4.038-7.418-11.72-6.447-17.343Z" transform="translate(-4288.477 -1033.1)" fill="#040505"/>
    <path id="Path_8720" data-name="Path 8720" d="M4351.6,1098.138h1.652v8.85H4351.6Z" transform="translate(-4319.937 -1055.64)" fill="#040505"/>
    <path id="Path_8721" data-name="Path 8721" d="M4335.233,1015.34l-1.665-.145v-1.786l1.826.24Z" transform="translate(-4310.952 -1013.409)" fill="#040505"/>
    <path id="Path_8722" data-name="Path 8722" d="M4313.743,1024.272h3.735c0,.841.045,1.643-.013,2.437-.063.872.252,1.274,1.126,1.53a16.751,16.751,0,0,1,3.522,1.463c.836.472,1.4.445,1.989-.268.489-.591,1-1.161,1.482-1.712l2.741,2.758c-.5.467-1.1,1.051-1.734,1.6a1.253,1.253,0,0,0-.253,1.789,23.367,23.367,0,0,1,1.532,3.635c.267.825.614,1.23,1.519,1.148.761-.069,1.532-.014,2.4-.014v3.731c-.74,0-1.5.051-2.25-.013a1.417,1.417,0,0,0-1.718,1.242,15.554,15.554,0,0,1-1.415,3.405c-.465.829-.46,1.4.277,1.984.6.478,1.166,1,1.681,1.438l-2.663,2.65c-1.192-.89-2.244-1.932-2.052-3.919a13.2,13.2,0,0,1,1.013-4.767,9.677,9.677,0,0,0-3.095-11.8,9.936,9.936,0,0,0-12.337.307,9.732,9.732,0,0,0-2.414,12.074c1.02,1.822.534,3.648.658,5.478.013.191-.312.448-.531.6-.691.49-1.405.946-2.142,1.436l-1.879-2.158c.409-.342,1.05-.889,1.7-1.423s.632-1.047.247-1.786a21.822,21.822,0,0,1-1.52-3.64c-.267-.866-.677-1.187-1.546-1.124-.76.055-1.528.011-2.39.011v-3.731c.852,0,1.7-.04,2.536.011.786.048,1.1-.3,1.35-1.024a32.578,32.578,0,0,1,1.633-3.87,1.147,1.147,0,0,0-.224-1.579c-.627-.577-1.234-1.175-1.887-1.8l2.905-2.681c.45.55,1.009,1.238,1.574,1.921.458.555.934.536,1.577.216a25.756,25.756,0,0,1,3.748-1.589c.862-.27,1.19-.663,1.124-1.535C4313.7,1025.948,4313.743,1025.181,4313.743,1024.272Z" transform="translate(-4293.932 -1018.823)" fill="#28a6db"/>
    <path id="Path_8723" data-name="Path 8723" d="M4325.865,1083.09h-8.63c.5-2.707-1.118-4.111-3.136-5.316a5.743,5.743,0,0,1-1.8-1.578c-.978-1.436-.41-3.172,1.333-4.161l.109,1.949h1.734v-7.58c0-.385.009-.787.032-1.144a.885.885,0,0,1,.95-.94c.883.117.77.552.793.931.1,1.66.045,3.33.045,5.086h1.8c0-1.974-.083-3.966-.083-5.957a2.377,2.377,0,0,1,.112-1.01,1.058,1.058,0,0,1,.842-.7c.477.074.871.373.891.734.1,1.94.023,3.889.044,5.926l1.772.045c.069-1.421-.095-2.751.059-4.044a1.157,1.157,0,0,1,.857-1.167c.747.053.838.746.862,1.143.1,1.657.041,3.322.041,5.054h1.8c0-1.3.015-2.574-.006-3.845-.011-.7.066-1.406.893-1.437.842-.031.958.658.937,1.367-.1,3.072-.162,6.145-.277,9.216a7.4,7.4,0,0,1-.355,1.623C4326.96,1079.174,4326.429,1081.063,4325.865,1083.09Z" transform="translate(-4300.112 -1037.961)" fill="#eebd98"/>
    <path id="Path_8724" data-name="Path 8724" d="M4319.192,1112.477v-5.264h12.521v5.264Zm9.072-3.512v1.685h1.6v-1.685Z" transform="translate(-4303.786 -1060.164)" fill="#28a6db"/>
    <path id="Path_8725" data-name="Path 8725" d="M4337.279,1110.7h1.6v1.685h-1.6Z" transform="translate(-4312.801 -1061.904)" fill="#040505"/>
  </g>
</svg>
