<svg id="Group_53088" data-name="Group 53088" xmlns="http://www.w3.org/2000/svg" width="51.95" height="50.396" viewBox="0 0 51.95 50.396">
  <path id="Path_37300" data-name="Path 37300" d="M1531.33,231.14a16.929,16.929,0,0,0-1.109-6.26,18.659,18.659,0,1,0-34.439,14.279,1.1,1.1,0,0,1-.14,1.315q-4.3,5.795-8.574,11.613c-.254.343-.514.685-.307,1.135.216.47.661.428,1.08.433,2.657.035,5.313.082,7.97.1a.882.882,0,0,1,1.02.71c.761,2.475,1.587,4.931,2.395,7.392.151.459.188,1.03.793,1.147.623.12.843-.423,1.127-.807q4.378-5.924,8.737-11.863a.966.966,0,0,1,.985-.473,13.677,13.677,0,0,0,3.206.016,1.525,1.525,0,0,1,1.607.777c2.879,3.953,5.793,7.882,8.691,11.821.232.316.466.618.91.533s.569-.427.691-.8c.807-2.5,1.633-5,2.44-7.5.3-.923.282-.927,1.258-.94,2.617-.036,5.234-.077,7.851-.106.412,0,.822-.011,1.032-.426s-.016-.746-.264-1.082c-2.859-3.87-5.7-7.751-8.571-11.615a1.105,1.105,0,0,1-.152-1.323A17.721,17.721,0,0,0,1531.33,231.14Z" transform="translate(-1486.686 -212.63)" fill="#e4ebb6"/>
  <path id="Path_37301" data-name="Path 37301" d="M1531.33,231.14a17.721,17.721,0,0,1-1.764,8.072,1.105,1.105,0,0,0,.152,1.323c2.868,3.864,5.712,7.745,8.571,11.615.248.335.473.669.264,1.082s-.62.422-1.032.426c-2.617.029-5.234.07-7.851.105-.976.013-.96.017-1.258.94-.807,2.5-1.633,5-2.44,7.5-.121.377-.26.722-.691.8s-.678-.217-.91-.533c-2.9-3.94-5.812-7.868-8.691-11.821a1.525,1.525,0,0,0-1.607-.777,13.677,13.677,0,0,1-3.206-.016.966.966,0,0,0-.985.473q-4.355,5.942-8.737,11.863c-.284.385-.5.928-1.127.807-.6-.117-.642-.688-.793-1.147-.807-2.461-1.634-4.917-2.395-7.392a.882.882,0,0,0-1.02-.71c-2.657-.019-5.313-.067-7.97-.1-.419-.005-.864.037-1.08-.433-.207-.45.053-.792.307-1.135q4.286-5.807,8.574-11.613a1.1,1.1,0,0,0,.14-1.315,18.659,18.659,0,1,1,34.439-14.279A16.929,16.929,0,0,1,1531.33,231.14Zm-18.653-16.885a17.046,17.046,0,1,0,17.074,17.023A17.036,17.036,0,0,0,1512.677,214.255ZM1494.6,252.163v.09c.654,0,1.309-.025,1.962.009a1.043,1.043,0,0,0,.988-.5q1.815-2.5,3.675-4.962c.266-.354.261-.593-.105-.884a18.667,18.667,0,0,1-3.879-4.149c-.262-.386-.413-.378-.68-.014q-3.619,4.931-7.257,9.848c-.1.135-.3.26-.188.457.1.179.323.107.492.107C1491.275,252.165,1492.939,252.163,1494.6,252.163Zm37.571.091v-.091c1.187,0,2.374,0,3.561,0,.168,0,.395.082.489-.1s-.108-.324-.206-.457c-.876-1.2-1.765-2.383-2.646-3.576q-2.309-3.125-4.614-6.253c-.172-.232-.308-.477-.593-.059a19.861,19.861,0,0,1-4.086,4.354c-.227.18-.294.316-.1.578q1.957,2.61,3.882,5.244a.865.865,0,0,0,.806.371C1529.838,252.246,1531.007,252.254,1532.175,252.254Zm-4.73.6a.616.616,0,0,0-.166-.5c-.256-.352-.511-.7-.783-1.044-.09-.112-.146-.338-.333-.27-.1.036-.16.215-.206.342-.365,1.025-.72,2.052-1.081,3.078-.124.354-.251.706-.389,1.055a.25.25,0,0,1-.328.176c-.143-.047-.144-.182-.133-.3a1.7,1.7,0,0,1,.088-.4c.381-1.082.768-2.161,1.151-3.242.539-1.522.538-1.522-.505-2.756-.089-.1-.172-.269-.308-.242-.153.03-.224.19-.28.35-.764,2.221-1.521,4.445-2.319,6.655a.935.935,0,0,0,.139.983c.84,1.125,1.674,2.255,2.516,3.379.09.12.149.32.335.3.229-.022.216-.254.269-.414.478-1.465.949-2.933,1.426-4.4C1526.837,254.7,1527.142,253.777,1527.444,252.858Zm-28.281-1.975c-.355.462-.6.843-.911,1.171a1.116,1.116,0,0,0-.246,1.244c.759,2.271,1.495,4.551,2.241,6.827.04.122.013.306.208.311.161,0,.221-.145.3-.255q1.31-1.764,2.621-3.529a.658.658,0,0,0,.166-.656q-1.247-3.495-2.484-6.993c-.109-.306-.268-.384-.487-.081a10.094,10.094,0,0,1-.6.811,1.145,1.145,0,0,0-.193,1.317c.262.64.476,1.3.708,1.953.265.745.531,1.491.788,2.239.056.164.128.37-.1.459s-.315-.1-.394-.262a2.594,2.594,0,0,1-.1-.28Zm6.426,2.63c-.023-.088-.033-.147-.053-.2-.656-1.864-1.279-3.74-1.993-5.582a1.842,1.842,0,0,0-1.276-.888c-.29-.087-1.008,1.109-.888,1.451.816,2.331,1.643,4.659,2.464,6.988.126.358.3.324.493.063.368-.49.736-.981,1.095-1.478A1.79,1.79,0,0,0,1505.589,253.513Zm14.17-.162a.848.848,0,0,0,.219.63c.293.4.58.8.883,1.188.1.135.177.369.365.353.229-.02.245-.275.309-.455q1.174-3.322,2.347-6.645a1.9,1.9,0,0,0-.73-1.573.22.22,0,0,0-.168.006c-.5.361-1.146.527-1.377,1.223-.4,1.217-.864,2.415-1.292,3.624C1520.11,252.277,1519.923,252.859,1519.759,253.35Zm-11.24-3.714c-.036-.217-.222-.221-.359-.255a20.182,20.182,0,0,1-3.4-1.209c-.123-.055-.26-.15-.38-.025-.1.1,0,.226.036.329.479,1.378.967,2.752,1.447,4.13.178.513.357.176.495-.007.677-.9,1.341-1.808,2.007-2.714C1508.425,249.807,1508.469,249.718,1508.518,249.636Zm12.423-1.257c-.015-.348-.189-.271-.364-.192a18.837,18.837,0,0,1-3.451,1.215c-.337.08-.36.248-.172.5.673.9,1.348,1.8,2.016,2.7.237.321.368.287.5-.086.4-1.173.828-2.339,1.245-3.508C1520.792,248.789,1520.873,248.568,1520.941,248.379Z" transform="translate(-1486.686 -212.63)"/>
  <path id="Path_37302" data-name="Path 37302" d="M1567.641,224.238a17.046,17.046,0,1,1-17.049,17.042A17.03,17.03,0,0,1,1567.641,224.238ZM1563.354,247c-.032.749.257.941.845.642.935-.475,1.874-.946,2.779-1.474a1.376,1.376,0,0,1,1.543.014c.925.534,1.878,1.02,2.831,1.5.473.24.767.037.764-.493a3.144,3.144,0,0,0-.059-.531c-.175-.975-.348-1.95-.536-2.922a1.07,1.07,0,0,1,.372-1.1c.835-.76,1.637-1.558,2.433-2.359.428-.432.284-.866-.322-.962-1.115-.177-2.234-.335-3.355-.466a.961.961,0,0,1-.87-.588c-.469-1-.972-1.993-1.47-2.984-.123-.244-.236-.53-.582-.519s-.459.277-.583.527c-.5,1.011-1,2.021-1.487,3.038a.832.832,0,0,1-.726.515c-1.14.137-2.276.308-3.414.464a.664.664,0,0,0-.613.4c-.1.275.1.448.268.613.8.793,1.6,1.6,2.431,2.361a1.035,1.035,0,0,1,.321,1.106C1563.706,244.883,1563.529,246,1563.354,247Zm19.813-5.826a11.99,11.99,0,0,0-.273-3.066,15.6,15.6,0,0,0-14.4-12.323,5.584,5.584,0,0,0-.713,0,.28.28,0,0,0-.269.328.261.261,0,0,0,.277.254c.138.008.277.008.416.015a14.4,14.4,0,0,1,9.7,4.053c4.455,4.352,5.647,9.591,3.941,15.536-.062.214-.28.473.065.6.373.14.406-.206.486-.437A13.74,13.74,0,0,0,1583.168,241.172Zm-30.885-.706a15.839,15.839,0,0,0,3.641,10.771,13.815,13.815,0,0,0,2.223,2.14c.168.129.366.207.527.008s-.016-.324-.141-.449c-.056-.056-.118-.107-.178-.158a14.489,14.489,0,0,1-5.217-14.113,14.313,14.313,0,0,1,5.821-9.4c.229-.172.7-.332.394-.7-.259-.317-.535.073-.747.232A15.016,15.016,0,0,0,1552.283,240.466Zm14.828,16.259c.114,0,.312,0,.509,0s.355-.087.357-.308-.176-.285-.368-.29a16.47,16.47,0,0,1-4.031-.6c-.205-.057-.519-.158-.586.18-.053.271.213.348.422.406A18.063,18.063,0,0,0,1567.111,256.725Zm-7.179-2.764c-.155.012-.263.051-.3.187a.265.265,0,0,0,.1.314c.37.215.744.425,1.127.616a.28.28,0,0,0,.365-.1.232.232,0,0,0-.045-.319A4.712,4.712,0,0,0,1559.932,253.96Z" transform="translate(-1541.65 -222.613)" fill="#f7ca58"/>
  <path id="Path_37303" data-name="Path 37303" d="M1509.346,429.457c-1.664,0-3.328,0-4.992,0-.169,0-.387.072-.492-.107-.115-.2.089-.322.188-.457q3.628-4.924,7.257-9.848c.267-.364.418-.372.68.014a18.666,18.666,0,0,0,3.879,4.149c.367.291.371.531.105.885q-1.854,2.469-3.675,4.962a1.043,1.043,0,0,1-.988.5c-.652-.034-1.307-.009-1.962-.009Z" transform="translate(-1501.429 -389.923)" fill="#e93d53"/>
  <path id="Path_37304" data-name="Path 37304" d="M1760.708,429.613c-1.168,0-2.336-.008-3.5.005a.865.865,0,0,1-.806-.371q-1.921-2.637-3.882-5.244c-.2-.263-.13-.4.1-.578a19.859,19.859,0,0,0,4.086-4.354c.285-.418.422-.173.593.059q2.309,3.126,4.615,6.253c.881,1.193,1.77,2.38,2.646,3.576.1.133.3.271.206.457s-.321.1-.489.1c-1.187.007-2.374,0-3.561,0Z" transform="translate(-1715.22 -389.989)" fill="#e93d53"/>
  <path id="Path_37305" data-name="Path 37305" d="M1743.118,474.912c-.3.919-.608,1.838-.907,2.758-.477,1.466-.948,2.933-1.426,4.4-.052.16-.039.392-.269.414-.186.018-.245-.182-.335-.3-.842-1.123-1.676-2.254-2.516-3.379a.934.934,0,0,1-.139-.983c.8-2.209,1.555-4.433,2.319-6.655.055-.161.127-.321.28-.35.136-.026.22.138.308.242,1.043,1.234,1.045,1.234.506,2.756-.383,1.081-.77,2.16-1.151,3.242a1.689,1.689,0,0,0-.089.4c-.011.114-.01.248.133.3a.25.25,0,0,0,.328-.176c.137-.349.264-.7.389-1.055.361-1.026.717-2.054,1.081-3.078.045-.126.108-.306.206-.342.187-.068.244.158.333.27.272.339.527.693.783,1.044A.616.616,0,0,1,1743.118,474.912Zm-3.764,4.3c.222-.046.287-.226.3-.429.009-.137-.015-.32-.2-.282-.243.05-.3.285-.329.5C1739.109,479.135,1739.2,479.211,1739.354,479.209Z" transform="translate(-1702.36 -434.684)" fill="#e93d53"/>
  <path id="Path_37306" data-name="Path 37306" d="M1568.215,472.772l1.52,4.275a2.588,2.588,0,0,0,.1.28c.079.162.17.35.394.263s.159-.3.1-.459c-.257-.748-.523-1.493-.788-2.239-.232-.653-.446-1.313-.708-1.953a1.145,1.145,0,0,1,.193-1.317c.223-.251.4-.538.6-.811.219-.3.378-.225.487.081q1.243,3.5,2.484,6.993a.658.658,0,0,1-.166.656q-1.308,1.766-2.621,3.529c-.082.11-.142.259-.3.255-.2,0-.168-.189-.208-.311-.746-2.276-1.482-4.555-2.241-6.827a1.115,1.115,0,0,1,.246-1.244C1567.611,473.615,1567.86,473.234,1568.215,472.772Zm2.323,5.47a.263.263,0,0,0-.217.347c.052.222.064.5.372.528.233.017.31-.163.253-.36C1570.884,478.542,1570.851,478.281,1570.538,478.242Z" transform="translate(-1555.737 -434.52)" fill="#e93d53"/>
  <path id="Path_37307" data-name="Path 37307" d="M1595.826,463.764a1.784,1.784,0,0,1-.158.351c-.358.5-.726.988-1.095,1.478-.2.261-.366.295-.492-.063-.821-2.329-1.648-4.657-2.464-6.988-.12-.341.6-1.538.888-1.451a1.842,1.842,0,0,1,1.276.888c.713,1.842,1.336,3.718,1.992,5.582C1595.793,463.617,1595.8,463.675,1595.826,463.764Z" transform="translate(-1576.923 -422.881)" fill="#e93d53"/>
  <path id="Path_37308" data-name="Path 37308" d="M1723.032,463.6c.165-.491.351-1.073.555-1.649.428-1.209.888-2.407,1.292-3.624.231-.7.879-.862,1.377-1.223a.22.22,0,0,1,.168-.006,1.9,1.9,0,0,1,.73,1.573q-1.175,3.322-2.347,6.645c-.064.18-.08.435-.309.455-.188.016-.26-.218-.365-.353-.3-.389-.59-.791-.883-1.188A.849.849,0,0,1,1723.032,463.6Z" transform="translate(-1689.959 -422.876)" fill="#e93d53"/>
  <path id="Path_37309" data-name="Path 37309" d="M1617.032,467.568c-.049.082-.093.171-.151.249-.667.907-1.33,1.815-2.007,2.714-.137.182-.316.52-.495.007-.479-1.378-.967-2.752-1.447-4.13-.036-.1-.134-.227-.036-.329.12-.125.257-.031.38.025a20.174,20.174,0,0,0,3.4,1.209C1616.81,467.347,1617,467.351,1617.032,467.568Z" transform="translate(-1595.2 -430.562)" fill="#e93d53"/>
  <path id="Path_37310" data-name="Path 37310" d="M1706.265,466.527c-.068.189-.149.41-.229.632-.417,1.169-.841,2.335-1.245,3.508-.129.373-.26.407-.5.086-.668-.9-1.343-1.8-2.015-2.7-.188-.252-.166-.42.172-.5a18.837,18.837,0,0,0,3.451-1.215C1706.075,466.256,1706.25,466.179,1706.265,466.527Z" transform="translate(-1672.01 -430.777)" fill="#e93d53"/>
  <path id="Path_37311" data-name="Path 37311" d="M1626.59,311.66c.175-1,.352-2.115.572-3.222a1.035,1.035,0,0,0-.321-1.106c-.834-.761-1.626-1.568-2.431-2.361-.167-.165-.368-.338-.268-.613a.664.664,0,0,1,.613-.4c1.138-.156,2.274-.326,3.414-.464a.832.832,0,0,0,.726-.515c.486-1.017.987-2.027,1.486-3.038.124-.25.251-.516.583-.527s.459.274.582.519c.5.991,1,1.98,1.47,2.984a.961.961,0,0,0,.87.588c1.121.131,2.24.29,3.355.466.606.1.75.53.322.962-.8.8-1.6,1.6-2.433,2.359a1.07,1.07,0,0,0-.372,1.1c.189.972.362,1.947.536,2.922a3.144,3.144,0,0,1,.059.531c0,.531-.292.733-.764.494-.953-.484-1.906-.97-2.831-1.5a1.376,1.376,0,0,0-1.543-.014c-.9.529-1.844,1-2.779,1.474C1626.848,312.6,1626.558,312.409,1626.59,311.66Zm4.4-10.475c-.224.007-.264.213-.339.36-.383.758-.761,1.52-1.125,2.288a.866.866,0,0,1-.723.533c-.843.115-1.684.244-2.524.375-.147.023-.36-.051-.421.131-.069.205.148.3.266.421.573.576,1.144,1.154,1.738,1.708a1.011,1.011,0,0,1,.328,1.012c-.156.836-.291,1.675-.435,2.513-.023.135-.093.3.033.39.153.115.3-.02.435-.091.719-.375,1.449-.732,2.149-1.14a1.084,1.084,0,0,1,1.17-.017c.765.415,1.541.809,2.314,1.21.262.136.419.134.349-.242-.157-.836-.27-1.681-.454-2.511a1.089,1.089,0,0,1,.37-1.159c.614-.561,1.2-1.157,1.79-1.74.1-.1.256-.187.222-.33-.049-.2-.26-.127-.4-.15-.781-.126-1.56-.285-2.347-.353a1.2,1.2,0,0,1-1.09-.767c-.335-.716-.695-1.421-1.047-2.13C1631.189,301.378,1631.167,301.225,1630.995,301.184Z" transform="translate(-1604.886 -287.274)"/>
  <path id="Path_37312" data-name="Path 37312" d="M1687.15,250.625a13.74,13.74,0,0,1-.772,4.967c-.08.231-.113.577-.485.437-.345-.13-.127-.389-.065-.6,1.706-5.944.514-11.184-3.941-15.536a14.4,14.4,0,0,0-9.7-4.053c-.138-.007-.277-.007-.416-.015a.261.261,0,0,1-.277-.254.28.28,0,0,1,.269-.328,5.587,5.587,0,0,1,.713,0,15.6,15.6,0,0,1,14.4,12.323A12,12,0,0,1,1687.15,250.625Z" transform="translate(-1645.632 -232.066)"/>
  <path id="Path_37313" data-name="Path 37313" d="M1562.676,266.287A15.016,15.016,0,0,1,1569,254.612c.212-.16.488-.549.747-.232.3.372-.166.532-.394.7a14.313,14.313,0,0,0-5.822,9.4,14.489,14.489,0,0,0,5.217,14.113c.06.052.122.1.178.158.124.126.3.255.141.449s-.359.121-.527-.008a13.815,13.815,0,0,1-2.223-2.14A15.838,15.838,0,0,1,1562.676,266.287Z" transform="translate(-1552.043 -248.434)"/>
  <path id="Path_37314" data-name="Path 37314" d="M1643.285,448.672a18.059,18.059,0,0,1-3.7-.614c-.209-.058-.476-.135-.422-.406.067-.338.381-.238.586-.18a16.47,16.47,0,0,0,4.031.6c.192,0,.369.054.368.29s-.156.3-.357.308S1643.4,448.672,1643.285,448.672Z" transform="translate(-1617.824 -414.559)"/>
  <path id="Path_37315" data-name="Path 37315" d="M1615.429,436.661a4.716,4.716,0,0,1,1.248.7.232.232,0,0,1,.045.319.28.28,0,0,1-.365.1c-.383-.191-.757-.4-1.127-.616a.265.265,0,0,1-.1-.314C1615.166,436.713,1615.273,436.673,1615.429,436.661Z" transform="translate(-1597.147 -405.313)"/>
  <path id="Path_37316" data-name="Path 37316" d="M1749.666,526.434c-.158,0-.245-.074-.226-.213.03-.214.086-.449.329-.5.183-.037.207.145.2.282C1749.953,526.208,1749.888,526.388,1749.666,526.434Z" transform="translate(-1712.672 -481.909)"/>
  <path id="Path_37317" data-name="Path 37317" d="M1591.061,525.1c.313.039.346.3.409.515.057.2-.02.377-.253.36-.308-.023-.32-.305-.372-.528A.263.263,0,0,1,1591.061,525.1Z" transform="translate(-1576.26 -481.375)"/>
  <path id="Path_37318" data-name="Path 37318" d="M1641.653,312.043c.172.04.195.193.255.313.352.708.712,1.413,1.047,2.13a1.2,1.2,0,0,0,1.089.767c.787.068,1.566.227,2.347.353.144.023.356-.054.4.15.034.143-.125.235-.222.33-.593.583-1.175,1.179-1.789,1.74a1.088,1.088,0,0,0-.37,1.159c.185.83.3,1.675.454,2.511.07.375-.086.378-.349.242-.773-.4-1.549-.8-2.314-1.21a1.084,1.084,0,0,0-1.17.016c-.7.408-1.43.765-2.149,1.14-.135.071-.282.206-.435.091-.126-.095-.056-.255-.033-.39.144-.838.279-1.677.435-2.513a1.011,1.011,0,0,0-.328-1.012c-.594-.554-1.165-1.133-1.737-1.708-.118-.119-.335-.216-.266-.421.062-.182.275-.108.421-.131.84-.131,1.681-.26,2.524-.375a.866.866,0,0,0,.723-.533c.363-.768.741-1.529,1.125-2.288C1641.389,312.256,1641.429,312.05,1641.653,312.043Z" transform="translate(-1615.545 -298.132)" fill="#daa325"/>
</svg>
